<?xml version="1.0" encoding="utf-8" standalone="no"?>
<!DOCTYPE svg PUBLIC "-//W3C//DTD SVG 1.1//EN"
  "http://www.w3.org/Graphics/SVG/1.1/DTD/svg11.dtd">
<svg height="288pt" version="1.1" viewBox="0 0 432 288" width="432pt" xmlns="http://www.w3.org/2000/svg" xmlns:xlink="http://www.w3.org/1999/xlink">
 <metadata>
  <rdf:RDF xmlns:cc="http://creativecommons.org/ns#" xmlns:dc="http://purl.org/dc/elements/1.1/" xmlns:rdf="http://www.w3.org/1999/02/22-rdf-syntax-ns#">
   <cc:Work>
    <dc:type rdf:resource="http://purl.org/dc/dcmitype/StillImage"/>
    <dc:date>2022-03-04T14:43:43.691976</dc:date>
    <dc:format>image/svg+xml</dc:format>
    <dc:creator>
     <cc:Agent>
      <dc:title>Matplotlib v3.4.3, https://matplotlib.org/</dc:title>
     </cc:Agent>
    </dc:creator>
   </cc:Work>
  </rdf:RDF>
 </metadata>
 <defs>
  <style type="text/css">*{stroke-linecap:butt;stroke-linejoin:round;}</style>
 </defs>
 <g id="figure_1">
  <g id="patch_1">
   <path d="M 0 288 
L 432 288 
L 432 0 
L 0 0 
z
" style="fill:none;"/>
  </g>
  <g id="axes_1">
   <g id="patch_2">
    <path d="M 33.675 260.2 
L 96.5525 260.2 
L 96.5525 14.8 
L 33.675 14.8 
z
" style="fill:#ffffff;"/>
   </g>
   <g id="PathCollection_1">
    <defs>
     <path d="M 0 1.5 
C 0.397805 1.5 0.77937 1.341951 1.06066 1.06066 
C 1.341951 0.77937 1.5 0.397805 1.5 0 
C 1.5 -0.397805 1.341951 -0.77937 1.06066 -1.06066 
C 0.77937 -1.341951 0.397805 -1.5 0 -1.5 
C -0.397805 -1.5 -0.77937 -1.341951 -1.06066 -1.06066 
C -1.341951 -0.77937 -1.5 -0.397805 -1.5 0 
C -1.5 0.397805 -1.341951 0.77937 -1.06066 1.06066 
C -0.77937 1.341951 -0.397805 1.5 0 1.5 
z
" id="m078116ddc3" style="stroke:#8b008b;stroke-width:2;"/>
    </defs>
    <g clip-path="url(#pa1ec2edfb3)">
     <use style="fill:#8b008b;stroke:#8b008b;stroke-width:2;" x="36.533068" xlink:href="#m078116ddc3" y="170.335211"/>
     <use style="fill:#8b008b;stroke:#8b008b;stroke-width:2;" x="41.296515" xlink:href="#m078116ddc3" y="192.801408"/>
     <use style="fill:#8b008b;stroke:#8b008b;stroke-width:2;" x="46.059962" xlink:href="#m078116ddc3" y="206.626761"/>
     <use style="fill:#8b008b;stroke:#8b008b;stroke-width:2;" x="50.823409" xlink:href="#m078116ddc3" y="218.723944"/>
     <use style="fill:#8b008b;stroke:#8b008b;stroke-width:2;" x="55.586856" xlink:href="#m078116ddc3" y="227.364789"/>
     <use style="fill:#8b008b;stroke:#8b008b;stroke-width:2;" x="60.350303" xlink:href="#m078116ddc3" y="234.277465"/>
     <use style="fill:#8b008b;stroke:#8b008b;stroke-width:2;" x="65.11375" xlink:href="#m078116ddc3" y="242.91831"/>
     <use style="fill:#8b008b;stroke:#8b008b;stroke-width:2;" x="69.877197" xlink:href="#m078116ddc3" y="244.646479"/>
     <use style="fill:#8b008b;stroke:#8b008b;stroke-width:2;" x="74.640644" xlink:href="#m078116ddc3" y="236.005634"/>
     <use style="fill:#8b008b;stroke:#8b008b;stroke-width:2;" x="79.404091" xlink:href="#m078116ddc3" y="230.821127"/>
     <use style="fill:#8b008b;stroke:#8b008b;stroke-width:2;" x="84.167538" xlink:href="#m078116ddc3" y="218.723944"/>
     <use style="fill:#8b008b;stroke:#8b008b;stroke-width:2;" x="88.930985" xlink:href="#m078116ddc3" y="199.714085"/>
     <use style="fill:#8b008b;stroke:#8b008b;stroke-width:2;" x="93.694432" xlink:href="#m078116ddc3" y="170.335211"/>
    </g>
   </g>
   <g id="matplotlib.axis_1">
    <g id="xtick_1">
     <g id="line2d_1">
      <defs>
       <path d="M 0 0 
L 0 3.5 
" id="m89dead00a7" style="stroke:#000000;stroke-width:0.8;"/>
      </defs>
      <g>
       <use style="stroke:#000000;stroke-width:0.8;" x="36.533068" xlink:href="#m89dead00a7" y="260.2"/>
      </g>
     </g>
     <g id="text_1">
      <!-- 0 -->
      <g transform="translate(33.351818 274.798437)scale(0.1 -0.1)">
       <defs>
        <path d="M 2034 4250 
Q 1547 4250 1301 3770 
Q 1056 3291 1056 2328 
Q 1056 1369 1301 889 
Q 1547 409 2034 409 
Q 2525 409 2770 889 
Q 3016 1369 3016 2328 
Q 3016 3291 2770 3770 
Q 2525 4250 2034 4250 
z
M 2034 4750 
Q 2819 4750 3233 4129 
Q 3647 3509 3647 2328 
Q 3647 1150 3233 529 
Q 2819 -91 2034 -91 
Q 1250 -91 836 529 
Q 422 1150 422 2328 
Q 422 3509 836 4129 
Q 1250 4750 2034 4750 
z
" id="DejaVuSans-30" transform="scale(0.015625)"/>
       </defs>
       <use xlink:href="#DejaVuSans-30"/>
      </g>
     </g>
    </g>
    <g id="xtick_2">
     <g id="line2d_2">
      <g>
       <use style="stroke:#000000;stroke-width:0.8;" x="84.167538" xlink:href="#m89dead00a7" y="260.2"/>
      </g>
     </g>
     <g id="text_2">
      <!-- 10 -->
      <g transform="translate(77.805038 274.798437)scale(0.1 -0.1)">
       <defs>
        <path d="M 794 531 
L 1825 531 
L 1825 4091 
L 703 3866 
L 703 4441 
L 1819 4666 
L 2450 4666 
L 2450 531 
L 3481 531 
L 3481 0 
L 794 0 
L 794 531 
z
" id="DejaVuSans-31" transform="scale(0.015625)"/>
       </defs>
       <use xlink:href="#DejaVuSans-31"/>
       <use x="63.623047" xlink:href="#DejaVuSans-30"/>
      </g>
     </g>
    </g>
   </g>
   <g id="matplotlib.axis_2">
    <g id="ytick_1">
     <g id="line2d_3">
      <defs>
       <path d="M 0 0 
L -3.5 0 
" id="m3e79a384ff" style="stroke:#000000;stroke-width:0.8;"/>
      </defs>
      <g>
       <use style="stroke:#000000;stroke-width:0.8;" x="33.675" xlink:href="#m3e79a384ff" y="260.2"/>
      </g>
     </g>
     <g id="text_3">
      <!-- 0.0 -->
      <g transform="translate(10.771875 263.999219)scale(0.1 -0.1)">
       <defs>
        <path d="M 684 794 
L 1344 794 
L 1344 0 
L 684 0 
L 684 794 
z
" id="DejaVuSans-2e" transform="scale(0.015625)"/>
       </defs>
       <use xlink:href="#DejaVuSans-30"/>
       <use x="63.623047" xlink:href="#DejaVuSans-2e"/>
       <use x="95.410156" xlink:href="#DejaVuSans-30"/>
      </g>
     </g>
    </g>
    <g id="ytick_2">
     <g id="line2d_4">
      <g>
       <use style="stroke:#000000;stroke-width:0.8;" x="33.675" xlink:href="#m3e79a384ff" y="211.12"/>
      </g>
     </g>
     <g id="text_4">
      <!-- 0.2 -->
      <g transform="translate(10.771875 214.919219)scale(0.1 -0.1)">
       <defs>
        <path d="M 1228 531 
L 3431 531 
L 3431 0 
L 469 0 
L 469 531 
Q 828 903 1448 1529 
Q 2069 2156 2228 2338 
Q 2531 2678 2651 2914 
Q 2772 3150 2772 3378 
Q 2772 3750 2511 3984 
Q 2250 4219 1831 4219 
Q 1534 4219 1204 4116 
Q 875 4013 500 3803 
L 500 4441 
Q 881 4594 1212 4672 
Q 1544 4750 1819 4750 
Q 2544 4750 2975 4387 
Q 3406 4025 3406 3419 
Q 3406 3131 3298 2873 
Q 3191 2616 2906 2266 
Q 2828 2175 2409 1742 
Q 1991 1309 1228 531 
z
" id="DejaVuSans-32" transform="scale(0.015625)"/>
       </defs>
       <use xlink:href="#DejaVuSans-30"/>
       <use x="63.623047" xlink:href="#DejaVuSans-2e"/>
       <use x="95.410156" xlink:href="#DejaVuSans-32"/>
      </g>
     </g>
    </g>
    <g id="ytick_3">
     <g id="line2d_5">
      <g>
       <use style="stroke:#000000;stroke-width:0.8;" x="33.675" xlink:href="#m3e79a384ff" y="162.04"/>
      </g>
     </g>
     <g id="text_5">
      <!-- 0.4 -->
      <g transform="translate(10.771875 165.839219)scale(0.1 -0.1)">
       <defs>
        <path d="M 2419 4116 
L 825 1625 
L 2419 1625 
L 2419 4116 
z
M 2253 4666 
L 3047 4666 
L 3047 1625 
L 3713 1625 
L 3713 1100 
L 3047 1100 
L 3047 0 
L 2419 0 
L 2419 1100 
L 313 1100 
L 313 1709 
L 2253 4666 
z
" id="DejaVuSans-34" transform="scale(0.015625)"/>
       </defs>
       <use xlink:href="#DejaVuSans-30"/>
       <use x="63.623047" xlink:href="#DejaVuSans-2e"/>
       <use x="95.410156" xlink:href="#DejaVuSans-34"/>
      </g>
     </g>
    </g>
    <g id="ytick_4">
     <g id="line2d_6">
      <g>
       <use style="stroke:#000000;stroke-width:0.8;" x="33.675" xlink:href="#m3e79a384ff" y="112.96"/>
      </g>
     </g>
     <g id="text_6">
      <!-- 0.6 -->
      <g transform="translate(10.771875 116.759219)scale(0.1 -0.1)">
       <defs>
        <path d="M 2113 2584 
Q 1688 2584 1439 2293 
Q 1191 2003 1191 1497 
Q 1191 994 1439 701 
Q 1688 409 2113 409 
Q 2538 409 2786 701 
Q 3034 994 3034 1497 
Q 3034 2003 2786 2293 
Q 2538 2584 2113 2584 
z
M 3366 4563 
L 3366 3988 
Q 3128 4100 2886 4159 
Q 2644 4219 2406 4219 
Q 1781 4219 1451 3797 
Q 1122 3375 1075 2522 
Q 1259 2794 1537 2939 
Q 1816 3084 2150 3084 
Q 2853 3084 3261 2657 
Q 3669 2231 3669 1497 
Q 3669 778 3244 343 
Q 2819 -91 2113 -91 
Q 1303 -91 875 529 
Q 447 1150 447 2328 
Q 447 3434 972 4092 
Q 1497 4750 2381 4750 
Q 2619 4750 2861 4703 
Q 3103 4656 3366 4563 
z
" id="DejaVuSans-36" transform="scale(0.015625)"/>
       </defs>
       <use xlink:href="#DejaVuSans-30"/>
       <use x="63.623047" xlink:href="#DejaVuSans-2e"/>
       <use x="95.410156" xlink:href="#DejaVuSans-36"/>
      </g>
     </g>
    </g>
    <g id="ytick_5">
     <g id="line2d_7">
      <g>
       <use style="stroke:#000000;stroke-width:0.8;" x="33.675" xlink:href="#m3e79a384ff" y="63.88"/>
      </g>
     </g>
     <g id="text_7">
      <!-- 0.8 -->
      <g transform="translate(10.771875 67.679219)scale(0.1 -0.1)">
       <defs>
        <path d="M 2034 2216 
Q 1584 2216 1326 1975 
Q 1069 1734 1069 1313 
Q 1069 891 1326 650 
Q 1584 409 2034 409 
Q 2484 409 2743 651 
Q 3003 894 3003 1313 
Q 3003 1734 2745 1975 
Q 2488 2216 2034 2216 
z
M 1403 2484 
Q 997 2584 770 2862 
Q 544 3141 544 3541 
Q 544 4100 942 4425 
Q 1341 4750 2034 4750 
Q 2731 4750 3128 4425 
Q 3525 4100 3525 3541 
Q 3525 3141 3298 2862 
Q 3072 2584 2669 2484 
Q 3125 2378 3379 2068 
Q 3634 1759 3634 1313 
Q 3634 634 3220 271 
Q 2806 -91 2034 -91 
Q 1263 -91 848 271 
Q 434 634 434 1313 
Q 434 1759 690 2068 
Q 947 2378 1403 2484 
z
M 1172 3481 
Q 1172 3119 1398 2916 
Q 1625 2713 2034 2713 
Q 2441 2713 2670 2916 
Q 2900 3119 2900 3481 
Q 2900 3844 2670 4047 
Q 2441 4250 2034 4250 
Q 1625 4250 1398 4047 
Q 1172 3844 1172 3481 
z
" id="DejaVuSans-38" transform="scale(0.015625)"/>
       </defs>
       <use xlink:href="#DejaVuSans-30"/>
       <use x="63.623047" xlink:href="#DejaVuSans-2e"/>
       <use x="95.410156" xlink:href="#DejaVuSans-38"/>
      </g>
     </g>
    </g>
    <g id="ytick_6">
     <g id="line2d_8">
      <g>
       <use style="stroke:#000000;stroke-width:0.8;" x="33.675" xlink:href="#m3e79a384ff" y="14.8"/>
      </g>
     </g>
     <g id="text_8">
      <!-- 1.0 -->
      <g transform="translate(10.771875 18.599219)scale(0.1 -0.1)">
       <use xlink:href="#DejaVuSans-31"/>
       <use x="63.623047" xlink:href="#DejaVuSans-2e"/>
       <use x="95.410156" xlink:href="#DejaVuSans-30"/>
      </g>
     </g>
    </g>
   </g>
   <g id="line2d_9">
    <path clip-path="url(#pa1ec2edfb3)" d="M 36.533068 167.577635 
L 41.296515 189.838386 
L 46.059962 208.066462 
L 50.823409 222.294112 
L 55.586856 232.562208 
L 60.350303 238.92702 
L 65.11375 241.482485 
L 69.877197 240.432186 
L 74.640644 235.650878 
L 79.404091 226.997655 
L 84.167538 214.405536 
L 88.930985 197.828514 
L 93.694432 177.231289 
" style="fill:none;stroke:#9400d3;stroke-dasharray:5.55,2.4;stroke-dashoffset:0;stroke-width:1.5;"/>
   </g>
   <g id="patch_3">
    <path d="M 33.675 260.2 
L 33.675 14.8 
" style="fill:none;stroke:#000000;stroke-linecap:square;stroke-linejoin:miter;stroke-width:0.8;"/>
   </g>
   <g id="patch_4">
    <path d="M 96.5525 260.2 
L 96.5525 14.8 
" style="fill:none;stroke:#000000;stroke-linecap:square;stroke-linejoin:miter;stroke-width:0.8;"/>
   </g>
   <g id="patch_5">
    <path d="M 33.675 260.2 
L 96.5525 260.2 
" style="fill:none;stroke:#000000;stroke-linecap:square;stroke-linejoin:miter;stroke-width:0.8;"/>
   </g>
   <g id="patch_6">
    <path d="M 33.675 14.8 
L 96.5525 14.8 
" style="fill:none;stroke:#000000;stroke-linecap:square;stroke-linejoin:miter;stroke-width:0.8;"/>
   </g>
   <g id="text_9">
    <!-- $\alpha$=2.04 -->
    <g transform="translate(42.73375 8.8)scale(0.12 -0.12)">
     <defs>
      <path d="M 2619 1628 
L 2622 2350 
Q 2625 3088 2069 3091 
Q 1653 3094 1394 2747 
Q 1069 2319 959 1747 
Q 825 1059 994 731 
Q 1169 397 1547 397 
Q 1966 397 2319 1063 
L 2619 1628 
z
M 2166 3578 
Q 3141 3594 3128 2584 
Q 3128 2584 3616 3500 
L 4128 3500 
L 3119 1603 
L 3109 919 
Q 3109 766 3194 638 
Q 3291 488 3391 488 
L 3669 488 
L 3575 0 
L 3228 0 
Q 2934 0 2722 263 
Q 2622 394 2619 669 
Q 2416 334 2066 50 
Q 1900 -81 1453 -78 
Q 722 -72 456 397 
Q 184 884 353 1747 
Q 534 2675 1009 3097 
Q 1544 3569 2166 3578 
z
" id="DejaVuSans-Oblique-3b1" transform="scale(0.015625)"/>
      <path d="M 678 2906 
L 4684 2906 
L 4684 2381 
L 678 2381 
L 678 2906 
z
M 678 1631 
L 4684 1631 
L 4684 1100 
L 678 1100 
L 678 1631 
z
" id="DejaVuSans-3d" transform="scale(0.015625)"/>
     </defs>
     <use transform="translate(0 0.78125)" xlink:href="#DejaVuSans-Oblique-3b1"/>
     <use transform="translate(65.917969 0.78125)" xlink:href="#DejaVuSans-3d"/>
     <use transform="translate(149.707031 0.78125)" xlink:href="#DejaVuSans-32"/>
     <use transform="translate(213.330078 0.78125)" xlink:href="#DejaVuSans-2e"/>
     <use transform="translate(245.117188 0.78125)" xlink:href="#DejaVuSans-30"/>
     <use transform="translate(308.740234 0.78125)" xlink:href="#DejaVuSans-34"/>
    </g>
   </g>
   <g id="legend_1">
    <g id="line2d_10">
     <path d="M 37.0275 27.898437 
L 57.0275 27.898437 
" style="fill:none;stroke:#9400d3;stroke-dasharray:5.55,2.4;stroke-dashoffset:0;stroke-width:1.5;"/>
    </g>
    <g id="line2d_11"/>
    <g id="text_10">
     <!-- fit -->
     <g transform="translate(65.0275 31.398437)scale(0.1 -0.1)">
      <defs>
       <path d="M 2375 4863 
L 2375 4384 
L 1825 4384 
Q 1516 4384 1395 4259 
Q 1275 4134 1275 3809 
L 1275 3500 
L 2222 3500 
L 2222 3053 
L 1275 3053 
L 1275 0 
L 697 0 
L 697 3053 
L 147 3053 
L 147 3500 
L 697 3500 
L 697 3744 
Q 697 4328 969 4595 
Q 1241 4863 1831 4863 
L 2375 4863 
z
" id="DejaVuSans-66" transform="scale(0.015625)"/>
       <path d="M 603 3500 
L 1178 3500 
L 1178 0 
L 603 0 
L 603 3500 
z
M 603 4863 
L 1178 4863 
L 1178 4134 
L 603 4134 
L 603 4863 
z
" id="DejaVuSans-69" transform="scale(0.015625)"/>
       <path d="M 1172 4494 
L 1172 3500 
L 2356 3500 
L 2356 3053 
L 1172 3053 
L 1172 1153 
Q 1172 725 1289 603 
Q 1406 481 1766 481 
L 2356 481 
L 2356 0 
L 1766 0 
Q 1100 0 847 248 
Q 594 497 594 1153 
L 594 3053 
L 172 3053 
L 172 3500 
L 594 3500 
L 594 4494 
L 1172 4494 
z
" id="DejaVuSans-74" transform="scale(0.015625)"/>
      </defs>
      <use xlink:href="#DejaVuSans-66"/>
      <use x="35.205078" xlink:href="#DejaVuSans-69"/>
      <use x="62.988281" xlink:href="#DejaVuSans-74"/>
     </g>
    </g>
    <g id="PathCollection_2">
     <g>
      <use style="fill:#8b008b;stroke:#8b008b;stroke-width:2;" x="47.0275" xlink:href="#m078116ddc3" y="43.451562"/>
     </g>
    </g>
    <g id="text_11">
     <!-- data -->
     <g transform="translate(65.0275 46.076562)scale(0.1 -0.1)">
      <defs>
       <path d="M 2906 2969 
L 2906 4863 
L 3481 4863 
L 3481 0 
L 2906 0 
L 2906 525 
Q 2725 213 2448 61 
Q 2172 -91 1784 -91 
Q 1150 -91 751 415 
Q 353 922 353 1747 
Q 353 2572 751 3078 
Q 1150 3584 1784 3584 
Q 2172 3584 2448 3432 
Q 2725 3281 2906 2969 
z
M 947 1747 
Q 947 1113 1208 752 
Q 1469 391 1925 391 
Q 2381 391 2643 752 
Q 2906 1113 2906 1747 
Q 2906 2381 2643 2742 
Q 2381 3103 1925 3103 
Q 1469 3103 1208 2742 
Q 947 2381 947 1747 
z
" id="DejaVuSans-64" transform="scale(0.015625)"/>
       <path d="M 2194 1759 
Q 1497 1759 1228 1600 
Q 959 1441 959 1056 
Q 959 750 1161 570 
Q 1363 391 1709 391 
Q 2188 391 2477 730 
Q 2766 1069 2766 1631 
L 2766 1759 
L 2194 1759 
z
M 3341 1997 
L 3341 0 
L 2766 0 
L 2766 531 
Q 2569 213 2275 61 
Q 1981 -91 1556 -91 
Q 1019 -91 701 211 
Q 384 513 384 1019 
Q 384 1609 779 1909 
Q 1175 2209 1959 2209 
L 2766 2209 
L 2766 2266 
Q 2766 2663 2505 2880 
Q 2244 3097 1772 3097 
Q 1472 3097 1187 3025 
Q 903 2953 641 2809 
L 641 3341 
Q 956 3463 1253 3523 
Q 1550 3584 1831 3584 
Q 2591 3584 2966 3190 
Q 3341 2797 3341 1997 
z
" id="DejaVuSans-61" transform="scale(0.015625)"/>
      </defs>
      <use xlink:href="#DejaVuSans-64"/>
      <use x="63.476562" xlink:href="#DejaVuSans-61"/>
      <use x="124.755859" xlink:href="#DejaVuSans-74"/>
      <use x="163.964844" xlink:href="#DejaVuSans-61"/>
     </g>
    </g>
   </g>
  </g>
  <g id="axes_2">
   <g id="patch_7">
    <path d="M 114.04 260.2 
L 176.9175 260.2 
L 176.9175 14.8 
L 114.04 14.8 
z
" style="fill:#ffffff;"/>
   </g>
   <g id="PathCollection_3">
    <g clip-path="url(#p4be6d756dd)">
     <use style="fill:#8b008b;stroke:#8b008b;stroke-width:2;" x="116.898068" xlink:href="#m078116ddc3" y="184.160563"/>
     <use style="fill:#8b008b;stroke:#8b008b;stroke-width:2;" x="122.094556" xlink:href="#m078116ddc3" y="199.714085"/>
     <use style="fill:#8b008b;stroke:#8b008b;stroke-width:2;" x="127.291043" xlink:href="#m078116ddc3" y="215.267606"/>
     <use style="fill:#8b008b;stroke:#8b008b;stroke-width:2;" x="132.487531" xlink:href="#m078116ddc3" y="227.364789"/>
     <use style="fill:#8b008b;stroke:#8b008b;stroke-width:2;" x="137.684019" xlink:href="#m078116ddc3" y="239.461972"/>
     <use style="fill:#8b008b;stroke:#8b008b;stroke-width:2;" x="142.880506" xlink:href="#m078116ddc3" y="248.102817"/>
     <use style="fill:#8b008b;stroke:#8b008b;stroke-width:2;" x="148.076994" xlink:href="#m078116ddc3" y="248.102817"/>
     <use style="fill:#8b008b;stroke:#8b008b;stroke-width:2;" x="153.273481" xlink:href="#m078116ddc3" y="242.91831"/>
     <use style="fill:#8b008b;stroke:#8b008b;stroke-width:2;" x="158.469969" xlink:href="#m078116ddc3" y="237.733803"/>
     <use style="fill:#8b008b;stroke:#8b008b;stroke-width:2;" x="163.666457" xlink:href="#m078116ddc3" y="229.092958"/>
     <use style="fill:#8b008b;stroke:#8b008b;stroke-width:2;" x="168.862944" xlink:href="#m078116ddc3" y="211.811268"/>
     <use style="fill:#8b008b;stroke:#8b008b;stroke-width:2;" x="174.059432" xlink:href="#m078116ddc3" y="192.801408"/>
    </g>
   </g>
   <g id="matplotlib.axis_3">
    <g id="xtick_3">
     <g id="line2d_12">
      <g>
       <use style="stroke:#000000;stroke-width:0.8;" x="116.898068" xlink:href="#m89dead00a7" y="260.2"/>
      </g>
     </g>
     <g id="text_12">
      <!-- 0 -->
      <g transform="translate(113.716818 274.798437)scale(0.1 -0.1)">
       <use xlink:href="#DejaVuSans-30"/>
      </g>
     </g>
    </g>
    <g id="xtick_4">
     <g id="line2d_13">
      <g>
       <use style="stroke:#000000;stroke-width:0.8;" x="168.862944" xlink:href="#m89dead00a7" y="260.2"/>
      </g>
     </g>
     <g id="text_13">
      <!-- 10 -->
      <g transform="translate(162.500444 274.798437)scale(0.1 -0.1)">
       <use xlink:href="#DejaVuSans-31"/>
       <use x="63.623047" xlink:href="#DejaVuSans-30"/>
      </g>
     </g>
    </g>
   </g>
   <g id="matplotlib.axis_4">
    <g id="ytick_7">
     <g id="line2d_14">
      <g>
       <use style="stroke:#000000;stroke-width:0.8;" x="114.04" xlink:href="#m3e79a384ff" y="260.2"/>
      </g>
     </g>
    </g>
    <g id="ytick_8">
     <g id="line2d_15">
      <g>
       <use style="stroke:#000000;stroke-width:0.8;" x="114.04" xlink:href="#m3e79a384ff" y="211.12"/>
      </g>
     </g>
    </g>
    <g id="ytick_9">
     <g id="line2d_16">
      <g>
       <use style="stroke:#000000;stroke-width:0.8;" x="114.04" xlink:href="#m3e79a384ff" y="162.04"/>
      </g>
     </g>
    </g>
    <g id="ytick_10">
     <g id="line2d_17">
      <g>
       <use style="stroke:#000000;stroke-width:0.8;" x="114.04" xlink:href="#m3e79a384ff" y="112.96"/>
      </g>
     </g>
    </g>
    <g id="ytick_11">
     <g id="line2d_18">
      <g>
       <use style="stroke:#000000;stroke-width:0.8;" x="114.04" xlink:href="#m3e79a384ff" y="63.88"/>
      </g>
     </g>
    </g>
    <g id="ytick_12">
     <g id="line2d_19">
      <g>
       <use style="stroke:#000000;stroke-width:0.8;" x="114.04" xlink:href="#m3e79a384ff" y="14.8"/>
      </g>
     </g>
    </g>
   </g>
   <g id="line2d_20">
    <path clip-path="url(#p4be6d756dd)" d="M 116.898068 181.278684 
L 122.094556 200.822148 
L 127.291043 217.14973 
L 132.487531 230.159292 
L 137.684019 239.711709 
L 142.880506 245.591592 
L 148.076994 247.276272 
L 153.273481 244.11277 
L 158.469969 237.014709 
L 163.666457 226.326901 
L 168.862944 212.232479 
L 174.059432 194.856108 
" style="fill:none;stroke:#9400d3;stroke-dasharray:5.55,2.4;stroke-dashoffset:0;stroke-width:1.5;"/>
   </g>
   <g id="patch_8">
    <path d="M 114.04 260.2 
L 114.04 14.8 
" style="fill:none;stroke:#000000;stroke-linecap:square;stroke-linejoin:miter;stroke-width:0.8;"/>
   </g>
   <g id="patch_9">
    <path d="M 176.9175 260.2 
L 176.9175 14.8 
" style="fill:none;stroke:#000000;stroke-linecap:square;stroke-linejoin:miter;stroke-width:0.8;"/>
   </g>
   <g id="patch_10">
    <path d="M 114.04 260.2 
L 176.9175 260.2 
" style="fill:none;stroke:#000000;stroke-linecap:square;stroke-linejoin:miter;stroke-width:0.8;"/>
   </g>
   <g id="patch_11">
    <path d="M 114.04 14.8 
L 176.9175 14.8 
" style="fill:none;stroke:#000000;stroke-linecap:square;stroke-linejoin:miter;stroke-width:0.8;"/>
   </g>
   <g id="text_14">
    <!-- $\alpha$=1.87 -->
    <g transform="translate(123.27875 8.8)scale(0.12 -0.12)">
     <defs>
      <path d="M 525 4666 
L 3525 4666 
L 3525 4397 
L 1831 0 
L 1172 0 
L 2766 4134 
L 525 4134 
L 525 4666 
z
" id="DejaVuSans-37" transform="scale(0.015625)"/>
     </defs>
     <use transform="translate(0 0.78125)" xlink:href="#DejaVuSans-Oblique-3b1"/>
     <use transform="translate(65.917969 0.78125)" xlink:href="#DejaVuSans-3d"/>
     <use transform="translate(149.707031 0.78125)" xlink:href="#DejaVuSans-31"/>
     <use transform="translate(213.330078 0.78125)" xlink:href="#DejaVuSans-2e"/>
     <use transform="translate(242.492188 0.78125)" xlink:href="#DejaVuSans-38"/>
     <use transform="translate(306.115234 0.78125)" xlink:href="#DejaVuSans-37"/>
    </g>
   </g>
   <g id="legend_2">
    <g id="line2d_21">
     <path d="M 117.3925 27.898437 
L 137.3925 27.898437 
" style="fill:none;stroke:#9400d3;stroke-dasharray:5.55,2.4;stroke-dashoffset:0;stroke-width:1.5;"/>
    </g>
    <g id="line2d_22"/>
    <g id="text_15">
     <!-- fit -->
     <g transform="translate(145.3925 31.398437)scale(0.1 -0.1)">
      <use xlink:href="#DejaVuSans-66"/>
      <use x="35.205078" xlink:href="#DejaVuSans-69"/>
      <use x="62.988281" xlink:href="#DejaVuSans-74"/>
     </g>
    </g>
    <g id="PathCollection_4">
     <g>
      <use style="fill:#8b008b;stroke:#8b008b;stroke-width:2;" x="127.3925" xlink:href="#m078116ddc3" y="43.451562"/>
     </g>
    </g>
    <g id="text_16">
     <!-- data -->
     <g transform="translate(145.3925 46.076562)scale(0.1 -0.1)">
      <use xlink:href="#DejaVuSans-64"/>
      <use x="63.476562" xlink:href="#DejaVuSans-61"/>
      <use x="124.755859" xlink:href="#DejaVuSans-74"/>
      <use x="163.964844" xlink:href="#DejaVuSans-61"/>
     </g>
    </g>
   </g>
  </g>
  <g id="axes_3">
   <g id="patch_12">
    <path d="M 194.405 260.2 
L 257.2825 260.2 
L 257.2825 14.8 
L 194.405 14.8 
z
" style="fill:#ffffff;"/>
   </g>
   <g id="PathCollection_5">
    <g clip-path="url(#p264f1a152c)">
     <use style="fill:#8b008b;stroke:#8b008b;stroke-width:2;" x="197.263068" xlink:href="#m078116ddc3" y="172.06338"/>
     <use style="fill:#8b008b;stroke:#8b008b;stroke-width:2;" x="202.459556" xlink:href="#m078116ddc3" y="189.34507"/>
     <use style="fill:#8b008b;stroke:#8b008b;stroke-width:2;" x="207.656043" xlink:href="#m078116ddc3" y="206.626761"/>
     <use style="fill:#8b008b;stroke:#8b008b;stroke-width:2;" x="212.852531" xlink:href="#m078116ddc3" y="223.908451"/>
     <use style="fill:#8b008b;stroke:#8b008b;stroke-width:2;" x="218.049019" xlink:href="#m078116ddc3" y="239.461972"/>
     <use style="fill:#8b008b;stroke:#8b008b;stroke-width:2;" x="223.245506" xlink:href="#m078116ddc3" y="249.830986"/>
     <use style="fill:#8b008b;stroke:#8b008b;stroke-width:2;" x="228.441994" xlink:href="#m078116ddc3" y="253.287324"/>
     <use style="fill:#8b008b;stroke:#8b008b;stroke-width:2;" x="233.638481" xlink:href="#m078116ddc3" y="248.102817"/>
     <use style="fill:#8b008b;stroke:#8b008b;stroke-width:2;" x="238.834969" xlink:href="#m078116ddc3" y="239.461972"/>
     <use style="fill:#8b008b;stroke:#8b008b;stroke-width:2;" x="244.031457" xlink:href="#m078116ddc3" y="234.277465"/>
     <use style="fill:#8b008b;stroke:#8b008b;stroke-width:2;" x="249.227944" xlink:href="#m078116ddc3" y="222.180282"/>
     <use style="fill:#8b008b;stroke:#8b008b;stroke-width:2;" x="254.424432" xlink:href="#m078116ddc3" y="204.898592"/>
    </g>
   </g>
   <g id="matplotlib.axis_5">
    <g id="xtick_5">
     <g id="line2d_23">
      <g>
       <use style="stroke:#000000;stroke-width:0.8;" x="197.263068" xlink:href="#m89dead00a7" y="260.2"/>
      </g>
     </g>
     <g id="text_17">
      <!-- 0 -->
      <g transform="translate(194.081818 274.798437)scale(0.1 -0.1)">
       <use xlink:href="#DejaVuSans-30"/>
      </g>
     </g>
    </g>
    <g id="xtick_6">
     <g id="line2d_24">
      <g>
       <use style="stroke:#000000;stroke-width:0.8;" x="249.227944" xlink:href="#m89dead00a7" y="260.2"/>
      </g>
     </g>
     <g id="text_18">
      <!-- 10 -->
      <g transform="translate(242.865444 274.798437)scale(0.1 -0.1)">
       <use xlink:href="#DejaVuSans-31"/>
       <use x="63.623047" xlink:href="#DejaVuSans-30"/>
      </g>
     </g>
    </g>
   </g>
   <g id="matplotlib.axis_6">
    <g id="ytick_13">
     <g id="line2d_25">
      <g>
       <use style="stroke:#000000;stroke-width:0.8;" x="194.405" xlink:href="#m3e79a384ff" y="260.2"/>
      </g>
     </g>
    </g>
    <g id="ytick_14">
     <g id="line2d_26">
      <g>
       <use style="stroke:#000000;stroke-width:0.8;" x="194.405" xlink:href="#m3e79a384ff" y="211.12"/>
      </g>
     </g>
    </g>
    <g id="ytick_15">
     <g id="line2d_27">
      <g>
       <use style="stroke:#000000;stroke-width:0.8;" x="194.405" xlink:href="#m3e79a384ff" y="162.04"/>
      </g>
     </g>
    </g>
    <g id="ytick_16">
     <g id="line2d_28">
      <g>
       <use style="stroke:#000000;stroke-width:0.8;" x="194.405" xlink:href="#m3e79a384ff" y="112.96"/>
      </g>
     </g>
    </g>
    <g id="ytick_17">
     <g id="line2d_29">
      <g>
       <use style="stroke:#000000;stroke-width:0.8;" x="194.405" xlink:href="#m3e79a384ff" y="63.88"/>
      </g>
     </g>
    </g>
    <g id="ytick_18">
     <g id="line2d_30">
      <g>
       <use style="stroke:#000000;stroke-width:0.8;" x="194.405" xlink:href="#m3e79a384ff" y="14.8"/>
      </g>
     </g>
    </g>
   </g>
   <g id="line2d_31">
    <path clip-path="url(#p264f1a152c)" d="M 197.263068 169.027372 
L 202.459556 191.517171 
L 207.656043 210.529752 
L 212.852531 225.986967 
L 218.049019 237.787063 
L 223.245506 245.785316 
L 228.441994 249.731462 
L 233.638481 248.924028 
L 238.834969 243.626739 
L 244.031457 234.379145 
L 249.227944 221.383335 
L 254.424432 204.766722 
" style="fill:none;stroke:#9400d3;stroke-dasharray:5.55,2.4;stroke-dashoffset:0;stroke-width:1.5;"/>
   </g>
   <g id="patch_13">
    <path d="M 194.405 260.2 
L 194.405 14.8 
" style="fill:none;stroke:#000000;stroke-linecap:square;stroke-linejoin:miter;stroke-width:0.8;"/>
   </g>
   <g id="patch_14">
    <path d="M 257.2825 260.2 
L 257.2825 14.8 
" style="fill:none;stroke:#000000;stroke-linecap:square;stroke-linejoin:miter;stroke-width:0.8;"/>
   </g>
   <g id="patch_15">
    <path d="M 194.405 260.2 
L 257.2825 260.2 
" style="fill:none;stroke:#000000;stroke-linecap:square;stroke-linejoin:miter;stroke-width:0.8;"/>
   </g>
   <g id="patch_16">
    <path d="M 194.405 14.8 
L 257.2825 14.8 
" style="fill:none;stroke:#000000;stroke-linecap:square;stroke-linejoin:miter;stroke-width:0.8;"/>
   </g>
   <g id="text_19">
    <!-- $\alpha$=1.89 -->
    <g transform="translate(203.64375 8.8)scale(0.12 -0.12)">
     <defs>
      <path d="M 703 97 
L 703 672 
Q 941 559 1184 500 
Q 1428 441 1663 441 
Q 2288 441 2617 861 
Q 2947 1281 2994 2138 
Q 2813 1869 2534 1725 
Q 2256 1581 1919 1581 
Q 1219 1581 811 2004 
Q 403 2428 403 3163 
Q 403 3881 828 4315 
Q 1253 4750 1959 4750 
Q 2769 4750 3195 4129 
Q 3622 3509 3622 2328 
Q 3622 1225 3098 567 
Q 2575 -91 1691 -91 
Q 1453 -91 1209 -44 
Q 966 3 703 97 
z
M 1959 2075 
Q 2384 2075 2632 2365 
Q 2881 2656 2881 3163 
Q 2881 3666 2632 3958 
Q 2384 4250 1959 4250 
Q 1534 4250 1286 3958 
Q 1038 3666 1038 3163 
Q 1038 2656 1286 2365 
Q 1534 2075 1959 2075 
z
" id="DejaVuSans-39" transform="scale(0.015625)"/>
     </defs>
     <use transform="translate(0 0.78125)" xlink:href="#DejaVuSans-Oblique-3b1"/>
     <use transform="translate(65.917969 0.78125)" xlink:href="#DejaVuSans-3d"/>
     <use transform="translate(149.707031 0.78125)" xlink:href="#DejaVuSans-31"/>
     <use transform="translate(213.330078 0.78125)" xlink:href="#DejaVuSans-2e"/>
     <use transform="translate(242.492188 0.78125)" xlink:href="#DejaVuSans-38"/>
     <use transform="translate(306.115234 0.78125)" xlink:href="#DejaVuSans-39"/>
    </g>
   </g>
   <g id="legend_3">
    <g id="line2d_32">
     <path d="M 197.7575 27.898437 
L 217.7575 27.898437 
" style="fill:none;stroke:#9400d3;stroke-dasharray:5.55,2.4;stroke-dashoffset:0;stroke-width:1.5;"/>
    </g>
    <g id="line2d_33"/>
    <g id="text_20">
     <!-- fit -->
     <g transform="translate(225.7575 31.398437)scale(0.1 -0.1)">
      <use xlink:href="#DejaVuSans-66"/>
      <use x="35.205078" xlink:href="#DejaVuSans-69"/>
      <use x="62.988281" xlink:href="#DejaVuSans-74"/>
     </g>
    </g>
    <g id="PathCollection_6">
     <g>
      <use style="fill:#8b008b;stroke:#8b008b;stroke-width:2;" x="207.7575" xlink:href="#m078116ddc3" y="43.451562"/>
     </g>
    </g>
    <g id="text_21">
     <!-- data -->
     <g transform="translate(225.7575 46.076562)scale(0.1 -0.1)">
      <use xlink:href="#DejaVuSans-64"/>
      <use x="63.476562" xlink:href="#DejaVuSans-61"/>
      <use x="124.755859" xlink:href="#DejaVuSans-74"/>
      <use x="163.964844" xlink:href="#DejaVuSans-61"/>
     </g>
    </g>
   </g>
  </g>
  <g id="axes_4">
   <g id="patch_17">
    <path d="M 274.77 260.2 
L 337.6475 260.2 
L 337.6475 14.8 
L 274.77 14.8 
z
" style="fill:#ffffff;"/>
   </g>
   <g id="PathCollection_7">
    <g clip-path="url(#p63c943cebb)">
     <use style="fill:#8b008b;stroke:#8b008b;stroke-width:2;" x="277.628068" xlink:href="#m078116ddc3" y="170.335211"/>
     <use style="fill:#8b008b;stroke:#8b008b;stroke-width:2;" x="282.025096" xlink:href="#m078116ddc3" y="192.801408"/>
     <use style="fill:#8b008b;stroke:#8b008b;stroke-width:2;" x="286.422124" xlink:href="#m078116ddc3" y="208.35493"/>
     <use style="fill:#8b008b;stroke:#8b008b;stroke-width:2;" x="290.819152" xlink:href="#m078116ddc3" y="220.452113"/>
     <use style="fill:#8b008b;stroke:#8b008b;stroke-width:2;" x="295.21618" xlink:href="#m078116ddc3" y="230.821127"/>
     <use style="fill:#8b008b;stroke:#8b008b;stroke-width:2;" x="299.613208" xlink:href="#m078116ddc3" y="239.461972"/>
     <use style="fill:#8b008b;stroke:#8b008b;stroke-width:2;" x="304.010236" xlink:href="#m078116ddc3" y="248.102817"/>
     <use style="fill:#8b008b;stroke:#8b008b;stroke-width:2;" x="308.407264" xlink:href="#m078116ddc3" y="249.830986"/>
     <use style="fill:#8b008b;stroke:#8b008b;stroke-width:2;" x="312.804292" xlink:href="#m078116ddc3" y="246.374648"/>
     <use style="fill:#8b008b;stroke:#8b008b;stroke-width:2;" x="317.20132" xlink:href="#m078116ddc3" y="241.190141"/>
     <use style="fill:#8b008b;stroke:#8b008b;stroke-width:2;" x="321.598348" xlink:href="#m078116ddc3" y="229.092958"/>
     <use style="fill:#8b008b;stroke:#8b008b;stroke-width:2;" x="325.995376" xlink:href="#m078116ddc3" y="213.539437"/>
     <use style="fill:#8b008b;stroke:#8b008b;stroke-width:2;" x="330.392404" xlink:href="#m078116ddc3" y="197.985915"/>
     <use style="fill:#8b008b;stroke:#8b008b;stroke-width:2;" x="334.789432" xlink:href="#m078116ddc3" y="173.791549"/>
    </g>
   </g>
   <g id="matplotlib.axis_7">
    <g id="xtick_7">
     <g id="line2d_34">
      <g>
       <use style="stroke:#000000;stroke-width:0.8;" x="277.628068" xlink:href="#m89dead00a7" y="260.2"/>
      </g>
     </g>
     <g id="text_22">
      <!-- 0 -->
      <g transform="translate(274.446818 274.798437)scale(0.1 -0.1)">
       <use xlink:href="#DejaVuSans-30"/>
      </g>
     </g>
    </g>
    <g id="xtick_8">
     <g id="line2d_35">
      <g>
       <use style="stroke:#000000;stroke-width:0.8;" x="321.598348" xlink:href="#m89dead00a7" y="260.2"/>
      </g>
     </g>
     <g id="text_23">
      <!-- 10 -->
      <g transform="translate(315.235848 274.798437)scale(0.1 -0.1)">
       <use xlink:href="#DejaVuSans-31"/>
       <use x="63.623047" xlink:href="#DejaVuSans-30"/>
      </g>
     </g>
    </g>
   </g>
   <g id="matplotlib.axis_8">
    <g id="ytick_19">
     <g id="line2d_36">
      <g>
       <use style="stroke:#000000;stroke-width:0.8;" x="274.77" xlink:href="#m3e79a384ff" y="260.2"/>
      </g>
     </g>
    </g>
    <g id="ytick_20">
     <g id="line2d_37">
      <g>
       <use style="stroke:#000000;stroke-width:0.8;" x="274.77" xlink:href="#m3e79a384ff" y="211.12"/>
      </g>
     </g>
    </g>
    <g id="ytick_21">
     <g id="line2d_38">
      <g>
       <use style="stroke:#000000;stroke-width:0.8;" x="274.77" xlink:href="#m3e79a384ff" y="162.04"/>
      </g>
     </g>
    </g>
    <g id="ytick_22">
     <g id="line2d_39">
      <g>
       <use style="stroke:#000000;stroke-width:0.8;" x="274.77" xlink:href="#m3e79a384ff" y="112.96"/>
      </g>
     </g>
    </g>
    <g id="ytick_23">
     <g id="line2d_40">
      <g>
       <use style="stroke:#000000;stroke-width:0.8;" x="274.77" xlink:href="#m3e79a384ff" y="63.88"/>
      </g>
     </g>
    </g>
    <g id="ytick_24">
     <g id="line2d_41">
      <g>
       <use style="stroke:#000000;stroke-width:0.8;" x="274.77" xlink:href="#m3e79a384ff" y="14.8"/>
      </g>
     </g>
    </g>
   </g>
   <g id="line2d_42">
    <path clip-path="url(#p63c943cebb)" d="M 277.628068 169.471002 
L 282.025096 189.983032 
L 286.422124 207.682746 
L 290.819152 222.479053 
L 295.21618 234.254316 
L 299.613208 242.844624 
L 304.010236 247.984977 
L 308.407264 248.925577 
L 312.804292 245.209019 
L 317.20132 237.879754 
L 321.598348 227.283023 
L 325.995376 213.61054 
L 330.392404 196.994123 
L 334.789432 177.533426 
" style="fill:none;stroke:#9400d3;stroke-dasharray:5.55,2.4;stroke-dashoffset:0;stroke-width:1.5;"/>
   </g>
   <g id="patch_18">
    <path d="M 274.77 260.2 
L 274.77 14.8 
" style="fill:none;stroke:#000000;stroke-linecap:square;stroke-linejoin:miter;stroke-width:0.8;"/>
   </g>
   <g id="patch_19">
    <path d="M 337.6475 260.2 
L 337.6475 14.8 
" style="fill:none;stroke:#000000;stroke-linecap:square;stroke-linejoin:miter;stroke-width:0.8;"/>
   </g>
   <g id="patch_20">
    <path d="M 274.77 260.2 
L 337.6475 260.2 
" style="fill:none;stroke:#000000;stroke-linecap:square;stroke-linejoin:miter;stroke-width:0.8;"/>
   </g>
   <g id="patch_21">
    <path d="M 274.77 14.8 
L 337.6475 14.8 
" style="fill:none;stroke:#000000;stroke-linecap:square;stroke-linejoin:miter;stroke-width:0.8;"/>
   </g>
   <g id="text_24">
    <!-- $\alpha$=1.84 -->
    <g transform="translate(284.00875 8.8)scale(0.12 -0.12)">
     <use transform="translate(0 0.78125)" xlink:href="#DejaVuSans-Oblique-3b1"/>
     <use transform="translate(65.917969 0.78125)" xlink:href="#DejaVuSans-3d"/>
     <use transform="translate(149.707031 0.78125)" xlink:href="#DejaVuSans-31"/>
     <use transform="translate(213.330078 0.78125)" xlink:href="#DejaVuSans-2e"/>
     <use transform="translate(242.492188 0.78125)" xlink:href="#DejaVuSans-38"/>
     <use transform="translate(306.115234 0.78125)" xlink:href="#DejaVuSans-34"/>
    </g>
   </g>
   <g id="legend_4">
    <g id="line2d_43">
     <path d="M 278.1225 27.898437 
L 298.1225 27.898437 
" style="fill:none;stroke:#9400d3;stroke-dasharray:5.55,2.4;stroke-dashoffset:0;stroke-width:1.5;"/>
    </g>
    <g id="line2d_44"/>
    <g id="text_25">
     <!-- fit -->
     <g transform="translate(306.1225 31.398437)scale(0.1 -0.1)">
      <use xlink:href="#DejaVuSans-66"/>
      <use x="35.205078" xlink:href="#DejaVuSans-69"/>
      <use x="62.988281" xlink:href="#DejaVuSans-74"/>
     </g>
    </g>
    <g id="PathCollection_8">
     <g>
      <use style="fill:#8b008b;stroke:#8b008b;stroke-width:2;" x="288.1225" xlink:href="#m078116ddc3" y="43.451562"/>
     </g>
    </g>
    <g id="text_26">
     <!-- data -->
     <g transform="translate(306.1225 46.076562)scale(0.1 -0.1)">
      <use xlink:href="#DejaVuSans-64"/>
      <use x="63.476562" xlink:href="#DejaVuSans-61"/>
      <use x="124.755859" xlink:href="#DejaVuSans-74"/>
      <use x="163.964844" xlink:href="#DejaVuSans-61"/>
     </g>
    </g>
   </g>
  </g>
  <g id="axes_5">
   <g id="patch_22">
    <path d="M 355.135 260.2 
L 418.0125 260.2 
L 418.0125 14.8 
L 355.135 14.8 
z
" style="fill:#ffffff;"/>
   </g>
   <g id="PathCollection_9">
    <g clip-path="url(#pc51f956d5f)">
     <use style="fill:#8b008b;stroke:#8b008b;stroke-width:2;" x="357.993068" xlink:href="#m078116ddc3" y="180.704225"/>
     <use style="fill:#8b008b;stroke:#8b008b;stroke-width:2;" x="362.390096" xlink:href="#m078116ddc3" y="201.442254"/>
     <use style="fill:#8b008b;stroke:#8b008b;stroke-width:2;" x="366.787124" xlink:href="#m078116ddc3" y="218.723944"/>
     <use style="fill:#8b008b;stroke:#8b008b;stroke-width:2;" x="371.184152" xlink:href="#m078116ddc3" y="236.005634"/>
     <use style="fill:#8b008b;stroke:#8b008b;stroke-width:2;" x="375.58118" xlink:href="#m078116ddc3" y="249.830986"/>
     <use style="fill:#8b008b;stroke:#8b008b;stroke-width:2;" x="379.978208" xlink:href="#m078116ddc3" y="255.015493"/>
     <use style="fill:#8b008b;stroke:#8b008b;stroke-width:2;" x="384.375236" xlink:href="#m078116ddc3" y="253.287324"/>
     <use style="fill:#8b008b;stroke:#8b008b;stroke-width:2;" x="388.772264" xlink:href="#m078116ddc3" y="255.015493"/>
     <use style="fill:#8b008b;stroke:#8b008b;stroke-width:2;" x="393.169292" xlink:href="#m078116ddc3" y="258.471831"/>
     <use style="fill:#8b008b;stroke:#8b008b;stroke-width:2;" x="397.56632" xlink:href="#m078116ddc3" y="255.015493"/>
     <use style="fill:#8b008b;stroke:#8b008b;stroke-width:2;" x="401.963348" xlink:href="#m078116ddc3" y="244.646479"/>
     <use style="fill:#8b008b;stroke:#8b008b;stroke-width:2;" x="406.360376" xlink:href="#m078116ddc3" y="229.092958"/>
     <use style="fill:#8b008b;stroke:#8b008b;stroke-width:2;" x="410.757404" xlink:href="#m078116ddc3" y="215.267606"/>
     <use style="fill:#8b008b;stroke:#8b008b;stroke-width:2;" x="415.154432" xlink:href="#m078116ddc3" y="192.801408"/>
    </g>
   </g>
   <g id="matplotlib.axis_9">
    <g id="xtick_9">
     <g id="line2d_45">
      <g>
       <use style="stroke:#000000;stroke-width:0.8;" x="357.993068" xlink:href="#m89dead00a7" y="260.2"/>
      </g>
     </g>
     <g id="text_27">
      <!-- 0 -->
      <g transform="translate(354.811818 274.798437)scale(0.1 -0.1)">
       <use xlink:href="#DejaVuSans-30"/>
      </g>
     </g>
    </g>
    <g id="xtick_10">
     <g id="line2d_46">
      <g>
       <use style="stroke:#000000;stroke-width:0.8;" x="401.963348" xlink:href="#m89dead00a7" y="260.2"/>
      </g>
     </g>
     <g id="text_28">
      <!-- 10 -->
      <g transform="translate(395.600848 274.798437)scale(0.1 -0.1)">
       <use xlink:href="#DejaVuSans-31"/>
       <use x="63.623047" xlink:href="#DejaVuSans-30"/>
      </g>
     </g>
    </g>
   </g>
   <g id="matplotlib.axis_10">
    <g id="ytick_25">
     <g id="line2d_47">
      <g>
       <use style="stroke:#000000;stroke-width:0.8;" x="355.135" xlink:href="#m3e79a384ff" y="260.2"/>
      </g>
     </g>
    </g>
    <g id="ytick_26">
     <g id="line2d_48">
      <g>
       <use style="stroke:#000000;stroke-width:0.8;" x="355.135" xlink:href="#m3e79a384ff" y="211.12"/>
      </g>
     </g>
    </g>
    <g id="ytick_27">
     <g id="line2d_49">
      <g>
       <use style="stroke:#000000;stroke-width:0.8;" x="355.135" xlink:href="#m3e79a384ff" y="162.04"/>
      </g>
     </g>
    </g>
    <g id="ytick_28">
     <g id="line2d_50">
      <g>
       <use style="stroke:#000000;stroke-width:0.8;" x="355.135" xlink:href="#m3e79a384ff" y="112.96"/>
      </g>
     </g>
    </g>
    <g id="ytick_29">
     <g id="line2d_51">
      <g>
       <use style="stroke:#000000;stroke-width:0.8;" x="355.135" xlink:href="#m3e79a384ff" y="63.88"/>
      </g>
     </g>
    </g>
    <g id="ytick_30">
     <g id="line2d_52">
      <g>
       <use style="stroke:#000000;stroke-width:0.8;" x="355.135" xlink:href="#m3e79a384ff" y="14.8"/>
      </g>
     </g>
    </g>
   </g>
   <g id="line2d_53">
    <path clip-path="url(#pc51f956d5f)" d="M 357.993068 178.597784 
L 362.390096 202.390281 
L 366.787124 221.578498 
L 371.184152 236.37269 
L 375.58118 247.019763 
L 379.978208 253.823106 
L 384.375236 257.188319 
L 388.772264 257.81605 
L 393.169292 256.24884 
L 397.56632 251.597978 
L 401.963348 243.332877 
L 406.360376 231.096734 
L 410.757404 214.611607 
L 415.154432 193.646602 
" style="fill:none;stroke:#9400d3;stroke-dasharray:5.55,2.4;stroke-dashoffset:0;stroke-width:1.5;"/>
   </g>
   <g id="patch_23">
    <path d="M 355.135 260.2 
L 355.135 14.8 
" style="fill:none;stroke:#000000;stroke-linecap:square;stroke-linejoin:miter;stroke-width:0.8;"/>
   </g>
   <g id="patch_24">
    <path d="M 418.0125 260.2 
L 418.0125 14.8 
" style="fill:none;stroke:#000000;stroke-linecap:square;stroke-linejoin:miter;stroke-width:0.8;"/>
   </g>
   <g id="patch_25">
    <path d="M 355.135 260.2 
L 418.0125 260.2 
" style="fill:none;stroke:#000000;stroke-linecap:square;stroke-linejoin:miter;stroke-width:0.8;"/>
   </g>
   <g id="patch_26">
    <path d="M 355.135 14.8 
L 418.0125 14.8 
" style="fill:none;stroke:#000000;stroke-linecap:square;stroke-linejoin:miter;stroke-width:0.8;"/>
   </g>
   <g id="text_29">
    <!-- $\alpha$=2.25 -->
    <g transform="translate(364.55375 8.8)scale(0.12 -0.12)">
     <defs>
      <path d="M 691 4666 
L 3169 4666 
L 3169 4134 
L 1269 4134 
L 1269 2991 
Q 1406 3038 1543 3061 
Q 1681 3084 1819 3084 
Q 2600 3084 3056 2656 
Q 3513 2228 3513 1497 
Q 3513 744 3044 326 
Q 2575 -91 1722 -91 
Q 1428 -91 1123 -41 
Q 819 9 494 109 
L 494 744 
Q 775 591 1075 516 
Q 1375 441 1709 441 
Q 2250 441 2565 725 
Q 2881 1009 2881 1497 
Q 2881 1984 2565 2268 
Q 2250 2553 1709 2553 
Q 1456 2553 1204 2497 
Q 953 2441 691 2322 
L 691 4666 
z
" id="DejaVuSans-35" transform="scale(0.015625)"/>
     </defs>
     <use transform="translate(0 0.78125)" xlink:href="#DejaVuSans-Oblique-3b1"/>
     <use transform="translate(65.917969 0.78125)" xlink:href="#DejaVuSans-3d"/>
     <use transform="translate(149.707031 0.78125)" xlink:href="#DejaVuSans-32"/>
     <use transform="translate(213.330078 0.78125)" xlink:href="#DejaVuSans-2e"/>
     <use transform="translate(239.617188 0.78125)" xlink:href="#DejaVuSans-32"/>
     <use transform="translate(303.240234 0.78125)" xlink:href="#DejaVuSans-35"/>
    </g>
   </g>
   <g id="legend_5">
    <g id="line2d_54">
     <path d="M 358.4875 27.898437 
L 378.4875 27.898437 
" style="fill:none;stroke:#9400d3;stroke-dasharray:5.55,2.4;stroke-dashoffset:0;stroke-width:1.5;"/>
    </g>
    <g id="line2d_55"/>
    <g id="text_30">
     <!-- fit -->
     <g transform="translate(386.4875 31.398437)scale(0.1 -0.1)">
      <use xlink:href="#DejaVuSans-66"/>
      <use x="35.205078" xlink:href="#DejaVuSans-69"/>
      <use x="62.988281" xlink:href="#DejaVuSans-74"/>
     </g>
    </g>
    <g id="PathCollection_10">
     <g>
      <use style="fill:#8b008b;stroke:#8b008b;stroke-width:2;" x="368.4875" xlink:href="#m078116ddc3" y="43.451562"/>
     </g>
    </g>
    <g id="text_31">
     <!-- data -->
     <g transform="translate(386.4875 46.076562)scale(0.1 -0.1)">
      <use xlink:href="#DejaVuSans-64"/>
      <use x="63.476562" xlink:href="#DejaVuSans-61"/>
      <use x="124.755859" xlink:href="#DejaVuSans-74"/>
      <use x="163.964844" xlink:href="#DejaVuSans-61"/>
     </g>
    </g>
   </g>
  </g>
 </g>
 <defs>
  <clipPath id="pa1ec2edfb3">
   <rect height="245.4" width="62.8775" x="33.675" y="14.8"/>
  </clipPath>
  <clipPath id="p4be6d756dd">
   <rect height="245.4" width="62.8775" x="114.04" y="14.8"/>
  </clipPath>
  <clipPath id="p264f1a152c">
   <rect height="245.4" width="62.8775" x="194.405" y="14.8"/>
  </clipPath>
  <clipPath id="p63c943cebb">
   <rect height="245.4" width="62.8775" x="274.77" y="14.8"/>
  </clipPath>
  <clipPath id="pc51f956d5f">
   <rect height="245.4" width="62.8775" x="355.135" y="14.8"/>
  </clipPath>
 </defs>
</svg>
