<?xml version="1.0" encoding="UTF-8" standalone="no"?>
<svg
   height="275.257656pt"
   version="1.1"
   viewBox="0 0 425.564687 275.257656"
   width="425.564687pt"
   id="svg425"
   sodipodi:docname="808_825_RIN_compare_20220307_7189.svg"
   inkscape:version="1.1.2 (b8e25be833, 2022-02-05)"
   xmlns:inkscape="http://www.inkscape.org/namespaces/inkscape"
   xmlns:sodipodi="http://sodipodi.sourceforge.net/DTD/sodipodi-0.dtd"
   xmlns:xlink="http://www.w3.org/1999/xlink"
   xmlns="http://www.w3.org/2000/svg"
   xmlns:svg="http://www.w3.org/2000/svg"
   xmlns:rdf="http://www.w3.org/1999/02/22-rdf-syntax-ns#"
   xmlns:cc="http://creativecommons.org/ns#"
   xmlns:dc="http://purl.org/dc/elements/1.1/">
  <sodipodi:namedview
     id="namedview427"
     pagecolor="#ffffff"
     bordercolor="#999999"
     borderopacity="1"
     inkscape:pageshadow="0"
     inkscape:pageopacity="0"
     inkscape:pagecheckerboard="0"
     inkscape:document-units="pt"
     showgrid="false"
     inkscape:zoom="1.2778936"
     inkscape:cx="283.66994"
     inkscape:cy="183.50511"
     inkscape:window-width="1280"
     inkscape:window-height="698"
     inkscape:window-x="-6"
     inkscape:window-y="-6"
     inkscape:window-maximized="1"
     inkscape:current-layer="svg425" />
  <metadata
     id="metadata2">
    <rdf:RDF>
      <cc:Work>
        <dc:type
           rdf:resource="http://purl.org/dc/dcmitype/StillImage" />
        <dc:date>2022-04-12T15:22:28.354781</dc:date>
        <dc:format>image/svg+xml</dc:format>
        <dc:creator>
          <cc:Agent>
            <dc:title>Matplotlib v3.4.3, https://matplotlib.org/</dc:title>
          </cc:Agent>
        </dc:creator>
      </cc:Work>
    </rdf:RDF>
  </metadata>
  <defs
     id="defs6">
    <style
       type="text/css"
       id="style4">*{stroke-linecap:butt;stroke-linejoin:round;}</style>
  </defs>
  <g
     id="patch_1">
    <path
       d="M 0,275.25766 H 425.56469 V 0 H 0 Z"
       style="fill:none"
       id="path8" />
  </g>
  <g
     id="patch_2">
    <path
       d="M 70.203438,229.95891 H 405.00344 V 12.518906 H 70.203438 Z"
       style="fill:#ffffff"
       id="path11" />
  </g>
  <g
     id="matplotlib.axis_1">
    <g
       id="xtick_1">
      <g
         id="line2d_1">
        <defs
           id="defs15">
          <path
             d="M 0,0 V 3.5"
             id="maaedb6c999"
             style="stroke:#000000;stroke-width:0.8" />
        </defs>
        <g
           id="g19">
          <use
             style="stroke:#000000;stroke-width:0.8"
             x="70.203438"
             xlink:href="#maaedb6c999"
             y="229.95891"
             id="use17"
             width="100%"
             height="100%" />
        </g>
      </g>
      <g
         id="text_1">
        <!-- 0 -->
        <g
           transform="matrix(0.14,0,0,-0.14,65.749688,247.59672)"
           id="g27">
          <defs
             id="defs23">
            <path
               d="m 2034,4250 q -487,0 -733,-480 -245,-479 -245,-1442 0,-959 245,-1439 246,-480 733,-480 491,0 736,480 246,480 246,1439 0,963 -246,1442 -245,480 -736,480 z m 0,500 q 785,0 1199,-621 414,-620 414,-1801 0,-1178 -414,-1799 -414,-620 -1199,-620 -784,0 -1198,620 -414,621 -414,1799 0,1181 414,1801 414,621 1198,621 z"
               id="DejaVuSans-30"
               transform="scale(0.015625)" />
          </defs>
          <use
             xlink:href="#DejaVuSans-30"
             id="use25"
             x="0"
             y="0"
             width="100%"
             height="100%" />
        </g>
      </g>
    </g>
    <g
       id="xtick_2">
      <g
         id="line2d_2">
        <g
           id="g33">
          <use
             style="stroke:#000000;stroke-width:0.8"
             x="137.16344"
             xlink:href="#maaedb6c999"
             y="229.95891"
             id="use31"
             width="100%"
             height="100%" />
        </g>
      </g>
      <g
         id="text_2">
        <!-- 20 -->
        <g
           transform="matrix(0.14,0,0,-0.14,128.25594,247.59672)"
           id="g43">
          <defs
             id="defs37">
            <path
               d="M 1228,531 H 3431 V 0 H 469 v 531 q 359,372 979,998 621,627 780,809 303,340 423,576 121,236 121,464 0,372 -261,606 -261,235 -680,235 -297,0 -627,-103 -329,-103 -704,-313 v 638 q 381,153 712,231 332,78 607,78 725,0 1156,-363 431,-362 431,-968 0,-288 -108,-546 -107,-257 -392,-607 -78,-91 -497,-524 Q 1991,1309 1228,531 Z"
               id="DejaVuSans-32"
               transform="scale(0.015625)" />
          </defs>
          <use
             xlink:href="#DejaVuSans-32"
             id="use39"
             x="0"
             y="0"
             width="100%"
             height="100%" />
          <use
             x="63.623047"
             xlink:href="#DejaVuSans-30"
             id="use41"
             y="0"
             width="100%"
             height="100%" />
        </g>
      </g>
    </g>
    <g
       id="xtick_3">
      <g
         id="line2d_3">
        <g
           id="g49">
          <use
             style="stroke:#000000;stroke-width:0.8"
             x="204.12344"
             xlink:href="#maaedb6c999"
             y="229.95891"
             id="use47"
             width="100%"
             height="100%" />
        </g>
      </g>
      <g
         id="text_3">
        <!-- 40 -->
        <g
           transform="matrix(0.14,0,0,-0.14,195.21594,247.59672)"
           id="g59">
          <defs
             id="defs53">
            <path
               d="M 2419,4116 825,1625 h 1594 z m -166,550 h 794 V 1625 h 666 V 1100 H 3047 V 0 H 2419 V 1100 H 313 v 609 z"
               id="DejaVuSans-34"
               transform="scale(0.015625)" />
          </defs>
          <use
             xlink:href="#DejaVuSans-34"
             id="use55"
             x="0"
             y="0"
             width="100%"
             height="100%" />
          <use
             x="63.623047"
             xlink:href="#DejaVuSans-30"
             id="use57"
             y="0"
             width="100%"
             height="100%" />
        </g>
      </g>
    </g>
    <g
       id="xtick_4">
      <g
         id="line2d_4">
        <g
           id="g65">
          <use
             style="stroke:#000000;stroke-width:0.8"
             x="271.08344"
             xlink:href="#maaedb6c999"
             y="229.95891"
             id="use63"
             width="100%"
             height="100%" />
        </g>
      </g>
      <g
         id="text_4">
        <!-- 60 -->
        <g
           transform="matrix(0.14,0,0,-0.14,262.17594,247.59672)"
           id="g75">
          <defs
             id="defs69">
            <path
               d="m 2113,2584 q -425,0 -674,-291 -248,-290 -248,-796 0,-503 248,-796 249,-292 674,-292 425,0 673,292 248,293 248,796 0,506 -248,796 -248,291 -673,291 z m 1253,1979 v -575 q -238,112 -480,171 -242,60 -480,60 -625,0 -955,-422 -329,-422 -376,-1275 184,272 462,417 279,145 613,145 703,0 1111,-427 408,-426 408,-1160 0,-719 -425,-1154 -425,-434 -1131,-434 -810,0 -1238,620 -428,621 -428,1799 0,1106 525,1764 525,658 1409,658 238,0 480,-47 242,-47 505,-140 z"
               id="DejaVuSans-36"
               transform="scale(0.015625)" />
          </defs>
          <use
             xlink:href="#DejaVuSans-36"
             id="use71"
             x="0"
             y="0"
             width="100%"
             height="100%" />
          <use
             x="63.623047"
             xlink:href="#DejaVuSans-30"
             id="use73"
             y="0"
             width="100%"
             height="100%" />
        </g>
      </g>
    </g>
    <g
       id="xtick_5">
      <g
         id="line2d_5">
        <g
           id="g81">
          <use
             style="stroke:#000000;stroke-width:0.8"
             x="338.04343"
             xlink:href="#maaedb6c999"
             y="229.95891"
             id="use79"
             width="100%"
             height="100%" />
        </g>
      </g>
      <g
         id="text_5">
        <!-- 80 -->
        <g
           transform="matrix(0.14,0,0,-0.14,329.13594,247.59672)"
           id="g91">
          <defs
             id="defs85">
            <path
               d="m 2034,2216 q -450,0 -708,-241 -257,-241 -257,-662 0,-422 257,-663 258,-241 708,-241 450,0 709,242 260,243 260,662 0,421 -258,662 -257,241 -711,241 z m -631,268 q -406,100 -633,378 -226,279 -226,679 0,559 398,884 399,325 1092,325 697,0 1094,-325 397,-325 397,-884 0,-400 -227,-679 -226,-278 -629,-378 456,-106 710,-416 255,-309 255,-755 Q 3634,634 3220,271 2806,-91 2034,-91 1263,-91 848,271 434,634 434,1313 q 0,446 256,755 257,310 713,416 z m -231,997 q 0,-362 226,-565 227,-203 636,-203 407,0 636,203 230,203 230,565 0,363 -230,566 -229,203 -636,203 -409,0 -636,-203 -226,-203 -226,-566 z"
               id="DejaVuSans-38"
               transform="scale(0.015625)" />
          </defs>
          <use
             xlink:href="#DejaVuSans-38"
             id="use87"
             x="0"
             y="0"
             width="100%"
             height="100%" />
          <use
             x="63.623047"
             xlink:href="#DejaVuSans-30"
             id="use89"
             y="0"
             width="100%"
             height="100%" />
        </g>
      </g>
    </g>
    <g
       id="xtick_6">
      <g
         id="line2d_6">
        <g
           id="g97">
          <use
             style="stroke:#000000;stroke-width:0.8"
             x="405.00345"
             xlink:href="#maaedb6c999"
             y="229.95891"
             id="use95"
             width="100%"
             height="100%" />
        </g>
      </g>
      <g
         id="text_6">
        <!-- 100 -->
        <g
           transform="matrix(0.14,0,0,-0.14,391.64219,247.59672)"
           id="g109">
          <defs
             id="defs101">
            <path
               d="M 794,531 H 1825 V 4091 L 703,3866 v 575 l 1116,225 h 631 V 531 H 3481 V 0 H 794 Z"
               id="DejaVuSans-31"
               transform="scale(0.015625)" />
          </defs>
          <use
             xlink:href="#DejaVuSans-31"
             id="use103"
             x="0"
             y="0"
             width="100%"
             height="100%" />
          <use
             x="63.623047"
             xlink:href="#DejaVuSans-30"
             id="use105"
             y="0"
             width="100%"
             height="100%" />
          <use
             x="127.24609"
             xlink:href="#DejaVuSans-30"
             id="use107"
             y="0"
             width="100%"
             height="100%" />
        </g>
      </g>
    </g>
    <g
       id="text_7">
      <!-- Frequency [kHz] -->
      <g
         transform="matrix(0.14,0,0,-0.14,180.76344,265.14609)"
         id="g159">
        <defs
           id="defs127">
          <path
             d="M 628,4666 H 3309 V 4134 H 1259 V 2759 H 3109 V 2228 H 1259 V 0 H 628 Z"
             id="DejaVuSans-46"
             transform="scale(0.015625)" />
          <path
             d="m 2631,2963 q -97,56 -211,82 -114,27 -251,27 -488,0 -749,-317 -261,-317 -261,-911 V 0 H 581 v 3500 h 578 v -544 q 182,319 472,473 291,155 707,155 59,0 131,-8 72,-7 159,-23 z"
             id="DejaVuSans-72"
             transform="scale(0.015625)" />
          <path
             d="M 3597,1894 V 1613 H 953 q 38,-594 358,-905 320,-311 892,-311 331,0 642,81 311,81 618,244 V 178 Q 3153,47 2828,-22 2503,-91 2169,-91 1331,-91 842,396 353,884 353,1716 q 0,859 464,1363 464,505 1252,505 706,0 1117,-455 411,-454 411,-1235 z m -575,169 q -6,471 -264,752 -258,282 -683,282 -481,0 -770,-272 -289,-272 -333,-766 z"
             id="DejaVuSans-65"
             transform="scale(0.015625)" />
          <path
             d="m 947,1747 q 0,-634 261,-995 261,-361 717,-361 456,0 718,361 263,361 263,995 0,634 -263,995 -262,361 -718,361 -456,0 -717,-361 Q 947,2381 947,1747 Z M 2906,525 Q 2725,213 2448,61 2172,-91 1784,-91 1150,-91 751,415 353,922 353,1747 q 0,825 398,1331 399,506 1033,506 388,0 664,-152 277,-151 458,-463 v 531 h 575 v -4831 h -575 z"
             id="DejaVuSans-71"
             transform="scale(0.015625)" />
          <path
             d="m 544,1381 v 2119 h 575 V 1403 q 0,-497 193,-746 194,-248 582,-248 465,0 735,297 271,297 271,810 v 1984 h 575 V 0 H 2900 V 538 Q 2691,219 2414,64 2138,-91 1772,-91 1169,-91 856,284 544,659 544,1381 Z m 1447,2203 z"
             id="DejaVuSans-75"
             transform="scale(0.015625)" />
          <path
             d="M 3513,2113 V 0 h -575 v 2094 q 0,497 -194,743 -194,247 -581,247 -466,0 -735,-297 -269,-296 -269,-809 V 0 H 581 v 3500 h 578 v -544 q 207,316 486,472 280,156 646,156 603,0 912,-373 310,-373 310,-1098 z"
             id="DejaVuSans-6e"
             transform="scale(0.015625)" />
          <path
             d="m 3122,3366 v -538 q -244,135 -489,202 -245,67 -495,67 -560,0 -870,-355 -309,-354 -309,-995 0,-641 309,-996 310,-354 870,-354 250,0 495,67 245,67 489,202 V 134 Q 2881,22 2623,-34 2366,-91 2075,-91 1284,-91 818,406 353,903 353,1747 q 0,856 470,1346 471,491 1290,491 265,0 518,-55 253,-54 491,-163 z"
             id="DejaVuSans-63"
             transform="scale(0.015625)" />
          <path
             d="m 2059,-325 q -243,-625 -475,-815 -231,-191 -618,-191 H 506 v 481 h 338 q 237,0 368,113 132,112 291,531 L 1606,56 191,3500 H 800 L 1894,763 2988,3500 h 609 z"
             id="DejaVuSans-79"
             transform="scale(0.015625)" />
          <path
             id="DejaVuSans-20"
             transform="scale(0.015625)"
             d="" />
          <path
             d="M 550,4863 H 1875 V 4416 H 1125 V -397 h 750 V -844 H 550 Z"
             id="DejaVuSans-5b"
             transform="scale(0.015625)" />
          <path
             d="m 581,4863 h 578 V 1991 l 1716,1509 h 734 L 1753,1863 3688,0 H 2938 L 1159,1709 V 0 H 581 Z"
             id="DejaVuSans-6b"
             transform="scale(0.015625)" />
          <path
             d="m 628,4666 h 631 V 2753 h 2294 v 1913 h 631 V 0 H 3553 V 2222 H 1259 V 0 H 628 Z"
             id="DejaVuSans-48"
             transform="scale(0.015625)" />
          <path
             d="M 353,3500 H 3084 V 2975 L 922,459 H 3084 V 0 H 275 V 525 L 2438,3041 H 353 Z"
             id="DejaVuSans-7a"
             transform="scale(0.015625)" />
          <path
             d="M 1947,4863 V -844 H 622 v 447 h 747 V 4416 H 622 v 447 z"
             id="DejaVuSans-5d"
             transform="scale(0.015625)" />
        </defs>
        <use
           xlink:href="#DejaVuSans-46"
           id="use129"
           x="0"
           y="0"
           width="100%"
           height="100%" />
        <use
           x="50.269531"
           xlink:href="#DejaVuSans-72"
           id="use131"
           y="0"
           width="100%"
           height="100%" />
        <use
           x="89.132812"
           xlink:href="#DejaVuSans-65"
           id="use133"
           y="0"
           width="100%"
           height="100%" />
        <use
           x="150.65625"
           xlink:href="#DejaVuSans-71"
           id="use135"
           y="0"
           width="100%"
           height="100%" />
        <use
           x="214.13281"
           xlink:href="#DejaVuSans-75"
           id="use137"
           y="0"
           width="100%"
           height="100%" />
        <use
           x="277.51172"
           xlink:href="#DejaVuSans-65"
           id="use139"
           y="0"
           width="100%"
           height="100%" />
        <use
           x="339.03516"
           xlink:href="#DejaVuSans-6e"
           id="use141"
           y="0"
           width="100%"
           height="100%" />
        <use
           x="402.41406"
           xlink:href="#DejaVuSans-63"
           id="use143"
           y="0"
           width="100%"
           height="100%" />
        <use
           x="457.39453"
           xlink:href="#DejaVuSans-79"
           id="use145"
           y="0"
           width="100%"
           height="100%" />
        <use
           x="516.57422"
           xlink:href="#DejaVuSans-20"
           id="use147"
           y="0"
           width="100%"
           height="100%" />
        <use
           x="548.36133"
           xlink:href="#DejaVuSans-5b"
           id="use149"
           y="0"
           width="100%"
           height="100%" />
        <use
           x="587.375"
           xlink:href="#DejaVuSans-6b"
           id="use151"
           y="0"
           width="100%"
           height="100%" />
        <use
           x="645.28516"
           xlink:href="#DejaVuSans-48"
           id="use153"
           y="0"
           width="100%"
           height="100%" />
        <use
           x="720.48047"
           xlink:href="#DejaVuSans-7a"
           id="use155"
           y="0"
           width="100%"
           height="100%" />
        <use
           x="772.9707"
           xlink:href="#DejaVuSans-5d"
           id="use157"
           y="0"
           width="100%"
           height="100%" />
      </g>
    </g>
  </g>
  <g
     id="matplotlib.axis_2">
    <g
       id="ytick_1">
      <g
         id="line2d_7">
        <defs
           id="defs164">
          <path
             d="M 0,0 H -3.5"
             id="m085a39aeb0"
             style="stroke:#000000;stroke-width:0.8" />
        </defs>
        <g
           id="g168">
          <use
             style="stroke:#000000;stroke-width:0.8"
             x="70.203438"
             xlink:href="#m085a39aeb0"
             y="213.23276"
             id="use166"
             width="100%"
             height="100%" />
        </g>
      </g>
      <g
         id="text_8">
        <!-- −130 -->
        <g
           transform="matrix(0.14,0,0,-0.14,24.749375,218.55166)"
           id="g183">
          <defs
             id="defs173">
            <path
               d="M 678,2272 H 4684 V 1741 H 678 Z"
               id="DejaVuSans-2212"
               transform="scale(0.015625)" />
            <path
               d="m 2597,2516 q 453,-97 707,-404 255,-306 255,-756 0,-690 -475,-1069 -475,-378 -1350,-378 -293,0 -604,58 -311,58 -642,174 v 609 q 262,-153 574,-231 313,-78 654,-78 593,0 904,234 311,234 311,681 0,413 -289,645 -289,233 -804,233 h -544 v 519 h 569 q 465,0 712,186 247,186 247,536 0,359 -255,551 -254,193 -729,193 -260,0 -557,-57 -297,-56 -653,-174 v 562 q 360,100 674,150 314,50 592,50 719,0 1137,-327 419,-326 419,-882 0,-388 -222,-655 -222,-267 -631,-370 z"
               id="DejaVuSans-33"
               transform="scale(0.015625)" />
          </defs>
          <use
             xlink:href="#DejaVuSans-2212"
             id="use175"
             x="0"
             y="0"
             width="100%"
             height="100%" />
          <use
             x="83.789062"
             xlink:href="#DejaVuSans-31"
             id="use177"
             y="0"
             width="100%"
             height="100%" />
          <use
             x="147.41211"
             xlink:href="#DejaVuSans-33"
             id="use179"
             y="0"
             width="100%"
             height="100%" />
          <use
             x="211.03516"
             xlink:href="#DejaVuSans-30"
             id="use181"
             y="0"
             width="100%"
             height="100%" />
        </g>
      </g>
    </g>
    <g
       id="ytick_2">
      <g
         id="line2d_8">
        <g
           id="g189">
          <use
             style="stroke:#000000;stroke-width:0.8"
             x="70.203438"
             xlink:href="#m085a39aeb0"
             y="179.78044"
             id="use187"
             width="100%"
             height="100%" />
        </g>
      </g>
      <g
         id="text_9">
        <!-- −120 -->
        <g
           transform="matrix(0.14,0,0,-0.14,24.749375,185.09935)"
           id="g200">
          <use
             xlink:href="#DejaVuSans-2212"
             id="use192"
             x="0"
             y="0"
             width="100%"
             height="100%" />
          <use
             x="83.789062"
             xlink:href="#DejaVuSans-31"
             id="use194"
             y="0"
             width="100%"
             height="100%" />
          <use
             x="147.41211"
             xlink:href="#DejaVuSans-32"
             id="use196"
             y="0"
             width="100%"
             height="100%" />
          <use
             x="211.03516"
             xlink:href="#DejaVuSans-30"
             id="use198"
             y="0"
             width="100%"
             height="100%" />
        </g>
      </g>
    </g>
    <g
       id="ytick_3">
      <g
         id="line2d_9">
        <g
           id="g206">
          <use
             style="stroke:#000000;stroke-width:0.8"
             x="70.203438"
             xlink:href="#m085a39aeb0"
             y="146.32814"
             id="use204"
             width="100%"
             height="100%" />
        </g>
      </g>
      <g
         id="text_10">
        <!-- −110 -->
        <g
           transform="matrix(0.14,0,0,-0.14,24.749375,151.64704)"
           id="g217">
          <use
             xlink:href="#DejaVuSans-2212"
             id="use209"
             x="0"
             y="0"
             width="100%"
             height="100%" />
          <use
             x="83.789062"
             xlink:href="#DejaVuSans-31"
             id="use211"
             y="0"
             width="100%"
             height="100%" />
          <use
             x="147.41211"
             xlink:href="#DejaVuSans-31"
             id="use213"
             y="0"
             width="100%"
             height="100%" />
          <use
             x="211.03516"
             xlink:href="#DejaVuSans-30"
             id="use215"
             y="0"
             width="100%"
             height="100%" />
        </g>
      </g>
    </g>
    <g
       id="ytick_4">
      <g
         id="line2d_10">
        <g
           id="g223">
          <use
             style="stroke:#000000;stroke-width:0.8"
             x="70.203438"
             xlink:href="#m085a39aeb0"
             y="112.87583"
             id="use221"
             width="100%"
             height="100%" />
        </g>
      </g>
      <g
         id="text_11">
        <!-- −100 -->
        <g
           transform="matrix(0.14,0,0,-0.14,24.749375,118.19474)"
           id="g234">
          <use
             xlink:href="#DejaVuSans-2212"
             id="use226"
             x="0"
             y="0"
             width="100%"
             height="100%" />
          <use
             x="83.789062"
             xlink:href="#DejaVuSans-31"
             id="use228"
             y="0"
             width="100%"
             height="100%" />
          <use
             x="147.41211"
             xlink:href="#DejaVuSans-30"
             id="use230"
             y="0"
             width="100%"
             height="100%" />
          <use
             x="211.03516"
             xlink:href="#DejaVuSans-30"
             id="use232"
             y="0"
             width="100%"
             height="100%" />
        </g>
      </g>
    </g>
    <g
       id="ytick_5">
      <g
         id="line2d_11">
        <g
           id="g240">
          <use
             style="stroke:#000000;stroke-width:0.8"
             x="70.203438"
             xlink:href="#m085a39aeb0"
             y="79.423523"
             id="use238"
             width="100%"
             height="100%" />
        </g>
      </g>
      <g
         id="text_12">
        <!-- −90 -->
        <g
           transform="matrix(0.14,0,0,-0.14,33.656875,84.742428)"
           id="g252">
          <defs
             id="defs244">
            <path
               d="m 703,97 v 575 q 238,-113 481,-172 244,-59 479,-59 625,0 954,420 330,420 377,1277 -181,-269 -460,-413 -278,-144 -615,-144 -700,0 -1108,423 -408,424 -408,1159 0,718 425,1152 425,435 1131,435 810,0 1236,-621 427,-620 427,-1801 Q 3622,1225 3098,567 2575,-91 1691,-91 1453,-91 1209,-44 966,3 703,97 Z m 1256,1978 q 425,0 673,290 249,291 249,798 0,503 -249,795 -248,292 -673,292 -425,0 -673,-292 -248,-292 -248,-795 0,-507 248,-798 248,-290 673,-290 z"
               id="DejaVuSans-39"
               transform="scale(0.015625)" />
          </defs>
          <use
             xlink:href="#DejaVuSans-2212"
             id="use246"
             x="0"
             y="0"
             width="100%"
             height="100%" />
          <use
             x="83.789062"
             xlink:href="#DejaVuSans-39"
             id="use248"
             y="0"
             width="100%"
             height="100%" />
          <use
             x="147.41211"
             xlink:href="#DejaVuSans-30"
             id="use250"
             y="0"
             width="100%"
             height="100%" />
        </g>
      </g>
    </g>
    <g
       id="ytick_6">
      <g
         id="line2d_12">
        <g
           id="g258">
          <use
             style="stroke:#000000;stroke-width:0.8"
             x="70.203438"
             xlink:href="#m085a39aeb0"
             y="45.971214"
             id="use256"
             width="100%"
             height="100%" />
        </g>
      </g>
      <g
         id="text_13">
        <!-- −80 -->
        <g
           transform="matrix(0.14,0,0,-0.14,33.656875,51.29012)"
           id="g267">
          <use
             xlink:href="#DejaVuSans-2212"
             id="use261"
             x="0"
             y="0"
             width="100%"
             height="100%" />
          <use
             x="83.789062"
             xlink:href="#DejaVuSans-38"
             id="use263"
             y="0"
             width="100%"
             height="100%" />
          <use
             x="147.41211"
             xlink:href="#DejaVuSans-30"
             id="use265"
             y="0"
             width="100%"
             height="100%" />
        </g>
      </g>
    </g>
    <g
       id="ytick_7">
      <g
         id="line2d_13">
        <g
           id="g273">
          <use
             style="stroke:#000000;stroke-width:0.8"
             x="70.203438"
             xlink:href="#m085a39aeb0"
             y="12.518906"
             id="use271"
             width="100%"
             height="100%" />
        </g>
      </g>
      <g
         id="text_14">
        <!-- −70 -->
        <g
           transform="matrix(0.14,0,0,-0.14,33.656875,17.837813)"
           id="g285">
          <defs
             id="defs277">
            <path
               d="M 525,4666 H 3525 V 4397 L 1831,0 H 1172 L 2766,4134 H 525 Z"
               id="DejaVuSans-37"
               transform="scale(0.015625)" />
          </defs>
          <use
             xlink:href="#DejaVuSans-2212"
             id="use279"
             x="0"
             y="0"
             width="100%"
             height="100%" />
          <use
             x="83.789062"
             xlink:href="#DejaVuSans-37"
             id="use281"
             y="0"
             width="100%"
             height="100%" />
          <use
             x="147.41211"
             xlink:href="#DejaVuSans-30"
             id="use283"
             y="0"
             width="100%"
             height="100%" />
        </g>
      </g>
    </g>
    <g
       id="text_15">
      <!-- RIN [dB/Hz] -->
      <g
         transform="matrix(0,-0.14,-0.14,0,17.837812,161.63437)"
         id="g319">
        <defs
           id="defs295">
          <path
             d="m 2841,2188 q 203,-69 395,-294 192,-225 386,-619 L 4263,0 h -679 l -596,1197 q -232,469 -449,622 -217,153 -592,153 H 1259 V 0 H 628 v 4666 h 1425 q 800,0 1194,-335 394,-334 394,-1009 0,-441 -205,-732 -205,-290 -595,-402 z M 1259,4147 V 2491 h 794 q 456,0 689,211 233,211 233,620 0,409 -233,617 -233,208 -689,208 z"
             id="DejaVuSans-52"
             transform="scale(0.015625)" />
          <path
             d="m 628,4666 h 631 V 0 H 628 Z"
             id="DejaVuSans-49"
             transform="scale(0.015625)" />
          <path
             d="m 628,4666 h 850 L 3547,763 v 3903 h 612 V 0 H 3309 L 1241,3903 V 0 H 628 Z"
             id="DejaVuSans-4e"
             transform="scale(0.015625)" />
          <path
             d="m 2906,2969 v 1894 h 575 V 0 H 2906 V 525 Q 2725,213 2448,61 2172,-91 1784,-91 1150,-91 751,415 353,922 353,1747 q 0,825 398,1331 399,506 1033,506 388,0 664,-152 277,-151 458,-463 z M 947,1747 q 0,-634 261,-995 261,-361 717,-361 456,0 718,361 263,361 263,995 0,634 -263,995 -262,361 -718,361 -456,0 -717,-361 -261,-361 -261,-995 z"
             id="DejaVuSans-64"
             transform="scale(0.015625)" />
          <path
             d="M 1259,2228 V 519 h 1013 q 509,0 754,211 246,211 246,645 0,438 -246,645 -245,208 -754,208 z m 0,1919 V 2741 h 935 q 462,0 688,173 227,174 227,530 0,353 -227,528 -226,175 -688,175 z m -631,519 h 1613 q 722,0 1112,-300 391,-300 391,-853 0,-429 -200,-682 -200,-253 -588,-315 466,-100 724,-418 258,-317 258,-792 0,-625 -425,-966 Q 3088,0 2303,0 H 628 Z"
             id="DejaVuSans-42"
             transform="scale(0.015625)" />
          <path
             d="m 1625,4666 h 531 L 531,-594 H 0 Z"
             id="DejaVuSans-2f"
             transform="scale(0.015625)" />
        </defs>
        <use
           xlink:href="#DejaVuSans-52"
           id="use297"
           x="0"
           y="0"
           width="100%"
           height="100%" />
        <use
           x="69.482422"
           xlink:href="#DejaVuSans-49"
           id="use299"
           y="0"
           width="100%"
           height="100%" />
        <use
           x="98.974609"
           xlink:href="#DejaVuSans-4e"
           id="use301"
           y="0"
           width="100%"
           height="100%" />
        <use
           x="173.7793"
           xlink:href="#DejaVuSans-20"
           id="use303"
           y="0"
           width="100%"
           height="100%" />
        <use
           x="205.56641"
           xlink:href="#DejaVuSans-5b"
           id="use305"
           y="0"
           width="100%"
           height="100%" />
        <use
           x="244.58008"
           xlink:href="#DejaVuSans-64"
           id="use307"
           y="0"
           width="100%"
           height="100%" />
        <use
           x="308.05664"
           xlink:href="#DejaVuSans-42"
           id="use309"
           y="0"
           width="100%"
           height="100%" />
        <use
           x="376.66016"
           xlink:href="#DejaVuSans-2f"
           id="use311"
           y="0"
           width="100%"
           height="100%" />
        <use
           x="410.35156"
           xlink:href="#DejaVuSans-48"
           id="use313"
           y="0"
           width="100%"
           height="100%" />
        <use
           x="485.54688"
           xlink:href="#DejaVuSans-7a"
           id="use315"
           y="0"
           width="100%"
           height="100%" />
        <use
           x="538.03711"
           xlink:href="#DejaVuSans-5d"
           id="use317"
           y="0"
           width="100%"
           height="100%" />
      </g>
    </g>
  </g>
  <g
     id="line2d_14">
    <path
       clip-path="url(#pf0273abcc9)"
       d="m 70.147781,22.534243 0.09934,-0.46665 0.09933,7.47769 0.198669,41.288427 0.298004,145.42013 0.09933,-0.50534 0.695343,-6.44362 0.397339,-2.75477 0.09934,-0.21819 0.198669,-2.43146 0.298004,-3.27386 0.298004,-0.82185 0.09933,-0.17313 0.198669,-1.23902 0.397339,-4.15431 0.19867,0.14373 0.794677,-3.73549 0.794678,-3.04449 0.496674,-2.58206 0.198669,-0.38028 0.09933,-0.13706 0.298004,-0.97479 0.09934,0.0993 0.09933,-0.26415 0.496674,-2.7574 0.09933,0.17991 0.298004,0.94774 0.09933,-0.0621 0.298004,-0.61368 0.09934,-0.0303 0.198669,-1.53586 0.198669,-1.12854 0.397339,0.84227 0.09933,-0.28348 0.198669,-1.37733 h 0.19867 l 0.09934,0.27029 0.496673,-1.0664 h 0.09934 l 0.198669,1.33924 0.397339,-0.81093 h 0.09933 l 0.496673,-2.05794 h 0.09933 l 0.09934,-0.24729 0.298004,-2.13571 h 0.09933 l 0.09933,0.22969 0.298005,1.41766 0.496673,0.98506 h 0.19867 l 0.198669,-0.4967 0.298004,0.4967 0.09933,-0.24941 0.298004,-2.383 0.09934,0.22969 0.198669,1.17653 0.19867,-0.23915 0.298004,0.96864 0.298004,-0.96864 0.198669,-0.23719 0.19867,0.71747 0.198669,0.48836 h 0.09933 l 0.198669,-0.24521 h 0.19867 l 0.397339,-0.72343 0.198669,0.23915 0.298004,-0.945 0.09933,0.23338 0.397339,0.95275 0.198669,-0.24113 0.298004,0.48428 0.19867,-0.48428 h 0.09933 l 0.298004,0.48428 0.198669,-0.48428 0.298004,1.22619 0.09933,-0.24941 0.298004,-1.45312 h 0.09933 l 0.397339,1.45312 0.198669,-0.73565 h 0.19867 l 0.198669,-0.48028 0.19867,0.72343 0.198669,1.24725 h 0.09933 l 0.198669,-0.75475 0.19867,-0.4925 h 0.198669 l 0.298004,0.4925 h 0.298004 l 0.496674,1.01075 0.198669,-0.76134 0.19867,-0.74191 0.198669,0.74191 h 0.09933 l 0.298004,-0.74191 0.397339,1.24725 0.298004,1.57099 0.19867,-0.2678 h 0.09933 l 0.19867,0.2678 h 0.09933 l 0.298005,-0.53316 h 0.198669 l 0.496674,1.3517 0.09933,-0.27541 0.19867,-1.07629 h 0.397339 l 0.397338,-2.03987 0.19867,-4.12513 0.298004,-12.0648 0.298004,-11.30731 0.09933,2.70254 0.496673,24.30634 0.695343,4.43872 0.19867,0.56975 0.397339,-2.74319 0.09933,0.52831 0.397338,0.81093 0.19867,-1.33924 h 0.0993 l 0.39733,1.89271 0.39734,-1.3644 0.0993,0.2678 h 0.19867 l 0.0993,-0.2678 0.19867,0.2678 0.29801,-0.79611 0.298,1.33924 0.19867,-0.54313 0.298,0.54313 h 0.0993 l 0.39734,-0.81093 0.19867,0.81093 h 0.0993 l 0.298,-0.81093 0.49668,2.504 0.0993,0.0873 0.39734,-2.05322 0.19867,1.10704 0.0993,-0.28073 0.19867,-1.3644 0.39733,1.08634 0.39734,-0.81854 h 0.0993 l 0.39734,-1.57099 0.19867,0.256 0.19866,-0.76134 0.29801,1.01962 0.0993,-0.25828 0.0993,-0.256 0.298,1.30319 0.69535,-3.74634 0.596,-7.94599 0.19867,-0.8779 0.19867,1.41767 0.89402,9.84937 h 0.0993 l 0.49667,-2.44315 0.19867,0.23528 0.19867,-0.23528 h 0.0993 l 0.0993,-0.23338 0.39734,-2.23621 0.29801,-0.84842 0.19867,-1.22791 0.298,-1.9378 0.19867,-0.18686 h 0.0993 l 0.19867,-0.18567 h 0.0993 l 0.298,0.56059 0.19867,-0.92839 h 0.0993 l 0.19867,0.74033 0.39733,0.56789 h 0.0993 l 0.19867,-0.37983 0.59601,1.3517 0.19867,0.39804 h 0.0993 l 0.19867,0.40357 h 0.0993 l 0.0993,-0.20249 0.19867,0.61174 0.19867,0.62489 h 0.19867 l 0.19867,0.21132 0.19867,-0.62941 0.19867,-0.61605 0.298,1.24546 0.298,-0.83621 0.59601,-2.37326 0.0993,0.38232 0.298,-0.38232 h 0.0993 l 0.0993,-0.1893 0.39734,-2.18024 0.0993,0.17556 0.29801,-0.35008 0.19867,0.35008 0.49667,-1.70968 0.0993,0.16651 0.49667,-0.82318 1.29135,-6.51617 0.89401,-11.52073 0.49668,-8.8135 0.49667,-18.82232 0.79468,-36.236475 0.0993,0.292026 0.19867,5.592581 0.89402,40.209518 0.49667,10.35014 0.59601,8.5851 0.298,1.49039 0.59601,4.88006 h 0.19867 l 0.0993,0.227 0.49668,2.49717 0.0993,0.12444 0.39734,1.80052 0.298,0.40078 0.29801,1.66082 0.19867,0.86741 0.0993,-0.14638 0.39734,-2.64965 0.19867,-0.52831 0.19867,1.2025 0.19867,0.69021 0.19867,-0.55347 0.298,0.9756 h 0.19867 l 0.29801,-0.9756 0.0993,0.13738 0.29801,0.69683 h 0.0993 l 0.298,-0.28074 0.39734,0.42213 h 0.0993 l 0.39734,-0.9756 0.19867,0.41411 0.596,2.31416 0.29801,-0.59605 h 0.298 l 0.0993,-0.14712 0.19867,-1.15089 0.19867,-2.17345 0.19867,-4.59102 0.298,-14.34677 0.298,-13.58828 0.0993,0.64812 0.19867,8.9921 0.39734,20.37944 0.298,4.25976 0.19867,0.84636 h 0.0993 l 0.39733,-0.84636 0.19867,1.27897 0.19867,1.95284 h 0.0993 l 0.39734,-1.95284 0.19867,0.29202 0.19867,-0.43694 h 0.19867 l 0.19866,-0.43047 0.39734,-1.25443 0.39734,1.25443 0.19867,0.14278 h 0.0993 l 0.0993,-0.14278 0.29801,-1.52598 0.0993,0.27155 0.298,1.25443 0.29801,-0.70358 0.19867,0.13936 h 0.19867 l 0.19867,0.14003 0.19867,-0.14003 h 0.0993 l 0.19867,-0.41609 0.19867,-0.54567 0.298,1.10179 0.39734,-2.03274 0.19867,0.39533 0.19867,0.26658 0.19867,0.26904 0.0993,-0.26904 0.39733,-2.56169 h 0.0993 l 0.19867,-0.12234 h 0.0993 l 0.69535,-2.90224 0.19867,-0.22013 0.19867,-0.54312 h 0.19867 l 0.19866,-0.74371 0.59601,-3.45729 0.29801,-0.093 0.298,-2.23276 0.19867,-1.58909 0.19867,0.49249 0.19867,-0.73564 0.19867,-1.72352 0.39734,-4.04112 0.298,-1.92072 0.79468,-10.92203 0.59601,-11.36714 0.298,-9.27923 0.59601,-19.825036 0.49667,-6.840766 0.0993,0.420504 0.19867,3.79534 1.78802,44.445998 1.19202,14.93197 0.59601,2.6504 0.298,1.8535 0.0993,-0.0869 0.0993,0.0869 0.39734,2.07311 0.49667,3.15497 h 0.29801 l 0.298,1.82669 0.19867,-0.22096 0.19867,0.33207 0.0993,-0.2218 0.0993,0.11069 0.49667,2.91389 0.0993,0.12286 0.19867,-0.36703 0.0993,0.12183 0.29801,-0.72343 0.298,1.21592 0.19867,-1.0966 0.19867,-1.2864 0.0993,0.2297 0.29801,3.03577 h 0.0993 l 0.39734,-2.21723 h 0.0993 l 0.19867,-0.58702 0.298,-2.2362 0.79468,-15.60739 0.298,-12.64874 0.19867,-16.9611 0.49668,-73.022852 0.0993,-0.365493 0.19867,19.281427 0.49667,70.068048 0.29801,13.46064 0.69534,15.47439 0.298,2.79066 0.19867,0.59179 0.39734,2.62623 0.59601,1.47662 0.39734,2.44073 0.29801,0.45283 0.298,1.40246 h 0.0993 l 0.19867,-0.15921 h 0.19867 l 0.0993,0.15921 0.49667,1.98188 h 0.19867 l 0.29801,-0.67576 0.0993,0.16747 h 0.19867 l 0.0993,0.16844 0.29801,1.74042 h 0.0993 l 0.79468,-1.40057 0.89401,1.58049 0.29801,-1.23663 0.298,-0.34386 h 0.0993 l 0.298,0.34386 h 0.0993 l 0.19867,0.17347 h 0.0993 l 0.19867,-0.34591 0.0993,-0.17142 0.39734,-2.76936 0.29801,-1.8072 0.596,-5.80419 0.29801,-2.84535 0.19867,-0.32345 0.0993,-0.31989 0.39734,0.64334 0.19867,0.32709 0.19867,0.22013 h 0.0993 l 0.0993,0.2218 0.298,1.36761 0.19867,-0.91885 0.59601,-6.18828 0.69534,-10.34537 0.79468,-15.35026 0.19867,-0.8552 0.29801,-3.1565 0.0993,0.0988 0.19867,1.1779 0.298,3.96838 1.09269,21.01964 0.99334,12.73001 0.89401,6.4523 0.0993,0.15749 0.298,1.2916 0.29801,-0.65297 0.0993,0.16187 0.19867,0.4911 0.29801,1.3517 0.49667,2.71753 0.0993,0.19053 0.49668,-1.1249 0.298,-1.25961 0.49668,-1.03783 0.19867,-0.50534 0.596,1.19309 0.19867,0.70443 0.0993,-0.35435 0.39734,-2.52822 0.19867,-0.48028 0.19867,-0.47248 h 0.0993 l 0.19867,-0.77077 0.59601,-5.14506 0.19867,-1.36907 0.0993,-0.12132 0.0993,-0.71748 0.39734,-8.00245 0.298,-9.35076 0.298,-13.68905 0.39734,-32.748423 0.29801,-25.797216 0.0993,-2.188068 0.0993,3.066964 0.298,31.699385 0.39734,29.547378 0.49667,17.63502 0.39734,7.66548 0.49668,4.36961 0.596,5.60507 0.49668,2.75391 0.19867,1.39218 0.0993,0.17881 0.0993,-0.17881 0.19867,0.53977 0.19867,0.54997 0.298,-2.48192 0.0993,0.34184 0.49668,3.85538 0.19867,0.39533 0.69534,1.63741 0.298,0.42419 0.29801,-0.63399 0.19867,0.2098 h 0.0993 l 0.29801,0.42419 0.0993,-0.21287 0.69534,1.5239 0.49668,-0.88056 h 0.0993 l 0.29801,-0.85466 0.298,-1.83575 h 0.0993 l 0.298,-0.78008 0.19867,-0.94654 0.59601,-6.48373 0.298,-5.79008 0.39734,-13.36516 0.69534,-19.86928 0.0993,-0.30953 0.0993,0.50467 0.19867,3.35877 0.49668,17.0965 0.49667,13.32593 0.298,3.59506 0.19867,0.86312 0.49668,-0.57825 0.19867,-1.8036 0.19867,-1.57099 h 0.0993 l 0.0993,-0.12716 0.19866,-2.66536 0.29801,-3.79298 0.0993,-0.20248 0.19867,-0.89411 0.19867,-0.0977 0.29801,-0.95904 h 0.19867 l 0.19867,-0.46791 0.19866,1.72094 1.68869,16.01517 0.39734,1.58049 0.29801,2.44631 0.39734,2.45693 0.298,-1.04908 0.39734,1.26351 0.19867,0.65298 0.49667,2.52823 0.19867,0.72949 0.39734,-0.96864 0.19867,0.48028 0.298,-0.95275 0.19867,0.23528 0.39734,-0.92988 0.19867,0.22969 0.49668,-1.3517 0.0993,0.22096 0.19867,0.67315 h 0.19867 l 0.19867,0.45759 0.19867,-0.68371 0.39734,-1.32097 0.19867,0.65298 0.0993,-0.21929 0.69534,-5.18815 0.19867,-1.07629 0.0993,-0.17556 0.0993,-0.52043 0.39734,-6.03323 0.39734,-8.11348 0.39734,-15.94165 0.69534,-30.92814 0.0993,0.42419 0.19867,6.43036 0.69534,34.2807 0.39734,12.21827 0.69534,8.89213 0.59601,4.03408 0.0993,0.2068 0.596,3.29292 0.0993,-0.46122 0.19867,0.6946 0.19867,1.44111 h 0.0993 l 0.19867,-0.72949 h 0.0993 l 0.39733,-0.71162 0.29801,1.6884 0.19867,1.01075 h 0.0993 l 0.39734,-0.76134 0.39734,0.76134 h 0.0993 l 0.69534,1.58528 h 0.0993 l 0.19867,-0.27029 h 0.39734 l 0.19867,0.27029 0.29801,-0.53809 0.298,1.92861 0.0993,-0.28348 0.29801,-1.64513 0.39734,0.81093 h 0.0993 l 0.19867,0.27541 h 0.0993 l 0.69534,-1.61465 0.19867,-0.77488 0.39734,-3.81614 0.298,-10.0942 0.49667,-20.1403 0.0993,-1.53773 0.0993,0.22554 0.19867,5.73865 0.59601,22.04008 0.19867,2.24406 0.29801,0.86099 0.0993,-0.21765 0.39734,-2.09129 h 0.0993 l 0.0993,-0.20108 0.19867,-1.56044 0.39734,-2.71753 0.19867,-0.85215 0.49667,-4.06827 1.29135,-3.56798 0.0993,0.12943 0.39733,1.59983 0.19868,0.41411 0.298,3.3876 0.298,1.93781 0.29801,1.71981 0.298,2.59273 h 0.0993 l 0.19867,1.18613 0.298,2.52823 0.19867,0.66799 0.39734,3.338 0.19867,-0.50098 0.69534,3.14428 0.19867,0.55879 0.19867,-0.28073 0.39734,1.16868 0.298,-1.16868 0.39734,-0.82631 0.298,0.54825 0.29801,-1.61465 0.298,0.52831 0.49668,-1.04719 0.19867,0.78183 0.19867,-1.79258 0.19867,-3.50501 0.19866,-5.58961 0.0993,0.36549 0.39734,11.05487 0.298,1.0966 h 0.0993 l 0.19867,-0.27806 h 0.0993 l 0.19867,-0.54825 0.0993,0.27284 0.19866,1.11768 0.79468,-7.04794 0.19867,-3.76796 0.59601,-14.28773 0.298,-2.08461 0.0993,-0.22265 0.0993,0.44703 0.19867,3.21193 0.59601,12.93603 0.49668,6.33685 0.49667,2.02213 0.69534,1.61465 h 0.19867 l 0.39734,1.12854 0.298,-1.12854 0.0993,0.27806 0.19867,0.85048 h 0.0993 l 0.19867,-0.85048 0.0993,0.28073 0.19867,0.28348 0.0993,-0.28348 0.19867,-1.10704 0.39734,-1.0664 0.49667,1.33924 0.39734,-0.81093 0.29801,0.53809 0.298,-1.58528 h 0.0993 l 0.39733,-1.01075 0.19867,0.24941 h 0.19867 l 0.0993,-0.24941 0.39734,-3.7243 h 0.0993 l 0.19867,0.21929 0.19867,-0.21929 h 0.0993 l 0.0993,-0.43369 1.19202,-13.38627 0.596,-11.41697 0.39734,-15.85158 0.29801,-22.82745 0.49667,-41.698256 0.0993,-0.400783 0.19867,10.583812 0.69534,57.540127 0.39734,11.57451 0.59601,11.04016 0.19867,0.5212 0.0993,0.26415 0.19867,1.21933 0.0993,-0.27542 0.19867,-1.07628 h 0.19867 l 0.0993,0.13237 0.298,0.94391 0.19867,-0.40829 0.19867,0.27155 0.0993,-0.13609 0.298,-1.45643 0.0993,0.12943 0.29801,2.01394 0.0993,-0.13869 0.29801,-0.81855 0.19867,1.23663 0.298,1.88461 0.29801,1.69608 0.19866,1.13325 0.29801,0.49955 0.99335,6.56783 0.298,-0.41809 0.298,1.70969 0.39734,2.76936 0.49668,1.4904 0.0993,-0.25377 0.298,-1.71691 0.49668,1.97068 h 0.19867 l 0.0993,-0.25377 0.19867,0.50977 0.29801,-0.76134 0.19867,0.76134 0.99334,-4.73505 h 0.0993 l 0.298,-0.64812 0.29801,1.76152 0.298,1.87525 h 0.19867 l 0.0993,0.24315 0.29801,2.28508 h 0.0993 l 0.59601,-3.2457 0.29801,-2.27118 0.19866,-1.28211 0.69535,-11.14733 0.298,-4.35671 0.39734,-1.78315 0.29801,-1.571 0.0993,0.32957 0.298,3.51917 0.19867,3.2979 0.39734,6.03323 0.79468,9.70795 0.298,3.03472 h 0.0993 l 0.0993,-0.26536 0.49668,2.19397 h 0.0993 l 0.49668,1.31104 0.19867,-0.0596 0.19866,0.20894 0.0993,-0.20894 0.298,-1.25149 0.29801,0.6627 0.298,0.23408 0.29801,-0.26321 0.19867,0.44003 0.0993,-0.0591 0.0993,0.11824 0.39733,1.1171 0.0993,0.0308 0.0993,-0.15366 0.29801,-1.55163 0.19867,-0.57539 0.298,-1.11768 0.29801,-1.07629 0.19867,-0.26295 h 0.0993 l 0.19867,0.26295 0.298,-1.2916 0.19867,1.02865 0.29801,-1.28022 h 0.0993 l 0.0993,0.25157 0.19866,-1.9541 0.29801,-2.70487 0.19867,-0.63862 0.0993,-0.41809 0.89402,-9.77663 0.39733,-11.28292 0.29801,-17.06773 0.49667,-35.754945 0.0993,-1.120767 0.0993,2.117081 0.29801,20.309721 0.49667,30.43122 0.39734,9.41091 0.39734,4.63568 0.298,-1.07913 0.19867,0.61173 0.298,-0.30748 h 0.19867 l 0.39734,-0.90337 0.29801,-0.58702 0.0993,-0.28912 0.19867,0.28912 0.0993,-0.14492 0.298,-1.13405 h 0.298 l 0.29801,0.27939 h 0.0993 l 0.19867,-0.27939 0.89402,5.1589 0.19866,1.70968 h 0.0993 l 0.19867,-0.17556 0.298,1.99218 0.29801,1.53976 0.298,0.80161 h 0.0993 l 0.298,1.24546 0.0993,0.21287 0.298,2.21911 h 0.0993 l 0.39734,1.66081 h 0.0993 l 0.298,0.74191 0.19867,-0.74191 0.0993,0.24521 0.298,2.03987 h 0.0993 l 0.0993,0.26536 0.298,-0.52831 0.19867,0.52831 0.0993,-0.26536 0.69534,-5.95057 0.59601,-6.18083 0.19867,-0.51733 0.39734,4.42213 1.09268,10.42057 h 0.19867 l 0.298,-0.84227 0.29801,0.84227 0.69534,-1.92861 0.298,-2.05794 0.39734,2.32574 0.29801,-1.05671 h 0.0993 l 0.19867,0.52355 0.69534,-1.54317 h 0.19867 l 0.29801,1.01962 h 0.0993 l 0.39734,-1.51632 h 0.19867 l 0.19867,0.24729 0.19867,-0.4925 0.19867,0.24521 0.0993,-0.24521 0.39734,-3.01251 0.49668,1.12201 0.19867,-0.2279 0.19866,0.45759 0.0993,-0.22969 0.39734,-3.24385 h 0.0993 l 0.19867,0.41215 0.29801,-0.81854 0.298,-1.3792 h 0.0993 l 0.19867,-0.57162 0.19866,-1.47152 0.19867,-0.53316 0.69535,-3.94589 0.0993,0.15415 h 0.0993 l 0.0993,-0.30748 0.59601,-3.9944 0.0993,-0.13298 0.59601,-5.31969 0.19867,-0.65544 0.19867,-1.98306 0.49668,-6.15908 0.0993,-0.48563 0.39734,-6.38725 0.69534,-15.61826 0.29801,-9.212 0.49667,-26.182094 0.298,-11.595178 0.0993,-1.314328 0.0993,0.214967 0.19867,5.528656 0.99335,43.477617 0.49667,11.76191 0.29801,3.78857 0.69534,9.30288 0.29801,3.0817 0.298,1.56535 0.39734,3.65108 0.19867,0.98924 0.39734,2.22112 0.19867,0.54825 0.19866,-0.81855 0.19867,1.94709 0.19867,1.93284 0.19867,0.46491 0.19867,0.95276 0.19867,0.81854 0.19867,-0.16557 0.49667,2.2296 0.19867,-0.17771 0.0993,0.17771 0.39734,2.03016 h 0.0993 l 0.59601,2.18273 h 0.0993 l 0.0993,0.2068 0.59601,3.29292 0.19867,-0.23153 0.39734,0.70019 0.0993,-0.23528 0.49668,1.93781 0.298,0.50534 h 0.0993 l 0.19867,-0.25377 0.29801,0.50977 h 0.0993 l 0.29801,-1.50325 0.596,-1.1959 0.19867,0.71162 0.19867,1.73153 h 0.29801 l 0.39734,2.38953 0.19867,1.65105 0.0993,0.77171 0.0993,-0.12006 0.298,-1.74391 h 0.0993 l 0.19867,0.56975 0.19867,1.32432 0.0993,0.0603 0.49667,-2.23508 h 0.19867 l 0.0993,0.28073 0.298,-0.55879 0.19867,0.84227 0.19867,0.86742 0.0993,0.11764 0.19867,-0.2348 0.19867,-0.17487 h 0.0993 l 0.59601,-1.41766 0.39734,0.84227 0.19866,-0.28348 0.19867,0.56975 0.19867,-0.28627 h 0.0993 l 0.298,1.28125 0.19867,0.45003 0.0993,0.42641 0.0993,-0.12247 0.59601,-2.59943 0.298,0.56421 0.19867,-0.28348 0.0993,0.28348 0.19867,-0.84227 h 0.0993 l 0.19867,0.27806 0.298,-1.0966 h 0.0993 l 0.298,-1.31499 0.19867,0.78183 h 0.0993 l 0.0993,-0.26295 0.29801,-1.52963 0.49667,-2.383 h 0.0993 l 0.19867,0.22969 0.0993,-0.22969 0.298,-1.77499 0.29801,-0.63862 0.39734,-2.61583 0.19867,-0.57162 0.39733,-5.48566 0.29801,2.27372 0.19867,-1.48194 0.89401,-9.26768 0.89401,-16.3436 0.39734,-12.33019 0.49668,-15.01617 0.39733,-4.55308 0.0993,0.22265 0.19867,3.3108 1.29135,37.97027 0.89401,12.96167 1.09268,10.30177 0.29801,1.6972 0.19867,0.66291 0.298,1.60827 h 0.19867 l 0.29801,1.9541 0.0993,0.50977 0.19867,-0.50977 0.0993,0.25377 0.39734,2.94832 h 0.19867 l 0.0993,0.28348 0.19867,1.19207 0.0993,0.0594 0.19867,-0.41341 0.0993,0.0587 0.39734,1.41473 0.298,1.42229 0.0993,0.12986 0.39734,1.33156 0.0993,0.0341 0.49667,1.3972 0.29801,-0.21391 0.19866,1.23354 0.19867,0.82701 0.19867,-0.97488 0.19867,-1.57876 h 0.0993 l 0.39734,2.25018 0.0993,-0.0377 0.19867,0.45579 0.0993,-0.49345 0.29801,-5.47271 0.39734,-13.04218 0.59601,-22.8009 0.0993,-0.71748 0.0993,1.17507 0.19866,7.30227 0.59601,26.8921 0.29801,5.66497 0.298,2.42593 0.0993,-0.0395 0.298,-1.42518 0.0993,0.18856 0.298,1.55418 0.19867,-0.55347 0.19867,-0.92495 0.19867,-0.89641 0.19867,0.82065 0.19867,1.0399 0.0993,-0.0783 0.19867,-0.50399 0.0993,0.11553 0.0993,-0.15394 0.298,-1.56898 0.0993,0.36596 0.19867,1.35696 0.0993,-0.1923 0.39734,-2.42583 0.0993,0.28348 0.19867,0.61173 0.0993,-0.18126 0.19867,0.65791 0.0993,-0.69403 0.19867,-5.11655 0.19867,-4.99333 0.0993,1.57099 0.39734,12.4756 0.298,1.92213 0.0993,0.0884 0.298,-0.3522 0.39734,0.66392 0.19867,-0.62013 0.0993,0.0439 0.19867,0.0879 0.0993,-0.044 0.19867,0.84744 0.19867,0.8263 0.19867,-0.6447 0.0993,-0.36208 0.0993,0.0901 0.19867,0.45473 0.0993,-0.18275 0.298,-1.16062 h 0.19867 l 0.29801,0.7536 0.0993,-0.22368 0.19867,-1.43464 0.0993,0.21287 0.19867,1.35577 0.0993,-0.134 0.19867,-0.48613 0.298,0.79977 0.0993,-0.045 0.0993,0.0901 0.0993,-0.13504 0.39734,-1.78529 0.0993,-0.12643 0.29801,-0.95139 0.39734,2.02212 h 0.0993 l 0.49667,-3.41264 0.29801,-0.91644 0.49667,-2.99741 0.0993,-0.10154 0.19866,-2.46058 0.89402,-15.39617 0.298,-2.61946 0.39734,-3.3108 0.19867,1.37299 0.39734,5.67496 0.49667,8.04417 0.29801,4.02341 0.298,2.2109 0.298,3.1789 0.0993,0.3484 0.19867,-0.07 0.19867,0.74371 0.39734,1.50928 0.19867,0.4954 0.39734,1.62014 0.19866,0.74085 0.0993,-0.12479 0.19867,-1.01962 0.0993,0.0803 0.19867,0.69137 0.0993,0.0412 0.19867,-0.32786 0.19867,-0.96195 0.0993,0.079 0.29801,1.54245 h 0.0993 l 0.39734,-1.66081 0.298,1.57756 0.19867,-1.02106 0.29801,-1.37176 0.298,0.42419 0.19867,-1.10523 0.0993,0.0749 0.49667,3.24946 0.39734,1.46172 0.0993,0.0441 0.29801,-0.1761 0.39734,0.26455 h 0.0993 l 0.298,-1.2993 0.0993,0.25525 0.19867,0.86742 0.0993,-0.26296 0.79468,-4.99792 0.29801,-5.13798 0.298,-11.03304 0.59601,-27.2901 0.0993,-0.73153 0.0993,1.14603 0.298,11.53191 0.59601,25.76756 0.39734,7.21628 0.49667,2.66908 0.19867,0.64239 0.29801,1.05831 0.19867,-0.92811 0.0993,0.0435 0.19867,1.01962 0.0993,-0.0451 0.29801,-1.62074 0.49667,0.6462 0.19867,-0.4324 0.39734,-2.42791 0.0993,0.19807 0.39734,2.40203 0.19867,0.78772 0.19867,0.17799 0.0993,0.0894 0.298,-0.62013 0.69534,1.62217 0.19867,0.65614 0.0993,-0.0474 0.0993,0.0948 0.29801,0.91637 0.298,-0.77359 h 0.0993 l 0.298,-0.52014 0.49667,1.88775 0.0993,0.15042 0.0993,-0.10037 0.19867,-1.08174 0.0993,0.24234 0.19867,0.88954 0.596,-1.32431 0.19867,0.58115 0.29801,0.74316 0.39734,-1.18011 0.19867,0.19339 0.19867,-0.71866 0.39733,-1.43118 0.19867,-0.44703 0.19867,0.22265 0.19867,-0.61918 0.0993,0.0438 0.19867,0.35274 0.19867,-0.0886 0.0993,0.13298 0.19867,0.6742 0.0993,-0.1361 0.19867,-0.49363 0.19866,0.0891 0.29801,-1.43679 0.298,-1.20652 0.0993,-0.122 0.79468,-7.41028 0.596,-5.8479 0.19867,-0.50977 0.19867,-0.50098 0.29801,-2.6109 h 0.39734 l 1.49002,13.11681 0.89401,4.41969 0.19867,-0.28912 0.19867,0.41391 0.39734,1.23482 0.19867,0.17451 0.298,1.43517 0.0993,-0.0918 0.29801,-0.58977 0.19867,-0.70981 0.298,-1.11769 0.19867,-0.5017 0.29801,0.33351 0.298,-0.54002 0.19867,-0.20506 0.39734,1.63919 0.19867,-0.76806 0.298,0.0421 0.19867,0.29672 0.19867,-0.25451 v 0"
       style="fill:none;stroke:#dc143c;stroke-width:0.8;stroke-linecap:square"
       id="path323" />
  </g>
  <g
     id="line2d_15">
    <path
       clip-path="url(#pf0273abcc9)"
       d="m 70.147781,42.37095 0.09934,-0.458175 0.09933,7.411852 0.198669,41.309535 0.298004,87.180368 h 0.09933 l 0.09933,0.27284 0.198669,1.11768 0.496674,-1.66081 0.09933,-0.53316 0.19867,0.26536 h 0.09934 l 0.198669,-0.52831 0.298004,1.0664 0.397339,1.67679 0.198669,-0.85048 0.19867,-0.55347 0.198669,-0.27284 0.397339,0.82631 h 0.19867 l 0.198669,0.56421 0.198669,-0.84227 h 0.19867 l 0.198669,1.12854 0.19867,-0.85048 0.198669,-1.3644 h 0.09933 l 0.198669,0.81093 0.19867,0.55347 h 0.198669 l 0.19867,-0.27806 h 0.298004 l 0.09933,-0.27541 0.09933,0.27541 0.19867,1.53412 0.09933,-0.11646 0.298005,-1.69307 h 0.09933 l 0.496674,1.40395 0.298004,-1.40395 h 0.09933 l 0.198669,0.55347 0.19867,-0.27806 h 0.09933 l 0.09933,0.27806 0.198669,-0.55347 0.397339,2.19128 0.298004,-0.44003 h 0.19867 l 0.198669,0.5882 0.19867,-1.22177 0.198669,-0.56421 0.19867,0.85048 H 81.0746 l 0.298004,-0.56975 0.298004,1.62433 h 0.09933 l 0.298004,-0.76546 h 0.19867 l 0.298004,-0.57539 0.198669,0.92618 0.09933,0.11787 0.298004,-2.16173 h 0.09933 l 0.397339,1.40395 0.298004,1.59658 0.09933,0.18294 0.298004,-0.60536 0.397339,-2.02464 0.09933,0.28073 0.19867,1.20966 0.198669,-0.20514 0.09934,0.20514 0.09933,-0.14668 0.198669,-1.34371 0.198669,1.66738 0.19867,2.0851 0.09933,-0.25321 0.496673,-3.77733 0.09933,-0.54825 0.09934,0.27284 0.298004,2.10274 0.198669,-0.20556 0.09933,0.0293 0.596008,-1.65105 0.09933,0.27806 0.198669,1.1396 0.298005,-1.41766 0.496673,1.56331 0.19867,0.85945 0.09933,0.0301 0.09933,-0.12019 0.09933,0.06 0.298004,-0.65365 0.09933,0.35471 0.198669,1.52642 0.09934,-0.24968 0.198669,-1.00783 0.09933,-0.0899 0.298004,0.24038 0.09933,-0.21044 0.298004,-1.46043 h 0.09933 l 0.09933,0.28627 0.298004,2.17988 0.09933,-0.21627 0.09933,-0.45807 0.09933,0.0303 0.198669,0.76832 0.09933,-0.0622 0.496673,-2.24196 h 0.19867 l 0.09933,-0.28627 0.09934,0.28627 0.19867,1.02477 0.198669,0.0298 0.09933,-0.0894 0.09933,0.0894 0.19867,0.66383 h 0.298004 l 0.19867,-0.30362 0.09933,0.0907 0.298004,1.58783 0.09933,-0.15956 0.397339,-2.93381 0.09933,0.28912 0.397339,-1.1396 0.298004,1.34371 0.09933,-0.0585 0.09933,0.20514 0.298004,1.17021 0.09933,0.0306 0.09933,0.15366 0.298004,1.58298 0.09933,-0.48402 0.298004,-3.37964 0.09933,0.28627 0.19867,1.41479 0.09934,-0.33036 0.198669,-1.3707 h 0.09933 l 0.298004,2.40419 0.298004,-0.43001 0.298004,1.27774 0.298004,-1.2167 0.19867,0.33804 0.09933,-0.0617 0.298005,0.71825 0.298,-1.08606 0.19867,0.24469 0.39734,-0.96662 0.0993,0.0893 0.19867,0.54143 0.29801,-0.33207 0.0993,0.18066 0.19867,0.64131 0.19867,-0.45952 0.49667,0.5833 0.0993,-0.36976 0.19867,-1.81012 0.298,-5.48875 0.0993,0.48028 0.19867,4.15799 h 0.0993 l 0.0993,-0.55347 0.596,2.97015 0.19867,0.58268 0.0993,0.40552 0.0993,-0.25022 0.29801,-1.69367 0.19867,-0.23408 0.49667,0.17538 0.298,1.28894 0.19867,0.58827 h 0.0993 l 0.19867,-0.6189 0.19867,-1.17021 0.298,0.4744 0.19867,-0.53316 0.19867,0.44362 0.298,1.34176 0.19867,0.79092 0.0993,-0.1918 0.19867,-0.94041 0.298,-2.02524 0.19867,2.02524 0.19867,1.35757 0.0993,-0.0323 0.298,-1.01517 0.19867,0.6941 0.0993,-0.0638 0.19867,-0.90955 0.0993,0.0928 0.19867,0.34276 0.0993,-0.1563 0.19867,0.53489 0.19867,0.48028 0.0993,-0.32107 0.19867,-1.49358 0.0993,0.12157 0.19867,0.86557 0.19867,0.22049 0.0993,-0.0632 0.0993,0.18991 0.19867,0.8376 0.0993,-0.16296 0.39734,-2.75754 0.39734,1.14552 0.0993,0.34021 0.0993,-0.0932 0.19867,-0.24703 0.0993,0.0924 0.69535,-0.39825 0.298,1.62683 0.0993,-0.22438 0.298,-1.31103 0.19867,0.86742 0.19867,0.82932 0.19867,-0.54492 0.0993,0.1273 0.19867,0.54734 0.19867,-0.54734 0.19867,0.15992 0.19867,-0.69714 0.19867,-0.40421 0.0993,-0.15398 0.29801,-2.47187 0.0993,0.28348 0.39734,2.40419 0.29801,1.03953 0.298,-0.94655 0.298,0.97863 0.29801,-0.97863 0.298,0.6911 0.0993,-0.15851 0.0993,0.095 0.19867,0.64145 0.79468,-1.36202 0.19867,0.24861 0.19867,-0.27954 0.0993,0.0929 0.19867,-0.30846 0.0993,0.0922 0.19867,0.77988 0.0993,-0.22049 0.19867,-5.00324 0.19867,-3.00851 0.298,4.36021 0.0993,-0.54825 0.39734,3.94985 0.298,-0.70686 0.0993,0.0304 0.39734,1.68943 0.298,-0.66872 0.19867,0.70095 0.0993,-0.0644 0.39734,-1.89938 0.0993,0.27255 0.298,1.82054 0.29801,-0.32214 0.0993,-0.66508 0.29801,-3.86426 0.39733,6.04166 0.29801,-2.36465 0.0993,0.43883 0.29801,2.92135 0.39734,-2.69943 0.0993,0.0956 0.19867,0.64573 0.0993,0.0327 0.19867,-0.35732 0.0993,0.16188 0.0993,-0.12958 0.29801,-3.95256 0.39734,2.90509 0.0993,0.12497 0.298,1.31297 0.0993,-0.42277 0.39734,-5.83075 0.19867,-4.17558 0.49667,7.85995 0.19867,0.54482 0.19867,-0.84315 0.0993,0.0892 0.29801,1.90702 h 0.0993 l 0.0993,0.12744 0.0993,0.32107 0.0993,-0.0645 0.298,-0.73161 0.0993,-0.15664 0.19867,-0.77077 0.0993,0.12196 0.39734,1.82844 0.0993,0.0325 0.19867,-0.48455 0.19867,0.81214 0.39734,1.62595 0.39734,-1.82295 0.0993,0.0983 0.298,1.79438 0.0993,-0.20879 0.19867,-2.36306 0.19867,-3.06139 0.0993,1.17416 0.19867,4.49403 0.0993,0.28108 0.19867,-0.8695 0.29801,-2.20954 h 0.298 0.0993 l 0.19868,0.64216 0.298,1.12532 0.0993,-0.26873 0.0993,0.16767 0.19867,0.99201 0.0993,-0.0695 0.49668,-1.91428 0.19867,-0.41948 0.298,1.01047 0.298,0.23312 0.19867,-0.85659 0.0993,0.0325 0.19867,0.45862 0.19867,-0.16463 0.19867,1.41274 0.0993,0.80378 0.0993,-0.21184 0.298,-2.26615 0.19867,0.95926 0.19867,0.0336 0.298,1.09789 0.19867,-0.3821 0.19867,-1.21649 0.19867,-1.00821 0.0993,0.54855 0.298,3.71289 0.69534,-2.17445 0.29801,-0.10285 0.0993,0.0685 0.29801,-0.23915 0.19867,0.23915 0.19866,-0.10274 0.39734,0.97327 0.19867,-0.35135 h 0.0993 l 0.298,-1.06294 0.0993,0.0337 0.596,1.91572 0.0993,-0.21523 0.298,-1.66677 0.0993,0.33945 0.298,2.01443 0.49668,-1.98027 0.298,-0.30603 0.19867,-0.20225 0.0993,0.47412 0.29801,2.12443 0.39734,-2.09027 0.298,1.25744 0.19867,-1.76572 0.19867,-2.57019 0.0993,0.24703 0.298,2.86565 0.0993,-0.20462 0.0993,0.17041 0.298,1.25744 0.19867,-0.14243 0.19867,-0.28279 0.19867,0.38955 0.19867,-1.05034 0.0993,0.13787 0.19866,0.55812 0.29801,-0.2455 0.0993,-0.34715 0.0993,0.0691 0.39734,1.41766 0.19867,-0.36095 0.298,-1.12581 0.19867,0.5223 0.0993,0.38907 0.0993,-0.0711 0.19867,-0.59767 0.19867,0.38532 0.0993,0.24789 0.0993,-0.071 0.0993,-0.45759 0.19867,-3.11024 0.19867,-1.79473 0.39734,6.04458 0.0993,0.14565 0.0993,-0.43477 0.19867,-1.54069 0.0993,0.20534 0.19867,1.04908 0.19867,0.17859 0.59601,2.15606 0.0993,-0.1923 0.298,-2.60161 0.298,1.07099 0.49668,-1.31531 0.19867,0.10446 0.0993,-0.0697 0.39734,1.38984 0.0993,-0.0365 0.19866,-0.61326 0.19867,-0.17793 0.19867,0.21365 0.19867,0.25126 0.19867,-0.64176 0.0993,0.10598 0.298,1.15519 0.0993,-0.0368 0.19867,0.0737 0.19867,-0.76421 0.298,0.8011 0.298,-1.15806 0.19867,0.82767 0.0993,-0.10931 0.19867,-0.5761 h 0.19867 l 0.298,0.46721 0.298,-0.82156 0.29801,1.22285 0.19867,-0.32874 0.0993,0.10917 0.39734,1.15273 0.0993,-0.0379 0.39734,-0.85851 0.19866,0.40743 0.29801,-0.14882 0.19867,0.26093 0.0993,0.0375 0.19867,0.3394 0.19867,-0.74891 0.0993,0.037 0.298,1.13221 0.39734,-0.79716 0.19867,-0.26093 0.19867,-0.33207 0.0993,0.0735 0.29801,0.66971 h 0.0993 l 0.19867,-0.44818 0.0993,0.1114 0.298,0.86854 0.19867,-0.4941 0.298,-1.64825 0.0993,0.14278 0.298,1.31764 0.29801,-0.99379 0.0993,0.10876 0.19867,1.224 0.19867,-0.85851 0.0993,0.0368 0.19866,1.0881 h 0.0993 l 0.19867,-0.5679 0.19867,0.0751 0.298,-0.88841 0.49668,0.70107 0.19867,0.79508 0.0993,-0.2294 0.29801,-1.41222 0.19866,0.40179 0.0993,-0.14675 0.0993,0.2573 0.19867,1.09092 0.0993,-0.34296 0.298,-1.58495 0.0993,0.14384 0.19867,0.65626 0.0993,-0.25698 0.298,-1.46114 0.19868,0.70358 0.19866,0.90413 0.29801,1.8973 0.298,-1.0399 0.39734,1.0399 0.69534,-1.82374 0.0993,0.18472 0.298,0.71284 0.19867,-0.82382 0.0993,0.1852 0.19867,1.05946 0.298,-0.6855 0.0993,0.30267 0.0993,-0.038 0.19867,-0.52694 0.19867,0.8324 0.0993,-0.0767 0.39734,-1.6012 0.19867,-1.10196 0.39734,3.08853 0.0993,0.15559 0.19866,0.63083 0.19867,-1.40058 0.19867,-1.37241 0.0993,0.25472 0.298,1.42315 0.0993,0.26993 0.298,-0.23152 0.19867,0.70018 0.0993,-0.15706 0.19866,-1.33924 0.0993,0.26296 0.298,1.66969 0.59601,-2.41477 0.0993,0.25861 0.0993,0.6378 0.0993,-0.3394 0.298,-6.09877 0.39734,5.39501 0.298,-1.21832 0.39734,1.29161 0.19867,-0.29203 0.29801,1.64373 0.0993,-0.0384 0.298,0.62072 0.19867,-0.42817 0.39734,0.34985 0.0993,-0.0781 0.298,-1.40837 0.0993,0.0744 0.298,0.98506 0.19867,-0.11538 0.298,1.05529 0.19867,-0.43457 0.19867,0.87573 0.29801,-1.49645 0.19867,0.26993 0.19867,0.74558 0.0993,-0.15856 0.19867,-0.78008 h 0.0993 l 0.39734,0.62238 0.19867,-1.194 0.0993,0.15133 0.19867,0.84674 0.49667,0.31412 0.0993,-0.31412 0.0993,0.0782 0.0993,0.27542 0.0993,-0.0395 0.39734,-0.93236 0.0993,-0.0764 0.29801,1.32629 0.0993,-0.23849 0.19867,-1.16396 0.29801,1.1244 0.298,-1.61466 0.19867,1.69383 0.19867,1.29701 0.59601,-2.04058 0.19867,0.86274 0.0993,-0.0795 0.59601,-1.35711 h 0.0993 l 0.19867,-0.15114 0.49668,1.98853 0.298,-1.18614 h 0.0993 l 0.298,0.50806 0.298,-0.0787 0.19867,0.9593 0.19867,1.07628 0.39734,-1.95684 0.0993,0.0394 h 0.0993 l 0.29801,-0.6635 0.19867,0.54531 0.0993,0.0393 0.19867,-0.50737 0.19867,0.58622 0.39734,0.96328 0.0993,-0.0408 0.39734,-0.72443 0.19867,0.15943 0.19867,-0.19915 0.298,1.7169 0.0993,-0.0841 h 0.0993 l 0.19867,-0.37546 0.19867,0.16627 0.39734,-1.66081 0.39734,0.2372 0.298,2.22668 0.0993,-0.0428 0.59601,-1.7439 h 0.0993 l 0.29801,1.23487 0.0993,-0.084 0.19867,-0.66323 0.298,-1.63348 0.0993,0.23339 0.298,2.23151 0.0993,-0.0421 0.69534,-1.07475 0.19867,-0.0405 0.298,0.44923 0.29801,-0.73153 0.0993,0.20136 0.29801,1.11214 0.19867,-0.0839 0.19867,-0.98785 0.19867,-0.71945 0.19867,1.37427 0.19867,0.96793 0.19866,-1.5417 0.19867,-1.38672 0.0993,0.23307 0.298,1.93511 0.0993,-0.29035 0.19867,-1.09354 0.39734,-0.47311 0.39733,0.91367 0.29801,-1.06968 0.59601,1.68141 0.19867,0.83621 0.298,-2.0075 0.0993,0.0793 0.298,1.97067 0.298,-0.50534 0.19867,0.46289 0.29801,-1.08245 0.0993,-0.0408 0.0993,-0.24383 0.39734,-2.62922 0.0993,0.48459 0.39734,3.42704 0.0993,0.16967 0.49668,-1.37103 0.19867,0.57377 0.298,-0.2883 0.19867,0.41274 0.298,-0.49459 0.0993,0.16393 0.0993,0.12356 0.0993,-0.16463 0.298,-0.92891 0.0993,0.0398 0.19867,0.72543 0.0993,-0.0408 0.19867,-0.44485 0.19867,1.27155 0.0993,-0.12552 0.19866,-0.70118 0.19867,0.12252 0.19867,-0.48699 0.0993,0.12098 0.298,1.62043 h 0.0993 l 0.19867,-0.55024 0.19867,0.084 0.19867,0.55186 0.0993,0.21507 0.19867,-0.68271 0.298,-0.74934 0.39734,-0.20477 0.19867,-0.16278 0.0993,0.122 0.298,1.24903 0.0993,-0.085 0.39733,-0.91852 0.59601,2.35316 0.29801,-1.39219 0.0993,0.12772 0.0993,0.0855 0.39734,-1.05059 0.298,0.96513 0.49667,-1.00638 0.19867,-0.73255 0.29801,2.29897 0.298,-2.01628 0.19867,0.69821 0.0993,0.37654 0.0993,-0.0421 0.19867,-0.50026 0.298,0.75366 0.29801,1.0363 0.49667,-0.95134 0.19867,-0.50607 0.0993,0.0418 0.49667,1.50362 0.49667,-1.83665 0.19867,0.0414 0.0993,0.16627 0.298,1.89472 0.0993,-0.0889 0.19866,-1.13108 0.19867,-1.53729 0.0993,-0.0808 0.39734,1.7464 0.19867,-0.42543 0.19867,0.0846 0.49667,0.46969 0.19867,-0.51202 0.19867,-0.46155 0.0993,-0.0416 0.29801,1.1446 0.0993,-0.30111 0.0993,0.0428 0.298,0.56253 0.19867,0.0875 0.19867,-0.47812 0.0993,0.12962 0.19866,0.96863 0.0993,-0.0447 0.298,-1.56628 0.29801,1.25504 0.0993,-0.35167 0.29801,-2.14706 0.19867,0.65667 0.0993,0.25013 0.0993,-0.0418 0.19867,-0.29119 0.19866,-0.0827 0.0993,0.12408 0.49667,1.5756 0.0993,-0.13098 0.19867,-1.23663 0.19867,-1.505 0.0993,0.47962 0.29801,2.78952 0.596,-1.42822 0.0993,-0.0844 0.39734,0.76806 0.298,1.5086 0.79468,-2.73622 h 0.0993 l 0.39734,1.14127 0.29801,1.14306 0.19867,0.0449 0.19867,-0.35707 0.0993,0.0444 0.298,2.26288 0.49668,-2.83478 0.19867,-0.90071 0.19867,0.21193 0.19867,-0.71436 0.0993,0.0831 0.29801,1.27647 0.19866,-0.17347 0.29801,0.83337 0.0993,-0.0889 0.29801,-0.74451 h 0.0993 l 0.0993,-0.12943 0.19867,-0.46969 0.19867,0.85971 0.298,1.20251 0.0993,-0.0454 0.39734,-1.15707 0.0993,0.13118 0.298,1.62217 0.19867,0.27939 0.19867,-1.50443 0.19867,-1.30319 0.298,-0.67185 0.19868,0.54469 0.49667,2.05911 0.0993,-0.0454 0.49668,-0.84874 0.0993,0.0441 0.29801,1.03222 0.39733,-1.64304 0.0993,0.0432 0.19867,0.217 0.0993,-0.0435 0.19867,-0.25982 0.19867,0.0864 0.29801,1.19154 0.0993,-0.09 0.19867,-0.53397 0.0993,0.0883 0.19867,0.40079 0.19867,-0.17881 0.19867,0.26862 0.29801,0.63663 0.39734,-0.68157 0.19867,-0.44566 0.298,0.94391 0.19867,-0.85532 0.298,-1.72236 0.39734,2.48645 0.0993,-0.1816 0.19867,-0.62682 0.0993,-0.0443 0.29801,-1.17021 0.19866,0.81854 0.29801,1.43296 0.39734,-1.34544 0.298,0.35274 0.29801,0.49211 0.0993,0.0452 0.298,-0.5816 h 0.0993 l 0.298,0.53644 0.0993,-0.13504 0.298,-0.35707 0.29801,-0.1769 0.298,0.89549 0.0993,-0.22648 0.19866,-0.97603 0.39734,1.24801 0.19867,0.13695 0.29801,-1.20992 0.0993,0.26455 0.19867,0.67211 0.19867,-0.44979 0.19867,-0.26658 h 0.0993 l 0.19866,-0.39533 0.0993,0.35114 0.298,1.9637 0.19867,-0.60779 0.19867,-1.00048 0.0993,0.0447 0.298,1.42214 0.0993,-0.047 0.0993,-0.23376 0.298,0.85049 0.29801,-1.40396 0.0993,0.0457 0.19867,0.55435 0.0993,-0.0466 0.298,-1.09659 0.0993,-0.0448 0.49667,0.54228 0.0993,-0.0911 0.19867,-0.62973 0.0993,0.0445 0.19867,0.22368 0.39734,0.36152 0.0993,-0.0908 0.29801,-1.50172 0.0993,-0.12885 0.49667,1.27018 0.19867,0.4512 0.29801,-1.07133 0.0993,0.13178 0.19867,0.39895 0.19867,-0.0446 0.19867,0.134 0.0993,-0.223 0.0993,0.1336 0.298,1.13782 0.29801,-0.9138 0.39734,1.33458 0.19867,0.23642 0.49667,-0.70358 0.298,0.46716 0.39734,-1.37952 0.49668,0.86606 0.298,1.27688 0.19867,-0.71629 0.0993,-0.32833 0.19867,0.32833 0.0993,-0.0942 0.298,-0.37372 0.29801,-1.62469 0.19867,1.20992 0.19867,1.40623 0.0993,-0.19148 0.39734,-2.7303 0.39734,1.88394 0.19867,-0.27673 0.298,0.46269 0.19867,0.42282 0.29801,-1.34094 0.298,-0.22507 0.49668,0.54312 0.298,1.64469 0.0993,-0.19274 0.19867,-0.8052 h 0.0993 l 0.19867,0.37614 0.19867,-0.42282 0.298,-0.91812 0.0993,-0.0902 0.0993,0.40829 0.298,2.13223 0.19867,-0.43915 0.29801,-0.0967 0.19867,-0.33592 0.298,-1.71378 0.0993,0.36208 0.19867,1.3517 0.19866,-1.03114 0.19868,-1.12898 0.0993,0.35653 0.298,1.94708 0.19867,0.096 0.0993,0.19307 0.0993,-0.14492 0.29801,-1.27274 0.39733,0.46491 0.29801,-0.14026 0.298,1.04462 0.0993,-0.0965 0.298,-1.73033 0.29801,1.77856 0.0993,-0.0964 0.29801,-1.22459 0.19866,-0.0461 0.0993,0.0461 0.298,1.17653 0.29801,-0.8052 0.0993,0.18746 0.19867,0.90734 0.0993,-0.0969 0.19867,-1.27688 0.0993,0.0463 0.298,1.52212 0.19867,-0.14613 0.19867,0.19501 0.29801,-1.47817 0.0993,0.0465 0.0993,0.18686 0.0993,-0.18686 0.19867,-0.91668 0.0993,0.0904 0.39733,1.29572 0.0993,-0.18868 0.0993,-0.28074 0.19867,0.3278 0.49668,0.61874 0.298,-0.42976 0.19867,0.19022 0.0993,0.14349 0.19867,-0.52269 0.0993,0.0471 0.298,0.33207 0.19867,-0.93889 0.29801,-1.39786 0.0993,-0.17557 0.0993,0.44092 0.298,2.16698 0.49667,0.14396 0.29801,-1.22459 0.298,1.36927 0.0993,-0.14468 0.19867,-0.6658 0.0993,0.33099 0.29801,1.86575 0.19867,-1.19222 0.19867,-1.0984 0.0993,-0.14026 0.39734,1.97804 0.49667,-1.17415 0.29801,1.22412 0.298,-1.12807 0.39734,0.97842 0.59601,-1.97149 0.0993,0.32727 0.39734,2.14607 0.0993,0.0507 0.0993,-0.10124 0.49668,-2.14248 0.0993,-0.41942 0.0993,0.0927 0.49668,1.28106 0.19867,-0.19339 0.19867,0.0965 0.298,0.43841 0.19867,-0.14687 0.0993,0.14687 0.0993,-0.19566 0.19867,-1.3805 0.0993,0.13981 0.39734,1.38731 0.0993,0.24604 0.19867,-0.29499 0.19867,-0.34042 0.19867,0.0969 0.19866,-0.71866 0.0993,0.18991 0.19867,0.8703 0.19867,-0.67914 0.39734,-1.49519 0.0993,0.0456 0.49668,2.32575 0.49667,0.34798 0.0993,0.05 0.0993,-0.10002 0.298,0.50359 0.39734,-0.94947 0.19867,-1.01454 0.0993,0.0951 0.19866,0.52875 0.19867,0.0972 0.19867,0.24437 0.29801,-1.48303 0.39734,1.38504 0.298,-0.38872 0.69534,1.89456 0.0993,-0.15415 0.59601,-2.02858 0.0993,-0.23797 0.29801,0.57444 0.19867,-0.0965 h 0.0993 l 0.298,0.33928 0.19867,0.19566 0.29801,-1.48303 0.298,1.33616 0.29801,0.49249 0.0993,-0.0992 0.19867,-0.49082 0.298,0.14638 0.19867,-0.43695 0.39734,1.58438 0.0993,-0.10159 0.19867,-0.89872 0.39734,0.69658 0.39734,1.49835 0.298,-0.6294 0.0993,0.0519 0.29801,-0.87047 0.39734,-1.47526 0.19867,0.53227 0.0993,-0.0975 0.19867,-0.48268 0.0993,0.0479 0.298,1.22412 0.0993,-0.29853 0.0993,0.0495 0.19867,0.65186 0.19867,-0.25245 0.298,0.6096 0.29801,-0.35715 0.0993,-0.35282 0.0993,0.0501 0.19868,0.96949 0.298,-1.95621 0.0993,0.24356 0.29801,2.28908 0.0993,-0.0529 0.19867,-0.47162 0.19867,-0.10377 0.298,-1.16749 0.19867,0.40079 0.0993,-0.15095 0.298,0.25201 0.19867,-0.50185 0.0993,0.1997 0.19867,0.76135 0.19867,-1.01076 0.0993,0.19936 0.19867,1.22575 0.0993,-0.20791 0.298,-1.95284 0.19867,0.53764 0.298,0.90182 0.19867,-0.85244 0.0993,0.099 0.298,1.06039 0.29801,-1.30725 h 0.0993 l 0.39734,1.93102 0.19867,-0.31356 0.298,-2.05661 0.0993,0.14565 0.298,1.09098 0.39734,1.13354 0.19867,-0.67515 0.0993,0.10285 0.19867,0.4674 0.19867,-0.9274 0.0993,0.10159 0.298,0.72129 0.19867,0.26201 0.29801,-1.88512 0.0993,0.14837 0.19867,0.80438 0.0993,-0.15252 0.19867,-0.75085 0.29801,2.25993 0.298,-1.45833 0.19867,1.08683 0.19867,0.85623 0.29801,-0.75057 0.298,0.80493 0.79468,-2.40099 h 0.0993 l 0.29801,0.86438 0.19867,-0.76401 0.0993,0.0503 0.19867,0.45679 0.19867,-0.10213 0.49667,1.62485 0.29801,-1.87861 0.0993,0.20283 0.0993,0.25556 0.298,-0.85987 0.0993,0.25027 0.19867,0.86742 0.0993,0.0518 0.19867,-0.20681 0.19867,0.5198 0.298,1.12284 0.39734,-1.22754 0.29801,0.68744 0.298,-0.0535 0.19867,0.21444 0.0993,-0.0538 0.59601,-1.05479 0.29801,0.10377 0.19867,-0.46409 0.298,0.72515 h 0.0993 l 0.19866,0.21056 0.29801,-0.78183 0.19867,-0.10268 0.298,0.25737 0.29801,-0.4107 0.0993,-0.20319 0.0993,0.0507 0.298,0.77077 0.298,-0.46492 0.19867,0.30912 0.19867,-0.41143 0.29801,0.88135 0.298,-0.9833 0.19867,0.66918 0.19867,-0.1558 h 0.19867 l 0.19867,-0.46245 0.298,0.72258 0.19867,-0.4151 0.19867,-0.10285 0.29801,-0.50888 0.0993,0.0505 0.298,1.61032 0.29801,-1.8619 0.0993,0.0501 0.29801,0.60853 0.19867,0.25737 0.298,-0.71495 0.29801,1.07913 0.0993,-0.10452 0.19867,-0.51703 0.19867,0.30912 0.19867,-0.20644 0.39734,1.15401 0.19867,-0.21326 0.19867,-0.15892 0.298,-0.47162 h 0.19867 l 0.19867,-0.46409 0.0993,0.1025 0.19867,0.41362 0.39734,-0.51612 0.19867,0.1025 0.49668,-0.85987 0.19866,0.25027 0.69535,1.81499 0.298,-0.3193 0.19867,0.69631 0.0993,-0.0542 0.19867,-0.58918 0.19867,-0.10585 0.19866,-0.62714 h 0.0993 l 0.298,-0.81567 0.29801,1.76153 0.0993,-0.1598 0.19867,-0.68247 0.19867,0.6294 0.19867,0.42731 0.0993,-0.10742 0.0993,0.10742 0.298,0.70806 0.0993,0.11048 0.39734,-1.82332 0.0993,0.20866 0.29801,2.11709 0.298,-0.0563 0.69534,-2.26949 0.0993,0.052 0.298,1.49587 0.29801,-0.65054 0.0993,-0.0536 0.19867,-0.26633 0.298,1.02531 0.29801,-0.70542 0.0993,0.0537 0.0993,-0.10722 0.298,-0.94757 0.19867,0.84074 0.29801,-0.26535 0.19867,-0.15806 0.19866,0.53024 0.0993,-0.0535 0.298,-0.31872 0.19867,0.26535 0.19867,-0.37082 0.69535,0.85466 0.19866,0.27232 0.0993,-0.54211 0.298,-2.27199 0.69535,3.36652 0.19867,0.0558 0.39734,0.16812 0.19866,0.28238 0.29801,-1.70807 0.19867,-0.10683 0.0993,-0.0533 0.19867,0.75475 0.29801,1.22713 0.19867,0.40157 0.39733,-1.35432 0.29801,-1.71284 0.298,2.04555 0.39734,-0.82474 0.19867,-0.48384 0.19867,0.32166 h 0.0993 l 0.298,1.26712 0.298,-0.77785 h 0.0993 l 0.19867,0.16494 h 0.0993 l 0.0993,0.16588 0.19867,0.72995 0.298,-0.78535 0.0993,0.1109 0.19867,0.39153 0.19866,-0.22438 0.29801,-0.44362 0.19867,-0.4911 0.39734,0.43613 0.19867,0.89239 0.0993,-0.0566 0.19867,-0.94546 0.0993,0.21971 0.298,1.29661 0.0993,-0.17244 0.49668,-1.99321 0.0993,0.21483 0.19867,0.87559 0.29801,-0.38632 0.19867,0.66544 0.0993,-0.11197 0.29801,-1.89271 h 0.0993 l 0.19867,0.63514 0.39734,2.57204 0.0993,-0.11669 0.29801,-1.08581 0.19867,0.11241 0.39734,-2.16939 0.39733,0.90227 0.29801,-0.48116 0.19867,-0.15863 0.0993,0.10566 0.39734,2.02737 0.49667,-1.05874 0.29801,0.2749 0.298,-0.60138 0.19867,0.32648 0.0993,-0.1637 0.0993,-0.16278 0.39734,0.76757 0.298,0.7884 0.0993,-0.11395 0.19867,-0.56312 0.298,-1.25521 0.39734,1.08838 0.19867,0.22265 0.19867,-0.55347 0.19867,-1.0234 h 0.0993 l 0.19867,0.64215 0.0993,0.38125 0.0993,-0.10944 0.19867,-0.48744 0.19867,0.9277 0.19867,0.67315 h 0.0993 l 0.298,-0.61765 0.298,0.7884 0.29801,-1.82526 0.0993,0.16127 0.19867,0.82009 0.0993,0.11111 0.19867,-0.2218 0.0993,-0.16525 0.0993,0.16525 0.298,1.4149 0.39734,-1.6898 0.19867,0.10965 0.19867,0.16525 0.298,1.06898 0.19867,-0.4549 h 0.0993 l 0.298,-0.61408 0.29801,0.61408 0.19866,0.34051 0.29801,-0.7884 0.0993,0.16715 0.0993,-0.16715 0.19867,-0.65915 0.0993,0.21806 0.19867,0.83262 0.0993,-0.0563 0.39734,-1.1569 0.19867,0.32587 0.19866,1.05671 0.19867,0.68776 0.59601,-1.6898 0.29801,1.00204 0.298,-0.44962 0.39734,1.2536 0.19867,-1.08581 0.19867,-0.93827 0.0993,0.32771 0.29801,2.6433 0.0993,-0.41808 0.19867,-1.44589 0.29801,1.68405 0.0993,-0.1788 0.19867,-0.8202 0.0993,0.17382 0.0993,-0.0581 0.19867,-0.63106 0.0993,0.0568 0.19867,1.04197 0.0993,-0.2932 0.298,-2.13663 0.0993,0.21765 0.39733,2.38954 0.0993,-0.23624 0.19867,-0.6399 0.19867,-0.11485 0.39734,-1.17926 h 0.19867 l 0.19867,-0.32832 0.0993,0.27335 0.19867,1.23423 0.0993,-0.17142 0.19867,-0.67576 0.0993,0.11154 0.298,1.19778 0.19867,1.7397 0.0993,-0.18488 0.298,-2.7526 0.0993,0.0559 0.298,1.14185 0.19867,-0.46214 0.0993,0.11485 0.29801,0.6399 0.19867,-0.35078 0.39734,1.06532 0.39734,-0.65566 0.39733,1.01963 0.0993,-0.061 0.298,-1.13492 0.0993,-0.0585 0.19867,-0.23291 0.0993,0.17451 0.0993,-0.11646 0.39734,-1.58323 0.0993,0.16557 0.59601,3.71436 0.0993,0.12606 0.0993,-0.31412 0.298,-2.85445 0.0993,0.22745 0.298,1.40339 0.0993,-0.53425 0.298,-3.74728 0.0993,0.73299 0.0993,-0.15863 0.19867,-2.52384 0.298,2.26136 0.0993,-0.0522 0.39734,3.13684 0.0993,-0.0581 0.29801,-1.13738 0.39733,0.73421 0.39734,-0.45401 0.19867,0.0564 0.19867,-0.28074 0.39734,1.90507 0.19867,-0.17844 0.19867,0.29801 0.19867,0.42243 0.19867,-0.72044 0.39734,-2.4441 0.0993,0.164 0.29801,1.46155 0.19867,0.23153 0.19867,0.29203 0.298,-1.1509 0.19867,1.03373 0.19867,1.01128 0.19867,0.12132 0.298,0.86373 0.49668,-1.40573 h 0.0993 l 0.29801,0.90903 0.0993,-0.0615 0.298,-0.96661 h 0.0993 l 0.39734,-0.8202 0.0993,0.23199 0.19867,0.94693 0.0993,-0.17992 0.19867,-0.65032 0.19866,0.17592 0.19867,-0.5246 0.0993,-0.23015 0.19867,0.0574 0.19867,-0.11462 0.49667,1.76868 0.0993,-0.12132 0.19867,-0.48028 0.298,0.48028 0.298,-0.30111 0.19867,-0.47537 h 0.0993 l 0.298,0.8978 0.0993,-0.24214 0.298,-1.52654 0.29801,1.52654 0.0993,-0.18029 0.19867,-0.53425 0.19867,0.0589 0.298,0.47537 0.29801,-0.71017 0.298,0.65032 0.29801,-0.53315 0.0993,0.11763 0.19867,-0.17627 0.298,0.59179 0.29801,-0.1788 0.19867,0.35872 0.19867,-0.17992 0.19867,-0.41552 0.0993,0.059 0.39734,1.57756 0.19867,0.0624 0.0993,-0.43415 0.29801,-4.70681 0.0993,0.74236 0.29801,4.71272 0.0993,-0.25157 0.19867,-0.86373 0.0993,-0.0607 0.19867,0.55114 0.19866,0.81501 0.0993,-0.25322 0.298,-2.2432 0.39734,1.13027 0.29801,-1.13027 0.19867,1.37393 0.19867,1.31386 0.0993,-0.25488 0.298,-1.36323 0.19867,-0.42068 0.29801,0.0597 0.298,0.84931 0.29801,-1.55803 0.298,1.31283 0.19867,-0.72343 0.49667,1.40278 0.0993,-0.0624 0.39734,-1.04112 0.19867,0.30236 0.19867,-0.36246 0.0993,0.0601 0.19867,0.36321 0.29801,-0.36321 0.0993,0.12057 0.298,1.29709 0.0993,-0.12606 0.298,-0.92839 0.0993,-0.0609 0.19867,0.42865 0.19867,1.06814 0.0993,-0.31825 0.19867,-1.17854 0.19867,0.30553 0.19867,-0.1226 0.19867,0.24572 h 0.0993 l 0.39734,-0.48938 0.19867,0.12158 0.19867,-0.18217 0.19867,0.54997 0.298,-0.30682 0.0993,-0.12183 0.0993,-0.8388 0.39734,-9.48836 0.19867,-7.79978 0.0993,-0.0651 0.0993,3.11922 v 0"
       style="fill:none;stroke:#ff8c00;stroke-width:0.8;stroke-linecap:square"
       id="path326" />
  </g>
  <g
     id="line2d_16">
    <path
       clip-path="url(#pf0273abcc9)"
       d="M 297.86744,229.95891 V 12.518906"
       style="fill:none;stroke:#4169e1;stroke-width:1.5;stroke-dasharray:5.55, 2.4;stroke-dashoffset:0"
       id="path329" />
  </g>
  <g
     id="patch_3">
    <path
       d="M 70.203438,229.95891 V 12.518906"
       style="fill:none;stroke:#000000;stroke-width:0.8;stroke-linecap:square;stroke-linejoin:miter"
       id="path332" />
  </g>
  <g
     id="patch_4">
    <path
       d="M 405.00344,229.95891 V 12.518906"
       style="fill:none;stroke:#000000;stroke-width:0.8;stroke-linecap:square;stroke-linejoin:miter"
       id="path335" />
  </g>
  <g
     id="patch_5">
    <path
       d="M 70.203438,229.95891 H 405.00344"
       style="fill:none;stroke:#000000;stroke-width:0.8;stroke-linecap:square;stroke-linejoin:miter"
       id="path338" />
  </g>
  <g
     id="patch_6">
    <path
       d="M 70.203438,12.518906 H 405.00344"
       style="fill:none;stroke:#000000;stroke-width:0.8;stroke-linecap:square;stroke-linejoin:miter"
       id="path341" />
  </g>
  <g
     id="legend_1"
     transform="translate(9,-7.5)">
    <g
       id="line2d_17">
      <path
         d="m 296.37906,28.237031 h 24"
         style="fill:none;stroke:#dc143c;stroke-width:1.5;stroke-linecap:square"
         id="path344" />
    </g>
    <g
       id="line2d_18" />
    <g
       id="text_16">
      <!-- incoherent -->
      <g
         transform="matrix(0.12,0,0,-0.12,329.97906,32.437031)"
         id="g374">
        <defs
           id="defs352">
          <path
             d="m 603,3500 h 575 V 0 H 603 Z m 0,1363 h 575 V 4134 H 603 Z"
             id="DejaVuSans-69"
             transform="scale(0.015625)" />
          <path
             d="m 1959,3097 q -462,0 -731,-361 -269,-361 -269,-989 0,-628 267,-989 268,-361 733,-361 460,0 728,362 269,363 269,988 0,622 -269,986 -268,364 -728,364 z m 0,487 q 750,0 1178,-488 429,-487 429,-1349 Q 3566,888 3137,398 2709,-91 1959,-91 1206,-91 779,398 353,888 353,1747 q 0,862 426,1349 427,488 1180,488 z"
             id="DejaVuSans-6f"
             transform="scale(0.015625)" />
          <path
             d="M 3513,2113 V 0 h -575 v 2094 q 0,497 -194,743 -194,247 -581,247 -466,0 -735,-297 -269,-296 -269,-809 V 0 H 581 v 4863 h 578 V 2956 q 207,316 486,472 280,156 646,156 603,0 912,-373 310,-373 310,-1098 z"
             id="DejaVuSans-68"
             transform="scale(0.015625)" />
          <path
             d="M 1172,4494 V 3500 H 2356 V 3053 H 1172 V 1153 q 0,-428 117,-550 117,-122 477,-122 h 590 V 0 H 1766 Q 1100,0 847,248 594,497 594,1153 V 3053 H 172 v 447 h 422 v 994 z"
             id="DejaVuSans-74"
             transform="scale(0.015625)" />
        </defs>
        <use
           xlink:href="#DejaVuSans-69"
           id="use354"
           x="0"
           y="0"
           width="100%"
           height="100%" />
        <use
           x="27.783203"
           xlink:href="#DejaVuSans-6e"
           id="use356"
           y="0"
           width="100%"
           height="100%" />
        <use
           x="91.162109"
           xlink:href="#DejaVuSans-63"
           id="use358"
           y="0"
           width="100%"
           height="100%" />
        <use
           x="146.14258"
           xlink:href="#DejaVuSans-6f"
           id="use360"
           y="0"
           width="100%"
           height="100%" />
        <use
           x="207.32422"
           xlink:href="#DejaVuSans-68"
           id="use362"
           y="0"
           width="100%"
           height="100%" />
        <use
           x="270.70312"
           xlink:href="#DejaVuSans-65"
           id="use364"
           y="0"
           width="100%"
           height="100%" />
        <use
           x="332.22656"
           xlink:href="#DejaVuSans-72"
           id="use366"
           y="0"
           width="100%"
           height="100%" />
        <use
           x="371.08984"
           xlink:href="#DejaVuSans-65"
           id="use368"
           y="0"
           width="100%"
           height="100%" />
        <use
           x="432.61328"
           xlink:href="#DejaVuSans-6e"
           id="use370"
           y="0"
           width="100%"
           height="100%" />
        <use
           x="495.99219"
           xlink:href="#DejaVuSans-74"
           id="use372"
           y="0"
           width="100%"
           height="100%" />
      </g>
    </g>
    <g
       id="line2d_19">
      <path
         d="m 296.37906,45.850781 h 24"
         style="fill:none;stroke:#ff8c00;stroke-width:1.5;stroke-linecap:square"
         id="path377" />
    </g>
    <g
       id="line2d_20" />
    <g
       id="text_17">
      <!-- coherent -->
      <g
         transform="matrix(0.12,0,0,-0.12,329.97906,50.050781)"
         id="g397">
        <use
           xlink:href="#DejaVuSans-63"
           id="use381"
           x="0"
           y="0"
           width="100%"
           height="100%" />
        <use
           x="54.980469"
           xlink:href="#DejaVuSans-6f"
           id="use383"
           y="0"
           width="100%"
           height="100%" />
        <use
           x="116.16211"
           xlink:href="#DejaVuSans-68"
           id="use385"
           y="0"
           width="100%"
           height="100%" />
        <use
           x="179.54102"
           xlink:href="#DejaVuSans-65"
           id="use387"
           y="0"
           width="100%"
           height="100%" />
        <use
           x="241.06445"
           xlink:href="#DejaVuSans-72"
           id="use389"
           y="0"
           width="100%"
           height="100%" />
        <use
           x="279.92773"
           xlink:href="#DejaVuSans-65"
           id="use391"
           y="0"
           width="100%"
           height="100%" />
        <use
           x="341.45117"
           xlink:href="#DejaVuSans-6e"
           id="use393"
           y="0"
           width="100%"
           height="100%" />
        <use
           x="404.83008"
           xlink:href="#DejaVuSans-74"
           id="use395"
           y="0"
           width="100%"
           height="100%" />
      </g>
    </g>
    <g
       id="line2d_21">
      <path
         d="m 296.37906,63.466406 h 24"
         style="fill:none;stroke:#4169e1;stroke-width:1.5;stroke-dasharray:5.55, 2.4;stroke-dashoffset:0"
         id="path400" />
    </g>
    <g
       id="line2d_22" />
    <g
       id="text_18">
      <!-- $2f_{\rho}$ -->
      <g
         transform="matrix(0.12,0,0,-0.12,329.97906,67.666406)"
         id="g414">
        <defs
           id="defs406">
          <path
             d="m 3059,4863 -90,-479 h -550 q -313,0 -455,-123 -142,-123 -211,-452 l -62,-309 h 947 l -85,-447 H 1606 L 1013,0 H 434 l 597,3053 H 481 l 82,447 h 550 l 46,244 q 119,619 417,869 299,250 940,250 z"
             id="DejaVuSans-Oblique-66"
             transform="scale(0.015625)" />
          <path
             d="m 1203,2875 q 250,319 778,600 207,109 775,109 638,0 938,-506 300,-506 140,-1331 Q 3672,922 3175,415 2678,-91 2041,-91 1656,-91 1409,63 1163,213 1044,525 L 681,-1331 H 103 l 594,3047 q 141,722 506,1159 z M 3238,1747 q 121,634 -69,997 -191,359 -647,359 -456,0 -788,-359 -331,-363 -453,-997 -125,-634 66,-997 191,-359 647,-359 456,0 787,359 332,363 457,997 z"
             id="DejaVuSans-Oblique-3c1"
             transform="scale(0.015625)" />
        </defs>
        <use
           transform="translate(0,0.015625)"
           xlink:href="#DejaVuSans-32"
           id="use408"
           x="0"
           y="0"
           width="100%"
           height="100%" />
        <use
           transform="translate(63.623047,0.015625)"
           xlink:href="#DejaVuSans-Oblique-66"
           id="use410"
           x="0"
           y="0"
           width="100%"
           height="100%" />
        <use
           transform="matrix(0.7,0,0,0.7,98.828125,-16.390625)"
           xlink:href="#DejaVuSans-Oblique-3c1"
           id="use412"
           x="0"
           y="0"
           width="100%"
           height="100%" />
      </g>
    </g>
  </g>
  <defs
     id="defs423">
    <clipPath
       id="pf0273abcc9">
      <rect
         height="217.44"
         width="334.8"
         x="70.203438"
         y="12.518906"
         id="rect420" />
    </clipPath>
  </defs>
</svg>
