<?xml version="1.0" encoding="utf-8" standalone="no"?>
<!DOCTYPE svg PUBLIC "-//W3C//DTD SVG 1.1//EN"
  "http://www.w3.org/Graphics/SVG/1.1/DTD/svg11.dtd">
<svg height="248.518125pt" version="1.1" viewBox="0 0 372.103125 248.518125" width="372.103125pt" xmlns="http://www.w3.org/2000/svg" xmlns:xlink="http://www.w3.org/1999/xlink">
 <metadata>
  <rdf:RDF xmlns:cc="http://creativecommons.org/ns#" xmlns:dc="http://purl.org/dc/elements/1.1/" xmlns:rdf="http://www.w3.org/1999/02/22-rdf-syntax-ns#">
   <cc:Work>
    <dc:type rdf:resource="http://purl.org/dc/dcmitype/StillImage"/>
    <dc:date>2022-03-30T10:14:04.058111</dc:date>
    <dc:format>image/svg+xml</dc:format>
    <dc:creator>
     <cc:Agent>
      <dc:title>Matplotlib v3.4.3, https://matplotlib.org/</dc:title>
     </cc:Agent>
    </dc:creator>
   </cc:Work>
  </rdf:RDF>
 </metadata>
 <defs>
  <style type="text/css">*{stroke-linecap:butt;stroke-linejoin:round;}</style>
 </defs>
 <g id="figure_1">
  <g id="patch_1">
   <path d="M 0 248.518125 
L 372.103125 248.518125 
L 372.103125 0 
L 0 0 
z
" style="fill:none;"/>
  </g>
  <g id="axes_1">
   <g id="patch_2">
    <path d="M 30.103125 224.64 
L 364.903125 224.64 
L 364.903125 7.2 
L 30.103125 7.2 
z
" style="fill:#ffffff;"/>
   </g>
   <g id="matplotlib.axis_1">
    <g id="xtick_1">
     <g id="line2d_1">
      <defs>
       <path d="M 0 0 
L 0 3.5 
" id="m0795318503" style="stroke:#000000;stroke-width:0.8;"/>
      </defs>
      <g>
       <use style="stroke:#000000;stroke-width:0.8;" x="68.679318" xlink:href="#m0795318503" y="224.64"/>
      </g>
     </g>
     <g id="text_1">
      <!-- −20 -->
      <g transform="translate(58.126974 239.238437)scale(0.1 -0.1)">
       <defs>
        <path d="M 678 2272 
L 4684 2272 
L 4684 1741 
L 678 1741 
L 678 2272 
z
" id="DejaVuSans-2212" transform="scale(0.015625)"/>
        <path d="M 1228 531 
L 3431 531 
L 3431 0 
L 469 0 
L 469 531 
Q 828 903 1448 1529 
Q 2069 2156 2228 2338 
Q 2531 2678 2651 2914 
Q 2772 3150 2772 3378 
Q 2772 3750 2511 3984 
Q 2250 4219 1831 4219 
Q 1534 4219 1204 4116 
Q 875 4013 500 3803 
L 500 4441 
Q 881 4594 1212 4672 
Q 1544 4750 1819 4750 
Q 2544 4750 2975 4387 
Q 3406 4025 3406 3419 
Q 3406 3131 3298 2873 
Q 3191 2616 2906 2266 
Q 2828 2175 2409 1742 
Q 1991 1309 1228 531 
z
" id="DejaVuSans-32" transform="scale(0.015625)"/>
        <path d="M 2034 4250 
Q 1547 4250 1301 3770 
Q 1056 3291 1056 2328 
Q 1056 1369 1301 889 
Q 1547 409 2034 409 
Q 2525 409 2770 889 
Q 3016 1369 3016 2328 
Q 3016 3291 2770 3770 
Q 2525 4250 2034 4250 
z
M 2034 4750 
Q 2819 4750 3233 4129 
Q 3647 3509 3647 2328 
Q 3647 1150 3233 529 
Q 2819 -91 2034 -91 
Q 1250 -91 836 529 
Q 422 1150 422 2328 
Q 422 3509 836 4129 
Q 1250 4750 2034 4750 
z
" id="DejaVuSans-30" transform="scale(0.015625)"/>
       </defs>
       <use xlink:href="#DejaVuSans-2212"/>
       <use x="83.789062" xlink:href="#DejaVuSans-32"/>
       <use x="147.412109" xlink:href="#DejaVuSans-30"/>
      </g>
     </g>
    </g>
    <g id="xtick_2">
     <g id="line2d_2">
      <g>
       <use style="stroke:#000000;stroke-width:0.8;" x="133.091221" xlink:href="#m0795318503" y="224.64"/>
      </g>
     </g>
     <g id="text_2">
      <!-- −10 -->
      <g transform="translate(122.538878 239.238437)scale(0.1 -0.1)">
       <defs>
        <path d="M 794 531 
L 1825 531 
L 1825 4091 
L 703 3866 
L 703 4441 
L 1819 4666 
L 2450 4666 
L 2450 531 
L 3481 531 
L 3481 0 
L 794 0 
L 794 531 
z
" id="DejaVuSans-31" transform="scale(0.015625)"/>
       </defs>
       <use xlink:href="#DejaVuSans-2212"/>
       <use x="83.789062" xlink:href="#DejaVuSans-31"/>
       <use x="147.412109" xlink:href="#DejaVuSans-30"/>
      </g>
     </g>
    </g>
    <g id="xtick_3">
     <g id="line2d_3">
      <g>
       <use style="stroke:#000000;stroke-width:0.8;" x="197.503125" xlink:href="#m0795318503" y="224.64"/>
      </g>
     </g>
     <g id="text_3">
      <!-- 0 -->
      <g transform="translate(194.321875 239.238437)scale(0.1 -0.1)">
       <use xlink:href="#DejaVuSans-30"/>
      </g>
     </g>
    </g>
    <g id="xtick_4">
     <g id="line2d_4">
      <g>
       <use style="stroke:#000000;stroke-width:0.8;" x="261.915029" xlink:href="#m0795318503" y="224.64"/>
      </g>
     </g>
     <g id="text_4">
      <!-- 10 -->
      <g transform="translate(255.552529 239.238437)scale(0.1 -0.1)">
       <use xlink:href="#DejaVuSans-31"/>
       <use x="63.623047" xlink:href="#DejaVuSans-30"/>
      </g>
     </g>
    </g>
    <g id="xtick_5">
     <g id="line2d_5">
      <g>
       <use style="stroke:#000000;stroke-width:0.8;" x="326.326932" xlink:href="#m0795318503" y="224.64"/>
      </g>
     </g>
     <g id="text_5">
      <!-- 20 -->
      <g transform="translate(319.964432 239.238437)scale(0.1 -0.1)">
       <use xlink:href="#DejaVuSans-32"/>
       <use x="63.623047" xlink:href="#DejaVuSans-30"/>
      </g>
     </g>
    </g>
   </g>
   <g id="matplotlib.axis_2">
    <g id="ytick_1">
     <g id="line2d_6">
      <defs>
       <path d="M 0 0 
L -3.5 0 
" id="m45aba70e96" style="stroke:#000000;stroke-width:0.8;"/>
      </defs>
      <g>
       <use style="stroke:#000000;stroke-width:0.8;" x="30.103125" xlink:href="#m45aba70e96" y="224.64"/>
      </g>
     </g>
     <g id="text_6">
      <!-- 0.0 -->
      <g transform="translate(7.2 228.439219)scale(0.1 -0.1)">
       <defs>
        <path d="M 684 794 
L 1344 794 
L 1344 0 
L 684 0 
L 684 794 
z
" id="DejaVuSans-2e" transform="scale(0.015625)"/>
       </defs>
       <use xlink:href="#DejaVuSans-30"/>
       <use x="63.623047" xlink:href="#DejaVuSans-2e"/>
       <use x="95.410156" xlink:href="#DejaVuSans-30"/>
      </g>
     </g>
    </g>
    <g id="ytick_2">
     <g id="line2d_7">
      <g>
       <use style="stroke:#000000;stroke-width:0.8;" x="30.103125" xlink:href="#m45aba70e96" y="185.105455"/>
      </g>
     </g>
     <g id="text_7">
      <!-- 0.2 -->
      <g transform="translate(7.2 188.904673)scale(0.1 -0.1)">
       <use xlink:href="#DejaVuSans-30"/>
       <use x="63.623047" xlink:href="#DejaVuSans-2e"/>
       <use x="95.410156" xlink:href="#DejaVuSans-32"/>
      </g>
     </g>
    </g>
    <g id="ytick_3">
     <g id="line2d_8">
      <g>
       <use style="stroke:#000000;stroke-width:0.8;" x="30.103125" xlink:href="#m45aba70e96" y="145.570909"/>
      </g>
     </g>
     <g id="text_8">
      <!-- 0.4 -->
      <g transform="translate(7.2 149.370128)scale(0.1 -0.1)">
       <defs>
        <path d="M 2419 4116 
L 825 1625 
L 2419 1625 
L 2419 4116 
z
M 2253 4666 
L 3047 4666 
L 3047 1625 
L 3713 1625 
L 3713 1100 
L 3047 1100 
L 3047 0 
L 2419 0 
L 2419 1100 
L 313 1100 
L 313 1709 
L 2253 4666 
z
" id="DejaVuSans-34" transform="scale(0.015625)"/>
       </defs>
       <use xlink:href="#DejaVuSans-30"/>
       <use x="63.623047" xlink:href="#DejaVuSans-2e"/>
       <use x="95.410156" xlink:href="#DejaVuSans-34"/>
      </g>
     </g>
    </g>
    <g id="ytick_4">
     <g id="line2d_9">
      <g>
       <use style="stroke:#000000;stroke-width:0.8;" x="30.103125" xlink:href="#m45aba70e96" y="106.036364"/>
      </g>
     </g>
     <g id="text_9">
      <!-- 0.6 -->
      <g transform="translate(7.2 109.835582)scale(0.1 -0.1)">
       <defs>
        <path d="M 2113 2584 
Q 1688 2584 1439 2293 
Q 1191 2003 1191 1497 
Q 1191 994 1439 701 
Q 1688 409 2113 409 
Q 2538 409 2786 701 
Q 3034 994 3034 1497 
Q 3034 2003 2786 2293 
Q 2538 2584 2113 2584 
z
M 3366 4563 
L 3366 3988 
Q 3128 4100 2886 4159 
Q 2644 4219 2406 4219 
Q 1781 4219 1451 3797 
Q 1122 3375 1075 2522 
Q 1259 2794 1537 2939 
Q 1816 3084 2150 3084 
Q 2853 3084 3261 2657 
Q 3669 2231 3669 1497 
Q 3669 778 3244 343 
Q 2819 -91 2113 -91 
Q 1303 -91 875 529 
Q 447 1150 447 2328 
Q 447 3434 972 4092 
Q 1497 4750 2381 4750 
Q 2619 4750 2861 4703 
Q 3103 4656 3366 4563 
z
" id="DejaVuSans-36" transform="scale(0.015625)"/>
       </defs>
       <use xlink:href="#DejaVuSans-30"/>
       <use x="63.623047" xlink:href="#DejaVuSans-2e"/>
       <use x="95.410156" xlink:href="#DejaVuSans-36"/>
      </g>
     </g>
    </g>
    <g id="ytick_5">
     <g id="line2d_10">
      <g>
       <use style="stroke:#000000;stroke-width:0.8;" x="30.103125" xlink:href="#m45aba70e96" y="66.501818"/>
      </g>
     </g>
     <g id="text_10">
      <!-- 0.8 -->
      <g transform="translate(7.2 70.301037)scale(0.1 -0.1)">
       <defs>
        <path d="M 2034 2216 
Q 1584 2216 1326 1975 
Q 1069 1734 1069 1313 
Q 1069 891 1326 650 
Q 1584 409 2034 409 
Q 2484 409 2743 651 
Q 3003 894 3003 1313 
Q 3003 1734 2745 1975 
Q 2488 2216 2034 2216 
z
M 1403 2484 
Q 997 2584 770 2862 
Q 544 3141 544 3541 
Q 544 4100 942 4425 
Q 1341 4750 2034 4750 
Q 2731 4750 3128 4425 
Q 3525 4100 3525 3541 
Q 3525 3141 3298 2862 
Q 3072 2584 2669 2484 
Q 3125 2378 3379 2068 
Q 3634 1759 3634 1313 
Q 3634 634 3220 271 
Q 2806 -91 2034 -91 
Q 1263 -91 848 271 
Q 434 634 434 1313 
Q 434 1759 690 2068 
Q 947 2378 1403 2484 
z
M 1172 3481 
Q 1172 3119 1398 2916 
Q 1625 2713 2034 2713 
Q 2441 2713 2670 2916 
Q 2900 3119 2900 3481 
Q 2900 3844 2670 4047 
Q 2441 4250 2034 4250 
Q 1625 4250 1398 4047 
Q 1172 3844 1172 3481 
z
" id="DejaVuSans-38" transform="scale(0.015625)"/>
       </defs>
       <use xlink:href="#DejaVuSans-30"/>
       <use x="63.623047" xlink:href="#DejaVuSans-2e"/>
       <use x="95.410156" xlink:href="#DejaVuSans-38"/>
      </g>
     </g>
    </g>
    <g id="ytick_6">
     <g id="line2d_11">
      <g>
       <use style="stroke:#000000;stroke-width:0.8;" x="30.103125" xlink:href="#m45aba70e96" y="26.967273"/>
      </g>
     </g>
     <g id="text_11">
      <!-- 1.0 -->
      <g transform="translate(7.2 30.766491)scale(0.1 -0.1)">
       <use xlink:href="#DejaVuSans-31"/>
       <use x="63.623047" xlink:href="#DejaVuSans-2e"/>
       <use x="95.410156" xlink:href="#DejaVuSans-30"/>
      </g>
     </g>
    </g>
   </g>
   <g id="line2d_12">
    <path clip-path="url(#p82edb2a9a9)" d="M 45.321307 26.967273 
L 49.586663 85.294853 
L 50.805336 98.786312 
L 52.02401 109.65 
L 52.938014 115.860206 
L 53.852019 120.321283 
L 54.461356 122.30994 
L 55.070693 123.513946 
L 55.375361 123.825389 
L 55.680029 123.946188 
L 55.984697 123.879364 
L 56.289366 123.628558 
L 56.898702 122.592957 
L 57.508039 120.882882 
L 58.117376 118.555485 
L 59.031381 114.071762 
L 60.250054 106.772597 
L 62.382732 93.558232 
L 63.296737 89.2924 
L 63.906073 87.407444 
L 64.210742 86.824335 
L 64.51541 86.510149 
L 64.820078 86.484876 
L 65.124747 86.766484 
L 65.429415 87.370594 
L 66.038752 89.595204 
L 66.648088 93.225416 
L 67.257425 98.273233 
L 68.17143 108.381684 
L 69.085435 121.139748 
L 70.608776 146.287206 
L 72.741454 182.099049 
L 73.960127 198.822873 
L 74.874132 208.471967 
L 75.788137 215.472827 
L 76.397474 218.761889 
L 77.006811 221.094656 
L 77.616147 222.638914 
L 78.225484 223.579081 
L 78.83482 224.095047 
L 79.444157 224.3412 
L 80.358162 224.429506 
L 81.272167 224.257322 
L 81.881503 223.895762 
L 82.49084 223.167481 
L 83.100177 221.865916 
L 83.709513 219.749868 
L 84.31885 216.567279 
L 84.928186 212.082154 
L 85.537523 206.102333 
L 86.451528 194.08744 
L 87.365533 178.448812 
L 88.584206 153.003047 
L 91.326221 92.834685 
L 92.240226 78.384702 
L 92.849562 71.786716 
L 93.458899 68.012973 
L 93.763567 67.250466 
L 94.068236 67.254185 
L 94.372904 68.024809 
L 94.677572 69.553513 
L 95.286909 74.803405 
L 95.896245 82.752736 
L 96.81025 98.883114 
L 98.028924 125.54992 
L 100.161602 173.689476 
L 101.075607 190.654396 
L 101.989611 204.001192 
L 102.903616 213.524558 
L 103.512953 217.894131 
L 104.12229 220.904584 
L 104.731626 222.809318 
L 105.340963 223.884385 
L 105.950299 224.399206 
L 106.559636 224.589365 
L 107.778309 224.63725 
L 108.996982 224.524913 
L 109.606319 224.20471 
L 110.215656 223.455597 
L 110.824992 222.027561 
L 111.434329 219.651228 
L 112.043666 216.065399 
L 112.653002 211.045058 
L 113.262339 204.427612 
L 114.176344 191.3641 
L 115.090349 174.731425 
L 116.309022 148.355529 
L 118.746368 94.336924 
L 119.660373 79.165162 
L 120.26971 71.938537 
L 120.879046 67.432984 
L 121.183715 66.273479 
L 121.488383 65.864909 
L 121.793051 66.2128 
L 122.09772 67.31369 
L 122.402388 69.155168 
L 123.011725 74.966729 
L 123.621061 83.379629 
L 124.535066 100.007609 
L 126.058408 134.125862 
L 127.886417 174.997682 
L 128.800422 191.760209 
L 129.714427 204.87174 
L 130.628432 214.15482 
L 131.237769 218.373056 
L 131.847105 221.246515 
L 132.456442 223.034022 
L 133.065779 224.015874 
L 133.675115 224.463856 
L 134.284452 224.613271 
L 136.112462 224.625738 
L 136.721798 224.520343 
L 137.331135 224.166922 
L 137.940471 223.344583 
L 138.549808 221.790686 
L 139.159145 219.228018 
L 139.768481 215.394427 
L 140.377818 210.072372 
L 140.987154 203.115875 
L 141.901159 189.531447 
L 142.815164 172.46667 
L 144.338506 138.880802 
L 146.166516 99.051714 
L 147.080521 83.57104 
L 147.689857 76.004461 
L 148.299194 71.050754 
L 148.603862 69.627122 
L 148.90853 68.928476 
L 149.213199 68.961278 
L 149.517867 69.723355 
L 149.822535 71.20397 
L 150.431872 76.236468 
L 151.041209 83.812956 
L 151.955213 99.143863 
L 153.173887 124.511823 
L 155.611233 176.766378 
L 156.525238 192.481402 
L 157.439243 204.806619 
L 158.353248 213.636673 
L 158.962584 217.734628 
L 159.571921 220.60845 
L 160.181258 222.483293 
L 160.790594 223.600241 
L 161.399931 224.191983 
L 162.009268 224.460326 
L 162.923272 224.571617 
L 163.837277 224.516551 
L 164.446614 224.337286 
L 165.055951 223.906675 
L 165.665287 223.041517 
L 166.274624 221.518544 
L 166.88396 219.095663 
L 167.493297 215.53591 
L 168.102634 210.632308 
L 168.71197 204.231732 
L 169.625975 191.67741 
L 170.53998 175.731828 
L 171.758653 150.394988 
L 174.196 97.887188 
L 175.110005 82.817841 
L 175.719341 75.49074 
L 176.328678 70.757541 
L 176.633346 69.441252 
L 176.938014 68.85067 
L 177.242683 68.994333 
L 177.547351 69.872072 
L 177.852019 71.474984 
L 178.461356 76.777813 
L 179.070693 84.664526 
L 179.984697 100.532009 
L 181.203371 126.675849 
L 183.640717 179.915124 
L 184.554722 195.558683 
L 185.468727 207.540816 
L 186.078064 213.452056 
L 186.6874 217.821585 
L 187.296737 220.842965 
L 187.906073 222.763076 
L 188.51541 223.853477 
L 189.124747 224.381012 
L 189.734083 224.580156 
L 190.952756 224.633822 
L 192.17143 224.507996 
L 192.780766 224.170654 
L 193.390103 223.395043 
L 193.999439 221.929759 
L 194.608776 219.50528 
L 195.218113 215.862216 
L 195.827449 210.779835 
L 196.436786 204.102474 
L 197.350791 190.973886 
L 198.264796 174.339222 
L 199.788137 141.160118 
L 201.616147 100.865306 
L 202.530152 84.699837 
L 203.139489 76.538162 
L 203.748825 70.913014 
L 204.053494 69.136898 
L 204.358162 68.081668 
L 204.66283 67.759374 
L 204.967498 68.173516 
L 205.272167 69.318995 
L 205.576835 71.182203 
L 206.186172 76.966281 
L 206.795508 85.258276 
L 207.709513 101.550459 
L 209.232855 134.858769 
L 211.060865 174.824943 
L 211.974869 191.323336 
L 212.888874 204.33067 
L 213.802879 213.648361 
L 214.412216 217.943168 
L 215.021553 220.915067 
L 215.630889 222.804981 
L 216.240226 223.878052 
L 216.849562 224.395656 
L 217.458899 224.588687 
L 218.677572 224.637998 
L 219.896245 224.525771 
L 220.505582 224.203948 
L 221.114919 223.446826 
L 221.724255 221.996873 
L 222.333592 219.575078 
L 222.942928 215.909933 
L 223.552265 210.767419 
L 224.161602 203.979453 
L 225.075607 190.571637 
L 225.989611 173.519023 
L 227.512953 139.44807 
L 229.340963 98.301109 
L 230.254968 82.065693 
L 230.864304 74.048019 
L 231.473641 68.728993 
L 231.778309 67.164877 
L 232.082978 66.35808 
L 232.387646 66.317375 
L 232.692314 67.042131 
L 232.996982 68.522358 
L 233.606319 73.66374 
L 234.215656 81.485422 
L 235.129661 97.388745 
L 236.348334 123.721485 
L 238.78568 177.503797 
L 239.699685 193.414845 
L 240.61369 205.725132 
L 241.527695 214.390016 
L 242.137032 218.334493 
L 242.746368 221.048428 
L 243.355705 222.777208 
L 243.965041 223.77597 
L 244.574378 224.283947 
L 245.183715 224.501752 
L 246.09772 224.580505 
L 247.011725 224.502784 
L 247.621061 224.288384 
L 248.230398 223.792192 
L 248.839734 222.824638 
L 249.449071 221.163217 
L 250.058408 218.57431 
L 250.667744 214.836602 
L 251.277081 209.764365 
L 251.886417 203.228858 
L 252.800422 190.588137 
L 253.714427 174.752594 
L 255.237769 143.315301 
L 257.370447 99.157541 
L 258.284452 84.688742 
L 258.893788 77.651494 
L 259.503125 73.090647 
L 259.807793 71.811764 
L 260.112462 71.225001 
L 260.41713 71.339027 
L 260.721798 72.154557 
L 261.026467 73.664289 
L 261.635803 78.697579 
L 262.24514 86.225671 
L 263.159145 101.459175 
L 264.377818 126.763111 
L 266.815164 179.120711 
L 267.729169 194.78233 
L 268.643174 206.911344 
L 269.252511 212.956671 
L 269.861847 217.464737 
L 270.471184 220.611873 
L 271.080521 222.633119 
L 271.689857 223.794489 
L 272.299194 224.363503 
L 272.90853 224.580548 
L 274.127204 224.638506 
L 275.345877 224.541504 
L 275.955213 224.24302 
L 276.56455 223.522078 
L 277.173887 222.121174 
L 277.783223 219.761146 
L 278.39256 216.171076 
L 279.001896 211.118836 
L 279.611233 204.439553 
L 280.525238 191.23792 
L 281.439243 174.452207 
L 282.962584 140.943168 
L 284.790594 100.420835 
L 285.704599 84.300923 
L 286.313936 76.230271 
L 286.923272 70.732806 
L 287.227941 69.029313 
L 287.532609 68.049398 
L 287.837277 67.802549 
L 288.141946 68.289652 
L 288.446614 69.503028 
L 289.055951 74.036263 
L 289.665287 81.179452 
L 290.579292 96.027918 
L 291.797965 121.139083 
L 294.53998 180.012034 
L 295.453985 195.283852 
L 296.36799 207.072026 
L 297.281995 215.337641 
L 297.891331 219.072522 
L 298.500668 221.610798 
L 299.110005 223.189888 
L 299.719341 224.060959 
L 300.328678 224.464128 
L 301.242683 224.627171 
L 302.766024 224.608162 
L 303.375361 224.472937 
L 303.984697 224.072802 
L 304.594034 223.185742 
L 305.203371 221.543696 
L 305.812707 218.857031 
L 306.422044 214.842954 
L 307.031381 209.255815 
L 307.640717 201.916929 
L 308.554722 187.469408 
L 309.468727 169.130353 
L 310.992068 132.579061 
L 312.820078 88.952388 
L 313.734083 72.287264 
L 314.34342 64.45669 
L 314.952756 59.762008 
L 315.257425 58.680981 
L 315.562093 58.47069 
L 315.866761 59.136616 
L 316.17143 60.672447 
L 316.780766 66.270071 
L 317.390103 74.98425 
L 318.304108 92.893445 
L 319.522781 122.556355 
L 321.655459 175.015043 
L 322.569464 192.758516 
L 323.483469 206.186263 
L 324.092806 212.704327 
L 324.702142 217.443173 
L 325.311479 220.657044 
L 325.920815 222.657477 
L 326.530152 223.773071 
L 327.139489 224.310918 
L 327.748825 224.523539 
L 328.66283 224.587107 
L 329.576835 224.480299 
L 330.186172 224.202099 
L 330.795508 223.573849 
L 331.404845 222.388115 
L 332.014182 220.425642 
L 332.623518 217.485082 
L 333.232855 213.409731 
L 333.842191 208.108501 
L 334.756196 197.854174 
L 335.974869 180.461685 
L 340.544894 109.441565 
L 341.458899 99.633428 
L 342.372904 91.862692 
L 343.286909 85.808087 
L 344.505582 79.526209 
L 346.942928 67.921049 
L 347.856933 62.342422 
L 348.770938 55.568636 
L 349.684943 47.473661 
L 349.684943 47.473661 
" style="fill:none;stroke:#0000ff;stroke-linecap:square;stroke-width:1.5;"/>
   </g>
   <g id="line2d_13">
    <path clip-path="url(#p82edb2a9a9)" d="M 45.321307 81.257256 
L 47.149317 102.032 
L 48.36799 113.796939 
L 49.586663 123.227133 
L 50.500668 128.54784 
L 51.110005 131.206423 
L 51.719341 133.133194 
L 52.328678 134.316927 
L 52.633346 134.627938 
L 52.938014 134.751029 
L 53.242683 134.685971 
L 53.547351 134.432755 
L 54.156688 133.362942 
L 54.766024 131.546308 
L 55.375361 128.992296 
L 56.289366 123.814673 
L 57.203371 117.101682 
L 58.422044 106.015469 
L 59.945385 89.502779 
L 63.601405 47.839613 
L 64.51541 39.608744 
L 65.429415 33.186837 
L 66.038752 30.087938 
L 66.648088 28.025185 
L 66.952756 27.398031 
L 67.257425 27.045025 
L 67.562093 26.967273 
L 67.866761 27.163942 
L 68.17143 27.632261 
L 68.780766 29.363236 
L 69.390103 32.100677 
L 70.304108 37.897153 
L 71.218113 45.367369 
L 72.741454 60.224907 
L 75.483469 87.745465 
L 76.702142 97.68689 
L 77.616147 103.534577 
L 78.530152 107.777175 
L 79.139489 109.648632 
L 79.748825 110.726911 
L 80.053494 110.964677 
L 80.358162 111.000723 
L 80.66283 110.835234 
L 80.967498 110.469016 
L 81.576835 109.140796 
L 82.186172 107.03546 
L 82.795508 104.183558 
L 83.709513 98.603086 
L 84.623518 91.644047 
L 85.842191 80.708692 
L 89.802879 43.17136 
L 90.716884 36.802944 
L 91.630889 32.151643 
L 92.240226 30.129866 
L 92.849562 29.02191 
L 93.154231 28.81567 
L 93.458899 28.840522 
L 93.763567 29.093811 
L 94.068236 29.571257 
L 94.677572 31.173808 
L 95.286909 33.584446 
L 96.200914 38.527785 
L 97.419587 47.043266 
L 99.247597 62.025573 
L 101.380275 79.230819 
L 102.598948 87.536011 
L 103.512953 92.668512 
L 104.426958 96.72818 
L 105.340963 99.648969 
L 105.950299 100.949363 
L 106.559636 101.732169 
L 107.168973 102.003474 
L 107.473641 101.950516 
L 108.082978 101.476099 
L 108.692314 100.524773 
L 109.301651 99.117009 
L 110.215656 96.202864 
L 111.129661 92.411845 
L 112.348334 86.191987 
L 113.871675 77.008436 
L 118.4417 48.17967 
L 119.355705 43.829861 
L 120.26971 40.462468 
L 120.879046 38.855161 
L 121.488383 37.811054 
L 122.09772 37.364635 
L 122.402388 37.373207 
L 122.707056 37.538804 
L 123.316393 38.343529 
L 123.925729 39.774863 
L 124.535066 41.814387 
L 125.449071 45.938113 
L 126.363076 51.183546 
L 127.581749 59.515608 
L 132.151774 92.79127 
L 133.065779 97.676648 
L 133.979783 101.429885 
L 134.58912 103.229511 
L 135.198457 104.428938 
L 135.807793 105.005463 
L 136.112462 105.055429 
L 136.41713 104.945106 
L 136.721798 104.674109 
L 137.331135 103.651322 
L 137.940471 101.995256 
L 138.549808 99.72361 
L 139.463813 95.225712 
L 140.377818 89.547865 
L 141.596491 80.493497 
L 143.729169 62.462162 
L 145.557179 47.709193 
L 146.775852 39.82495 
L 147.689857 35.49746 
L 148.299194 33.506826 
L 148.90853 32.289756 
L 149.213199 31.980592 
L 149.517867 31.873334 
L 149.822535 31.968066 
L 150.127204 32.263555 
L 150.73654 33.445423 
L 151.345877 35.383848 
L 151.955213 38.025307 
L 152.869218 43.149517 
L 154.087892 51.688456 
L 155.915901 66.517114 
L 158.04858 83.620025 
L 159.267253 91.936997 
L 160.181258 97.072934 
L 161.095263 101.087763 
L 161.704599 103.084014 
L 162.313936 104.506871 
L 162.923272 105.33909 
L 163.227941 105.530077 
L 163.532609 105.569818 
L 163.837277 105.457913 
L 164.141946 105.194348 
L 164.751282 104.214117 
L 165.360619 102.636947 
L 165.969955 100.477531 
L 166.88396 96.197632 
L 167.797965 90.771013 
L 169.016639 82.03587 
L 170.844648 66.856762 
L 173.281995 46.747127 
L 174.500668 38.73466 
L 175.414673 34.312032 
L 176.02401 32.276765 
L 176.633346 31.042902 
L 176.938014 30.739117 
L 177.242683 30.648042 
L 177.547351 30.770825 
L 177.852019 31.107133 
L 178.461356 32.411587 
L 179.070693 34.529395 
L 179.680029 37.406245 
L 180.594034 42.976806 
L 181.812707 52.229494 
L 184.250054 73.487996 
L 185.773395 85.952571 
L 186.992068 94.233068 
L 187.906073 99.101618 
L 188.820078 102.654037 
L 189.429415 104.246121 
L 190.038752 105.200769 
L 190.34342 105.437576 
L 190.648088 105.514345 
L 190.952756 105.431963 
L 191.257425 105.191826 
L 191.866761 104.246381 
L 192.476098 102.699159 
L 193.085435 100.579251 
L 193.999439 96.408944 
L 194.913444 91.194664 
L 196.132118 82.968604 
L 198.569464 64.407105 
L 200.397474 51.328109 
L 201.616147 44.266896 
L 202.530152 40.237517 
L 203.139489 38.252049 
L 203.748825 36.869672 
L 204.358162 36.112905 
L 204.66283 35.972705 
L 204.967498 35.99162 
L 205.272167 36.168917 
L 205.881503 36.991917 
L 206.49084 38.420863 
L 207.100177 40.423705 
L 208.014182 44.408955 
L 208.928186 49.408202 
L 210.14686 57.27354 
L 215.326221 92.766287 
L 216.240226 97.266171 
L 217.154231 100.747786 
L 217.763567 102.438082 
L 218.372904 103.587245 
L 218.98224 104.171067 
L 219.286909 104.245167 
L 219.591577 104.171793 
L 219.896245 103.949784 
L 220.505582 103.057474 
L 221.114919 101.568287 
L 221.724255 99.490519 
L 222.63826 95.311121 
L 223.552265 89.95138 
L 224.770938 81.255126 
L 226.598948 66.087812 
L 228.731626 48.422927 
L 229.950299 40.151417 
L 230.864304 35.491847 
L 231.473641 33.2849 
L 232.082978 31.870763 
L 232.387646 31.473925 
L 232.692314 31.287907 
L 232.996982 31.313842 
L 233.301651 31.551353 
L 233.606319 31.998563 
L 234.215656 33.507239 
L 234.824992 35.796208 
L 235.738997 40.546763 
L 236.653002 46.614466 
L 238.176344 58.682329 
L 241.223027 83.844842 
L 242.4417 92.143426 
L 243.355705 97.187284 
L 244.26971 101.061531 
L 244.879046 102.948606 
L 245.488383 104.259101 
L 246.09772 104.984041 
L 246.402388 105.125887 
L 246.707056 105.120837 
L 247.011725 104.969472 
L 247.621061 104.231827 
L 248.230398 102.924369 
L 248.839734 101.063964 
L 249.753739 97.287542 
L 250.667744 92.421368 
L 251.886417 84.480018 
L 253.409759 72.847679 
L 256.76111 46.319791 
L 257.979783 38.720261 
L 258.893788 34.494651 
L 259.503125 32.530911 
L 260.112462 31.323234 
L 260.41713 31.017431 
L 260.721798 30.915716 
L 261.026467 31.020562 
L 261.331135 31.333121 
L 261.940471 32.579187 
L 262.549808 34.635695 
L 263.159145 37.462415 
L 264.07315 43.007008 
L 265.291823 52.367529 
L 267.119833 68.784959 
L 269.252511 87.543451 
L 270.471184 96.32078 
L 271.385189 101.452634 
L 272.299194 105.124926 
L 272.90853 106.698978 
L 273.517867 107.54723 
L 273.822535 107.695699 
L 274.127204 107.659938 
L 274.431872 107.440467 
L 275.041209 106.455953 
L 275.650545 104.760326 
L 276.259882 102.38338 
L 277.173887 97.635753 
L 278.087892 91.648205 
L 279.306565 82.196814 
L 283.267253 49.747352 
L 284.181258 44.164231 
L 285.095263 39.960236 
L 285.704599 38.009763 
L 286.313936 36.771175 
L 286.618604 36.420404 
L 286.923272 36.246976 
L 287.227941 36.248157 
L 287.532609 36.42011 
L 288.141946 37.255947 
L 288.751282 38.704938 
L 289.360619 40.705716 
L 290.274624 44.587129 
L 291.493297 51.006437 
L 293.625975 63.994905 
L 296.063322 78.677703 
L 297.586663 86.602473 
L 298.805336 91.877087 
L 299.719341 95.08786 
L 300.633346 97.574576 
L 301.242683 98.791542 
L 301.852019 99.628317 
L 302.461356 100.061293 
L 303.070693 100.067448 
L 303.680029 99.625148 
L 304.289366 98.715181 
L 304.898702 97.322007 
L 305.508039 95.435205 
L 306.422044 91.673711 
L 307.336049 86.820789 
L 308.554722 78.804782 
L 310.078064 66.89523 
L 313.124747 42.403628 
L 314.038752 36.721086 
L 314.952756 32.585622 
L 315.562093 30.861347 
L 315.866761 30.338295 
L 316.17143 30.050211 
L 316.476098 30.001331 
L 316.780766 30.19383 
L 317.085435 30.627763 
L 317.694771 32.209442 
L 318.304108 34.70425 
L 319.218113 39.987726 
L 320.132118 46.783997 
L 321.655459 60.167687 
L 324.092806 81.648882 
L 325.311479 90.248153 
L 326.225484 95.232393 
L 327.139489 98.848216 
L 327.748825 100.503569 
L 328.358162 101.588337 
L 328.967498 102.152785 
L 329.576835 102.264665 
L 330.186172 102.007427 
L 330.795508 101.477928 
L 333.232855 98.856142 
L 333.842191 98.63667 
L 334.451528 98.788933 
L 335.060865 99.382021 
L 335.670201 100.460133 
L 336.279538 102.039275 
L 337.193543 105.309121 
L 338.107548 109.499522 
L 339.935557 119.363778 
L 341.458899 127.120811 
L 342.372904 130.682625 
L 342.98224 132.364903 
L 343.591577 133.380435 
L 343.896245 133.611806 
L 344.200914 133.646412 
L 344.505582 133.475843 
L 344.81025 133.092466 
L 345.419587 131.660692 
L 346.028924 129.306186 
L 346.63826 125.998427 
L 347.552265 119.224705 
L 348.46627 110.321996 
L 349.684943 95.460582 
L 349.684943 95.460582 
" style="fill:none;stroke:#ff0000;stroke-linecap:square;stroke-width:1.5;"/>
   </g>
   <g id="patch_3">
    <path d="M 30.103125 224.64 
L 30.103125 7.2 
" style="fill:none;stroke:#000000;stroke-linecap:square;stroke-linejoin:miter;stroke-width:0.8;"/>
   </g>
   <g id="patch_4">
    <path d="M 364.903125 224.64 
L 364.903125 7.2 
" style="fill:none;stroke:#000000;stroke-linecap:square;stroke-linejoin:miter;stroke-width:0.8;"/>
   </g>
   <g id="patch_5">
    <path d="M 30.103125 224.64 
L 364.903125 224.64 
" style="fill:none;stroke:#000000;stroke-linecap:square;stroke-linejoin:miter;stroke-width:0.8;"/>
   </g>
   <g id="patch_6">
    <path d="M 30.103125 7.2 
L 364.903125 7.2 
" style="fill:none;stroke:#000000;stroke-linecap:square;stroke-linejoin:miter;stroke-width:0.8;"/>
   </g>
  </g>
 </g>
 <defs>
  <clipPath id="p82edb2a9a9">
   <rect height="217.44" width="334.8" x="30.103125" y="7.2"/>
  </clipPath>
 </defs>
</svg>
