<?xml version="1.0" encoding="utf-8" standalone="no"?>
<!DOCTYPE svg PUBLIC "-//W3C//DTD SVG 1.1//EN"
  "http://www.w3.org/Graphics/SVG/1.1/DTD/svg11.dtd">
<svg height="248.518125pt" version="1.1" viewBox="0 0 372.103125 248.518125" width="372.103125pt" xmlns="http://www.w3.org/2000/svg" xmlns:xlink="http://www.w3.org/1999/xlink">
 <metadata>
  <rdf:RDF xmlns:cc="http://creativecommons.org/ns#" xmlns:dc="http://purl.org/dc/elements/1.1/" xmlns:rdf="http://www.w3.org/1999/02/22-rdf-syntax-ns#">
   <cc:Work>
    <dc:type rdf:resource="http://purl.org/dc/dcmitype/StillImage"/>
    <dc:date>2022-03-30T09:59:06.884580</dc:date>
    <dc:format>image/svg+xml</dc:format>
    <dc:creator>
     <cc:Agent>
      <dc:title>Matplotlib v3.4.3, https://matplotlib.org/</dc:title>
     </cc:Agent>
    </dc:creator>
   </cc:Work>
  </rdf:RDF>
 </metadata>
 <defs>
  <style type="text/css">*{stroke-linecap:butt;stroke-linejoin:round;}</style>
 </defs>
 <g id="figure_1">
  <g id="patch_1">
   <path d="M 0 248.518125 
L 372.103125 248.518125 
L 372.103125 0 
L 0 0 
z
" style="fill:none;"/>
  </g>
  <g id="axes_1">
   <g id="patch_2">
    <path d="M 30.103125 224.64 
L 364.903125 224.64 
L 364.903125 7.2 
L 30.103125 7.2 
z
" style="fill:#ffffff;"/>
   </g>
   <g id="matplotlib.axis_1">
    <g id="xtick_1">
     <g id="line2d_1">
      <defs>
       <path d="M 0 0 
L 0 3.5 
" id="ma08717f2ee" style="stroke:#000000;stroke-width:0.8;"/>
      </defs>
      <g>
       <use style="stroke:#000000;stroke-width:0.8;" x="68.679318" xlink:href="#ma08717f2ee" y="224.64"/>
      </g>
     </g>
     <g id="text_1">
      <!-- −20 -->
      <g transform="translate(58.126974 239.238437)scale(0.1 -0.1)">
       <defs>
        <path d="M 678 2272 
L 4684 2272 
L 4684 1741 
L 678 1741 
L 678 2272 
z
" id="DejaVuSans-2212" transform="scale(0.015625)"/>
        <path d="M 1228 531 
L 3431 531 
L 3431 0 
L 469 0 
L 469 531 
Q 828 903 1448 1529 
Q 2069 2156 2228 2338 
Q 2531 2678 2651 2914 
Q 2772 3150 2772 3378 
Q 2772 3750 2511 3984 
Q 2250 4219 1831 4219 
Q 1534 4219 1204 4116 
Q 875 4013 500 3803 
L 500 4441 
Q 881 4594 1212 4672 
Q 1544 4750 1819 4750 
Q 2544 4750 2975 4387 
Q 3406 4025 3406 3419 
Q 3406 3131 3298 2873 
Q 3191 2616 2906 2266 
Q 2828 2175 2409 1742 
Q 1991 1309 1228 531 
z
" id="DejaVuSans-32" transform="scale(0.015625)"/>
        <path d="M 2034 4250 
Q 1547 4250 1301 3770 
Q 1056 3291 1056 2328 
Q 1056 1369 1301 889 
Q 1547 409 2034 409 
Q 2525 409 2770 889 
Q 3016 1369 3016 2328 
Q 3016 3291 2770 3770 
Q 2525 4250 2034 4250 
z
M 2034 4750 
Q 2819 4750 3233 4129 
Q 3647 3509 3647 2328 
Q 3647 1150 3233 529 
Q 2819 -91 2034 -91 
Q 1250 -91 836 529 
Q 422 1150 422 2328 
Q 422 3509 836 4129 
Q 1250 4750 2034 4750 
z
" id="DejaVuSans-30" transform="scale(0.015625)"/>
       </defs>
       <use xlink:href="#DejaVuSans-2212"/>
       <use x="83.789062" xlink:href="#DejaVuSans-32"/>
       <use x="147.412109" xlink:href="#DejaVuSans-30"/>
      </g>
     </g>
    </g>
    <g id="xtick_2">
     <g id="line2d_2">
      <g>
       <use style="stroke:#000000;stroke-width:0.8;" x="133.091221" xlink:href="#ma08717f2ee" y="224.64"/>
      </g>
     </g>
     <g id="text_2">
      <!-- −10 -->
      <g transform="translate(122.538878 239.238437)scale(0.1 -0.1)">
       <defs>
        <path d="M 794 531 
L 1825 531 
L 1825 4091 
L 703 3866 
L 703 4441 
L 1819 4666 
L 2450 4666 
L 2450 531 
L 3481 531 
L 3481 0 
L 794 0 
L 794 531 
z
" id="DejaVuSans-31" transform="scale(0.015625)"/>
       </defs>
       <use xlink:href="#DejaVuSans-2212"/>
       <use x="83.789062" xlink:href="#DejaVuSans-31"/>
       <use x="147.412109" xlink:href="#DejaVuSans-30"/>
      </g>
     </g>
    </g>
    <g id="xtick_3">
     <g id="line2d_3">
      <g>
       <use style="stroke:#000000;stroke-width:0.8;" x="197.503125" xlink:href="#ma08717f2ee" y="224.64"/>
      </g>
     </g>
     <g id="text_3">
      <!-- 0 -->
      <g transform="translate(194.321875 239.238437)scale(0.1 -0.1)">
       <use xlink:href="#DejaVuSans-30"/>
      </g>
     </g>
    </g>
    <g id="xtick_4">
     <g id="line2d_4">
      <g>
       <use style="stroke:#000000;stroke-width:0.8;" x="261.915029" xlink:href="#ma08717f2ee" y="224.64"/>
      </g>
     </g>
     <g id="text_4">
      <!-- 10 -->
      <g transform="translate(255.552529 239.238437)scale(0.1 -0.1)">
       <use xlink:href="#DejaVuSans-31"/>
       <use x="63.623047" xlink:href="#DejaVuSans-30"/>
      </g>
     </g>
    </g>
    <g id="xtick_5">
     <g id="line2d_5">
      <g>
       <use style="stroke:#000000;stroke-width:0.8;" x="326.326932" xlink:href="#ma08717f2ee" y="224.64"/>
      </g>
     </g>
     <g id="text_5">
      <!-- 20 -->
      <g transform="translate(319.964432 239.238437)scale(0.1 -0.1)">
       <use xlink:href="#DejaVuSans-32"/>
       <use x="63.623047" xlink:href="#DejaVuSans-30"/>
      </g>
     </g>
    </g>
   </g>
   <g id="matplotlib.axis_2">
    <g id="ytick_1">
     <g id="line2d_6">
      <defs>
       <path d="M 0 0 
L -3.5 0 
" id="m16b882cbf9" style="stroke:#000000;stroke-width:0.8;"/>
      </defs>
      <g>
       <use style="stroke:#000000;stroke-width:0.8;" x="30.103125" xlink:href="#m16b882cbf9" y="224.64"/>
      </g>
     </g>
     <g id="text_6">
      <!-- 0.0 -->
      <g transform="translate(7.2 228.439219)scale(0.1 -0.1)">
       <defs>
        <path d="M 684 794 
L 1344 794 
L 1344 0 
L 684 0 
L 684 794 
z
" id="DejaVuSans-2e" transform="scale(0.015625)"/>
       </defs>
       <use xlink:href="#DejaVuSans-30"/>
       <use x="63.623047" xlink:href="#DejaVuSans-2e"/>
       <use x="95.410156" xlink:href="#DejaVuSans-30"/>
      </g>
     </g>
    </g>
    <g id="ytick_2">
     <g id="line2d_7">
      <g>
       <use style="stroke:#000000;stroke-width:0.8;" x="30.103125" xlink:href="#m16b882cbf9" y="185.105455"/>
      </g>
     </g>
     <g id="text_7">
      <!-- 0.2 -->
      <g transform="translate(7.2 188.904673)scale(0.1 -0.1)">
       <use xlink:href="#DejaVuSans-30"/>
       <use x="63.623047" xlink:href="#DejaVuSans-2e"/>
       <use x="95.410156" xlink:href="#DejaVuSans-32"/>
      </g>
     </g>
    </g>
    <g id="ytick_3">
     <g id="line2d_8">
      <g>
       <use style="stroke:#000000;stroke-width:0.8;" x="30.103125" xlink:href="#m16b882cbf9" y="145.570909"/>
      </g>
     </g>
     <g id="text_8">
      <!-- 0.4 -->
      <g transform="translate(7.2 149.370128)scale(0.1 -0.1)">
       <defs>
        <path d="M 2419 4116 
L 825 1625 
L 2419 1625 
L 2419 4116 
z
M 2253 4666 
L 3047 4666 
L 3047 1625 
L 3713 1625 
L 3713 1100 
L 3047 1100 
L 3047 0 
L 2419 0 
L 2419 1100 
L 313 1100 
L 313 1709 
L 2253 4666 
z
" id="DejaVuSans-34" transform="scale(0.015625)"/>
       </defs>
       <use xlink:href="#DejaVuSans-30"/>
       <use x="63.623047" xlink:href="#DejaVuSans-2e"/>
       <use x="95.410156" xlink:href="#DejaVuSans-34"/>
      </g>
     </g>
    </g>
    <g id="ytick_4">
     <g id="line2d_9">
      <g>
       <use style="stroke:#000000;stroke-width:0.8;" x="30.103125" xlink:href="#m16b882cbf9" y="106.036364"/>
      </g>
     </g>
     <g id="text_9">
      <!-- 0.6 -->
      <g transform="translate(7.2 109.835582)scale(0.1 -0.1)">
       <defs>
        <path d="M 2113 2584 
Q 1688 2584 1439 2293 
Q 1191 2003 1191 1497 
Q 1191 994 1439 701 
Q 1688 409 2113 409 
Q 2538 409 2786 701 
Q 3034 994 3034 1497 
Q 3034 2003 2786 2293 
Q 2538 2584 2113 2584 
z
M 3366 4563 
L 3366 3988 
Q 3128 4100 2886 4159 
Q 2644 4219 2406 4219 
Q 1781 4219 1451 3797 
Q 1122 3375 1075 2522 
Q 1259 2794 1537 2939 
Q 1816 3084 2150 3084 
Q 2853 3084 3261 2657 
Q 3669 2231 3669 1497 
Q 3669 778 3244 343 
Q 2819 -91 2113 -91 
Q 1303 -91 875 529 
Q 447 1150 447 2328 
Q 447 3434 972 4092 
Q 1497 4750 2381 4750 
Q 2619 4750 2861 4703 
Q 3103 4656 3366 4563 
z
" id="DejaVuSans-36" transform="scale(0.015625)"/>
       </defs>
       <use xlink:href="#DejaVuSans-30"/>
       <use x="63.623047" xlink:href="#DejaVuSans-2e"/>
       <use x="95.410156" xlink:href="#DejaVuSans-36"/>
      </g>
     </g>
    </g>
    <g id="ytick_5">
     <g id="line2d_10">
      <g>
       <use style="stroke:#000000;stroke-width:0.8;" x="30.103125" xlink:href="#m16b882cbf9" y="66.501818"/>
      </g>
     </g>
     <g id="text_10">
      <!-- 0.8 -->
      <g transform="translate(7.2 70.301037)scale(0.1 -0.1)">
       <defs>
        <path d="M 2034 2216 
Q 1584 2216 1326 1975 
Q 1069 1734 1069 1313 
Q 1069 891 1326 650 
Q 1584 409 2034 409 
Q 2484 409 2743 651 
Q 3003 894 3003 1313 
Q 3003 1734 2745 1975 
Q 2488 2216 2034 2216 
z
M 1403 2484 
Q 997 2584 770 2862 
Q 544 3141 544 3541 
Q 544 4100 942 4425 
Q 1341 4750 2034 4750 
Q 2731 4750 3128 4425 
Q 3525 4100 3525 3541 
Q 3525 3141 3298 2862 
Q 3072 2584 2669 2484 
Q 3125 2378 3379 2068 
Q 3634 1759 3634 1313 
Q 3634 634 3220 271 
Q 2806 -91 2034 -91 
Q 1263 -91 848 271 
Q 434 634 434 1313 
Q 434 1759 690 2068 
Q 947 2378 1403 2484 
z
M 1172 3481 
Q 1172 3119 1398 2916 
Q 1625 2713 2034 2713 
Q 2441 2713 2670 2916 
Q 2900 3119 2900 3481 
Q 2900 3844 2670 4047 
Q 2441 4250 2034 4250 
Q 1625 4250 1398 4047 
Q 1172 3844 1172 3481 
z
" id="DejaVuSans-38" transform="scale(0.015625)"/>
       </defs>
       <use xlink:href="#DejaVuSans-30"/>
       <use x="63.623047" xlink:href="#DejaVuSans-2e"/>
       <use x="95.410156" xlink:href="#DejaVuSans-38"/>
      </g>
     </g>
    </g>
    <g id="ytick_6">
     <g id="line2d_11">
      <g>
       <use style="stroke:#000000;stroke-width:0.8;" x="30.103125" xlink:href="#m16b882cbf9" y="26.967273"/>
      </g>
     </g>
     <g id="text_11">
      <!-- 1.0 -->
      <g transform="translate(7.2 30.766491)scale(0.1 -0.1)">
       <use xlink:href="#DejaVuSans-31"/>
       <use x="63.623047" xlink:href="#DejaVuSans-2e"/>
       <use x="95.410156" xlink:href="#DejaVuSans-30"/>
      </g>
     </g>
    </g>
   </g>
   <g id="line2d_12">
    <path clip-path="url(#pbcb5b9ce36)" d="M 45.321307 26.967273 
L 46.844648 63.620816 
L 47.758653 80.948487 
L 48.672658 93.598753 
L 49.281995 99.338008 
L 49.891331 103.015676 
L 50.196 104.133285 
L 50.500668 104.806382 
L 50.805336 105.066832 
L 51.110005 104.949776 
L 51.414673 104.493297 
L 52.02401 102.726989 
L 52.938014 98.610265 
L 54.766024 89.552004 
L 55.375361 87.426275 
L 55.984697 86.086032 
L 56.289366 85.735817 
L 56.594034 85.600614 
L 56.898702 85.67476 
L 57.203371 85.947535 
L 57.812707 87.024333 
L 58.422044 88.66793 
L 59.640717 92.83952 
L 60.85939 96.807368 
L 61.468727 98.273861 
L 62.078064 99.229241 
L 62.382732 99.490565 
L 62.6874 99.59971 
L 62.992068 99.554021 
L 63.296737 99.353489 
L 63.906073 98.501263 
L 64.51541 97.097284 
L 65.429415 94.188886 
L 67.257425 87.815061 
L 67.866761 86.528892 
L 68.17143 86.236381 
L 68.476098 86.241136 
L 68.780766 86.591102 
L 69.085435 87.333129 
L 69.390103 88.511692 
L 69.999439 92.335696 
L 70.608776 98.314497 
L 71.218113 106.563047 
L 72.132118 122.98774 
L 73.350791 150.423539 
L 75.178801 192.051264 
L 76.092806 207.561926 
L 76.702142 214.889959 
L 77.311479 219.822773 
L 77.920815 222.702877 
L 78.530152 224.073789 
L 79.139489 224.54398 
L 80.053494 224.63554 
L 80.967498 224.512744 
L 81.272167 224.314941 
L 81.576835 223.936529 
L 81.881503 223.295625 
L 82.186172 222.303203 
L 82.795508 218.906023 
L 83.404845 213.107977 
L 84.014182 204.516329 
L 84.928186 186.462041 
L 86.14686 155.837733 
L 87.670201 118.513185 
L 88.584206 102.403787 
L 89.193543 95.287671 
L 89.802879 90.992669 
L 90.107548 89.782874 
L 90.412216 89.105142 
L 90.716884 88.877941 
L 91.021553 89.014835 
L 91.326221 89.42801 
L 91.935557 90.743935 
L 92.849562 92.837426 
L 93.458899 93.676923 
L 93.763567 93.835447 
L 94.068236 93.807119 
L 94.372904 93.598399 
L 94.98224 92.728499 
L 96.200914 90.449987 
L 96.505582 90.147567 
L 96.81025 90.110138 
L 97.114919 90.422017 
L 97.419587 91.165946 
L 97.724255 92.419767 
L 98.333592 96.723141 
L 98.942928 103.726465 
L 99.552265 113.539669 
L 100.46627 132.9155 
L 103.208285 198.452705 
L 103.817621 208.523519 
L 104.426958 215.83297 
L 105.036295 220.543346 
L 105.645631 223.133569 
L 106.254968 224.26146 
L 106.864304 224.59301 
L 107.778309 224.636825 
L 108.387646 224.579248 
L 108.692314 224.45635 
L 108.996982 224.197153 
L 109.301651 223.729446 
L 109.606319 222.972714 
L 109.910987 221.843238 
L 110.520324 218.146988 
L 111.129661 212.104641 
L 111.738997 203.436339 
L 112.653002 185.752323 
L 114.176344 148.862103 
L 115.395017 120.88666 
L 116.309022 105.043613 
L 116.918358 97.65673 
L 117.527695 92.780013 
L 118.137032 90.100612 
L 118.4417 89.438119 
L 118.746368 89.135468 
L 119.051037 89.120587 
L 119.355705 89.321905 
L 119.965041 90.103137 
L 120.879046 91.371207 
L 121.488383 91.818249 
L 121.793051 91.863483 
L 122.402388 91.607866 
L 123.925729 90.290788 
L 124.230398 90.310056 
L 124.535066 90.577451 
L 124.839734 91.166346 
L 125.144403 92.149588 
L 125.753739 95.570583 
L 126.363076 101.300701 
L 126.972412 109.601383 
L 127.886417 126.745712 
L 129.105091 155.767077 
L 130.628432 191.91555 
L 131.542437 208.089006 
L 132.151774 215.537998 
L 132.76111 220.388934 
L 133.370447 223.081511 
L 133.675115 223.816216 
L 133.979783 224.259656 
L 134.58912 224.600374 
L 135.807793 224.633676 
L 136.41713 224.497907 
L 136.721798 224.26389 
L 137.026467 223.823797 
L 137.331135 223.09328 
L 137.635803 221.984137 
L 138.24514 218.292531 
L 138.854476 212.182002 
L 139.463813 203.360299 
L 140.377818 185.324861 
L 141.901159 147.933947 
L 143.119833 120.077587 
L 144.033838 104.675521 
L 144.643174 97.6768 
L 145.252511 93.192247 
L 145.861847 90.848562 
L 146.166516 90.317227 
L 146.471184 90.115314 
L 146.775852 90.167968 
L 147.385189 90.749217 
L 148.299194 91.879615 
L 148.90853 92.274479 
L 149.213199 92.287662 
L 149.517867 92.169413 
L 150.127204 91.579703 
L 151.650545 89.624334 
L 151.955213 89.582939 
L 152.259882 89.817895 
L 152.56455 90.403106 
L 152.869218 91.410784 
L 153.478555 94.956602 
L 154.087892 100.888076 
L 154.697228 109.425849 
L 155.611233 126.893457 
L 156.829906 156.109054 
L 158.353248 192.097724 
L 159.267253 208.117479 
L 159.876589 215.499192 
L 160.485926 220.323283 
L 161.095263 223.022805 
L 161.704599 224.225071 
L 162.313936 224.588936 
L 163.227941 224.63882 
L 163.837277 224.597118 
L 164.141946 224.494321 
L 164.446614 224.26481 
L 164.751282 223.835712 
L 165.055951 223.124376 
L 165.360619 222.043587 
L 165.969955 218.435483 
L 166.579292 212.432711 
L 167.188629 203.716586 
L 168.102634 185.760063 
L 169.625975 148.09098 
L 170.844648 119.718205 
L 171.758653 103.963489 
L 172.36799 96.828554 
L 172.977326 92.317596 
L 173.586663 90.061476 
L 173.891331 89.612629 
L 174.196 89.514817 
L 174.500668 89.689094 
L 175.110005 90.547504 
L 176.02401 92.104829 
L 176.633346 92.738213 
L 176.938014 92.845325 
L 177.242683 92.800247 
L 177.852019 92.286843 
L 179.375361 90.100893 
L 179.680029 89.953315 
L 179.984697 90.069746 
L 180.289366 90.528708 
L 180.594034 91.407452 
L 180.898702 92.778885 
L 181.508039 97.250288 
L 182.117376 104.317093 
L 182.726712 114.089168 
L 183.640717 133.255332 
L 186.6874 203.61323 
L 187.296737 212.345183 
L 187.906073 218.371631 
L 188.51541 222.004077 
L 189.124747 223.815911 
L 189.429415 224.252206 
L 190.038752 224.593333 
L 191.257425 224.628625 
L 191.866761 224.474271 
L 192.17143 224.227245 
L 192.476098 223.774196 
L 192.780766 223.033365 
L 193.085435 221.919399 
L 193.694771 218.245492 
L 194.304108 212.202052 
L 194.913444 203.499765 
L 195.827449 185.704894 
L 197.350791 148.587922 
L 198.569464 120.560763 
L 199.483469 104.799391 
L 200.092806 97.510464 
L 200.702142 92.747143 
L 201.311479 90.178047 
L 201.616147 89.564353 
L 201.920815 89.304066 
L 202.225484 89.323919 
L 202.83482 89.9178 
L 204.053494 91.603877 
L 204.66283 92.003618 
L 204.967498 92.01909 
L 205.576835 91.698295 
L 207.100177 90.242513 
L 207.404845 90.245855 
L 207.709513 90.502511 
L 208.014182 91.085908 
L 208.31885 92.068689 
L 208.928186 95.501821 
L 209.537523 101.256011 
L 210.14686 109.584374 
L 211.060865 126.759056 
L 212.279538 155.776738 
L 213.802879 191.876481 
L 214.716884 208.034406 
L 215.326221 215.48641 
L 215.935557 220.349049 
L 216.544894 223.057103 
L 217.154231 224.249026 
L 217.763567 224.598127 
L 218.98224 224.63433 
L 219.591577 224.501819 
L 219.896245 224.272299 
L 220.200914 223.839276 
L 220.505582 223.118597 
L 220.81025 222.021962 
L 221.419587 218.361395 
L 222.028924 212.28377 
L 222.63826 203.486867 
L 223.552265 185.451839 
L 225.075607 147.933868 
L 226.29428 119.921872 
L 227.208285 104.440053 
L 227.817621 97.424864 
L 228.426958 92.956384 
L 229.036295 90.657315 
L 229.340963 90.156432 
L 229.645631 89.988638 
L 229.950299 90.077629 
L 230.559636 90.732392 
L 231.473641 91.955461 
L 232.082978 92.388499 
L 232.387646 92.411762 
L 232.692314 92.297215 
L 233.301651 91.695944 
L 234.824992 89.624675 
L 235.129661 89.55257 
L 235.434329 89.757187 
L 235.738997 90.313786 
L 236.043666 91.295897 
L 236.348334 92.772387 
L 236.95767 97.44228 
L 237.567007 104.666042 
L 238.176344 114.529427 
L 239.090349 133.689599 
L 241.832363 198.169141 
L 242.4417 208.210758 
L 243.051037 215.567421 
L 243.660373 220.364004 
L 244.26971 223.041055 
L 244.879046 224.229844 
L 245.488383 224.588834 
L 246.402388 224.638387 
L 247.011725 224.59336 
L 247.316393 224.486525 
L 247.621061 224.251228 
L 247.925729 223.814793 
L 248.230398 223.095014 
L 248.535066 222.005338 
L 249.144403 218.381513 
L 249.753739 212.371811 
L 250.363076 203.66357 
L 251.277081 185.751141 
L 252.800422 148.203848 
L 254.019096 119.89427 
L 254.9331 104.134473 
L 255.542437 96.972133 
L 256.151774 92.421079 
L 256.76111 90.119837 
L 257.065779 89.648954 
L 257.370447 89.530591 
L 257.675115 89.686496 
L 258.284452 90.516685 
L 259.503125 92.436976 
L 260.112462 92.805166 
L 260.41713 92.767004 
L 261.026467 92.270275 
L 262.854476 89.96913 
L 263.159145 90.083882 
L 263.463813 90.538659 
L 263.768481 91.410831 
L 264.07315 92.773565 
L 264.682486 97.222895 
L 265.291823 104.26524 
L 265.901159 114.015736 
L 266.815164 133.165098 
L 269.861847 203.604408 
L 270.471184 212.351063 
L 271.080521 218.384607 
L 271.689857 222.017416 
L 272.299194 223.825434 
L 272.603862 224.259237 
L 273.213199 224.595947 
L 274.431872 224.62927 
L 275.041209 224.476849 
L 275.345877 224.230983 
L 275.650545 223.779016 
L 275.955213 223.039096 
L 276.259882 221.925841 
L 276.869218 218.252973 
L 277.478555 212.210931 
L 278.087892 203.511537 
L 279.001896 185.723982 
L 280.525238 148.604777 
L 281.743911 120.52134 
L 282.657916 104.674455 
L 283.267253 97.315414 
L 283.876589 92.482254 
L 284.485926 89.855179 
L 284.790594 89.220586 
L 285.095263 88.946542 
L 285.399931 88.96087 
L 285.704599 89.192055 
L 286.313936 90.035864 
L 287.227941 91.409554 
L 287.837277 91.937803 
L 288.141946 92.02699 
L 288.751282 91.864343 
L 290.274624 90.766669 
L 290.579292 90.81639 
L 290.88396 91.105774 
L 291.188629 91.706505 
L 291.493297 92.68993 
L 292.102634 96.072007 
L 292.71197 101.708467 
L 293.321307 109.866489 
L 294.235312 126.742816 
L 295.453985 155.445196 
L 296.977326 191.504651 
L 297.891331 207.794398 
L 298.500668 215.347969 
L 299.110005 220.293605 
L 299.719341 223.051956 
L 300.02401 223.806313 
L 300.328678 224.261132 
L 300.938014 224.606146 
L 302.156688 224.638417 
L 302.766024 224.527017 
L 303.070693 224.31265 
L 303.375361 223.895224 
L 303.680029 223.187867 
L 303.984697 222.099259 
L 304.594034 218.427106 
L 305.203371 212.286688 
L 305.812707 203.371891 
L 306.726712 185.09588 
L 310.078064 108.88805 
L 310.6874 100.87029 
L 311.296737 95.492589 
L 311.906073 92.434247 
L 312.210742 91.616878 
L 312.51541 91.174083 
L 312.820078 91.026955 
L 313.124747 91.097161 
L 313.734083 91.595061 
L 314.34342 92.146134 
L 314.952756 92.370821 
L 315.257425 92.289334 
L 315.562093 92.063871 
L 316.17143 91.208313 
L 317.999439 87.899713 
L 318.304108 87.846031 
L 318.608776 88.128291 
L 318.913444 88.82199 
L 319.218113 89.998419 
L 319.827449 94.045159 
L 320.436786 100.639413 
L 321.046123 109.902748 
L 321.960127 128.315355 
L 325.311479 203.983583 
L 325.920815 212.265595 
L 326.530152 218.037121 
L 327.139489 221.611447 
L 327.748825 223.506005 
L 328.358162 224.312562 
L 328.967498 224.559841 
L 329.881503 224.576007 
L 330.49084 224.387466 
L 330.795508 224.142764 
L 331.100177 223.724447 
L 331.404845 223.065243 
L 331.709513 222.092351 
L 332.31885 218.910585 
L 332.928186 213.638299 
L 333.537523 205.895635 
L 334.14686 195.558734 
L 335.060865 175.679288 
L 338.107548 101.537745 
L 338.716884 91.840563 
L 339.326221 85.228243 
L 339.935557 81.742473 
L 340.240226 81.104229 
L 340.544894 81.133766 
L 340.849562 81.762922 
L 341.154231 82.913159 
L 341.763567 86.426663 
L 344.200914 103.360955 
L 344.505582 104.480805 
L 344.81025 105.172917 
L 345.114919 105.39407 
L 345.419587 105.10739 
L 345.724255 104.28207 
L 346.028924 102.893184 
L 346.63826 98.354296 
L 347.247597 91.411322 
L 347.856933 82.092938 
L 348.770938 64.039994 
L 349.684943 42.166236 
L 349.684943 42.166236 
" style="fill:none;stroke:#0000ff;stroke-linecap:square;stroke-width:1.5;"/>
   </g>
   <g id="line2d_13">
    <path clip-path="url(#pbcb5b9ce36)" d="M 45.321307 110.156896 
L 46.53998 127.159302 
L 47.453985 137.415356 
L 48.36799 144.981834 
L 48.977326 148.515397 
L 49.586663 150.932623 
L 50.196 152.370569 
L 50.805336 153.000784 
L 51.110005 153.072313 
L 51.719341 152.850366 
L 52.328678 152.297639 
L 54.156688 150.057043 
L 55.375361 148.48436 
L 55.984697 147.442625 
L 56.594034 145.989296 
L 57.203371 143.898594 
L 57.812707 140.932464 
L 58.422044 136.861259 
L 59.031381 131.485582 
L 59.945385 120.680968 
L 60.85939 106.524272 
L 62.078064 83.459999 
L 63.906073 47.761185 
L 64.820078 34.593189 
L 65.429415 29.165033 
L 65.734083 27.643985 
L 66.038752 26.967273 
L 66.34342 27.150097 
L 66.648088 28.189656 
L 66.952756 30.065251 
L 67.562093 36.157341 
L 68.17143 44.945596 
L 69.085435 61.701225 
L 71.522781 109.803077 
L 72.436786 123.770048 
L 73.350791 134.20933 
L 73.960127 139.231733 
L 74.569464 142.845788 
L 75.178801 145.23594 
L 75.788137 146.621884 
L 76.397474 147.243497 
L 77.006811 147.346953 
L 77.920815 147.044365 
L 78.83482 146.785907 
L 79.444157 146.866499 
L 80.053494 147.217323 
L 80.66283 147.818823 
L 82.49084 150.018107 
L 83.100177 150.298954 
L 83.404845 150.238519 
L 83.709513 150.008695 
L 84.014182 149.583473 
L 84.623518 148.047129 
L 85.232855 145.442178 
L 85.842191 141.606436 
L 86.451528 136.412788 
L 87.365533 125.922074 
L 88.279538 112.250743 
L 89.498211 90.062526 
L 91.630889 49.691727 
L 92.544894 37.011441 
L 93.154231 31.601251 
L 93.458899 29.973804 
L 93.763567 29.111579 
L 94.068236 29.032988 
L 94.372904 29.74223 
L 94.677572 31.229064 
L 95.286909 36.424012 
L 95.896245 44.265769 
L 96.81025 59.804856 
L 100.161602 122.604584 
L 101.075607 134.179419 
L 101.684943 139.922767 
L 102.29428 144.147609 
L 102.903616 146.984372 
L 103.512953 148.613962 
L 103.817621 149.043098 
L 104.12229 149.254573 
L 104.426958 149.279701 
L 104.731626 149.150731 
L 105.340963 148.561485 
L 107.168973 146.342236 
L 107.778309 146.084712 
L 108.387646 146.221344 
L 108.996982 146.719862 
L 111.129661 149.081953 
L 111.434329 149.112278 
L 111.738997 148.966847 
L 112.043666 148.612634 
L 112.348334 148.017679 
L 112.95767 145.98529 
L 113.567007 142.64937 
L 114.176344 137.830997 
L 114.78568 131.408744 
L 115.699685 118.702919 
L 116.61369 102.641254 
L 119.965041 38.816491 
L 120.574378 32.07732 
L 121.183715 28.345508 
L 121.488383 27.698441 
L 121.793051 27.881614 
L 122.09772 28.888165 
L 122.402388 30.695416 
L 123.011725 36.547667 
L 123.621061 44.983318 
L 124.535066 61.115211 
L 127.277081 113.480735 
L 128.191086 126.672694 
L 129.105091 136.523345 
L 129.714427 141.268879 
L 130.323764 144.68495 
L 130.9331 146.934121 
L 131.542437 148.209732 
L 132.151774 148.724475 
L 132.76111 148.699871 
L 133.370447 148.354672 
L 134.893788 147.336062 
L 135.503125 147.220065 
L 136.112462 147.356276 
L 137.026467 147.945132 
L 138.24514 148.807185 
L 138.854476 148.859604 
L 139.159145 148.696618 
L 139.463813 148.369789 
L 139.768481 147.850965 
L 140.377818 146.127785 
L 140.987154 143.318773 
L 141.596491 139.240806 
L 142.205828 133.749241 
L 143.119833 122.687657 
L 144.033838 108.317625 
L 145.252511 85.195002 
L 147.080521 49.672847 
L 147.994525 36.371401 
L 148.603862 30.666552 
L 148.90853 28.945084 
L 149.213199 28.028789 
L 149.517867 27.937222 
L 149.822535 28.673925 
L 150.127204 30.226258 
L 150.73654 35.649028 
L 151.345877 43.807188 
L 152.259882 59.861144 
L 155.306565 118.490199 
L 156.22057 130.946949 
L 157.134575 139.82425 
L 157.743911 143.850035 
L 158.353248 146.53197 
L 158.962584 148.068637 
L 159.267253 148.478386 
L 159.571921 148.689714 
L 159.876589 148.73421 
L 160.485926 148.450545 
L 162.618604 146.617413 
L 163.227941 146.570509 
L 163.837277 146.865438 
L 164.446614 147.448528 
L 165.969955 149.203372 
L 166.579292 149.470665 
L 166.88396 149.390918 
L 167.188629 149.128041 
L 167.493297 148.652203 
L 168.102634 146.948053 
L 168.71197 144.067224 
L 169.321307 139.831499 
L 169.930643 134.108677 
L 170.844648 122.608292 
L 171.758653 107.779008 
L 173.281995 78.015564 
L 174.805336 48.889017 
L 175.719341 36.046332 
L 176.328678 30.702592 
L 176.633346 29.158541 
L 176.938014 28.408706 
L 177.242683 28.466563 
L 177.547351 29.330385 
L 177.852019 30.983311 
L 178.461356 36.517036 
L 179.070693 44.661595 
L 179.984697 60.494756 
L 183.031381 118.072667 
L 183.945385 130.473617 
L 184.85939 139.441107 
L 185.468727 143.585803 
L 186.078064 146.413228 
L 186.6874 148.102952 
L 187.296737 148.865674 
L 187.601405 148.971109 
L 187.906073 148.932425 
L 188.51541 148.543199 
L 190.34342 146.860903 
L 190.952756 146.685684 
L 191.562093 146.832571 
L 192.17143 147.268822 
L 193.999439 148.965227 
L 194.304108 149.037639 
L 194.608776 148.970379 
L 194.913444 148.732368 
L 195.218113 148.292937 
L 195.827449 146.691537 
L 196.436786 143.943413 
L 197.046123 139.856127 
L 197.655459 134.281416 
L 198.569464 122.965213 
L 199.483469 108.226137 
L 200.702142 84.585271 
L 202.530152 48.764977 
L 203.444157 35.677772 
L 204.053494 30.231533 
L 204.358162 28.661449 
L 204.66283 27.903883 
L 204.967498 27.972402 
L 205.272167 28.864529 
L 205.576835 30.561864 
L 206.186172 36.223203 
L 206.795508 44.526482 
L 207.709513 60.596042 
L 210.756196 118.284677 
L 211.670201 130.53735 
L 212.584206 139.352555 
L 213.193543 143.416067 
L 213.802879 146.190367 
L 214.412216 147.861349 
L 215.021553 148.642215 
L 215.326221 148.770184 
L 215.935557 148.647669 
L 216.849562 147.945366 
L 217.763567 147.225196 
L 218.372904 146.98371 
L 218.98224 147.020914 
L 219.591577 147.333973 
L 220.505582 148.144868 
L 221.419587 148.906704 
L 222.028924 149.048471 
L 222.333592 148.923921 
L 222.63826 148.630091 
L 222.942928 148.138076 
L 223.552265 146.447726 
L 224.161602 143.641693 
L 224.770938 139.536333 
L 225.380275 133.988692 
L 226.29428 122.798404 
L 227.208285 108.26736 
L 228.426958 84.937975 
L 230.254968 49.290384 
L 231.168973 36.047243 
L 231.778309 30.418855 
L 232.082978 28.743279 
L 232.387646 27.875987 
L 232.692314 27.834956 
L 232.996982 28.622163 
L 233.301651 30.22348 
L 233.910987 35.734442 
L 234.520324 43.961095 
L 235.434329 60.071845 
L 238.481012 118.590782 
L 239.395017 130.98832 
L 240.309022 139.815313 
L 240.918358 143.814402 
L 241.527695 146.475589 
L 242.137032 147.997607 
L 242.4417 148.402352 
L 242.746368 148.610241 
L 243.051037 148.65287 
L 243.660373 148.3702 
L 245.793051 146.585287 
L 246.402388 146.56073 
L 247.011725 146.878532 
L 247.621061 147.482687 
L 249.144403 149.267522 
L 249.753739 149.533193 
L 250.058408 149.449222 
L 250.363076 149.179818 
L 250.667744 148.695186 
L 251.277081 146.967056 
L 251.886417 144.054929 
L 252.495754 139.782839 
L 253.105091 134.021845 
L 254.019096 122.470485 
L 254.9331 107.613954 
L 256.456442 77.903988 
L 257.979783 48.96531 
L 258.893788 36.257897 
L 259.503125 30.988106 
L 259.807793 29.471247 
L 260.112462 28.740232 
L 260.41713 28.807487 
L 260.721798 29.67057 
L 261.026467 31.312287 
L 261.635803 36.792909 
L 262.24514 44.848654 
L 263.159145 60.506828 
L 266.205828 117.708384 
L 267.119833 130.159837 
L 268.033838 139.242648 
L 268.643174 143.486916 
L 269.252511 146.421235 
L 269.861847 148.215369 
L 270.471184 149.07016 
L 270.775852 149.214039 
L 271.080521 149.207299 
L 271.689857 148.85887 
L 273.822535 146.918879 
L 274.431872 146.805575 
L 275.041209 146.999769 
L 275.650545 147.445083 
L 277.173887 148.697343 
L 277.478555 148.765115 
L 277.783223 148.702294 
L 278.087892 148.477599 
L 278.39256 148.059926 
L 279.001896 146.52458 
L 279.611233 143.86615 
L 280.22057 139.882396 
L 280.829906 134.413227 
L 281.743911 123.229596 
L 282.657916 108.550703 
L 283.876589 84.817804 
L 285.704599 48.537883 
L 286.618604 35.217616 
L 287.227941 29.677626 
L 287.532609 28.0876 
L 287.837277 27.330321 
L 288.141946 27.420024 
L 288.446614 28.354006 
L 288.751282 30.112735 
L 289.360619 35.946755 
L 289.969955 44.467856 
L 290.88396 60.878995 
L 293.625975 114.064318 
L 294.53998 127.233245 
L 295.453985 136.897497 
L 296.063322 141.454439 
L 296.672658 144.655291 
L 297.281995 146.686327 
L 297.891331 147.765163 
L 298.196 148.020838 
L 298.500668 148.127647 
L 299.110005 148.015081 
L 301.242683 146.963733 
L 301.852019 147.080272 
L 302.461356 147.469874 
L 303.375361 148.409705 
L 304.289366 149.346012 
L 304.898702 149.646561 
L 305.203371 149.618233 
L 305.508039 149.433705 
L 305.812707 149.06546 
L 306.422044 147.671392 
L 307.031381 145.234534 
L 307.640717 141.578025 
L 308.250054 136.560226 
L 309.164059 126.296654 
L 310.078064 112.771875 
L 311.296737 90.606242 
L 313.429415 49.839236 
L 314.34342 36.922677 
L 314.952756 31.37281 
L 315.257425 29.685927 
L 315.562093 28.772835 
L 315.866761 28.652789 
L 316.17143 29.330517 
L 316.476098 30.796001 
L 317.085435 35.978293 
L 317.694771 43.844505 
L 318.608776 59.477244 
L 321.960127 122.883166 
L 322.874132 134.620692 
L 323.483469 140.455787 
L 324.092806 144.750656 
L 324.702142 147.626111 
L 325.311479 149.251027 
L 325.616147 149.657248 
L 325.920815 149.829656 
L 326.225484 149.797771 
L 326.530152 149.592182 
L 327.139489 148.785596 
L 329.576835 144.661592 
L 330.186172 144.334842 
L 330.49084 144.344332 
L 331.100177 144.70239 
L 331.709513 145.458302 
L 332.623518 147.092221 
L 334.14686 149.943476 
L 334.756196 150.734829 
L 335.365533 151.188792 
L 335.974869 151.272215 
L 336.584206 150.999441 
L 337.193543 150.430365 
L 339.630889 147.502058 
L 340.240226 147.256193 
L 340.849562 147.389778 
L 341.458899 147.910155 
L 342.068236 148.760814 
L 344.200914 152.222078 
L 344.505582 152.443931 
L 344.81025 152.515677 
L 345.114919 152.411085 
L 345.419587 152.10531 
L 345.724255 151.575244 
L 346.333592 149.760354 
L 346.942928 146.828141 
L 347.552265 142.688717 
L 348.46627 134.172031 
L 349.380275 123.118023 
L 349.684943 118.973339 
L 349.684943 118.973339 
" style="fill:none;stroke:#ff0000;stroke-linecap:square;stroke-width:1.5;"/>
   </g>
   <g id="patch_3">
    <path d="M 30.103125 224.64 
L 30.103125 7.2 
" style="fill:none;stroke:#000000;stroke-linecap:square;stroke-linejoin:miter;stroke-width:0.8;"/>
   </g>
   <g id="patch_4">
    <path d="M 364.903125 224.64 
L 364.903125 7.2 
" style="fill:none;stroke:#000000;stroke-linecap:square;stroke-linejoin:miter;stroke-width:0.8;"/>
   </g>
   <g id="patch_5">
    <path d="M 30.103125 224.64 
L 364.903125 224.64 
" style="fill:none;stroke:#000000;stroke-linecap:square;stroke-linejoin:miter;stroke-width:0.8;"/>
   </g>
   <g id="patch_6">
    <path d="M 30.103125 7.2 
L 364.903125 7.2 
" style="fill:none;stroke:#000000;stroke-linecap:square;stroke-linejoin:miter;stroke-width:0.8;"/>
   </g>
  </g>
 </g>
 <defs>
  <clipPath id="pbcb5b9ce36">
   <rect height="217.44" width="334.8" x="30.103125" y="7.2"/>
  </clipPath>
 </defs>
</svg>
