<?xml version="1.0" encoding="utf-8" standalone="no"?>
<!DOCTYPE svg PUBLIC "-//W3C//DTD SVG 1.1//EN"
  "http://www.w3.org/Graphics/SVG/1.1/DTD/svg11.dtd">
<svg height="252.317344pt" version="1.1" viewBox="0 0 372.103125 252.317344" width="372.103125pt" xmlns="http://www.w3.org/2000/svg" xmlns:xlink="http://www.w3.org/1999/xlink">
 <metadata>
  <rdf:RDF xmlns:cc="http://creativecommons.org/ns#" xmlns:dc="http://purl.org/dc/elements/1.1/" xmlns:rdf="http://www.w3.org/1999/02/22-rdf-syntax-ns#">
   <cc:Work>
    <dc:type rdf:resource="http://purl.org/dc/dcmitype/StillImage"/>
    <dc:date>2022-04-12T16:38:17.707190</dc:date>
    <dc:format>image/svg+xml</dc:format>
    <dc:creator>
     <cc:Agent>
      <dc:title>Matplotlib v3.4.3, https://matplotlib.org/</dc:title>
     </cc:Agent>
    </dc:creator>
   </cc:Work>
  </rdf:RDF>
 </metadata>
 <defs>
  <style type="text/css">*{stroke-linecap:butt;stroke-linejoin:round;}</style>
 </defs>
 <g id="figure_1">
  <g id="patch_1">
   <path d="M 0 252.317344 
L 372.103125 252.317344 
L 372.103125 0 
L 0 0 
z
" style="fill:none;"/>
  </g>
  <g id="axes_1">
   <g id="patch_2">
    <path d="M 30.103125 228.439219 
L 364.903125 228.439219 
L 364.903125 10.999219 
L 30.103125 10.999219 
z
" style="fill:#ffffff;"/>
   </g>
   <g id="matplotlib.axis_1">
    <g id="xtick_1">
     <g id="line2d_1">
      <defs>
       <path d="M 0 0 
L 0 3.5 
" id="m6dbeb6356b" style="stroke:#000000;stroke-width:0.8;"/>
      </defs>
      <g>
       <use style="stroke:#000000;stroke-width:0.8;" x="45.321307" xlink:href="#m6dbeb6356b" y="228.439219"/>
      </g>
     </g>
     <g id="text_1">
      <!-- 0 -->
      <g transform="translate(42.140057 243.037656)scale(0.1 -0.1)">
       <defs>
        <path d="M 2034 4250 
Q 1547 4250 1301 3770 
Q 1056 3291 1056 2328 
Q 1056 1369 1301 889 
Q 1547 409 2034 409 
Q 2525 409 2770 889 
Q 3016 1369 3016 2328 
Q 3016 3291 2770 3770 
Q 2525 4250 2034 4250 
z
M 2034 4750 
Q 2819 4750 3233 4129 
Q 3647 3509 3647 2328 
Q 3647 1150 3233 529 
Q 2819 -91 2034 -91 
Q 1250 -91 836 529 
Q 422 1150 422 2328 
Q 422 3509 836 4129 
Q 1250 4750 2034 4750 
z
" id="DejaVuSans-30" transform="scale(0.015625)"/>
       </defs>
       <use xlink:href="#DejaVuSans-30"/>
      </g>
     </g>
    </g>
    <g id="xtick_2">
     <g id="line2d_2">
      <g>
       <use style="stroke:#000000;stroke-width:0.8;" x="83.390555" xlink:href="#m6dbeb6356b" y="228.439219"/>
      </g>
     </g>
     <g id="text_2">
      <!-- 200 -->
      <g transform="translate(73.846805 243.037656)scale(0.1 -0.1)">
       <defs>
        <path d="M 1228 531 
L 3431 531 
L 3431 0 
L 469 0 
L 469 531 
Q 828 903 1448 1529 
Q 2069 2156 2228 2338 
Q 2531 2678 2651 2914 
Q 2772 3150 2772 3378 
Q 2772 3750 2511 3984 
Q 2250 4219 1831 4219 
Q 1534 4219 1204 4116 
Q 875 4013 500 3803 
L 500 4441 
Q 881 4594 1212 4672 
Q 1544 4750 1819 4750 
Q 2544 4750 2975 4387 
Q 3406 4025 3406 3419 
Q 3406 3131 3298 2873 
Q 3191 2616 2906 2266 
Q 2828 2175 2409 1742 
Q 1991 1309 1228 531 
z
" id="DejaVuSans-32" transform="scale(0.015625)"/>
       </defs>
       <use xlink:href="#DejaVuSans-32"/>
       <use x="63.623047" xlink:href="#DejaVuSans-30"/>
       <use x="127.246094" xlink:href="#DejaVuSans-30"/>
      </g>
     </g>
    </g>
    <g id="xtick_3">
     <g id="line2d_3">
      <g>
       <use style="stroke:#000000;stroke-width:0.8;" x="121.459802" xlink:href="#m6dbeb6356b" y="228.439219"/>
      </g>
     </g>
     <g id="text_3">
      <!-- 400 -->
      <g transform="translate(111.916052 243.037656)scale(0.1 -0.1)">
       <defs>
        <path d="M 2419 4116 
L 825 1625 
L 2419 1625 
L 2419 4116 
z
M 2253 4666 
L 3047 4666 
L 3047 1625 
L 3713 1625 
L 3713 1100 
L 3047 1100 
L 3047 0 
L 2419 0 
L 2419 1100 
L 313 1100 
L 313 1709 
L 2253 4666 
z
" id="DejaVuSans-34" transform="scale(0.015625)"/>
       </defs>
       <use xlink:href="#DejaVuSans-34"/>
       <use x="63.623047" xlink:href="#DejaVuSans-30"/>
       <use x="127.246094" xlink:href="#DejaVuSans-30"/>
      </g>
     </g>
    </g>
    <g id="xtick_4">
     <g id="line2d_4">
      <g>
       <use style="stroke:#000000;stroke-width:0.8;" x="159.52905" xlink:href="#m6dbeb6356b" y="228.439219"/>
      </g>
     </g>
     <g id="text_4">
      <!-- 600 -->
      <g transform="translate(149.9853 243.037656)scale(0.1 -0.1)">
       <defs>
        <path d="M 2113 2584 
Q 1688 2584 1439 2293 
Q 1191 2003 1191 1497 
Q 1191 994 1439 701 
Q 1688 409 2113 409 
Q 2538 409 2786 701 
Q 3034 994 3034 1497 
Q 3034 2003 2786 2293 
Q 2538 2584 2113 2584 
z
M 3366 4563 
L 3366 3988 
Q 3128 4100 2886 4159 
Q 2644 4219 2406 4219 
Q 1781 4219 1451 3797 
Q 1122 3375 1075 2522 
Q 1259 2794 1537 2939 
Q 1816 3084 2150 3084 
Q 2853 3084 3261 2657 
Q 3669 2231 3669 1497 
Q 3669 778 3244 343 
Q 2819 -91 2113 -91 
Q 1303 -91 875 529 
Q 447 1150 447 2328 
Q 447 3434 972 4092 
Q 1497 4750 2381 4750 
Q 2619 4750 2861 4703 
Q 3103 4656 3366 4563 
z
" id="DejaVuSans-36" transform="scale(0.015625)"/>
       </defs>
       <use xlink:href="#DejaVuSans-36"/>
       <use x="63.623047" xlink:href="#DejaVuSans-30"/>
       <use x="127.246094" xlink:href="#DejaVuSans-30"/>
      </g>
     </g>
    </g>
    <g id="xtick_5">
     <g id="line2d_5">
      <g>
       <use style="stroke:#000000;stroke-width:0.8;" x="197.598298" xlink:href="#m6dbeb6356b" y="228.439219"/>
      </g>
     </g>
     <g id="text_5">
      <!-- 800 -->
      <g transform="translate(188.054548 243.037656)scale(0.1 -0.1)">
       <defs>
        <path d="M 2034 2216 
Q 1584 2216 1326 1975 
Q 1069 1734 1069 1313 
Q 1069 891 1326 650 
Q 1584 409 2034 409 
Q 2484 409 2743 651 
Q 3003 894 3003 1313 
Q 3003 1734 2745 1975 
Q 2488 2216 2034 2216 
z
M 1403 2484 
Q 997 2584 770 2862 
Q 544 3141 544 3541 
Q 544 4100 942 4425 
Q 1341 4750 2034 4750 
Q 2731 4750 3128 4425 
Q 3525 4100 3525 3541 
Q 3525 3141 3298 2862 
Q 3072 2584 2669 2484 
Q 3125 2378 3379 2068 
Q 3634 1759 3634 1313 
Q 3634 634 3220 271 
Q 2806 -91 2034 -91 
Q 1263 -91 848 271 
Q 434 634 434 1313 
Q 434 1759 690 2068 
Q 947 2378 1403 2484 
z
M 1172 3481 
Q 1172 3119 1398 2916 
Q 1625 2713 2034 2713 
Q 2441 2713 2670 2916 
Q 2900 3119 2900 3481 
Q 2900 3844 2670 4047 
Q 2441 4250 2034 4250 
Q 1625 4250 1398 4047 
Q 1172 3844 1172 3481 
z
" id="DejaVuSans-38" transform="scale(0.015625)"/>
       </defs>
       <use xlink:href="#DejaVuSans-38"/>
       <use x="63.623047" xlink:href="#DejaVuSans-30"/>
       <use x="127.246094" xlink:href="#DejaVuSans-30"/>
      </g>
     </g>
    </g>
    <g id="xtick_6">
     <g id="line2d_6">
      <g>
       <use style="stroke:#000000;stroke-width:0.8;" x="235.667546" xlink:href="#m6dbeb6356b" y="228.439219"/>
      </g>
     </g>
     <g id="text_6">
      <!-- 1000 -->
      <g transform="translate(222.942546 243.037656)scale(0.1 -0.1)">
       <defs>
        <path d="M 794 531 
L 1825 531 
L 1825 4091 
L 703 3866 
L 703 4441 
L 1819 4666 
L 2450 4666 
L 2450 531 
L 3481 531 
L 3481 0 
L 794 0 
L 794 531 
z
" id="DejaVuSans-31" transform="scale(0.015625)"/>
       </defs>
       <use xlink:href="#DejaVuSans-31"/>
       <use x="63.623047" xlink:href="#DejaVuSans-30"/>
       <use x="127.246094" xlink:href="#DejaVuSans-30"/>
       <use x="190.869141" xlink:href="#DejaVuSans-30"/>
      </g>
     </g>
    </g>
    <g id="xtick_7">
     <g id="line2d_7">
      <g>
       <use style="stroke:#000000;stroke-width:0.8;" x="273.736794" xlink:href="#m6dbeb6356b" y="228.439219"/>
      </g>
     </g>
     <g id="text_7">
      <!-- 1200 -->
      <g transform="translate(261.011794 243.037656)scale(0.1 -0.1)">
       <use xlink:href="#DejaVuSans-31"/>
       <use x="63.623047" xlink:href="#DejaVuSans-32"/>
       <use x="127.246094" xlink:href="#DejaVuSans-30"/>
       <use x="190.869141" xlink:href="#DejaVuSans-30"/>
      </g>
     </g>
    </g>
    <g id="xtick_8">
     <g id="line2d_8">
      <g>
       <use style="stroke:#000000;stroke-width:0.8;" x="311.806042" xlink:href="#m6dbeb6356b" y="228.439219"/>
      </g>
     </g>
     <g id="text_8">
      <!-- 1400 -->
      <g transform="translate(299.081042 243.037656)scale(0.1 -0.1)">
       <use xlink:href="#DejaVuSans-31"/>
       <use x="63.623047" xlink:href="#DejaVuSans-34"/>
       <use x="127.246094" xlink:href="#DejaVuSans-30"/>
       <use x="190.869141" xlink:href="#DejaVuSans-30"/>
      </g>
     </g>
    </g>
    <g id="xtick_9">
     <g id="line2d_9">
      <g>
       <use style="stroke:#000000;stroke-width:0.8;" x="349.875289" xlink:href="#m6dbeb6356b" y="228.439219"/>
      </g>
     </g>
     <g id="text_9">
      <!-- 1600 -->
      <g transform="translate(337.150289 243.037656)scale(0.1 -0.1)">
       <use xlink:href="#DejaVuSans-31"/>
       <use x="63.623047" xlink:href="#DejaVuSans-36"/>
       <use x="127.246094" xlink:href="#DejaVuSans-30"/>
       <use x="190.869141" xlink:href="#DejaVuSans-30"/>
      </g>
     </g>
    </g>
   </g>
   <g id="matplotlib.axis_2">
    <g id="ytick_1">
     <g id="line2d_10">
      <defs>
       <path d="M 0 0 
L -3.5 0 
" id="m82e42e1112" style="stroke:#000000;stroke-width:0.8;"/>
      </defs>
      <g>
       <use style="stroke:#000000;stroke-width:0.8;" x="30.103125" xlink:href="#m82e42e1112" y="228.439219"/>
      </g>
     </g>
     <g id="text_10">
      <!-- 0.0 -->
      <g transform="translate(7.2 232.238437)scale(0.1 -0.1)">
       <defs>
        <path d="M 684 794 
L 1344 794 
L 1344 0 
L 684 0 
L 684 794 
z
" id="DejaVuSans-2e" transform="scale(0.015625)"/>
       </defs>
       <use xlink:href="#DejaVuSans-30"/>
       <use x="63.623047" xlink:href="#DejaVuSans-2e"/>
       <use x="95.410156" xlink:href="#DejaVuSans-30"/>
      </g>
     </g>
    </g>
    <g id="ytick_2">
     <g id="line2d_11">
      <g>
       <use style="stroke:#000000;stroke-width:0.8;" x="30.103125" xlink:href="#m82e42e1112" y="197.376362"/>
      </g>
     </g>
     <g id="text_11">
      <!-- 0.2 -->
      <g transform="translate(7.2 201.17558)scale(0.1 -0.1)">
       <use xlink:href="#DejaVuSans-30"/>
       <use x="63.623047" xlink:href="#DejaVuSans-2e"/>
       <use x="95.410156" xlink:href="#DejaVuSans-32"/>
      </g>
     </g>
    </g>
    <g id="ytick_3">
     <g id="line2d_12">
      <g>
       <use style="stroke:#000000;stroke-width:0.8;" x="30.103125" xlink:href="#m82e42e1112" y="166.313504"/>
      </g>
     </g>
     <g id="text_12">
      <!-- 0.4 -->
      <g transform="translate(7.2 170.112723)scale(0.1 -0.1)">
       <use xlink:href="#DejaVuSans-30"/>
       <use x="63.623047" xlink:href="#DejaVuSans-2e"/>
       <use x="95.410156" xlink:href="#DejaVuSans-34"/>
      </g>
     </g>
    </g>
    <g id="ytick_4">
     <g id="line2d_13">
      <g>
       <use style="stroke:#000000;stroke-width:0.8;" x="30.103125" xlink:href="#m82e42e1112" y="135.250647"/>
      </g>
     </g>
     <g id="text_13">
      <!-- 0.6 -->
      <g transform="translate(7.2 139.049866)scale(0.1 -0.1)">
       <use xlink:href="#DejaVuSans-30"/>
       <use x="63.623047" xlink:href="#DejaVuSans-2e"/>
       <use x="95.410156" xlink:href="#DejaVuSans-36"/>
      </g>
     </g>
    </g>
    <g id="ytick_5">
     <g id="line2d_14">
      <g>
       <use style="stroke:#000000;stroke-width:0.8;" x="30.103125" xlink:href="#m82e42e1112" y="104.18779"/>
      </g>
     </g>
     <g id="text_14">
      <!-- 0.8 -->
      <g transform="translate(7.2 107.987009)scale(0.1 -0.1)">
       <use xlink:href="#DejaVuSans-30"/>
       <use x="63.623047" xlink:href="#DejaVuSans-2e"/>
       <use x="95.410156" xlink:href="#DejaVuSans-38"/>
      </g>
     </g>
    </g>
    <g id="ytick_6">
     <g id="line2d_15">
      <g>
       <use style="stroke:#000000;stroke-width:0.8;" x="30.103125" xlink:href="#m82e42e1112" y="73.124933"/>
      </g>
     </g>
     <g id="text_15">
      <!-- 1.0 -->
      <g transform="translate(7.2 76.924152)scale(0.1 -0.1)">
       <use xlink:href="#DejaVuSans-31"/>
       <use x="63.623047" xlink:href="#DejaVuSans-2e"/>
       <use x="95.410156" xlink:href="#DejaVuSans-30"/>
      </g>
     </g>
    </g>
    <g id="ytick_7">
     <g id="line2d_16">
      <g>
       <use style="stroke:#000000;stroke-width:0.8;" x="30.103125" xlink:href="#m82e42e1112" y="42.062076"/>
      </g>
     </g>
     <g id="text_16">
      <!-- 1.2 -->
      <g transform="translate(7.2 45.861295)scale(0.1 -0.1)">
       <use xlink:href="#DejaVuSans-31"/>
       <use x="63.623047" xlink:href="#DejaVuSans-2e"/>
       <use x="95.410156" xlink:href="#DejaVuSans-32"/>
      </g>
     </g>
    </g>
    <g id="ytick_8">
     <g id="line2d_17">
      <g>
       <use style="stroke:#000000;stroke-width:0.8;" x="30.103125" xlink:href="#m82e42e1112" y="10.999219"/>
      </g>
     </g>
     <g id="text_17">
      <!-- 1.4 -->
      <g transform="translate(7.2 14.798437)scale(0.1 -0.1)">
       <use xlink:href="#DejaVuSans-31"/>
       <use x="63.623047" xlink:href="#DejaVuSans-2e"/>
       <use x="95.410156" xlink:href="#DejaVuSans-34"/>
      </g>
     </g>
    </g>
   </g>
   <g id="line2d_18">
    <path clip-path="url(#p7bb945219c)" d="M 45.321307 84.433709 
L 46.082692 84.634014 
L 46.844077 84.586783 
L 47.605462 84.286714 
L 48.557193 83.624523 
L 50.651002 81.993836 
L 51.412386 81.736655 
L 51.983425 81.759902 
L 52.554464 81.983009 
L 53.315849 82.564893 
L 54.648273 84.023848 
L 55.600004 84.914026 
L 56.171042 85.166962 
L 56.551735 85.160857 
L 56.932427 84.98932 
L 57.503466 84.390793 
L 58.074505 83.371542 
L 58.83589 81.42789 
L 60.929698 75.489521 
L 61.310391 75.055018 
L 61.500737 75.005393 
L 61.691083 75.087464 
L 62.071776 75.706544 
L 62.452468 77.029187 
L 62.833161 79.163579 
L 63.4042 84.084618 
L 63.975238 91.250142 
L 64.736623 104.365976 
L 65.688354 125.801243 
L 68.92424 204.91347 
L 69.685625 216.154739 
L 70.256664 221.82534 
L 70.827703 225.403677 
L 71.398742 227.339633 
L 71.779434 227.982883 
L 72.160127 228.293257 
L 72.731165 228.428682 
L 74.063589 228.378779 
L 74.444281 228.19949 
L 74.824974 227.770813 
L 75.205666 226.941429 
L 75.586359 225.544944 
L 75.967051 223.41543 
L 76.53809 218.527483 
L 77.109129 211.299499 
L 77.870514 197.853956 
L 78.822245 175.78134 
L 81.677438 104.576186 
L 82.438823 91.95355 
L 83.200208 83.342173 
L 83.771247 79.273742 
L 84.342286 76.872819 
L 84.722978 75.989956 
L 85.103671 75.530005 
L 85.484363 75.369752 
L 86.055402 75.454949 
L 87.768518 75.988078 
L 88.529903 76.218685 
L 88.910596 76.521857 
L 89.291288 77.081804 
L 89.671981 78.016637 
L 90.052673 79.45301 
L 90.623712 82.826291 
L 91.19475 88.008287 
L 91.765789 95.291643 
L 92.527174 108.462871 
L 93.478905 129.938908 
L 96.524445 204.599538 
L 97.28583 216.115419 
L 97.856869 221.902826 
L 98.427908 225.520491 
L 98.8086 226.954103 
L 99.189292 227.799199 
L 99.569985 228.227391 
L 100.141024 228.426685 
L 101.473447 228.427118 
L 102.044486 228.230597 
L 102.425179 227.806228 
L 102.805871 226.966691 
L 103.186564 225.540182 
L 103.567256 223.357635 
L 104.138295 218.347193 
L 104.709333 210.956699 
L 105.470718 197.276241 
L 106.42245 174.989491 
L 109.087297 108.132677 
L 109.848682 94.913593 
L 110.610067 85.712005 
L 111.181106 81.258757 
L 111.752144 78.546865 
L 112.132837 77.50078 
L 112.513529 76.91054 
L 112.894222 76.647733 
L 113.46526 76.613636 
L 114.797684 76.759587 
L 115.559069 76.536595 
L 116.320454 76.33292 
L 116.701146 76.431557 
L 117.081839 76.807446 
L 117.462531 77.585857 
L 117.843224 78.898836 
L 118.223916 80.877824 
L 118.794955 85.358582 
L 119.365994 91.939359 
L 120.127379 104.255597 
L 120.888764 120.424603 
L 122.221187 154.866884 
L 123.743957 193.346812 
L 124.505342 208.042055 
L 125.266727 218.413531 
L 125.837766 223.39747 
L 126.408805 226.356907 
L 126.789497 227.458884 
L 127.17019 228.06393 
L 127.550882 228.33845 
L 128.121921 228.437569 
L 129.454345 228.395087 
L 129.835037 228.22307 
L 130.215729 227.791759 
L 130.596422 226.943635 
L 130.977114 225.50798 
L 131.357807 223.317157 
L 131.928846 218.299437 
L 132.499884 210.912316 
L 133.261269 197.258619 
L 134.213 175.039961 
L 136.877848 108.330957 
L 137.639233 95.055163 
L 138.400618 85.734991 
L 138.971656 81.15814 
L 139.542695 78.303107 
L 140.113734 76.763485 
L 140.494426 76.256841 
L 140.875119 76.02621 
L 141.446158 75.972724 
L 142.968927 76.036055 
L 143.730312 76.030706 
L 144.111005 76.175537 
L 144.491697 76.53993 
L 144.87239 77.236214 
L 145.253082 78.387533 
L 145.633775 80.121211 
L 146.204814 84.081546 
L 146.775852 89.986707 
L 147.346891 98.069976 
L 148.108276 112.29008 
L 149.060007 134.757441 
L 151.724854 201.040002 
L 152.486239 213.631531 
L 153.057278 220.210405 
L 153.628317 224.509727 
L 154.199356 226.940477 
L 154.580048 227.790316 
L 154.960741 228.22262 
L 155.531779 228.425779 
L 156.864203 228.427333 
L 157.435242 228.233818 
L 157.815934 227.814457 
L 158.196627 226.982906 
L 158.577319 225.567352 
L 158.958012 223.398195 
L 159.52905 218.409986 
L 160.100089 211.03949 
L 160.861474 197.371457 
L 161.813205 175.06051 
L 164.478053 107.943252 
L 165.239437 94.665276 
L 166.000822 85.441578 
L 166.571861 80.999087 
L 167.1429 78.319988 
L 167.523592 77.306141 
L 167.904285 76.754616 
L 168.284977 76.535196 
L 168.856016 76.570796 
L 170.18844 76.869476 
L 170.949825 76.708613 
L 171.71121 76.539191 
L 172.091902 76.643548 
L 172.472595 77.017644 
L 172.853287 77.787198 
L 173.23398 79.085004 
L 173.614672 81.04352 
L 174.185711 85.486394 
L 174.756749 92.024969 
L 175.518134 104.286711 
L 176.279519 120.412259 
L 177.611943 154.819697 
L 179.134713 193.311636 
L 179.896098 208.0196 
L 180.657483 218.401562 
L 181.228522 223.390776 
L 181.79956 226.353435 
L 182.180253 227.456721 
L 182.560945 228.062642 
L 182.941638 228.337766 
L 183.512676 228.437468 
L 184.8451 228.394342 
L 185.225793 228.22131 
L 185.606485 227.788603 
L 185.987178 226.938844 
L 186.36787 225.501567 
L 186.748562 223.309495 
L 187.319601 218.291549 
L 187.89064 210.907512 
L 188.652025 197.265018 
L 189.603756 175.07208 
L 192.268603 108.432707 
L 193.029988 95.150386 
L 193.791373 85.807258 
L 194.362412 81.204212 
L 194.933451 78.317871 
L 195.504489 76.744696 
L 195.885182 76.215905 
L 196.265874 75.964283 
L 196.836913 75.883104 
L 198.740376 75.880977 
L 199.311414 75.961045 
L 199.692107 76.212049 
L 200.072799 76.740347 
L 200.453492 77.663927 
L 200.834184 79.108298 
L 201.405223 82.524824 
L 201.976262 87.777931 
L 202.5473 95.146984 
L 203.308685 108.431037 
L 204.260416 130.007656 
L 207.305956 204.618182 
L 208.067341 216.107261 
L 208.63838 221.885951 
L 209.209419 225.503505 
L 209.590111 226.940178 
L 209.970804 227.789428 
L 210.351496 228.221745 
L 210.922535 228.425445 
L 212.254959 228.426866 
L 212.825997 228.231795 
L 213.20669 227.810919 
L 213.587382 226.977591 
L 213.968075 225.560145 
L 214.348767 223.38915 
L 214.919806 218.398674 
L 215.490845 211.027012 
L 216.25223 197.359949 
L 217.203961 175.055103 
L 219.868808 107.974867 
L 220.630193 94.706262 
L 221.391578 85.488172 
L 221.962617 81.046739 
L 222.533655 78.365782 
L 222.914348 77.349103 
L 223.29504 76.793555 
L 223.675733 76.569035 
L 224.246772 76.595286 
L 225.579195 76.867361 
L 226.34058 76.690822 
L 227.101965 76.507391 
L 227.482658 76.60584 
L 227.86335 76.974984 
L 228.244043 77.74068 
L 228.624735 79.035831 
L 229.005428 80.992962 
L 229.576466 85.436184 
L 230.147505 91.977898 
L 230.90889 104.247514 
L 231.670275 120.383825 
L 233.002699 154.811592 
L 234.525469 193.319498 
L 235.286853 208.030455 
L 236.048238 218.412214 
L 236.619277 223.399699 
L 237.190316 226.359869 
L 237.571008 227.461372 
L 237.951701 228.065618 
L 238.332393 228.339331 
L 238.903432 228.437666 
L 240.235856 228.395127 
L 240.616548 228.222776 
L 240.997241 227.790581 
L 241.377933 226.940877 
L 241.758626 225.502901 
L 242.139318 223.309096 
L 242.710357 218.286152 
L 243.281396 210.89396 
L 244.04278 197.236248 
L 244.994512 175.021278 
L 247.659359 108.373701 
L 248.420744 95.115762 
L 249.182129 85.806401 
L 249.753168 81.23171 
L 250.324206 78.373445 
L 250.895245 76.825508 
L 251.275938 76.310837 
L 251.65663 76.070519 
L 252.227669 76.000103 
L 253.750439 76.012734 
L 254.511824 75.98442 
L 254.892516 76.119571 
L 255.273209 76.475895 
L 255.653901 77.165984 
L 256.034594 78.313194 
L 256.415286 80.044996 
L 256.986325 84.006823 
L 257.557363 89.918454 
L 258.128402 98.012474 
L 258.889787 112.251464 
L 259.841518 134.744307 
L 262.506366 201.058097 
L 263.267751 213.645503 
L 263.838789 220.220001 
L 264.409828 224.515185 
L 264.980867 226.942851 
L 265.361559 227.791384 
L 265.742252 228.222947 
L 266.31329 228.425759 
L 267.645714 228.427191 
L 268.216753 228.233288 
L 268.597445 227.813793 
L 268.978138 226.982518 
L 269.35883 225.567973 
L 269.739523 223.400886 
L 270.310561 218.41833 
L 270.8816 211.056808 
L 271.642985 197.404744 
L 272.594716 175.113601 
L 275.259564 107.95003 
L 276.020949 94.622368 
L 276.782334 85.343302 
L 277.353372 80.862294 
L 277.924411 78.152546 
L 278.305104 77.124666 
L 278.685796 76.565331 
L 279.066488 76.344966 
L 279.637527 76.392698 
L 280.969951 76.779389 
L 281.731336 76.696693 
L 282.492721 76.612807 
L 282.873413 76.7585 
L 283.254106 77.170557 
L 283.634798 77.972905 
L 284.015491 79.296682 
L 284.396183 81.272938 
L 284.967222 85.724834 
L 285.538261 92.250231 
L 286.299646 104.46281 
L 287.061031 120.514111 
L 288.393454 154.786728 
L 289.916224 193.212075 
L 290.677609 207.931263 
L 291.438994 218.341215 
L 292.010033 223.353493 
L 292.581071 226.335178 
L 292.961764 227.447422 
L 293.342456 228.059081 
L 293.723149 228.337104 
L 294.294188 228.437606 
L 295.626611 228.396964 
L 296.007304 228.227664 
L 296.387996 227.799904 
L 296.768689 226.955505 
L 297.149381 225.522868 
L 297.530074 223.333438 
L 298.101112 218.313142 
L 298.672151 210.916984 
L 299.433536 197.243982 
L 300.385267 175.005514 
L 303.050115 108.462621 
L 303.8115 95.285676 
L 304.572885 86.048479 
L 305.143923 81.506023 
L 305.714962 78.65026 
L 306.286001 77.068469 
L 306.666693 76.509591 
L 307.237732 76.120678 
L 308.379809 75.868309 
L 310.283272 75.431985 
L 310.663964 75.729302 
L 311.044657 76.386144 
L 311.425349 77.529778 
L 311.806042 79.290331 
L 312.37708 83.357679 
L 312.948119 89.444804 
L 313.519158 97.769068 
L 314.280543 112.356067 
L 315.232274 135.2423 
L 317.706775 197.842616 
L 318.46816 211.290636 
L 319.039199 218.521014 
L 319.610237 223.411302 
L 320.181276 226.322436 
L 320.561969 227.415168 
L 320.942661 228.024642 
L 321.323354 228.311609 
L 321.894392 228.431009 
L 323.226816 228.368211 
L 323.607508 228.171009 
L 323.988201 227.713576 
L 324.368893 226.846095 
L 324.749586 225.406395 
L 325.130278 223.234971 
L 325.701317 218.303416 
L 326.272356 211.076348 
L 327.033741 197.722916 
L 327.985472 175.873623 
L 331.031012 100.704687 
L 331.792397 88.592412 
L 332.363435 82.191003 
L 332.934474 77.979269 
L 333.315167 76.265528 
L 333.695859 75.311287 
L 334.076552 75.003099 
L 334.266898 75.054112 
L 334.64759 75.49145 
L 335.218629 76.768262 
L 336.360706 80.287306 
L 337.312438 82.959621 
L 338.073823 84.40873 
L 338.644861 85.006891 
L 339.025554 85.177664 
L 339.406246 85.182621 
L 339.977285 84.927312 
L 340.73867 84.240452 
L 342.832479 82.095513 
L 343.593864 81.750507 
L 344.164902 81.724311 
L 344.735941 81.887195 
L 345.497326 82.341144 
L 348.542866 84.522515 
L 349.304251 84.638246 
L 349.684943 84.600053 
L 349.684943 84.600053 
" style="fill:none;stroke:#0000ff;stroke-linecap:square;stroke-width:1.5;"/>
   </g>
   <g id="line2d_19">
    <path clip-path="url(#p7bb945219c)" d="M 45.321307 90.401647 
L 46.65373 94.916921 
L 47.415115 96.894532 
L 47.986154 97.957164 
L 48.557193 98.586183 
L 48.937885 98.735945 
L 49.318578 98.652672 
L 49.69927 98.3239 
L 50.079963 97.739593 
L 50.651002 96.368761 
L 51.22204 94.395318 
L 51.983425 90.839321 
L 52.935156 85.019372 
L 54.077234 76.447408 
L 56.742081 55.644492 
L 57.503466 51.621576 
L 58.074505 49.802065 
L 58.455197 49.287538 
L 58.645544 49.263477 
L 58.83589 49.40449 
L 59.216582 50.207602 
L 59.597275 51.742767 
L 60.168313 55.492202 
L 60.739352 61.032308 
L 61.500737 71.186721 
L 62.452468 87.970738 
L 63.594546 112.763357 
L 66.830432 186.892779 
L 67.782163 203.079341 
L 68.543548 212.925358 
L 69.304933 219.989808 
L 69.875972 223.615686 
L 70.44701 226.019553 
L 71.018049 227.444231 
L 71.589088 228.154262 
L 72.160127 228.408611 
L 72.921511 228.422313 
L 74.444281 228.43089 
L 75.205666 228.364409 
L 75.586359 228.158493 
L 75.967051 227.735781 
L 76.347744 227.005304 
L 76.728436 225.868389 
L 77.299475 223.176905 
L 77.870514 219.001666 
L 78.441552 213.039809 
L 79.202937 201.920068 
L 79.964322 186.943829 
L 80.916054 163.025945 
L 82.248477 122.262514 
L 84.532632 51.334663 
L 85.294017 33.527925 
L 85.865056 23.61428 
L 86.436094 17.140189 
L 86.816787 14.880887 
L 87.007133 14.387603 
L 87.197479 14.322274 
L 87.387826 14.685025 
L 87.768518 16.684652 
L 88.149211 20.345348 
L 88.720249 28.78158 
L 89.481634 44.910383 
L 90.433365 71.124855 
L 94.24029 185.260832 
L 95.192021 203.960678 
L 95.953406 214.620741 
L 96.524445 220.266135 
L 97.095484 224.148129 
L 97.666523 226.566862 
L 98.237561 227.859964 
L 98.618254 228.267324 
L 98.998946 228.425261 
L 99.569985 228.386109 
L 100.902409 228.125206 
L 101.663794 228.245954 
L 102.615525 228.43317 
L 102.996217 228.337558 
L 103.37691 228.023997 
L 103.757602 227.397904 
L 104.138295 226.358836 
L 104.518987 224.804324 
L 105.090026 221.287819 
L 105.661065 216.07738 
L 106.232103 208.923567 
L 106.993488 196.096036 
L 107.754873 179.457555 
L 108.706604 153.824143 
L 110.229374 105.631049 
L 111.942491 52.76251 
L 112.894222 30.261176 
L 113.46526 20.605028 
L 114.036299 14.359727 
L 114.416992 12.23118 
L 114.607338 11.79608 
L 114.797684 11.784069 
L 114.98803 12.195327 
L 115.368723 14.278171 
L 115.749415 18.005478 
L 116.320454 26.517227 
L 117.081839 42.721595 
L 118.03357 69.036277 
L 122.030841 188.488252 
L 122.792226 203.232552 
L 123.553611 214.122395 
L 124.12465 219.91198 
L 124.695689 223.911553 
L 125.266727 226.421692 
L 125.837766 227.782367 
L 126.218458 228.223236 
L 126.599151 228.406797 
L 127.17019 228.393768 
L 128.69296 228.162003 
L 130.596422 228.33319 
L 130.977114 228.014408 
L 131.357807 227.387393 
L 131.738499 226.35447 
L 132.119192 224.816546 
L 132.690231 221.35328 
L 133.261269 216.243855 
L 133.832308 209.255498 
L 134.593693 196.77703 
L 135.355078 180.663368 
L 136.306809 155.955886 
L 138.019925 103.830553 
L 139.542695 59.399911 
L 140.494426 37.965005 
L 141.065465 28.72382 
L 141.636504 22.678894 
L 142.017196 20.551893 
L 142.207543 20.076196 
L 142.397889 19.995657 
L 142.588235 20.31044 
L 142.968927 22.117417 
L 143.34962 25.461859 
L 143.920659 33.214906 
L 144.682044 48.123266 
L 145.633775 72.534493 
L 147.346891 124.451599 
L 148.869661 168.226314 
L 149.821392 190.322731 
L 150.582777 204.137748 
L 151.344162 214.401235 
L 152.105547 221.364834 
L 152.676586 224.726395 
L 153.247624 226.805579 
L 153.818663 227.91449 
L 154.199356 228.268951 
L 154.770394 228.437736 
L 155.722126 228.329939 
L 156.673857 228.310004 
L 158.00628 228.409065 
L 158.386973 228.245218 
L 158.767665 227.865476 
L 159.148358 227.181624 
L 159.52905 226.099634 
L 160.100089 223.519858 
L 160.671128 219.513482 
L 161.242166 213.802332 
L 162.003551 203.177166 
L 162.764936 188.89349 
L 163.716668 166.073482 
L 164.858745 132.89257 
L 167.523592 52.057555 
L 168.475324 31.035469 
L 169.046362 22.258664 
L 169.617401 16.835561 
L 169.998093 15.204723 
L 170.18844 14.999649 
L 170.378786 15.203678 
L 170.569132 15.81605 
L 170.949825 18.25313 
L 171.330517 22.266515 
L 171.901556 31.072965 
L 172.662941 47.417755 
L 173.614672 73.534926 
L 177.421597 185.926655 
L 178.373328 204.336029 
L 179.134713 214.840508 
L 179.705752 220.405837 
L 180.27679 224.231949 
L 180.847829 226.612876 
L 181.418868 227.881241 
L 181.79956 228.277516 
L 182.180253 228.427774 
L 182.751291 228.382325 
L 184.083715 228.124253 
L 184.8451 228.251236 
L 185.796831 228.437563 
L 186.177524 228.334645 
L 186.558216 228.007534 
L 186.938909 227.360151 
L 187.319601 226.290704 
L 187.700294 224.695654 
L 188.271332 221.09797 
L 188.842371 215.782122 
L 189.41341 208.501965 
L 190.174795 195.485996 
L 190.93618 178.661156 
L 191.887911 152.852642 
L 193.601027 98.505887 
L 195.123797 52.587117 
L 196.075528 30.845236 
L 196.646567 21.729717 
L 197.217606 16.061939 
L 197.598298 14.325859 
L 197.788644 14.086084 
L 197.978991 14.26736 
L 198.169337 14.868792 
L 198.550029 17.318399 
L 198.930722 21.387507 
L 199.501761 30.348487 
L 200.263145 46.999712 
L 201.214877 73.579597 
L 204.831455 182.505547 
L 205.783186 201.932074 
L 206.544571 213.177531 
L 207.305956 220.822454 
L 207.876995 224.506308 
L 208.448034 226.76758 
L 209.019072 227.946624 
L 209.399765 228.301805 
L 209.780457 228.425408 
L 210.351496 228.36391 
L 211.493574 228.131634 
L 212.254959 228.223089 
L 213.397036 228.42335 
L 213.777728 228.283636 
L 214.158421 227.905932 
L 214.539113 227.194906 
L 214.919806 226.050543 
L 215.490845 223.301813 
L 216.061883 219.029944 
L 216.632922 212.959378 
L 217.394307 201.733276 
L 218.155692 186.764949 
L 219.107423 163.09893 
L 220.439847 123.148312 
L 222.724002 53.824699 
L 223.675733 32.499432 
L 224.246772 23.509907 
L 224.81781 17.850553 
L 225.198503 16.048922 
L 225.388849 15.754461 
L 225.579195 15.866473 
L 225.769542 16.384243 
L 226.150234 18.624651 
L 226.530926 22.432141 
L 227.101965 30.915371 
L 227.86335 46.812975 
L 228.815081 72.377557 
L 232.812352 187.942963 
L 233.764084 205.460251 
L 234.525469 215.399153 
L 235.096507 220.65492 
L 235.667546 224.275427 
L 236.238585 226.548673 
L 236.809623 227.792183 
L 237.190316 228.20719 
L 237.761355 228.430144 
L 238.52274 228.37199 
L 239.664817 228.303149 
L 241.187587 228.373412 
L 241.568279 228.153926 
L 241.948972 227.695259 
L 242.329664 226.908527 
L 242.710357 225.700405 
L 243.281396 222.892826 
L 243.852434 218.624225 
L 244.423473 212.63539 
L 245.184858 201.657395 
L 245.946243 187.099217 
L 246.897974 164.141731 
L 248.230398 125.382615 
L 250.514553 57.725207 
L 251.466284 36.662362 
L 252.037323 27.67747 
L 252.608361 21.913254 
L 252.989054 19.986898 
L 253.1794 19.615513 
L 253.369746 19.641885 
L 253.560092 20.066106 
L 253.940785 22.09914 
L 254.321477 25.678255 
L 254.892516 33.795833 
L 255.653901 49.200836 
L 256.605632 74.211723 
L 258.509095 132.830458 
L 259.841518 170.898478 
L 260.79325 192.787915 
L 261.554634 206.278586 
L 262.316019 216.115739 
L 262.887058 221.267146 
L 263.458097 224.761976 
L 264.029136 226.895891 
L 264.409828 227.724384 
L 264.790521 228.193534 
L 265.171213 228.399356 
L 265.742252 228.405912 
L 267.265022 228.163278 
L 268.216753 228.357385 
L 268.787792 228.43784 
L 269.168484 228.349012 
L 269.549177 228.049452 
L 269.929869 227.444513 
L 270.310561 226.433057 
L 270.691254 224.911376 
L 271.262293 221.450195 
L 271.833331 216.296405 
L 272.40437 209.193732 
L 273.165755 196.415879 
L 273.92714 179.798544 
L 274.878871 154.151651 
L 276.401641 105.889401 
L 278.114757 52.992453 
L 279.066488 30.52658 
L 279.637527 20.903715 
L 280.208566 14.692893 
L 280.589258 12.584022 
L 280.779605 12.156829 
L 280.969951 12.151027 
L 281.160297 12.566506 
L 281.54099 14.650752 
L 281.921682 18.368538 
L 282.492721 26.842633 
L 283.254106 42.95088 
L 284.205837 69.080827 
L 288.203108 187.900416 
L 288.964493 202.697126 
L 289.725878 213.69109 
L 290.487263 221.130472 
L 291.058302 224.69689 
L 291.62934 226.872415 
L 292.010033 227.716268 
L 292.390725 228.193334 
L 292.771418 228.401367 
L 293.342456 228.403721 
L 294.865226 228.135563 
L 295.816958 228.332626 
L 296.578342 228.424207 
L 296.959035 228.274969 
L 297.339727 227.882188 
L 297.72042 227.149195 
L 298.101112 225.974401 
L 298.672151 223.160106 
L 299.24319 218.792498 
L 299.814229 212.588592 
L 300.575613 201.114568 
L 301.336998 185.809076 
L 302.28873 161.600877 
L 303.621153 120.761424 
L 305.714962 55.531866 
L 306.666693 32.984531 
L 307.237732 23.316571 
L 307.808771 17.08807 
L 308.189463 14.991209 
L 308.379809 14.578666 
L 308.570156 14.593752 
L 308.760502 15.036596 
L 309.141194 17.195422 
L 309.521887 21.01384 
L 310.092925 29.682602 
L 310.85431 46.10674 
L 311.806042 72.638665 
L 315.42262 182.135868 
L 316.374351 201.564914 
L 317.135736 212.777677 
L 317.897121 220.402299 
L 318.46816 224.102663 
L 319.039199 226.41987 
L 319.610237 227.696381 
L 319.99093 228.136068 
L 320.561969 228.405888 
L 321.323354 228.422207 
L 322.846123 228.430859 
L 323.607508 228.356602 
L 323.988201 228.1551 
L 324.368893 227.755335 
L 324.749586 227.081703 
L 325.130278 226.055522 
L 325.701317 223.68537 
L 326.272356 220.104653 
L 326.843394 215.116882 
L 327.604779 206.065904 
L 328.366164 194.218874 
L 329.317896 175.831573 
L 330.650319 145.387563 
L 332.934474 92.507074 
L 333.886205 74.838909 
L 334.64759 63.825607 
L 335.408975 55.916599 
L 335.980014 52.058874 
L 336.360706 50.445602 
L 336.741399 49.560868 
L 336.931745 49.37806 
L 337.122091 49.359852 
L 337.312438 49.499279 
L 337.69313 50.22107 
L 338.073823 51.480031 
L 338.644861 54.226949 
L 339.406246 59.121788 
L 340.73867 69.530489 
L 342.642132 84.145706 
L 343.593864 89.921169 
L 344.355248 93.471571 
L 345.116633 95.989299 
L 345.687672 97.193392 
L 346.258711 97.828158 
L 346.639403 97.949865 
L 347.020096 97.844395 
L 347.400788 97.526192 
L 347.971827 96.686213 
L 348.733212 94.987337 
L 349.684943 92.166169 
L 349.684943 92.166169 
" style="fill:none;stroke:#008080;stroke-linecap:square;stroke-width:1.5;"/>
   </g>
   <g id="patch_3">
    <path d="M 30.103125 228.439219 
L 30.103125 10.999219 
" style="fill:none;stroke:#000000;stroke-linecap:square;stroke-linejoin:miter;stroke-width:0.8;"/>
   </g>
   <g id="patch_4">
    <path d="M 364.903125 228.439219 
L 364.903125 10.999219 
" style="fill:none;stroke:#000000;stroke-linecap:square;stroke-linejoin:miter;stroke-width:0.8;"/>
   </g>
   <g id="patch_5">
    <path d="M 30.103125 228.439219 
L 364.903125 228.439219 
" style="fill:none;stroke:#000000;stroke-linecap:square;stroke-linejoin:miter;stroke-width:0.8;"/>
   </g>
   <g id="patch_6">
    <path d="M 30.103125 10.999219 
L 364.903125 10.999219 
" style="fill:none;stroke:#000000;stroke-linecap:square;stroke-linejoin:miter;stroke-width:0.8;"/>
   </g>
   <g id="legend_1">
    <g id="patch_7">
     <path d="M 37.103125 48.355469 
L 109.796875 48.355469 
Q 111.796875 48.355469 111.796875 46.355469 
L 111.796875 17.999219 
Q 111.796875 15.999219 109.796875 15.999219 
L 37.103125 15.999219 
Q 35.103125 15.999219 35.103125 17.999219 
L 35.103125 46.355469 
Q 35.103125 48.355469 37.103125 48.355469 
z
" style="fill:#ffffff;opacity:0.8;stroke:#cccccc;stroke-linejoin:miter;"/>
    </g>
    <g id="line2d_20">
     <path d="M 39.103125 24.097656 
L 59.103125 24.097656 
" style="fill:none;stroke:#0000ff;stroke-linecap:square;stroke-width:1.5;"/>
    </g>
    <g id="line2d_21"/>
    <g id="text_18">
     <!-- ta=0.29 -->
     <g transform="translate(67.103125 27.597656)scale(0.1 -0.1)">
      <defs>
       <path d="M 1172 4494 
L 1172 3500 
L 2356 3500 
L 2356 3053 
L 1172 3053 
L 1172 1153 
Q 1172 725 1289 603 
Q 1406 481 1766 481 
L 2356 481 
L 2356 0 
L 1766 0 
Q 1100 0 847 248 
Q 594 497 594 1153 
L 594 3053 
L 172 3053 
L 172 3500 
L 594 3500 
L 594 4494 
L 1172 4494 
z
" id="DejaVuSans-74" transform="scale(0.015625)"/>
       <path d="M 2194 1759 
Q 1497 1759 1228 1600 
Q 959 1441 959 1056 
Q 959 750 1161 570 
Q 1363 391 1709 391 
Q 2188 391 2477 730 
Q 2766 1069 2766 1631 
L 2766 1759 
L 2194 1759 
z
M 3341 1997 
L 3341 0 
L 2766 0 
L 2766 531 
Q 2569 213 2275 61 
Q 1981 -91 1556 -91 
Q 1019 -91 701 211 
Q 384 513 384 1019 
Q 384 1609 779 1909 
Q 1175 2209 1959 2209 
L 2766 2209 
L 2766 2266 
Q 2766 2663 2505 2880 
Q 2244 3097 1772 3097 
Q 1472 3097 1187 3025 
Q 903 2953 641 2809 
L 641 3341 
Q 956 3463 1253 3523 
Q 1550 3584 1831 3584 
Q 2591 3584 2966 3190 
Q 3341 2797 3341 1997 
z
" id="DejaVuSans-61" transform="scale(0.015625)"/>
       <path d="M 678 2906 
L 4684 2906 
L 4684 2381 
L 678 2381 
L 678 2906 
z
M 678 1631 
L 4684 1631 
L 4684 1100 
L 678 1100 
L 678 1631 
z
" id="DejaVuSans-3d" transform="scale(0.015625)"/>
       <path d="M 703 97 
L 703 672 
Q 941 559 1184 500 
Q 1428 441 1663 441 
Q 2288 441 2617 861 
Q 2947 1281 2994 2138 
Q 2813 1869 2534 1725 
Q 2256 1581 1919 1581 
Q 1219 1581 811 2004 
Q 403 2428 403 3163 
Q 403 3881 828 4315 
Q 1253 4750 1959 4750 
Q 2769 4750 3195 4129 
Q 3622 3509 3622 2328 
Q 3622 1225 3098 567 
Q 2575 -91 1691 -91 
Q 1453 -91 1209 -44 
Q 966 3 703 97 
z
M 1959 2075 
Q 2384 2075 2632 2365 
Q 2881 2656 2881 3163 
Q 2881 3666 2632 3958 
Q 2384 4250 1959 4250 
Q 1534 4250 1286 3958 
Q 1038 3666 1038 3163 
Q 1038 2656 1286 2365 
Q 1534 2075 1959 2075 
z
" id="DejaVuSans-39" transform="scale(0.015625)"/>
      </defs>
      <use xlink:href="#DejaVuSans-74"/>
      <use x="39.208984" xlink:href="#DejaVuSans-61"/>
      <use x="100.488281" xlink:href="#DejaVuSans-3d"/>
      <use x="184.277344" xlink:href="#DejaVuSans-30"/>
      <use x="247.900391" xlink:href="#DejaVuSans-2e"/>
      <use x="279.6875" xlink:href="#DejaVuSans-32"/>
      <use x="343.310547" xlink:href="#DejaVuSans-39"/>
     </g>
    </g>
    <g id="line2d_22">
     <path d="M 39.103125 38.775781 
L 59.103125 38.775781 
" style="fill:none;stroke:#008080;stroke-linecap:square;stroke-width:1.5;"/>
    </g>
    <g id="line2d_23"/>
    <g id="text_19">
     <!-- ta=0 -->
     <g transform="translate(67.103125 42.275781)scale(0.1 -0.1)">
      <use xlink:href="#DejaVuSans-74"/>
      <use x="39.208984" xlink:href="#DejaVuSans-61"/>
      <use x="100.488281" xlink:href="#DejaVuSans-3d"/>
      <use x="184.277344" xlink:href="#DejaVuSans-30"/>
     </g>
    </g>
   </g>
  </g>
 </g>
 <defs>
  <clipPath id="p7bb945219c">
   <rect height="217.44" width="334.8" x="30.103125" y="10.999219"/>
  </clipPath>
 </defs>
</svg>
