<?xml version="1.0" encoding="utf-8" standalone="no"?>
<!DOCTYPE svg PUBLIC "-//W3C//DTD SVG 1.1//EN"
  "http://www.w3.org/Graphics/SVG/1.1/DTD/svg11.dtd">
<svg height="265.995469pt" version="1.1" viewBox="0 0 378.88325 265.995469" width="378.88325pt" xmlns="http://www.w3.org/2000/svg" xmlns:xlink="http://www.w3.org/1999/xlink">
 <metadata>
  <rdf:RDF xmlns:cc="http://creativecommons.org/ns#" xmlns:dc="http://purl.org/dc/elements/1.1/" xmlns:rdf="http://www.w3.org/1999/02/22-rdf-syntax-ns#">
   <cc:Work>
    <dc:type rdf:resource="http://purl.org/dc/dcmitype/StillImage"/>
    <dc:date>2022-03-02T15:57:03.760597</dc:date>
    <dc:format>image/svg+xml</dc:format>
    <dc:creator>
     <cc:Agent>
      <dc:title>Matplotlib v3.4.3, https://matplotlib.org/</dc:title>
     </cc:Agent>
    </dc:creator>
   </cc:Work>
  </rdf:RDF>
 </metadata>
 <defs>
  <style type="text/css">*{stroke-linecap:butt;stroke-linejoin:round;}</style>
 </defs>
 <g id="figure_1">
  <g id="patch_1">
   <path d="M 0 265.995469 
L 378.88325 265.995469 
L 378.88325 0 
L 0 0 
z
" style="fill:none;"/>
  </g>
  <g id="axes_1">
   <g id="patch_2">
    <path d="M 46.965625 228.439219 
L 314.805625 228.439219 
L 314.805625 10.999219 
L 46.965625 10.999219 
z
" style="fill:#ffffff;"/>
   </g>
   <g id="PathCollection_1">
    <path clip-path="url(#p1c8b115d5a)" d="M 113.925625 107.048939 
L 125.085625 104.676433 
L 136.245625 109.457021 
L 147.405625 102.784828 
L 148.14279 101.599219 
L 152.196461 92.539219 
L 154.611276 83.479219 
L 156.147445 74.419219 
L 157.155661 65.359219 
L 157.818852 56.299219 
L 158.240613 47.239219 
L 158.482856 38.179219 
L 158.565625 30.812938 
L 158.580393 29.119219 
L 158.566184 20.059219 
L 158.565625 20.012361 
L 158.44421 10.999219 
L 147.405625 10.999219 
L 136.245625 10.999219 
L 125.085625 10.999219 
L 113.925625 10.999219 
L 102.765625 10.999219 
L 96.672487 10.999219 
L 96.740255 20.059219 
L 96.982557 29.119219 
L 97.400956 38.179219 
L 97.999999 47.239219 
L 98.787246 56.299219 
L 99.773349 65.359219 
L 100.972123 74.419219 
L 102.400608 83.479219 
L 102.765625 85.51611 
L 106.434073 92.539219 
L 111.146252 101.599219 
z
" style="fill:#48186a;"/>
   </g>
   <g id="PathCollection_2">
    <path clip-path="url(#p1c8b115d5a)" d="M 169.725625 228.439219 
L 180.885625 228.439219 
L 192.045625 228.439219 
L 203.205625 228.439219 
L 214.365625 228.439219 
L 225.525625 228.439219 
L 236.685625 228.439219 
L 247.845625 228.439219 
L 259.005625 228.439219 
L 270.165625 228.439219 
L 281.325625 228.439219 
L 292.485625 228.439219 
L 303.645625 228.439219 
L 314.805625 228.439219 
L 314.805625 219.379219 
L 314.805625 210.319219 
L 314.805625 201.259219 
L 314.805625 192.199219 
L 314.805625 183.139219 
L 314.805625 179.061545 
L 303.645625 178.331132 
L 292.485625 179.20308 
L 281.325625 178.685138 
L 273.638247 174.079219 
L 270.165625 171.277755 
L 259.005625 166.161977 
L 257.256198 165.019219 
L 247.845625 159.161464 
L 245.105894 155.959219 
L 241.138981 146.899219 
L 239.378295 137.839219 
L 238.408527 128.779219 
L 237.808922 119.719219 
L 237.410918 110.659219 
L 237.134208 101.599219 
L 236.935897 92.539219 
L 236.79114 83.479219 
L 236.685625 74.50848 
L 236.68145 74.419219 
L 236.327611 65.359219 
L 236.052302 56.299219 
L 235.84472 47.239219 
L 235.697776 38.179219 
L 235.607358 29.119219 
L 235.571944 20.059219 
L 235.592492 10.999219 
L 225.525625 10.999219 
L 214.365625 10.999219 
L 203.205625 10.999219 
L 192.045625 10.999219 
L 180.885625 10.999219 
L 171.964925 10.999219 
L 172.27513 20.059219 
L 172.479285 29.119219 
L 172.597135 38.179219 
L 172.641189 47.239219 
L 172.61882 56.299219 
L 172.533424 65.359219 
L 172.384972 74.419219 
L 172.170121 83.479219 
L 171.881897 92.539219 
L 171.508904 101.599219 
L 171.033874 110.659219 
L 170.431167 119.719219 
L 169.725625 128.089808 
L 169.461684 119.719219 
L 169.262748 110.659219 
L 169.125699 101.599219 
L 169.033337 92.539219 
L 168.974769 83.479219 
L 168.942915 74.419219 
L 168.93315 65.359219 
L 168.942512 56.299219 
L 168.969249 47.239219 
L 169.012553 38.179219 
L 169.072424 29.119219 
L 169.149632 20.059219 
L 169.245761 10.999219 
L 158.565625 10.999219 
L 158.44421 10.999219 
L 158.565625 20.012361 
L 158.566184 20.059219 
L 158.580393 29.119219 
L 158.565625 30.812938 
L 158.482856 38.179219 
L 158.240613 47.239219 
L 157.818852 56.299219 
L 157.155661 65.359219 
L 156.147445 74.419219 
L 154.611276 83.479219 
L 152.196461 92.539219 
L 148.14279 101.599219 
L 147.405625 102.784828 
L 136.245625 109.457021 
L 125.085625 104.676433 
L 113.925625 107.048939 
L 111.146252 101.599219 
L 106.434073 92.539219 
L 102.765625 85.51611 
L 102.400608 83.479219 
L 100.972123 74.419219 
L 99.773349 65.359219 
L 98.787246 56.299219 
L 97.999999 47.239219 
L 97.400956 38.179219 
L 96.982557 29.119219 
L 96.740255 20.059219 
L 96.672487 10.999219 
L 91.605625 10.999219 
L 83.8777 10.999219 
L 83.918764 20.059219 
L 84.165118 29.119219 
L 84.629494 38.179219 
L 85.33011 47.239219 
L 86.291414 56.299219 
L 87.545038 65.359219 
L 89.130965 74.419219 
L 91.098884 83.479219 
L 91.605625 85.48727 
L 92.545885 92.539219 
L 93.928997 101.599219 
L 95.515469 110.659219 
L 97.32313 119.719219 
L 99.369215 128.779219 
L 101.668129 137.839219 
L 102.765625 141.881806 
L 105.064166 146.899219 
L 108.826913 155.959219 
L 112.133417 165.019219 
L 113.925625 170.661707 
L 123.239862 165.019219 
L 125.085625 164.035 
L 126.750299 165.019219 
L 136.245625 171.075803 
L 147.405625 166.288635 
L 150.98629 174.079219 
L 153.718326 183.139219 
L 155.602753 192.199219 
L 156.968256 201.259219 
L 157.985758 210.319219 
L 158.565625 217.213561 
L 158.974888 219.379219 
L 159.926094 228.439219 
z
" style="fill:#424086;"/>
    <path clip-path="url(#p1c8b115d5a)" d="M 69.285625 44.898424 
L 70.735349 38.179219 
L 72.065041 29.119219 
L 72.836218 20.059219 
L 73.123461 10.999219 
L 69.285625 10.999219 
L 63.955788 10.999219 
L 64.312662 20.059219 
L 65.356718 29.119219 
L 67.215578 38.179219 
z
" style="fill:#424086;"/>
   </g>
   <g id="PathCollection_3">
    <path clip-path="url(#p1c8b115d5a)" d="M 102.765625 228.439219 
L 113.925625 228.439219 
L 125.085625 228.439219 
L 136.245625 228.439219 
L 147.405625 228.439219 
L 158.565625 228.439219 
L 159.926094 228.439219 
L 158.974888 219.379219 
L 158.565625 217.213561 
L 157.985758 210.319219 
L 156.968256 201.259219 
L 155.602753 192.199219 
L 153.718326 183.139219 
L 150.98629 174.079219 
L 147.405625 166.288635 
L 136.245625 171.075803 
L 126.750299 165.019219 
L 125.085625 164.035 
L 123.239862 165.019219 
L 113.925625 170.661707 
L 112.133417 165.019219 
L 108.826913 155.959219 
L 105.064166 146.899219 
L 102.765625 141.881806 
L 101.668129 137.839219 
L 99.369215 128.779219 
L 97.32313 119.719219 
L 95.515469 110.659219 
L 93.928997 101.599219 
L 92.545885 92.539219 
L 91.605625 85.48727 
L 91.098884 83.479219 
L 89.130965 74.419219 
L 87.545038 65.359219 
L 86.291414 56.299219 
L 85.33011 47.239219 
L 84.629494 38.179219 
L 84.165118 29.119219 
L 83.918764 20.059219 
L 83.8777 10.999219 
L 80.445625 10.999219 
L 73.123461 10.999219 
L 72.836218 20.059219 
L 72.065041 29.119219 
L 70.735349 38.179219 
L 69.285625 44.898424 
L 67.215578 38.179219 
L 65.356718 29.119219 
L 64.312662 20.059219 
L 63.955788 10.999219 
L 58.125625 10.999219 
L 46.965625 10.999219 
L 46.965625 20.059219 
L 46.965625 29.119219 
L 46.965625 38.179219 
L 46.965625 47.239219 
L 46.965625 56.299219 
L 46.965625 65.359219 
L 46.965625 74.419219 
L 46.965625 83.479219 
L 46.965625 92.539219 
L 46.965625 101.599219 
L 46.965625 110.659219 
L 46.965625 119.719219 
L 46.965625 128.779219 
L 46.965625 137.839219 
L 46.965625 146.899219 
L 46.965625 153.479908 
L 56.797447 146.899219 
L 58.125625 145.98701 
L 60.648953 146.899219 
L 69.285625 149.943339 
L 73.902655 146.899219 
L 80.445625 142.25758 
L 82.082113 146.899219 
L 85.656946 155.959219 
L 89.759035 165.019219 
L 91.605625 168.917362 
L 92.630977 174.079219 
L 94.402888 183.139219 
L 96.12638 192.199219 
L 97.69953 201.259219 
L 99.000895 210.319219 
L 99.904208 219.379219 
L 100.301315 228.439219 
z
" style="fill:#33638d;"/>
    <path clip-path="url(#p1c8b115d5a)" d="M 281.325625 178.685138 
L 292.485625 179.20308 
L 303.645625 178.331132 
L 314.805625 179.061545 
L 314.805625 174.079219 
L 314.805625 165.019219 
L 314.805625 155.959219 
L 314.805625 149.149526 
L 303.645625 148.326109 
L 292.485625 149.130641 
L 281.325625 149.224494 
L 279.405728 146.899219 
L 273.389264 137.839219 
L 270.165625 131.23109 
L 268.820318 128.779219 
L 264.916088 119.719219 
L 262.222478 110.659219 
L 260.29189 101.599219 
L 259.005625 93.49675 
L 256.935706 92.539219 
L 247.845625 88.41049 
L 247.137199 83.479219 
L 246.089726 74.419219 
L 245.283253 65.359219 
L 244.662034 56.299219 
L 244.187933 47.239219 
L 243.834521 38.179219 
L 243.583505 29.119219 
L 243.422515 20.059219 
L 243.343738 10.999219 
L 236.685625 10.999219 
L 235.592492 10.999219 
L 235.571944 20.059219 
L 235.607358 29.119219 
L 235.697776 38.179219 
L 235.84472 47.239219 
L 236.052302 56.299219 
L 236.327611 65.359219 
L 236.68145 74.419219 
L 236.685625 74.50848 
L 236.79114 83.479219 
L 236.935897 92.539219 
L 237.134208 101.599219 
L 237.410918 110.659219 
L 237.808922 119.719219 
L 238.408527 128.779219 
L 239.378295 137.839219 
L 241.138981 146.899219 
L 245.105894 155.959219 
L 247.845625 159.161464 
L 257.256198 165.019219 
L 259.005625 166.161977 
L 270.165625 171.277755 
L 273.638247 174.079219 
z
" style="fill:#33638d;"/>
    <path clip-path="url(#p1c8b115d5a)" d="M 169.725625 128.089808 
L 170.431167 119.719219 
L 171.033874 110.659219 
L 171.508904 101.599219 
L 171.881897 92.539219 
L 172.170121 83.479219 
L 172.384972 74.419219 
L 172.533424 65.359219 
L 172.61882 56.299219 
L 172.641189 47.239219 
L 172.597135 38.179219 
L 172.479285 29.119219 
L 172.27513 20.059219 
L 171.964925 10.999219 
L 169.725625 10.999219 
L 169.245761 10.999219 
L 169.149632 20.059219 
L 169.072424 29.119219 
L 169.012553 38.179219 
L 168.969249 47.239219 
L 168.942512 56.299219 
L 168.93315 65.359219 
L 168.942915 74.419219 
L 168.974769 83.479219 
L 169.033337 92.539219 
L 169.125699 101.599219 
L 169.262748 110.659219 
L 169.461684 119.719219 
z
" style="fill:#33638d;"/>
   </g>
   <g id="PathCollection_4">
    <path clip-path="url(#p1c8b115d5a)" d="M 58.125625 228.439219 
L 69.285625 228.439219 
L 80.445625 228.439219 
L 91.605625 228.439219 
L 100.301315 228.439219 
L 99.904208 219.379219 
L 99.000895 210.319219 
L 97.69953 201.259219 
L 96.12638 192.199219 
L 94.402888 183.139219 
L 92.630977 174.079219 
L 91.605625 168.917362 
L 89.759035 165.019219 
L 85.656946 155.959219 
L 82.082113 146.899219 
L 80.445625 142.25758 
L 73.902655 146.899219 
L 69.285625 149.943339 
L 60.648953 146.899219 
L 58.125625 145.98701 
L 56.797447 146.899219 
L 46.965625 153.479908 
L 46.965625 155.959219 
L 46.965625 165.019219 
L 46.965625 174.079219 
L 46.965625 183.139219 
L 46.965625 192.199219 
L 46.965625 201.259219 
L 46.965625 210.319219 
L 46.965625 219.379219 
L 46.965625 228.439219 
z
" style="fill:#26828e;"/>
    <path clip-path="url(#p1c8b115d5a)" d="M 281.325625 149.224494 
L 292.485625 149.130641 
L 303.645625 148.326109 
L 314.805625 149.149526 
L 314.805625 146.899219 
L 314.805625 137.839219 
L 314.805625 128.779219 
L 314.805625 124.458785 
L 303.645625 123.580505 
L 292.485625 124.291826 
L 281.325625 124.944969 
L 278.541108 119.719219 
L 274.650947 110.659219 
L 271.649669 101.599219 
L 270.165625 96.10542 
L 269.151122 92.539219 
L 267.046358 83.479219 
L 265.437416 74.419219 
L 264.202648 65.359219 
L 263.259396 56.299219 
L 262.550409 47.239219 
L 262.035689 38.179219 
L 261.687452 29.119219 
L 261.486952 20.059219 
L 261.422514 10.999219 
L 259.005625 10.999219 
L 247.845625 10.999219 
L 243.343738 10.999219 
L 243.422515 20.059219 
L 243.583505 29.119219 
L 243.834521 38.179219 
L 244.187933 47.239219 
L 244.662034 56.299219 
L 245.283253 65.359219 
L 246.089726 74.419219 
L 247.137199 83.479219 
L 247.845625 88.41049 
L 256.935706 92.539219 
L 259.005625 93.49675 
L 260.29189 101.599219 
L 262.222478 110.659219 
L 264.916088 119.719219 
L 268.820318 128.779219 
L 270.165625 131.23109 
L 273.389264 137.839219 
L 279.405728 146.899219 
z
" style="fill:#26828e;"/>
   </g>
   <g id="PathCollection_5">
    <path clip-path="url(#p1c8b115d5a)" d="M 281.325625 124.944969 
L 292.485625 124.291826 
L 303.645625 123.580505 
L 314.805625 124.458785 
L 314.805625 119.719219 
L 314.805625 110.659219 
L 314.805625 101.599219 
L 314.805625 100.353776 
L 303.645625 99.372013 
L 292.485625 99.989717 
L 281.325625 101.383943 
L 278.145947 92.539219 
L 275.560725 83.479219 
L 273.499228 74.419219 
L 271.852608 65.359219 
L 270.543732 56.299219 
L 270.165625 53.039729 
L 269.481816 47.239219 
L 268.678451 38.179219 
L 268.119587 29.119219 
L 267.777241 20.059219 
L 267.633797 10.999219 
L 261.422514 10.999219 
L 261.486952 20.059219 
L 261.687452 29.119219 
L 262.035689 38.179219 
L 262.550409 47.239219 
L 263.259396 56.299219 
L 264.202648 65.359219 
L 265.437416 74.419219 
L 267.046358 83.479219 
L 269.151122 92.539219 
L 270.165625 96.10542 
L 271.649669 101.599219 
L 274.650947 110.659219 
L 278.541108 119.719219 
z
" style="fill:#1fa088;"/>
   </g>
   <g id="PathCollection_6">
    <path clip-path="url(#p1c8b115d5a)" d="M 281.325625 101.383943 
L 292.485625 99.989717 
L 303.645625 99.372013 
L 314.805625 100.353776 
L 314.805625 92.539219 
L 314.805625 83.479219 
L 314.805625 74.419219 
L 314.805625 73.322857 
L 303.645625 72.147113 
L 292.485625 72.582165 
L 285.263377 74.419219 
L 281.325625 75.292202 
L 281.089097 74.419219 
L 279.008255 65.359219 
L 277.36427 56.299219 
L 276.08635 47.239219 
L 275.124453 38.179219 
L 274.444251 29.119219 
L 274.023941 20.059219 
L 273.852362 10.999219 
L 270.165625 10.999219 
L 267.633797 10.999219 
L 267.777241 20.059219 
L 268.119587 29.119219 
L 268.678451 38.179219 
L 269.481816 47.239219 
L 270.165625 53.039729 
L 270.543732 56.299219 
L 271.852608 65.359219 
L 273.499228 74.419219 
L 275.560725 83.479219 
L 278.145947 92.539219 
z
" style="fill:#3fbc73;"/>
   </g>
   <g id="PathCollection_7">
    <path clip-path="url(#p1c8b115d5a)" d="M 281.325625 75.292202 
L 285.263377 74.419219 
L 292.485625 72.582165 
L 303.645625 72.147113 
L 314.805625 73.322857 
L 314.805625 65.359219 
L 314.805625 56.299219 
L 314.805625 47.239219 
L 314.805625 38.179219 
L 314.805625 29.119219 
L 314.805625 28.670138 
L 303.645625 25.675692 
L 292.485625 24.171736 
L 289.302743 29.119219 
L 281.325625 36.06519 
L 280.71878 29.119219 
L 280.24396 20.059219 
L 280.075939 10.999219 
L 273.852362 10.999219 
L 274.023941 20.059219 
L 274.444251 29.119219 
L 275.124453 38.179219 
L 276.08635 47.239219 
L 277.36427 56.299219 
L 279.008255 65.359219 
L 281.089097 74.419219 
z
" style="fill:#84d44b;"/>
   </g>
   <g id="PathCollection_8">
    <path clip-path="url(#p1c8b115d5a)" d="M 281.325625 36.06519 
L 289.302743 29.119219 
L 292.485625 24.171736 
L 303.645625 25.675692 
L 314.805625 28.670138 
L 314.805625 20.059219 
L 314.805625 10.999219 
L 303.645625 10.999219 
L 292.485625 10.999219 
L 281.325625 10.999219 
L 280.075939 10.999219 
L 280.24396 20.059219 
L 280.71878 29.119219 
z
" style="fill:#d8e219;"/>
   </g>
   <g id="matplotlib.axis_1">
    <g id="xtick_1">
     <g id="line2d_1">
      <defs>
       <path d="M 0 0 
L 0 3.5 
" id="m88941c94b4" style="stroke:#000000;stroke-width:0.8;"/>
      </defs>
      <g>
       <use style="stroke:#000000;stroke-width:0.8;" x="69.285625" xlink:href="#m88941c94b4" y="228.439219"/>
      </g>
     </g>
     <g id="text_1">
      <!-- 0.75 -->
      <g transform="translate(58.152813 243.037656)scale(0.1 -0.1)">
       <defs>
        <path d="M 2034 4250 
Q 1547 4250 1301 3770 
Q 1056 3291 1056 2328 
Q 1056 1369 1301 889 
Q 1547 409 2034 409 
Q 2525 409 2770 889 
Q 3016 1369 3016 2328 
Q 3016 3291 2770 3770 
Q 2525 4250 2034 4250 
z
M 2034 4750 
Q 2819 4750 3233 4129 
Q 3647 3509 3647 2328 
Q 3647 1150 3233 529 
Q 2819 -91 2034 -91 
Q 1250 -91 836 529 
Q 422 1150 422 2328 
Q 422 3509 836 4129 
Q 1250 4750 2034 4750 
z
" id="DejaVuSans-30" transform="scale(0.015625)"/>
        <path d="M 684 794 
L 1344 794 
L 1344 0 
L 684 0 
L 684 794 
z
" id="DejaVuSans-2e" transform="scale(0.015625)"/>
        <path d="M 525 4666 
L 3525 4666 
L 3525 4397 
L 1831 0 
L 1172 0 
L 2766 4134 
L 525 4134 
L 525 4666 
z
" id="DejaVuSans-37" transform="scale(0.015625)"/>
        <path d="M 691 4666 
L 3169 4666 
L 3169 4134 
L 1269 4134 
L 1269 2991 
Q 1406 3038 1543 3061 
Q 1681 3084 1819 3084 
Q 2600 3084 3056 2656 
Q 3513 2228 3513 1497 
Q 3513 744 3044 326 
Q 2575 -91 1722 -91 
Q 1428 -91 1123 -41 
Q 819 9 494 109 
L 494 744 
Q 775 591 1075 516 
Q 1375 441 1709 441 
Q 2250 441 2565 725 
Q 2881 1009 2881 1497 
Q 2881 1984 2565 2268 
Q 2250 2553 1709 2553 
Q 1456 2553 1204 2497 
Q 953 2441 691 2322 
L 691 4666 
z
" id="DejaVuSans-35" transform="scale(0.015625)"/>
       </defs>
       <use xlink:href="#DejaVuSans-30"/>
       <use x="63.623047" xlink:href="#DejaVuSans-2e"/>
       <use x="95.410156" xlink:href="#DejaVuSans-37"/>
       <use x="159.033203" xlink:href="#DejaVuSans-35"/>
      </g>
     </g>
    </g>
    <g id="xtick_2">
     <g id="line2d_2">
      <g>
       <use style="stroke:#000000;stroke-width:0.8;" x="106.485625" xlink:href="#m88941c94b4" y="228.439219"/>
      </g>
     </g>
     <g id="text_2">
      <!-- 1.00 -->
      <g transform="translate(95.352813 243.037656)scale(0.1 -0.1)">
       <defs>
        <path d="M 794 531 
L 1825 531 
L 1825 4091 
L 703 3866 
L 703 4441 
L 1819 4666 
L 2450 4666 
L 2450 531 
L 3481 531 
L 3481 0 
L 794 0 
L 794 531 
z
" id="DejaVuSans-31" transform="scale(0.015625)"/>
       </defs>
       <use xlink:href="#DejaVuSans-31"/>
       <use x="63.623047" xlink:href="#DejaVuSans-2e"/>
       <use x="95.410156" xlink:href="#DejaVuSans-30"/>
       <use x="159.033203" xlink:href="#DejaVuSans-30"/>
      </g>
     </g>
    </g>
    <g id="xtick_3">
     <g id="line2d_3">
      <g>
       <use style="stroke:#000000;stroke-width:0.8;" x="143.685625" xlink:href="#m88941c94b4" y="228.439219"/>
      </g>
     </g>
     <g id="text_3">
      <!-- 1.25 -->
      <g transform="translate(132.552813 243.037656)scale(0.1 -0.1)">
       <defs>
        <path d="M 1228 531 
L 3431 531 
L 3431 0 
L 469 0 
L 469 531 
Q 828 903 1448 1529 
Q 2069 2156 2228 2338 
Q 2531 2678 2651 2914 
Q 2772 3150 2772 3378 
Q 2772 3750 2511 3984 
Q 2250 4219 1831 4219 
Q 1534 4219 1204 4116 
Q 875 4013 500 3803 
L 500 4441 
Q 881 4594 1212 4672 
Q 1544 4750 1819 4750 
Q 2544 4750 2975 4387 
Q 3406 4025 3406 3419 
Q 3406 3131 3298 2873 
Q 3191 2616 2906 2266 
Q 2828 2175 2409 1742 
Q 1991 1309 1228 531 
z
" id="DejaVuSans-32" transform="scale(0.015625)"/>
       </defs>
       <use xlink:href="#DejaVuSans-31"/>
       <use x="63.623047" xlink:href="#DejaVuSans-2e"/>
       <use x="95.410156" xlink:href="#DejaVuSans-32"/>
       <use x="159.033203" xlink:href="#DejaVuSans-35"/>
      </g>
     </g>
    </g>
    <g id="xtick_4">
     <g id="line2d_4">
      <g>
       <use style="stroke:#000000;stroke-width:0.8;" x="180.885625" xlink:href="#m88941c94b4" y="228.439219"/>
      </g>
     </g>
     <g id="text_4">
      <!-- 1.50 -->
      <g transform="translate(169.752813 243.037656)scale(0.1 -0.1)">
       <use xlink:href="#DejaVuSans-31"/>
       <use x="63.623047" xlink:href="#DejaVuSans-2e"/>
       <use x="95.410156" xlink:href="#DejaVuSans-35"/>
       <use x="159.033203" xlink:href="#DejaVuSans-30"/>
      </g>
     </g>
    </g>
    <g id="xtick_5">
     <g id="line2d_5">
      <g>
       <use style="stroke:#000000;stroke-width:0.8;" x="218.085625" xlink:href="#m88941c94b4" y="228.439219"/>
      </g>
     </g>
     <g id="text_5">
      <!-- 1.75 -->
      <g transform="translate(206.952813 243.037656)scale(0.1 -0.1)">
       <use xlink:href="#DejaVuSans-31"/>
       <use x="63.623047" xlink:href="#DejaVuSans-2e"/>
       <use x="95.410156" xlink:href="#DejaVuSans-37"/>
       <use x="159.033203" xlink:href="#DejaVuSans-35"/>
      </g>
     </g>
    </g>
    <g id="xtick_6">
     <g id="line2d_6">
      <g>
       <use style="stroke:#000000;stroke-width:0.8;" x="255.285625" xlink:href="#m88941c94b4" y="228.439219"/>
      </g>
     </g>
     <g id="text_6">
      <!-- 2.00 -->
      <g transform="translate(244.152813 243.037656)scale(0.1 -0.1)">
       <use xlink:href="#DejaVuSans-32"/>
       <use x="63.623047" xlink:href="#DejaVuSans-2e"/>
       <use x="95.410156" xlink:href="#DejaVuSans-30"/>
       <use x="159.033203" xlink:href="#DejaVuSans-30"/>
      </g>
     </g>
    </g>
    <g id="xtick_7">
     <g id="line2d_7">
      <g>
       <use style="stroke:#000000;stroke-width:0.8;" x="292.485625" xlink:href="#m88941c94b4" y="228.439219"/>
      </g>
     </g>
     <g id="text_7">
      <!-- 2.25 -->
      <g transform="translate(281.352813 243.037656)scale(0.1 -0.1)">
       <use xlink:href="#DejaVuSans-32"/>
       <use x="63.623047" xlink:href="#DejaVuSans-2e"/>
       <use x="95.410156" xlink:href="#DejaVuSans-32"/>
       <use x="159.033203" xlink:href="#DejaVuSans-35"/>
      </g>
     </g>
    </g>
    <g id="text_8">
     <!-- Iris radius b [mm] -->
     <g transform="translate(136.321563 256.715781)scale(0.1 -0.1)">
      <defs>
       <path d="M 628 4666 
L 1259 4666 
L 1259 0 
L 628 0 
L 628 4666 
z
" id="DejaVuSans-49" transform="scale(0.015625)"/>
       <path d="M 2631 2963 
Q 2534 3019 2420 3045 
Q 2306 3072 2169 3072 
Q 1681 3072 1420 2755 
Q 1159 2438 1159 1844 
L 1159 0 
L 581 0 
L 581 3500 
L 1159 3500 
L 1159 2956 
Q 1341 3275 1631 3429 
Q 1922 3584 2338 3584 
Q 2397 3584 2469 3576 
Q 2541 3569 2628 3553 
L 2631 2963 
z
" id="DejaVuSans-72" transform="scale(0.015625)"/>
       <path d="M 603 3500 
L 1178 3500 
L 1178 0 
L 603 0 
L 603 3500 
z
M 603 4863 
L 1178 4863 
L 1178 4134 
L 603 4134 
L 603 4863 
z
" id="DejaVuSans-69" transform="scale(0.015625)"/>
       <path d="M 2834 3397 
L 2834 2853 
Q 2591 2978 2328 3040 
Q 2066 3103 1784 3103 
Q 1356 3103 1142 2972 
Q 928 2841 928 2578 
Q 928 2378 1081 2264 
Q 1234 2150 1697 2047 
L 1894 2003 
Q 2506 1872 2764 1633 
Q 3022 1394 3022 966 
Q 3022 478 2636 193 
Q 2250 -91 1575 -91 
Q 1294 -91 989 -36 
Q 684 19 347 128 
L 347 722 
Q 666 556 975 473 
Q 1284 391 1588 391 
Q 1994 391 2212 530 
Q 2431 669 2431 922 
Q 2431 1156 2273 1281 
Q 2116 1406 1581 1522 
L 1381 1569 
Q 847 1681 609 1914 
Q 372 2147 372 2553 
Q 372 3047 722 3315 
Q 1072 3584 1716 3584 
Q 2034 3584 2315 3537 
Q 2597 3491 2834 3397 
z
" id="DejaVuSans-73" transform="scale(0.015625)"/>
       <path id="DejaVuSans-20" transform="scale(0.015625)"/>
       <path d="M 2194 1759 
Q 1497 1759 1228 1600 
Q 959 1441 959 1056 
Q 959 750 1161 570 
Q 1363 391 1709 391 
Q 2188 391 2477 730 
Q 2766 1069 2766 1631 
L 2766 1759 
L 2194 1759 
z
M 3341 1997 
L 3341 0 
L 2766 0 
L 2766 531 
Q 2569 213 2275 61 
Q 1981 -91 1556 -91 
Q 1019 -91 701 211 
Q 384 513 384 1019 
Q 384 1609 779 1909 
Q 1175 2209 1959 2209 
L 2766 2209 
L 2766 2266 
Q 2766 2663 2505 2880 
Q 2244 3097 1772 3097 
Q 1472 3097 1187 3025 
Q 903 2953 641 2809 
L 641 3341 
Q 956 3463 1253 3523 
Q 1550 3584 1831 3584 
Q 2591 3584 2966 3190 
Q 3341 2797 3341 1997 
z
" id="DejaVuSans-61" transform="scale(0.015625)"/>
       <path d="M 2906 2969 
L 2906 4863 
L 3481 4863 
L 3481 0 
L 2906 0 
L 2906 525 
Q 2725 213 2448 61 
Q 2172 -91 1784 -91 
Q 1150 -91 751 415 
Q 353 922 353 1747 
Q 353 2572 751 3078 
Q 1150 3584 1784 3584 
Q 2172 3584 2448 3432 
Q 2725 3281 2906 2969 
z
M 947 1747 
Q 947 1113 1208 752 
Q 1469 391 1925 391 
Q 2381 391 2643 752 
Q 2906 1113 2906 1747 
Q 2906 2381 2643 2742 
Q 2381 3103 1925 3103 
Q 1469 3103 1208 2742 
Q 947 2381 947 1747 
z
" id="DejaVuSans-64" transform="scale(0.015625)"/>
       <path d="M 544 1381 
L 544 3500 
L 1119 3500 
L 1119 1403 
Q 1119 906 1312 657 
Q 1506 409 1894 409 
Q 2359 409 2629 706 
Q 2900 1003 2900 1516 
L 2900 3500 
L 3475 3500 
L 3475 0 
L 2900 0 
L 2900 538 
Q 2691 219 2414 64 
Q 2138 -91 1772 -91 
Q 1169 -91 856 284 
Q 544 659 544 1381 
z
M 1991 3584 
L 1991 3584 
z
" id="DejaVuSans-75" transform="scale(0.015625)"/>
       <path d="M 3116 1747 
Q 3116 2381 2855 2742 
Q 2594 3103 2138 3103 
Q 1681 3103 1420 2742 
Q 1159 2381 1159 1747 
Q 1159 1113 1420 752 
Q 1681 391 2138 391 
Q 2594 391 2855 752 
Q 3116 1113 3116 1747 
z
M 1159 2969 
Q 1341 3281 1617 3432 
Q 1894 3584 2278 3584 
Q 2916 3584 3314 3078 
Q 3713 2572 3713 1747 
Q 3713 922 3314 415 
Q 2916 -91 2278 -91 
Q 1894 -91 1617 61 
Q 1341 213 1159 525 
L 1159 0 
L 581 0 
L 581 4863 
L 1159 4863 
L 1159 2969 
z
" id="DejaVuSans-62" transform="scale(0.015625)"/>
       <path d="M 550 4863 
L 1875 4863 
L 1875 4416 
L 1125 4416 
L 1125 -397 
L 1875 -397 
L 1875 -844 
L 550 -844 
L 550 4863 
z
" id="DejaVuSans-5b" transform="scale(0.015625)"/>
       <path d="M 3328 2828 
Q 3544 3216 3844 3400 
Q 4144 3584 4550 3584 
Q 5097 3584 5394 3201 
Q 5691 2819 5691 2113 
L 5691 0 
L 5113 0 
L 5113 2094 
Q 5113 2597 4934 2840 
Q 4756 3084 4391 3084 
Q 3944 3084 3684 2787 
Q 3425 2491 3425 1978 
L 3425 0 
L 2847 0 
L 2847 2094 
Q 2847 2600 2669 2842 
Q 2491 3084 2119 3084 
Q 1678 3084 1418 2786 
Q 1159 2488 1159 1978 
L 1159 0 
L 581 0 
L 581 3500 
L 1159 3500 
L 1159 2956 
Q 1356 3278 1631 3431 
Q 1906 3584 2284 3584 
Q 2666 3584 2933 3390 
Q 3200 3197 3328 2828 
z
" id="DejaVuSans-6d" transform="scale(0.015625)"/>
       <path d="M 1947 4863 
L 1947 -844 
L 622 -844 
L 622 -397 
L 1369 -397 
L 1369 4416 
L 622 4416 
L 622 4863 
L 1947 4863 
z
" id="DejaVuSans-5d" transform="scale(0.015625)"/>
      </defs>
      <use xlink:href="#DejaVuSans-49"/>
      <use x="29.492188" xlink:href="#DejaVuSans-72"/>
      <use x="70.605469" xlink:href="#DejaVuSans-69"/>
      <use x="98.388672" xlink:href="#DejaVuSans-73"/>
      <use x="150.488281" xlink:href="#DejaVuSans-20"/>
      <use x="182.275391" xlink:href="#DejaVuSans-72"/>
      <use x="223.388672" xlink:href="#DejaVuSans-61"/>
      <use x="284.667969" xlink:href="#DejaVuSans-64"/>
      <use x="348.144531" xlink:href="#DejaVuSans-69"/>
      <use x="375.927734" xlink:href="#DejaVuSans-75"/>
      <use x="439.306641" xlink:href="#DejaVuSans-73"/>
      <use x="491.40625" xlink:href="#DejaVuSans-20"/>
      <use x="523.193359" xlink:href="#DejaVuSans-62"/>
      <use x="586.669922" xlink:href="#DejaVuSans-20"/>
      <use x="618.457031" xlink:href="#DejaVuSans-5b"/>
      <use x="657.470703" xlink:href="#DejaVuSans-6d"/>
      <use x="754.882812" xlink:href="#DejaVuSans-6d"/>
      <use x="852.294922" xlink:href="#DejaVuSans-5d"/>
     </g>
    </g>
   </g>
   <g id="matplotlib.axis_2">
    <g id="ytick_1">
     <g id="line2d_8">
      <defs>
       <path d="M 0 0 
L -3.5 0 
" id="md3712f5c86" style="stroke:#000000;stroke-width:0.8;"/>
      </defs>
      <g>
       <use style="stroke:#000000;stroke-width:0.8;" x="46.965625" xlink:href="#md3712f5c86" y="228.439219"/>
      </g>
     </g>
     <g id="text_9">
      <!-- 0 -->
      <g transform="translate(33.603125 232.238437)scale(0.1 -0.1)">
       <use xlink:href="#DejaVuSans-30"/>
      </g>
     </g>
    </g>
    <g id="ytick_2">
     <g id="line2d_9">
      <g>
       <use style="stroke:#000000;stroke-width:0.8;" x="46.965625" xlink:href="#md3712f5c86" y="204.279219"/>
      </g>
     </g>
     <g id="text_10">
      <!-- 20 -->
      <g transform="translate(27.240625 208.078437)scale(0.1 -0.1)">
       <use xlink:href="#DejaVuSans-32"/>
       <use x="63.623047" xlink:href="#DejaVuSans-30"/>
      </g>
     </g>
    </g>
    <g id="ytick_3">
     <g id="line2d_10">
      <g>
       <use style="stroke:#000000;stroke-width:0.8;" x="46.965625" xlink:href="#md3712f5c86" y="180.119219"/>
      </g>
     </g>
     <g id="text_11">
      <!-- 40 -->
      <g transform="translate(27.240625 183.918437)scale(0.1 -0.1)">
       <defs>
        <path d="M 2419 4116 
L 825 1625 
L 2419 1625 
L 2419 4116 
z
M 2253 4666 
L 3047 4666 
L 3047 1625 
L 3713 1625 
L 3713 1100 
L 3047 1100 
L 3047 0 
L 2419 0 
L 2419 1100 
L 313 1100 
L 313 1709 
L 2253 4666 
z
" id="DejaVuSans-34" transform="scale(0.015625)"/>
       </defs>
       <use xlink:href="#DejaVuSans-34"/>
       <use x="63.623047" xlink:href="#DejaVuSans-30"/>
      </g>
     </g>
    </g>
    <g id="ytick_4">
     <g id="line2d_11">
      <g>
       <use style="stroke:#000000;stroke-width:0.8;" x="46.965625" xlink:href="#md3712f5c86" y="155.959219"/>
      </g>
     </g>
     <g id="text_12">
      <!-- 60 -->
      <g transform="translate(27.240625 159.758437)scale(0.1 -0.1)">
       <defs>
        <path d="M 2113 2584 
Q 1688 2584 1439 2293 
Q 1191 2003 1191 1497 
Q 1191 994 1439 701 
Q 1688 409 2113 409 
Q 2538 409 2786 701 
Q 3034 994 3034 1497 
Q 3034 2003 2786 2293 
Q 2538 2584 2113 2584 
z
M 3366 4563 
L 3366 3988 
Q 3128 4100 2886 4159 
Q 2644 4219 2406 4219 
Q 1781 4219 1451 3797 
Q 1122 3375 1075 2522 
Q 1259 2794 1537 2939 
Q 1816 3084 2150 3084 
Q 2853 3084 3261 2657 
Q 3669 2231 3669 1497 
Q 3669 778 3244 343 
Q 2819 -91 2113 -91 
Q 1303 -91 875 529 
Q 447 1150 447 2328 
Q 447 3434 972 4092 
Q 1497 4750 2381 4750 
Q 2619 4750 2861 4703 
Q 3103 4656 3366 4563 
z
" id="DejaVuSans-36" transform="scale(0.015625)"/>
       </defs>
       <use xlink:href="#DejaVuSans-36"/>
       <use x="63.623047" xlink:href="#DejaVuSans-30"/>
      </g>
     </g>
    </g>
    <g id="ytick_5">
     <g id="line2d_12">
      <g>
       <use style="stroke:#000000;stroke-width:0.8;" x="46.965625" xlink:href="#md3712f5c86" y="131.799219"/>
      </g>
     </g>
     <g id="text_13">
      <!-- 80 -->
      <g transform="translate(27.240625 135.598437)scale(0.1 -0.1)">
       <defs>
        <path d="M 2034 2216 
Q 1584 2216 1326 1975 
Q 1069 1734 1069 1313 
Q 1069 891 1326 650 
Q 1584 409 2034 409 
Q 2484 409 2743 651 
Q 3003 894 3003 1313 
Q 3003 1734 2745 1975 
Q 2488 2216 2034 2216 
z
M 1403 2484 
Q 997 2584 770 2862 
Q 544 3141 544 3541 
Q 544 4100 942 4425 
Q 1341 4750 2034 4750 
Q 2731 4750 3128 4425 
Q 3525 4100 3525 3541 
Q 3525 3141 3298 2862 
Q 3072 2584 2669 2484 
Q 3125 2378 3379 2068 
Q 3634 1759 3634 1313 
Q 3634 634 3220 271 
Q 2806 -91 2034 -91 
Q 1263 -91 848 271 
Q 434 634 434 1313 
Q 434 1759 690 2068 
Q 947 2378 1403 2484 
z
M 1172 3481 
Q 1172 3119 1398 2916 
Q 1625 2713 2034 2713 
Q 2441 2713 2670 2916 
Q 2900 3119 2900 3481 
Q 2900 3844 2670 4047 
Q 2441 4250 2034 4250 
Q 1625 4250 1398 4047 
Q 1172 3844 1172 3481 
z
" id="DejaVuSans-38" transform="scale(0.015625)"/>
       </defs>
       <use xlink:href="#DejaVuSans-38"/>
       <use x="63.623047" xlink:href="#DejaVuSans-30"/>
      </g>
     </g>
    </g>
    <g id="ytick_6">
     <g id="line2d_13">
      <g>
       <use style="stroke:#000000;stroke-width:0.8;" x="46.965625" xlink:href="#md3712f5c86" y="107.639219"/>
      </g>
     </g>
     <g id="text_14">
      <!-- 100 -->
      <g transform="translate(20.878125 111.438437)scale(0.1 -0.1)">
       <use xlink:href="#DejaVuSans-31"/>
       <use x="63.623047" xlink:href="#DejaVuSans-30"/>
       <use x="127.246094" xlink:href="#DejaVuSans-30"/>
      </g>
     </g>
    </g>
    <g id="ytick_7">
     <g id="line2d_14">
      <g>
       <use style="stroke:#000000;stroke-width:0.8;" x="46.965625" xlink:href="#md3712f5c86" y="83.479219"/>
      </g>
     </g>
     <g id="text_15">
      <!-- 120 -->
      <g transform="translate(20.878125 87.278437)scale(0.1 -0.1)">
       <use xlink:href="#DejaVuSans-31"/>
       <use x="63.623047" xlink:href="#DejaVuSans-32"/>
       <use x="127.246094" xlink:href="#DejaVuSans-30"/>
      </g>
     </g>
    </g>
    <g id="ytick_8">
     <g id="line2d_15">
      <g>
       <use style="stroke:#000000;stroke-width:0.8;" x="46.965625" xlink:href="#md3712f5c86" y="59.319219"/>
      </g>
     </g>
     <g id="text_16">
      <!-- 140 -->
      <g transform="translate(20.878125 63.118437)scale(0.1 -0.1)">
       <use xlink:href="#DejaVuSans-31"/>
       <use x="63.623047" xlink:href="#DejaVuSans-34"/>
       <use x="127.246094" xlink:href="#DejaVuSans-30"/>
      </g>
     </g>
    </g>
    <g id="ytick_9">
     <g id="line2d_16">
      <g>
       <use style="stroke:#000000;stroke-width:0.8;" x="46.965625" xlink:href="#md3712f5c86" y="35.159219"/>
      </g>
     </g>
     <g id="text_17">
      <!-- 160 -->
      <g transform="translate(20.878125 38.958437)scale(0.1 -0.1)">
       <use xlink:href="#DejaVuSans-31"/>
       <use x="63.623047" xlink:href="#DejaVuSans-36"/>
       <use x="127.246094" xlink:href="#DejaVuSans-30"/>
      </g>
     </g>
    </g>
    <g id="ytick_10">
     <g id="line2d_17">
      <g>
       <use style="stroke:#000000;stroke-width:0.8;" x="46.965625" xlink:href="#md3712f5c86" y="10.999219"/>
      </g>
     </g>
     <g id="text_18">
      <!-- 180 -->
      <g transform="translate(20.878125 14.798437)scale(0.1 -0.1)">
       <use xlink:href="#DejaVuSans-31"/>
       <use x="63.623047" xlink:href="#DejaVuSans-38"/>
       <use x="127.246094" xlink:href="#DejaVuSans-30"/>
      </g>
     </g>
    </g>
    <g id="text_19">
     <!-- Relative mask phase [deg] -->
     <g transform="translate(14.798438 186.499687)rotate(-90)scale(0.1 -0.1)">
      <defs>
       <path d="M 2841 2188 
Q 3044 2119 3236 1894 
Q 3428 1669 3622 1275 
L 4263 0 
L 3584 0 
L 2988 1197 
Q 2756 1666 2539 1819 
Q 2322 1972 1947 1972 
L 1259 1972 
L 1259 0 
L 628 0 
L 628 4666 
L 2053 4666 
Q 2853 4666 3247 4331 
Q 3641 3997 3641 3322 
Q 3641 2881 3436 2590 
Q 3231 2300 2841 2188 
z
M 1259 4147 
L 1259 2491 
L 2053 2491 
Q 2509 2491 2742 2702 
Q 2975 2913 2975 3322 
Q 2975 3731 2742 3939 
Q 2509 4147 2053 4147 
L 1259 4147 
z
" id="DejaVuSans-52" transform="scale(0.015625)"/>
       <path d="M 3597 1894 
L 3597 1613 
L 953 1613 
Q 991 1019 1311 708 
Q 1631 397 2203 397 
Q 2534 397 2845 478 
Q 3156 559 3463 722 
L 3463 178 
Q 3153 47 2828 -22 
Q 2503 -91 2169 -91 
Q 1331 -91 842 396 
Q 353 884 353 1716 
Q 353 2575 817 3079 
Q 1281 3584 2069 3584 
Q 2775 3584 3186 3129 
Q 3597 2675 3597 1894 
z
M 3022 2063 
Q 3016 2534 2758 2815 
Q 2500 3097 2075 3097 
Q 1594 3097 1305 2825 
Q 1016 2553 972 2059 
L 3022 2063 
z
" id="DejaVuSans-65" transform="scale(0.015625)"/>
       <path d="M 603 4863 
L 1178 4863 
L 1178 0 
L 603 0 
L 603 4863 
z
" id="DejaVuSans-6c" transform="scale(0.015625)"/>
       <path d="M 1172 4494 
L 1172 3500 
L 2356 3500 
L 2356 3053 
L 1172 3053 
L 1172 1153 
Q 1172 725 1289 603 
Q 1406 481 1766 481 
L 2356 481 
L 2356 0 
L 1766 0 
Q 1100 0 847 248 
Q 594 497 594 1153 
L 594 3053 
L 172 3053 
L 172 3500 
L 594 3500 
L 594 4494 
L 1172 4494 
z
" id="DejaVuSans-74" transform="scale(0.015625)"/>
       <path d="M 191 3500 
L 800 3500 
L 1894 563 
L 2988 3500 
L 3597 3500 
L 2284 0 
L 1503 0 
L 191 3500 
z
" id="DejaVuSans-76" transform="scale(0.015625)"/>
       <path d="M 581 4863 
L 1159 4863 
L 1159 1991 
L 2875 3500 
L 3609 3500 
L 1753 1863 
L 3688 0 
L 2938 0 
L 1159 1709 
L 1159 0 
L 581 0 
L 581 4863 
z
" id="DejaVuSans-6b" transform="scale(0.015625)"/>
       <path d="M 1159 525 
L 1159 -1331 
L 581 -1331 
L 581 3500 
L 1159 3500 
L 1159 2969 
Q 1341 3281 1617 3432 
Q 1894 3584 2278 3584 
Q 2916 3584 3314 3078 
Q 3713 2572 3713 1747 
Q 3713 922 3314 415 
Q 2916 -91 2278 -91 
Q 1894 -91 1617 61 
Q 1341 213 1159 525 
z
M 3116 1747 
Q 3116 2381 2855 2742 
Q 2594 3103 2138 3103 
Q 1681 3103 1420 2742 
Q 1159 2381 1159 1747 
Q 1159 1113 1420 752 
Q 1681 391 2138 391 
Q 2594 391 2855 752 
Q 3116 1113 3116 1747 
z
" id="DejaVuSans-70" transform="scale(0.015625)"/>
       <path d="M 3513 2113 
L 3513 0 
L 2938 0 
L 2938 2094 
Q 2938 2591 2744 2837 
Q 2550 3084 2163 3084 
Q 1697 3084 1428 2787 
Q 1159 2491 1159 1978 
L 1159 0 
L 581 0 
L 581 4863 
L 1159 4863 
L 1159 2956 
Q 1366 3272 1645 3428 
Q 1925 3584 2291 3584 
Q 2894 3584 3203 3211 
Q 3513 2838 3513 2113 
z
" id="DejaVuSans-68" transform="scale(0.015625)"/>
       <path d="M 2906 1791 
Q 2906 2416 2648 2759 
Q 2391 3103 1925 3103 
Q 1463 3103 1205 2759 
Q 947 2416 947 1791 
Q 947 1169 1205 825 
Q 1463 481 1925 481 
Q 2391 481 2648 825 
Q 2906 1169 2906 1791 
z
M 3481 434 
Q 3481 -459 3084 -895 
Q 2688 -1331 1869 -1331 
Q 1566 -1331 1297 -1286 
Q 1028 -1241 775 -1147 
L 775 -588 
Q 1028 -725 1275 -790 
Q 1522 -856 1778 -856 
Q 2344 -856 2625 -561 
Q 2906 -266 2906 331 
L 2906 616 
Q 2728 306 2450 153 
Q 2172 0 1784 0 
Q 1141 0 747 490 
Q 353 981 353 1791 
Q 353 2603 747 3093 
Q 1141 3584 1784 3584 
Q 2172 3584 2450 3431 
Q 2728 3278 2906 2969 
L 2906 3500 
L 3481 3500 
L 3481 434 
z
" id="DejaVuSans-67" transform="scale(0.015625)"/>
      </defs>
      <use xlink:href="#DejaVuSans-52"/>
      <use x="64.982422" xlink:href="#DejaVuSans-65"/>
      <use x="126.505859" xlink:href="#DejaVuSans-6c"/>
      <use x="154.289062" xlink:href="#DejaVuSans-61"/>
      <use x="215.568359" xlink:href="#DejaVuSans-74"/>
      <use x="254.777344" xlink:href="#DejaVuSans-69"/>
      <use x="282.560547" xlink:href="#DejaVuSans-76"/>
      <use x="341.740234" xlink:href="#DejaVuSans-65"/>
      <use x="403.263672" xlink:href="#DejaVuSans-20"/>
      <use x="435.050781" xlink:href="#DejaVuSans-6d"/>
      <use x="532.462891" xlink:href="#DejaVuSans-61"/>
      <use x="593.742188" xlink:href="#DejaVuSans-73"/>
      <use x="645.841797" xlink:href="#DejaVuSans-6b"/>
      <use x="703.751953" xlink:href="#DejaVuSans-20"/>
      <use x="735.539062" xlink:href="#DejaVuSans-70"/>
      <use x="799.015625" xlink:href="#DejaVuSans-68"/>
      <use x="862.394531" xlink:href="#DejaVuSans-61"/>
      <use x="923.673828" xlink:href="#DejaVuSans-73"/>
      <use x="975.773438" xlink:href="#DejaVuSans-65"/>
      <use x="1037.296875" xlink:href="#DejaVuSans-20"/>
      <use x="1069.083984" xlink:href="#DejaVuSans-5b"/>
      <use x="1108.097656" xlink:href="#DejaVuSans-64"/>
      <use x="1171.574219" xlink:href="#DejaVuSans-65"/>
      <use x="1233.097656" xlink:href="#DejaVuSans-67"/>
      <use x="1296.574219" xlink:href="#DejaVuSans-5d"/>
     </g>
    </g>
   </g>
   <g id="patch_3">
    <path d="M 46.965625 228.439219 
L 46.965625 10.999219 
" style="fill:none;stroke:#000000;stroke-linecap:square;stroke-linejoin:miter;stroke-width:0.8;"/>
   </g>
   <g id="patch_4">
    <path d="M 314.805625 228.439219 
L 314.805625 10.999219 
" style="fill:none;stroke:#000000;stroke-linecap:square;stroke-linejoin:miter;stroke-width:0.8;"/>
   </g>
   <g id="patch_5">
    <path d="M 46.965625 228.439219 
L 314.805625 228.439219 
" style="fill:none;stroke:#000000;stroke-linecap:square;stroke-linejoin:miter;stroke-width:0.8;"/>
   </g>
   <g id="patch_6">
    <path d="M 46.965625 10.999219 
L 314.805625 10.999219 
" style="fill:none;stroke:#000000;stroke-linecap:square;stroke-linejoin:miter;stroke-width:0.8;"/>
   </g>
  </g>
  <g id="axes_2">
   <g id="patch_7">
    <path d="M 331.545625 228.439219 
L 342.417625 228.439219 
L 342.417625 10.999219 
L 331.545625 10.999219 
z
" style="fill:#ffffff;"/>
   </g>
   <g id="patch_8">
    <path clip-path="url(#pd01d1eeb2a)" d="M 331.545625 228.439219 
L 331.545625 201.259219 
L 331.545625 38.179219 
L 331.545625 10.999219 
L 342.417625 10.999219 
L 342.417625 38.179219 
L 342.417625 201.259219 
L 342.417625 228.439219 
L 342.417625 228.439219 
z
" style="fill:#ffffff;stroke:#ffffff;stroke-linejoin:miter;stroke-width:0.01;"/>
   </g>
   <g id="QuadMesh_1">
    <path clip-path="url(#pd01d1eeb2a)" d="M 331.545625 228.439219 
L 342.417625 228.439219 
L 342.417625 201.259219 
L 331.545625 201.259219 
L 331.545625 228.439219 
" style="fill:#48186a;"/>
    <path clip-path="url(#pd01d1eeb2a)" d="M 331.545625 201.259219 
L 342.417625 201.259219 
L 342.417625 174.079219 
L 331.545625 174.079219 
L 331.545625 201.259219 
" style="fill:#424086;"/>
    <path clip-path="url(#pd01d1eeb2a)" d="M 331.545625 174.079219 
L 342.417625 174.079219 
L 342.417625 146.899219 
L 331.545625 146.899219 
L 331.545625 174.079219 
" style="fill:#33638d;"/>
    <path clip-path="url(#pd01d1eeb2a)" d="M 331.545625 146.899219 
L 342.417625 146.899219 
L 342.417625 119.719219 
L 331.545625 119.719219 
L 331.545625 146.899219 
" style="fill:#26828e;"/>
    <path clip-path="url(#pd01d1eeb2a)" d="M 331.545625 119.719219 
L 342.417625 119.719219 
L 342.417625 92.539219 
L 331.545625 92.539219 
L 331.545625 119.719219 
" style="fill:#1fa088;"/>
    <path clip-path="url(#pd01d1eeb2a)" d="M 331.545625 92.539219 
L 342.417625 92.539219 
L 342.417625 65.359219 
L 331.545625 65.359219 
L 331.545625 92.539219 
" style="fill:#3fbc73;"/>
    <path clip-path="url(#pd01d1eeb2a)" d="M 331.545625 65.359219 
L 342.417625 65.359219 
L 342.417625 38.179219 
L 331.545625 38.179219 
L 331.545625 65.359219 
" style="fill:#84d44b;"/>
    <path clip-path="url(#pd01d1eeb2a)" d="M 331.545625 38.179219 
L 342.417625 38.179219 
L 342.417625 10.999219 
L 331.545625 10.999219 
L 331.545625 38.179219 
" style="fill:#d8e219;"/>
   </g>
   <g id="matplotlib.axis_3"/>
   <g id="matplotlib.axis_4">
    <g id="ytick_11">
     <g id="line2d_18">
      <defs>
       <path d="M 0 0 
L 3.5 0 
" id="mc9a9ab02fc" style="stroke:#000000;stroke-width:0.8;"/>
      </defs>
      <g>
       <use style="stroke:#000000;stroke-width:0.8;" x="342.417625" xlink:href="#mc9a9ab02fc" y="228.439219"/>
      </g>
     </g>
     <g id="text_20">
      <!-- 0.00 -->
      <g transform="translate(349.417625 232.238437)scale(0.1 -0.1)">
       <use xlink:href="#DejaVuSans-30"/>
       <use x="63.623047" xlink:href="#DejaVuSans-2e"/>
       <use x="95.410156" xlink:href="#DejaVuSans-30"/>
       <use x="159.033203" xlink:href="#DejaVuSans-30"/>
      </g>
     </g>
    </g>
    <g id="ytick_12">
     <g id="line2d_19">
      <g>
       <use style="stroke:#000000;stroke-width:0.8;" x="342.417625" xlink:href="#mc9a9ab02fc" y="201.259219"/>
      </g>
     </g>
     <g id="text_21">
      <!-- 0.25 -->
      <g transform="translate(349.417625 205.058437)scale(0.1 -0.1)">
       <use xlink:href="#DejaVuSans-30"/>
       <use x="63.623047" xlink:href="#DejaVuSans-2e"/>
       <use x="95.410156" xlink:href="#DejaVuSans-32"/>
       <use x="159.033203" xlink:href="#DejaVuSans-35"/>
      </g>
     </g>
    </g>
    <g id="ytick_13">
     <g id="line2d_20">
      <g>
       <use style="stroke:#000000;stroke-width:0.8;" x="342.417625" xlink:href="#mc9a9ab02fc" y="174.079219"/>
      </g>
     </g>
     <g id="text_22">
      <!-- 0.50 -->
      <g transform="translate(349.417625 177.878437)scale(0.1 -0.1)">
       <use xlink:href="#DejaVuSans-30"/>
       <use x="63.623047" xlink:href="#DejaVuSans-2e"/>
       <use x="95.410156" xlink:href="#DejaVuSans-35"/>
       <use x="159.033203" xlink:href="#DejaVuSans-30"/>
      </g>
     </g>
    </g>
    <g id="ytick_14">
     <g id="line2d_21">
      <g>
       <use style="stroke:#000000;stroke-width:0.8;" x="342.417625" xlink:href="#mc9a9ab02fc" y="146.899219"/>
      </g>
     </g>
     <g id="text_23">
      <!-- 0.75 -->
      <g transform="translate(349.417625 150.698437)scale(0.1 -0.1)">
       <use xlink:href="#DejaVuSans-30"/>
       <use x="63.623047" xlink:href="#DejaVuSans-2e"/>
       <use x="95.410156" xlink:href="#DejaVuSans-37"/>
       <use x="159.033203" xlink:href="#DejaVuSans-35"/>
      </g>
     </g>
    </g>
    <g id="ytick_15">
     <g id="line2d_22">
      <g>
       <use style="stroke:#000000;stroke-width:0.8;" x="342.417625" xlink:href="#mc9a9ab02fc" y="119.719219"/>
      </g>
     </g>
     <g id="text_24">
      <!-- 1.00 -->
      <g transform="translate(349.417625 123.518437)scale(0.1 -0.1)">
       <use xlink:href="#DejaVuSans-31"/>
       <use x="63.623047" xlink:href="#DejaVuSans-2e"/>
       <use x="95.410156" xlink:href="#DejaVuSans-30"/>
       <use x="159.033203" xlink:href="#DejaVuSans-30"/>
      </g>
     </g>
    </g>
    <g id="ytick_16">
     <g id="line2d_23">
      <g>
       <use style="stroke:#000000;stroke-width:0.8;" x="342.417625" xlink:href="#mc9a9ab02fc" y="92.539219"/>
      </g>
     </g>
     <g id="text_25">
      <!-- 1.25 -->
      <g transform="translate(349.417625 96.338437)scale(0.1 -0.1)">
       <use xlink:href="#DejaVuSans-31"/>
       <use x="63.623047" xlink:href="#DejaVuSans-2e"/>
       <use x="95.410156" xlink:href="#DejaVuSans-32"/>
       <use x="159.033203" xlink:href="#DejaVuSans-35"/>
      </g>
     </g>
    </g>
    <g id="ytick_17">
     <g id="line2d_24">
      <g>
       <use style="stroke:#000000;stroke-width:0.8;" x="342.417625" xlink:href="#mc9a9ab02fc" y="65.359219"/>
      </g>
     </g>
     <g id="text_26">
      <!-- 1.50 -->
      <g transform="translate(349.417625 69.158437)scale(0.1 -0.1)">
       <use xlink:href="#DejaVuSans-31"/>
       <use x="63.623047" xlink:href="#DejaVuSans-2e"/>
       <use x="95.410156" xlink:href="#DejaVuSans-35"/>
       <use x="159.033203" xlink:href="#DejaVuSans-30"/>
      </g>
     </g>
    </g>
    <g id="ytick_18">
     <g id="line2d_25">
      <g>
       <use style="stroke:#000000;stroke-width:0.8;" x="342.417625" xlink:href="#mc9a9ab02fc" y="38.179219"/>
      </g>
     </g>
     <g id="text_27">
      <!-- 1.75 -->
      <g transform="translate(349.417625 41.978437)scale(0.1 -0.1)">
       <use xlink:href="#DejaVuSans-31"/>
       <use x="63.623047" xlink:href="#DejaVuSans-2e"/>
       <use x="95.410156" xlink:href="#DejaVuSans-37"/>
       <use x="159.033203" xlink:href="#DejaVuSans-35"/>
      </g>
     </g>
    </g>
    <g id="ytick_19">
     <g id="line2d_26">
      <g>
       <use style="stroke:#000000;stroke-width:0.8;" x="342.417625" xlink:href="#mc9a9ab02fc" y="10.999219"/>
      </g>
     </g>
     <g id="text_28">
      <!-- 2.00 -->
      <g transform="translate(349.417625 14.798437)scale(0.1 -0.1)">
       <use xlink:href="#DejaVuSans-32"/>
       <use x="63.623047" xlink:href="#DejaVuSans-2e"/>
       <use x="95.410156" xlink:href="#DejaVuSans-30"/>
       <use x="159.033203" xlink:href="#DejaVuSans-30"/>
      </g>
     </g>
    </g>
   </g>
   <g id="LineCollection_1"/>
   <g id="patch_9">
    <path d="M 331.545625 228.439219 
L 331.545625 201.259219 
L 331.545625 38.179219 
L 331.545625 10.999219 
L 342.417625 10.999219 
L 342.417625 38.179219 
L 342.417625 201.259219 
L 342.417625 228.439219 
z
" style="fill:none;stroke:#000000;stroke-linecap:square;stroke-linejoin:miter;stroke-width:0.8;"/>
   </g>
  </g>
 </g>
 <defs>
  <clipPath id="p1c8b115d5a">
   <rect height="217.44" width="267.84" x="46.965625" y="10.999219"/>
  </clipPath>
  <clipPath id="pd01d1eeb2a">
   <rect height="217.44" width="10.872" x="331.545625" y="10.999219"/>
  </clipPath>
 </defs>
</svg>
