<?xml version="1.0" encoding="utf-8" standalone="no"?>
<!DOCTYPE svg PUBLIC "-//W3C//DTD SVG 1.1//EN"
  "http://www.w3.org/Graphics/SVG/1.1/DTD/svg11.dtd">
<svg height="356.49875pt" version="1.1" viewBox="0 0 369.541875 356.49875" width="369.541875pt" xmlns="http://www.w3.org/2000/svg" xmlns:xlink="http://www.w3.org/1999/xlink">
 <metadata>
  <rdf:RDF xmlns:cc="http://creativecommons.org/ns#" xmlns:dc="http://purl.org/dc/elements/1.1/" xmlns:rdf="http://www.w3.org/1999/02/22-rdf-syntax-ns#">
   <cc:Work>
    <dc:type rdf:resource="http://purl.org/dc/dcmitype/StillImage"/>
    <dc:date>2022-04-11T22:05:04.223591</dc:date>
    <dc:format>image/svg+xml</dc:format>
    <dc:creator>
     <cc:Agent>
      <dc:title>Matplotlib v3.4.3, https://matplotlib.org/</dc:title>
     </cc:Agent>
    </dc:creator>
   </cc:Work>
  </rdf:RDF>
 </metadata>
 <defs>
  <style type="text/css">*{stroke-linecap:butt;stroke-linejoin:round;}</style>
 </defs>
 <g id="figure_1">
  <g id="patch_1">
   <path d="M 0 356.49875 
L 369.541875 356.49875 
L 369.541875 0 
L 0 0 
z
" style="fill:none;"/>
  </g>
  <g id="axes_1">
   <g id="patch_2">
    <path d="M 45.371875 151.45 
L 191.496875 151.45 
L 191.496875 7.2 
L 45.371875 7.2 
z
" style="fill:#ffffff;"/>
   </g>
   <g id="matplotlib.axis_1">
    <g id="xtick_1">
     <g id="line2d_1">
      <defs>
       <path d="M 0 0 
L 0 3.5 
" id="mc05f8383af" style="stroke:#000000;stroke-width:0.8;"/>
      </defs>
      <g>
       <use style="stroke:#000000;stroke-width:0.8;" x="45.371875" xlink:href="#mc05f8383af" y="151.45"/>
      </g>
     </g>
    </g>
    <g id="xtick_2">
     <g id="line2d_2">
      <g>
       <use style="stroke:#000000;stroke-width:0.8;" x="118.434375" xlink:href="#mc05f8383af" y="151.45"/>
      </g>
     </g>
    </g>
    <g id="xtick_3">
     <g id="line2d_3">
      <g>
       <use style="stroke:#000000;stroke-width:0.8;" x="191.496875" xlink:href="#mc05f8383af" y="151.45"/>
      </g>
     </g>
    </g>
   </g>
   <g id="matplotlib.axis_2">
    <g id="ytick_1">
     <g id="line2d_4">
      <defs>
       <path d="M 0 0 
L -3.5 0 
" id="m03adc004a8" style="stroke:#000000;stroke-width:0.8;"/>
      </defs>
      <g>
       <use style="stroke:#000000;stroke-width:0.8;" x="45.371875" xlink:href="#m03adc004a8" y="151.45"/>
      </g>
     </g>
     <g id="text_1">
      <!-- 0.00 -->
      <g transform="translate(7.2 156.768906)scale(0.14 -0.14)">
       <defs>
        <path d="M 2034 4250 
Q 1547 4250 1301 3770 
Q 1056 3291 1056 2328 
Q 1056 1369 1301 889 
Q 1547 409 2034 409 
Q 2525 409 2770 889 
Q 3016 1369 3016 2328 
Q 3016 3291 2770 3770 
Q 2525 4250 2034 4250 
z
M 2034 4750 
Q 2819 4750 3233 4129 
Q 3647 3509 3647 2328 
Q 3647 1150 3233 529 
Q 2819 -91 2034 -91 
Q 1250 -91 836 529 
Q 422 1150 422 2328 
Q 422 3509 836 4129 
Q 1250 4750 2034 4750 
z
" id="DejaVuSans-30" transform="scale(0.015625)"/>
        <path d="M 684 794 
L 1344 794 
L 1344 0 
L 684 0 
L 684 794 
z
" id="DejaVuSans-2e" transform="scale(0.015625)"/>
       </defs>
       <use xlink:href="#DejaVuSans-30"/>
       <use x="63.623047" xlink:href="#DejaVuSans-2e"/>
       <use x="95.410156" xlink:href="#DejaVuSans-30"/>
       <use x="159.033203" xlink:href="#DejaVuSans-30"/>
      </g>
     </g>
    </g>
    <g id="ytick_2">
     <g id="line2d_5">
      <g>
       <use style="stroke:#000000;stroke-width:0.8;" x="45.371875" xlink:href="#m03adc004a8" y="120.091304"/>
      </g>
     </g>
     <g id="text_2">
      <!-- 0.25 -->
      <g transform="translate(7.2 125.410211)scale(0.14 -0.14)">
       <defs>
        <path d="M 1228 531 
L 3431 531 
L 3431 0 
L 469 0 
L 469 531 
Q 828 903 1448 1529 
Q 2069 2156 2228 2338 
Q 2531 2678 2651 2914 
Q 2772 3150 2772 3378 
Q 2772 3750 2511 3984 
Q 2250 4219 1831 4219 
Q 1534 4219 1204 4116 
Q 875 4013 500 3803 
L 500 4441 
Q 881 4594 1212 4672 
Q 1544 4750 1819 4750 
Q 2544 4750 2975 4387 
Q 3406 4025 3406 3419 
Q 3406 3131 3298 2873 
Q 3191 2616 2906 2266 
Q 2828 2175 2409 1742 
Q 1991 1309 1228 531 
z
" id="DejaVuSans-32" transform="scale(0.015625)"/>
        <path d="M 691 4666 
L 3169 4666 
L 3169 4134 
L 1269 4134 
L 1269 2991 
Q 1406 3038 1543 3061 
Q 1681 3084 1819 3084 
Q 2600 3084 3056 2656 
Q 3513 2228 3513 1497 
Q 3513 744 3044 326 
Q 2575 -91 1722 -91 
Q 1428 -91 1123 -41 
Q 819 9 494 109 
L 494 744 
Q 775 591 1075 516 
Q 1375 441 1709 441 
Q 2250 441 2565 725 
Q 2881 1009 2881 1497 
Q 2881 1984 2565 2268 
Q 2250 2553 1709 2553 
Q 1456 2553 1204 2497 
Q 953 2441 691 2322 
L 691 4666 
z
" id="DejaVuSans-35" transform="scale(0.015625)"/>
       </defs>
       <use xlink:href="#DejaVuSans-30"/>
       <use x="63.623047" xlink:href="#DejaVuSans-2e"/>
       <use x="95.410156" xlink:href="#DejaVuSans-32"/>
       <use x="159.033203" xlink:href="#DejaVuSans-35"/>
      </g>
     </g>
    </g>
    <g id="ytick_3">
     <g id="line2d_6">
      <g>
       <use style="stroke:#000000;stroke-width:0.8;" x="45.371875" xlink:href="#m03adc004a8" y="88.732609"/>
      </g>
     </g>
     <g id="text_3">
      <!-- 0.50 -->
      <g transform="translate(7.2 94.051515)scale(0.14 -0.14)">
       <use xlink:href="#DejaVuSans-30"/>
       <use x="63.623047" xlink:href="#DejaVuSans-2e"/>
       <use x="95.410156" xlink:href="#DejaVuSans-35"/>
       <use x="159.033203" xlink:href="#DejaVuSans-30"/>
      </g>
     </g>
    </g>
    <g id="ytick_4">
     <g id="line2d_7">
      <g>
       <use style="stroke:#000000;stroke-width:0.8;" x="45.371875" xlink:href="#m03adc004a8" y="57.373913"/>
      </g>
     </g>
     <g id="text_4">
      <!-- 0.75 -->
      <g transform="translate(7.2 62.692819)scale(0.14 -0.14)">
       <defs>
        <path d="M 525 4666 
L 3525 4666 
L 3525 4397 
L 1831 0 
L 1172 0 
L 2766 4134 
L 525 4134 
L 525 4666 
z
" id="DejaVuSans-37" transform="scale(0.015625)"/>
       </defs>
       <use xlink:href="#DejaVuSans-30"/>
       <use x="63.623047" xlink:href="#DejaVuSans-2e"/>
       <use x="95.410156" xlink:href="#DejaVuSans-37"/>
       <use x="159.033203" xlink:href="#DejaVuSans-35"/>
      </g>
     </g>
    </g>
    <g id="ytick_5">
     <g id="line2d_8">
      <g>
       <use style="stroke:#000000;stroke-width:0.8;" x="45.371875" xlink:href="#m03adc004a8" y="26.015217"/>
      </g>
     </g>
     <g id="text_5">
      <!-- 1.00 -->
      <g transform="translate(7.2 31.334124)scale(0.14 -0.14)">
       <defs>
        <path d="M 794 531 
L 1825 531 
L 1825 4091 
L 703 3866 
L 703 4441 
L 1819 4666 
L 2450 4666 
L 2450 531 
L 3481 531 
L 3481 0 
L 794 0 
L 794 531 
z
" id="DejaVuSans-31" transform="scale(0.015625)"/>
       </defs>
       <use xlink:href="#DejaVuSans-31"/>
       <use x="63.623047" xlink:href="#DejaVuSans-2e"/>
       <use x="95.410156" xlink:href="#DejaVuSans-30"/>
       <use x="159.033203" xlink:href="#DejaVuSans-30"/>
      </g>
     </g>
    </g>
   </g>
   <g id="line2d_9">
    <path clip-path="url(#p55c872b0f8)" d="M 43.001298 27.067178 
L 45.371875 26.015217 
L 47.742452 27.067178 
L 50.113029 30.170423 
L 52.483606 35.171401 
L 54.854184 41.828244 
L 57.224761 49.830146 
L 59.595338 58.821374 
L 61.965915 68.427324 
L 64.336492 78.279996 
L 66.707069 88.040508 
L 69.077647 97.416846 
L 71.448224 106.175755 
L 73.818801 114.148444 
L 76.189378 121.230482 
L 78.559955 127.376848 
L 80.930532 132.593406 
L 83.301109 136.926263 
L 85.671687 140.450363 
L 88.042264 143.258505 
L 90.412841 145.451636 
L 92.783418 147.130959 
L 95.153995 148.392076 
L 97.524572 149.321121 
L 99.89515 149.992663 
L 102.265727 150.469034 
L 104.636304 150.800719 
L 107.006881 151.027432 
L 109.377458 151.179576 
L 111.748035 151.279832 
L 114.118613 151.344708 
L 116.48919 151.385938 
L 118.859767 151.411675 
L 121.230344 151.427455 
L 123.600921 151.436959 
L 125.971498 151.442582 
L 128.342075 151.445852 
L 130.712653 151.447719 
L 133.08323 151.448766 
L 135.453807 151.449344 
L 137.824384 151.449657 
L 140.194961 151.449824 
L 142.565538 151.449911 
L 144.936116 151.449956 
L 147.306693 151.449978 
L 149.67727 151.44999 
L 152.047847 151.449995 
L 154.418424 151.449998 
L 156.789001 151.449999 
L 159.159578 151.45 
L 161.530156 151.45 
L 163.900733 151.45 
L 166.27131 151.45 
L 168.641887 151.45 
L 171.012464 151.45 
L 173.383041 151.45 
L 175.753619 151.45 
L 178.124196 151.45 
L 180.494773 151.45 
L 182.86535 151.45 
L 185.235927 151.45 
L 187.606504 151.45 
L 189.977081 151.45 
L 192.347659 151.45 
" style="fill:none;stroke:#ff0000;stroke-dasharray:5.55,2.4;stroke-dashoffset:0;stroke-width:1.5;"/>
   </g>
   <g id="line2d_10">
    <path clip-path="url(#p55c872b0f8)" d="M 43.001298 28.538838 
L 45.371875 26.025714 
L 47.742452 26.015217 
L 50.113029 28.508384 
L 52.483606 33.373472 
L 54.854184 40.356288 
L 57.224761 49.099952 
L 59.595338 59.172178 
L 61.965915 70.097421 
L 64.336492 81.390866 
L 66.707069 92.591149 
L 69.077647 103.288985 
L 71.448224 113.149412 
L 73.818801 121.92616 
L 76.189378 129.467524 
L 78.559955 135.714017 
L 80.930532 140.688882 
L 83.301109 144.483148 
L 85.671687 147.237291 
L 88.042264 149.121676 
L 90.412841 150.317806 
L 92.783418 151.002062 
L 95.153995 151.333097 
L 97.524572 151.443498 
L 99.89515 151.435767 
L 102.265727 151.382156 
L 104.636304 151.327578 
L 107.006881 151.294579 
L 109.377458 151.289311 
L 111.748035 151.307573 
L 114.118613 151.340145 
L 116.48919 151.376926 
L 118.859767 151.409674 
L 121.230344 151.433359 
L 123.600921 151.446362 
L 125.971498 151.449864 
L 128.342075 151.44679 
L 130.712653 151.440673 
L 133.08323 151.434677 
L 135.453807 151.430969 
L 137.824384 151.430469 
L 140.194961 151.432953 
L 142.565538 151.437386 
L 144.936116 151.442377 
L 147.306693 151.446613 
L 149.67727 151.449183 
L 152.047847 151.449737 
L 154.418424 151.448481 
L 156.789001 151.446037 
L 159.159578 151.443227 
L 161.530156 151.440841 
L 163.900733 151.439459 
L 166.27131 151.43934 
L 168.641887 151.440412 
L 171.012464 151.44234 
L 173.383041 151.444645 
L 175.753619 151.446837 
L 178.124196 151.448534 
L 180.494773 151.449533 
L 182.86535 151.449829 
L 185.235927 151.449583 
L 187.606504 151.449053 
L 189.977081 151.448512 
L 192.347659 151.448174 
" style="fill:none;stroke:#ff0000;stroke-linecap:square;stroke-width:1.5;"/>
   </g>
   <g id="patch_3">
    <path d="M 45.371875 151.45 
L 45.371875 7.2 
" style="fill:none;stroke:#000000;stroke-linecap:square;stroke-linejoin:miter;stroke-width:0.8;"/>
   </g>
   <g id="patch_4">
    <path d="M 191.496875 151.45 
L 191.496875 7.2 
" style="fill:none;stroke:#000000;stroke-linecap:square;stroke-linejoin:miter;stroke-width:0.8;"/>
   </g>
   <g id="patch_5">
    <path d="M 45.371875 151.45 
L 191.496875 151.45 
" style="fill:none;stroke:#000000;stroke-linecap:square;stroke-linejoin:miter;stroke-width:0.8;"/>
   </g>
   <g id="patch_6">
    <path d="M 45.371875 7.2 
L 191.496875 7.2 
" style="fill:none;stroke:#000000;stroke-linecap:square;stroke-linejoin:miter;stroke-width:0.8;"/>
   </g>
  </g>
  <g id="axes_2">
   <g id="patch_7">
    <path d="M 207.309375 151.45 
L 353.434375 151.45 
L 353.434375 7.2 
L 207.309375 7.2 
z
" style="fill:#ffffff;"/>
   </g>
   <g id="matplotlib.axis_3">
    <g id="xtick_4">
     <g id="line2d_11">
      <g>
       <use style="stroke:#000000;stroke-width:0.8;" x="207.309375" xlink:href="#mc05f8383af" y="151.45"/>
      </g>
     </g>
    </g>
    <g id="xtick_5">
     <g id="line2d_12">
      <g>
       <use style="stroke:#000000;stroke-width:0.8;" x="280.371875" xlink:href="#mc05f8383af" y="151.45"/>
      </g>
     </g>
    </g>
    <g id="xtick_6">
     <g id="line2d_13">
      <g>
       <use style="stroke:#000000;stroke-width:0.8;" x="353.434375" xlink:href="#mc05f8383af" y="151.45"/>
      </g>
     </g>
    </g>
   </g>
   <g id="matplotlib.axis_4">
    <g id="ytick_6">
     <g id="line2d_14">
      <g>
       <use style="stroke:#000000;stroke-width:0.8;" x="207.309375" xlink:href="#m03adc004a8" y="151.45"/>
      </g>
     </g>
    </g>
    <g id="ytick_7">
     <g id="line2d_15">
      <g>
       <use style="stroke:#000000;stroke-width:0.8;" x="207.309375" xlink:href="#m03adc004a8" y="120.091304"/>
      </g>
     </g>
    </g>
    <g id="ytick_8">
     <g id="line2d_16">
      <g>
       <use style="stroke:#000000;stroke-width:0.8;" x="207.309375" xlink:href="#m03adc004a8" y="88.732609"/>
      </g>
     </g>
    </g>
    <g id="ytick_9">
     <g id="line2d_17">
      <g>
       <use style="stroke:#000000;stroke-width:0.8;" x="207.309375" xlink:href="#m03adc004a8" y="57.373913"/>
      </g>
     </g>
    </g>
    <g id="ytick_10">
     <g id="line2d_18">
      <g>
       <use style="stroke:#000000;stroke-width:0.8;" x="207.309375" xlink:href="#m03adc004a8" y="26.015217"/>
      </g>
     </g>
    </g>
   </g>
   <g id="line2d_19">
    <path clip-path="url(#p965c5a9084)" d="M 207.309375 26.025714 
L 210.331534 30.338839 
L 213.353693 42.449997 
L 216.375853 60.104243 
L 219.398012 80.220919 
L 222.420171 99.67981 
L 225.44233 116.046957 
L 228.464489 128.030305 
L 231.486648 135.559082 
L 234.508808 139.512863 
L 237.530967 141.237438 
L 240.553126 142.036341 
L 243.575285 142.806054 
L 246.597444 143.904885 
L 249.619603 145.246227 
L 252.641763 146.526759 
L 255.663922 147.467682 
L 258.686081 147.968158 
L 261.70824 148.128192 
L 264.730399 148.163381 
L 267.752558 148.27735 
L 270.774718 148.563792 
L 273.796877 148.981987 
L 276.819036 149.405652 
L 279.841195 149.708197 
L 282.863354 149.834542 
L 285.885513 149.823734 
L 288.907673 149.777048 
L 291.929832 149.795674 
L 294.951991 149.925401 
L 297.97415 150.137759 
L 300.996309 150.354238 
L 304.018468 150.496072 
L 307.040628 150.529623 
L 310.062787 150.482413 
L 313.084946 150.423179 
L 316.107105 150.419881 
L 319.129264 150.500972 
L 322.151423 150.641722 
L 325.173583 150.781858 
L 328.195742 150.862657 
L 331.217901 150.861195 
L 334.24006 150.802204 
L 337.262219 150.741725 
L 340.284378 150.733219 
L 343.306538 150.796455 
L 346.328697 150.907137 
L 349.350856 151.012632 
L 352.373015 151.063824 
L 355.395174 151.044077 
L 358.417333 150.978405 
L 361.439493 150.917937 
L 364.461652 150.909258 
L 367.483811 150.9669 
L 370.50597 151.065137 
L 370.541875 151.066189 
" style="fill:none;stroke:#ff0000;stroke-linecap:square;stroke-width:1.5;"/>
   </g>
   <g id="line2d_20">
    <path clip-path="url(#p965c5a9084)" d="M 207.309375 26.015217 
L 210.331534 31.160547 
L 213.353693 44.341326 
L 216.375853 60.88148 
L 219.398012 76.981169 
L 222.420171 90.834868 
L 225.44233 102.06398 
L 228.464489 110.934284 
L 231.486648 117.889503 
L 234.508808 123.355467 
L 237.530967 127.681964 
L 240.553126 131.139052 
L 243.575285 133.930044 
L 246.597444 136.206802 
L 249.619603 138.082859 
L 252.641763 139.643571 
L 255.663922 140.953619 
L 258.686081 142.062469 
L 261.70824 143.008307 
L 264.730399 143.820898 
L 267.752558 144.523662 
L 270.774718 145.135189 
L 273.796877 145.670365 
L 276.819036 146.141208 
L 279.841195 146.557495 
L 282.863354 146.927237 
L 285.885513 147.257045 
L 288.907673 147.552411 
L 291.929832 147.817921 
L 294.951991 148.057433 
L 297.97415 148.274204 
L 300.996309 148.471001 
L 304.018468 148.650189 
L 307.040628 148.813791 
L 310.062787 148.963553 
L 313.084946 149.100983 
L 316.107105 149.227391 
L 319.129264 149.343919 
L 322.151423 149.451564 
L 325.173583 149.551203 
L 328.195742 149.643605 
L 331.217901 149.729454 
L 334.24006 149.80935 
L 337.262219 149.883831 
L 340.284378 149.953371 
L 343.306538 150.018398 
L 346.328697 150.079293 
L 349.350856 150.136396 
L 352.373015 150.190015 
L 355.395174 150.240427 
L 358.417333 150.287883 
L 361.439493 150.332607 
L 364.461652 150.374806 
L 367.483811 150.414665 
L 370.50597 150.452353 
L 370.541875 150.452777 
" style="fill:none;stroke:#ff0000;stroke-dasharray:5.55,2.4;stroke-dashoffset:0;stroke-width:1.5;"/>
   </g>
   <g id="patch_8">
    <path d="M 207.309375 151.45 
L 207.309375 7.2 
" style="fill:none;stroke:#000000;stroke-linecap:square;stroke-linejoin:miter;stroke-width:0.8;"/>
   </g>
   <g id="patch_9">
    <path d="M 353.434375 151.45 
L 353.434375 7.2 
" style="fill:none;stroke:#000000;stroke-linecap:square;stroke-linejoin:miter;stroke-width:0.8;"/>
   </g>
   <g id="patch_10">
    <path d="M 207.309375 151.45 
L 353.434375 151.45 
" style="fill:none;stroke:#000000;stroke-linecap:square;stroke-linejoin:miter;stroke-width:0.8;"/>
   </g>
   <g id="patch_11">
    <path d="M 207.309375 7.2 
L 353.434375 7.2 
" style="fill:none;stroke:#000000;stroke-linecap:square;stroke-linejoin:miter;stroke-width:0.8;"/>
   </g>
  </g>
  <g id="axes_3">
   <g id="patch_12">
    <path d="M 45.371875 311.2 
L 191.496875 311.2 
L 191.496875 166.95 
L 45.371875 166.95 
z
" style="fill:#ffffff;"/>
   </g>
   <g id="matplotlib.axis_5">
    <g id="xtick_7">
     <g id="line2d_21">
      <g>
       <use style="stroke:#000000;stroke-width:0.8;" x="45.371875" xlink:href="#mc05f8383af" y="311.2"/>
      </g>
     </g>
     <g id="text_6">
      <!-- 0 -->
      <g transform="translate(40.918125 328.837812)scale(0.14 -0.14)">
       <use xlink:href="#DejaVuSans-30"/>
      </g>
     </g>
    </g>
    <g id="xtick_8">
     <g id="line2d_22">
      <g>
       <use style="stroke:#000000;stroke-width:0.8;" x="118.434375" xlink:href="#mc05f8383af" y="311.2"/>
      </g>
     </g>
     <g id="text_7">
      <!-- 2 -->
      <g transform="translate(113.980625 328.837812)scale(0.14 -0.14)">
       <use xlink:href="#DejaVuSans-32"/>
      </g>
     </g>
    </g>
    <g id="xtick_9">
     <g id="line2d_23">
      <g>
       <use style="stroke:#000000;stroke-width:0.8;" x="191.496875" xlink:href="#mc05f8383af" y="311.2"/>
      </g>
     </g>
     <g id="text_8">
      <!-- 4 -->
      <g transform="translate(187.043125 328.837812)scale(0.14 -0.14)">
       <defs>
        <path d="M 2419 4116 
L 825 1625 
L 2419 1625 
L 2419 4116 
z
M 2253 4666 
L 3047 4666 
L 3047 1625 
L 3713 1625 
L 3713 1100 
L 3047 1100 
L 3047 0 
L 2419 0 
L 2419 1100 
L 313 1100 
L 313 1709 
L 2253 4666 
z
" id="DejaVuSans-34" transform="scale(0.015625)"/>
       </defs>
       <use xlink:href="#DejaVuSans-34"/>
      </g>
     </g>
    </g>
    <g id="text_9">
     <!-- $\rho_2/w_0$ -->
     <g transform="translate(99.254375 346.35875)scale(0.14 -0.14)">
      <defs>
       <path d="M 1203 2875 
Q 1453 3194 1981 3475 
Q 2188 3584 2756 3584 
Q 3394 3584 3694 3078 
Q 3994 2572 3834 1747 
Q 3672 922 3175 415 
Q 2678 -91 2041 -91 
Q 1656 -91 1409 63 
Q 1163 213 1044 525 
L 681 -1331 
L 103 -1331 
L 697 1716 
Q 838 2438 1203 2875 
z
M 3238 1747 
Q 3359 2381 3169 2744 
Q 2978 3103 2522 3103 
Q 2066 3103 1734 2744 
Q 1403 2381 1281 1747 
Q 1156 1113 1347 750 
Q 1538 391 1994 391 
Q 2450 391 2781 750 
Q 3113 1113 3238 1747 
z
" id="DejaVuSans-Oblique-3c1" transform="scale(0.015625)"/>
       <path d="M 1625 4666 
L 2156 4666 
L 531 -594 
L 0 -594 
L 1625 4666 
z
" id="DejaVuSans-2f" transform="scale(0.015625)"/>
       <path d="M 544 3500 
L 1113 3500 
L 1259 684 
L 2566 3500 
L 3231 3500 
L 3425 684 
L 4666 3500 
L 5241 3500 
L 3641 0 
L 2969 0 
L 2797 2900 
L 1459 0 
L 781 0 
L 544 3500 
z
" id="DejaVuSans-Oblique-77" transform="scale(0.015625)"/>
      </defs>
      <use transform="translate(0 0.09375)" xlink:href="#DejaVuSans-Oblique-3c1"/>
      <use transform="translate(63.476562 -16.3125)scale(0.7)" xlink:href="#DejaVuSans-32"/>
      <use transform="translate(110.74707 0.09375)" xlink:href="#DejaVuSans-2f"/>
      <use transform="translate(144.438477 0.09375)" xlink:href="#DejaVuSans-Oblique-77"/>
      <use transform="translate(226.225586 -16.3125)scale(0.7)" xlink:href="#DejaVuSans-30"/>
     </g>
    </g>
   </g>
   <g id="matplotlib.axis_6">
    <g id="ytick_11">
     <g id="line2d_24">
      <g>
       <use style="stroke:#000000;stroke-width:0.8;" x="45.371875" xlink:href="#m03adc004a8" y="311.2"/>
      </g>
     </g>
     <g id="text_10">
      <!-- 0.00 -->
      <g transform="translate(7.2 316.518906)scale(0.14 -0.14)">
       <use xlink:href="#DejaVuSans-30"/>
       <use x="63.623047" xlink:href="#DejaVuSans-2e"/>
       <use x="95.410156" xlink:href="#DejaVuSans-30"/>
       <use x="159.033203" xlink:href="#DejaVuSans-30"/>
      </g>
     </g>
    </g>
    <g id="ytick_12">
     <g id="line2d_25">
      <g>
       <use style="stroke:#000000;stroke-width:0.8;" x="45.371875" xlink:href="#m03adc004a8" y="279.841304"/>
      </g>
     </g>
     <g id="text_11">
      <!-- 0.25 -->
      <g transform="translate(7.2 285.160211)scale(0.14 -0.14)">
       <use xlink:href="#DejaVuSans-30"/>
       <use x="63.623047" xlink:href="#DejaVuSans-2e"/>
       <use x="95.410156" xlink:href="#DejaVuSans-32"/>
       <use x="159.033203" xlink:href="#DejaVuSans-35"/>
      </g>
     </g>
    </g>
    <g id="ytick_13">
     <g id="line2d_26">
      <g>
       <use style="stroke:#000000;stroke-width:0.8;" x="45.371875" xlink:href="#m03adc004a8" y="248.482609"/>
      </g>
     </g>
     <g id="text_12">
      <!-- 0.50 -->
      <g transform="translate(7.2 253.801515)scale(0.14 -0.14)">
       <use xlink:href="#DejaVuSans-30"/>
       <use x="63.623047" xlink:href="#DejaVuSans-2e"/>
       <use x="95.410156" xlink:href="#DejaVuSans-35"/>
       <use x="159.033203" xlink:href="#DejaVuSans-30"/>
      </g>
     </g>
    </g>
    <g id="ytick_14">
     <g id="line2d_27">
      <g>
       <use style="stroke:#000000;stroke-width:0.8;" x="45.371875" xlink:href="#m03adc004a8" y="217.123913"/>
      </g>
     </g>
     <g id="text_13">
      <!-- 0.75 -->
      <g transform="translate(7.2 222.442819)scale(0.14 -0.14)">
       <use xlink:href="#DejaVuSans-30"/>
       <use x="63.623047" xlink:href="#DejaVuSans-2e"/>
       <use x="95.410156" xlink:href="#DejaVuSans-37"/>
       <use x="159.033203" xlink:href="#DejaVuSans-35"/>
      </g>
     </g>
    </g>
    <g id="ytick_15">
     <g id="line2d_28">
      <g>
       <use style="stroke:#000000;stroke-width:0.8;" x="45.371875" xlink:href="#m03adc004a8" y="185.765217"/>
      </g>
     </g>
     <g id="text_14">
      <!-- 1.00 -->
      <g transform="translate(7.2 191.084124)scale(0.14 -0.14)">
       <use xlink:href="#DejaVuSans-31"/>
       <use x="63.623047" xlink:href="#DejaVuSans-2e"/>
       <use x="95.410156" xlink:href="#DejaVuSans-30"/>
       <use x="159.033203" xlink:href="#DejaVuSans-30"/>
      </g>
     </g>
    </g>
   </g>
   <g id="line2d_29">
    <path clip-path="url(#p83f8dd883d)" d="M 43.001298 311.197778 
L 45.371875 311.199993 
L 47.742452 311.197778 
L 50.113029 311.164999 
L 52.483606 311.026511 
L 54.854184 310.667493 
L 57.224761 309.94761 
L 59.595338 308.71814 
L 61.965915 306.83988 
L 64.336492 304.199631 
L 66.707069 300.723386 
L 69.077647 296.384871 
L 71.448224 291.208788 
L 73.818801 285.268816 
L 76.189378 278.681051 
L 78.559955 271.594034 
L 80.930532 264.176765 
L 83.301109 256.606154 
L 85.671687 249.055206 
L 88.042264 241.682956 
L 90.412841 234.626804 
L 92.783418 227.997569 
L 95.153995 221.877184 
L 97.524572 216.318778 
L 99.89515 211.348646 
L 102.265727 206.969584 
L 104.636304 203.165026 
L 107.006881 199.903512 
L 109.377458 197.143061 
L 111.748035 194.835177 
L 114.118613 192.928295 
L 116.48919 191.370574 
L 118.859767 190.112021 
L 121.230344 189.105996 
L 123.600921 188.310158 
L 125.971498 187.686961 
L 128.342075 187.203789 
L 130.712653 186.832824 
L 133.08323 186.550734 
L 135.453807 186.338252 
L 137.824384 186.179695 
L 140.194961 186.062472 
L 142.565538 185.976601 
L 144.936116 185.914269 
L 147.306693 185.869432 
L 149.67727 185.83747 
L 152.047847 185.814889 
L 154.418424 185.799079 
L 156.789001 185.788107 
L 159.159578 185.78056 
L 161.530156 185.775415 
L 163.900733 185.771939 
L 166.27131 185.76961 
L 168.641887 185.768064 
L 171.012464 185.767047 
L 173.383041 185.766383 
L 175.753619 185.765954 
L 178.124196 185.765679 
L 180.494773 185.765504 
L 182.86535 185.765394 
L 185.235927 185.765325 
L 187.606504 185.765283 
L 189.977081 185.765257 
L 192.347659 185.765241 
" style="fill:none;stroke:#0000ff;stroke-dasharray:5.55,2.4;stroke-dashoffset:0;stroke-width:1.5;"/>
   </g>
   <g id="line2d_30">
    <path clip-path="url(#p83f8dd883d)" d="M 43.001298 311.167331 
L 45.371875 311.194797 
L 47.742452 311.194797 
L 50.113029 311.167331 
L 52.483606 311.043662 
L 54.854184 310.694468 
L 57.224761 309.945202 
L 59.595338 308.596923 
L 61.965915 306.450204 
L 64.336492 303.329475 
L 66.707069 299.105093 
L 69.077647 293.710805 
L 71.448224 287.154799 
L 73.818801 279.523353 
L 76.189378 270.976892 
L 78.559955 261.73913 
L 80.930532 252.080661 
L 83.301109 242.298874 
L 85.671687 232.696335 
L 88.042264 223.559782 
L 90.412841 215.141647 
L 92.783418 207.645589 
L 95.153995 201.216973 
L 97.524572 195.938654 
L 99.89515 191.831834 
L 102.265727 188.861324 
L 104.636304 186.944175 
L 107.006881 185.960492 
L 109.377458 185.765217 
L 111.748035 186.199785 
L 114.118613 187.10275 
L 116.48919 188.318785 
L 118.859767 189.705699 
L 121.230344 191.13939 
L 123.600921 192.516853 
L 125.971498 193.757503 
L 128.342075 194.803116 
L 130.712653 195.616752 
L 133.08323 196.180936 
L 135.453807 196.49536 
L 137.824384 196.57427 
L 140.194961 196.443688 
L 142.565538 196.138533 
L 144.936116 195.699722 
L 147.306693 195.171318 
L 149.67727 194.597798 
L 152.047847 194.021524 
L 154.418424 193.48053 
L 156.789001 193.006701 
L 159.159578 192.624449 
L 161.530156 192.34992 
L 163.900733 192.190768 
L 166.27131 192.146474 
L 168.641887 192.209147 
L 171.012464 192.36472 
L 173.383041 192.594432 
L 175.753619 192.876458 
L 178.124196 193.187588 
L 180.494773 193.504815 
L 182.86535 193.806762 
L 185.235927 194.074872 
L 187.606504 194.294307 
L 189.977081 194.454545 
L 192.347659 194.549671 
" style="fill:none;stroke:#0000ff;stroke-linecap:square;stroke-width:1.5;"/>
   </g>
   <g id="line2d_31">
    <path clip-path="url(#p83f8dd883d)" d="M 43.001298 310.757181 
L 45.371875 310.826696 
L 47.742452 310.826697 
L 50.113029 310.757184 
L 52.483606 310.601363 
L 54.854184 310.326681 
L 57.224761 309.886822 
L 59.595338 309.224576 
L 61.965915 308.275393 
L 64.336492 306.97145 
L 66.707069 305.245978 
L 69.077647 303.037633 
L 71.448224 300.29465 
L 73.818801 296.97857 
L 76.189378 293.067331 
L 78.559955 288.557563 
L 80.930532 283.465965 
L 83.301109 277.829708 
L 85.671687 271.705841 
L 88.042264 265.169753 
L 90.412841 258.312765 
L 92.783418 251.239008 
L 95.153995 244.061735 
L 97.524572 236.899268 
L 99.89515 229.870789 
L 102.265727 223.092168 
L 104.636304 216.672028 
L 107.006881 210.708221 
L 109.377458 205.284864 
L 111.748035 200.470023 
L 114.118613 196.314142 
L 116.48919 192.849225 
L 118.859767 190.088764 
L 121.230344 188.028371 
L 123.600921 186.647023 
L 125.971498 185.908835 
L 128.342075 185.765217 
L 130.712653 186.157307 
L 133.08323 187.018535 
L 135.453807 188.277208 
L 137.824384 189.858997 
L 140.194961 191.689228 
L 142.565538 193.694926 
L 144.936116 195.806539 
L 147.306693 197.959331 
L 149.67727 200.094439 
L 152.047847 202.159594 
L 154.418424 204.109552 
L 156.789001 205.906269 
L 159.159578 207.518856 
L 161.530156 208.923377 
L 163.900733 210.102531 
L 166.27131 211.045252 
L 168.641887 211.746277 
L 171.012464 212.205696 
L 173.383041 212.428498 
L 175.753619 212.424135 
L 178.124196 212.206092 
L 180.494773 211.79146 
L 182.86535 211.200507 
L 185.235927 210.456228 
L 187.606504 209.583873 
L 189.977081 208.610437 
L 192.347659 207.564116 
" style="fill:none;stroke:#17becf;stroke-linecap:square;stroke-width:1.5;"/>
   </g>
   <g id="patch_13">
    <path d="M 45.371875 311.2 
L 45.371875 166.95 
" style="fill:none;stroke:#000000;stroke-linecap:square;stroke-linejoin:miter;stroke-width:0.8;"/>
   </g>
   <g id="patch_14">
    <path d="M 191.496875 311.2 
L 191.496875 166.95 
" style="fill:none;stroke:#000000;stroke-linecap:square;stroke-linejoin:miter;stroke-width:0.8;"/>
   </g>
   <g id="patch_15">
    <path d="M 45.371875 311.2 
L 191.496875 311.2 
" style="fill:none;stroke:#000000;stroke-linecap:square;stroke-linejoin:miter;stroke-width:0.8;"/>
   </g>
   <g id="patch_16">
    <path d="M 45.371875 166.95 
L 191.496875 166.95 
" style="fill:none;stroke:#000000;stroke-linecap:square;stroke-linejoin:miter;stroke-width:0.8;"/>
   </g>
  </g>
  <g id="axes_4">
   <g id="patch_17">
    <path d="M 207.309375 311.2 
L 353.434375 311.2 
L 353.434375 166.95 
L 207.309375 166.95 
z
" style="fill:#ffffff;"/>
   </g>
   <g id="matplotlib.axis_7">
    <g id="xtick_10">
     <g id="line2d_32">
      <g>
       <use style="stroke:#000000;stroke-width:0.8;" x="207.309375" xlink:href="#mc05f8383af" y="311.2"/>
      </g>
     </g>
     <g id="text_15">
      <!-- 0 -->
      <g transform="translate(202.855625 328.837812)scale(0.14 -0.14)">
       <use xlink:href="#DejaVuSans-30"/>
      </g>
     </g>
    </g>
    <g id="xtick_11">
     <g id="line2d_33">
      <g>
       <use style="stroke:#000000;stroke-width:0.8;" x="280.371875" xlink:href="#mc05f8383af" y="311.2"/>
      </g>
     </g>
     <g id="text_16">
      <!-- 5 -->
      <g transform="translate(275.918125 328.837812)scale(0.14 -0.14)">
       <use xlink:href="#DejaVuSans-35"/>
      </g>
     </g>
    </g>
    <g id="xtick_12">
     <g id="line2d_34">
      <g>
       <use style="stroke:#000000;stroke-width:0.8;" x="353.434375" xlink:href="#mc05f8383af" y="311.2"/>
      </g>
     </g>
     <g id="text_17">
      <!-- 10 -->
      <g transform="translate(344.526875 328.837812)scale(0.14 -0.14)">
       <use xlink:href="#DejaVuSans-31"/>
       <use x="63.623047" xlink:href="#DejaVuSans-30"/>
      </g>
     </g>
    </g>
    <g id="text_18">
     <!-- $z_2/z_R$ -->
     <g transform="translate(263.711875 346.387187)scale(0.14 -0.14)">
      <defs>
       <path d="M 744 3500 
L 3475 3500 
L 3372 2975 
L 738 459 
L 2913 459 
L 2822 0 
L -19 0 
L 84 525 
L 2719 3041 
L 653 3041 
L 744 3500 
z
" id="DejaVuSans-Oblique-7a" transform="scale(0.015625)"/>
       <path d="M 1613 4147 
L 1294 2491 
L 2106 2491 
Q 2584 2491 2879 2755 
Q 3175 3019 3175 3444 
Q 3175 3784 2976 3965 
Q 2778 4147 2406 4147 
L 1613 4147 
z
M 2772 2241 
Q 2972 2194 3105 2009 
Q 3238 1825 3413 1275 
L 3809 0 
L 3144 0 
L 2778 1197 
Q 2638 1659 2453 1815 
Q 2269 1972 1888 1972 
L 1191 1972 
L 806 0 
L 172 0 
L 1081 4666 
L 2503 4666 
Q 3150 4666 3495 4373 
Q 3841 4081 3841 3531 
Q 3841 3044 3547 2687 
Q 3253 2331 2772 2241 
z
" id="DejaVuSans-Oblique-52" transform="scale(0.015625)"/>
      </defs>
      <use transform="translate(0 0.09375)" xlink:href="#DejaVuSans-Oblique-7a"/>
      <use transform="translate(52.490234 -16.3125)scale(0.7)" xlink:href="#DejaVuSans-32"/>
      <use transform="translate(99.760742 0.09375)" xlink:href="#DejaVuSans-2f"/>
      <use transform="translate(133.452148 0.09375)" xlink:href="#DejaVuSans-Oblique-7a"/>
      <use transform="translate(185.942383 -16.3125)scale(0.7)" xlink:href="#DejaVuSans-Oblique-52"/>
     </g>
    </g>
   </g>
   <g id="matplotlib.axis_8">
    <g id="ytick_16">
     <g id="line2d_35">
      <g>
       <use style="stroke:#000000;stroke-width:0.8;" x="207.309375" xlink:href="#m03adc004a8" y="311.2"/>
      </g>
     </g>
    </g>
    <g id="ytick_17">
     <g id="line2d_36">
      <g>
       <use style="stroke:#000000;stroke-width:0.8;" x="207.309375" xlink:href="#m03adc004a8" y="279.841304"/>
      </g>
     </g>
    </g>
    <g id="ytick_18">
     <g id="line2d_37">
      <g>
       <use style="stroke:#000000;stroke-width:0.8;" x="207.309375" xlink:href="#m03adc004a8" y="248.482609"/>
      </g>
     </g>
    </g>
    <g id="ytick_19">
     <g id="line2d_38">
      <g>
       <use style="stroke:#000000;stroke-width:0.8;" x="207.309375" xlink:href="#m03adc004a8" y="217.123913"/>
      </g>
     </g>
    </g>
    <g id="ytick_20">
     <g id="line2d_39">
      <g>
       <use style="stroke:#000000;stroke-width:0.8;" x="207.309375" xlink:href="#m03adc004a8" y="185.765217"/>
      </g>
     </g>
    </g>
   </g>
   <g id="line2d_40">
    <path clip-path="url(#pee5f847316)" d="M 207.309375 311.194797 
L 210.331534 304.125747 
L 213.353693 284.923667 
L 216.375853 258.857068 
L 219.398012 232.540633 
L 222.420171 211.646761 
L 225.44233 199.170878 
L 228.464489 194.887662 
L 231.486648 196.086281 
L 234.508808 199.125417 
L 237.530967 201.051937 
L 240.553126 200.596188 
L 243.575285 198.226969 
L 246.597444 195.41826 
L 249.619603 193.616682 
L 252.641763 193.458628 
L 255.663922 194.57367 
L 258.686081 195.964517 
L 261.70824 196.662802 
L 264.730399 196.264359 
L 267.752558 195.071292 
L 270.774718 193.818886 
L 273.796877 193.194899 
L 276.819036 193.446793 
L 279.841195 194.287724 
L 282.863354 195.120415 
L 285.885513 195.416557 
L 288.907673 195.018124 
L 291.929832 194.194752 
L 294.951991 193.446889 
L 297.97415 193.191523 
L 300.996309 193.523164 
L 304.018468 194.183095 
L 307.040628 194.73842 
L 310.062787 194.850246 
L 313.084946 194.467399 
L 316.107105 193.837211 
L 319.129264 193.339469 
L 322.151423 193.252827 
L 325.173583 193.595542 
L 328.195742 194.129901 
L 331.217901 194.517973 
L 334.24006 194.527938 
L 337.262219 194.166135 
L 340.284378 193.660757 
L 343.306538 193.314677 
L 346.328697 193.321385 
L 349.350856 193.655009 
L 352.373015 194.09607 
L 355.395174 194.371187 
L 358.417333 194.318469 
L 361.439493 193.979133 
L 364.461652 193.564154 
L 367.483811 193.321213 
L 370.50597 193.385333 
L 370.541875 193.389104 
" style="fill:none;stroke:#0000ff;stroke-linecap:square;stroke-width:1.5;"/>
   </g>
   <g id="line2d_41">
    <path clip-path="url(#pee5f847316)" d="M 210.331534 306.054671 
L 213.353693 292.873892 
L 216.375853 276.333737 
L 219.398012 260.234048 
L 222.420171 246.38035 
L 225.44233 235.151238 
L 228.464489 226.280933 
L 231.486648 219.325714 
L 234.508808 213.85975 
L 237.530967 209.533254 
L 240.553126 206.076166 
L 243.575285 203.285173 
L 246.597444 201.008416 
L 249.619603 199.132359 
L 252.641763 197.571647 
L 255.663922 196.261598 
L 258.686081 195.152749 
L 261.70824 194.206911 
L 264.730399 193.394319 
L 267.752558 192.691556 
L 270.774718 192.080029 
L 273.796877 191.544852 
L 276.819036 191.074009 
L 279.841195 190.657723 
L 282.863354 190.28798 
L 285.885513 189.958172 
L 288.907673 189.662807 
L 291.929832 189.397296 
L 294.951991 189.157785 
L 297.97415 188.941014 
L 300.996309 188.744216 
L 304.018468 188.565029 
L 307.040628 188.401426 
L 310.062787 188.251664 
L 313.084946 188.114234 
L 316.107105 187.987826 
L 319.129264 187.871298 
L 322.151423 187.763653 
L 325.173583 187.664015 
L 328.195742 187.571612 
L 331.217901 187.485764 
L 334.24006 187.405867 
L 337.262219 187.331387 
L 340.284378 187.261846 
L 343.306538 187.196819 
L 346.328697 187.135925 
L 349.350856 187.078822 
L 352.373015 187.025202 
L 355.395174 186.97479 
L 358.417333 186.927335 
L 361.439493 186.88261 
L 364.461652 186.840412 
L 367.483811 186.800553 
L 370.50597 186.762864 
L 370.541875 186.762441 
" style="fill:none;stroke:#0000ff;stroke-dasharray:5.55,2.4;stroke-dashoffset:0;stroke-width:1.5;"/>
   </g>
   <g id="line2d_42">
    <path clip-path="url(#pee5f847316)" d="M 207.309375 310.826696 
L 210.331534 308.875151 
L 213.353693 303.14518 
L 216.375853 293.985496 
L 219.398012 281.949338 
L 222.420171 267.755238 
L 225.44233 252.236389 
L 228.464489 236.282512 
L 231.486648 220.778625 
L 234.508808 206.545337 
L 237.530967 194.285098 
L 240.553126 184.538328 
L 243.575285 177.652503 
L 246.597444 173.766232 
L 249.619603 172.809145 
L 252.641763 174.517161 
L 255.663922 178.461523 
L 258.686081 184.088924 
L 261.70824 190.769285 
L 264.730399 197.847184 
L 267.752558 204.69282 
L 270.774718 210.748518 
L 273.796877 215.567283 
L 276.819036 218.840664 
L 279.841195 220.414152 
L 282.863354 220.289406 
L 285.885513 218.613702 
L 288.907673 215.658047 
L 291.929832 211.786259 
L 294.951991 207.418009 
L 297.97415 202.989174 
L 300.996309 198.912958 
L 304.018468 195.545054 
L 307.040628 193.155608 
L 310.062787 191.910088 
L 313.084946 191.860293 
L 316.107105 192.945822 
L 319.129264 195.005402 
L 322.151423 197.796632 
L 325.173583 201.022036 
L 328.195742 204.35884 
L 331.217901 207.489656 
L 334.24006 210.131293 
L 337.262219 212.059201 
L 340.284378 213.125503 
L 343.306538 213.269276 
L 346.328697 212.518435 
L 349.350856 210.983395 
L 352.373015 208.843401 
L 355.395174 206.32706 
L 358.417333 203.689072 
L 361.439493 201.185438 
L 364.461652 199.049482 
L 367.483811 197.470876 
L 370.50597 196.579481 
L 370.541875 196.577768 
" style="fill:none;stroke:#17becf;stroke-linecap:square;stroke-width:1.5;"/>
   </g>
   <g id="patch_18">
    <path d="M 207.309375 311.2 
L 207.309375 166.95 
" style="fill:none;stroke:#000000;stroke-linecap:square;stroke-linejoin:miter;stroke-width:0.8;"/>
   </g>
   <g id="patch_19">
    <path d="M 353.434375 311.2 
L 353.434375 166.95 
" style="fill:none;stroke:#000000;stroke-linecap:square;stroke-linejoin:miter;stroke-width:0.8;"/>
   </g>
   <g id="patch_20">
    <path d="M 207.309375 311.2 
L 353.434375 311.2 
" style="fill:none;stroke:#000000;stroke-linecap:square;stroke-linejoin:miter;stroke-width:0.8;"/>
   </g>
   <g id="patch_21">
    <path d="M 207.309375 166.95 
L 353.434375 166.95 
" style="fill:none;stroke:#000000;stroke-linecap:square;stroke-linejoin:miter;stroke-width:0.8;"/>
   </g>
  </g>
 </g>
 <defs>
  <clipPath id="p55c872b0f8">
   <rect height="144.25" width="146.125" x="45.371875" y="7.2"/>
  </clipPath>
  <clipPath id="p965c5a9084">
   <rect height="144.25" width="146.125" x="207.309375" y="7.2"/>
  </clipPath>
  <clipPath id="p83f8dd883d">
   <rect height="144.25" width="146.125" x="45.371875" y="166.95"/>
  </clipPath>
  <clipPath id="pee5f847316">
   <rect height="144.25" width="146.125" x="207.309375" y="166.95"/>
  </clipPath>
 </defs>
</svg>
