<?xml version="1.0" encoding="utf-8" standalone="no"?>
<!DOCTYPE svg PUBLIC "-//W3C//DTD SVG 1.1//EN"
  "http://www.w3.org/Graphics/SVG/1.1/DTD/svg11.dtd">
<svg height="356.49875pt" version="1.1" viewBox="0 0 369.541875 356.49875" width="369.541875pt" xmlns="http://www.w3.org/2000/svg" xmlns:xlink="http://www.w3.org/1999/xlink">
 <metadata>
  <rdf:RDF xmlns:cc="http://creativecommons.org/ns#" xmlns:dc="http://purl.org/dc/elements/1.1/" xmlns:rdf="http://www.w3.org/1999/02/22-rdf-syntax-ns#">
   <cc:Work>
    <dc:type rdf:resource="http://purl.org/dc/dcmitype/StillImage"/>
    <dc:date>2022-04-13T08:59:44.201682</dc:date>
    <dc:format>image/svg+xml</dc:format>
    <dc:creator>
     <cc:Agent>
      <dc:title>Matplotlib v3.4.3, https://matplotlib.org/</dc:title>
     </cc:Agent>
    </dc:creator>
   </cc:Work>
  </rdf:RDF>
 </metadata>
 <defs>
  <style type="text/css">*{stroke-linecap:butt;stroke-linejoin:round;}</style>
 </defs>
 <g id="figure_1">
  <g id="patch_1">
   <path d="M 0 356.49875 
L 369.541875 356.49875 
L 369.541875 0 
L 0 0 
z
" style="fill:none;"/>
  </g>
  <g id="axes_1">
   <g id="patch_2">
    <path d="M 45.371875 151.45 
L 191.496875 151.45 
L 191.496875 7.2 
L 45.371875 7.2 
z
" style="fill:#ffffff;"/>
   </g>
   <g id="matplotlib.axis_1">
    <g id="xtick_1">
     <g id="line2d_1">
      <defs>
       <path d="M 0 0 
L 0 3.5 
" id="m3ae72038e8" style="stroke:#000000;stroke-width:0.8;"/>
      </defs>
      <g>
       <use style="stroke:#000000;stroke-width:0.8;" x="45.371875" xlink:href="#m3ae72038e8" y="151.45"/>
      </g>
     </g>
    </g>
    <g id="xtick_2">
     <g id="line2d_2">
      <g>
       <use style="stroke:#000000;stroke-width:0.8;" x="118.434375" xlink:href="#m3ae72038e8" y="151.45"/>
      </g>
     </g>
    </g>
    <g id="xtick_3">
     <g id="line2d_3">
      <g>
       <use style="stroke:#000000;stroke-width:0.8;" x="191.496875" xlink:href="#m3ae72038e8" y="151.45"/>
      </g>
     </g>
    </g>
   </g>
   <g id="matplotlib.axis_2">
    <g id="ytick_1">
     <g id="line2d_4">
      <defs>
       <path d="M 0 0 
L -3.5 0 
" id="mffeefdc581" style="stroke:#000000;stroke-width:0.8;"/>
      </defs>
      <g>
       <use style="stroke:#000000;stroke-width:0.8;" x="45.371875" xlink:href="#mffeefdc581" y="151.45"/>
      </g>
     </g>
     <g id="text_1">
      <!-- 0.00 -->
      <g transform="translate(7.2 156.768906)scale(0.14 -0.14)">
       <defs>
        <path d="M 2034 4250 
Q 1547 4250 1301 3770 
Q 1056 3291 1056 2328 
Q 1056 1369 1301 889 
Q 1547 409 2034 409 
Q 2525 409 2770 889 
Q 3016 1369 3016 2328 
Q 3016 3291 2770 3770 
Q 2525 4250 2034 4250 
z
M 2034 4750 
Q 2819 4750 3233 4129 
Q 3647 3509 3647 2328 
Q 3647 1150 3233 529 
Q 2819 -91 2034 -91 
Q 1250 -91 836 529 
Q 422 1150 422 2328 
Q 422 3509 836 4129 
Q 1250 4750 2034 4750 
z
" id="DejaVuSans-30" transform="scale(0.015625)"/>
        <path d="M 684 794 
L 1344 794 
L 1344 0 
L 684 0 
L 684 794 
z
" id="DejaVuSans-2e" transform="scale(0.015625)"/>
       </defs>
       <use xlink:href="#DejaVuSans-30"/>
       <use x="63.623047" xlink:href="#DejaVuSans-2e"/>
       <use x="95.410156" xlink:href="#DejaVuSans-30"/>
       <use x="159.033203" xlink:href="#DejaVuSans-30"/>
      </g>
     </g>
    </g>
    <g id="ytick_2">
     <g id="line2d_5">
      <g>
       <use style="stroke:#000000;stroke-width:0.8;" x="45.371875" xlink:href="#mffeefdc581" y="117.104762"/>
      </g>
     </g>
     <g id="text_2">
      <!-- 0.25 -->
      <g transform="translate(7.2 122.423668)scale(0.14 -0.14)">
       <defs>
        <path d="M 1228 531 
L 3431 531 
L 3431 0 
L 469 0 
L 469 531 
Q 828 903 1448 1529 
Q 2069 2156 2228 2338 
Q 2531 2678 2651 2914 
Q 2772 3150 2772 3378 
Q 2772 3750 2511 3984 
Q 2250 4219 1831 4219 
Q 1534 4219 1204 4116 
Q 875 4013 500 3803 
L 500 4441 
Q 881 4594 1212 4672 
Q 1544 4750 1819 4750 
Q 2544 4750 2975 4387 
Q 3406 4025 3406 3419 
Q 3406 3131 3298 2873 
Q 3191 2616 2906 2266 
Q 2828 2175 2409 1742 
Q 1991 1309 1228 531 
z
" id="DejaVuSans-32" transform="scale(0.015625)"/>
        <path d="M 691 4666 
L 3169 4666 
L 3169 4134 
L 1269 4134 
L 1269 2991 
Q 1406 3038 1543 3061 
Q 1681 3084 1819 3084 
Q 2600 3084 3056 2656 
Q 3513 2228 3513 1497 
Q 3513 744 3044 326 
Q 2575 -91 1722 -91 
Q 1428 -91 1123 -41 
Q 819 9 494 109 
L 494 744 
Q 775 591 1075 516 
Q 1375 441 1709 441 
Q 2250 441 2565 725 
Q 2881 1009 2881 1497 
Q 2881 1984 2565 2268 
Q 2250 2553 1709 2553 
Q 1456 2553 1204 2497 
Q 953 2441 691 2322 
L 691 4666 
z
" id="DejaVuSans-35" transform="scale(0.015625)"/>
       </defs>
       <use xlink:href="#DejaVuSans-30"/>
       <use x="63.623047" xlink:href="#DejaVuSans-2e"/>
       <use x="95.410156" xlink:href="#DejaVuSans-32"/>
       <use x="159.033203" xlink:href="#DejaVuSans-35"/>
      </g>
     </g>
    </g>
    <g id="ytick_3">
     <g id="line2d_6">
      <g>
       <use style="stroke:#000000;stroke-width:0.8;" x="45.371875" xlink:href="#mffeefdc581" y="82.759524"/>
      </g>
     </g>
     <g id="text_3">
      <!-- 0.50 -->
      <g transform="translate(7.2 88.07843)scale(0.14 -0.14)">
       <use xlink:href="#DejaVuSans-30"/>
       <use x="63.623047" xlink:href="#DejaVuSans-2e"/>
       <use x="95.410156" xlink:href="#DejaVuSans-35"/>
       <use x="159.033203" xlink:href="#DejaVuSans-30"/>
      </g>
     </g>
    </g>
    <g id="ytick_4">
     <g id="line2d_7">
      <g>
       <use style="stroke:#000000;stroke-width:0.8;" x="45.371875" xlink:href="#mffeefdc581" y="48.414286"/>
      </g>
     </g>
     <g id="text_4">
      <!-- 0.75 -->
      <g transform="translate(7.2 53.733192)scale(0.14 -0.14)">
       <defs>
        <path d="M 525 4666 
L 3525 4666 
L 3525 4397 
L 1831 0 
L 1172 0 
L 2766 4134 
L 525 4134 
L 525 4666 
z
" id="DejaVuSans-37" transform="scale(0.015625)"/>
       </defs>
       <use xlink:href="#DejaVuSans-30"/>
       <use x="63.623047" xlink:href="#DejaVuSans-2e"/>
       <use x="95.410156" xlink:href="#DejaVuSans-37"/>
       <use x="159.033203" xlink:href="#DejaVuSans-35"/>
      </g>
     </g>
    </g>
    <g id="ytick_5">
     <g id="line2d_8">
      <g>
       <use style="stroke:#000000;stroke-width:0.8;" x="45.371875" xlink:href="#mffeefdc581" y="14.069048"/>
      </g>
     </g>
     <g id="text_5">
      <!-- 1.00 -->
      <g transform="translate(7.2 19.387954)scale(0.14 -0.14)">
       <defs>
        <path d="M 794 531 
L 1825 531 
L 1825 4091 
L 703 3866 
L 703 4441 
L 1819 4666 
L 2450 4666 
L 2450 531 
L 3481 531 
L 3481 0 
L 794 0 
L 794 531 
z
" id="DejaVuSans-31" transform="scale(0.015625)"/>
       </defs>
       <use xlink:href="#DejaVuSans-31"/>
       <use x="63.623047" xlink:href="#DejaVuSans-2e"/>
       <use x="95.410156" xlink:href="#DejaVuSans-30"/>
       <use x="159.033203" xlink:href="#DejaVuSans-30"/>
      </g>
     </g>
    </g>
   </g>
   <g id="line2d_9">
    <path clip-path="url(#p128662dbd9)" d="M 43.001298 15.221195 
L 45.371875 14.069048 
L 47.742452 15.221195 
L 50.113029 18.619987 
L 52.483606 24.097248 
L 54.854184 31.388076 
L 57.224761 40.152065 
L 59.595338 49.9996 
L 61.965915 60.520402 
L 64.336492 71.311424 
L 66.707069 82.001508 
L 69.077647 92.270831 
L 71.448224 101.863923 
L 73.818801 110.595915 
L 76.189378 118.352433 
L 78.559955 125.084166 
L 80.930532 130.79754 
L 83.301109 135.54305 
L 85.671687 139.402779 
L 88.042264 142.478363 
L 90.412841 144.880363 
L 92.783418 146.719622 
L 95.153995 148.100845 
L 97.524572 149.118371 
L 99.89515 149.853869 
L 102.265727 150.375609 
L 104.636304 150.738883 
L 107.006881 150.987188 
L 109.377458 151.153822 
L 111.748035 151.263626 
L 114.118613 151.33468 
L 116.48919 151.379837 
L 118.859767 151.408025 
L 121.230344 151.425307 
L 123.600921 151.435717 
L 125.971498 151.441876 
L 128.342075 151.445456 
L 130.712653 151.447501 
L 133.08323 151.448649 
L 135.453807 151.449282 
L 137.824384 151.449624 
L 140.194961 151.449807 
L 142.565538 151.449902 
L 144.936116 151.449951 
L 147.306693 151.449976 
L 149.67727 151.449989 
L 152.047847 151.449995 
L 154.418424 151.449997 
L 156.789001 151.449999 
L 159.159578 151.449999 
L 161.530156 151.45 
L 163.900733 151.45 
L 166.27131 151.45 
L 168.641887 151.45 
L 171.012464 151.45 
L 173.383041 151.45 
L 175.753619 151.45 
L 178.124196 151.45 
L 180.494773 151.45 
L 182.86535 151.45 
L 185.235927 151.45 
L 187.606504 151.45 
L 189.977081 151.45 
L 192.347659 151.45 
" style="fill:none;stroke:#ff0000;stroke-dasharray:5.55,2.4;stroke-dashoffset:0;stroke-width:1.5;"/>
   </g>
   <g id="line2d_10">
    <path clip-path="url(#p128662dbd9)" d="M 43.001298 16.833013 
L 45.371875 14.080544 
L 47.742452 14.069048 
L 50.113029 16.799659 
L 52.483606 22.128089 
L 54.854184 29.775935 
L 57.224761 39.352329 
L 59.595338 50.383814 
L 61.965915 62.349557 
L 64.336492 74.718567 
L 66.707069 86.985544 
L 69.077647 98.702222 
L 71.448224 109.501737 
L 73.818801 119.114366 
L 76.189378 127.373955 
L 78.559955 134.215351 
L 80.930532 139.664014 
L 83.301109 143.819639 
L 85.671687 146.836081 
L 88.042264 148.899931 
L 90.412841 150.209978 
L 92.783418 150.959402 
L 95.153995 151.321963 
L 97.524572 151.442879 
L 99.89515 151.434411 
L 102.265727 151.375694 
L 104.636304 151.315919 
L 107.006881 151.279777 
L 109.377458 151.274007 
L 111.748035 151.294009 
L 114.118613 151.329682 
L 116.48919 151.369966 
L 118.859767 151.405834 
L 121.230344 151.431775 
L 123.600921 151.446016 
L 125.971498 151.449851 
L 128.342075 151.446485 
L 130.712653 151.439785 
L 133.08323 151.433218 
L 135.453807 151.429156 
L 137.824384 151.428609 
L 140.194961 151.431329 
L 142.565538 151.436184 
L 144.936116 151.441651 
L 147.306693 151.446291 
L 149.67727 151.449106 
L 152.047847 151.449712 
L 154.418424 151.448337 
L 156.789001 151.44566 
L 159.159578 151.442582 
L 161.530156 151.439969 
L 163.900733 151.438455 
L 166.27131 151.438325 
L 168.641887 151.439499 
L 171.012464 151.441611 
L 173.383041 151.444135 
L 175.753619 151.446535 
L 178.124196 151.448394 
L 180.494773 151.449488 
L 182.86535 151.449813 
L 185.235927 151.449543 
L 187.606504 151.448963 
L 189.977081 151.44837 
L 192.347659 151.448 
" style="fill:none;stroke:#ff0000;stroke-linecap:square;stroke-width:1.5;"/>
   </g>
   <g id="patch_3">
    <path d="M 45.371875 151.45 
L 45.371875 7.2 
" style="fill:none;stroke:#000000;stroke-linecap:square;stroke-linejoin:miter;stroke-width:0.8;"/>
   </g>
   <g id="patch_4">
    <path d="M 191.496875 151.45 
L 191.496875 7.2 
" style="fill:none;stroke:#000000;stroke-linecap:square;stroke-linejoin:miter;stroke-width:0.8;"/>
   </g>
   <g id="patch_5">
    <path d="M 45.371875 151.45 
L 191.496875 151.45 
" style="fill:none;stroke:#000000;stroke-linecap:square;stroke-linejoin:miter;stroke-width:0.8;"/>
   </g>
   <g id="patch_6">
    <path d="M 45.371875 7.2 
L 191.496875 7.2 
" style="fill:none;stroke:#000000;stroke-linecap:square;stroke-linejoin:miter;stroke-width:0.8;"/>
   </g>
  </g>
  <g id="axes_2">
   <g id="patch_7">
    <path d="M 207.309375 151.45 
L 353.434375 151.45 
L 353.434375 7.2 
L 207.309375 7.2 
z
" style="fill:#ffffff;"/>
   </g>
   <g id="matplotlib.axis_3">
    <g id="xtick_4">
     <g id="line2d_11">
      <g>
       <use style="stroke:#000000;stroke-width:0.8;" x="207.309375" xlink:href="#m3ae72038e8" y="151.45"/>
      </g>
     </g>
    </g>
    <g id="xtick_5">
     <g id="line2d_12">
      <g>
       <use style="stroke:#000000;stroke-width:0.8;" x="280.371875" xlink:href="#m3ae72038e8" y="151.45"/>
      </g>
     </g>
    </g>
    <g id="xtick_6">
     <g id="line2d_13">
      <g>
       <use style="stroke:#000000;stroke-width:0.8;" x="353.434375" xlink:href="#m3ae72038e8" y="151.45"/>
      </g>
     </g>
    </g>
   </g>
   <g id="matplotlib.axis_4">
    <g id="ytick_6">
     <g id="line2d_14">
      <g>
       <use style="stroke:#000000;stroke-width:0.8;" x="207.309375" xlink:href="#mffeefdc581" y="151.45"/>
      </g>
     </g>
    </g>
    <g id="ytick_7">
     <g id="line2d_15">
      <g>
       <use style="stroke:#000000;stroke-width:0.8;" x="207.309375" xlink:href="#mffeefdc581" y="117.104762"/>
      </g>
     </g>
    </g>
    <g id="ytick_8">
     <g id="line2d_16">
      <g>
       <use style="stroke:#000000;stroke-width:0.8;" x="207.309375" xlink:href="#mffeefdc581" y="82.759524"/>
      </g>
     </g>
    </g>
    <g id="ytick_9">
     <g id="line2d_17">
      <g>
       <use style="stroke:#000000;stroke-width:0.8;" x="207.309375" xlink:href="#mffeefdc581" y="48.414286"/>
      </g>
     </g>
    </g>
    <g id="ytick_10">
     <g id="line2d_18">
      <g>
       <use style="stroke:#000000;stroke-width:0.8;" x="207.309375" xlink:href="#mffeefdc581" y="14.069048"/>
      </g>
     </g>
    </g>
   </g>
   <g id="line2d_19">
    <path clip-path="url(#pe9b7efd2d1)" d="M 207.309375 14.080544 
L 210.331534 18.804443 
L 213.353693 32.069045 
L 216.375853 51.404647 
L 219.398012 73.437196 
L 222.420171 94.749316 
L 225.44233 112.675238 
L 228.464489 125.799858 
L 231.486648 134.045661 
L 234.508808 138.375993 
L 237.530967 140.264813 
L 240.553126 141.139802 
L 243.575285 141.982821 
L 246.597444 143.186303 
L 249.619603 144.655392 
L 252.641763 146.057879 
L 255.663922 147.088414 
L 258.686081 147.636554 
L 261.70824 147.811829 
L 264.730399 147.85037 
L 267.752558 147.975193 
L 270.774718 148.288915 
L 273.796877 148.746938 
L 276.819036 149.210953 
L 279.841195 149.542311 
L 282.863354 149.680689 
L 285.885513 149.668852 
L 288.907673 149.617719 
L 291.929832 149.638119 
L 294.951991 149.780201 
L 297.97415 150.012784 
L 300.996309 150.249879 
L 304.018468 150.405222 
L 307.040628 150.441968 
L 310.062787 150.390262 
L 313.084946 150.325387 
L 316.107105 150.321774 
L 319.129264 150.410588 
L 322.151423 150.564743 
L 325.173583 150.718225 
L 328.195742 150.806719 
L 331.217901 150.805119 
L 334.24006 150.740509 
L 337.262219 150.67427 
L 340.284378 150.664954 
L 343.306538 150.734212 
L 346.328697 150.855436 
L 349.350856 150.970978 
L 352.373015 151.027046 
L 355.395174 151.005418 
L 358.417333 150.933491 
L 361.439493 150.867265 
L 364.461652 150.857759 
L 367.483811 150.92089 
L 370.50597 151.028483 
L 370.541875 151.029635 
" style="fill:none;stroke:#ff0000;stroke-linecap:square;stroke-width:1.5;"/>
   </g>
   <g id="line2d_20">
    <path clip-path="url(#pe9b7efd2d1)" d="M 207.309375 14.069048 
L 210.331534 19.704408 
L 213.353693 34.1405 
L 216.375853 52.255907 
L 219.398012 69.888899 
L 222.420171 85.061998 
L 225.44233 97.360549 
L 228.464489 107.075645 
L 231.486648 114.693265 
L 234.508808 120.679797 
L 237.530967 125.418341 
L 240.553126 129.204676 
L 243.575285 132.261477 
L 246.597444 134.755068 
L 249.619603 136.809798 
L 252.641763 138.519149 
L 255.663922 139.953964 
L 258.686081 141.168418 
L 261.70824 142.204336 
L 264.730399 143.094317 
L 267.752558 143.864011 
L 270.774718 144.533778 
L 273.796877 145.119924 
L 276.819036 145.635609 
L 279.841195 146.091542 
L 282.863354 146.496498 
L 285.885513 146.857716 
L 288.907673 147.181212 
L 291.929832 147.472009 
L 294.951991 147.734331 
L 297.97415 147.971747 
L 300.996309 148.187287 
L 304.018468 148.38354 
L 307.040628 148.562724 
L 310.062787 148.726749 
L 313.084946 148.877267 
L 316.107105 149.015714 
L 319.129264 149.14334 
L 322.151423 149.261237 
L 325.173583 149.370365 
L 328.195742 149.471568 
L 331.217901 149.565592 
L 334.24006 149.653098 
L 337.262219 149.734672 
L 340.284378 149.810835 
L 343.306538 149.882055 
L 346.328697 149.948749 
L 349.350856 150.011291 
L 352.373015 150.070016 
L 355.395174 150.12523 
L 358.417333 150.177205 
L 361.439493 150.226189 
L 364.461652 150.272406 
L 367.483811 150.316061 
L 370.50597 150.357339 
L 370.541875 150.357803 
" style="fill:none;stroke:#ff0000;stroke-dasharray:5.55,2.4;stroke-dashoffset:0;stroke-width:1.5;"/>
   </g>
   <g id="patch_8">
    <path d="M 207.309375 151.45 
L 207.309375 7.2 
" style="fill:none;stroke:#000000;stroke-linecap:square;stroke-linejoin:miter;stroke-width:0.8;"/>
   </g>
   <g id="patch_9">
    <path d="M 353.434375 151.45 
L 353.434375 7.2 
" style="fill:none;stroke:#000000;stroke-linecap:square;stroke-linejoin:miter;stroke-width:0.8;"/>
   </g>
   <g id="patch_10">
    <path d="M 207.309375 151.45 
L 353.434375 151.45 
" style="fill:none;stroke:#000000;stroke-linecap:square;stroke-linejoin:miter;stroke-width:0.8;"/>
   </g>
   <g id="patch_11">
    <path d="M 207.309375 7.2 
L 353.434375 7.2 
" style="fill:none;stroke:#000000;stroke-linecap:square;stroke-linejoin:miter;stroke-width:0.8;"/>
   </g>
  </g>
  <g id="axes_3">
   <g id="patch_12">
    <path d="M 45.371875 311.2 
L 191.496875 311.2 
L 191.496875 166.95 
L 45.371875 166.95 
z
" style="fill:#ffffff;"/>
   </g>
   <g id="matplotlib.axis_5">
    <g id="xtick_7">
     <g id="line2d_21">
      <g>
       <use style="stroke:#000000;stroke-width:0.8;" x="45.371875" xlink:href="#m3ae72038e8" y="311.2"/>
      </g>
     </g>
     <g id="text_6">
      <!-- 0 -->
      <g transform="translate(40.918125 328.837812)scale(0.14 -0.14)">
       <use xlink:href="#DejaVuSans-30"/>
      </g>
     </g>
    </g>
    <g id="xtick_8">
     <g id="line2d_22">
      <g>
       <use style="stroke:#000000;stroke-width:0.8;" x="118.434375" xlink:href="#m3ae72038e8" y="311.2"/>
      </g>
     </g>
     <g id="text_7">
      <!-- 2 -->
      <g transform="translate(113.980625 328.837812)scale(0.14 -0.14)">
       <use xlink:href="#DejaVuSans-32"/>
      </g>
     </g>
    </g>
    <g id="xtick_9">
     <g id="line2d_23">
      <g>
       <use style="stroke:#000000;stroke-width:0.8;" x="191.496875" xlink:href="#m3ae72038e8" y="311.2"/>
      </g>
     </g>
     <g id="text_8">
      <!-- 4 -->
      <g transform="translate(187.043125 328.837812)scale(0.14 -0.14)">
       <defs>
        <path d="M 2419 4116 
L 825 1625 
L 2419 1625 
L 2419 4116 
z
M 2253 4666 
L 3047 4666 
L 3047 1625 
L 3713 1625 
L 3713 1100 
L 3047 1100 
L 3047 0 
L 2419 0 
L 2419 1100 
L 313 1100 
L 313 1709 
L 2253 4666 
z
" id="DejaVuSans-34" transform="scale(0.015625)"/>
       </defs>
       <use xlink:href="#DejaVuSans-34"/>
      </g>
     </g>
    </g>
    <g id="text_9">
     <!-- $\rho_2/w_0$ -->
     <g transform="translate(99.254375 346.35875)scale(0.14 -0.14)">
      <defs>
       <path d="M 1203 2875 
Q 1453 3194 1981 3475 
Q 2188 3584 2756 3584 
Q 3394 3584 3694 3078 
Q 3994 2572 3834 1747 
Q 3672 922 3175 415 
Q 2678 -91 2041 -91 
Q 1656 -91 1409 63 
Q 1163 213 1044 525 
L 681 -1331 
L 103 -1331 
L 697 1716 
Q 838 2438 1203 2875 
z
M 3238 1747 
Q 3359 2381 3169 2744 
Q 2978 3103 2522 3103 
Q 2066 3103 1734 2744 
Q 1403 2381 1281 1747 
Q 1156 1113 1347 750 
Q 1538 391 1994 391 
Q 2450 391 2781 750 
Q 3113 1113 3238 1747 
z
" id="DejaVuSans-Oblique-3c1" transform="scale(0.015625)"/>
       <path d="M 1625 4666 
L 2156 4666 
L 531 -594 
L 0 -594 
L 1625 4666 
z
" id="DejaVuSans-2f" transform="scale(0.015625)"/>
       <path d="M 544 3500 
L 1113 3500 
L 1259 684 
L 2566 3500 
L 3231 3500 
L 3425 684 
L 4666 3500 
L 5241 3500 
L 3641 0 
L 2969 0 
L 2797 2900 
L 1459 0 
L 781 0 
L 544 3500 
z
" id="DejaVuSans-Oblique-77" transform="scale(0.015625)"/>
      </defs>
      <use transform="translate(0 0.09375)" xlink:href="#DejaVuSans-Oblique-3c1"/>
      <use transform="translate(63.476562 -16.3125)scale(0.7)" xlink:href="#DejaVuSans-32"/>
      <use transform="translate(110.74707 0.09375)" xlink:href="#DejaVuSans-2f"/>
      <use transform="translate(144.438477 0.09375)" xlink:href="#DejaVuSans-Oblique-77"/>
      <use transform="translate(226.225586 -16.3125)scale(0.7)" xlink:href="#DejaVuSans-30"/>
     </g>
    </g>
   </g>
   <g id="matplotlib.axis_6">
    <g id="ytick_11">
     <g id="line2d_24">
      <g>
       <use style="stroke:#000000;stroke-width:0.8;" x="45.371875" xlink:href="#mffeefdc581" y="311.2"/>
      </g>
     </g>
     <g id="text_10">
      <!-- 0.0 -->
      <g transform="translate(16.1075 316.518906)scale(0.14 -0.14)">
       <use xlink:href="#DejaVuSans-30"/>
       <use x="63.623047" xlink:href="#DejaVuSans-2e"/>
       <use x="95.410156" xlink:href="#DejaVuSans-30"/>
      </g>
     </g>
    </g>
    <g id="ytick_12">
     <g id="line2d_25">
      <g>
       <use style="stroke:#000000;stroke-width:0.8;" x="45.371875" xlink:href="#mffeefdc581" y="259.682143"/>
      </g>
     </g>
     <g id="text_11">
      <!-- 0.5 -->
      <g transform="translate(16.1075 265.001049)scale(0.14 -0.14)">
       <use xlink:href="#DejaVuSans-30"/>
       <use x="63.623047" xlink:href="#DejaVuSans-2e"/>
       <use x="95.410156" xlink:href="#DejaVuSans-35"/>
      </g>
     </g>
    </g>
    <g id="ytick_13">
     <g id="line2d_26">
      <g>
       <use style="stroke:#000000;stroke-width:0.8;" x="45.371875" xlink:href="#mffeefdc581" y="208.164286"/>
      </g>
     </g>
     <g id="text_12">
      <!-- 1.0 -->
      <g transform="translate(16.1075 213.483192)scale(0.14 -0.14)">
       <use xlink:href="#DejaVuSans-31"/>
       <use x="63.623047" xlink:href="#DejaVuSans-2e"/>
       <use x="95.410156" xlink:href="#DejaVuSans-30"/>
      </g>
     </g>
    </g>
   </g>
   <g id="line2d_27">
    <path clip-path="url(#p0a492190ad)" d="M 43.001298 311.198175 
L 45.371875 311.199994 
L 47.742452 311.198175 
L 50.113029 311.171249 
L 52.483606 311.057491 
L 54.854184 310.762584 
L 57.224761 310.171251 
L 59.595338 309.161329 
L 61.965915 307.618472 
L 64.336492 305.449697 
L 66.707069 302.59421 
L 69.077647 299.03043 
L 71.448224 294.778647 
L 73.818801 289.899384 
L 76.189378 284.488006 
L 78.559955 278.666528 
L 80.930532 272.573771 
L 83.301109 266.355055 
L 85.671687 260.152491 
L 88.042264 254.096714 
L 90.412841 248.300589 
L 92.783418 242.855146 
L 95.153995 237.827687 
L 97.524572 233.261853 
L 99.89515 229.179245 
L 102.265727 225.582158 
L 104.636304 222.456986 
L 107.006881 219.777885 
L 109.377458 217.510371 
L 111.748035 215.614609 
L 114.118613 214.048242 
L 116.48919 212.768686 
L 118.859767 211.734874 
L 121.230344 210.908497 
L 123.600921 210.254773 
L 125.971498 209.742861 
L 128.342075 209.34597 
L 130.712653 209.041248 
L 133.08323 208.809531 
L 135.453807 208.634992 
L 137.824384 208.50475 
L 140.194961 208.408459 
L 142.565538 208.337922 
L 144.936116 208.286721 
L 147.306693 208.24989 
L 149.67727 208.223636 
L 152.047847 208.205087 
L 154.418424 208.1921 
L 156.789001 208.183088 
L 159.159578 208.176889 
L 161.530156 208.172663 
L 163.900733 208.169807 
L 166.27131 208.167894 
L 168.641887 208.166624 
L 171.012464 208.165789 
L 173.383041 208.165244 
L 175.753619 208.164891 
L 178.124196 208.164665 
L 180.494773 208.164521 
L 182.86535 208.164431 
L 185.235927 208.164374 
L 187.606504 208.164339 
L 189.977081 208.164318 
L 192.347659 208.164305 
" style="fill:none;stroke:#0000ff;stroke-dasharray:5.55,2.4;stroke-dashoffset:0;stroke-width:1.5;"/>
   </g>
   <g id="line2d_28">
    <path clip-path="url(#p0a492190ad)" d="M 43.001298 311.171357 
L 45.371875 311.195438 
L 47.742452 311.195438 
L 50.113029 311.171357 
L 52.483606 311.06293 
L 54.854184 310.756771 
L 57.224761 310.099849 
L 59.595338 308.917737 
L 61.965915 307.035589 
L 64.336492 304.299471 
L 66.707069 300.59572 
L 69.077647 295.866246 
L 71.448224 290.118229 
L 73.818801 283.427314 
L 76.189378 275.934154 
L 78.559955 267.834892 
L 80.930532 259.366773 
L 83.301109 250.790534 
L 85.671687 242.371451 
L 88.042264 234.360925 
L 90.412841 226.980277 
L 92.783418 220.408064 
L 95.153995 214.771737 
L 97.524572 210.143939 
L 99.89515 206.543261 
L 102.265727 203.938849 
L 104.636304 202.257977 
L 107.006881 201.395527 
L 109.377458 201.224319 
L 111.748035 201.605329 
L 114.118613 202.397009 
L 116.48919 203.463175 
L 118.859767 204.67916 
L 121.230344 205.936156 
L 123.600921 207.143856 
L 125.971498 208.231602 
L 128.342075 209.14835 
L 130.712653 209.86171 
L 133.08323 210.356362 
L 135.453807 210.632035 
L 137.824384 210.70122 
L 140.194961 210.586731 
L 142.565538 210.319184 
L 144.936116 209.934454 
L 147.306693 209.471173 
L 149.67727 208.968336 
L 152.047847 208.463085 
L 154.418424 207.988765 
L 156.789001 207.573333 
L 159.159578 207.238191 
L 161.530156 206.997496 
L 163.900733 206.857958 
L 166.27131 206.819123 
L 168.641887 206.874072 
L 171.012464 207.010472 
L 173.383041 207.211873 
L 175.753619 207.459141 
L 178.124196 207.731926 
L 180.494773 208.010056 
L 182.86535 208.274791 
L 185.235927 208.509858 
L 187.606504 208.702249 
L 189.977081 208.842738 
L 192.347659 208.92614 
" style="fill:none;stroke:#0000ff;stroke-linecap:square;stroke-width:1.5;"/>
   </g>
   <g id="line2d_29">
    <path clip-path="url(#p0a492190ad)" d="M 43.001298 310.773561 
L 45.371875 310.840505 
L 47.742452 310.840506 
L 50.113029 310.773564 
L 52.483606 310.623507 
L 54.854184 310.358985 
L 57.224761 309.935397 
L 59.595338 309.297647 
L 61.965915 308.383576 
L 64.336492 307.127866 
L 66.707069 305.46622 
L 69.077647 303.339563 
L 71.448224 300.698044 
L 73.818801 297.504627 
L 76.189378 293.738067 
L 78.559955 289.395117 
L 80.930532 284.491859 
L 83.301109 279.064089 
L 85.671687 273.166748 
L 88.042264 266.872432 
L 90.412841 260.269087 
L 92.783418 253.456992 
L 95.153995 246.545208 
L 97.524572 239.647684 
L 99.89515 232.879192 
L 102.265727 226.351315 
L 104.636304 220.168658 
L 107.006881 214.425456 
L 109.377458 209.202711 
L 111.748035 204.565973 
L 114.118613 200.56382 
L 116.48919 197.227072 
L 118.859767 194.568722 
L 121.230344 192.584543 
L 123.600921 191.254292 
L 125.971498 190.54341 
L 128.342075 190.405105 
L 130.712653 190.78269 
L 133.08323 191.612061 
L 135.453807 192.824176 
L 137.824384 194.347453 
L 140.194961 196.109983 
L 142.565538 198.04149 
L 144.936116 200.074993 
L 147.306693 202.148153 
L 149.67727 204.204282 
L 152.047847 206.193046 
L 154.418424 208.070874 
L 156.789001 209.80113 
L 159.159578 211.354066 
L 161.530156 212.706634 
L 163.900733 213.84217 
L 166.27131 214.750019 
L 168.641887 215.425114 
L 171.012464 215.867539 
L 173.383041 216.082099 
L 175.753619 216.077897 
L 178.124196 215.867919 
L 180.494773 215.468625 
L 182.86535 214.899531 
L 185.235927 214.182784 
L 187.606504 213.342697 
L 189.977081 212.40527 
L 192.347659 211.397652 
" style="fill:none;stroke:#17becf;stroke-linecap:square;stroke-width:1.5;"/>
   </g>
   <g id="patch_13">
    <path d="M 45.371875 311.2 
L 45.371875 166.95 
" style="fill:none;stroke:#000000;stroke-linecap:square;stroke-linejoin:miter;stroke-width:0.8;"/>
   </g>
   <g id="patch_14">
    <path d="M 191.496875 311.2 
L 191.496875 166.95 
" style="fill:none;stroke:#000000;stroke-linecap:square;stroke-linejoin:miter;stroke-width:0.8;"/>
   </g>
   <g id="patch_15">
    <path d="M 45.371875 311.2 
L 191.496875 311.2 
" style="fill:none;stroke:#000000;stroke-linecap:square;stroke-linejoin:miter;stroke-width:0.8;"/>
   </g>
   <g id="patch_16">
    <path d="M 45.371875 166.95 
L 191.496875 166.95 
" style="fill:none;stroke:#000000;stroke-linecap:square;stroke-linejoin:miter;stroke-width:0.8;"/>
   </g>
  </g>
  <g id="axes_4">
   <g id="patch_17">
    <path d="M 207.309375 311.2 
L 353.434375 311.2 
L 353.434375 166.95 
L 207.309375 166.95 
z
" style="fill:#ffffff;"/>
   </g>
   <g id="matplotlib.axis_7">
    <g id="xtick_10">
     <g id="line2d_30">
      <g>
       <use style="stroke:#000000;stroke-width:0.8;" x="207.309375" xlink:href="#m3ae72038e8" y="311.2"/>
      </g>
     </g>
     <g id="text_13">
      <!-- 0 -->
      <g transform="translate(202.855625 328.837812)scale(0.14 -0.14)">
       <use xlink:href="#DejaVuSans-30"/>
      </g>
     </g>
    </g>
    <g id="xtick_11">
     <g id="line2d_31">
      <g>
       <use style="stroke:#000000;stroke-width:0.8;" x="280.371875" xlink:href="#m3ae72038e8" y="311.2"/>
      </g>
     </g>
     <g id="text_14">
      <!-- 5 -->
      <g transform="translate(275.918125 328.837812)scale(0.14 -0.14)">
       <use xlink:href="#DejaVuSans-35"/>
      </g>
     </g>
    </g>
    <g id="xtick_12">
     <g id="line2d_32">
      <g>
       <use style="stroke:#000000;stroke-width:0.8;" x="353.434375" xlink:href="#m3ae72038e8" y="311.2"/>
      </g>
     </g>
     <g id="text_15">
      <!-- 10 -->
      <g transform="translate(344.526875 328.837812)scale(0.14 -0.14)">
       <use xlink:href="#DejaVuSans-31"/>
       <use x="63.623047" xlink:href="#DejaVuSans-30"/>
      </g>
     </g>
    </g>
    <g id="text_16">
     <!-- $z_2/z_R$ -->
     <g transform="translate(263.711875 346.387187)scale(0.14 -0.14)">
      <defs>
       <path d="M 744 3500 
L 3475 3500 
L 3372 2975 
L 738 459 
L 2913 459 
L 2822 0 
L -19 0 
L 84 525 
L 2719 3041 
L 653 3041 
L 744 3500 
z
" id="DejaVuSans-Oblique-7a" transform="scale(0.015625)"/>
       <path d="M 1613 4147 
L 1294 2491 
L 2106 2491 
Q 2584 2491 2879 2755 
Q 3175 3019 3175 3444 
Q 3175 3784 2976 3965 
Q 2778 4147 2406 4147 
L 1613 4147 
z
M 2772 2241 
Q 2972 2194 3105 2009 
Q 3238 1825 3413 1275 
L 3809 0 
L 3144 0 
L 2778 1197 
Q 2638 1659 2453 1815 
Q 2269 1972 1888 1972 
L 1191 1972 
L 806 0 
L 172 0 
L 1081 4666 
L 2503 4666 
Q 3150 4666 3495 4373 
Q 3841 4081 3841 3531 
Q 3841 3044 3547 2687 
Q 3253 2331 2772 2241 
z
" id="DejaVuSans-Oblique-52" transform="scale(0.015625)"/>
      </defs>
      <use transform="translate(0 0.09375)" xlink:href="#DejaVuSans-Oblique-7a"/>
      <use transform="translate(52.490234 -16.3125)scale(0.7)" xlink:href="#DejaVuSans-32"/>
      <use transform="translate(99.760742 0.09375)" xlink:href="#DejaVuSans-2f"/>
      <use transform="translate(133.452148 0.09375)" xlink:href="#DejaVuSans-Oblique-7a"/>
      <use transform="translate(185.942383 -16.3125)scale(0.7)" xlink:href="#DejaVuSans-Oblique-52"/>
     </g>
    </g>
   </g>
   <g id="matplotlib.axis_8">
    <g id="ytick_14">
     <g id="line2d_33">
      <g>
       <use style="stroke:#000000;stroke-width:0.8;" x="207.309375" xlink:href="#mffeefdc581" y="311.2"/>
      </g>
     </g>
    </g>
    <g id="ytick_15">
     <g id="line2d_34">
      <g>
       <use style="stroke:#000000;stroke-width:0.8;" x="207.309375" xlink:href="#mffeefdc581" y="259.682143"/>
      </g>
     </g>
    </g>
    <g id="ytick_16">
     <g id="line2d_35">
      <g>
       <use style="stroke:#000000;stroke-width:0.8;" x="207.309375" xlink:href="#mffeefdc581" y="208.164286"/>
      </g>
     </g>
    </g>
   </g>
   <g id="line2d_36">
    <path clip-path="url(#pdc34f0bf79)" d="M 207.309375 311.195438 
L 210.331534 304.997608 
L 213.353693 288.162071 
L 216.375853 265.308028 
L 219.398012 242.234939 
L 222.420171 223.916114 
L 225.44233 212.977811 
L 228.464489 209.222476 
L 231.486648 210.273372 
L 234.508808 212.937952 
L 237.530967 214.62704 
L 240.553126 214.227459 
L 243.575285 212.150233 
L 246.597444 209.687681 
L 249.619603 208.108137 
L 252.641763 207.969562 
L 255.663922 208.947182 
L 258.686081 210.166615 
L 261.70824 210.77884 
L 264.730399 210.429503 
L 267.752558 209.383475 
L 270.774718 208.28542 
L 273.796877 207.738336 
L 276.819036 207.959186 
L 279.841195 208.696477 
L 282.863354 209.426543 
L 285.885513 209.686188 
L 288.907673 209.336859 
L 291.929832 208.614963 
L 294.951991 207.95927 
L 297.97415 207.735377 
L 300.996309 208.026144 
L 304.018468 208.604743 
L 307.040628 209.091627 
L 310.062787 209.189672 
L 313.084946 208.854008 
L 316.107105 208.301487 
L 319.129264 207.865089 
L 322.151423 207.789125 
L 325.173583 208.089602 
L 328.195742 208.558104 
L 331.217901 208.898349 
L 334.24006 208.907086 
L 337.262219 208.589873 
L 340.284378 208.14678 
L 343.306538 207.843352 
L 346.328697 207.849233 
L 349.350856 208.141741 
L 352.373015 208.528443 
L 355.395174 208.769654 
L 358.417333 208.723433 
L 361.439493 208.425918 
L 364.461652 208.062083 
L 367.483811 207.849083 
L 370.50597 207.9053 
L 370.541875 207.908607 
" style="fill:none;stroke:#0000ff;stroke-linecap:square;stroke-width:1.5;"/>
   </g>
   <g id="line2d_37">
    <path clip-path="url(#pdc34f0bf79)" d="M 210.331534 306.97348 
L 213.353693 296.146411 
L 216.375853 282.559856 
L 219.398012 269.335111 
L 222.420171 257.955287 
L 225.44233 248.731374 
L 228.464489 241.445052 
L 231.486648 235.731837 
L 234.508808 231.241938 
L 237.530967 227.68803 
L 240.553126 224.848279 
L 243.575285 222.555678 
L 246.597444 220.685484 
L 249.619603 219.144438 
L 252.641763 217.862424 
L 255.663922 216.786313 
L 258.686081 215.875472 
L 261.70824 215.098534 
L 264.730399 214.431048 
L 267.752558 213.853778 
L 270.774718 213.351452 
L 273.796877 212.911843 
L 276.819036 212.525079 
L 279.841195 212.183129 
L 282.863354 211.879413 
L 285.885513 211.608498 
L 288.907673 211.365877 
L 291.929832 211.147779 
L 294.951991 210.951037 
L 297.97415 210.772976 
L 300.996309 210.61132 
L 304.018468 210.464131 
L 307.040628 210.329743 
L 310.062787 210.206724 
L 313.084946 210.093835 
L 316.107105 209.99 
L 319.129264 209.894281 
L 322.151423 209.805858 
L 325.173583 209.724012 
L 328.195742 209.64811 
L 331.217901 209.577592 
L 334.24006 209.511962 
L 337.262219 209.450782 
L 340.284378 209.393659 
L 343.306538 209.340244 
L 346.328697 209.290224 
L 349.350856 209.243318 
L 352.373015 209.199273 
L 355.395174 209.157863 
L 358.417333 209.118882 
L 361.439493 209.082144 
L 364.461652 209.047481 
L 367.483811 209.01474 
L 370.50597 208.983781 
L 370.541875 208.983433 
" style="fill:none;stroke:#0000ff;stroke-dasharray:5.55,2.4;stroke-dashoffset:0;stroke-width:1.5;"/>
   </g>
   <g id="line2d_38">
    <path clip-path="url(#pdc34f0bf79)" d="M 207.309375 310.840505 
L 210.331534 308.961148 
L 213.353693 303.443132 
L 216.375853 294.622268 
L 219.398012 283.031333 
L 222.420171 269.362279 
L 225.44233 254.417479 
L 228.464489 239.053743 
L 231.486648 224.123351 
L 234.508808 210.416558 
L 237.530967 198.609831 
L 240.553126 189.223599 
L 243.575285 182.592483 
L 246.597444 178.849967 
L 249.619603 177.928283 
L 252.641763 179.573119 
L 255.663922 183.371577 
L 258.686081 188.790818 
L 261.70824 195.22407 
L 264.730399 202.040154 
L 267.752558 208.632566 
L 270.774718 214.464262 
L 273.796877 219.104779 
L 276.819036 222.257076 
L 279.841195 223.77236 
L 282.863354 223.652229 
L 285.885513 222.03851 
L 288.907673 219.192185 
L 291.929832 215.463616 
L 294.951991 211.25695 
L 297.97415 206.99194 
L 300.996309 203.066505 
L 304.018468 199.823181 
L 307.040628 197.522122 
L 310.062787 196.322674 
L 313.084946 196.274721 
L 316.107105 197.320096 
L 319.129264 199.303491 
L 322.151423 201.991472 
L 325.173583 205.097567 
L 328.195742 208.310941 
L 331.217901 211.325946 
L 334.24006 213.869869 
L 337.262219 215.726462 
L 340.284378 216.753321 
L 343.306538 216.891776 
L 346.328697 216.168709 
L 349.350856 214.69045 
L 352.373015 212.629616 
L 355.395174 210.206356 
L 358.417333 207.665948 
L 361.439493 205.254924 
L 364.461652 203.197979 
L 367.483811 201.677766 
L 370.50597 200.819343 
L 370.541875 200.817694 
" style="fill:none;stroke:#17becf;stroke-linecap:square;stroke-width:1.5;"/>
   </g>
   <g id="patch_18">
    <path d="M 207.309375 311.2 
L 207.309375 166.95 
" style="fill:none;stroke:#000000;stroke-linecap:square;stroke-linejoin:miter;stroke-width:0.8;"/>
   </g>
   <g id="patch_19">
    <path d="M 353.434375 311.2 
L 353.434375 166.95 
" style="fill:none;stroke:#000000;stroke-linecap:square;stroke-linejoin:miter;stroke-width:0.8;"/>
   </g>
   <g id="patch_20">
    <path d="M 207.309375 311.2 
L 353.434375 311.2 
" style="fill:none;stroke:#000000;stroke-linecap:square;stroke-linejoin:miter;stroke-width:0.8;"/>
   </g>
   <g id="patch_21">
    <path d="M 207.309375 166.95 
L 353.434375 166.95 
" style="fill:none;stroke:#000000;stroke-linecap:square;stroke-linejoin:miter;stroke-width:0.8;"/>
   </g>
  </g>
 </g>
 <defs>
  <clipPath id="p128662dbd9">
   <rect height="144.25" width="146.125" x="45.371875" y="7.2"/>
  </clipPath>
  <clipPath id="pe9b7efd2d1">
   <rect height="144.25" width="146.125" x="207.309375" y="7.2"/>
  </clipPath>
  <clipPath id="p0a492190ad">
   <rect height="144.25" width="146.125" x="45.371875" y="166.95"/>
  </clipPath>
  <clipPath id="pdc34f0bf79">
   <rect height="144.25" width="146.125" x="207.309375" y="166.95"/>
  </clipPath>
 </defs>
</svg>
