<?xml version="1.0" encoding="UTF-8" standalone="no"?>
<svg
   height="269.348281pt"
   version="1.1"
   viewBox="0 0 425.41625 269.348281"
   width="425.41625pt"
   id="svg565"
   sodipodi:docname="plt_z_rho_confinement_bright_dark123_legended_4423.svg"
   inkscape:version="1.1.2 (b8e25be833, 2022-02-05)"
   xmlns:inkscape="http://www.inkscape.org/namespaces/inkscape"
   xmlns:sodipodi="http://sodipodi.sourceforge.net/DTD/sodipodi-0.dtd"
   xmlns:xlink="http://www.w3.org/1999/xlink"
   xmlns="http://www.w3.org/2000/svg"
   xmlns:svg="http://www.w3.org/2000/svg"
   xmlns:rdf="http://www.w3.org/1999/02/22-rdf-syntax-ns#"
   xmlns:cc="http://creativecommons.org/ns#"
   xmlns:dc="http://purl.org/dc/elements/1.1/">
  <sodipodi:namedview
     id="namedview567"
     pagecolor="#ffffff"
     bordercolor="#999999"
     borderopacity="1"
     inkscape:pageshadow="0"
     inkscape:pageopacity="0"
     inkscape:pagecheckerboard="0"
     inkscape:document-units="pt"
     showgrid="false"
     inkscape:zoom="0.65296503"
     inkscape:cx="187.60576"
     inkscape:cy="129.40969"
     inkscape:window-width="1280"
     inkscape:window-height="698"
     inkscape:window-x="-6"
     inkscape:window-y="-6"
     inkscape:window-maximized="1"
     inkscape:current-layer="svg565" />
  <metadata
     id="metadata2">
    <rdf:RDF>
      <cc:Work>
        <dc:type
           rdf:resource="http://purl.org/dc/dcmitype/StillImage" />
        <dc:date>2022-03-10T11:29:53.215285</dc:date>
        <dc:format>image/svg+xml</dc:format>
        <dc:creator>
          <cc:Agent>
            <dc:title>Matplotlib v3.4.3, https://matplotlib.org/</dc:title>
          </cc:Agent>
        </dc:creator>
      </cc:Work>
    </rdf:RDF>
  </metadata>
  <defs
     id="defs6">
    <style
       type="text/css"
       id="style4">*{stroke-linecap:butt;stroke-linejoin:round;}</style>
  </defs>
  <g
     id="patch_1">
    <path
       d="M 0,269.34828 H 425.41625 V 0 H 0 Z"
       style="fill:none"
       id="path8" />
  </g>
  <g
     id="axes_1">
    <g
       id="patch_2">
      <path
         d="M 61.45,224.01891 H 226.2 V 12.518906 H 61.45 Z"
         style="fill:#ffffff"
         id="path11" />
    </g>
    <g
       id="matplotlib.axis_1">
      <g
         id="xtick_1">
        <g
           id="line2d_1">
          <defs
             id="defs15">
            <path
               d="M 0,0 V 3.5"
               id="m316cb67a29"
               style="stroke:#000000;stroke-width:0.8" />
          </defs>
          <g
             id="g19">
            <use
               style="stroke:#000000;stroke-width:0.8"
               x="61.450001"
               xlink:href="#m316cb67a29"
               y="224.01891"
               id="use17"
               width="100%"
               height="100%" />
          </g>
        </g>
        <g
           id="text_1">
          <!-- 0 -->
          <g
             transform="matrix(0.14,0,0,-0.14,56.99625,241.65672)"
             id="g27">
            <defs
               id="defs23">
              <path
                 d="m 2034,4250 q -487,0 -733,-480 -245,-479 -245,-1442 0,-959 245,-1439 246,-480 733,-480 491,0 736,480 246,480 246,1439 0,963 -246,1442 -245,480 -736,480 z m 0,500 q 785,0 1199,-621 414,-620 414,-1801 0,-1178 -414,-1799 -414,-620 -1199,-620 -784,0 -1198,620 -414,621 -414,1799 0,1181 414,1801 414,621 1198,621 z"
                 id="DejaVuSans-30"
                 transform="scale(0.015625)" />
            </defs>
            <use
               xlink:href="#DejaVuSans-30"
               id="use25"
               x="0"
               y="0"
               width="100%"
               height="100%" />
          </g>
        </g>
      </g>
      <g
         id="xtick_2">
        <g
           id="line2d_2">
          <g
             id="g33">
            <use
               style="stroke:#000000;stroke-width:0.8"
               x="116.36667"
               xlink:href="#m316cb67a29"
               y="224.01891"
               id="use31"
               width="100%"
               height="100%" />
          </g>
        </g>
        <g
           id="text_2">
          <!-- 2 -->
          <g
             transform="matrix(0.14,0,0,-0.14,111.91292,241.65672)"
             id="g41">
            <defs
               id="defs37">
              <path
                 d="M 1228,531 H 3431 V 0 H 469 v 531 q 359,372 979,998 621,627 780,809 303,340 423,576 121,236 121,464 0,372 -261,606 -261,235 -680,235 -297,0 -627,-103 -329,-103 -704,-313 v 638 q 381,153 712,231 332,78 607,78 725,0 1156,-363 431,-362 431,-968 0,-288 -108,-546 -107,-257 -392,-607 -78,-91 -497,-524 Q 1991,1309 1228,531 Z"
                 id="DejaVuSans-32"
                 transform="scale(0.015625)" />
            </defs>
            <use
               xlink:href="#DejaVuSans-32"
               id="use39"
               x="0"
               y="0"
               width="100%"
               height="100%" />
          </g>
        </g>
      </g>
      <g
         id="xtick_3">
        <g
           id="line2d_3">
          <g
             id="g47">
            <use
               style="stroke:#000000;stroke-width:0.8"
               x="171.28334"
               xlink:href="#m316cb67a29"
               y="224.01891"
               id="use45"
               width="100%"
               height="100%" />
          </g>
        </g>
        <g
           id="text_3">
          <!-- 4 -->
          <g
             transform="matrix(0.14,0,0,-0.14,166.82958,241.65672)"
             id="g55">
            <defs
               id="defs51">
              <path
                 d="M 2419,4116 825,1625 h 1594 z m -166,550 h 794 V 1625 h 666 V 1100 H 3047 V 0 H 2419 V 1100 H 313 v 609 z"
                 id="DejaVuSans-34"
                 transform="scale(0.015625)" />
            </defs>
            <use
               xlink:href="#DejaVuSans-34"
               id="use53"
               x="0"
               y="0"
               width="100%"
               height="100%" />
          </g>
        </g>
      </g>
      <g
         id="xtick_4">
        <g
           id="line2d_4">
          <g
             id="g61">
            <use
               style="stroke:#000000;stroke-width:0.8"
               x="226.2"
               xlink:href="#m316cb67a29"
               y="224.01891"
               id="use59"
               width="100%"
               height="100%" />
          </g>
        </g>
        <g
           id="text_4">
          <!-- 6 -->
          <g
             transform="matrix(0.14,0,0,-0.14,221.74625,241.65672)"
             id="g69">
            <defs
               id="defs65">
              <path
                 d="m 2113,2584 q -425,0 -674,-291 -248,-290 -248,-796 0,-503 248,-796 249,-292 674,-292 425,0 673,292 248,293 248,796 0,506 -248,796 -248,291 -673,291 z m 1253,1979 v -575 q -238,112 -480,171 -242,60 -480,60 -625,0 -955,-422 -329,-422 -376,-1275 184,272 462,417 279,145 613,145 703,0 1111,-427 408,-426 408,-1160 0,-719 -425,-1154 -425,-434 -1131,-434 -810,0 -1238,620 -428,621 -428,1799 0,1106 525,1764 525,658 1409,658 238,0 480,-47 242,-47 505,-140 z"
                 id="DejaVuSans-36"
                 transform="scale(0.015625)" />
            </defs>
            <use
               xlink:href="#DejaVuSans-36"
               id="use67"
               x="0"
               y="0"
               width="100%"
               height="100%" />
          </g>
        </g>
      </g>
      <g
         id="text_5">
        <!-- z [$\mathrm{\mu m}$] -->
        <g
           transform="matrix(0.14,0,0,-0.14,121.145,259.20828)"
           id="g93">
          <defs
             id="defs79">
            <path
               d="M 353,3500 H 3084 V 2975 L 922,459 H 3084 V 0 H 275 V 525 L 2438,3041 H 353 Z"
               id="DejaVuSans-7a"
               transform="scale(0.015625)" />
            <path
               id="DejaVuSans-20"
               transform="scale(0.015625)"
               d="" />
            <path
               d="M 550,4863 H 1875 V 4416 H 1125 V -397 h 750 V -844 H 550 Z"
               id="DejaVuSans-5b"
               transform="scale(0.015625)" />
            <path
               d="m 544,-1331 v 4831 h 575 V 1325 q 0,-453 215,-685 216,-231 638,-231 462,0 695,262 233,263 233,788 v 2041 h 575 V 806 q 0,-187 54,-276 55,-89 171,-89 28,0 78,17 50,17 138,55 V 50 Q 3788,-22 3673,-56 3559,-91 3450,-91 3234,-91 3106,31 2978,153 2931,403 2775,156 2548,32 2322,-91 2016,-91 1697,-91 1473,31 1250,153 1119,397 v -1728 z"
               id="DejaVuSans-3bc"
               transform="scale(0.015625)" />
            <path
               d="m 3328,2828 q 216,388 516,572 300,184 706,184 547,0 844,-383 297,-382 297,-1088 V 0 h -578 v 2094 q 0,503 -179,746 -178,244 -543,244 -447,0 -707,-297 -259,-296 -259,-809 V 0 h -578 v 2094 q 0,506 -178,748 -178,242 -550,242 -441,0 -701,-298 -259,-298 -259,-808 V 0 H 581 v 3500 h 578 v -544 q 197,322 472,475 275,153 653,153 382,0 649,-194 267,-193 395,-562 z"
               id="DejaVuSans-6d"
               transform="scale(0.015625)" />
            <path
               d="M 1947,4863 V -844 H 622 v 447 h 747 V 4416 H 622 v 447 z"
               id="DejaVuSans-5d"
               transform="scale(0.015625)" />
          </defs>
          <use
             transform="translate(0,0.015625)"
             xlink:href="#DejaVuSans-7a"
             id="use81"
             x="0"
             y="0"
             width="100%"
             height="100%" />
          <use
             transform="translate(52.490234,0.015625)"
             xlink:href="#DejaVuSans-20"
             id="use83"
             x="0"
             y="0"
             width="100%"
             height="100%" />
          <use
             transform="translate(84.277344,0.015625)"
             xlink:href="#DejaVuSans-5b"
             id="use85"
             x="0"
             y="0"
             width="100%"
             height="100%" />
          <use
             transform="translate(123.29102,0.015625)"
             xlink:href="#DejaVuSans-3bc"
             id="use87"
             x="0"
             y="0"
             width="100%"
             height="100%" />
          <use
             transform="translate(186.91406,0.015625)"
             xlink:href="#DejaVuSans-6d"
             id="use89"
             x="0"
             y="0"
             width="100%"
             height="100%" />
          <use
             transform="translate(284.32617,0.015625)"
             xlink:href="#DejaVuSans-5d"
             id="use91"
             x="0"
             y="0"
             width="100%"
             height="100%" />
        </g>
      </g>
    </g>
    <g
       id="matplotlib.axis_2">
      <g
         id="ytick_1">
        <g
           id="line2d_5">
          <defs
             id="defs98">
            <path
               d="M 0,0 H -3.5"
               id="me3ffdf9627"
               style="stroke:#000000;stroke-width:0.8" />
          </defs>
          <g
             id="g102">
            <use
               style="stroke:#000000;stroke-width:0.8"
               x="61.450001"
               xlink:href="#me3ffdf9627"
               y="224.01891"
               id="use100"
               width="100%"
               height="100%" />
          </g>
        </g>
        <g
           id="text_6">
          <!-- 0.0 -->
          <g
             transform="matrix(0.14,0,0,-0.14,32.185625,229.33781)"
             id="g114">
            <defs
               id="defs106">
              <path
                 d="m 684,794 h 660 V 0 H 684 Z"
                 id="DejaVuSans-2e"
                 transform="scale(0.015625)" />
            </defs>
            <use
               xlink:href="#DejaVuSans-30"
               id="use108"
               x="0"
               y="0"
               width="100%"
               height="100%" />
            <use
               x="63.623047"
               xlink:href="#DejaVuSans-2e"
               id="use110"
               y="0"
               width="100%"
               height="100%" />
            <use
               x="95.410156"
               xlink:href="#DejaVuSans-30"
               id="use112"
               y="0"
               width="100%"
               height="100%" />
          </g>
        </g>
      </g>
      <g
         id="ytick_2">
        <g
           id="line2d_6">
          <g
             id="g120">
            <use
               style="stroke:#000000;stroke-width:0.8"
               x="61.450001"
               xlink:href="#me3ffdf9627"
               y="188.76891"
               id="use118"
               width="100%"
               height="100%" />
          </g>
        </g>
        <g
           id="text_7">
          <!-- 0.2 -->
          <g
             transform="matrix(0.14,0,0,-0.14,32.185625,194.08781)"
             id="g129">
            <use
               xlink:href="#DejaVuSans-30"
               id="use123"
               x="0"
               y="0"
               width="100%"
               height="100%" />
            <use
               x="63.623047"
               xlink:href="#DejaVuSans-2e"
               id="use125"
               y="0"
               width="100%"
               height="100%" />
            <use
               x="95.410156"
               xlink:href="#DejaVuSans-32"
               id="use127"
               y="0"
               width="100%"
               height="100%" />
          </g>
        </g>
      </g>
      <g
         id="ytick_3">
        <g
           id="line2d_7">
          <g
             id="g135">
            <use
               style="stroke:#000000;stroke-width:0.8"
               x="61.450001"
               xlink:href="#me3ffdf9627"
               y="153.51891"
               id="use133"
               width="100%"
               height="100%" />
          </g>
        </g>
        <g
           id="text_8">
          <!-- 0.4 -->
          <g
             transform="matrix(0.14,0,0,-0.14,32.185625,158.83781)"
             id="g144">
            <use
               xlink:href="#DejaVuSans-30"
               id="use138"
               x="0"
               y="0"
               width="100%"
               height="100%" />
            <use
               x="63.623047"
               xlink:href="#DejaVuSans-2e"
               id="use140"
               y="0"
               width="100%"
               height="100%" />
            <use
               x="95.410156"
               xlink:href="#DejaVuSans-34"
               id="use142"
               y="0"
               width="100%"
               height="100%" />
          </g>
        </g>
      </g>
      <g
         id="ytick_4">
        <g
           id="line2d_8">
          <g
             id="g150">
            <use
               style="stroke:#000000;stroke-width:0.8"
               x="61.450001"
               xlink:href="#me3ffdf9627"
               y="118.26891"
               id="use148"
               width="100%"
               height="100%" />
          </g>
        </g>
        <g
           id="text_9">
          <!-- 0.6 -->
          <g
             transform="matrix(0.14,0,0,-0.14,32.185625,123.58781)"
             id="g159">
            <use
               xlink:href="#DejaVuSans-30"
               id="use153"
               x="0"
               y="0"
               width="100%"
               height="100%" />
            <use
               x="63.623047"
               xlink:href="#DejaVuSans-2e"
               id="use155"
               y="0"
               width="100%"
               height="100%" />
            <use
               x="95.410156"
               xlink:href="#DejaVuSans-36"
               id="use157"
               y="0"
               width="100%"
               height="100%" />
          </g>
        </g>
      </g>
      <g
         id="ytick_5">
        <g
           id="line2d_9">
          <g
             id="g165">
            <use
               style="stroke:#000000;stroke-width:0.8"
               x="61.450001"
               xlink:href="#me3ffdf9627"
               y="83.018906"
               id="use163"
               width="100%"
               height="100%" />
          </g>
        </g>
        <g
           id="text_10">
          <!-- 0.8 -->
          <g
             transform="matrix(0.14,0,0,-0.14,32.185625,88.337813)"
             id="g177">
            <defs
               id="defs169">
              <path
                 d="m 2034,2216 q -450,0 -708,-241 -257,-241 -257,-662 0,-422 257,-663 258,-241 708,-241 450,0 709,242 260,243 260,662 0,421 -258,662 -257,241 -711,241 z m -631,268 q -406,100 -633,378 -226,279 -226,679 0,559 398,884 399,325 1092,325 697,0 1094,-325 397,-325 397,-884 0,-400 -227,-679 -226,-278 -629,-378 456,-106 710,-416 255,-309 255,-755 Q 3634,634 3220,271 2806,-91 2034,-91 1263,-91 848,271 434,634 434,1313 q 0,446 256,755 257,310 713,416 z m -231,997 q 0,-362 226,-565 227,-203 636,-203 407,0 636,203 230,203 230,565 0,363 -230,566 -229,203 -636,203 -409,0 -636,-203 -226,-203 -226,-566 z"
                 id="DejaVuSans-38"
                 transform="scale(0.015625)" />
            </defs>
            <use
               xlink:href="#DejaVuSans-30"
               id="use171"
               x="0"
               y="0"
               width="100%"
               height="100%" />
            <use
               x="63.623047"
               xlink:href="#DejaVuSans-2e"
               id="use173"
               y="0"
               width="100%"
               height="100%" />
            <use
               x="95.410156"
               xlink:href="#DejaVuSans-38"
               id="use175"
               y="0"
               width="100%"
               height="100%" />
          </g>
        </g>
      </g>
      <g
         id="ytick_6">
        <g
           id="line2d_10">
          <g
             id="g183">
            <use
               style="stroke:#000000;stroke-width:0.8"
               x="61.450001"
               xlink:href="#me3ffdf9627"
               y="47.768906"
               id="use181"
               width="100%"
               height="100%" />
          </g>
        </g>
        <g
           id="text_11">
          <!-- 1.0 -->
          <g
             transform="matrix(0.14,0,0,-0.14,32.185625,53.087813)"
             id="g195">
            <defs
               id="defs187">
              <path
                 d="M 794,531 H 1825 V 4091 L 703,3866 v 575 l 1116,225 h 631 V 531 H 3481 V 0 H 794 Z"
                 id="DejaVuSans-31"
                 transform="scale(0.015625)" />
            </defs>
            <use
               xlink:href="#DejaVuSans-31"
               id="use189"
               x="0"
               y="0"
               width="100%"
               height="100%" />
            <use
               x="63.623047"
               xlink:href="#DejaVuSans-2e"
               id="use191"
               y="0"
               width="100%"
               height="100%" />
            <use
               x="95.410156"
               xlink:href="#DejaVuSans-30"
               id="use193"
               y="0"
               width="100%"
               height="100%" />
          </g>
        </g>
      </g>
      <g
         id="ytick_7">
        <g
           id="line2d_11">
          <g
             id="g201">
            <use
               style="stroke:#000000;stroke-width:0.8"
               x="61.450001"
               xlink:href="#me3ffdf9627"
               y="12.518906"
               id="use199"
               width="100%"
               height="100%" />
          </g>
        </g>
        <g
           id="text_12">
          <!-- 1.2 -->
          <g
             transform="matrix(0.14,0,0,-0.14,32.185625,17.837812)"
             id="g210">
            <use
               xlink:href="#DejaVuSans-31"
               id="use204"
               x="0"
               y="0"
               width="100%"
               height="100%" />
            <use
               x="63.623047"
               xlink:href="#DejaVuSans-2e"
               id="use206"
               y="0"
               width="100%"
               height="100%" />
            <use
               x="95.410156"
               xlink:href="#DejaVuSans-32"
               id="use208"
               y="0"
               width="100%"
               height="100%" />
          </g>
        </g>
      </g>
      <g
         id="text_13">
        <!-- Intensity -->
        <g
           transform="matrix(0,-0.14,-0.14,0,25.274062,148.73641)"
           id="g241">
          <defs
             id="defs221">
            <path
               d="m 628,4666 h 631 V 0 H 628 Z"
               id="DejaVuSans-49"
               transform="scale(0.015625)" />
            <path
               d="M 3513,2113 V 0 h -575 v 2094 q 0,497 -194,743 -194,247 -581,247 -466,0 -735,-297 -269,-296 -269,-809 V 0 H 581 v 3500 h 578 v -544 q 207,316 486,472 280,156 646,156 603,0 912,-373 310,-373 310,-1098 z"
               id="DejaVuSans-6e"
               transform="scale(0.015625)" />
            <path
               d="M 1172,4494 V 3500 H 2356 V 3053 H 1172 V 1153 q 0,-428 117,-550 117,-122 477,-122 h 590 V 0 H 1766 Q 1100,0 847,248 594,497 594,1153 V 3053 H 172 v 447 h 422 v 994 z"
               id="DejaVuSans-74"
               transform="scale(0.015625)" />
            <path
               d="M 3597,1894 V 1613 H 953 q 38,-594 358,-905 320,-311 892,-311 331,0 642,81 311,81 618,244 V 178 Q 3153,47 2828,-22 2503,-91 2169,-91 1331,-91 842,396 353,884 353,1716 q 0,859 464,1363 464,505 1252,505 706,0 1117,-455 411,-454 411,-1235 z m -575,169 q -6,471 -264,752 -258,282 -683,282 -481,0 -770,-272 -289,-272 -333,-766 z"
               id="DejaVuSans-65"
               transform="scale(0.015625)" />
            <path
               d="m 2834,3397 v -544 q -243,125 -506,187 -262,63 -544,63 -428,0 -642,-131 -214,-131 -214,-394 0,-200 153,-314 153,-114 616,-217 l 197,-44 q 612,-131 870,-370 258,-239 258,-667 0,-488 -386,-773 Q 2250,-91 1575,-91 1294,-91 989,-36 684,19 347,128 v 594 q 319,-166 628,-249 309,-82 613,-82 406,0 624,139 219,139 219,392 0,234 -158,359 -157,125 -692,241 l -200,47 q -534,112 -772,345 -237,233 -237,639 0,494 350,762 350,269 994,269 318,0 599,-47 282,-46 519,-140 z"
               id="DejaVuSans-73"
               transform="scale(0.015625)" />
            <path
               d="m 603,3500 h 575 V 0 H 603 Z m 0,1363 h 575 V 4134 H 603 Z"
               id="DejaVuSans-69"
               transform="scale(0.015625)" />
            <path
               d="m 2059,-325 q -243,-625 -475,-815 -231,-191 -618,-191 H 506 v 481 h 338 q 237,0 368,113 132,112 291,531 L 1606,56 191,3500 H 800 L 1894,763 2988,3500 h 609 z"
               id="DejaVuSans-79"
               transform="scale(0.015625)" />
          </defs>
          <use
             xlink:href="#DejaVuSans-49"
             id="use223"
             x="0"
             y="0"
             width="100%"
             height="100%" />
          <use
             x="29.492188"
             xlink:href="#DejaVuSans-6e"
             id="use225"
             y="0"
             width="100%"
             height="100%" />
          <use
             x="92.871094"
             xlink:href="#DejaVuSans-74"
             id="use227"
             y="0"
             width="100%"
             height="100%" />
          <use
             x="132.08008"
             xlink:href="#DejaVuSans-65"
             id="use229"
             y="0"
             width="100%"
             height="100%" />
          <use
             x="193.60352"
             xlink:href="#DejaVuSans-6e"
             id="use231"
             y="0"
             width="100%"
             height="100%" />
          <use
             x="256.98242"
             xlink:href="#DejaVuSans-73"
             id="use233"
             y="0"
             width="100%"
             height="100%" />
          <use
             x="309.08203"
             xlink:href="#DejaVuSans-69"
             id="use235"
             y="0"
             width="100%"
             height="100%" />
          <use
             x="336.86523"
             xlink:href="#DejaVuSans-74"
             id="use237"
             y="0"
             width="100%"
             height="100%" />
          <use
             x="376.07422"
             xlink:href="#DejaVuSans-79"
             id="use239"
             y="0"
             width="100%"
             height="100%" />
        </g>
      </g>
    </g>
    <g
       id="line2d_12">
      <path
         clip-path="url(#p49e7cd819e)"
         d="m 61.45,47.768906 1.664141,0.02612 1.664142,0.07834 1.664141,0.130487 1.664142,0.182523 1.664141,0.234403 1.664141,0.286079 1.664142,0.337509 1.664141,0.388649 1.664142,0.439452 1.664141,0.48988 1.664142,0.539885 1.664141,0.589428 1.664141,0.638466 1.664142,0.686957 1.664141,0.734863 1.664142,0.782142 1.664141,0.828756 1.664141,0.874667 1.664142,0.919839 1.664141,0.964233 1.664142,1.007816 1.664141,1.050554 1.664142,1.092411 1.664137,1.133357 1.66414,1.173362 1.66415,1.212394 1.66414,1.250425 1.66414,1.287428 1.66414,1.323376 1.66414,1.358247 1.66414,1.392013 1.66414,1.424655 1.66415,1.45615 1.66414,1.486482 1.66414,1.515629 1.66414,1.543576 1.66414,1.570309 1.66414,1.595811 1.66415,1.620074 1.66414,1.643083 1.66414,1.664831 1.66414,1.68531 1.66414,1.704512 1.66414,1.722434 1.66414,1.739072 1.66414,1.754422 1.66415,1.768485 1.66414,1.781264 1.66414,1.792754 1.66414,1.80297 1.66414,1.81191 1.66414,1.81958 1.66414,1.826 1.66415,1.83115 1.66414,1.83507 1.66414,1.83777 1.66414,1.83925 1.66414,1.83952 1.66414,1.83863 1.66414,1.83656 1.66415,1.83334 1.66414,1.82901 1.66414,1.82356 1.66414,1.81703 1.66414,1.80945 1.66414,1.80083 1.66414,1.7912 1.66415,1.78059 1.66414,1.76903 1.66414,1.75656 1.66414,1.74317 1.66414,1.72895 1.66414,1.71389 1.66414,1.69802 1.66415,1.68142 1.66414,1.66408 1.66414,1.64606 1.66414,1.62739 1.66414,1.6081 1.66414,1.58826 1.66414,1.56786 1.66415,1.54698 1.66414,1.52566 1.66414,1.50391 1.66414,1.4818 1.66414,1.45935 1.66414,1.43662 1.66414,1.41363 1.66415,1.39043 1.66414,1.36704 1.66414,1.34351 1.66414,1.31986 1.66414,1.29612 1.66414,1.27229 1.66414,1.2484 1.66415,1.22446 1.66414,1.20043 1.66414,1.17633 1.66414,1.1521"
         style="fill:none;stroke:#ff0000;stroke-width:1.5;stroke-linecap:square"
         id="path245" />
    </g>
    <g
       id="line2d_13">
      <path
         clip-path="url(#p49e7cd819e)"
         d="m 61.45,47.768906 1.664141,0.04463 1.664142,0.133764 1.664141,0.22249 1.664142,0.310543 1.664141,0.397662 1.664141,0.483591 1.664142,0.568085 1.664141,0.650907 1.664142,0.731836 1.664141,0.81066 1.664142,0.887185 1.664141,0.961229 1.664141,1.032633 1.664142,1.101248 1.664141,1.166949 1.664142,1.229624 1.664141,1.289182 1.664141,1.345549 1.664142,1.398668 1.664141,1.448503 1.664142,1.495027 1.664141,1.538237 1.664142,1.578139 1.664137,1.614758 1.66414,1.64813 1.66415,1.678301 1.66414,1.705333 1.66414,1.729293 1.66414,1.750262 1.66414,1.768324 1.66414,1.783575 1.66414,1.79611 1.66415,1.806037 1.66414,1.813461 1.66414,1.818493 1.66414,1.821245 1.66414,1.821832 1.66414,1.820369 1.66415,1.816967 1.66414,1.811743 1.66414,1.80481 1.66414,1.79627 1.66414,1.78624 1.66414,1.77483 1.66414,1.76212 1.66414,1.74825 1.66415,1.73326 1.66414,1.71731 1.66414,1.70042 1.66414,1.68274 1.66414,1.6643 1.66414,1.6452 1.66414,1.62552 1.66415,1.60532 1.66414,1.58467 1.66414,1.56363 1.66414,1.54225 1.66414,1.52061 1.66414,1.49874 1.66414,1.4767 1.66415,1.45453 1.66414,1.43227 1.66414,1.40996 1.66414,1.38764 1.66414,1.36534 1.66414,1.3431 1.66414,1.32093 1.66415,1.29888 1.66414,1.27696 1.66414,1.25518 1.66414,1.23357 1.66414,1.21217 1.66414,1.19097 1.66414,1.16997 1.66415,1.14923 1.66414,1.12872 1.66414,1.10848 1.66414,1.08848 1.66414,1.06877 1.66414,1.04932 1.66414,1.03018 1.66415,1.0113 1.66414,0.99273 1.66414,0.97445 1.66414,0.95646 1.66414,0.93877 1.66414,0.92139 1.66414,0.9043 1.66415,0.8875 1.66414,0.87101 1.66414,0.85482 1.66414,0.83892 1.66414,0.8233 1.66414,0.808 1.66414,0.79296 1.66415,0.77823 1.66414,0.76376 1.66414,0.74959 1.66414,0.73568"
         style="fill:none;stroke:#ff0000;stroke-width:1.5;stroke-dasharray:5.55, 2.4;stroke-dashoffset:0"
         id="path248" />
    </g>
    <g
       id="line2d_14">
      <path
         clip-path="url(#p49e7cd819e)"
         d="m 61.45,224.01891 1.664141,-0.0392 1.664142,-0.11764 1.664141,-0.19591 1.664142,-0.27399 1.664141,-0.35175 1.664141,-0.42915 1.664142,-0.50606 1.664141,-0.58244 1.664142,-0.65819 1.664141,-0.73321 1.664142,-0.80745 1.664141,-0.88082 1.664141,-0.95323 1.664142,-1.02462 1.664141,-1.09491 1.664142,-1.16402 1.664141,-1.23189 1.664141,-1.29844 1.664142,-1.3636 1.664141,-1.42732 1.664142,-1.48951 1.664141,-1.55014 1.664142,-1.60913 1.664137,-1.66641 1.66414,-1.72196 1.66415,-1.77571 1.66414,-1.8276 1.66414,-1.8776 1.66414,-1.92565 1.66414,-1.97173 1.66414,-2.01577 1.66414,-2.05777 1.66415,-2.09767 1.66414,-2.13544 1.66414,-2.17107 1.66414,-2.20453 1.66414,-2.2358 1.66414,-2.26484 1.66415,-2.29166 1.66414,-2.31625 1.66414,-2.33858 1.66414,-2.35866 1.66414,-2.37649 1.66414,-2.39205 1.66414,-2.40537 1.66414,-2.41644 1.66415,-2.42528 1.66414,-2.43188 1.66414,-2.43629 1.66414,-2.43851 1.66414,-2.43856 1.66414,-2.43648 1.66414,-2.43228 1.66415,-2.426 1.66414,-2.41768 1.66414,-2.40736 1.66414,-2.39506 1.66414,-2.38084 1.66414,-2.36476 1.66414,-2.34683 1.66415,-2.32714 1.66414,-2.30574 1.66414,-2.28266 1.66414,-2.25801 1.66414,-2.23181 1.66414,-2.20415 1.66414,-2.1751 1.66415,-2.14472 1.66414,-2.11312 1.66414,-2.080346 1.66414,-2.046498 1.66414,-2.011662 1.66414,-1.975926 1.66414,-1.939388 1.66415,-1.902142 1.66414,-1.864294 1.66414,-1.825945 1.66414,-1.787208 1.66414,-1.748196 1.66414,-1.709026 1.66414,-1.669824 1.66415,-1.630714 1.66414,-1.591832 1.66414,-1.553315 1.66414,-1.515306 1.66414,-1.477959 1.66414,-1.441426 1.66414,-1.405875 1.66415,-1.371475 1.66414,-1.338406 1.66414,-1.306856 1.66414,-1.277023 1.66414,-1.249114 1.66414,-1.223349 1.66414,-1.199959 1.66415,-1.179187 1.66414,-1.161292 1.66414,-1.146551 1.66414,-1.135253"
         style="fill:none;stroke:#0000ff;stroke-width:1.5;stroke-linecap:square"
         id="path251" />
    </g>
    <g
       id="line2d_15">
      <path
         clip-path="url(#p49e7cd819e)"
         d="m 63.114141,223.97427 1.664142,-0.13376 1.664141,-0.22249 1.664142,-0.31055 1.664141,-0.39766 1.664141,-0.48359 1.664142,-0.56808 1.664141,-0.65091 1.664142,-0.73184 1.664141,-0.81066 1.664142,-0.88718 1.664141,-0.96123 1.664141,-1.03263 1.664142,-1.10125 1.664141,-1.16695 1.664142,-1.22962 1.664141,-1.28918 1.664141,-1.34555 1.664142,-1.39867 1.664141,-1.44851 1.664142,-1.49502 1.664141,-1.53824 1.664142,-1.57814 1.664137,-1.61476 1.66414,-1.64813 1.66415,-1.6783 1.66414,-1.70533 1.66414,-1.72929 1.66414,-1.75027 1.66414,-1.76832 1.66414,-1.78357 1.66414,-1.79612 1.66415,-1.80603 1.66414,-1.81346 1.66414,-1.8185 1.66414,-1.82124 1.66414,-1.82183 1.66414,-1.82037 1.66415,-1.81697 1.66414,-1.81174 1.66414,-1.80481 1.66414,-1.79627 1.66414,-1.78624 1.66414,-1.77483 1.66414,-1.76212 1.66414,-1.74824 1.66415,-1.73327 1.66414,-1.7173 1.66414,-1.70043 1.66414,-1.68273 1.66414,-1.6643 1.66414,-1.64521 1.66414,-1.62552 1.66415,-1.60532 1.66414,-1.58467 1.66414,-1.56362 1.66414,-1.54226 1.66414,-1.52061 1.66414,-1.49874 1.66414,-1.4767 1.66415,-1.45453 1.66414,-1.43226 1.66414,-1.40996 1.66414,-1.38764 1.66414,-1.36535 1.66414,-1.3431 1.66414,-1.32093 1.66415,-1.29888 1.66414,-1.27695 1.66414,-1.25518 1.66414,-1.23358 1.66414,-1.21217 1.66414,-1.19096 1.66414,-1.16998 1.66415,-1.14923 1.66414,-1.12872 1.66414,-1.10847 1.66414,-1.08849 1.66414,-1.06876 1.66414,-1.04933 1.66414,-1.03017 1.66415,-1.01131 1.66414,-0.99273 1.66414,-0.97445 1.66414,-0.95646 1.66414,-0.93877 1.66414,-0.92139 1.66414,-0.90429 1.66415,-0.88751 1.66414,-0.87101 1.66414,-0.85482 1.66414,-0.83891 1.66414,-0.82331 1.66414,-0.80799 1.66414,-0.79297 1.66415,-0.77822 1.66414,-0.763769 1.66414,-0.749585 1.66414,-0.735683"
         style="fill:none;stroke:#0000ff;stroke-width:1.5;stroke-dasharray:5.55, 2.4;stroke-dashoffset:0"
         id="path254" />
    </g>
    <g
       id="line2d_16">
      <path
         clip-path="url(#p49e7cd819e)"
         d="m 61.45,224.01891 1.664141,-0.0138 1.664142,-0.0413 1.664141,-0.0688 1.664142,-0.0963 1.664141,-0.12376 1.664141,-0.1512 1.664142,-0.17859 1.664141,-0.20595 1.664142,-0.23324 1.664141,-0.26048 1.664142,-0.28765 1.664141,-0.31474 1.664141,-0.34175 1.664142,-0.36867 1.664141,-0.3955 1.664142,-0.42223 1.664141,-0.44883 1.664141,-0.47534 1.664142,-0.5017 1.664141,-0.52795 1.664142,-0.55406 1.664141,-0.58001 1.664142,-0.60583 1.664137,-0.63148 1.66414,-0.65696 1.66415,-0.68229 1.66414,-0.70742 1.66414,-0.73238 1.66414,-0.75715 1.66414,-0.78171 1.66414,-0.80608 1.66414,-0.83023 1.66415,-0.85418 1.66414,-0.87789 1.66414,-0.90138 1.66414,-0.92463 1.66414,-0.94765 1.66414,-0.97041 1.66415,-0.99292 1.66414,-1.01518 1.66414,-1.03717 1.66414,-1.05888 1.66414,-1.08032 1.66414,-1.10147 1.66414,-1.12235 1.66414,-1.14292 1.66415,-1.16319 1.66414,-1.18315 1.66414,-1.20281 1.66414,-1.22214 1.66414,-1.24115 1.66414,-1.25984 1.66414,-1.27818 1.66415,-1.29619 1.66414,-1.31385 1.66414,-1.33115 1.66414,-1.3481 1.66414,-1.36469 1.66414,-1.3809 1.66414,-1.39675 1.66415,-1.4122 1.66414,-1.42727 1.66414,-1.44196 1.66414,-1.45624 1.66414,-1.47012 1.66414,-1.48358 1.66414,-1.49664 1.66415,-1.50927 1.66414,-1.52147 1.66414,-1.53325 1.66414,-1.54457 1.66414,-1.55546 1.66414,-1.56589 1.66414,-1.57587 1.66415,-1.58537 1.66414,-1.59442 1.66414,-1.60298 1.66414,-1.61106 1.66414,-1.61864 1.66414,-1.62574 1.66414,-1.63233 1.66415,-1.6384 1.66414,-1.64397 1.66414,-1.649 1.66414,-1.65351 1.66414,-1.65748 1.66414,-1.6609 1.66414,-1.66376 1.66415,-1.66608 1.66414,-1.66782 1.66414,-1.66899 1.66414,-1.66957 1.66414,-1.66957 1.66414,-1.66896 1.66414,-1.66775 1.66415,-1.66593 1.66414,-1.66348 1.66414,-1.66041 1.66414,-1.65669"
         style="fill:none;stroke:#17becf;stroke-width:1.5;stroke-linecap:square"
         id="path257" />
    </g>
    <g
       id="line2d_17">
      <path
         clip-path="url(#p49e7cd819e)"
         d="m 61.45,224.01891 1.664141,-0.0312 1.664142,-0.0946 1.664141,-0.1607 1.664142,-0.23132 1.664141,-0.30814 1.664141,-0.3928 1.664142,-0.4868 1.664141,-0.5915 1.664142,-0.70811 1.664141,-0.83765 1.664142,-0.98097 1.664141,-1.13866 1.664141,-1.31115 1.664142,-1.49857 1.664141,-1.70087 1.664142,-1.91772 1.664141,-2.14853 1.664141,-2.39252 1.664142,-2.64861 1.664141,-2.91555 1.664142,-3.19179 1.664141,-3.47565 1.664142,-3.7652 1.664137,-4.05838 1.66414,-4.35292 1.66415,-4.64649 1.66414,-4.93658 1.66414,-5.22064 1.66414,-5.49607 1.66414,-5.76021 1.66414,-6.01043 1.66414,-6.24413 1.66415,-6.45876 1.66414,-6.65185 1.66414,-6.82108 1.66414,-6.96425 1.66414,-7.07932 1.66414,-7.16449 1.66415,-7.21814 1.66414,-7.238903 1.66414,-7.225673 1.66414,-7.177614 1.66414,-7.094185 1.66414,-6.975136 1.66414,-6.820529 1.66414,-6.630736 1.66415,-6.406443 1.66414,-6.148643 1.66414,-5.858638 1.66414,-5.538031 1.66414,-5.188704 1.66414,-4.812821 1.66414,-4.412796 1.66415,-3.991284 1.66414,-3.551153 L 154.01817,-1 m 21.7085,0 0.54909,0.879822 1.66414,2.973517 1.66414,3.244213 1.66414,3.475361 1.66414,3.663682 1.66414,3.805743 1.66415,3.897865 1.66414,3.935969 1.66414,3.915406 1.66414,3.830731 1.66414,3.675423 1.66414,3.441535 1.66414,3.119272 1.66415,2.696469 1.66414,2.15795 1.66414,1.484764 1.66414,0.653248 1.66414,-0.366098 1.66414,-1.609967 1.66414,-3.12386 1.66415,-4.964044 1.66414,-7.199865 1.66414,-9.916519 L 214.55101,9.452268 215.56037,-1"
         style="fill:none;stroke:#6495ed;stroke-width:1.5;stroke-linecap:square"
         id="path260" />
    </g>
    <g
       id="patch_3">
      <path
         d="M 61.45,224.01891 V 12.518906"
         style="fill:none;stroke:#000000;stroke-width:0.8;stroke-linecap:square;stroke-linejoin:miter"
         id="path263" />
    </g>
    <g
       id="patch_4">
      <path
         d="M 226.2,224.01891 V 12.518906"
         style="fill:none;stroke:#000000;stroke-width:0.8;stroke-linecap:square;stroke-linejoin:miter"
         id="path266" />
    </g>
    <g
       id="patch_5">
      <path
         d="M 61.45,224.01891 H 226.2"
         style="fill:none;stroke:#000000;stroke-width:0.8;stroke-linecap:square;stroke-linejoin:miter"
         id="path269" />
    </g>
    <g
       id="patch_6">
      <path
         d="M 61.45,12.518906 H 226.2"
         style="fill:none;stroke:#000000;stroke-width:0.8;stroke-linecap:square;stroke-linejoin:miter"
         id="path272" />
    </g>
  </g>
  <g
     id="axes_2">
    <g
       id="patch_7">
      <path
         d="m 249.0125,224.01891 h 164.75 V 12.518906 h -164.75 z"
         style="fill:#ffffff"
         id="path276" />
    </g>
    <g
       id="matplotlib.axis_3">
      <g
         id="xtick_5">
        <g
           id="line2d_18">
          <g
             id="g281">
            <use
               style="stroke:#000000;stroke-width:0.8"
               x="249.0125"
               xlink:href="#m316cb67a29"
               y="224.01891"
               id="use279"
               width="100%"
               height="100%" />
          </g>
        </g>
        <g
           id="text_14">
          <!-- 0 -->
          <g
             transform="matrix(0.14,0,0,-0.14,244.55875,241.65672)"
             id="g286">
            <use
               xlink:href="#DejaVuSans-30"
               id="use284"
               x="0"
               y="0"
               width="100%"
               height="100%" />
          </g>
        </g>
      </g>
      <g
         id="xtick_6">
        <g
           id="line2d_19">
          <g
             id="g292">
            <use
               style="stroke:#000000;stroke-width:0.8"
               x="331.38751"
               xlink:href="#m316cb67a29"
               y="224.01891"
               id="use290"
               width="100%"
               height="100%" />
          </g>
        </g>
        <g
           id="text_15">
          <!-- 1 -->
          <g
             transform="matrix(0.14,0,0,-0.14,326.93375,241.65672)"
             id="g297">
            <use
               xlink:href="#DejaVuSans-31"
               id="use295"
               x="0"
               y="0"
               width="100%"
               height="100%" />
          </g>
        </g>
      </g>
      <g
         id="xtick_7">
        <g
           id="line2d_20">
          <g
             id="g303">
            <use
               style="stroke:#000000;stroke-width:0.8"
               x="413.76251"
               xlink:href="#m316cb67a29"
               y="224.01891"
               id="use301"
               width="100%"
               height="100%" />
          </g>
        </g>
        <g
           id="text_16">
          <!-- 2 -->
          <g
             transform="matrix(0.14,0,0,-0.14,409.30875,241.65672)"
             id="g308">
            <use
               xlink:href="#DejaVuSans-32"
               id="use306"
               x="0"
               y="0"
               width="100%"
               height="100%" />
          </g>
        </g>
      </g>
      <g
         id="text_17">
        <!-- $\rho_2$ [$\mathrm{\mu m}$] -->
        <g
           transform="matrix(0.14,0,0,-0.14,304.6475,259.20828)"
           id="g329">
          <defs
             id="defs313">
            <path
               d="m 1203,2875 q 250,319 778,600 207,109 775,109 638,0 938,-506 300,-506 140,-1331 Q 3672,922 3175,415 2678,-91 2041,-91 1656,-91 1409,63 1163,213 1044,525 L 681,-1331 H 103 l 594,3047 q 141,722 506,1159 z M 3238,1747 q 121,634 -69,997 -191,359 -647,359 -456,0 -788,-359 -331,-363 -453,-997 -125,-634 66,-997 191,-359 647,-359 456,0 787,359 332,363 457,997 z"
               id="DejaVuSans-Oblique-3c1"
               transform="scale(0.015625)" />
          </defs>
          <use
             transform="translate(0,0.015625)"
             xlink:href="#DejaVuSans-Oblique-3c1"
             id="use315"
             x="0"
             y="0"
             width="100%"
             height="100%" />
          <use
             transform="matrix(0.7,0,0,0.7,63.476562,-16.390625)"
             xlink:href="#DejaVuSans-32"
             id="use317"
             x="0"
             y="0"
             width="100%"
             height="100%" />
          <use
             transform="translate(110.74707,0.015625)"
             xlink:href="#DejaVuSans-20"
             id="use319"
             x="0"
             y="0"
             width="100%"
             height="100%" />
          <use
             transform="translate(142.53418,0.015625)"
             xlink:href="#DejaVuSans-5b"
             id="use321"
             x="0"
             y="0"
             width="100%"
             height="100%" />
          <use
             transform="translate(181.54785,0.015625)"
             xlink:href="#DejaVuSans-3bc"
             id="use323"
             x="0"
             y="0"
             width="100%"
             height="100%" />
          <use
             transform="translate(245.1709,0.015625)"
             xlink:href="#DejaVuSans-6d"
             id="use325"
             x="0"
             y="0"
             width="100%"
             height="100%" />
          <use
             transform="translate(342.58301,0.015625)"
             xlink:href="#DejaVuSans-5d"
             id="use327"
             x="0"
             y="0"
             width="100%"
             height="100%" />
        </g>
      </g>
    </g>
    <g
       id="matplotlib.axis_4">
      <g
         id="ytick_8">
        <g
           id="line2d_21">
          <g
             id="g335">
            <use
               style="stroke:#000000;stroke-width:0.8"
               x="249.0125"
               xlink:href="#me3ffdf9627"
               y="224.01891"
               id="use333"
               width="100%"
               height="100%" />
          </g>
        </g>
      </g>
      <g
         id="ytick_9">
        <g
           id="line2d_22">
          <g
             id="g341">
            <use
               style="stroke:#000000;stroke-width:0.8"
               x="249.0125"
               xlink:href="#me3ffdf9627"
               y="188.76891"
               id="use339"
               width="100%"
               height="100%" />
          </g>
        </g>
      </g>
      <g
         id="ytick_10">
        <g
           id="line2d_23">
          <g
             id="g347">
            <use
               style="stroke:#000000;stroke-width:0.8"
               x="249.0125"
               xlink:href="#me3ffdf9627"
               y="153.51891"
               id="use345"
               width="100%"
               height="100%" />
          </g>
        </g>
      </g>
      <g
         id="ytick_11">
        <g
           id="line2d_24">
          <g
             id="g353">
            <use
               style="stroke:#000000;stroke-width:0.8"
               x="249.0125"
               xlink:href="#me3ffdf9627"
               y="118.26891"
               id="use351"
               width="100%"
               height="100%" />
          </g>
        </g>
      </g>
      <g
         id="ytick_12">
        <g
           id="line2d_25">
          <g
             id="g359">
            <use
               style="stroke:#000000;stroke-width:0.8"
               x="249.0125"
               xlink:href="#me3ffdf9627"
               y="83.018906"
               id="use357"
               width="100%"
               height="100%" />
          </g>
        </g>
      </g>
      <g
         id="ytick_13">
        <g
           id="line2d_26">
          <g
             id="g365">
            <use
               style="stroke:#000000;stroke-width:0.8"
               x="249.0125"
               xlink:href="#me3ffdf9627"
               y="47.768906"
               id="use363"
               width="100%"
               height="100%" />
          </g>
        </g>
      </g>
      <g
         id="ytick_14">
        <g
           id="line2d_27">
          <g
             id="g371">
            <use
               style="stroke:#000000;stroke-width:0.8"
               x="249.0125"
               xlink:href="#me3ffdf9627"
               y="12.518906"
               id="use369"
               width="100%"
               height="100%" />
          </g>
        </g>
      </g>
    </g>
    <g
       id="line2d_28">
      <path
         clip-path="url(#pe0548e359b)"
         d="m 249.0125,47.768906 1.66414,0.143804 1.66414,0.430709 1.66414,0.715509 1.66415,0.996819 1.66414,1.273283 1.66414,1.543587 1.66414,1.806459 1.66414,2.060697 1.66414,2.305157 1.66414,2.538782 1.66415,2.760592 1.66414,2.969703 1.66414,3.165327 1.66414,3.346778 1.66414,3.513473 1.66414,3.664943 1.66414,3.80082 1.66414,3.920851 1.66415,4.024891 1.66414,4.112901 1.66414,4.184949 1.66414,4.24119 1.66414,4.2819 1.66414,4.30742 1.66414,4.3182 1.66415,4.31474 1.66414,4.29763 1.66414,4.26753 1.66414,4.22512 1.66414,4.17119 1.66414,4.10648 1.66414,4.03187 1.66415,3.94815 1.66414,3.85623 1.66414,3.75695 1.66414,3.65118 1.66414,3.53979 1.66414,3.42364 1.66414,3.30354 1.66415,3.18031 1.66414,3.05473 1.66414,2.92752 1.66414,2.79943 1.66414,2.67108 1.66414,2.54312 1.66414,2.41612 1.66415,2.29061 1.66414,2.16708 1.66414,2.04595 1.66414,1.92764 1.66414,1.81245 1.66414,1.70071 1.66414,1.59264 1.66415,1.48848 1.66414,1.38838 1.66414,1.29245 1.66414,1.2008 1.66414,1.11349 1.66414,1.03052 1.66415,0.95191 1.66414,0.8776 1.66414,0.80757 1.66414,0.74171 1.66414,0.67993 1.66414,0.62213 1.66414,0.56819 1.66414,0.51794 1.66415,0.47127 1.66414,0.42801 1.66414,0.388 1.66414,0.35108 1.66414,0.31711 1.66414,0.28588 1.66415,0.25728 1.66414,0.2311 1.66414,0.20722 1.66414,0.18547 1.66414,0.1657 1.66414,0.14778 1.66414,0.13155 1.66414,0.1169 1.66415,0.10369 1.66414,0.0918 1.66414,0.0812 1.66414,0.0716 1.66414,0.0631 1.66414,0.0555 1.66414,0.0487 1.66415,0.0426 1.66414,0.0373 1.66414,0.0325 1.66414,0.0284 1.66414,0.0247 1.66414,0.0214 1.66414,0.0186 1.66415,0.0161 1.66414,0.0139 1.66414,0.012 1.66414,0.0103"
         style="fill:none;stroke:#ff0000;stroke-width:1.5;stroke-dasharray:5.55, 2.4;stroke-dashoffset:0"
         id="path376" />
    </g>
    <g
       id="line2d_29">
      <path
         clip-path="url(#pe0548e359b)"
         d="m 249.0125,224.01889 1.66414,-3e-5 1.66414,-4.4e-4 1.66414,-0.002 1.66415,-0.005 1.66414,-0.0107 1.66414,-0.0193 1.66414,-0.0316 1.66414,-0.0481 1.66414,-0.0692 1.66414,-0.0955 1.66415,-0.12732 1.66414,-0.16498 1.66414,-0.20872 1.66414,-0.25874 1.66414,-0.31512 1.66414,-0.37789 1.66414,-0.44701 1.66414,-0.52233 1.66415,-0.6037 1.66414,-0.6908 1.66414,-0.78333 1.66414,-0.8809 1.66414,-0.98303 1.66414,-1.08924 1.66414,-1.19897 1.66415,-1.31164 1.66414,-1.42662 1.66414,-1.54325 1.66414,-1.6609 1.66414,-1.77885 1.66414,-1.89644 1.66414,-2.01299 1.66415,-2.12781 1.66414,-2.24026 1.66414,-2.34969 1.66414,-2.4555 1.66414,-2.5571 1.66414,-2.65396 1.66414,-2.74557 1.66415,-2.83148 1.66414,-2.91127 1.66414,-2.98459 1.66414,-3.05112 1.66414,-3.11061 1.66414,-3.16284 1.66414,-3.20768 1.66415,-3.24499 1.66414,-3.27477 1.66414,-3.29698 1.66414,-3.31169 1.66414,-3.31896 1.66414,-3.31897 1.66414,-3.31186 1.66415,-3.29786 1.66414,-3.2772 1.66414,-3.25016 1.66414,-3.21705 1.66414,-3.17818 1.66414,-3.1339 1.66415,-3.08457 1.66414,-3.03056 1.66414,-2.97224 1.66414,-2.91003 1.66414,-2.84427 1.66414,-2.77537 1.66414,-2.70374 1.66414,-2.629714 1.66415,-2.553698 1.66414,-2.476041 1.66414,-2.397094 1.66414,-2.317194 1.66414,-2.236665 1.66414,-2.155811 1.66415,-2.074924 1.66414,-1.994275 1.66414,-1.914116 1.66414,-1.834686 1.66414,-1.7562 1.66414,-1.678854 1.66414,-1.602833 1.66414,-1.528292 1.66415,-1.455379 1.66414,-1.384219 1.66414,-1.314919 1.66414,-1.247574 1.66414,-1.182261 1.66414,-1.119043 1.66414,-1.057968 1.66415,-0.999072 1.66414,-0.942379 1.66414,-0.8879 1.66414,-0.835639 1.66414,-0.785585 1.66414,-0.737724 1.66414,-0.692031 1.66415,-0.648472 1.66414,-0.607012 1.66414,-0.567606 1.66414,-0.530207"
         style="fill:none;stroke:#0000ff;stroke-width:1.5;stroke-dasharray:5.55, 2.4;stroke-dashoffset:0"
         id="path379" />
    </g>
    <g
       id="line2d_30">
      <path
         clip-path="url(#pe0548e359b)"
         d="m 249.0125,47.768906 1.66414,0.143811 1.66414,0.4308 1.66414,0.715902 1.66415,0.997871 1.66414,1.275481 1.66414,1.54754 1.66414,1.812883 1.66414,2.0704 1.66414,2.319023 1.66414,2.557745 1.66415,2.785624 1.66414,3.001785 1.66414,3.205428 1.66414,3.395835 1.66414,3.572366 1.66414,3.734471 1.66414,3.881686 1.66414,4.013642 1.66415,4.130054 1.66414,4.230737 1.66414,4.31559 1.66414,4.38461 1.66414,4.43788 1.66414,4.47557 1.66414,4.49792 1.66415,4.50528 1.66414,4.49805 1.66414,4.47673 1.66414,4.44183 1.66414,4.394 1.66414,4.33388 1.66414,4.26218 1.66415,4.17969 1.66414,4.08716 1.66414,3.98546 1.66414,3.8754 1.66414,3.75787 1.66414,3.63374 1.66414,3.50389 1.66415,3.36919 1.66414,3.23053 1.66414,3.08875 1.66414,2.94469 1.66414,2.79918 1.66414,2.65297 1.66414,2.50685 1.66415,2.36151 1.66414,2.21762 1.66414,2.07583 1.66414,1.9367 1.66414,1.80077 1.66414,1.66853 1.66414,1.54042 1.66415,1.4168 1.66414,1.29803 1.66414,1.18435 1.66414,1.07603 1.66414,0.97321 1.66414,0.87606 1.66415,0.78463 1.66414,0.69898 1.66414,0.6191 1.66414,0.54495 1.66414,0.47645 1.66414,0.41349 1.66414,0.35594 1.66414,0.30361 1.66415,0.25633 1.66414,0.21386 1.66414,0.17598 1.66414,0.14246 1.66414,0.11303 1.66414,0.0874 1.66415,0.0654 1.66414,0.0466 1.66414,0.0308 1.66414,0.0178 1.66414,0.007 1.66414,-0.001 1.66414,-0.007 1.66414,-0.0121 1.66415,-0.0152 1.66414,-0.0171 1.66414,-0.0179 1.66414,-0.0178 1.66414,-0.0169 1.66414,-0.0156 1.66414,-0.0137 1.66415,-0.0116 1.66414,-0.009 1.66414,-0.007 1.66414,-0.005 1.66414,-0.002 1.66414,-2.1e-4 1.66414,0.002 1.66415,0.004 1.66414,0.005 1.66414,0.006 1.66414,0.007"
         style="fill:none;stroke:#ff0000;stroke-width:1.5;stroke-linecap:square"
         id="path382" />
    </g>
    <g
       id="line2d_31">
      <path
         clip-path="url(#pe0548e359b)"
         d="m 249.0125,224.01891 1.66414,-3e-5 1.66414,-3.9e-4 1.66414,-0.002 1.66415,-0.004 1.66414,-0.009 1.66414,-0.0171 1.66414,-0.028 1.66414,-0.0426 1.66414,-0.0615 1.66414,-0.0851 1.66415,-0.11382 1.66414,-0.14799 1.66414,-0.18792 1.66414,-0.23388 1.66414,-0.28606 1.66414,-0.34459 1.66414,-0.40959 1.66414,-0.48104 1.66415,-0.55894 1.66414,-0.64318 1.66414,-0.73361 1.66414,-0.83 1.66414,-0.93212 1.66414,-1.0396 1.66414,-1.1521 1.66415,-1.26918 1.66414,-1.39037 1.66414,-1.51517 1.66414,-1.64302 1.66414,-1.77334 1.66414,-1.90551 1.66414,-2.03891 1.66415,-2.17288 1.66414,-2.30672 1.66414,-2.4398 1.66414,-2.5714 1.66414,-2.70085 1.66414,-2.82747 1.66414,-2.9506 1.66415,-3.06959 1.66414,-3.1838 1.66414,-3.29265 1.66414,-3.39554 1.66414,-3.49195 1.66414,-3.58135 1.66414,-3.66331 1.66415,-3.73737 1.66414,-3.80319 1.66414,-3.86041 1.66414,-3.90878 1.66414,-3.94804 1.66414,-3.97805 1.66414,-3.99866 1.66415,-4.00979 1.66414,-4.01145 1.66414,-4.00365 1.66414,-3.98647 1.66414,-3.96004 1.66414,-3.92456 1.66415,-3.88023 1.66414,-3.82731 1.66414,-3.766139 1.66414,-3.697026 1.66414,-3.62037 1.66414,-3.536574 1.66414,-3.446079 1.66414,-3.349349 1.66415,-3.246868 1.66414,-3.139138 1.66414,-3.026677 1.66414,-2.910015 1.66414,-2.789683 1.66414,-2.666226 1.66415,-2.54018 1.66414,-2.412085 1.66414,-2.282471 1.66414,-2.151865 1.66414,-2.020776 1.66414,-1.889706 1.66414,-1.759139 1.66414,-1.629539 1.66415,-1.501354 1.66414,-1.375014 1.66414,-1.250922 1.66414,-1.129463 1.66414,-1.011002 1.66414,-0.895883 1.66414,-0.784432 1.66415,-0.676957 1.66414,-0.573758 1.66414,-0.475125 1.66414,-0.381354 1.66414,-0.292742 1.66414,-0.209619 1.66414,-0.132346 1.66415,-0.06134 1.66414,0.0029 1.66414,0.0597 1.66414,0.108325"
         style="fill:none;stroke:#0000ff;stroke-width:1.5;stroke-linecap:square"
         id="path385" />
    </g>
    <g
       id="line2d_32">
      <path
         clip-path="url(#pe0548e359b)"
         d="m 249.0125,224.01891 1.66414,-3e-5 1.66414,-4.1e-4 1.66414,-0.002 1.66415,-0.005 1.66414,-0.01 1.66414,-0.0182 1.66414,-0.0298 1.66414,-0.0454 1.66414,-0.0656 1.66414,-0.0908 1.66415,-0.12153 1.66414,-0.15812 1.66414,-0.20095 1.66414,-0.25029 1.66414,-0.30639 1.66414,-0.36944 1.66414,-0.43956 1.66414,-0.51679 1.66415,-0.60114 1.66414,-0.69255 1.66414,-0.79088 1.66414,-0.89595 1.66414,-1.00751 1.66414,-1.12525 1.66414,-1.2488 1.66415,-1.37775 1.66414,-1.51163 1.66414,-1.6499 1.66414,-1.79202 1.66414,-1.93738 1.66414,-2.08534 1.66414,-2.23521 1.66415,-2.38633 1.66414,-2.53793 1.66414,-2.6893 1.66414,-2.8397 1.66414,-2.98834 1.66414,-3.13448 1.66414,-3.27736 1.66415,-3.41624 1.66414,-3.55039 1.66414,-3.67907 1.66414,-3.80163 1.66414,-3.91737 1.66414,-4.0257 1.66414,-4.12599 1.66415,-4.21773 1.66414,-4.30036 1.66414,-4.37348 1.66414,-4.43664 1.66414,-4.48949 1.66414,-4.53172 1.66414,-4.56311 1.66415,-4.58345 1.66414,-4.59259 1.66414,-4.5905 1.66414,-4.57711 1.66414,-4.5525 1.66414,-4.516762 1.66415,-4.470036 1.66414,-4.41254 1.66414,-4.344532 1.66414,-4.26632 1.66414,-4.178263 1.66414,-4.080765 1.66414,-3.974265 1.66414,-3.85925 1.66415,-3.736234 1.66414,-3.605767 1.66414,-3.468423 1.66414,-3.324806 1.66414,-3.175533 1.66414,-3.021238 1.66415,-2.862574 1.66414,-2.700193 1.66414,-2.534757 1.66414,-2.366926 1.66414,-2.197359 1.66414,-2.026704 1.66414,-1.855604 1.66414,-1.684686 1.66415,-1.514559 1.66414,-1.345816 1.66414,-1.179025 1.66414,-1.01473 1.66414,-0.853452 1.66414,-0.695677 1.66414,-0.541867 1.66415,-0.392448 1.66414,-0.247814 1.66414,-0.108328 1.66414,0.02568 1.66414,0.153937 1.66414,0.276169 1.66414,0.392162 1.66415,0.501735 1.66414,0.604738 1.66414,0.701058 1.66414,0.790619"
         style="fill:none;stroke:#17becf;stroke-width:1.5;stroke-linecap:square"
         id="path388" />
    </g>
    <g
       id="line2d_33">
      <path
         clip-path="url(#pe0548e359b)"
         d="m 249.0125,224.01891 1.66414,-2e-5 1.66414,-3e-4 1.66414,-10e-4 1.66415,-0.003 1.66414,-0.007 1.66414,-0.0118 1.66414,-0.0186 1.66414,-0.0271 1.66414,-0.037 1.66414,-0.0482 1.66415,-0.0599 1.66414,-0.0718 1.66414,-0.083 1.66414,-0.0929 1.66414,-0.10057 1.66414,-0.10537 1.66414,-0.10652 1.66414,-0.10346 1.66415,-0.0957 1.66414,-0.0831 1.66414,-0.0655 1.66414,-0.0434 1.66414,-0.0171 1.66414,0.0123 1.66414,0.0436 1.66415,0.0752 1.66414,0.10532 1.66414,0.1317 1.66414,0.15194 1.66414,0.16338 1.66414,0.16322 1.66414,0.14862 1.66415,0.11665 1.66414,0.0645 1.66414,-0.0104 1.66414,-0.11065 1.66414,-0.23823 1.66414,-0.39489 1.66414,-0.58191 1.66415,-0.79995 1.66414,-1.0492 1.66414,-1.32912 1.66414,-1.63856 1.66414,-1.97575 1.66414,-2.33816 1.66414,-2.72271 1.66415,-3.12566 1.66414,-3.54267 1.66414,-3.96915 1.66414,-4.39956 1.66414,-4.82854 1.66414,-5.25067 1.66414,-5.65974 1.66415,-6.0496 1.66414,-6.41532 1.66414,-6.75038 1.66414,-7.05035 1.66414,-7.30979 1.66414,-7.525 1.66415,-7.6919 1.66414,-7.8077 1.66414,-7.86991 1.66414,-7.87715 1.66414,-7.82902 1.66414,-7.72539 1.66414,-7.567117 1.66414,-7.356147 1.66415,-7.094767 1.66414,-6.786506 1.66414,-6.434712 1.66414,-6.043965 1.66414,-5.619202 1.66414,-5.165888 1.66415,-4.68825 1.66414,-4.192987 1.66414,-3.685388 1.66414,-3.1725 1.66414,-2.659612 1.66414,-2.15025 1.66414,-1.6497 1.66414,-1.166775 1.66415,-0.701475 1.66414,-0.259088 1.66414,0.158625 1.66414,0.54285 1.66414,0.897113 1.66414,1.216125 1.66414,1.503412 1.66415,1.750163 1.66414,1.965187 1.66414,2.139675 1.66414,2.282438 1.66414,2.386425 1.66414,2.458687 1.66414,2.500988 1.66415,2.508037 1.66414,2.492175 1.66414,2.44635 1.66414,2.377613"
         style="fill:none;stroke:#6495ed;stroke-width:1.5;stroke-linecap:square"
         id="path391" />
    </g>
    <g
       id="patch_8">
      <path
         d="M 249.0125,224.01891 V 12.518906"
         style="fill:none;stroke:#000000;stroke-width:0.8;stroke-linecap:square;stroke-linejoin:miter"
         id="path394" />
    </g>
    <g
       id="patch_9">
      <path
         d="M 413.7625,224.01891 V 12.518906"
         style="fill:none;stroke:#000000;stroke-width:0.8;stroke-linecap:square;stroke-linejoin:miter"
         id="path397" />
    </g>
    <g
       id="patch_10">
      <path
         d="m 249.0125,224.01891 h 164.75"
         style="fill:none;stroke:#000000;stroke-width:0.8;stroke-linecap:square;stroke-linejoin:miter"
         id="path400" />
    </g>
    <g
       id="patch_11">
      <path
         d="m 249.0125,12.518906 h 164.75"
         style="fill:none;stroke:#000000;stroke-width:0.8;stroke-linecap:square;stroke-linejoin:miter"
         id="path403" />
    </g>
  </g>
  <g
     id="line2d_34"
     transform="translate(60.687301,196.41174)">
    <path
       d="m 12.6,92.116328 h 28"
       style="fill:none;stroke:#ff0000;stroke-width:1.5;stroke-linecap:square"
       id="path407" />
  </g>
  <g
     id="line2d_35"
     transform="translate(-10.33746,-187.22289)" />
  <g
     id="text_18"
     transform="translate(60.687301,196.41174)">
    <!-- $I_{bright}$ -->
    <g
       transform="matrix(0.14,0,0,-0.14,43.4,97.016328)"
       id="g434">
      <defs
         id="defs418">
        <path
           d="m 1081,4666 h 635 L 806,0 H 172 Z"
           id="DejaVuSans-Oblique-49"
           transform="scale(0.015625)" />
        <path
           d="m 3169,2138 q 0,453 -208,709 -208,256 -573,256 -266,0 -499,-130 -233,-129 -405,-376 -181,-259 -286,-602 -104,-342 -104,-682 0,-432 204,-677 205,-245 565,-245 271,0 502,126 232,127 407,374 178,256 287,596 110,341 110,651 z m -1788,831 q 213,287 533,451 320,164 670,164 538,0 855,-363 317,-362 317,-980 0,-507 -186,-982 Q 3384,784 3041,416 2816,172 2522,40 2228,-91 1906,-91 1566,-91 1316,65 1066,222 909,531 L 806,0 H 231 l 947,4863 h 575 z"
           id="DejaVuSans-Oblique-62"
           transform="scale(0.015625)" />
        <path
           d="m 2853,2969 q -87,47 -200,72 -112,25 -240,25 -460,0 -804,-349 -343,-348 -456,-933 L 800,0 H 225 l 684,3500 h 575 l -109,-544 q 228,303 545,465 318,163 677,163 94,0 184,-11 91,-10 182,-35 z"
           id="DejaVuSans-Oblique-72"
           transform="scale(0.015625)" />
        <path
           d="m 1172,4863 h 575 L 1606,4134 H 1031 Z M 909,3500 h 575 L 800,0 H 225 Z"
           id="DejaVuSans-Oblique-69"
           transform="scale(0.015625)" />
        <path
           d="M 3816,3500 3219,434 q -172,-890 -658,-1327 -486,-438 -1308,-438 -303,0 -563,45 -259,45 -484,139 l 107,559 q 212,-137 449,-202 238,-66 507,-66 547,0 898,299 352,298 464,857 l 50,263 Q 2441,288 2122,144 1803,0 1434,0 903,0 598,351 294,703 294,1319 q 0,484 184,948 185,464 519,824 222,237 517,365 295,128 617,128 353,0 615,-164 263,-164 392,-464 l 100,544 z M 2950,2216 q 0,425 -200,656 -200,231 -569,231 -228,0 -434,-91 -206,-90 -353,-253 -238,-268 -371,-632 -132,-364 -132,-752 0,-431 201,-663 202,-231 580,-231 547,0 912,495 366,496 366,1240 z"
           id="DejaVuSans-Oblique-67"
           transform="scale(0.015625)" />
        <path
           d="M 3566,2113 3156,0 h -578 l 410,2091 q 28,147 43,259 16,113 16,178 0,263 -166,409 -165,147 -462,147 -463,0 -802,-313 -339,-312 -439,-830 L 800,0 H 225 l 947,4863 h 575 L 1375,2950 q 219,294 559,464 341,170 716,170 463,0 717,-250 255,-250 255,-703 0,-112 -14,-240 -14,-128 -42,-278 z"
           id="DejaVuSans-Oblique-68"
           transform="scale(0.015625)" />
        <path
           d="m 2706,3500 -87,-447 H 1472 L 1100,1153 q -19,-106 -28,-178 -9,-72 -9,-112 0,-200 120,-291 120,-91 386,-91 h 581 L 2053,0 H 1503 Q 991,0 739,200 488,400 488,806 q 0,72 9,158 9,86 28,189 L 897,3053 H 409 l 91,447 h 478 l 194,994 h 575 l -191,-994 z"
           id="DejaVuSans-Oblique-74"
           transform="scale(0.015625)" />
      </defs>
      <use
         transform="translate(0,0.09375)"
         xlink:href="#DejaVuSans-Oblique-49"
         id="use420"
         x="0"
         y="0"
         width="100%"
         height="100%" />
      <use
         transform="matrix(0.7,0,0,0.7,29.492188,-16.3125)"
         xlink:href="#DejaVuSans-Oblique-62"
         id="use422"
         x="0"
         y="0"
         width="100%"
         height="100%" />
      <use
         transform="matrix(0.7,0,0,0.7,73.925781,-16.3125)"
         xlink:href="#DejaVuSans-Oblique-72"
         id="use424"
         x="0"
         y="0"
         width="100%"
         height="100%" />
      <use
         transform="matrix(0.7,0,0,0.7,102.70508,-16.3125)"
         xlink:href="#DejaVuSans-Oblique-69"
         id="use426"
         x="0"
         y="0"
         width="100%"
         height="100%" />
      <use
         transform="matrix(0.7,0,0,0.7,122.15332,-16.3125)"
         xlink:href="#DejaVuSans-Oblique-67"
         id="use428"
         x="0"
         y="0"
         width="100%"
         height="100%" />
      <use
         transform="matrix(0.7,0,0,0.7,166.58691,-16.3125)"
         xlink:href="#DejaVuSans-Oblique-68"
         id="use430"
         x="0"
         y="0"
         width="100%"
         height="100%" />
      <use
         transform="matrix(0.7,0,0,0.7,210.95215,-16.3125)"
         xlink:href="#DejaVuSans-Oblique-74"
         id="use432"
         x="0"
         y="0"
         width="100%"
         height="100%" />
    </g>
  </g>
  <g
     id="line2d_36"
     transform="translate(60.687301,196.41174)">
    <path
       d="m 12.6,110.59633 h 28"
       style="fill:none;stroke:#ff0000;stroke-width:1.5;stroke-dasharray:5.55, 2.4;stroke-dashoffset:0"
       id="path437" />
  </g>
  <g
     id="line2d_37"
     transform="translate(-10.33746,-187.22289)" />
  <g
     id="text_19"
     transform="translate(60.687301,196.41174)">
    <!-- $|A_G|^2$ -->
    <g
       transform="matrix(0.14,0,0,-0.14,43.4,115.49633)"
       id="g456">
      <defs
         id="defs444">
        <path
           d="M 1344,4891 V -1509 H 813 v 6400 z"
           id="DejaVuSans-7c"
           transform="scale(0.015625)" />
        <path
           d="m 2356,4666 h 716 L 3938,0 H 3278 L 3084,1197 H 984 L 325,0 H -341 Z M 2584,4044 1275,1722 h 1713 z"
           id="DejaVuSans-Oblique-41"
           transform="scale(0.015625)" />
        <path
           d="m 3494,697 244,1222 H 2700 l 97,519 H 4453 L 4050,384 Q 3634,156 3143,32 2653,-91 2156,-91 1278,-91 783,396 288,884 288,1753 q 0,722 301,1373 302,652 833,1087 334,271 731,404 397,133 881,133 438,0 839,-111 402,-111 768,-333 l -128,-672 q -282,294 -660,449 -378,155 -806,155 -497,0 -875,-190 -378,-189 -675,-585 -253,-338 -399,-796 -145,-458 -145,-933 0,-653 334,-983 335,-329 997,-329 332,0 641,70 309,71 569,205 z"
           id="DejaVuSans-Oblique-47"
           transform="scale(0.015625)" />
      </defs>
      <use
         transform="translate(0,0.765625)"
         xlink:href="#DejaVuSans-7c"
         id="use446"
         x="0"
         y="0"
         width="100%"
         height="100%" />
      <use
         transform="translate(33.691406,0.765625)"
         xlink:href="#DejaVuSans-Oblique-41"
         id="use448"
         x="0"
         y="0"
         width="100%"
         height="100%" />
      <use
         transform="matrix(0.7,0,0,0.7,102.09961,-15.640625)"
         xlink:href="#DejaVuSans-Oblique-47"
         id="use450"
         x="0"
         y="0"
         width="100%"
         height="100%" />
      <use
         transform="translate(159.07715,0.765625)"
         xlink:href="#DejaVuSans-7c"
         id="use452"
         x="0"
         y="0"
         width="100%"
         height="100%" />
      <use
         transform="matrix(0.7,0,0,0.7,193.72559,39.046875)"
         xlink:href="#DejaVuSans-32"
         id="use454"
         x="0"
         y="0"
         width="100%"
         height="100%" />
    </g>
  </g>
  <g
     id="line2d_38"
     transform="translate(156.37305,160.80493)">
    <path
       d="m 12.6,125.99414 h 28"
       style="fill:none;stroke:#0000ff;stroke-width:1.5;stroke-linecap:square"
       id="path459" />
  </g>
  <g
     id="line2d_39"
     transform="translate(-10.33746,-187.22289)" />
  <g
     id="text_20"
     transform="translate(156.37305,160.80493)">
    <!-- $I_{dark,1}$ -->
    <g
       transform="matrix(0.14,0,0,-0.14,43.4,130.89414)"
       id="g483">
      <defs
         id="defs467">
        <path
           d="M 2675,525 Q 2444,222 2128,65 1813,-91 1428,-91 903,-91 598,267 294,625 294,1247 q 0,519 184,989 185,470 535,842 231,247 521,376 291,130 610,130 337,0 595,-163 258,-162 399,-465 l 375,1907 h 578 L 3144,0 H 2566 Z M 891,1350 q 0,-453 204,-706 205,-253 568,-253 268,0 498,129 230,130 405,383 184,263 290,606 107,344 107,679 0,434 -205,677 -205,244 -564,244 -272,0 -507,-128 Q 1453,2853 1288,2613 1106,2353 998,2009 891,1666 891,1350 Z"
           id="DejaVuSans-Oblique-64"
           transform="scale(0.015625)" />
        <path
           d="M 3438,1997 3047,0 h -575 l 106,531 Q 2325,219 2001,64 1678,-91 1281,-91 834,-91 548,182 263,456 263,884 q 0,613 489,969 489,356 1348,356 h 800 l 31,154 q 7,25 10,54 3,30 3,92 0,279 -227,433 -226,155 -636,155 -281,0 -577,-72 -295,-72 -607,-216 l 100,532 q 325,122 636,182 311,61 601,61 619,0 942,-269 324,-268 324,-781 0,-103 -16,-242 -15,-139 -46,-295 z m -622,-238 h -575 q -707,0 -1046,-189 -339,-189 -339,-586 0,-275 173,-431 174,-156 480,-156 469,0 819,336 350,336 463,898 z"
           id="DejaVuSans-Oblique-61"
           transform="scale(0.015625)" />
        <path
           d="m 1172,4863 h 575 L 1197,2028 3169,3500 h 747 L 1716,1825 3322,0 H 2625 L 1131,1709 800,0 H 225 Z"
           id="DejaVuSans-Oblique-6b"
           transform="scale(0.015625)" />
        <path
           d="m 750,794 h 659 V 256 L 897,-744 H 494 L 750,256 Z"
           id="DejaVuSans-2c"
           transform="scale(0.015625)" />
      </defs>
      <use
         transform="translate(0,0.09375)"
         xlink:href="#DejaVuSans-Oblique-49"
         id="use469"
         x="0"
         y="0"
         width="100%"
         height="100%" />
      <use
         transform="matrix(0.7,0,0,0.7,29.492188,-16.3125)"
         xlink:href="#DejaVuSans-Oblique-64"
         id="use471"
         x="0"
         y="0"
         width="100%"
         height="100%" />
      <use
         transform="matrix(0.7,0,0,0.7,73.925781,-16.3125)"
         xlink:href="#DejaVuSans-Oblique-61"
         id="use473"
         x="0"
         y="0"
         width="100%"
         height="100%" />
      <use
         transform="matrix(0.7,0,0,0.7,116.82129,-16.3125)"
         xlink:href="#DejaVuSans-Oblique-72"
         id="use475"
         x="0"
         y="0"
         width="100%"
         height="100%" />
      <use
         transform="matrix(0.7,0,0,0.7,145.60059,-16.3125)"
         xlink:href="#DejaVuSans-Oblique-6b"
         id="use477"
         x="0"
         y="0"
         width="100%"
         height="100%" />
      <use
         transform="matrix(0.7,0,0,0.7,186.13769,-16.3125)"
         xlink:href="#DejaVuSans-2c"
         id="use479"
         x="0"
         y="0"
         width="100%"
         height="100%" />
      <use
         transform="matrix(0.7,0,0,0.7,222.02637,-16.3125)"
         xlink:href="#DejaVuSans-31"
         id="use481"
         x="0"
         y="0"
         width="100%"
         height="100%" />
    </g>
  </g>
  <g
     id="line2d_40"
     transform="translate(156.37305,160.80493)">
    <path
       d="m 12.6,143.63414 h 28"
       style="fill:none;stroke:#0000ff;stroke-width:1.5;stroke-dasharray:5.55, 2.4;stroke-dashoffset:0"
       id="path486" />
  </g>
  <g
     id="line2d_41"
     transform="translate(-10.33746,-187.22289)" />
  <g
     id="text_21"
     transform="translate(156.37305,160.80493)">
    <!-- $|1 - A_G|^2$ -->
    <g
       transform="matrix(0.14,0,0,-0.14,43.4,148.53414)"
       id="g507">
      <defs
         id="defs491">
        <path
           d="M 678,2272 H 4684 V 1741 H 678 Z"
           id="DejaVuSans-2212"
           transform="scale(0.015625)" />
      </defs>
      <use
         transform="translate(0,0.765625)"
         xlink:href="#DejaVuSans-7c"
         id="use493"
         x="0"
         y="0"
         width="100%"
         height="100%" />
      <use
         transform="translate(33.691406,0.765625)"
         xlink:href="#DejaVuSans-31"
         id="use495"
         x="0"
         y="0"
         width="100%"
         height="100%" />
      <use
         transform="translate(116.79688,0.765625)"
         xlink:href="#DejaVuSans-2212"
         id="use497"
         x="0"
         y="0"
         width="100%"
         height="100%" />
      <use
         transform="translate(220.06836,0.765625)"
         xlink:href="#DejaVuSans-Oblique-41"
         id="use499"
         x="0"
         y="0"
         width="100%"
         height="100%" />
      <use
         transform="matrix(0.7,0,0,0.7,288.47656,-15.640625)"
         xlink:href="#DejaVuSans-Oblique-47"
         id="use501"
         x="0"
         y="0"
         width="100%"
         height="100%" />
      <use
         transform="translate(345.4541,0.765625)"
         xlink:href="#DejaVuSans-7c"
         id="use503"
         x="0"
         y="0"
         width="100%"
         height="100%" />
      <use
         transform="matrix(0.7,0,0,0.7,380.10254,39.046875)"
         xlink:href="#DejaVuSans-32"
         id="use505"
         x="0"
         y="0"
         width="100%"
         height="100%" />
    </g>
  </g>
  <g
     id="line2d_42"
     transform="translate(270.46282,127.23837)">
    <path
       d="m 12.6,159.03195 h 28"
       style="fill:none;stroke:#17becf;stroke-width:1.5;stroke-linecap:square"
       id="path510" />
  </g>
  <g
     id="line2d_43"
     transform="translate(-10.33746,-187.22289)" />
  <g
     id="text_22"
     transform="translate(270.46282,127.23837)">
    <!-- $I_{dark,2}$ -->
    <g
       transform="matrix(0.14,0,0,-0.14,43.4,163.93195)"
       id="g528">
      <use
         transform="translate(0,0.09375)"
         xlink:href="#DejaVuSans-Oblique-49"
         id="use514"
         x="0"
         y="0"
         width="100%"
         height="100%" />
      <use
         transform="matrix(0.7,0,0,0.7,29.492188,-16.3125)"
         xlink:href="#DejaVuSans-Oblique-64"
         id="use516"
         x="0"
         y="0"
         width="100%"
         height="100%" />
      <use
         transform="matrix(0.7,0,0,0.7,73.925781,-16.3125)"
         xlink:href="#DejaVuSans-Oblique-61"
         id="use518"
         x="0"
         y="0"
         width="100%"
         height="100%" />
      <use
         transform="matrix(0.7,0,0,0.7,116.82129,-16.3125)"
         xlink:href="#DejaVuSans-Oblique-72"
         id="use520"
         x="0"
         y="0"
         width="100%"
         height="100%" />
      <use
         transform="matrix(0.7,0,0,0.7,145.60059,-16.3125)"
         xlink:href="#DejaVuSans-Oblique-6b"
         id="use522"
         x="0"
         y="0"
         width="100%"
         height="100%" />
      <use
         transform="matrix(0.7,0,0,0.7,186.13769,-16.3125)"
         xlink:href="#DejaVuSans-2c"
         id="use524"
         x="0"
         y="0"
         width="100%"
         height="100%" />
      <use
         transform="matrix(0.7,0,0,0.7,222.02637,-16.3125)"
         xlink:href="#DejaVuSans-32"
         id="use526"
         x="0"
         y="0"
         width="100%"
         height="100%" />
    </g>
  </g>
  <g
     id="line2d_44"
     transform="translate(270.46282,128.73837)">
    <path
       d="m 12.6,174.56977 h 28"
       style="fill:none;stroke:#6495ed;stroke-width:1.5;stroke-linecap:square"
       id="path531" />
  </g>
  <g
     id="line2d_45"
     transform="translate(-10.33746,-187.22289)" />
  <g
     id="text_23"
     transform="translate(270.46282,128.73837)">
    <!-- $I_{dark,3}$ -->
    <g
       transform="matrix(0.14,0,0,-0.14,43.4,179.46977)"
       id="g552">
      <defs
         id="defs536">
        <path
           d="m 2597,2516 q 453,-97 707,-404 255,-306 255,-756 0,-690 -475,-1069 -475,-378 -1350,-378 -293,0 -604,58 -311,58 -642,174 v 609 q 262,-153 574,-231 313,-78 654,-78 593,0 904,234 311,234 311,681 0,413 -289,645 -289,233 -804,233 h -544 v 519 h 569 q 465,0 712,186 247,186 247,536 0,359 -255,551 -254,193 -729,193 -260,0 -557,-57 -297,-56 -653,-174 v 562 q 360,100 674,150 314,50 592,50 719,0 1137,-327 419,-326 419,-882 0,-388 -222,-655 -222,-267 -631,-370 z"
           id="DejaVuSans-33"
           transform="scale(0.015625)" />
      </defs>
      <use
         transform="translate(0,0.09375)"
         xlink:href="#DejaVuSans-Oblique-49"
         id="use538"
         x="0"
         y="0"
         width="100%"
         height="100%" />
      <use
         transform="matrix(0.7,0,0,0.7,29.492188,-16.3125)"
         xlink:href="#DejaVuSans-Oblique-64"
         id="use540"
         x="0"
         y="0"
         width="100%"
         height="100%" />
      <use
         transform="matrix(0.7,0,0,0.7,73.925781,-16.3125)"
         xlink:href="#DejaVuSans-Oblique-61"
         id="use542"
         x="0"
         y="0"
         width="100%"
         height="100%" />
      <use
         transform="matrix(0.7,0,0,0.7,116.82129,-16.3125)"
         xlink:href="#DejaVuSans-Oblique-72"
         id="use544"
         x="0"
         y="0"
         width="100%"
         height="100%" />
      <use
         transform="matrix(0.7,0,0,0.7,145.60059,-16.3125)"
         xlink:href="#DejaVuSans-Oblique-6b"
         id="use546"
         x="0"
         y="0"
         width="100%"
         height="100%" />
      <use
         transform="matrix(0.7,0,0,0.7,186.13769,-16.3125)"
         xlink:href="#DejaVuSans-2c"
         id="use548"
         x="0"
         y="0"
         width="100%"
         height="100%" />
      <use
         transform="matrix(0.7,0,0,0.7,222.02637,-16.3125)"
         xlink:href="#DejaVuSans-33"
         id="use550"
         x="0"
         y="0"
         width="100%"
         height="100%" />
    </g>
  </g>
  <defs
     id="defs563">
    <clipPath
       id="p49e7cd819e">
      <rect
         height="211.5"
         width="164.75"
         x="61.45"
         y="12.518906"
         id="rect557" />
    </clipPath>
    <clipPath
       id="pe0548e359b">
      <rect
         height="211.5"
         width="164.75"
         x="249.0125"
         y="12.518906"
         id="rect560" />
    </clipPath>
  </defs>
</svg>
