<?xml version="1.0" encoding="utf-8" standalone="no"?>
<!DOCTYPE svg PUBLIC "-//W3C//DTD SVG 1.1//EN"
  "http://www.w3.org/Graphics/SVG/1.1/DTD/svg11.dtd">
<svg height="273.849375pt" version="1.1" viewBox="0 0 404.33875 273.849375" width="404.33875pt" xmlns="http://www.w3.org/2000/svg" xmlns:xlink="http://www.w3.org/1999/xlink">
 <metadata>
  <rdf:RDF xmlns:cc="http://creativecommons.org/ns#" xmlns:dc="http://purl.org/dc/elements/1.1/" xmlns:rdf="http://www.w3.org/1999/02/22-rdf-syntax-ns#">
   <cc:Work>
    <dc:type rdf:resource="http://purl.org/dc/dcmitype/StillImage"/>
    <dc:date>2021-12-02T22:49:19.217305</dc:date>
    <dc:format>image/svg+xml</dc:format>
    <dc:creator>
     <cc:Agent>
      <dc:title>Matplotlib v3.4.3, https://matplotlib.org/</dc:title>
     </cc:Agent>
    </dc:creator>
   </cc:Work>
  </rdf:RDF>
 </metadata>
 <defs>
  <style type="text/css">*{stroke-linecap:butt;stroke-linejoin:round;}</style>
 </defs>
 <g id="figure_1">
  <g id="patch_1">
   <path d="M 0 273.849375 
L 404.33875 273.849375 
L 404.33875 0 
L 0 0 
z
" style="fill:none;"/>
  </g>
  <g id="axes_1">
   <g id="patch_2">
    <path d="M 57.885 224.64 
L 210.066818 224.64 
L 210.066818 7.2 
L 57.885 7.2 
z
" style="fill:#ffffff;"/>
   </g>
   <g id="matplotlib.axis_1">
    <g id="xtick_1">
     <g id="line2d_1">
      <defs>
       <path d="M 0 0 
L 0 3.5 
" id="m1b2b4bbbbc" style="stroke:#000000;stroke-width:0.8;"/>
      </defs>
      <g>
       <use style="stroke:#000000;stroke-width:0.8;" x="57.885" xlink:href="#m1b2b4bbbbc" y="224.64"/>
      </g>
     </g>
     <g id="text_1">
      <!-- 0 -->
      <g transform="translate(53.43125 242.277813)scale(0.14 -0.14)">
       <defs>
        <path d="M 2034 4250 
Q 1547 4250 1301 3770 
Q 1056 3291 1056 2328 
Q 1056 1369 1301 889 
Q 1547 409 2034 409 
Q 2525 409 2770 889 
Q 3016 1369 3016 2328 
Q 3016 3291 2770 3770 
Q 2525 4250 2034 4250 
z
M 2034 4750 
Q 2819 4750 3233 4129 
Q 3647 3509 3647 2328 
Q 3647 1150 3233 529 
Q 2819 -91 2034 -91 
Q 1250 -91 836 529 
Q 422 1150 422 2328 
Q 422 3509 836 4129 
Q 1250 4750 2034 4750 
z
" id="DejaVuSans-30" transform="scale(0.015625)"/>
       </defs>
       <use xlink:href="#DejaVuSans-30"/>
      </g>
     </g>
    </g>
    <g id="xtick_2">
     <g id="line2d_2">
      <g>
       <use style="stroke:#000000;stroke-width:0.8;" x="108.612273" xlink:href="#m1b2b4bbbbc" y="224.64"/>
      </g>
     </g>
     <g id="text_2">
      <!-- 2 -->
      <g transform="translate(104.158523 242.277813)scale(0.14 -0.14)">
       <defs>
        <path d="M 1228 531 
L 3431 531 
L 3431 0 
L 469 0 
L 469 531 
Q 828 903 1448 1529 
Q 2069 2156 2228 2338 
Q 2531 2678 2651 2914 
Q 2772 3150 2772 3378 
Q 2772 3750 2511 3984 
Q 2250 4219 1831 4219 
Q 1534 4219 1204 4116 
Q 875 4013 500 3803 
L 500 4441 
Q 881 4594 1212 4672 
Q 1544 4750 1819 4750 
Q 2544 4750 2975 4387 
Q 3406 4025 3406 3419 
Q 3406 3131 3298 2873 
Q 3191 2616 2906 2266 
Q 2828 2175 2409 1742 
Q 1991 1309 1228 531 
z
" id="DejaVuSans-32" transform="scale(0.015625)"/>
       </defs>
       <use xlink:href="#DejaVuSans-32"/>
      </g>
     </g>
    </g>
    <g id="xtick_3">
     <g id="line2d_3">
      <g>
       <use style="stroke:#000000;stroke-width:0.8;" x="159.339545" xlink:href="#m1b2b4bbbbc" y="224.64"/>
      </g>
     </g>
     <g id="text_3">
      <!-- 4 -->
      <g transform="translate(154.885795 242.277813)scale(0.14 -0.14)">
       <defs>
        <path d="M 2419 4116 
L 825 1625 
L 2419 1625 
L 2419 4116 
z
M 2253 4666 
L 3047 4666 
L 3047 1625 
L 3713 1625 
L 3713 1100 
L 3047 1100 
L 3047 0 
L 2419 0 
L 2419 1100 
L 313 1100 
L 313 1709 
L 2253 4666 
z
" id="DejaVuSans-34" transform="scale(0.015625)"/>
       </defs>
       <use xlink:href="#DejaVuSans-34"/>
      </g>
     </g>
    </g>
    <g id="xtick_4">
     <g id="line2d_4">
      <g>
       <use style="stroke:#000000;stroke-width:0.8;" x="210.066818" xlink:href="#m1b2b4bbbbc" y="224.64"/>
      </g>
     </g>
     <g id="text_4">
      <!-- 6 -->
      <g transform="translate(205.613068 242.277813)scale(0.14 -0.14)">
       <defs>
        <path d="M 2113 2584 
Q 1688 2584 1439 2293 
Q 1191 2003 1191 1497 
Q 1191 994 1439 701 
Q 1688 409 2113 409 
Q 2538 409 2786 701 
Q 3034 994 3034 1497 
Q 3034 2003 2786 2293 
Q 2538 2584 2113 2584 
z
M 3366 4563 
L 3366 3988 
Q 3128 4100 2886 4159 
Q 2644 4219 2406 4219 
Q 1781 4219 1451 3797 
Q 1122 3375 1075 2522 
Q 1259 2794 1537 2939 
Q 1816 3084 2150 3084 
Q 2853 3084 3261 2657 
Q 3669 2231 3669 1497 
Q 3669 778 3244 343 
Q 2819 -91 2113 -91 
Q 1303 -91 875 529 
Q 447 1150 447 2328 
Q 447 3434 972 4092 
Q 1497 4750 2381 4750 
Q 2619 4750 2861 4703 
Q 3103 4656 3366 4563 
z
" id="DejaVuSans-36" transform="scale(0.015625)"/>
       </defs>
       <use xlink:href="#DejaVuSans-36"/>
      </g>
     </g>
    </g>
    <g id="text_5">
     <!-- z [$\mathrm{\mu m}$] -->
     <g transform="translate(104.815909 262.869375)scale(0.18 -0.18)">
      <defs>
       <path d="M 353 3500 
L 3084 3500 
L 3084 2975 
L 922 459 
L 3084 459 
L 3084 0 
L 275 0 
L 275 525 
L 2438 3041 
L 353 3041 
L 353 3500 
z
" id="DejaVuSans-7a" transform="scale(0.015625)"/>
       <path id="DejaVuSans-20" transform="scale(0.015625)"/>
       <path d="M 550 4863 
L 1875 4863 
L 1875 4416 
L 1125 4416 
L 1125 -397 
L 1875 -397 
L 1875 -844 
L 550 -844 
L 550 4863 
z
" id="DejaVuSans-5b" transform="scale(0.015625)"/>
       <path d="M 544 -1331 
L 544 3500 
L 1119 3500 
L 1119 1325 
Q 1119 872 1334 640 
Q 1550 409 1972 409 
Q 2434 409 2667 671 
Q 2900 934 2900 1459 
L 2900 3500 
L 3475 3500 
L 3475 806 
Q 3475 619 3529 530 
Q 3584 441 3700 441 
Q 3728 441 3778 458 
Q 3828 475 3916 513 
L 3916 50 
Q 3788 -22 3673 -56 
Q 3559 -91 3450 -91 
Q 3234 -91 3106 31 
Q 2978 153 2931 403 
Q 2775 156 2548 32 
Q 2322 -91 2016 -91 
Q 1697 -91 1473 31 
Q 1250 153 1119 397 
L 1119 -1331 
L 544 -1331 
z
" id="DejaVuSans-3bc" transform="scale(0.015625)"/>
       <path d="M 3328 2828 
Q 3544 3216 3844 3400 
Q 4144 3584 4550 3584 
Q 5097 3584 5394 3201 
Q 5691 2819 5691 2113 
L 5691 0 
L 5113 0 
L 5113 2094 
Q 5113 2597 4934 2840 
Q 4756 3084 4391 3084 
Q 3944 3084 3684 2787 
Q 3425 2491 3425 1978 
L 3425 0 
L 2847 0 
L 2847 2094 
Q 2847 2600 2669 2842 
Q 2491 3084 2119 3084 
Q 1678 3084 1418 2786 
Q 1159 2488 1159 1978 
L 1159 0 
L 581 0 
L 581 3500 
L 1159 3500 
L 1159 2956 
Q 1356 3278 1631 3431 
Q 1906 3584 2284 3584 
Q 2666 3584 2933 3390 
Q 3200 3197 3328 2828 
z
" id="DejaVuSans-6d" transform="scale(0.015625)"/>
       <path d="M 1947 4863 
L 1947 -844 
L 622 -844 
L 622 -397 
L 1369 -397 
L 1369 4416 
L 622 4416 
L 622 4863 
L 1947 4863 
z
" id="DejaVuSans-5d" transform="scale(0.015625)"/>
      </defs>
      <use transform="translate(0 0.015625)" xlink:href="#DejaVuSans-7a"/>
      <use transform="translate(52.490234 0.015625)" xlink:href="#DejaVuSans-20"/>
      <use transform="translate(84.277344 0.015625)" xlink:href="#DejaVuSans-5b"/>
      <use transform="translate(123.291016 0.015625)" xlink:href="#DejaVuSans-3bc"/>
      <use transform="translate(186.914062 0.015625)" xlink:href="#DejaVuSans-6d"/>
      <use transform="translate(284.326172 0.015625)" xlink:href="#DejaVuSans-5d"/>
     </g>
    </g>
   </g>
   <g id="matplotlib.axis_2">
    <g id="ytick_1">
     <g id="line2d_5">
      <defs>
       <path d="M 0 0 
L -3.5 0 
" id="ma826a22b3d" style="stroke:#000000;stroke-width:0.8;"/>
      </defs>
      <g>
       <use style="stroke:#000000;stroke-width:0.8;" x="57.885" xlink:href="#ma826a22b3d" y="214.756364"/>
      </g>
     </g>
     <g id="text_6">
      <!-- 0.0 -->
      <g transform="translate(28.620625 220.07527)scale(0.14 -0.14)">
       <defs>
        <path d="M 684 794 
L 1344 794 
L 1344 0 
L 684 0 
L 684 794 
z
" id="DejaVuSans-2e" transform="scale(0.015625)"/>
       </defs>
       <use xlink:href="#DejaVuSans-30"/>
       <use x="63.623047" xlink:href="#DejaVuSans-2e"/>
       <use x="95.410156" xlink:href="#DejaVuSans-30"/>
      </g>
     </g>
    </g>
    <g id="ytick_2">
     <g id="line2d_6">
      <g>
       <use style="stroke:#000000;stroke-width:0.8;" x="57.885" xlink:href="#ma826a22b3d" y="175.221818"/>
      </g>
     </g>
     <g id="text_7">
      <!-- 0.2 -->
      <g transform="translate(28.620625 180.540724)scale(0.14 -0.14)">
       <use xlink:href="#DejaVuSans-30"/>
       <use x="63.623047" xlink:href="#DejaVuSans-2e"/>
       <use x="95.410156" xlink:href="#DejaVuSans-32"/>
      </g>
     </g>
    </g>
    <g id="ytick_3">
     <g id="line2d_7">
      <g>
       <use style="stroke:#000000;stroke-width:0.8;" x="57.885" xlink:href="#ma826a22b3d" y="135.687273"/>
      </g>
     </g>
     <g id="text_8">
      <!-- 0.4 -->
      <g transform="translate(28.620625 141.006179)scale(0.14 -0.14)">
       <use xlink:href="#DejaVuSans-30"/>
       <use x="63.623047" xlink:href="#DejaVuSans-2e"/>
       <use x="95.410156" xlink:href="#DejaVuSans-34"/>
      </g>
     </g>
    </g>
    <g id="ytick_4">
     <g id="line2d_8">
      <g>
       <use style="stroke:#000000;stroke-width:0.8;" x="57.885" xlink:href="#ma826a22b3d" y="96.152727"/>
      </g>
     </g>
     <g id="text_9">
      <!-- 0.6 -->
      <g transform="translate(28.620625 101.471634)scale(0.14 -0.14)">
       <use xlink:href="#DejaVuSans-30"/>
       <use x="63.623047" xlink:href="#DejaVuSans-2e"/>
       <use x="95.410156" xlink:href="#DejaVuSans-36"/>
      </g>
     </g>
    </g>
    <g id="ytick_5">
     <g id="line2d_9">
      <g>
       <use style="stroke:#000000;stroke-width:0.8;" x="57.885" xlink:href="#ma826a22b3d" y="56.618182"/>
      </g>
     </g>
     <g id="text_10">
      <!-- 0.8 -->
      <g transform="translate(28.620625 61.937088)scale(0.14 -0.14)">
       <defs>
        <path d="M 2034 2216 
Q 1584 2216 1326 1975 
Q 1069 1734 1069 1313 
Q 1069 891 1326 650 
Q 1584 409 2034 409 
Q 2484 409 2743 651 
Q 3003 894 3003 1313 
Q 3003 1734 2745 1975 
Q 2488 2216 2034 2216 
z
M 1403 2484 
Q 997 2584 770 2862 
Q 544 3141 544 3541 
Q 544 4100 942 4425 
Q 1341 4750 2034 4750 
Q 2731 4750 3128 4425 
Q 3525 4100 3525 3541 
Q 3525 3141 3298 2862 
Q 3072 2584 2669 2484 
Q 3125 2378 3379 2068 
Q 3634 1759 3634 1313 
Q 3634 634 3220 271 
Q 2806 -91 2034 -91 
Q 1263 -91 848 271 
Q 434 634 434 1313 
Q 434 1759 690 2068 
Q 947 2378 1403 2484 
z
M 1172 3481 
Q 1172 3119 1398 2916 
Q 1625 2713 2034 2713 
Q 2441 2713 2670 2916 
Q 2900 3119 2900 3481 
Q 2900 3844 2670 4047 
Q 2441 4250 2034 4250 
Q 1625 4250 1398 4047 
Q 1172 3844 1172 3481 
z
" id="DejaVuSans-38" transform="scale(0.015625)"/>
       </defs>
       <use xlink:href="#DejaVuSans-30"/>
       <use x="63.623047" xlink:href="#DejaVuSans-2e"/>
       <use x="95.410156" xlink:href="#DejaVuSans-38"/>
      </g>
     </g>
    </g>
    <g id="ytick_6">
     <g id="line2d_10">
      <g>
       <use style="stroke:#000000;stroke-width:0.8;" x="57.885" xlink:href="#ma826a22b3d" y="17.083636"/>
      </g>
     </g>
     <g id="text_11">
      <!-- 1.0 -->
      <g transform="translate(28.620625 22.402543)scale(0.14 -0.14)">
       <defs>
        <path d="M 794 531 
L 1825 531 
L 1825 4091 
L 703 3866 
L 703 4441 
L 1819 4666 
L 2450 4666 
L 2450 531 
L 3481 531 
L 3481 0 
L 794 0 
L 794 531 
z
" id="DejaVuSans-31" transform="scale(0.015625)"/>
       </defs>
       <use xlink:href="#DejaVuSans-31"/>
       <use x="63.623047" xlink:href="#DejaVuSans-2e"/>
       <use x="95.410156" xlink:href="#DejaVuSans-30"/>
      </g>
     </g>
    </g>
    <g id="text_12">
     <!-- Intensity -->
     <g transform="translate(20.877188 155.0925)rotate(-90)scale(0.18 -0.18)">
      <defs>
       <path d="M 628 4666 
L 1259 4666 
L 1259 0 
L 628 0 
L 628 4666 
z
" id="DejaVuSans-49" transform="scale(0.015625)"/>
       <path d="M 3513 2113 
L 3513 0 
L 2938 0 
L 2938 2094 
Q 2938 2591 2744 2837 
Q 2550 3084 2163 3084 
Q 1697 3084 1428 2787 
Q 1159 2491 1159 1978 
L 1159 0 
L 581 0 
L 581 3500 
L 1159 3500 
L 1159 2956 
Q 1366 3272 1645 3428 
Q 1925 3584 2291 3584 
Q 2894 3584 3203 3211 
Q 3513 2838 3513 2113 
z
" id="DejaVuSans-6e" transform="scale(0.015625)"/>
       <path d="M 1172 4494 
L 1172 3500 
L 2356 3500 
L 2356 3053 
L 1172 3053 
L 1172 1153 
Q 1172 725 1289 603 
Q 1406 481 1766 481 
L 2356 481 
L 2356 0 
L 1766 0 
Q 1100 0 847 248 
Q 594 497 594 1153 
L 594 3053 
L 172 3053 
L 172 3500 
L 594 3500 
L 594 4494 
L 1172 4494 
z
" id="DejaVuSans-74" transform="scale(0.015625)"/>
       <path d="M 3597 1894 
L 3597 1613 
L 953 1613 
Q 991 1019 1311 708 
Q 1631 397 2203 397 
Q 2534 397 2845 478 
Q 3156 559 3463 722 
L 3463 178 
Q 3153 47 2828 -22 
Q 2503 -91 2169 -91 
Q 1331 -91 842 396 
Q 353 884 353 1716 
Q 353 2575 817 3079 
Q 1281 3584 2069 3584 
Q 2775 3584 3186 3129 
Q 3597 2675 3597 1894 
z
M 3022 2063 
Q 3016 2534 2758 2815 
Q 2500 3097 2075 3097 
Q 1594 3097 1305 2825 
Q 1016 2553 972 2059 
L 3022 2063 
z
" id="DejaVuSans-65" transform="scale(0.015625)"/>
       <path d="M 2834 3397 
L 2834 2853 
Q 2591 2978 2328 3040 
Q 2066 3103 1784 3103 
Q 1356 3103 1142 2972 
Q 928 2841 928 2578 
Q 928 2378 1081 2264 
Q 1234 2150 1697 2047 
L 1894 2003 
Q 2506 1872 2764 1633 
Q 3022 1394 3022 966 
Q 3022 478 2636 193 
Q 2250 -91 1575 -91 
Q 1294 -91 989 -36 
Q 684 19 347 128 
L 347 722 
Q 666 556 975 473 
Q 1284 391 1588 391 
Q 1994 391 2212 530 
Q 2431 669 2431 922 
Q 2431 1156 2273 1281 
Q 2116 1406 1581 1522 
L 1381 1569 
Q 847 1681 609 1914 
Q 372 2147 372 2553 
Q 372 3047 722 3315 
Q 1072 3584 1716 3584 
Q 2034 3584 2315 3537 
Q 2597 3491 2834 3397 
z
" id="DejaVuSans-73" transform="scale(0.015625)"/>
       <path d="M 603 3500 
L 1178 3500 
L 1178 0 
L 603 0 
L 603 3500 
z
M 603 4863 
L 1178 4863 
L 1178 4134 
L 603 4134 
L 603 4863 
z
" id="DejaVuSans-69" transform="scale(0.015625)"/>
       <path d="M 2059 -325 
Q 1816 -950 1584 -1140 
Q 1353 -1331 966 -1331 
L 506 -1331 
L 506 -850 
L 844 -850 
Q 1081 -850 1212 -737 
Q 1344 -625 1503 -206 
L 1606 56 
L 191 3500 
L 800 3500 
L 1894 763 
L 2988 3500 
L 3597 3500 
L 2059 -325 
z
" id="DejaVuSans-79" transform="scale(0.015625)"/>
      </defs>
      <use xlink:href="#DejaVuSans-49"/>
      <use x="29.492188" xlink:href="#DejaVuSans-6e"/>
      <use x="92.871094" xlink:href="#DejaVuSans-74"/>
      <use x="132.080078" xlink:href="#DejaVuSans-65"/>
      <use x="193.603516" xlink:href="#DejaVuSans-6e"/>
      <use x="256.982422" xlink:href="#DejaVuSans-73"/>
      <use x="309.082031" xlink:href="#DejaVuSans-69"/>
      <use x="336.865234" xlink:href="#DejaVuSans-74"/>
      <use x="376.074219" xlink:href="#DejaVuSans-79"/>
     </g>
    </g>
   </g>
   <g id="line2d_11">
    <path clip-path="url(#p1c407f6b17)" d="M 57.885 17.083636 
L 67.967439 18.251342 
L 78.049879 21.705798 
L 88.132318 27.350515 
L 98.214757 35.029239 
L 108.297196 44.531971 
L 118.379636 55.60289 
L 128.462075 67.949736 
L 138.544514 81.254175 
L 148.626954 95.182613 
L 158.709393 109.396986 
L 168.791832 123.565075 
L 178.874272 137.369985 
L 188.956711 150.518525 
L 199.03915 162.748292 
L 209.121589 173.833405 
L 219.204029 183.588844 
L 229.286468 191.87346 
L 239.368907 198.591707 
L 249.451347 203.694194 
L 259.533786 207.17712 
L 269.616225 209.080647 
L 279.698665 209.486241 
L 289.781104 208.513015 
L 299.863543 206.313059 
L 309.945982 203.065816 
L 320.028422 198.971545 
L 330.110861 194.243997 
L 340.1933 189.102476 
L 350.27574 183.763534 
L 360.358179 178.432619 
L 370.440618 173.296059 
L 380.523058 168.513776 
L 390.605497 164.213164 
L 400.687936 160.484518 
L 405.33875 159.051713 
" style="fill:none;stroke:#ff0000;stroke-linecap:square;stroke-width:1.5;"/>
   </g>
   <g id="line2d_12">
    <path clip-path="url(#p1c407f6b17)" d="M 57.885 214.748825 
L 67.967439 212.550316 
L 78.049879 206.083147 
L 88.132318 195.700116 
L 98.214757 181.960096 
L 108.297196 165.587708 
L 118.379636 147.421739 
L 128.462075 128.356597 
L 138.544514 109.281608 
L 148.626954 91.023024 
L 158.709393 74.293268 
L 168.791832 59.651164 
L 178.874272 47.475853 
L 188.956711 37.955813 
L 199.03915 31.093053 
L 209.121589 26.721214 
L 219.204029 24.535222 
L 229.286468 24.129211 
L 239.368907 25.038933 
L 249.451347 26.784733 
L 259.533786 28.91133 
L 269.616225 31.02127 
L 279.698665 32.799668 
L 289.781104 34.028878 
L 299.863543 34.592769 
L 309.945982 34.471276 
L 320.028422 33.726783 
L 330.110861 32.48451 
L 340.1933 30.909485 
L 350.27574 29.182745 
L 360.358179 27.47924 
L 370.440618 25.949471 
L 380.523058 24.706321 
L 390.605497 23.817804 
L 400.687936 23.305776 
L 405.33875 23.233914 
" style="fill:none;stroke:#0000ff;stroke-linecap:square;stroke-width:1.5;"/>
   </g>
   <g id="line2d_13">
    <path clip-path="url(#p1c407f6b17)" d="M 57.885 17.083636 
L 67.967439 17.699178 
L 78.049879 19.523015 
L 88.132318 22.488858 
L 98.214757 26.492808 
L 108.297196 31.402092 
L 118.379636 37.065365 
L 128.462075 43.323171 
L 138.544514 50.017405 
L 148.626954 56.998978 
L 158.709393 64.133308 
L 168.791832 71.303619 
L 178.874272 78.412335 
L 188.956711 85.380947 
L 199.03915 92.148804 
L 209.121589 98.671245 
L 219.204029 104.917404 
L 229.286468 110.867938 
L 239.368907 116.512853 
L 249.451347 121.849539 
L 259.533786 126.88104 
L 269.616225 131.614605 
L 279.698665 136.060488 
L 289.781104 140.230978 
L 299.863543 144.139639 
L 309.945982 147.800719 
L 320.028422 151.228702 
L 330.110861 154.437976 
L 340.1933 157.442598 
L 350.27574 160.256122 
L 360.358179 162.891495 
L 370.440618 165.360988 
L 380.523058 167.676161 
L 390.605497 169.847856 
L 400.687936 171.886197 
L 405.33875 172.769279 
" style="fill:none;stroke:#ff0000;stroke-dasharray:5.55,2.4;stroke-dashoffset:0;stroke-width:1.5;"/>
   </g>
   <g id="line2d_14">
    <path clip-path="url(#p1c407f6b17)" d="M 57.885 214.756364 
L 67.967439 214.140822 
L 78.049879 212.316985 
L 88.132318 209.351142 
L 98.214757 205.347192 
L 108.297196 200.437908 
L 118.379636 194.774635 
L 128.462075 188.516829 
L 138.544514 181.822595 
L 148.626954 174.841022 
L 158.709393 167.706692 
L 168.791832 160.536381 
L 178.874272 153.427665 
L 188.956711 146.459053 
L 199.03915 139.691196 
L 209.121589 133.168755 
L 219.204029 126.922596 
L 229.286468 120.972062 
L 239.368907 115.327147 
L 249.451347 109.990461 
L 259.533786 104.95896 
L 269.616225 100.225395 
L 279.698665 95.779512 
L 289.781104 91.609022 
L 299.863543 87.700361 
L 309.945982 84.039281 
L 320.028422 80.611298 
L 330.110861 77.402024 
L 340.1933 74.397402 
L 350.27574 71.583878 
L 360.358179 68.948505 
L 370.440618 66.479012 
L 380.523058 64.163839 
L 390.605497 61.992144 
L 400.687936 59.953803 
L 405.33875 59.070721 
" style="fill:none;stroke:#0000ff;stroke-dasharray:5.55,2.4;stroke-dashoffset:0;stroke-width:1.5;"/>
   </g>
   <g id="patch_3">
    <path d="M 57.885 224.64 
L 57.885 7.2 
" style="fill:none;stroke:#000000;stroke-linecap:square;stroke-linejoin:miter;stroke-width:0.8;"/>
   </g>
   <g id="patch_4">
    <path d="M 210.066818 224.64 
L 210.066818 7.2 
" style="fill:none;stroke:#000000;stroke-linecap:square;stroke-linejoin:miter;stroke-width:0.8;"/>
   </g>
   <g id="patch_5">
    <path d="M 57.885 224.64 
L 210.066818 224.64 
" style="fill:none;stroke:#000000;stroke-linecap:square;stroke-linejoin:miter;stroke-width:0.8;"/>
   </g>
   <g id="patch_6">
    <path d="M 57.885 7.2 
L 210.066818 7.2 
" style="fill:none;stroke:#000000;stroke-linecap:square;stroke-linejoin:miter;stroke-width:0.8;"/>
   </g>
  </g>
  <g id="axes_2">
   <g id="patch_7">
    <path d="M 240.503182 224.64 
L 392.685 224.64 
L 392.685 7.2 
L 240.503182 7.2 
z
" style="fill:#ffffff;"/>
   </g>
   <g id="matplotlib.axis_3">
    <g id="xtick_5">
     <g id="line2d_15">
      <g>
       <use style="stroke:#000000;stroke-width:0.8;" x="240.503182" xlink:href="#m1b2b4bbbbc" y="224.64"/>
      </g>
     </g>
     <g id="text_13">
      <!-- 0 -->
      <g transform="translate(236.049432 242.277813)scale(0.14 -0.14)">
       <use xlink:href="#DejaVuSans-30"/>
      </g>
     </g>
    </g>
    <g id="xtick_6">
     <g id="line2d_16">
      <g>
       <use style="stroke:#000000;stroke-width:0.8;" x="316.594091" xlink:href="#m1b2b4bbbbc" y="224.64"/>
      </g>
     </g>
     <g id="text_14">
      <!-- 1 -->
      <g transform="translate(312.140341 242.277813)scale(0.14 -0.14)">
       <use xlink:href="#DejaVuSans-31"/>
      </g>
     </g>
    </g>
    <g id="xtick_7">
     <g id="line2d_17">
      <g>
       <use style="stroke:#000000;stroke-width:0.8;" x="392.685" xlink:href="#m1b2b4bbbbc" y="224.64"/>
      </g>
     </g>
     <g id="text_15">
      <!-- 2 -->
      <g transform="translate(388.23125 242.277813)scale(0.14 -0.14)">
       <use xlink:href="#DejaVuSans-32"/>
      </g>
     </g>
    </g>
    <g id="text_16">
     <!-- $\rho_2$ [$\mathrm{\mu m}$] -->
     <g transform="translate(282.214091 262.869375)scale(0.18 -0.18)">
      <defs>
       <path d="M 1203 2875 
Q 1453 3194 1981 3475 
Q 2188 3584 2756 3584 
Q 3394 3584 3694 3078 
Q 3994 2572 3834 1747 
Q 3672 922 3175 415 
Q 2678 -91 2041 -91 
Q 1656 -91 1409 63 
Q 1163 213 1044 525 
L 681 -1331 
L 103 -1331 
L 697 1716 
Q 838 2438 1203 2875 
z
M 3238 1747 
Q 3359 2381 3169 2744 
Q 2978 3103 2522 3103 
Q 2066 3103 1734 2744 
Q 1403 2381 1281 1747 
Q 1156 1113 1347 750 
Q 1538 391 1994 391 
Q 2450 391 2781 750 
Q 3113 1113 3238 1747 
z
" id="DejaVuSans-Oblique-3c1" transform="scale(0.015625)"/>
      </defs>
      <use transform="translate(0 0.015625)" xlink:href="#DejaVuSans-Oblique-3c1"/>
      <use transform="translate(63.476562 -16.390625)scale(0.7)" xlink:href="#DejaVuSans-32"/>
      <use transform="translate(110.74707 0.015625)" xlink:href="#DejaVuSans-20"/>
      <use transform="translate(142.53418 0.015625)" xlink:href="#DejaVuSans-5b"/>
      <use transform="translate(181.547852 0.015625)" xlink:href="#DejaVuSans-3bc"/>
      <use transform="translate(245.170898 0.015625)" xlink:href="#DejaVuSans-6d"/>
      <use transform="translate(342.583008 0.015625)" xlink:href="#DejaVuSans-5d"/>
     </g>
    </g>
   </g>
   <g id="matplotlib.axis_4">
    <g id="ytick_7">
     <g id="line2d_18">
      <g>
       <use style="stroke:#000000;stroke-width:0.8;" x="240.503182" xlink:href="#ma826a22b3d" y="214.756364"/>
      </g>
     </g>
    </g>
    <g id="ytick_8">
     <g id="line2d_19">
      <g>
       <use style="stroke:#000000;stroke-width:0.8;" x="240.503182" xlink:href="#ma826a22b3d" y="175.221818"/>
      </g>
     </g>
    </g>
    <g id="ytick_9">
     <g id="line2d_20">
      <g>
       <use style="stroke:#000000;stroke-width:0.8;" x="240.503182" xlink:href="#ma826a22b3d" y="135.687273"/>
      </g>
     </g>
    </g>
    <g id="ytick_10">
     <g id="line2d_21">
      <g>
       <use style="stroke:#000000;stroke-width:0.8;" x="240.503182" xlink:href="#ma826a22b3d" y="96.152727"/>
      </g>
     </g>
    </g>
    <g id="ytick_11">
     <g id="line2d_22">
      <g>
       <use style="stroke:#000000;stroke-width:0.8;" x="240.503182" xlink:href="#ma826a22b3d" y="56.618182"/>
      </g>
     </g>
    </g>
    <g id="ytick_12">
     <g id="line2d_23">
      <g>
       <use style="stroke:#000000;stroke-width:0.8;" x="240.503182" xlink:href="#ma826a22b3d" y="17.083636"/>
      </g>
     </g>
    </g>
   </g>
   <g id="line2d_24">
    <path clip-path="url(#p09c6fe1de1)" d="M 239.894455 17.136316 
L 241.111909 17.083865 
L 242.329364 17.243015 
L 243.546818 17.613338 
L 244.764273 18.19383 
L 245.981727 18.982911 
L 247.199182 19.978436 
L 249.025364 21.852734 
L 250.851545 24.173877 
L 252.677727 26.927748 
L 254.503909 30.097667 
L 256.330091 33.664533 
L 258.765 39.000609 
L 261.199909 44.947867 
L 263.634818 51.44429 
L 266.678455 60.234908 
L 270.330818 71.58247 
L 274.591909 85.605076 
L 291.027545 140.568005 
L 294.679909 151.621985 
L 297.723545 160.230608 
L 300.767182 168.219223 
L 303.810818 175.53876 
L 306.245727 180.890824 
L 308.680636 185.78579 
L 311.115545 190.222034 
L 313.550455 194.204234 
L 315.985364 197.742874 
L 318.420273 200.853671 
L 320.855182 203.556915 
L 323.290091 205.876772 
L 325.725 207.840533 
L 328.159909 209.477861 
L 330.594818 210.820024 
L 333.029727 211.899155 
L 335.464636 212.747534 
L 338.508273 213.53182 
L 341.551909 214.06459 
L 345.204273 214.449268 
L 349.465364 214.652733 
L 355.552636 214.689 
L 377.466818 214.62217 
L 393.293727 214.714587 
L 393.293727 214.714587 
" style="fill:none;stroke:#ff0000;stroke-linecap:square;stroke-width:1.5;"/>
   </g>
   <g id="line2d_25">
    <path clip-path="url(#p09c6fe1de1)" d="M 239.894455 214.749647 
L 250.851545 214.659354 
L 255.721364 214.413678 
L 259.373727 214.02331 
L 262.417364 213.49688 
L 265.461 212.731634 
L 267.895909 211.910992 
L 270.330818 210.875065 
L 272.765727 209.597112 
L 275.200636 208.052022 
L 277.635545 206.216982 
L 280.070455 204.072098 
L 282.505364 201.60095 
L 284.940273 198.791075 
L 287.375182 195.634366 
L 289.810091 192.127372 
L 292.245 188.271505 
L 295.288636 182.971258 
L 298.332273 177.159563 
L 301.375909 170.871496 
L 305.028273 162.762628 
L 309.289364 152.652045 
L 314.159182 140.468765 
L 331.812273 95.620961 
L 336.073364 85.786632 
L 339.725727 77.958693 
L 342.769364 71.926126 
L 345.813 66.382196 
L 348.856636 61.356619 
L 351.291545 57.723074 
L 353.726455 54.43992 
L 356.161364 51.509018 
L 358.596273 48.928544 
L 361.031182 46.693205 
L 363.466091 44.7945 
L 365.901 43.221008 
L 368.335909 41.958713 
L 370.770818 40.991338 
L 373.205727 40.300696 
L 375.640636 39.86704 
L 378.075545 39.669413 
L 380.510455 39.68599 
L 382.945364 39.894401 
L 385.989 40.390248 
L 389.032636 41.106558 
L 392.685 42.196618 
L 393.293727 42.398072 
L 393.293727 42.398072 
" style="fill:none;stroke:#0000ff;stroke-linecap:square;stroke-width:1.5;"/>
   </g>
   <g id="line2d_26">
    <path clip-path="url(#p09c6fe1de1)" d="M 239.894455 17.111401 
L 241.111909 17.111401 
L 242.329364 17.333376 
L 243.546818 17.776578 
L 244.764273 18.439517 
L 245.981727 19.319966 
L 247.199182 20.414977 
L 249.025364 22.451613 
L 250.851545 24.947424 
L 252.677727 27.88393 
L 254.503909 31.239594 
L 256.330091 34.990097 
L 258.765 40.558288 
L 261.199909 46.711058 
L 264.243545 55.109641 
L 267.287182 64.14996 
L 271.548273 77.581062 
L 279.461727 103.56392 
L 285.549 123.157505 
L 289.810091 136.105959 
L 293.462455 146.489626 
L 296.506091 154.554385 
L 299.549727 162.037967 
L 302.593364 168.914376 
L 305.637 175.172837 
L 308.071909 179.736118 
L 310.506818 183.912287 
L 312.941727 187.712282 
L 315.376636 191.150463 
L 317.811545 194.243948 
L 320.246455 197.011981 
L 322.681364 199.475325 
L 325.116273 201.655717 
L 327.551182 203.575368 
L 329.986091 205.256528 
L 333.029727 207.055925 
L 336.073364 208.558178 
L 339.117 209.802277 
L 342.160636 210.824374 
L 345.813 211.804035 
L 349.465364 212.561919 
L 353.726455 213.223654 
L 358.596273 213.756344 
L 364.683545 214.184604 
L 372.597 214.491306 
L 383.554091 214.671833 
L 393.293727 214.728007 
L 393.293727 214.728007 
" style="fill:none;stroke:#ff0000;stroke-dasharray:5.55,2.4;stroke-dashoffset:0;stroke-width:1.5;"/>
   </g>
   <g id="line2d_27">
    <path clip-path="url(#p09c6fe1de1)" d="M 239.894455 214.728599 
L 241.111909 214.728599 
L 242.329364 214.506624 
L 243.546818 214.063422 
L 244.764273 213.400483 
L 245.981727 212.520034 
L 247.199182 211.425023 
L 249.025364 209.388387 
L 250.851545 206.892576 
L 252.677727 203.95607 
L 254.503909 200.600406 
L 256.330091 196.849903 
L 258.765 191.281712 
L 261.199909 185.128942 
L 264.243545 176.730359 
L 267.287182 167.69004 
L 271.548273 154.258938 
L 279.461727 128.27608 
L 285.549 108.682495 
L 289.810091 95.734041 
L 293.462455 85.350374 
L 296.506091 77.285615 
L 299.549727 69.802033 
L 302.593364 62.925624 
L 305.637 56.667163 
L 308.071909 52.103882 
L 310.506818 47.927713 
L 312.941727 44.127718 
L 315.376636 40.689537 
L 317.811545 37.596052 
L 320.246455 34.828019 
L 322.681364 32.364675 
L 325.116273 30.184283 
L 327.551182 28.264632 
L 329.986091 26.583472 
L 333.029727 24.784075 
L 336.073364 23.281822 
L 339.117 22.037723 
L 342.160636 21.015626 
L 345.813 20.035965 
L 349.465364 19.278081 
L 353.726455 18.616346 
L 358.596273 18.083656 
L 364.683545 17.655396 
L 372.597 17.348694 
L 383.554091 17.168167 
L 393.293727 17.111993 
L 393.293727 17.111993 
" style="fill:none;stroke:#0000ff;stroke-dasharray:5.55,2.4;stroke-dashoffset:0;stroke-width:1.5;"/>
   </g>
   <g id="patch_8">
    <path d="M 240.503182 224.64 
L 240.503182 7.2 
" style="fill:none;stroke:#000000;stroke-linecap:square;stroke-linejoin:miter;stroke-width:0.8;"/>
   </g>
   <g id="patch_9">
    <path d="M 392.685 224.64 
L 392.685 7.2 
" style="fill:none;stroke:#000000;stroke-linecap:square;stroke-linejoin:miter;stroke-width:0.8;"/>
   </g>
   <g id="patch_10">
    <path d="M 240.503182 224.64 
L 392.685 224.64 
" style="fill:none;stroke:#000000;stroke-linecap:square;stroke-linejoin:miter;stroke-width:0.8;"/>
   </g>
   <g id="patch_11">
    <path d="M 240.503182 7.2 
L 392.685 7.2 
" style="fill:none;stroke:#000000;stroke-linecap:square;stroke-linejoin:miter;stroke-width:0.8;"/>
   </g>
  </g>
 </g>
 <defs>
  <clipPath id="p1c407f6b17">
   <rect height="217.44" width="152.181818" x="57.885" y="7.2"/>
  </clipPath>
  <clipPath id="p09c6fe1de1">
   <rect height="217.44" width="152.181818" x="240.503182" y="7.2"/>
  </clipPath>
 </defs>
</svg>
