<?xml version="1.0" encoding="utf-8" standalone="no"?>
<!DOCTYPE svg PUBLIC "-//W3C//DTD SVG 1.1//EN"
  "http://www.w3.org/Graphics/SVG/1.1/DTD/svg11.dtd">
<svg height="356.49875pt" version="1.1" viewBox="0 0 369.541875 356.49875" width="369.541875pt" xmlns="http://www.w3.org/2000/svg" xmlns:xlink="http://www.w3.org/1999/xlink">
 <metadata>
  <rdf:RDF xmlns:cc="http://creativecommons.org/ns#" xmlns:dc="http://purl.org/dc/elements/1.1/" xmlns:rdf="http://www.w3.org/1999/02/22-rdf-syntax-ns#">
   <cc:Work>
    <dc:type rdf:resource="http://purl.org/dc/dcmitype/StillImage"/>
    <dc:date>2022-04-13T08:48:30.202895</dc:date>
    <dc:format>image/svg+xml</dc:format>
    <dc:creator>
     <cc:Agent>
      <dc:title>Matplotlib v3.4.3, https://matplotlib.org/</dc:title>
     </cc:Agent>
    </dc:creator>
   </cc:Work>
  </rdf:RDF>
 </metadata>
 <defs>
  <style type="text/css">*{stroke-linecap:butt;stroke-linejoin:round;}</style>
 </defs>
 <g id="figure_1">
  <g id="patch_1">
   <path d="M 0 356.49875 
L 369.541875 356.49875 
L 369.541875 0 
L 0 0 
z
" style="fill:none;"/>
  </g>
  <g id="axes_1">
   <g id="patch_2">
    <path d="M 45.371875 151.45 
L 179.121875 151.45 
L 179.121875 7.2 
L 45.371875 7.2 
z
" style="fill:#ffffff;"/>
   </g>
   <g id="matplotlib.axis_1">
    <g id="xtick_1">
     <g id="line2d_1">
      <defs>
       <path d="M 0 0 
L 0 3.5 
" id="mf8c08389af" style="stroke:#000000;stroke-width:0.8;"/>
      </defs>
      <g>
       <use style="stroke:#000000;stroke-width:0.8;" x="45.371875" xlink:href="#mf8c08389af" y="151.45"/>
      </g>
     </g>
    </g>
    <g id="xtick_2">
     <g id="line2d_2">
      <g>
       <use style="stroke:#000000;stroke-width:0.8;" x="112.246875" xlink:href="#mf8c08389af" y="151.45"/>
      </g>
     </g>
    </g>
    <g id="xtick_3">
     <g id="line2d_3">
      <g>
       <use style="stroke:#000000;stroke-width:0.8;" x="179.121875" xlink:href="#mf8c08389af" y="151.45"/>
      </g>
     </g>
    </g>
   </g>
   <g id="matplotlib.axis_2">
    <g id="ytick_1">
     <g id="line2d_4">
      <defs>
       <path d="M 0 0 
L -3.5 0 
" id="m75d6bd20b1" style="stroke:#000000;stroke-width:0.8;"/>
      </defs>
      <g>
       <use style="stroke:#000000;stroke-width:0.8;" x="45.371875" xlink:href="#m75d6bd20b1" y="151.45"/>
      </g>
     </g>
     <g id="text_1">
      <!-- 0.00 -->
      <g transform="translate(7.2 156.768906)scale(0.14 -0.14)">
       <defs>
        <path d="M 2034 4250 
Q 1547 4250 1301 3770 
Q 1056 3291 1056 2328 
Q 1056 1369 1301 889 
Q 1547 409 2034 409 
Q 2525 409 2770 889 
Q 3016 1369 3016 2328 
Q 3016 3291 2770 3770 
Q 2525 4250 2034 4250 
z
M 2034 4750 
Q 2819 4750 3233 4129 
Q 3647 3509 3647 2328 
Q 3647 1150 3233 529 
Q 2819 -91 2034 -91 
Q 1250 -91 836 529 
Q 422 1150 422 2328 
Q 422 3509 836 4129 
Q 1250 4750 2034 4750 
z
" id="DejaVuSans-30" transform="scale(0.015625)"/>
        <path d="M 684 794 
L 1344 794 
L 1344 0 
L 684 0 
L 684 794 
z
" id="DejaVuSans-2e" transform="scale(0.015625)"/>
       </defs>
       <use xlink:href="#DejaVuSans-30"/>
       <use x="63.623047" xlink:href="#DejaVuSans-2e"/>
       <use x="95.410156" xlink:href="#DejaVuSans-30"/>
       <use x="159.033203" xlink:href="#DejaVuSans-30"/>
      </g>
     </g>
    </g>
    <g id="ytick_2">
     <g id="line2d_5">
      <g>
       <use style="stroke:#000000;stroke-width:0.8;" x="45.371875" xlink:href="#m75d6bd20b1" y="117.104762"/>
      </g>
     </g>
     <g id="text_2">
      <!-- 0.25 -->
      <g transform="translate(7.2 122.423668)scale(0.14 -0.14)">
       <defs>
        <path d="M 1228 531 
L 3431 531 
L 3431 0 
L 469 0 
L 469 531 
Q 828 903 1448 1529 
Q 2069 2156 2228 2338 
Q 2531 2678 2651 2914 
Q 2772 3150 2772 3378 
Q 2772 3750 2511 3984 
Q 2250 4219 1831 4219 
Q 1534 4219 1204 4116 
Q 875 4013 500 3803 
L 500 4441 
Q 881 4594 1212 4672 
Q 1544 4750 1819 4750 
Q 2544 4750 2975 4387 
Q 3406 4025 3406 3419 
Q 3406 3131 3298 2873 
Q 3191 2616 2906 2266 
Q 2828 2175 2409 1742 
Q 1991 1309 1228 531 
z
" id="DejaVuSans-32" transform="scale(0.015625)"/>
        <path d="M 691 4666 
L 3169 4666 
L 3169 4134 
L 1269 4134 
L 1269 2991 
Q 1406 3038 1543 3061 
Q 1681 3084 1819 3084 
Q 2600 3084 3056 2656 
Q 3513 2228 3513 1497 
Q 3513 744 3044 326 
Q 2575 -91 1722 -91 
Q 1428 -91 1123 -41 
Q 819 9 494 109 
L 494 744 
Q 775 591 1075 516 
Q 1375 441 1709 441 
Q 2250 441 2565 725 
Q 2881 1009 2881 1497 
Q 2881 1984 2565 2268 
Q 2250 2553 1709 2553 
Q 1456 2553 1204 2497 
Q 953 2441 691 2322 
L 691 4666 
z
" id="DejaVuSans-35" transform="scale(0.015625)"/>
       </defs>
       <use xlink:href="#DejaVuSans-30"/>
       <use x="63.623047" xlink:href="#DejaVuSans-2e"/>
       <use x="95.410156" xlink:href="#DejaVuSans-32"/>
       <use x="159.033203" xlink:href="#DejaVuSans-35"/>
      </g>
     </g>
    </g>
    <g id="ytick_3">
     <g id="line2d_6">
      <g>
       <use style="stroke:#000000;stroke-width:0.8;" x="45.371875" xlink:href="#m75d6bd20b1" y="82.759524"/>
      </g>
     </g>
     <g id="text_3">
      <!-- 0.50 -->
      <g transform="translate(7.2 88.07843)scale(0.14 -0.14)">
       <use xlink:href="#DejaVuSans-30"/>
       <use x="63.623047" xlink:href="#DejaVuSans-2e"/>
       <use x="95.410156" xlink:href="#DejaVuSans-35"/>
       <use x="159.033203" xlink:href="#DejaVuSans-30"/>
      </g>
     </g>
    </g>
    <g id="ytick_4">
     <g id="line2d_7">
      <g>
       <use style="stroke:#000000;stroke-width:0.8;" x="45.371875" xlink:href="#m75d6bd20b1" y="48.414286"/>
      </g>
     </g>
     <g id="text_4">
      <!-- 0.75 -->
      <g transform="translate(7.2 53.733192)scale(0.14 -0.14)">
       <defs>
        <path d="M 525 4666 
L 3525 4666 
L 3525 4397 
L 1831 0 
L 1172 0 
L 2766 4134 
L 525 4134 
L 525 4666 
z
" id="DejaVuSans-37" transform="scale(0.015625)"/>
       </defs>
       <use xlink:href="#DejaVuSans-30"/>
       <use x="63.623047" xlink:href="#DejaVuSans-2e"/>
       <use x="95.410156" xlink:href="#DejaVuSans-37"/>
       <use x="159.033203" xlink:href="#DejaVuSans-35"/>
      </g>
     </g>
    </g>
    <g id="ytick_5">
     <g id="line2d_8">
      <g>
       <use style="stroke:#000000;stroke-width:0.8;" x="45.371875" xlink:href="#m75d6bd20b1" y="14.069048"/>
      </g>
     </g>
     <g id="text_5">
      <!-- 1.00 -->
      <g transform="translate(7.2 19.387954)scale(0.14 -0.14)">
       <defs>
        <path d="M 794 531 
L 1825 531 
L 1825 4091 
L 703 3866 
L 703 4441 
L 1819 4666 
L 2450 4666 
L 2450 531 
L 3481 531 
L 3481 0 
L 794 0 
L 794 531 
z
" id="DejaVuSans-31" transform="scale(0.015625)"/>
       </defs>
       <use xlink:href="#DejaVuSans-31"/>
       <use x="63.623047" xlink:href="#DejaVuSans-2e"/>
       <use x="95.410156" xlink:href="#DejaVuSans-30"/>
       <use x="159.033203" xlink:href="#DejaVuSans-30"/>
      </g>
     </g>
    </g>
   </g>
   <g id="line2d_9">
    <path clip-path="url(#p392255ed6b)" d="M 43.202057 15.221195 
L 45.371875 14.069048 
L 47.541693 15.221195 
L 49.711512 18.619987 
L 51.88133 24.097248 
L 54.051148 31.388076 
L 56.220966 40.152065 
L 58.390785 49.9996 
L 60.560603 60.520402 
L 62.730421 71.311424 
L 64.900239 82.001508 
L 67.070058 92.270831 
L 69.239876 101.863923 
L 71.409694 110.595915 
L 73.579512 118.352433 
L 75.749331 125.084166 
L 77.919149 130.79754 
L 80.088967 135.54305 
L 82.258786 139.402779 
L 84.428604 142.478363 
L 86.598422 144.880363 
L 88.76824 146.719622 
L 90.938059 148.100845 
L 93.107877 149.118371 
L 95.277695 149.853869 
L 97.447513 150.375609 
L 99.617332 150.738883 
L 101.78715 150.987188 
L 103.956968 151.153822 
L 106.126787 151.263626 
L 108.296605 151.33468 
L 110.466423 151.379837 
L 112.636241 151.408025 
L 114.80606 151.425307 
L 116.975878 151.435717 
L 119.145696 151.441876 
L 121.315514 151.445456 
L 123.485333 151.447501 
L 125.655151 151.448649 
L 127.824969 151.449282 
L 129.994787 151.449624 
L 132.164606 151.449807 
L 134.334424 151.449902 
L 136.504242 151.449951 
L 138.674061 151.449976 
L 140.843879 151.449989 
L 143.013697 151.449995 
L 145.183515 151.449997 
L 147.353334 151.449999 
L 149.523152 151.449999 
L 151.69297 151.45 
L 153.862788 151.45 
L 156.032607 151.45 
L 158.202425 151.45 
L 160.372243 151.45 
L 162.542062 151.45 
L 164.71188 151.45 
L 166.881698 151.45 
L 169.051516 151.45 
L 171.221335 151.45 
L 173.391153 151.45 
L 175.560971 151.45 
L 177.730789 151.45 
L 179.900608 151.45 
" style="fill:none;stroke:#ff0000;stroke-dasharray:5.55,2.4;stroke-dashoffset:0;stroke-width:1.5;"/>
   </g>
   <g id="line2d_10">
    <path clip-path="url(#p392255ed6b)" d="M 43.202057 16.833013 
L 45.371875 14.080544 
L 47.541693 14.069048 
L 49.711512 16.799659 
L 51.88133 22.128089 
L 54.051148 29.775935 
L 56.220966 39.352329 
L 58.390785 50.383814 
L 60.560603 62.349557 
L 62.730421 74.718567 
L 64.900239 86.985544 
L 67.070058 98.702222 
L 69.239876 109.501737 
L 71.409694 119.114366 
L 73.579512 127.373955 
L 75.749331 134.215351 
L 77.919149 139.664014 
L 80.088967 143.819639 
L 82.258786 146.836081 
L 84.428604 148.899931 
L 86.598422 150.209978 
L 88.76824 150.959402 
L 90.938059 151.321963 
L 93.107877 151.442879 
L 95.277695 151.434411 
L 97.447513 151.375694 
L 99.617332 151.315919 
L 101.78715 151.279777 
L 103.956968 151.274007 
L 106.126787 151.294009 
L 108.296605 151.329682 
L 110.466423 151.369966 
L 112.636241 151.405834 
L 114.80606 151.431775 
L 116.975878 151.446016 
L 119.145696 151.449851 
L 121.315514 151.446485 
L 123.485333 151.439785 
L 125.655151 151.433218 
L 127.824969 151.429156 
L 129.994787 151.428609 
L 132.164606 151.431329 
L 134.334424 151.436184 
L 136.504242 151.441651 
L 138.674061 151.446291 
L 140.843879 151.449106 
L 143.013697 151.449712 
L 145.183515 151.448337 
L 147.353334 151.44566 
L 149.523152 151.442582 
L 151.69297 151.439969 
L 153.862788 151.438455 
L 156.032607 151.438325 
L 158.202425 151.439499 
L 160.372243 151.441611 
L 162.542062 151.444135 
L 164.71188 151.446535 
L 166.881698 151.448394 
L 169.051516 151.449488 
L 171.221335 151.449813 
L 173.391153 151.449543 
L 175.560971 151.448963 
L 177.730789 151.44837 
L 179.900608 151.448 
" style="fill:none;stroke:#ff0000;stroke-linecap:square;stroke-width:1.5;"/>
   </g>
   <g id="patch_3">
    <path d="M 45.371875 151.45 
L 45.371875 7.2 
" style="fill:none;stroke:#000000;stroke-linecap:square;stroke-linejoin:miter;stroke-width:0.8;"/>
   </g>
   <g id="patch_4">
    <path d="M 179.121875 151.45 
L 179.121875 7.2 
" style="fill:none;stroke:#000000;stroke-linecap:square;stroke-linejoin:miter;stroke-width:0.8;"/>
   </g>
   <g id="patch_5">
    <path d="M 45.371875 151.45 
L 179.121875 151.45 
" style="fill:none;stroke:#000000;stroke-linecap:square;stroke-linejoin:miter;stroke-width:0.8;"/>
   </g>
   <g id="patch_6">
    <path d="M 45.371875 7.2 
L 179.121875 7.2 
" style="fill:none;stroke:#000000;stroke-linecap:square;stroke-linejoin:miter;stroke-width:0.8;"/>
   </g>
  </g>
  <g id="axes_2">
   <g id="patch_7">
    <path d="M 219.684375 151.45 
L 353.434375 151.45 
L 353.434375 7.2 
L 219.684375 7.2 
z
" style="fill:#ffffff;"/>
   </g>
   <g id="matplotlib.axis_3">
    <g id="xtick_4">
     <g id="line2d_11">
      <g>
       <use style="stroke:#000000;stroke-width:0.8;" x="219.684375" xlink:href="#mf8c08389af" y="151.45"/>
      </g>
     </g>
    </g>
    <g id="xtick_5">
     <g id="line2d_12">
      <g>
       <use style="stroke:#000000;stroke-width:0.8;" x="286.559375" xlink:href="#mf8c08389af" y="151.45"/>
      </g>
     </g>
    </g>
    <g id="xtick_6">
     <g id="line2d_13">
      <g>
       <use style="stroke:#000000;stroke-width:0.8;" x="353.434375" xlink:href="#mf8c08389af" y="151.45"/>
      </g>
     </g>
    </g>
   </g>
   <g id="matplotlib.axis_4">
    <g id="ytick_6">
     <g id="line2d_14">
      <g>
       <use style="stroke:#000000;stroke-width:0.8;" x="219.684375" xlink:href="#m75d6bd20b1" y="151.45"/>
      </g>
     </g>
     <g id="text_6">
      <!-- 0.00 -->
      <g transform="translate(181.5125 156.768906)scale(0.14 -0.14)">
       <use xlink:href="#DejaVuSans-30"/>
       <use x="63.623047" xlink:href="#DejaVuSans-2e"/>
       <use x="95.410156" xlink:href="#DejaVuSans-30"/>
       <use x="159.033203" xlink:href="#DejaVuSans-30"/>
      </g>
     </g>
    </g>
    <g id="ytick_7">
     <g id="line2d_15">
      <g>
       <use style="stroke:#000000;stroke-width:0.8;" x="219.684375" xlink:href="#m75d6bd20b1" y="117.104762"/>
      </g>
     </g>
     <g id="text_7">
      <!-- 0.25 -->
      <g transform="translate(181.5125 122.423668)scale(0.14 -0.14)">
       <use xlink:href="#DejaVuSans-30"/>
       <use x="63.623047" xlink:href="#DejaVuSans-2e"/>
       <use x="95.410156" xlink:href="#DejaVuSans-32"/>
       <use x="159.033203" xlink:href="#DejaVuSans-35"/>
      </g>
     </g>
    </g>
    <g id="ytick_8">
     <g id="line2d_16">
      <g>
       <use style="stroke:#000000;stroke-width:0.8;" x="219.684375" xlink:href="#m75d6bd20b1" y="82.759524"/>
      </g>
     </g>
     <g id="text_8">
      <!-- 0.50 -->
      <g transform="translate(181.5125 88.07843)scale(0.14 -0.14)">
       <use xlink:href="#DejaVuSans-30"/>
       <use x="63.623047" xlink:href="#DejaVuSans-2e"/>
       <use x="95.410156" xlink:href="#DejaVuSans-35"/>
       <use x="159.033203" xlink:href="#DejaVuSans-30"/>
      </g>
     </g>
    </g>
    <g id="ytick_9">
     <g id="line2d_17">
      <g>
       <use style="stroke:#000000;stroke-width:0.8;" x="219.684375" xlink:href="#m75d6bd20b1" y="48.414286"/>
      </g>
     </g>
     <g id="text_9">
      <!-- 0.75 -->
      <g transform="translate(181.5125 53.733192)scale(0.14 -0.14)">
       <use xlink:href="#DejaVuSans-30"/>
       <use x="63.623047" xlink:href="#DejaVuSans-2e"/>
       <use x="95.410156" xlink:href="#DejaVuSans-37"/>
       <use x="159.033203" xlink:href="#DejaVuSans-35"/>
      </g>
     </g>
    </g>
    <g id="ytick_10">
     <g id="line2d_18">
      <g>
       <use style="stroke:#000000;stroke-width:0.8;" x="219.684375" xlink:href="#m75d6bd20b1" y="14.069048"/>
      </g>
     </g>
     <g id="text_10">
      <!-- 1.00 -->
      <g transform="translate(181.5125 19.387954)scale(0.14 -0.14)">
       <use xlink:href="#DejaVuSans-31"/>
       <use x="63.623047" xlink:href="#DejaVuSans-2e"/>
       <use x="95.410156" xlink:href="#DejaVuSans-30"/>
       <use x="159.033203" xlink:href="#DejaVuSans-30"/>
      </g>
     </g>
    </g>
   </g>
   <g id="line2d_19">
    <path clip-path="url(#pe9d7b98e16)" d="M 219.684375 14.080544 
L 222.450594 18.804443 
L 225.216814 32.069045 
L 227.983033 51.404647 
L 230.749252 73.437196 
L 233.515471 94.749316 
L 236.281691 112.675238 
L 239.04791 125.799858 
L 241.814129 134.045661 
L 244.580348 138.375993 
L 247.346568 140.264813 
L 250.112787 141.139802 
L 252.879006 141.982821 
L 255.645225 143.186303 
L 258.411445 144.655392 
L 261.177664 146.057879 
L 263.943883 147.088414 
L 266.710102 147.636554 
L 269.476322 147.811829 
L 272.242541 147.85037 
L 275.00876 147.975193 
L 277.774979 148.288915 
L 280.541199 148.746938 
L 283.307418 149.210953 
L 286.073637 149.542311 
L 288.839856 149.680689 
L 291.606076 149.668852 
L 294.372295 149.617719 
L 297.138514 149.638119 
L 299.904733 149.780201 
L 302.670953 150.012784 
L 305.437172 150.249879 
L 308.203391 150.405222 
L 310.96961 150.441968 
L 313.73583 150.390262 
L 316.502049 150.325387 
L 319.268268 150.321774 
L 322.034487 150.410588 
L 324.800707 150.564743 
L 327.566926 150.718225 
L 330.333145 150.806719 
L 333.099364 150.805119 
L 335.865584 150.740509 
L 338.631803 150.67427 
L 341.398022 150.664954 
L 344.164241 150.734212 
L 346.930461 150.855436 
L 349.69668 150.970978 
L 352.462899 151.027046 
L 355.229118 151.005418 
L 357.995338 150.933491 
L 360.761557 150.867265 
L 363.527776 150.857759 
L 366.293995 150.92089 
L 369.060215 151.028483 
L 370.541875 151.080425 
" style="fill:none;stroke:#ff0000;stroke-linecap:square;stroke-width:1.5;"/>
   </g>
   <g id="line2d_20">
    <path clip-path="url(#pe9d7b98e16)" d="M 219.684375 14.069048 
L 222.450594 19.704408 
L 225.216814 34.1405 
L 227.983033 52.255907 
L 230.749252 69.888899 
L 233.515471 85.061998 
L 236.281691 97.360549 
L 239.04791 107.075645 
L 241.814129 114.693265 
L 244.580348 120.679797 
L 247.346568 125.418341 
L 250.112787 129.204676 
L 252.879006 132.261477 
L 255.645225 134.755068 
L 258.411445 136.809798 
L 261.177664 138.519149 
L 263.943883 139.953964 
L 266.710102 141.168418 
L 269.476322 142.204336 
L 272.242541 143.094317 
L 275.00876 143.864011 
L 277.774979 144.533778 
L 280.541199 145.119924 
L 283.307418 145.635609 
L 286.073637 146.091542 
L 288.839856 146.496498 
L 291.606076 146.857716 
L 294.372295 147.181212 
L 297.138514 147.472009 
L 299.904733 147.734331 
L 302.670953 147.971747 
L 305.437172 148.187287 
L 308.203391 148.38354 
L 310.96961 148.562724 
L 313.73583 148.726749 
L 316.502049 148.877267 
L 319.268268 149.015714 
L 322.034487 149.14334 
L 324.800707 149.261237 
L 327.566926 149.370365 
L 330.333145 149.471568 
L 333.099364 149.565592 
L 335.865584 149.653098 
L 338.631803 149.734672 
L 341.398022 149.810835 
L 344.164241 149.882055 
L 346.930461 149.948749 
L 349.69668 150.011291 
L 352.462899 150.070016 
L 355.229118 150.12523 
L 357.995338 150.177205 
L 360.761557 150.226189 
L 363.527776 150.272406 
L 366.293995 150.316061 
L 369.060215 150.357339 
L 370.541875 150.378266 
" style="fill:none;stroke:#ff0000;stroke-dasharray:5.55,2.4;stroke-dashoffset:0;stroke-width:1.5;"/>
   </g>
   <g id="patch_8">
    <path d="M 219.684375 151.45 
L 219.684375 7.2 
" style="fill:none;stroke:#000000;stroke-linecap:square;stroke-linejoin:miter;stroke-width:0.8;"/>
   </g>
   <g id="patch_9">
    <path d="M 353.434375 151.45 
L 353.434375 7.2 
" style="fill:none;stroke:#000000;stroke-linecap:square;stroke-linejoin:miter;stroke-width:0.8;"/>
   </g>
   <g id="patch_10">
    <path d="M 219.684375 151.45 
L 353.434375 151.45 
" style="fill:none;stroke:#000000;stroke-linecap:square;stroke-linejoin:miter;stroke-width:0.8;"/>
   </g>
   <g id="patch_11">
    <path d="M 219.684375 7.2 
L 353.434375 7.2 
" style="fill:none;stroke:#000000;stroke-linecap:square;stroke-linejoin:miter;stroke-width:0.8;"/>
   </g>
  </g>
  <g id="axes_3">
   <g id="patch_12">
    <path d="M 45.371875 311.2 
L 179.121875 311.2 
L 179.121875 166.95 
L 45.371875 166.95 
z
" style="fill:#ffffff;"/>
   </g>
   <g id="matplotlib.axis_5">
    <g id="xtick_7">
     <g id="line2d_21">
      <g>
       <use style="stroke:#000000;stroke-width:0.8;" x="45.371875" xlink:href="#mf8c08389af" y="311.2"/>
      </g>
     </g>
     <g id="text_11">
      <!-- 0 -->
      <g transform="translate(40.918125 328.837812)scale(0.14 -0.14)">
       <use xlink:href="#DejaVuSans-30"/>
      </g>
     </g>
    </g>
    <g id="xtick_8">
     <g id="line2d_22">
      <g>
       <use style="stroke:#000000;stroke-width:0.8;" x="112.246875" xlink:href="#mf8c08389af" y="311.2"/>
      </g>
     </g>
     <g id="text_12">
      <!-- 2 -->
      <g transform="translate(107.793125 328.837812)scale(0.14 -0.14)">
       <use xlink:href="#DejaVuSans-32"/>
      </g>
     </g>
    </g>
    <g id="xtick_9">
     <g id="line2d_23">
      <g>
       <use style="stroke:#000000;stroke-width:0.8;" x="179.121875" xlink:href="#mf8c08389af" y="311.2"/>
      </g>
     </g>
     <g id="text_13">
      <!-- 4 -->
      <g transform="translate(174.668125 328.837812)scale(0.14 -0.14)">
       <defs>
        <path d="M 2419 4116 
L 825 1625 
L 2419 1625 
L 2419 4116 
z
M 2253 4666 
L 3047 4666 
L 3047 1625 
L 3713 1625 
L 3713 1100 
L 3047 1100 
L 3047 0 
L 2419 0 
L 2419 1100 
L 313 1100 
L 313 1709 
L 2253 4666 
z
" id="DejaVuSans-34" transform="scale(0.015625)"/>
       </defs>
       <use xlink:href="#DejaVuSans-34"/>
      </g>
     </g>
    </g>
    <g id="text_14">
     <!-- $\rho_2/w_0$ -->
     <g transform="translate(93.066875 346.35875)scale(0.14 -0.14)">
      <defs>
       <path d="M 1203 2875 
Q 1453 3194 1981 3475 
Q 2188 3584 2756 3584 
Q 3394 3584 3694 3078 
Q 3994 2572 3834 1747 
Q 3672 922 3175 415 
Q 2678 -91 2041 -91 
Q 1656 -91 1409 63 
Q 1163 213 1044 525 
L 681 -1331 
L 103 -1331 
L 697 1716 
Q 838 2438 1203 2875 
z
M 3238 1747 
Q 3359 2381 3169 2744 
Q 2978 3103 2522 3103 
Q 2066 3103 1734 2744 
Q 1403 2381 1281 1747 
Q 1156 1113 1347 750 
Q 1538 391 1994 391 
Q 2450 391 2781 750 
Q 3113 1113 3238 1747 
z
" id="DejaVuSans-Oblique-3c1" transform="scale(0.015625)"/>
       <path d="M 1625 4666 
L 2156 4666 
L 531 -594 
L 0 -594 
L 1625 4666 
z
" id="DejaVuSans-2f" transform="scale(0.015625)"/>
       <path d="M 544 3500 
L 1113 3500 
L 1259 684 
L 2566 3500 
L 3231 3500 
L 3425 684 
L 4666 3500 
L 5241 3500 
L 3641 0 
L 2969 0 
L 2797 2900 
L 1459 0 
L 781 0 
L 544 3500 
z
" id="DejaVuSans-Oblique-77" transform="scale(0.015625)"/>
      </defs>
      <use transform="translate(0 0.09375)" xlink:href="#DejaVuSans-Oblique-3c1"/>
      <use transform="translate(63.476562 -16.3125)scale(0.7)" xlink:href="#DejaVuSans-32"/>
      <use transform="translate(110.74707 0.09375)" xlink:href="#DejaVuSans-2f"/>
      <use transform="translate(144.438477 0.09375)" xlink:href="#DejaVuSans-Oblique-77"/>
      <use transform="translate(226.225586 -16.3125)scale(0.7)" xlink:href="#DejaVuSans-30"/>
     </g>
    </g>
   </g>
   <g id="matplotlib.axis_6">
    <g id="ytick_11">
     <g id="line2d_24">
      <g>
       <use style="stroke:#000000;stroke-width:0.8;" x="45.371875" xlink:href="#m75d6bd20b1" y="311.2"/>
      </g>
     </g>
     <g id="text_15">
      <!-- 0.0 -->
      <g transform="translate(16.1075 316.518906)scale(0.14 -0.14)">
       <use xlink:href="#DejaVuSans-30"/>
       <use x="63.623047" xlink:href="#DejaVuSans-2e"/>
       <use x="95.410156" xlink:href="#DejaVuSans-30"/>
      </g>
     </g>
    </g>
    <g id="ytick_12">
     <g id="line2d_25">
      <g>
       <use style="stroke:#000000;stroke-width:0.8;" x="45.371875" xlink:href="#m75d6bd20b1" y="259.682143"/>
      </g>
     </g>
     <g id="text_16">
      <!-- 0.5 -->
      <g transform="translate(16.1075 265.001049)scale(0.14 -0.14)">
       <use xlink:href="#DejaVuSans-30"/>
       <use x="63.623047" xlink:href="#DejaVuSans-2e"/>
       <use x="95.410156" xlink:href="#DejaVuSans-35"/>
      </g>
     </g>
    </g>
    <g id="ytick_13">
     <g id="line2d_26">
      <g>
       <use style="stroke:#000000;stroke-width:0.8;" x="45.371875" xlink:href="#m75d6bd20b1" y="208.164286"/>
      </g>
     </g>
     <g id="text_17">
      <!-- 1.0 -->
      <g transform="translate(16.1075 213.483192)scale(0.14 -0.14)">
       <use xlink:href="#DejaVuSans-31"/>
       <use x="63.623047" xlink:href="#DejaVuSans-2e"/>
       <use x="95.410156" xlink:href="#DejaVuSans-30"/>
      </g>
     </g>
    </g>
   </g>
   <g id="line2d_27">
    <path clip-path="url(#pe73fdc2530)" d="M 43.202057 311.198175 
L 45.371875 311.199994 
L 47.541693 311.198175 
L 49.711512 311.171249 
L 51.88133 311.057491 
L 54.051148 310.762584 
L 56.220966 310.171251 
L 58.390785 309.161329 
L 60.560603 307.618472 
L 62.730421 305.449697 
L 64.900239 302.59421 
L 67.070058 299.03043 
L 69.239876 294.778647 
L 71.409694 289.899384 
L 73.579512 284.488006 
L 75.749331 278.666528 
L 77.919149 272.573771 
L 80.088967 266.355055 
L 82.258786 260.152491 
L 84.428604 254.096714 
L 86.598422 248.300589 
L 88.76824 242.855146 
L 90.938059 237.827687 
L 93.107877 233.261853 
L 95.277695 229.179245 
L 97.447513 225.582158 
L 99.617332 222.456986 
L 101.78715 219.777885 
L 103.956968 217.510371 
L 106.126787 215.614609 
L 108.296605 214.048242 
L 110.466423 212.768686 
L 112.636241 211.734874 
L 114.80606 210.908497 
L 116.975878 210.254773 
L 119.145696 209.742861 
L 121.315514 209.34597 
L 123.485333 209.041248 
L 125.655151 208.809531 
L 127.824969 208.634992 
L 129.994787 208.50475 
L 132.164606 208.408459 
L 134.334424 208.337922 
L 136.504242 208.286721 
L 138.674061 208.24989 
L 140.843879 208.223636 
L 143.013697 208.205087 
L 145.183515 208.1921 
L 147.353334 208.183088 
L 149.523152 208.176889 
L 151.69297 208.172663 
L 153.862788 208.169807 
L 156.032607 208.167894 
L 158.202425 208.166624 
L 160.372243 208.165789 
L 162.542062 208.165244 
L 164.71188 208.164891 
L 166.881698 208.164665 
L 169.051516 208.164521 
L 171.221335 208.164431 
L 173.391153 208.164374 
L 175.560971 208.164339 
L 177.730789 208.164318 
L 179.900608 208.164305 
" style="fill:none;stroke:#0000ff;stroke-dasharray:5.55,2.4;stroke-dashoffset:0;stroke-width:1.5;"/>
   </g>
   <g id="line2d_28">
    <path clip-path="url(#pe73fdc2530)" d="M 43.202057 311.171357 
L 45.371875 311.195438 
L 47.541693 311.195438 
L 49.711512 311.171357 
L 51.88133 311.06293 
L 54.051148 310.756771 
L 56.220966 310.099849 
L 58.390785 308.917737 
L 60.560603 307.035589 
L 62.730421 304.299471 
L 64.900239 300.59572 
L 67.070058 295.866246 
L 69.239876 290.118229 
L 71.409694 283.427314 
L 73.579512 275.934154 
L 75.749331 267.834892 
L 77.919149 259.366773 
L 80.088967 250.790534 
L 82.258786 242.371451 
L 84.428604 234.360925 
L 86.598422 226.980277 
L 88.76824 220.408064 
L 90.938059 214.771737 
L 93.107877 210.143939 
L 95.277695 206.543261 
L 97.447513 203.938849 
L 99.617332 202.257977 
L 101.78715 201.395527 
L 103.956968 201.224319 
L 106.126787 201.605329 
L 108.296605 202.397009 
L 110.466423 203.463175 
L 112.636241 204.67916 
L 114.80606 205.936156 
L 116.975878 207.143856 
L 119.145696 208.231602 
L 121.315514 209.14835 
L 123.485333 209.86171 
L 125.655151 210.356362 
L 127.824969 210.632035 
L 129.994787 210.70122 
L 132.164606 210.586731 
L 134.334424 210.319184 
L 136.504242 209.934454 
L 138.674061 209.471173 
L 140.843879 208.968336 
L 143.013697 208.463085 
L 145.183515 207.988765 
L 147.353334 207.573333 
L 149.523152 207.238191 
L 151.69297 206.997496 
L 153.862788 206.857958 
L 156.032607 206.819123 
L 158.202425 206.874072 
L 160.372243 207.010472 
L 162.542062 207.211873 
L 164.71188 207.459141 
L 166.881698 207.731926 
L 169.051516 208.010056 
L 171.221335 208.274791 
L 173.391153 208.509858 
L 175.560971 208.702249 
L 177.730789 208.842738 
L 179.900608 208.92614 
" style="fill:none;stroke:#0000ff;stroke-linecap:square;stroke-width:1.5;"/>
   </g>
   <g id="line2d_29">
    <path clip-path="url(#pe73fdc2530)" d="M 43.202057 310.773561 
L 45.371875 310.840505 
L 47.541693 310.840506 
L 49.711512 310.773564 
L 51.88133 310.623507 
L 54.051148 310.358985 
L 56.220966 309.935397 
L 58.390785 309.297647 
L 60.560603 308.383576 
L 62.730421 307.127866 
L 64.900239 305.46622 
L 67.070058 303.339563 
L 69.239876 300.698044 
L 71.409694 297.504627 
L 73.579512 293.738067 
L 75.749331 289.395117 
L 77.919149 284.491859 
L 80.088967 279.064089 
L 82.258786 273.166748 
L 84.428604 266.872432 
L 86.598422 260.269087 
L 88.76824 253.456992 
L 90.938059 246.545208 
L 93.107877 239.647684 
L 95.277695 232.879192 
L 97.447513 226.351315 
L 99.617332 220.168658 
L 101.78715 214.425456 
L 103.956968 209.202711 
L 106.126787 204.565973 
L 108.296605 200.56382 
L 110.466423 197.227072 
L 112.636241 194.568722 
L 114.80606 192.584543 
L 116.975878 191.254292 
L 119.145696 190.54341 
L 121.315514 190.405105 
L 123.485333 190.78269 
L 125.655151 191.612061 
L 127.824969 192.824176 
L 129.994787 194.347453 
L 132.164606 196.109983 
L 134.334424 198.04149 
L 136.504242 200.074993 
L 138.674061 202.148153 
L 140.843879 204.204282 
L 143.013697 206.193046 
L 145.183515 208.070874 
L 147.353334 209.80113 
L 149.523152 211.354066 
L 151.69297 212.706634 
L 153.862788 213.84217 
L 156.032607 214.750019 
L 158.202425 215.425114 
L 160.372243 215.867539 
L 162.542062 216.082099 
L 164.71188 216.077897 
L 166.881698 215.867919 
L 169.051516 215.468625 
L 171.221335 214.899531 
L 173.391153 214.182784 
L 175.560971 213.342697 
L 177.730789 212.40527 
L 179.900608 211.397652 
" style="fill:none;stroke:#17becf;stroke-linecap:square;stroke-width:1.5;"/>
   </g>
   <g id="patch_13">
    <path d="M 45.371875 311.2 
L 45.371875 166.95 
" style="fill:none;stroke:#000000;stroke-linecap:square;stroke-linejoin:miter;stroke-width:0.8;"/>
   </g>
   <g id="patch_14">
    <path d="M 179.121875 311.2 
L 179.121875 166.95 
" style="fill:none;stroke:#000000;stroke-linecap:square;stroke-linejoin:miter;stroke-width:0.8;"/>
   </g>
   <g id="patch_15">
    <path d="M 45.371875 311.2 
L 179.121875 311.2 
" style="fill:none;stroke:#000000;stroke-linecap:square;stroke-linejoin:miter;stroke-width:0.8;"/>
   </g>
   <g id="patch_16">
    <path d="M 45.371875 166.95 
L 179.121875 166.95 
" style="fill:none;stroke:#000000;stroke-linecap:square;stroke-linejoin:miter;stroke-width:0.8;"/>
   </g>
  </g>
  <g id="axes_4">
   <g id="patch_17">
    <path d="M 219.684375 311.2 
L 353.434375 311.2 
L 353.434375 166.95 
L 219.684375 166.95 
z
" style="fill:#ffffff;"/>
   </g>
   <g id="matplotlib.axis_7">
    <g id="xtick_10">
     <g id="line2d_30">
      <g>
       <use style="stroke:#000000;stroke-width:0.8;" x="219.684375" xlink:href="#mf8c08389af" y="311.2"/>
      </g>
     </g>
     <g id="text_18">
      <!-- 0 -->
      <g transform="translate(215.230625 328.837812)scale(0.14 -0.14)">
       <use xlink:href="#DejaVuSans-30"/>
      </g>
     </g>
    </g>
    <g id="xtick_11">
     <g id="line2d_31">
      <g>
       <use style="stroke:#000000;stroke-width:0.8;" x="286.559375" xlink:href="#mf8c08389af" y="311.2"/>
      </g>
     </g>
     <g id="text_19">
      <!-- 5 -->
      <g transform="translate(282.105625 328.837812)scale(0.14 -0.14)">
       <use xlink:href="#DejaVuSans-35"/>
      </g>
     </g>
    </g>
    <g id="xtick_12">
     <g id="line2d_32">
      <g>
       <use style="stroke:#000000;stroke-width:0.8;" x="353.434375" xlink:href="#mf8c08389af" y="311.2"/>
      </g>
     </g>
     <g id="text_20">
      <!-- 10 -->
      <g transform="translate(344.526875 328.837812)scale(0.14 -0.14)">
       <use xlink:href="#DejaVuSans-31"/>
       <use x="63.623047" xlink:href="#DejaVuSans-30"/>
      </g>
     </g>
    </g>
    <g id="text_21">
     <!-- $z_2/z_R$ -->
     <g transform="translate(269.899375 346.387187)scale(0.14 -0.14)">
      <defs>
       <path d="M 744 3500 
L 3475 3500 
L 3372 2975 
L 738 459 
L 2913 459 
L 2822 0 
L -19 0 
L 84 525 
L 2719 3041 
L 653 3041 
L 744 3500 
z
" id="DejaVuSans-Oblique-7a" transform="scale(0.015625)"/>
       <path d="M 1613 4147 
L 1294 2491 
L 2106 2491 
Q 2584 2491 2879 2755 
Q 3175 3019 3175 3444 
Q 3175 3784 2976 3965 
Q 2778 4147 2406 4147 
L 1613 4147 
z
M 2772 2241 
Q 2972 2194 3105 2009 
Q 3238 1825 3413 1275 
L 3809 0 
L 3144 0 
L 2778 1197 
Q 2638 1659 2453 1815 
Q 2269 1972 1888 1972 
L 1191 1972 
L 806 0 
L 172 0 
L 1081 4666 
L 2503 4666 
Q 3150 4666 3495 4373 
Q 3841 4081 3841 3531 
Q 3841 3044 3547 2687 
Q 3253 2331 2772 2241 
z
" id="DejaVuSans-Oblique-52" transform="scale(0.015625)"/>
      </defs>
      <use transform="translate(0 0.09375)" xlink:href="#DejaVuSans-Oblique-7a"/>
      <use transform="translate(52.490234 -16.3125)scale(0.7)" xlink:href="#DejaVuSans-32"/>
      <use transform="translate(99.760742 0.09375)" xlink:href="#DejaVuSans-2f"/>
      <use transform="translate(133.452148 0.09375)" xlink:href="#DejaVuSans-Oblique-7a"/>
      <use transform="translate(185.942383 -16.3125)scale(0.7)" xlink:href="#DejaVuSans-Oblique-52"/>
     </g>
    </g>
   </g>
   <g id="matplotlib.axis_8">
    <g id="ytick_14">
     <g id="line2d_33">
      <g>
       <use style="stroke:#000000;stroke-width:0.8;" x="219.684375" xlink:href="#m75d6bd20b1" y="311.2"/>
      </g>
     </g>
     <g id="text_22">
      <!-- 0.0 -->
      <g transform="translate(190.42 316.518906)scale(0.14 -0.14)">
       <use xlink:href="#DejaVuSans-30"/>
       <use x="63.623047" xlink:href="#DejaVuSans-2e"/>
       <use x="95.410156" xlink:href="#DejaVuSans-30"/>
      </g>
     </g>
    </g>
    <g id="ytick_15">
     <g id="line2d_34">
      <g>
       <use style="stroke:#000000;stroke-width:0.8;" x="219.684375" xlink:href="#m75d6bd20b1" y="259.682143"/>
      </g>
     </g>
     <g id="text_23">
      <!-- 0.5 -->
      <g transform="translate(190.42 265.001049)scale(0.14 -0.14)">
       <use xlink:href="#DejaVuSans-30"/>
       <use x="63.623047" xlink:href="#DejaVuSans-2e"/>
       <use x="95.410156" xlink:href="#DejaVuSans-35"/>
      </g>
     </g>
    </g>
    <g id="ytick_16">
     <g id="line2d_35">
      <g>
       <use style="stroke:#000000;stroke-width:0.8;" x="219.684375" xlink:href="#m75d6bd20b1" y="208.164286"/>
      </g>
     </g>
     <g id="text_24">
      <!-- 1.0 -->
      <g transform="translate(190.42 213.483192)scale(0.14 -0.14)">
       <use xlink:href="#DejaVuSans-31"/>
       <use x="63.623047" xlink:href="#DejaVuSans-2e"/>
       <use x="95.410156" xlink:href="#DejaVuSans-30"/>
      </g>
     </g>
    </g>
   </g>
   <g id="line2d_36">
    <path clip-path="url(#pfa29f26087)" d="M 219.684375 311.195438 
L 222.450594 304.997608 
L 225.216814 288.162071 
L 227.983033 265.308028 
L 230.749252 242.234939 
L 233.515471 223.916114 
L 236.281691 212.977811 
L 239.04791 209.222476 
L 241.814129 210.273372 
L 244.580348 212.937952 
L 247.346568 214.62704 
L 250.112787 214.227459 
L 252.879006 212.150233 
L 255.645225 209.687681 
L 258.411445 208.108137 
L 261.177664 207.969562 
L 263.943883 208.947182 
L 266.710102 210.166615 
L 269.476322 210.77884 
L 272.242541 210.429503 
L 275.00876 209.383475 
L 277.774979 208.28542 
L 280.541199 207.738336 
L 283.307418 207.959186 
L 286.073637 208.696477 
L 288.839856 209.426543 
L 291.606076 209.686188 
L 294.372295 209.336859 
L 297.138514 208.614963 
L 299.904733 207.95927 
L 302.670953 207.735377 
L 305.437172 208.026144 
L 308.203391 208.604743 
L 310.96961 209.091627 
L 313.73583 209.189672 
L 316.502049 208.854008 
L 319.268268 208.301487 
L 322.034487 207.865089 
L 324.800707 207.789125 
L 327.566926 208.089602 
L 330.333145 208.558104 
L 333.099364 208.898349 
L 335.865584 208.907086 
L 338.631803 208.589873 
L 341.398022 208.14678 
L 344.164241 207.843352 
L 346.930461 207.849233 
L 349.69668 208.141741 
L 352.462899 208.528443 
L 355.229118 208.769654 
L 357.995338 208.723433 
L 360.761557 208.425918 
L 363.527776 208.062083 
L 366.293995 207.849083 
L 369.060215 207.9053 
L 370.541875 208.054384 
" style="fill:none;stroke:#0000ff;stroke-linecap:square;stroke-width:1.5;"/>
   </g>
   <g id="line2d_37">
    <path clip-path="url(#pfa29f26087)" d="M 222.450594 306.97348 
L 225.216814 296.146411 
L 227.983033 282.559856 
L 230.749252 269.335111 
L 233.515471 257.955287 
L 236.281691 248.731374 
L 239.04791 241.445052 
L 241.814129 235.731837 
L 244.580348 231.241938 
L 247.346568 227.68803 
L 250.112787 224.848279 
L 252.879006 222.555678 
L 255.645225 220.685484 
L 258.411445 219.144438 
L 261.177664 217.862424 
L 263.943883 216.786313 
L 266.710102 215.875472 
L 269.476322 215.098534 
L 272.242541 214.431048 
L 275.00876 213.853778 
L 277.774979 213.351452 
L 280.541199 212.911843 
L 283.307418 212.525079 
L 286.073637 212.183129 
L 288.839856 211.879413 
L 291.606076 211.608498 
L 294.372295 211.365877 
L 297.138514 211.147779 
L 299.904733 210.951037 
L 302.670953 210.772976 
L 305.437172 210.61132 
L 308.203391 210.464131 
L 310.96961 210.329743 
L 313.73583 210.206724 
L 316.502049 210.093835 
L 319.268268 209.99 
L 322.034487 209.894281 
L 324.800707 209.805858 
L 327.566926 209.724012 
L 330.333145 209.64811 
L 333.099364 209.577592 
L 335.865584 209.511962 
L 338.631803 209.450782 
L 341.398022 209.393659 
L 344.164241 209.340244 
L 346.930461 209.290224 
L 349.69668 209.243318 
L 352.462899 209.199273 
L 355.229118 209.157863 
L 357.995338 209.118882 
L 360.761557 209.082144 
L 363.527776 209.047481 
L 366.293995 209.01474 
L 369.060215 208.983781 
L 370.541875 208.968086 
" style="fill:none;stroke:#0000ff;stroke-dasharray:5.55,2.4;stroke-dashoffset:0;stroke-width:1.5;"/>
   </g>
   <g id="line2d_38">
    <path clip-path="url(#pfa29f26087)" d="M 219.684375 310.840505 
L 222.450594 308.961148 
L 225.216814 303.443132 
L 227.983033 294.622268 
L 230.749252 283.031333 
L 233.515471 269.362279 
L 236.281691 254.417479 
L 239.04791 239.053743 
L 241.814129 224.123351 
L 244.580348 210.416558 
L 247.346568 198.609831 
L 250.112787 189.223599 
L 252.879006 182.592483 
L 255.645225 178.849967 
L 258.411445 177.928283 
L 261.177664 179.573119 
L 263.943883 183.371577 
L 266.710102 188.790818 
L 269.476322 195.22407 
L 272.242541 202.040154 
L 275.00876 208.632566 
L 277.774979 214.464262 
L 280.541199 219.104779 
L 283.307418 222.257076 
L 286.073637 223.77236 
L 288.839856 223.652229 
L 291.606076 222.03851 
L 294.372295 219.192185 
L 297.138514 215.463616 
L 299.904733 211.25695 
L 302.670953 206.99194 
L 305.437172 203.066505 
L 308.203391 199.823181 
L 310.96961 197.522122 
L 313.73583 196.322674 
L 316.502049 196.274721 
L 319.268268 197.320096 
L 322.034487 199.303491 
L 324.800707 201.991472 
L 327.566926 205.097567 
L 330.333145 208.310941 
L 333.099364 211.325946 
L 335.865584 213.869869 
L 338.631803 215.726462 
L 341.398022 216.753321 
L 344.164241 216.891776 
L 346.930461 216.168709 
L 349.69668 214.69045 
L 352.462899 212.629616 
L 355.229118 210.206356 
L 357.995338 207.665948 
L 360.761557 205.254924 
L 363.527776 203.197979 
L 366.293995 201.677766 
L 369.060215 200.819343 
L 370.541875 200.744996 
" style="fill:none;stroke:#17becf;stroke-linecap:square;stroke-width:1.5;"/>
   </g>
   <g id="patch_18">
    <path d="M 219.684375 311.2 
L 219.684375 166.95 
" style="fill:none;stroke:#000000;stroke-linecap:square;stroke-linejoin:miter;stroke-width:0.8;"/>
   </g>
   <g id="patch_19">
    <path d="M 353.434375 311.2 
L 353.434375 166.95 
" style="fill:none;stroke:#000000;stroke-linecap:square;stroke-linejoin:miter;stroke-width:0.8;"/>
   </g>
   <g id="patch_20">
    <path d="M 219.684375 311.2 
L 353.434375 311.2 
" style="fill:none;stroke:#000000;stroke-linecap:square;stroke-linejoin:miter;stroke-width:0.8;"/>
   </g>
   <g id="patch_21">
    <path d="M 219.684375 166.95 
L 353.434375 166.95 
" style="fill:none;stroke:#000000;stroke-linecap:square;stroke-linejoin:miter;stroke-width:0.8;"/>
   </g>
  </g>
 </g>
 <defs>
  <clipPath id="p392255ed6b">
   <rect height="144.25" width="133.75" x="45.371875" y="7.2"/>
  </clipPath>
  <clipPath id="pe9d7b98e16">
   <rect height="144.25" width="133.75" x="219.684375" y="7.2"/>
  </clipPath>
  <clipPath id="pe73fdc2530">
   <rect height="144.25" width="133.75" x="45.371875" y="166.95"/>
  </clipPath>
  <clipPath id="pfa29f26087">
   <rect height="144.25" width="133.75" x="219.684375" y="166.95"/>
  </clipPath>
 </defs>
</svg>
