<?xml version="1.0" encoding="utf-8" standalone="no"?>
<!DOCTYPE svg PUBLIC "-//W3C//DTD SVG 1.1//EN"
  "http://www.w3.org/Graphics/SVG/1.1/DTD/svg11.dtd">
<svg height="269.348281pt" version="1.1" viewBox="0 0 425.41625 269.348281" width="425.41625pt" xmlns="http://www.w3.org/2000/svg" xmlns:xlink="http://www.w3.org/1999/xlink">
 <metadata>
  <rdf:RDF xmlns:cc="http://creativecommons.org/ns#" xmlns:dc="http://purl.org/dc/elements/1.1/" xmlns:rdf="http://www.w3.org/1999/02/22-rdf-syntax-ns#">
   <cc:Work>
    <dc:type rdf:resource="http://purl.org/dc/dcmitype/StillImage"/>
    <dc:date>2022-03-10T11:18:11.040853</dc:date>
    <dc:format>image/svg+xml</dc:format>
    <dc:creator>
     <cc:Agent>
      <dc:title>Matplotlib v3.4.3, https://matplotlib.org/</dc:title>
     </cc:Agent>
    </dc:creator>
   </cc:Work>
  </rdf:RDF>
 </metadata>
 <defs>
  <style type="text/css">*{stroke-linecap:butt;stroke-linejoin:round;}</style>
 </defs>
 <g id="figure_1">
  <g id="patch_1">
   <path d="M 0 269.348281 
L 425.41625 269.348281 
L 425.41625 0 
L 0 0 
z
" style="fill:none;"/>
  </g>
  <g id="axes_1">
   <g id="patch_2">
    <path d="M 61.45 224.018906 
L 226.2 224.018906 
L 226.2 12.518906 
L 61.45 12.518906 
z
" style="fill:#ffffff;"/>
   </g>
   <g id="matplotlib.axis_1">
    <g id="xtick_1">
     <g id="line2d_1">
      <defs>
       <path d="M 0 0 
L 0 3.5 
" id="m13f81ab90a" style="stroke:#000000;stroke-width:0.8;"/>
      </defs>
      <g>
       <use style="stroke:#000000;stroke-width:0.8;" x="61.45" xlink:href="#m13f81ab90a" y="224.018906"/>
      </g>
     </g>
     <g id="text_1">
      <!-- 0 -->
      <g transform="translate(56.99625 241.656719)scale(0.14 -0.14)">
       <defs>
        <path d="M 2034 4250 
Q 1547 4250 1301 3770 
Q 1056 3291 1056 2328 
Q 1056 1369 1301 889 
Q 1547 409 2034 409 
Q 2525 409 2770 889 
Q 3016 1369 3016 2328 
Q 3016 3291 2770 3770 
Q 2525 4250 2034 4250 
z
M 2034 4750 
Q 2819 4750 3233 4129 
Q 3647 3509 3647 2328 
Q 3647 1150 3233 529 
Q 2819 -91 2034 -91 
Q 1250 -91 836 529 
Q 422 1150 422 2328 
Q 422 3509 836 4129 
Q 1250 4750 2034 4750 
z
" id="DejaVuSans-30" transform="scale(0.015625)"/>
       </defs>
       <use xlink:href="#DejaVuSans-30"/>
      </g>
     </g>
    </g>
    <g id="xtick_2">
     <g id="line2d_2">
      <g>
       <use style="stroke:#000000;stroke-width:0.8;" x="116.366667" xlink:href="#m13f81ab90a" y="224.018906"/>
      </g>
     </g>
     <g id="text_2">
      <!-- 2 -->
      <g transform="translate(111.912917 241.656719)scale(0.14 -0.14)">
       <defs>
        <path d="M 1228 531 
L 3431 531 
L 3431 0 
L 469 0 
L 469 531 
Q 828 903 1448 1529 
Q 2069 2156 2228 2338 
Q 2531 2678 2651 2914 
Q 2772 3150 2772 3378 
Q 2772 3750 2511 3984 
Q 2250 4219 1831 4219 
Q 1534 4219 1204 4116 
Q 875 4013 500 3803 
L 500 4441 
Q 881 4594 1212 4672 
Q 1544 4750 1819 4750 
Q 2544 4750 2975 4387 
Q 3406 4025 3406 3419 
Q 3406 3131 3298 2873 
Q 3191 2616 2906 2266 
Q 2828 2175 2409 1742 
Q 1991 1309 1228 531 
z
" id="DejaVuSans-32" transform="scale(0.015625)"/>
       </defs>
       <use xlink:href="#DejaVuSans-32"/>
      </g>
     </g>
    </g>
    <g id="xtick_3">
     <g id="line2d_3">
      <g>
       <use style="stroke:#000000;stroke-width:0.8;" x="171.283333" xlink:href="#m13f81ab90a" y="224.018906"/>
      </g>
     </g>
     <g id="text_3">
      <!-- 4 -->
      <g transform="translate(166.829583 241.656719)scale(0.14 -0.14)">
       <defs>
        <path d="M 2419 4116 
L 825 1625 
L 2419 1625 
L 2419 4116 
z
M 2253 4666 
L 3047 4666 
L 3047 1625 
L 3713 1625 
L 3713 1100 
L 3047 1100 
L 3047 0 
L 2419 0 
L 2419 1100 
L 313 1100 
L 313 1709 
L 2253 4666 
z
" id="DejaVuSans-34" transform="scale(0.015625)"/>
       </defs>
       <use xlink:href="#DejaVuSans-34"/>
      </g>
     </g>
    </g>
    <g id="xtick_4">
     <g id="line2d_4">
      <g>
       <use style="stroke:#000000;stroke-width:0.8;" x="226.2" xlink:href="#m13f81ab90a" y="224.018906"/>
      </g>
     </g>
     <g id="text_4">
      <!-- 6 -->
      <g transform="translate(221.74625 241.656719)scale(0.14 -0.14)">
       <defs>
        <path d="M 2113 2584 
Q 1688 2584 1439 2293 
Q 1191 2003 1191 1497 
Q 1191 994 1439 701 
Q 1688 409 2113 409 
Q 2538 409 2786 701 
Q 3034 994 3034 1497 
Q 3034 2003 2786 2293 
Q 2538 2584 2113 2584 
z
M 3366 4563 
L 3366 3988 
Q 3128 4100 2886 4159 
Q 2644 4219 2406 4219 
Q 1781 4219 1451 3797 
Q 1122 3375 1075 2522 
Q 1259 2794 1537 2939 
Q 1816 3084 2150 3084 
Q 2853 3084 3261 2657 
Q 3669 2231 3669 1497 
Q 3669 778 3244 343 
Q 2819 -91 2113 -91 
Q 1303 -91 875 529 
Q 447 1150 447 2328 
Q 447 3434 972 4092 
Q 1497 4750 2381 4750 
Q 2619 4750 2861 4703 
Q 3103 4656 3366 4563 
z
" id="DejaVuSans-36" transform="scale(0.015625)"/>
       </defs>
       <use xlink:href="#DejaVuSans-36"/>
      </g>
     </g>
    </g>
    <g id="text_5">
     <!-- z [$\mathrm{\mu m}$] -->
     <g transform="translate(121.145 259.208281)scale(0.14 -0.14)">
      <defs>
       <path d="M 353 3500 
L 3084 3500 
L 3084 2975 
L 922 459 
L 3084 459 
L 3084 0 
L 275 0 
L 275 525 
L 2438 3041 
L 353 3041 
L 353 3500 
z
" id="DejaVuSans-7a" transform="scale(0.015625)"/>
       <path id="DejaVuSans-20" transform="scale(0.015625)"/>
       <path d="M 550 4863 
L 1875 4863 
L 1875 4416 
L 1125 4416 
L 1125 -397 
L 1875 -397 
L 1875 -844 
L 550 -844 
L 550 4863 
z
" id="DejaVuSans-5b" transform="scale(0.015625)"/>
       <path d="M 544 -1331 
L 544 3500 
L 1119 3500 
L 1119 1325 
Q 1119 872 1334 640 
Q 1550 409 1972 409 
Q 2434 409 2667 671 
Q 2900 934 2900 1459 
L 2900 3500 
L 3475 3500 
L 3475 806 
Q 3475 619 3529 530 
Q 3584 441 3700 441 
Q 3728 441 3778 458 
Q 3828 475 3916 513 
L 3916 50 
Q 3788 -22 3673 -56 
Q 3559 -91 3450 -91 
Q 3234 -91 3106 31 
Q 2978 153 2931 403 
Q 2775 156 2548 32 
Q 2322 -91 2016 -91 
Q 1697 -91 1473 31 
Q 1250 153 1119 397 
L 1119 -1331 
L 544 -1331 
z
" id="DejaVuSans-3bc" transform="scale(0.015625)"/>
       <path d="M 3328 2828 
Q 3544 3216 3844 3400 
Q 4144 3584 4550 3584 
Q 5097 3584 5394 3201 
Q 5691 2819 5691 2113 
L 5691 0 
L 5113 0 
L 5113 2094 
Q 5113 2597 4934 2840 
Q 4756 3084 4391 3084 
Q 3944 3084 3684 2787 
Q 3425 2491 3425 1978 
L 3425 0 
L 2847 0 
L 2847 2094 
Q 2847 2600 2669 2842 
Q 2491 3084 2119 3084 
Q 1678 3084 1418 2786 
Q 1159 2488 1159 1978 
L 1159 0 
L 581 0 
L 581 3500 
L 1159 3500 
L 1159 2956 
Q 1356 3278 1631 3431 
Q 1906 3584 2284 3584 
Q 2666 3584 2933 3390 
Q 3200 3197 3328 2828 
z
" id="DejaVuSans-6d" transform="scale(0.015625)"/>
       <path d="M 1947 4863 
L 1947 -844 
L 622 -844 
L 622 -397 
L 1369 -397 
L 1369 4416 
L 622 4416 
L 622 4863 
L 1947 4863 
z
" id="DejaVuSans-5d" transform="scale(0.015625)"/>
      </defs>
      <use transform="translate(0 0.015625)" xlink:href="#DejaVuSans-7a"/>
      <use transform="translate(52.490234 0.015625)" xlink:href="#DejaVuSans-20"/>
      <use transform="translate(84.277344 0.015625)" xlink:href="#DejaVuSans-5b"/>
      <use transform="translate(123.291016 0.015625)" xlink:href="#DejaVuSans-3bc"/>
      <use transform="translate(186.914062 0.015625)" xlink:href="#DejaVuSans-6d"/>
      <use transform="translate(284.326172 0.015625)" xlink:href="#DejaVuSans-5d"/>
     </g>
    </g>
   </g>
   <g id="matplotlib.axis_2">
    <g id="ytick_1">
     <g id="line2d_5">
      <defs>
       <path d="M 0 0 
L -3.5 0 
" id="m8a8ae41963" style="stroke:#000000;stroke-width:0.8;"/>
      </defs>
      <g>
       <use style="stroke:#000000;stroke-width:0.8;" x="61.45" xlink:href="#m8a8ae41963" y="224.018906"/>
      </g>
     </g>
     <g id="text_6">
      <!-- 0.0 -->
      <g transform="translate(32.185625 229.337813)scale(0.14 -0.14)">
       <defs>
        <path d="M 684 794 
L 1344 794 
L 1344 0 
L 684 0 
L 684 794 
z
" id="DejaVuSans-2e" transform="scale(0.015625)"/>
       </defs>
       <use xlink:href="#DejaVuSans-30"/>
       <use x="63.623047" xlink:href="#DejaVuSans-2e"/>
       <use x="95.410156" xlink:href="#DejaVuSans-30"/>
      </g>
     </g>
    </g>
    <g id="ytick_2">
     <g id="line2d_6">
      <g>
       <use style="stroke:#000000;stroke-width:0.8;" x="61.45" xlink:href="#m8a8ae41963" y="188.768906"/>
      </g>
     </g>
     <g id="text_7">
      <!-- 0.2 -->
      <g transform="translate(32.185625 194.087813)scale(0.14 -0.14)">
       <use xlink:href="#DejaVuSans-30"/>
       <use x="63.623047" xlink:href="#DejaVuSans-2e"/>
       <use x="95.410156" xlink:href="#DejaVuSans-32"/>
      </g>
     </g>
    </g>
    <g id="ytick_3">
     <g id="line2d_7">
      <g>
       <use style="stroke:#000000;stroke-width:0.8;" x="61.45" xlink:href="#m8a8ae41963" y="153.518906"/>
      </g>
     </g>
     <g id="text_8">
      <!-- 0.4 -->
      <g transform="translate(32.185625 158.837813)scale(0.14 -0.14)">
       <use xlink:href="#DejaVuSans-30"/>
       <use x="63.623047" xlink:href="#DejaVuSans-2e"/>
       <use x="95.410156" xlink:href="#DejaVuSans-34"/>
      </g>
     </g>
    </g>
    <g id="ytick_4">
     <g id="line2d_8">
      <g>
       <use style="stroke:#000000;stroke-width:0.8;" x="61.45" xlink:href="#m8a8ae41963" y="118.268906"/>
      </g>
     </g>
     <g id="text_9">
      <!-- 0.6 -->
      <g transform="translate(32.185625 123.587813)scale(0.14 -0.14)">
       <use xlink:href="#DejaVuSans-30"/>
       <use x="63.623047" xlink:href="#DejaVuSans-2e"/>
       <use x="95.410156" xlink:href="#DejaVuSans-36"/>
      </g>
     </g>
    </g>
    <g id="ytick_5">
     <g id="line2d_9">
      <g>
       <use style="stroke:#000000;stroke-width:0.8;" x="61.45" xlink:href="#m8a8ae41963" y="83.018906"/>
      </g>
     </g>
     <g id="text_10">
      <!-- 0.8 -->
      <g transform="translate(32.185625 88.337813)scale(0.14 -0.14)">
       <defs>
        <path d="M 2034 2216 
Q 1584 2216 1326 1975 
Q 1069 1734 1069 1313 
Q 1069 891 1326 650 
Q 1584 409 2034 409 
Q 2484 409 2743 651 
Q 3003 894 3003 1313 
Q 3003 1734 2745 1975 
Q 2488 2216 2034 2216 
z
M 1403 2484 
Q 997 2584 770 2862 
Q 544 3141 544 3541 
Q 544 4100 942 4425 
Q 1341 4750 2034 4750 
Q 2731 4750 3128 4425 
Q 3525 4100 3525 3541 
Q 3525 3141 3298 2862 
Q 3072 2584 2669 2484 
Q 3125 2378 3379 2068 
Q 3634 1759 3634 1313 
Q 3634 634 3220 271 
Q 2806 -91 2034 -91 
Q 1263 -91 848 271 
Q 434 634 434 1313 
Q 434 1759 690 2068 
Q 947 2378 1403 2484 
z
M 1172 3481 
Q 1172 3119 1398 2916 
Q 1625 2713 2034 2713 
Q 2441 2713 2670 2916 
Q 2900 3119 2900 3481 
Q 2900 3844 2670 4047 
Q 2441 4250 2034 4250 
Q 1625 4250 1398 4047 
Q 1172 3844 1172 3481 
z
" id="DejaVuSans-38" transform="scale(0.015625)"/>
       </defs>
       <use xlink:href="#DejaVuSans-30"/>
       <use x="63.623047" xlink:href="#DejaVuSans-2e"/>
       <use x="95.410156" xlink:href="#DejaVuSans-38"/>
      </g>
     </g>
    </g>
    <g id="ytick_6">
     <g id="line2d_10">
      <g>
       <use style="stroke:#000000;stroke-width:0.8;" x="61.45" xlink:href="#m8a8ae41963" y="47.768906"/>
      </g>
     </g>
     <g id="text_11">
      <!-- 1.0 -->
      <g transform="translate(32.185625 53.087813)scale(0.14 -0.14)">
       <defs>
        <path d="M 794 531 
L 1825 531 
L 1825 4091 
L 703 3866 
L 703 4441 
L 1819 4666 
L 2450 4666 
L 2450 531 
L 3481 531 
L 3481 0 
L 794 0 
L 794 531 
z
" id="DejaVuSans-31" transform="scale(0.015625)"/>
       </defs>
       <use xlink:href="#DejaVuSans-31"/>
       <use x="63.623047" xlink:href="#DejaVuSans-2e"/>
       <use x="95.410156" xlink:href="#DejaVuSans-30"/>
      </g>
     </g>
    </g>
    <g id="ytick_7">
     <g id="line2d_11">
      <g>
       <use style="stroke:#000000;stroke-width:0.8;" x="61.45" xlink:href="#m8a8ae41963" y="12.518906"/>
      </g>
     </g>
     <g id="text_12">
      <!-- 1.2 -->
      <g transform="translate(32.185625 17.837812)scale(0.14 -0.14)">
       <use xlink:href="#DejaVuSans-31"/>
       <use x="63.623047" xlink:href="#DejaVuSans-2e"/>
       <use x="95.410156" xlink:href="#DejaVuSans-32"/>
      </g>
     </g>
    </g>
    <g id="text_13">
     <!-- Intensity -->
     <g transform="translate(25.274062 148.736406)rotate(-90)scale(0.14 -0.14)">
      <defs>
       <path d="M 628 4666 
L 1259 4666 
L 1259 0 
L 628 0 
L 628 4666 
z
" id="DejaVuSans-49" transform="scale(0.015625)"/>
       <path d="M 3513 2113 
L 3513 0 
L 2938 0 
L 2938 2094 
Q 2938 2591 2744 2837 
Q 2550 3084 2163 3084 
Q 1697 3084 1428 2787 
Q 1159 2491 1159 1978 
L 1159 0 
L 581 0 
L 581 3500 
L 1159 3500 
L 1159 2956 
Q 1366 3272 1645 3428 
Q 1925 3584 2291 3584 
Q 2894 3584 3203 3211 
Q 3513 2838 3513 2113 
z
" id="DejaVuSans-6e" transform="scale(0.015625)"/>
       <path d="M 1172 4494 
L 1172 3500 
L 2356 3500 
L 2356 3053 
L 1172 3053 
L 1172 1153 
Q 1172 725 1289 603 
Q 1406 481 1766 481 
L 2356 481 
L 2356 0 
L 1766 0 
Q 1100 0 847 248 
Q 594 497 594 1153 
L 594 3053 
L 172 3053 
L 172 3500 
L 594 3500 
L 594 4494 
L 1172 4494 
z
" id="DejaVuSans-74" transform="scale(0.015625)"/>
       <path d="M 3597 1894 
L 3597 1613 
L 953 1613 
Q 991 1019 1311 708 
Q 1631 397 2203 397 
Q 2534 397 2845 478 
Q 3156 559 3463 722 
L 3463 178 
Q 3153 47 2828 -22 
Q 2503 -91 2169 -91 
Q 1331 -91 842 396 
Q 353 884 353 1716 
Q 353 2575 817 3079 
Q 1281 3584 2069 3584 
Q 2775 3584 3186 3129 
Q 3597 2675 3597 1894 
z
M 3022 2063 
Q 3016 2534 2758 2815 
Q 2500 3097 2075 3097 
Q 1594 3097 1305 2825 
Q 1016 2553 972 2059 
L 3022 2063 
z
" id="DejaVuSans-65" transform="scale(0.015625)"/>
       <path d="M 2834 3397 
L 2834 2853 
Q 2591 2978 2328 3040 
Q 2066 3103 1784 3103 
Q 1356 3103 1142 2972 
Q 928 2841 928 2578 
Q 928 2378 1081 2264 
Q 1234 2150 1697 2047 
L 1894 2003 
Q 2506 1872 2764 1633 
Q 3022 1394 3022 966 
Q 3022 478 2636 193 
Q 2250 -91 1575 -91 
Q 1294 -91 989 -36 
Q 684 19 347 128 
L 347 722 
Q 666 556 975 473 
Q 1284 391 1588 391 
Q 1994 391 2212 530 
Q 2431 669 2431 922 
Q 2431 1156 2273 1281 
Q 2116 1406 1581 1522 
L 1381 1569 
Q 847 1681 609 1914 
Q 372 2147 372 2553 
Q 372 3047 722 3315 
Q 1072 3584 1716 3584 
Q 2034 3584 2315 3537 
Q 2597 3491 2834 3397 
z
" id="DejaVuSans-73" transform="scale(0.015625)"/>
       <path d="M 603 3500 
L 1178 3500 
L 1178 0 
L 603 0 
L 603 3500 
z
M 603 4863 
L 1178 4863 
L 1178 4134 
L 603 4134 
L 603 4863 
z
" id="DejaVuSans-69" transform="scale(0.015625)"/>
       <path d="M 2059 -325 
Q 1816 -950 1584 -1140 
Q 1353 -1331 966 -1331 
L 506 -1331 
L 506 -850 
L 844 -850 
Q 1081 -850 1212 -737 
Q 1344 -625 1503 -206 
L 1606 56 
L 191 3500 
L 800 3500 
L 1894 763 
L 2988 3500 
L 3597 3500 
L 2059 -325 
z
" id="DejaVuSans-79" transform="scale(0.015625)"/>
      </defs>
      <use xlink:href="#DejaVuSans-49"/>
      <use x="29.492188" xlink:href="#DejaVuSans-6e"/>
      <use x="92.871094" xlink:href="#DejaVuSans-74"/>
      <use x="132.080078" xlink:href="#DejaVuSans-65"/>
      <use x="193.603516" xlink:href="#DejaVuSans-6e"/>
      <use x="256.982422" xlink:href="#DejaVuSans-73"/>
      <use x="309.082031" xlink:href="#DejaVuSans-69"/>
      <use x="336.865234" xlink:href="#DejaVuSans-74"/>
      <use x="376.074219" xlink:href="#DejaVuSans-79"/>
     </g>
    </g>
   </g>
   <g id="line2d_12">
    <path clip-path="url(#p8ead47a697)" d="M 61.45 47.768906 
L 63.114141 47.795026 
L 64.778283 47.873363 
L 66.442424 48.00385 
L 68.106566 48.186373 
L 69.770707 48.420776 
L 71.434848 48.706855 
L 73.09899 49.044364 
L 74.763131 49.433013 
L 76.427273 49.872465 
L 78.091414 50.362345 
L 79.755556 50.90223 
L 81.419697 51.491658 
L 83.083838 52.130124 
L 84.74798 52.817081 
L 86.412121 53.551944 
L 88.076263 54.334086 
L 89.740404 55.162842 
L 91.404545 56.037509 
L 93.068687 56.957348 
L 94.732828 57.921581 
L 96.39697 58.929397 
L 98.061111 59.979951 
L 99.725253 61.072362 
L 101.389394 62.205719 
L 103.053535 63.379081 
L 104.717677 64.591475 
L 106.381818 65.8419 
L 108.04596 67.129328 
L 109.710101 68.452704 
L 111.374242 69.810951 
L 113.038384 71.202964 
L 114.702525 72.627619 
L 116.366667 74.083769 
L 118.030808 75.570251 
L 119.694949 77.08588 
L 121.359091 78.629456 
L 123.023232 80.199765 
L 124.687374 81.795576 
L 126.351515 83.41565 
L 128.015657 85.058733 
L 129.679798 86.723564 
L 131.343939 88.408874 
L 133.008081 90.113386 
L 134.672222 91.83582 
L 136.336364 93.574892 
L 138.000505 95.329314 
L 139.664646 97.097799 
L 141.328788 98.879063 
L 142.992929 100.67182 
L 144.657071 102.474791 
L 146.321212 104.286701 
L 147.985354 106.106282 
L 149.649495 107.932275 
L 151.313636 109.763428 
L 152.977778 111.598502 
L 154.641919 113.436269 
L 156.306061 115.275516 
L 157.970202 117.115044 
L 159.634343 118.95367 
L 161.298485 120.790229 
L 162.962626 122.623574 
L 164.626768 124.452579 
L 166.290909 126.276139 
L 167.955051 128.093172 
L 169.619192 129.90262 
L 171.283333 131.703447 
L 172.947475 133.494648 
L 174.611616 135.275241 
L 176.275758 137.044274 
L 177.939899 138.800826 
L 179.60404 140.544005 
L 181.268182 142.27295 
L 182.932323 143.986835 
L 184.596465 145.684865 
L 186.260606 147.366283 
L 187.924747 149.030364 
L 189.588889 150.676423 
L 191.25303 152.30381 
L 192.917172 153.911915 
L 194.581313 155.500166 
L 196.245455 157.06803 
L 197.909596 158.615015 
L 199.573737 160.140669 
L 201.237879 161.64458 
L 202.90202 163.126379 
L 204.566162 164.585733 
L 206.230303 166.022351 
L 207.894444 167.435982 
L 209.558586 168.826409 
L 211.222727 170.193452 
L 212.886869 171.536964 
L 214.55101 172.856823 
L 216.215152 174.152937 
L 217.879293 175.425228 
L 219.543434 176.673631 
L 221.207576 177.898086 
L 222.871717 179.098523 
L 224.535859 180.274852 
L 226.2 181.426948 
" style="fill:none;stroke:#ff0000;stroke-linecap:square;stroke-width:1.5;"/>
   </g>
   <g id="line2d_13">
    <path clip-path="url(#p8ead47a697)" d="M 61.45 47.768906 
L 63.114141 47.81354 
L 64.778283 47.947304 
L 66.442424 48.169794 
L 68.106566 48.480337 
L 69.770707 48.877999 
L 71.434848 49.36159 
L 73.09899 49.929675 
L 74.763131 50.580582 
L 76.427273 51.312418 
L 78.091414 52.123078 
L 79.755556 53.010263 
L 81.419697 53.971492 
L 83.083838 55.004125 
L 84.74798 56.105373 
L 86.412121 57.272322 
L 88.076263 58.501946 
L 89.740404 59.791128 
L 91.404545 61.136677 
L 93.068687 62.535345 
L 94.732828 63.983848 
L 96.39697 65.478875 
L 98.061111 67.017112 
L 99.725253 68.595251 
L 101.389394 70.210009 
L 103.053535 71.858139 
L 104.717677 73.53644 
L 106.381818 75.241773 
L 108.04596 76.971066 
L 109.710101 78.721328 
L 111.374242 80.489652 
L 113.038384 82.273227 
L 114.702525 84.069337 
L 116.366667 85.875374 
L 118.030808 87.688835 
L 119.694949 89.507328 
L 121.359091 91.328573 
L 123.023232 93.150405 
L 124.687374 94.970774 
L 126.351515 96.787741 
L 128.015657 98.599484 
L 129.679798 100.404291 
L 131.343939 102.200561 
L 133.008081 103.986803 
L 134.672222 105.761628 
L 136.336364 107.523754 
L 138.000505 109.271995 
L 139.664646 111.005264 
L 141.328788 112.722566 
L 142.992929 114.422993 
L 144.657071 116.105726 
L 146.321212 117.770025 
L 147.985354 119.415229 
L 149.649495 121.040749 
L 151.313636 122.646069 
L 152.977778 124.230737 
L 154.641919 125.794365 
L 156.306061 127.336621 
L 157.970202 128.857231 
L 159.634343 130.355973 
L 161.298485 131.832672 
L 162.962626 133.287198 
L 164.626768 134.719466 
L 166.290909 136.129426 
L 167.955051 137.517067 
L 169.619192 138.88241 
L 171.283333 140.225509 
L 172.947475 141.546444 
L 174.611616 142.845323 
L 176.275758 144.122276 
L 177.939899 145.377456 
L 179.60404 146.611034 
L 181.268182 147.823202 
L 182.932323 149.014166 
L 184.596465 150.184145 
L 186.260606 151.333373 
L 187.924747 152.462095 
L 189.588889 153.570566 
L 191.25303 154.659049 
L 192.917172 155.727816 
L 194.581313 156.777145 
L 196.245455 157.807317 
L 197.909596 158.818623 
L 199.573737 159.811352 
L 201.237879 160.785799 
L 202.90202 161.74226 
L 204.566162 162.681035 
L 206.230303 163.60242 
L 207.894444 164.506716 
L 209.558586 165.394221 
L 211.222727 166.265234 
L 212.886869 167.12005 
L 214.55101 167.958966 
L 216.215152 168.782274 
L 217.879293 169.590267 
L 219.543434 170.383232 
L 221.207576 171.161456 
L 222.871717 171.925221 
L 224.535859 172.674807 
L 226.2 173.41049 
" style="fill:none;stroke:#ff0000;stroke-dasharray:5.55,2.4;stroke-dashoffset:0;stroke-width:1.5;"/>
   </g>
   <g id="line2d_14">
    <path clip-path="url(#p8ead47a697)" d="M 61.45 224.018906 
L 63.114141 223.97968 
L 64.778283 223.862045 
L 66.442424 223.666129 
L 68.106566 223.392144 
L 69.770707 223.040389 
L 71.434848 222.611245 
L 73.09899 222.105179 
L 74.763131 221.522738 
L 76.427273 220.864555 
L 78.091414 220.131341 
L 79.755556 219.32389 
L 81.419697 218.443073 
L 83.083838 217.48984 
L 84.74798 216.465219 
L 86.412121 215.370309 
L 88.076263 214.206287 
L 89.740404 212.974399 
L 91.404545 211.675961 
L 93.068687 210.312359 
L 94.732828 208.885043 
L 96.39697 207.395527 
L 98.061111 205.845389 
L 99.725253 204.236265 
L 101.389394 202.569848 
L 103.053535 200.847886 
L 104.717677 199.072179 
L 106.381818 197.244578 
L 108.04596 195.36698 
L 109.710101 193.441327 
L 111.374242 191.469601 
L 113.038384 189.453827 
L 114.702525 187.39606 
L 116.366667 185.298394 
L 118.030808 183.16295 
L 119.694949 180.991876 
L 121.359091 178.787346 
L 123.023232 176.551554 
L 124.687374 174.286712 
L 126.351515 171.995048 
L 128.015657 169.678801 
L 129.679798 167.34022 
L 131.343939 164.981558 
L 133.008081 162.605072 
L 134.672222 160.213018 
L 136.336364 157.807648 
L 138.000505 155.391208 
L 139.664646 152.965935 
L 141.328788 150.534049 
L 142.992929 148.097758 
L 144.657071 145.659249 
L 146.321212 143.220687 
L 147.985354 140.784211 
L 149.649495 138.351932 
L 151.313636 135.925929 
L 152.977778 133.508246 
L 154.641919 131.100892 
L 156.306061 128.705831 
L 157.970202 126.324987 
L 159.634343 123.960235 
L 161.298485 121.6134 
L 162.962626 119.286257 
L 164.626768 116.980522 
L 166.290909 114.697855 
L 167.955051 112.439851 
L 169.619192 110.208042 
L 171.283333 108.003892 
L 172.947475 105.828794 
L 174.611616 103.684066 
L 176.275758 101.570949 
L 177.939899 99.490604 
L 179.60404 97.444106 
L 181.268182 95.432444 
L 182.932323 93.456518 
L 184.596465 91.51713 
L 186.260606 89.614988 
L 187.924747 87.750694 
L 189.588889 85.924749 
L 191.25303 84.137541 
L 192.917172 82.389345 
L 194.581313 80.680319 
L 196.245455 79.010495 
L 197.909596 77.379781 
L 199.573737 75.787949 
L 201.237879 74.234634 
L 202.90202 72.719328 
L 204.566162 71.241369 
L 206.230303 69.799943 
L 207.894444 68.394068 
L 209.558586 67.022593 
L 211.222727 65.684187 
L 212.886869 64.377331 
L 214.55101 63.100308 
L 216.215152 61.851194 
L 217.879293 60.627845 
L 219.543434 59.427886 
L 221.207576 58.248699 
L 222.871717 57.087407 
L 224.535859 55.940856 
L 226.2 54.805603 
" style="fill:none;stroke:#0000ff;stroke-linecap:square;stroke-width:1.5;"/>
   </g>
   <g id="line2d_15">
    <path clip-path="url(#p8ead47a697)" d="M 63.114141 223.974273 
L 64.778283 223.840508 
L 66.442424 223.618018 
L 68.106566 223.307475 
L 69.770707 222.909813 
L 71.434848 222.426223 
L 73.09899 221.858138 
L 74.763131 221.20723 
L 76.427273 220.475394 
L 78.091414 219.664734 
L 79.755556 218.77755 
L 81.419697 217.81632 
L 83.083838 216.783688 
L 84.74798 215.682439 
L 86.412121 214.515491 
L 88.076263 213.285867 
L 89.740404 211.996685 
L 91.404545 210.651136 
L 93.068687 209.252467 
L 94.732828 207.803965 
L 96.39697 206.308938 
L 98.061111 204.770701 
L 99.725253 203.192561 
L 101.389394 201.577803 
L 103.053535 199.929673 
L 104.717677 198.251372 
L 106.381818 196.54604 
L 108.04596 194.816746 
L 109.710101 193.066484 
L 111.374242 191.29816 
L 113.038384 189.514586 
L 114.702525 187.718475 
L 116.366667 185.912438 
L 118.030808 184.098977 
L 119.694949 182.280485 
L 121.359091 180.459239 
L 123.023232 178.637407 
L 124.687374 176.817039 
L 126.351515 175.000072 
L 128.015657 173.188329 
L 129.679798 171.383522 
L 131.343939 169.587251 
L 133.008081 167.80101 
L 134.672222 166.026184 
L 136.336364 164.264059 
L 138.000505 162.515817 
L 139.664646 160.782548 
L 141.328788 159.065247 
L 142.992929 157.364819 
L 144.657071 155.682087 
L 146.321212 154.017787 
L 147.985354 152.372584 
L 149.649495 150.747063 
L 151.313636 149.141743 
L 152.977778 147.557075 
L 154.641919 145.993448 
L 156.306061 144.451192 
L 157.970202 142.930581 
L 159.634343 141.43184 
L 161.298485 139.955141 
L 162.962626 138.500614 
L 164.626768 137.068347 
L 166.290909 135.658387 
L 167.955051 134.270746 
L 169.619192 132.905402 
L 171.283333 131.562303 
L 172.947475 130.241368 
L 174.611616 128.942489 
L 176.275758 127.665537 
L 177.939899 126.410357 
L 179.60404 125.176778 
L 181.268182 123.96461 
L 182.932323 122.773647 
L 184.596465 121.603668 
L 186.260606 120.45444 
L 187.924747 119.325718 
L 189.588889 118.217247 
L 191.25303 117.128763 
L 192.917172 116.059996 
L 194.581313 115.010668 
L 196.245455 113.980495 
L 197.909596 112.96919 
L 199.573737 111.976461 
L 201.237879 111.002014 
L 202.90202 110.045552 
L 204.566162 109.106778 
L 206.230303 108.185392 
L 207.894444 107.281096 
L 209.558586 106.393591 
L 211.222727 105.522579 
L 212.886869 104.667763 
L 214.55101 103.828847 
L 216.215152 103.005538 
L 217.879293 102.197545 
L 219.543434 101.40458 
L 221.207576 100.626356 
L 222.871717 99.862591 
L 224.535859 99.113006 
L 226.2 98.377323 
" style="fill:none;stroke:#0000ff;stroke-dasharray:5.55,2.4;stroke-dashoffset:0;stroke-width:1.5;"/>
   </g>
   <g id="line2d_16">
    <path clip-path="url(#p8ead47a697)" d="M 61.45 224.018906 
L 63.114141 224.005143 
L 64.778283 223.963857 
L 66.442424 223.89506 
L 68.106566 223.798768 
L 69.770707 223.675007 
L 71.434848 223.52381 
L 73.09899 223.345216 
L 74.763131 223.139271 
L 76.427273 222.906029 
L 78.091414 222.645551 
L 79.755556 222.357904 
L 81.419697 222.043164 
L 83.083838 221.701413 
L 84.74798 221.332739 
L 86.412121 220.937239 
L 88.076263 220.515015 
L 89.740404 220.066178 
L 91.404545 219.590844 
L 93.068687 219.089137 
L 94.732828 218.561187 
L 96.39697 218.007132 
L 98.061111 217.427117 
L 99.725253 216.821291 
L 101.389394 216.189813 
L 103.053535 215.532847 
L 104.717677 214.850563 
L 106.381818 214.143139 
L 108.04596 213.410759 
L 109.710101 212.653614 
L 111.374242 211.8719 
L 113.038384 211.065821 
L 114.702525 210.235586 
L 116.366667 209.381412 
L 118.030808 208.503521 
L 119.694949 207.602142 
L 121.359091 206.677508 
L 123.023232 205.729862 
L 124.687374 204.759451 
L 126.351515 203.766527 
L 128.015657 202.75135 
L 129.679798 201.714185 
L 131.343939 200.655304 
L 133.008081 199.574983 
L 134.672222 198.473506 
L 136.336364 197.351161 
L 138.000505 196.208244 
L 139.664646 195.045055 
L 141.328788 193.861901 
L 142.992929 192.659093 
L 144.657071 191.436951 
L 146.321212 190.195797 
L 147.985354 188.935962 
L 149.649495 187.657779 
L 151.313636 186.361591 
L 152.977778 185.047745 
L 154.641919 183.716591 
L 156.306061 182.368489 
L 157.970202 181.003801 
L 159.634343 179.622898 
L 161.298485 178.226155 
L 162.962626 176.813952 
L 164.626768 175.386676 
L 166.290909 173.94472 
L 167.955051 172.488481 
L 169.619192 171.018364 
L 171.283333 169.534778 
L 172.947475 168.03814 
L 174.611616 166.52887 
L 176.275758 165.007396 
L 177.939899 163.474153 
L 179.60404 161.929579 
L 181.268182 160.37412 
L 182.932323 158.808228 
L 184.596465 157.232362 
L 186.260606 155.646986 
L 187.924747 154.052569 
L 189.588889 152.449591 
L 191.25303 150.838533 
L 192.917172 149.219887 
L 194.581313 147.594149 
L 196.245455 145.961822 
L 197.909596 144.323417 
L 199.573737 142.679451 
L 201.237879 141.030448 
L 202.90202 139.37694 
L 204.566162 137.719463 
L 206.230303 136.058564 
L 207.894444 134.394796 
L 209.558586 132.728717 
L 211.222727 131.060897 
L 212.886869 129.39191 
L 214.55101 127.722338 
L 216.215152 126.052772 
L 217.879293 124.38381 
L 219.543434 122.716059 
L 221.207576 121.050131 
L 222.871717 119.386649 
L 224.535859 117.726242 
L 226.2 116.069549 
" style="fill:none;stroke:#17becf;stroke-linecap:square;stroke-width:1.5;"/>
   </g>
   <g id="line2d_17">
    <path clip-path="url(#p8ead47a697)" d="M 61.45 224.018906 
L 63.114141 223.987677 
L 64.778283 223.893074 
L 66.442424 223.732367 
L 68.106566 223.50105 
L 69.770707 223.192909 
L 71.434848 222.800108 
L 73.09899 222.31331 
L 74.763131 221.72181 
L 76.427273 221.013702 
L 78.091414 220.176048 
L 79.755556 219.195082 
L 81.419697 218.056417 
L 83.083838 216.74527 
L 84.74798 215.246696 
L 86.412121 213.545826 
L 88.076263 211.628114 
L 89.740404 209.479581 
L 91.404545 207.087064 
L 93.068687 204.438448 
L 94.732828 201.522905 
L 96.39697 198.331113 
L 98.061111 194.855464 
L 99.725253 191.09026 
L 101.389394 187.031884 
L 103.053535 182.678957 
L 104.717677 178.03247 
L 106.381818 173.095892 
L 108.04596 167.875249 
L 109.710101 162.379182 
L 111.374242 156.618972 
L 113.038384 150.608538 
L 114.702525 144.364406 
L 116.366667 137.905649 
L 118.030808 131.253797 
L 119.694949 124.432717 
L 121.359091 117.468474 
L 123.023232 110.389151 
L 124.687374 103.22466 
L 126.351515 96.00652 
L 128.015657 88.767617 
L 129.679798 81.541944 
L 131.343939 74.36433 
L 133.008081 67.270145 
L 134.672222 60.295009 
L 136.336364 53.47448 
L 138.000505 46.843744 
L 139.664646 40.437301 
L 141.328788 34.288658 
L 142.992929 28.43002 
L 144.657071 22.891989 
L 146.321212 17.703285 
L 147.985354 12.890464 
L 149.649495 8.477668 
L 151.313636 4.486384 
L 152.977778 0.935231 
L 154.01817 -1 
M 175.726666 -1 
L 176.275758 -0.120178 
L 177.939899 2.853339 
L 179.60404 6.097552 
L 181.268182 9.572913 
L 182.932323 13.236595 
L 184.596465 17.042338 
L 186.260606 20.940203 
L 187.924747 24.876172 
L 189.588889 28.791578 
L 191.25303 32.622309 
L 192.917172 36.297732 
L 194.581313 39.739267 
L 196.245455 42.858539 
L 197.909596 45.555008 
L 199.573737 47.712958 
L 201.237879 49.197722 
L 202.90202 49.85097 
L 204.566162 49.484872 
L 206.230303 47.874905 
L 207.894444 44.751045 
L 209.558586 39.787001 
L 211.222727 32.587136 
L 212.886869 22.670617 
L 214.55101 9.452268 
L 215.56037 -1 
" style="fill:none;stroke:#6495ed;stroke-linecap:square;stroke-width:1.5;"/>
   </g>
   <g id="patch_3">
    <path d="M 61.45 224.018906 
L 61.45 12.518906 
" style="fill:none;stroke:#000000;stroke-linecap:square;stroke-linejoin:miter;stroke-width:0.8;"/>
   </g>
   <g id="patch_4">
    <path d="M 226.2 224.018906 
L 226.2 12.518906 
" style="fill:none;stroke:#000000;stroke-linecap:square;stroke-linejoin:miter;stroke-width:0.8;"/>
   </g>
   <g id="patch_5">
    <path d="M 61.45 224.018906 
L 226.2 224.018906 
" style="fill:none;stroke:#000000;stroke-linecap:square;stroke-linejoin:miter;stroke-width:0.8;"/>
   </g>
   <g id="patch_6">
    <path d="M 61.45 12.518906 
L 226.2 12.518906 
" style="fill:none;stroke:#000000;stroke-linecap:square;stroke-linejoin:miter;stroke-width:0.8;"/>
   </g>
  </g>
  <g id="axes_2">
   <g id="patch_7">
    <path d="M 249.0125 224.018906 
L 413.7625 224.018906 
L 413.7625 12.518906 
L 249.0125 12.518906 
z
" style="fill:#ffffff;"/>
   </g>
   <g id="matplotlib.axis_3">
    <g id="xtick_5">
     <g id="line2d_18">
      <g>
       <use style="stroke:#000000;stroke-width:0.8;" x="249.0125" xlink:href="#m13f81ab90a" y="224.018906"/>
      </g>
     </g>
     <g id="text_14">
      <!-- 0 -->
      <g transform="translate(244.55875 241.656719)scale(0.14 -0.14)">
       <use xlink:href="#DejaVuSans-30"/>
      </g>
     </g>
    </g>
    <g id="xtick_6">
     <g id="line2d_19">
      <g>
       <use style="stroke:#000000;stroke-width:0.8;" x="331.3875" xlink:href="#m13f81ab90a" y="224.018906"/>
      </g>
     </g>
     <g id="text_15">
      <!-- 1 -->
      <g transform="translate(326.93375 241.656719)scale(0.14 -0.14)">
       <use xlink:href="#DejaVuSans-31"/>
      </g>
     </g>
    </g>
    <g id="xtick_7">
     <g id="line2d_20">
      <g>
       <use style="stroke:#000000;stroke-width:0.8;" x="413.7625" xlink:href="#m13f81ab90a" y="224.018906"/>
      </g>
     </g>
     <g id="text_16">
      <!-- 2 -->
      <g transform="translate(409.30875 241.656719)scale(0.14 -0.14)">
       <use xlink:href="#DejaVuSans-32"/>
      </g>
     </g>
    </g>
    <g id="text_17">
     <!-- $\rho_2$ [$\mathrm{\mu m}$] -->
     <g transform="translate(304.6475 259.208281)scale(0.14 -0.14)">
      <defs>
       <path d="M 1203 2875 
Q 1453 3194 1981 3475 
Q 2188 3584 2756 3584 
Q 3394 3584 3694 3078 
Q 3994 2572 3834 1747 
Q 3672 922 3175 415 
Q 2678 -91 2041 -91 
Q 1656 -91 1409 63 
Q 1163 213 1044 525 
L 681 -1331 
L 103 -1331 
L 697 1716 
Q 838 2438 1203 2875 
z
M 3238 1747 
Q 3359 2381 3169 2744 
Q 2978 3103 2522 3103 
Q 2066 3103 1734 2744 
Q 1403 2381 1281 1747 
Q 1156 1113 1347 750 
Q 1538 391 1994 391 
Q 2450 391 2781 750 
Q 3113 1113 3238 1747 
z
" id="DejaVuSans-Oblique-3c1" transform="scale(0.015625)"/>
      </defs>
      <use transform="translate(0 0.015625)" xlink:href="#DejaVuSans-Oblique-3c1"/>
      <use transform="translate(63.476562 -16.390625)scale(0.7)" xlink:href="#DejaVuSans-32"/>
      <use transform="translate(110.74707 0.015625)" xlink:href="#DejaVuSans-20"/>
      <use transform="translate(142.53418 0.015625)" xlink:href="#DejaVuSans-5b"/>
      <use transform="translate(181.547852 0.015625)" xlink:href="#DejaVuSans-3bc"/>
      <use transform="translate(245.170898 0.015625)" xlink:href="#DejaVuSans-6d"/>
      <use transform="translate(342.583008 0.015625)" xlink:href="#DejaVuSans-5d"/>
     </g>
    </g>
   </g>
   <g id="matplotlib.axis_4">
    <g id="ytick_8">
     <g id="line2d_21">
      <g>
       <use style="stroke:#000000;stroke-width:0.8;" x="249.0125" xlink:href="#m8a8ae41963" y="224.018906"/>
      </g>
     </g>
    </g>
    <g id="ytick_9">
     <g id="line2d_22">
      <g>
       <use style="stroke:#000000;stroke-width:0.8;" x="249.0125" xlink:href="#m8a8ae41963" y="188.768906"/>
      </g>
     </g>
    </g>
    <g id="ytick_10">
     <g id="line2d_23">
      <g>
       <use style="stroke:#000000;stroke-width:0.8;" x="249.0125" xlink:href="#m8a8ae41963" y="153.518906"/>
      </g>
     </g>
    </g>
    <g id="ytick_11">
     <g id="line2d_24">
      <g>
       <use style="stroke:#000000;stroke-width:0.8;" x="249.0125" xlink:href="#m8a8ae41963" y="118.268906"/>
      </g>
     </g>
    </g>
    <g id="ytick_12">
     <g id="line2d_25">
      <g>
       <use style="stroke:#000000;stroke-width:0.8;" x="249.0125" xlink:href="#m8a8ae41963" y="83.018906"/>
      </g>
     </g>
    </g>
    <g id="ytick_13">
     <g id="line2d_26">
      <g>
       <use style="stroke:#000000;stroke-width:0.8;" x="249.0125" xlink:href="#m8a8ae41963" y="47.768906"/>
      </g>
     </g>
    </g>
    <g id="ytick_14">
     <g id="line2d_27">
      <g>
       <use style="stroke:#000000;stroke-width:0.8;" x="249.0125" xlink:href="#m8a8ae41963" y="12.518906"/>
      </g>
     </g>
    </g>
   </g>
   <g id="line2d_28">
    <path clip-path="url(#pa5df1d923b)" d="M 249.0125 47.768906 
L 250.676641 47.91271 
L 252.340783 48.343419 
L 254.004924 49.058928 
L 255.669066 50.055747 
L 257.333207 51.32903 
L 258.997348 52.872617 
L 260.66149 54.679076 
L 262.325631 56.739773 
L 263.989773 59.04493 
L 265.653914 61.583712 
L 267.318056 64.344304 
L 268.982197 67.314007 
L 270.646338 70.479334 
L 272.31048 73.826112 
L 273.974621 77.339585 
L 275.638763 81.004528 
L 277.302904 84.805348 
L 278.967045 88.726199 
L 280.631187 92.75109 
L 282.295328 96.863991 
L 283.95947 101.048937 
L 285.623611 105.290128 
L 287.287753 109.572028 
L 288.951894 113.879451 
L 290.616035 118.197649 
L 292.280177 122.512388 
L 293.944318 126.810021 
L 295.60846 131.077548 
L 297.272601 135.302674 
L 298.936742 139.473857 
L 300.600884 143.580344 
L 302.265025 147.612208 
L 303.929167 151.560365 
L 305.593308 155.416593 
L 307.257449 159.173539 
L 308.921591 162.824719 
L 310.585732 166.364513 
L 312.249874 169.78815 
L 313.914015 173.09169 
L 315.578157 176.272001 
L 317.242298 179.326726 
L 318.906439 182.254253 
L 320.570581 185.053677 
L 322.234722 187.724758 
L 323.898864 190.267878 
L 325.563005 192.683998 
L 327.227146 194.97461 
L 328.891288 197.141688 
L 330.555429 199.187644 
L 332.219571 201.115278 
L 333.883712 202.92773 
L 335.547854 204.628436 
L 337.211995 206.221083 
L 338.876136 207.709563 
L 340.540278 209.097936 
L 342.204419 210.390386 
L 343.868561 211.59119 
L 345.532702 212.704677 
L 347.196843 213.7352 
L 348.860985 214.687108 
L 350.525126 215.564715 
L 352.189268 216.372281 
L 353.853409 217.113987 
L 355.517551 217.793921 
L 357.181692 218.416054 
L 358.845833 218.984237 
L 360.509975 219.50218 
L 362.174116 219.973449 
L 363.838258 220.401456 
L 365.502399 220.789457 
L 367.16654 221.140545 
L 368.830682 221.457648 
L 370.494823 221.743535 
L 372.158965 222.000808 
L 373.823106 222.231912 
L 375.487247 222.439131 
L 377.151389 222.6246 
L 378.81553 222.790301 
L 380.479672 222.938076 
L 382.143813 223.069628 
L 383.807955 223.186528 
L 385.472096 223.290223 
L 387.136237 223.38204 
L 388.800379 223.463196 
L 390.46452 223.534802 
L 392.128662 223.597868 
L 393.792803 223.653316 
L 395.456944 223.701979 
L 397.121086 223.744613 
L 398.785227 223.7819 
L 400.449369 223.814451 
L 402.11351 223.84282 
L 403.777652 223.867499 
L 405.441793 223.888932 
L 407.105934 223.907513 
L 408.770076 223.923594 
L 410.434217 223.937486 
L 412.098359 223.949467 
L 413.7625 223.959781 
" style="fill:none;stroke:#ff0000;stroke-dasharray:5.55,2.4;stroke-dashoffset:0;stroke-width:1.5;"/>
   </g>
   <g id="line2d_29">
    <path clip-path="url(#pa5df1d923b)" d="M 249.0125 224.018894 
L 250.676641 224.018865 
L 252.340783 224.018425 
L 254.004924 224.016525 
L 255.669066 224.011428 
L 257.333207 224.000732 
L 258.997348 223.981402 
L 260.66149 223.949802 
L 262.325631 223.901743 
L 263.989773 223.832531 
L 265.653914 223.737028 
L 267.318056 223.609709 
L 268.982197 223.444733 
L 270.646338 223.236008 
L 272.31048 222.97727 
L 273.974621 222.662151 
L 275.638763 222.28426 
L 277.302904 221.837254 
L 278.967045 221.314916 
L 280.631187 220.711223 
L 282.295328 220.020421 
L 283.95947 219.237086 
L 285.623611 218.356191 
L 287.287753 217.373159 
L 288.951894 216.283918 
L 290.616035 215.084946 
L 292.280177 213.773308 
L 293.944318 212.346692 
L 295.60846 210.803436 
L 297.272601 209.142541 
L 298.936742 207.36369 
L 300.600884 205.467247 
L 302.265025 203.45426 
L 303.929167 201.326449 
L 305.593308 199.086192 
L 307.257449 196.736502 
L 308.921591 194.281005 
L 310.585732 191.723905 
L 312.249874 189.069945 
L 313.914015 186.324373 
L 315.578157 183.492893 
L 317.242298 180.58162 
L 318.906439 177.597029 
L 320.570581 174.545908 
L 322.234722 171.4353 
L 323.898864 168.272458 
L 325.563005 165.064785 
L 327.227146 161.819787 
L 328.891288 158.545019 
L 330.555429 155.248038 
L 332.219571 151.936355 
L 333.883712 148.617388 
L 335.547854 145.298418 
L 337.211995 141.986556 
L 338.876136 138.6887 
L 340.540278 135.411501 
L 342.204419 132.161339 
L 343.868561 128.944291 
L 345.532702 125.766112 
L 347.196843 122.632211 
L 348.860985 119.547641 
L 350.525126 116.517082 
L 352.189268 113.544835 
L 353.853409 110.634814 
L 355.517551 107.790545 
L 357.181692 105.015168 
L 358.845833 102.311434 
L 360.509975 99.681716 
L 362.174116 97.128018 
L 363.838258 94.651977 
L 365.502399 92.254883 
L 367.16654 89.937689 
L 368.830682 87.701024 
L 370.494823 85.545213 
L 372.158965 83.470289 
L 373.823106 81.476014 
L 375.487247 79.561898 
L 377.151389 77.727212 
L 378.81553 75.971012 
L 380.479672 74.292158 
L 382.143813 72.689325 
L 383.807955 71.161033 
L 385.472096 69.705654 
L 387.136237 68.321435 
L 388.800379 67.006516 
L 390.46452 65.758942 
L 392.128662 64.576681 
L 393.792803 63.457638 
L 395.456944 62.39967 
L 397.121086 61.400598 
L 398.785227 60.458219 
L 400.449369 59.570319 
L 402.11351 58.73468 
L 403.777652 57.949095 
L 405.441793 57.211371 
L 407.105934 56.51934 
L 408.770076 55.870868 
L 410.434217 55.263856 
L 412.098359 54.69625 
L 413.7625 54.166043 
" style="fill:none;stroke:#0000ff;stroke-dasharray:5.55,2.4;stroke-dashoffset:0;stroke-width:1.5;"/>
   </g>
   <g id="line2d_30">
    <path clip-path="url(#pa5df1d923b)" d="M 249.0125 47.768906 
L 250.676641 47.912717 
L 252.340783 48.343517 
L 254.004924 49.059419 
L 255.669066 50.05729 
L 257.333207 51.332771 
L 258.997348 52.880311 
L 260.66149 54.693194 
L 262.325631 56.763594 
L 263.989773 59.082617 
L 265.653914 61.640362 
L 267.318056 64.425986 
L 268.982197 67.427771 
L 270.646338 70.633199 
L 272.31048 74.029034 
L 273.974621 77.6014 
L 275.638763 81.335871 
L 277.302904 85.217557 
L 278.967045 89.231199 
L 280.631187 93.361253 
L 282.295328 97.59199 
L 283.95947 101.907581 
L 285.623611 106.292192 
L 287.287753 110.730071 
L 288.951894 115.205636 
L 290.616035 119.703558 
L 292.280177 124.208839 
L 293.944318 128.706895 
L 295.60846 133.183618 
L 297.272601 137.625453 
L 298.936742 142.01945 
L 300.600884 146.353326 
L 302.265025 150.615512 
L 303.929167 154.795196 
L 305.593308 158.882363 
L 307.257449 162.867819 
L 308.921591 166.743221 
L 310.585732 170.501093 
L 312.249874 174.134832 
L 313.914015 177.638719 
L 315.578157 181.007912 
L 317.242298 184.23844 
L 318.906439 187.327189 
L 320.570581 190.271882 
L 322.234722 193.071056 
L 323.898864 195.724032 
L 325.563005 198.230882 
L 327.227146 200.59239 
L 328.891288 202.810014 
L 330.555429 204.88584 
L 332.219571 206.822538 
L 333.883712 208.62331 
L 335.547854 210.291844 
L 337.211995 211.832261 
L 338.876136 213.249064 
L 340.540278 214.547086 
L 342.204419 215.73144 
L 343.868561 216.807466 
L 345.532702 217.780682 
L 347.196843 218.65674 
L 348.860985 219.441372 
L 350.525126 220.140351 
L 352.189268 220.75945 
L 353.853409 221.304399 
L 355.517551 221.78085 
L 357.181692 222.194345 
L 358.845833 222.550283 
L 360.509975 222.853894 
L 362.174116 223.110218 
L 363.838258 223.324076 
L 365.502399 223.500063 
L 367.16654 223.642524 
L 368.830682 223.75555 
L 370.494823 223.842966 
L 372.158965 223.908328 
L 373.823106 223.954917 
L 375.487247 223.985743 
L 377.151389 224.003546 
L 378.81553 224.0108 
L 380.479672 224.009721 
L 382.143813 224.002274 
L 383.807955 223.990186 
L 385.472096 223.974954 
L 387.136237 223.95786 
L 388.800379 223.939984 
L 390.46452 223.922217 
L 392.128662 223.90528 
L 393.792803 223.889733 
L 395.456944 223.875995 
L 397.121086 223.864357 
L 398.785227 223.854997 
L 400.449369 223.847995 
L 402.11351 223.843349 
L 403.777652 223.840983 
L 405.441793 223.840766 
L 407.105934 223.84252 
L 408.770076 223.846034 
L 410.434217 223.851069 
L 412.098359 223.857374 
L 413.7625 223.86469 
" style="fill:none;stroke:#ff0000;stroke-linecap:square;stroke-width:1.5;"/>
   </g>
   <g id="line2d_31">
    <path clip-path="url(#pa5df1d923b)" d="M 249.0125 224.018906 
L 250.676641 224.018881 
L 252.340783 224.018494 
L 254.004924 224.016823 
L 255.669066 224.012336 
L 257.333207 224.002907 
L 258.997348 223.98584 
L 260.66149 223.957887 
L 262.325631 223.91528 
L 263.989773 223.853769 
L 265.653914 223.768653 
L 267.318056 223.65483 
L 268.982197 223.506841 
L 270.646338 223.318918 
L 272.31048 223.08504 
L 273.974621 222.798984 
L 275.638763 222.454388 
L 277.302904 222.044804 
L 278.967045 221.563759 
L 280.631187 221.004818 
L 282.295328 220.361638 
L 283.95947 219.628032 
L 285.623611 218.798026 
L 287.287753 217.865913 
L 288.951894 216.826311 
L 290.616035 215.674212 
L 292.280177 214.405032 
L 293.944318 213.014659 
L 295.60846 211.499488 
L 297.272601 209.856469 
L 298.936742 208.08313 
L 300.600884 206.177616 
L 302.265025 204.138706 
L 303.929167 201.965835 
L 305.593308 199.659108 
L 307.257449 197.219311 
L 308.921591 194.647913 
L 310.585732 191.947064 
L 312.249874 189.119592 
L 313.914015 186.168991 
L 315.578157 183.099402 
L 317.242298 179.915597 
L 318.906439 176.622949 
L 320.570581 173.227407 
L 322.234722 169.735462 
L 323.898864 166.154108 
L 325.563005 162.490804 
L 327.227146 158.753431 
L 328.891288 154.950245 
L 330.555429 151.089831 
L 332.219571 147.181054 
L 333.883712 143.233006 
L 335.547854 139.254958 
L 337.211995 135.256302 
L 338.876136 131.246507 
L 340.540278 127.235058 
L 342.204419 123.231412 
L 343.868561 119.244943 
L 345.532702 115.284897 
L 347.196843 111.360339 
L 348.860985 107.480113 
L 350.525126 103.652796 
L 352.189268 99.886661 
L 353.853409 96.189635 
L 355.517551 92.569265 
L 357.181692 89.032691 
L 358.845833 85.586612 
L 360.509975 82.237263 
L 362.174116 78.990395 
L 363.838258 75.851257 
L 365.502399 72.82458 
L 367.16654 69.914565 
L 368.830682 67.124882 
L 370.494823 64.458656 
L 372.158965 61.918476 
L 373.823106 59.506391 
L 375.487247 57.22392 
L 377.151389 55.072055 
L 378.81553 53.051279 
L 380.479672 51.161573 
L 382.143813 49.402434 
L 383.807955 47.772895 
L 385.472096 46.271541 
L 387.136237 44.896527 
L 388.800379 43.645605 
L 390.46452 42.516142 
L 392.128662 41.50514 
L 393.792803 40.609257 
L 395.456944 39.824825 
L 397.121086 39.147868 
L 398.785227 38.57411 
L 400.449369 38.098985 
L 402.11351 37.717631 
L 403.777652 37.424889 
L 405.441793 37.21527 
L 407.105934 37.082924 
L 408.770076 37.02158 
L 410.434217 37.024459 
L 412.098359 37.084156 
L 413.7625 37.192481 
" style="fill:none;stroke:#0000ff;stroke-linecap:square;stroke-width:1.5;"/>
   </g>
   <g id="line2d_32">
    <path clip-path="url(#pa5df1d923b)" d="M 249.0125 224.018906 
L 250.676641 224.018879 
L 252.340783 224.018468 
L 254.004924 224.016689 
L 255.669066 224.011912 
L 257.333207 224.001873 
L 258.997348 223.983696 
L 260.66149 223.953913 
L 262.325631 223.908497 
L 263.989773 223.842898 
L 265.653914 223.752073 
L 267.318056 223.63054 
L 268.982197 223.472417 
L 270.646338 223.271473 
L 272.31048 223.021184 
L 273.974621 222.714789 
L 275.638763 222.345346 
L 277.302904 221.90579 
L 278.967045 221.389001 
L 280.631187 220.787859 
L 282.295328 220.09531 
L 283.95947 219.304429 
L 285.623611 218.408477 
L 287.287753 217.400967 
L 288.951894 216.275719 
L 290.616035 215.026917 
L 292.280177 213.649168 
L 293.944318 212.137545 
L 295.60846 210.487644 
L 297.272601 208.695622 
L 298.936742 206.758242 
L 300.600884 204.672905 
L 302.265025 202.437688 
L 303.929167 200.051365 
L 305.593308 197.513433 
L 307.257449 194.824126 
L 308.921591 191.984431 
L 310.585732 188.996092 
L 312.249874 185.861612 
L 313.914015 182.584248 
L 315.578157 179.168007 
L 317.242298 175.617623 
L 318.906439 171.938549 
L 320.570581 168.136924 
L 322.234722 164.219549 
L 323.898864 160.193853 
L 325.563005 156.067857 
L 327.227146 151.850135 
L 328.891288 147.549766 
L 330.555429 143.176288 
L 332.219571 138.739652 
L 333.883712 134.250164 
L 335.547854 129.718436 
L 337.211995 125.155325 
L 338.876136 120.571881 
L 340.540278 115.979285 
L 342.204419 111.388794 
L 343.868561 106.811681 
L 345.532702 102.259178 
L 347.196843 97.742418 
L 348.860985 93.272382 
L 350.525126 88.859842 
L 352.189268 84.51531 
L 353.853409 80.24899 
L 355.517551 76.070727 
L 357.181692 71.989962 
L 358.845833 68.015697 
L 360.509975 64.156447 
L 362.174116 60.420213 
L 363.838258 56.814446 
L 365.502399 53.346023 
L 367.16654 50.021217 
L 368.830682 46.845684 
L 370.494823 43.824446 
L 372.158965 40.961872 
L 373.823106 38.261679 
L 375.487247 35.726922 
L 377.151389 33.359996 
L 378.81553 31.162637 
L 380.479672 29.135933 
L 382.143813 27.280329 
L 383.807955 25.595643 
L 385.472096 24.081084 
L 387.136237 22.735268 
L 388.800379 21.556243 
L 390.46452 20.541513 
L 392.128662 19.688061 
L 393.792803 18.992384 
L 395.456944 18.450517 
L 397.121086 18.058069 
L 398.785227 17.810255 
L 400.449369 17.701927 
L 402.11351 17.727612 
L 403.777652 17.881549 
L 405.441793 18.157718 
L 407.105934 18.54988 
L 408.770076 19.051615 
L 410.434217 19.656353 
L 412.098359 20.357411 
L 413.7625 21.14803 
" style="fill:none;stroke:#17becf;stroke-linecap:square;stroke-width:1.5;"/>
   </g>
   <g id="line2d_33">
    <path clip-path="url(#pa5df1d923b)" d="M 249.0125 224.018906 
L 250.676641 224.018887 
L 252.340783 224.018594 
L 254.004924 224.017346 
L 255.669066 224.014056 
L 257.333207 224.007316 
L 258.997348 223.995498 
L 260.66149 223.976882 
L 262.325631 223.949792 
L 263.989773 223.912743 
L 265.653914 223.86459 
L 267.318056 223.804664 
L 268.982197 223.732886 
L 270.646338 223.649876 
L 272.31048 223.557004 
L 273.974621 223.456426 
L 275.638763 223.351062 
L 277.302904 223.24454 
L 278.967045 223.141083 
L 280.631187 223.045358 
L 282.295328 222.962275 
L 283.95947 222.896744 
L 285.623611 222.853395 
L 287.287753 222.836285 
L 288.951894 222.84856 
L 290.616035 222.892136 
L 292.280177 222.967356 
L 293.944318 223.072678 
L 295.60846 223.204385 
L 297.272601 223.356323 
L 298.936742 223.519698 
L 300.600884 223.682924 
L 302.265025 223.831537 
L 303.929167 223.94819 
L 305.593308 224.012716 
L 307.257449 224.002287 
L 308.921591 223.891644 
L 310.585732 223.653415 
L 312.249874 223.258516 
L 313.914015 222.676613 
L 315.578157 221.876658 
L 317.242298 220.827459 
L 318.906439 219.498341 
L 320.570581 217.85978 
L 322.234722 215.884035 
L 323.898864 213.545867 
L 325.563005 210.823157 
L 327.227146 207.697504 
L 328.891288 204.154826 
L 330.555429 200.185676 
L 332.219571 195.786124 
L 333.883712 190.957579 
L 335.547854 185.706915 
L 337.211995 180.047175 
L 338.876136 173.99757 
L 340.540278 167.582246 
L 342.204419 160.831871 
L 343.868561 153.781519 
L 345.532702 146.471726 
L 347.196843 138.946733 
L 348.860985 131.25483 
L 350.525126 123.447131 
L 352.189268 115.577216 
L 353.853409 107.700075 
L 355.517551 99.87105 
L 357.181692 92.14566 
L 358.845833 84.578543 
L 360.509975 77.222396 
L 362.174116 70.127629 
L 363.838258 63.341123 
L 365.502399 56.906411 
L 367.16654 50.862446 
L 368.830682 45.243244 
L 370.494823 40.077356 
L 372.158965 35.389106 
L 373.823106 31.196119 
L 375.487247 27.510731 
L 377.151389 24.338231 
L 378.81553 21.678619 
L 380.479672 19.528369 
L 382.143813 17.878669 
L 383.807955 16.711894 
L 385.472096 16.010419 
L 387.136237 15.751331 
L 388.800379 15.909956 
L 390.46452 16.452806 
L 392.128662 17.349919 
L 393.792803 18.566044 
L 395.456944 20.069456 
L 397.121086 21.819619 
L 398.785227 23.784806 
L 400.449369 25.924481 
L 402.11351 28.206919 
L 403.777652 30.593344 
L 405.441793 33.052031 
L 407.105934 35.553019 
L 408.770076 38.061056 
L 410.434217 40.553231 
L 412.098359 42.999581 
L 413.7625 45.377194 
" style="fill:none;stroke:#6495ed;stroke-linecap:square;stroke-width:1.5;"/>
   </g>
   <g id="patch_8">
    <path d="M 249.0125 224.018906 
L 249.0125 12.518906 
" style="fill:none;stroke:#000000;stroke-linecap:square;stroke-linejoin:miter;stroke-width:0.8;"/>
   </g>
   <g id="patch_9">
    <path d="M 413.7625 224.018906 
L 413.7625 12.518906 
" style="fill:none;stroke:#000000;stroke-linecap:square;stroke-linejoin:miter;stroke-width:0.8;"/>
   </g>
   <g id="patch_10">
    <path d="M 249.0125 224.018906 
L 413.7625 224.018906 
" style="fill:none;stroke:#000000;stroke-linecap:square;stroke-linejoin:miter;stroke-width:0.8;"/>
   </g>
   <g id="patch_11">
    <path d="M 249.0125 12.518906 
L 413.7625 12.518906 
" style="fill:none;stroke:#000000;stroke-linecap:square;stroke-linejoin:miter;stroke-width:0.8;"/>
   </g>
  </g>
  <g id="legend_1">
   <g id="line2d_34">
    <path d="M 12.6 92.410547 
L 40.6 92.410547 
" style="fill:none;stroke:#ff0000;stroke-linecap:square;stroke-width:1.5;"/>
   </g>
   <g id="line2d_35"/>
   <g id="text_18">
    <!-- $I_{bright}$ -->
    <g transform="translate(43.4 97.310547)scale(0.14 -0.14)">
     <defs>
      <path d="M 1081 4666 
L 1716 4666 
L 806 0 
L 172 0 
L 1081 4666 
z
" id="DejaVuSans-Oblique-49" transform="scale(0.015625)"/>
      <path d="M 3169 2138 
Q 3169 2591 2961 2847 
Q 2753 3103 2388 3103 
Q 2122 3103 1889 2973 
Q 1656 2844 1484 2597 
Q 1303 2338 1198 1995 
Q 1094 1653 1094 1313 
Q 1094 881 1298 636 
Q 1503 391 1863 391 
Q 2134 391 2365 517 
Q 2597 644 2772 891 
Q 2950 1147 3059 1487 
Q 3169 1828 3169 2138 
z
M 1381 2969 
Q 1594 3256 1914 3420 
Q 2234 3584 2584 3584 
Q 3122 3584 3439 3221 
Q 3756 2859 3756 2241 
Q 3756 1734 3570 1259 
Q 3384 784 3041 416 
Q 2816 172 2522 40 
Q 2228 -91 1906 -91 
Q 1566 -91 1316 65 
Q 1066 222 909 531 
L 806 0 
L 231 0 
L 1178 4863 
L 1753 4863 
L 1381 2969 
z
" id="DejaVuSans-Oblique-62" transform="scale(0.015625)"/>
      <path d="M 2853 2969 
Q 2766 3016 2653 3041 
Q 2541 3066 2413 3066 
Q 1953 3066 1609 2717 
Q 1266 2369 1153 1784 
L 800 0 
L 225 0 
L 909 3500 
L 1484 3500 
L 1375 2956 
Q 1603 3259 1920 3421 
Q 2238 3584 2597 3584 
Q 2691 3584 2781 3573 
Q 2872 3563 2963 3538 
L 2853 2969 
z
" id="DejaVuSans-Oblique-72" transform="scale(0.015625)"/>
      <path d="M 1172 4863 
L 1747 4863 
L 1606 4134 
L 1031 4134 
L 1172 4863 
z
M 909 3500 
L 1484 3500 
L 800 0 
L 225 0 
L 909 3500 
z
" id="DejaVuSans-Oblique-69" transform="scale(0.015625)"/>
      <path d="M 3816 3500 
L 3219 434 
Q 3047 -456 2561 -893 
Q 2075 -1331 1253 -1331 
Q 950 -1331 690 -1286 
Q 431 -1241 206 -1147 
L 313 -588 
Q 525 -725 762 -790 
Q 1000 -856 1269 -856 
Q 1816 -856 2167 -557 
Q 2519 -259 2631 300 
L 2681 563 
Q 2441 288 2122 144 
Q 1803 0 1434 0 
Q 903 0 598 351 
Q 294 703 294 1319 
Q 294 1803 478 2267 
Q 663 2731 997 3091 
Q 1219 3328 1514 3456 
Q 1809 3584 2131 3584 
Q 2484 3584 2746 3420 
Q 3009 3256 3138 2956 
L 3238 3500 
L 3816 3500 
z
M 2950 2216 
Q 2950 2641 2750 2872 
Q 2550 3103 2181 3103 
Q 1953 3103 1747 3012 
Q 1541 2922 1394 2759 
Q 1156 2491 1023 2127 
Q 891 1763 891 1375 
Q 891 944 1092 712 
Q 1294 481 1672 481 
Q 2219 481 2584 976 
Q 2950 1472 2950 2216 
z
" id="DejaVuSans-Oblique-67" transform="scale(0.015625)"/>
      <path d="M 3566 2113 
L 3156 0 
L 2578 0 
L 2988 2091 
Q 3016 2238 3031 2350 
Q 3047 2463 3047 2528 
Q 3047 2791 2881 2937 
Q 2716 3084 2419 3084 
Q 1956 3084 1617 2771 
Q 1278 2459 1178 1941 
L 800 0 
L 225 0 
L 1172 4863 
L 1747 4863 
L 1375 2950 
Q 1594 3244 1934 3414 
Q 2275 3584 2650 3584 
Q 3113 3584 3367 3334 
Q 3622 3084 3622 2631 
Q 3622 2519 3608 2391 
Q 3594 2263 3566 2113 
z
" id="DejaVuSans-Oblique-68" transform="scale(0.015625)"/>
      <path d="M 2706 3500 
L 2619 3053 
L 1472 3053 
L 1100 1153 
Q 1081 1047 1072 975 
Q 1063 903 1063 863 
Q 1063 663 1183 572 
Q 1303 481 1569 481 
L 2150 481 
L 2053 0 
L 1503 0 
Q 991 0 739 200 
Q 488 400 488 806 
Q 488 878 497 964 
Q 506 1050 525 1153 
L 897 3053 
L 409 3053 
L 500 3500 
L 978 3500 
L 1172 4494 
L 1747 4494 
L 1556 3500 
L 2706 3500 
z
" id="DejaVuSans-Oblique-74" transform="scale(0.015625)"/>
     </defs>
     <use transform="translate(0 0.09375)" xlink:href="#DejaVuSans-Oblique-49"/>
     <use transform="translate(29.492188 -16.3125)scale(0.7)" xlink:href="#DejaVuSans-Oblique-62"/>
     <use transform="translate(73.925781 -16.3125)scale(0.7)" xlink:href="#DejaVuSans-Oblique-72"/>
     <use transform="translate(102.705078 -16.3125)scale(0.7)" xlink:href="#DejaVuSans-Oblique-69"/>
     <use transform="translate(122.15332 -16.3125)scale(0.7)" xlink:href="#DejaVuSans-Oblique-67"/>
     <use transform="translate(166.586914 -16.3125)scale(0.7)" xlink:href="#DejaVuSans-Oblique-68"/>
     <use transform="translate(210.952148 -16.3125)scale(0.7)" xlink:href="#DejaVuSans-Oblique-74"/>
    </g>
   </g>
   <g id="line2d_36">
    <path d="M 12.6 110.890547 
L 40.6 110.890547 
" style="fill:none;stroke:#ff0000;stroke-dasharray:5.55,2.4;stroke-dashoffset:0;stroke-width:1.5;"/>
   </g>
   <g id="line2d_37"/>
   <g id="text_19">
    <!-- $|A_G|^2$ -->
    <g transform="translate(43.4 115.790547)scale(0.14 -0.14)">
     <defs>
      <path d="M 1344 4891 
L 1344 -1509 
L 813 -1509 
L 813 4891 
L 1344 4891 
z
" id="DejaVuSans-7c" transform="scale(0.015625)"/>
      <path d="M 2356 4666 
L 3072 4666 
L 3938 0 
L 3278 0 
L 3084 1197 
L 984 1197 
L 325 0 
L -341 0 
L 2356 4666 
z
M 2584 4044 
L 1275 1722 
L 2988 1722 
L 2584 4044 
z
" id="DejaVuSans-Oblique-41" transform="scale(0.015625)"/>
      <path d="M 3494 697 
L 3738 1919 
L 2700 1919 
L 2797 2438 
L 4453 2438 
L 4050 384 
Q 3634 156 3143 32 
Q 2653 -91 2156 -91 
Q 1278 -91 783 396 
Q 288 884 288 1753 
Q 288 2475 589 3126 
Q 891 3778 1422 4213 
Q 1756 4484 2153 4617 
Q 2550 4750 3034 4750 
Q 3472 4750 3873 4639 
Q 4275 4528 4641 4306 
L 4513 3634 
Q 4231 3928 3853 4083 
Q 3475 4238 3047 4238 
Q 2550 4238 2172 4048 
Q 1794 3859 1497 3463 
Q 1244 3125 1098 2667 
Q 953 2209 953 1734 
Q 953 1081 1287 751 
Q 1622 422 2284 422 
Q 2616 422 2925 492 
Q 3234 563 3494 697 
z
" id="DejaVuSans-Oblique-47" transform="scale(0.015625)"/>
     </defs>
     <use transform="translate(0 0.765625)" xlink:href="#DejaVuSans-7c"/>
     <use transform="translate(33.691406 0.765625)" xlink:href="#DejaVuSans-Oblique-41"/>
     <use transform="translate(102.099609 -15.640625)scale(0.7)" xlink:href="#DejaVuSans-Oblique-47"/>
     <use transform="translate(159.077148 0.765625)" xlink:href="#DejaVuSans-7c"/>
     <use transform="translate(193.725586 39.046875)scale(0.7)" xlink:href="#DejaVuSans-32"/>
    </g>
   </g>
   <g id="line2d_38">
    <path d="M 12.6 126.288359 
L 40.6 126.288359 
" style="fill:none;stroke:#0000ff;stroke-linecap:square;stroke-width:1.5;"/>
   </g>
   <g id="line2d_39"/>
   <g id="text_20">
    <!-- $I_{dark}$ -->
    <g transform="translate(43.4 131.188359)scale(0.14 -0.14)">
     <defs>
      <path d="M 2675 525 
Q 2444 222 2128 65 
Q 1813 -91 1428 -91 
Q 903 -91 598 267 
Q 294 625 294 1247 
Q 294 1766 478 2236 
Q 663 2706 1013 3078 
Q 1244 3325 1534 3454 
Q 1825 3584 2144 3584 
Q 2481 3584 2739 3421 
Q 2997 3259 3138 2956 
L 3513 4863 
L 4091 4863 
L 3144 0 
L 2566 0 
L 2675 525 
z
M 891 1350 
Q 891 897 1095 644 
Q 1300 391 1663 391 
Q 1931 391 2161 520 
Q 2391 650 2566 903 
Q 2750 1166 2856 1509 
Q 2963 1853 2963 2188 
Q 2963 2622 2758 2865 
Q 2553 3109 2194 3109 
Q 1922 3109 1687 2981 
Q 1453 2853 1288 2613 
Q 1106 2353 998 2009 
Q 891 1666 891 1350 
z
" id="DejaVuSans-Oblique-64" transform="scale(0.015625)"/>
      <path d="M 3438 1997 
L 3047 0 
L 2472 0 
L 2578 531 
Q 2325 219 2001 64 
Q 1678 -91 1281 -91 
Q 834 -91 548 182 
Q 263 456 263 884 
Q 263 1497 752 1853 
Q 1241 2209 2100 2209 
L 2900 2209 
L 2931 2363 
Q 2938 2388 2941 2417 
Q 2944 2447 2944 2509 
Q 2944 2788 2717 2942 
Q 2491 3097 2081 3097 
Q 1800 3097 1504 3025 
Q 1209 2953 897 2809 
L 997 3341 
Q 1322 3463 1633 3523 
Q 1944 3584 2234 3584 
Q 2853 3584 3176 3315 
Q 3500 3047 3500 2534 
Q 3500 2431 3484 2292 
Q 3469 2153 3438 1997 
z
M 2816 1759 
L 2241 1759 
Q 1534 1759 1195 1570 
Q 856 1381 856 984 
Q 856 709 1029 553 
Q 1203 397 1509 397 
Q 1978 397 2328 733 
Q 2678 1069 2791 1631 
L 2816 1759 
z
" id="DejaVuSans-Oblique-61" transform="scale(0.015625)"/>
      <path d="M 1172 4863 
L 1747 4863 
L 1197 2028 
L 3169 3500 
L 3916 3500 
L 1716 1825 
L 3322 0 
L 2625 0 
L 1131 1709 
L 800 0 
L 225 0 
L 1172 4863 
z
" id="DejaVuSans-Oblique-6b" transform="scale(0.015625)"/>
     </defs>
     <use transform="translate(0 0.09375)" xlink:href="#DejaVuSans-Oblique-49"/>
     <use transform="translate(29.492188 -16.3125)scale(0.7)" xlink:href="#DejaVuSans-Oblique-64"/>
     <use transform="translate(73.925781 -16.3125)scale(0.7)" xlink:href="#DejaVuSans-Oblique-61"/>
     <use transform="translate(116.821289 -16.3125)scale(0.7)" xlink:href="#DejaVuSans-Oblique-72"/>
     <use transform="translate(145.600586 -16.3125)scale(0.7)" xlink:href="#DejaVuSans-Oblique-6b"/>
    </g>
   </g>
   <g id="line2d_40">
    <path d="M 12.6 143.339922 
L 40.6 143.339922 
" style="fill:none;stroke:#0000ff;stroke-dasharray:5.55,2.4;stroke-dashoffset:0;stroke-width:1.5;"/>
   </g>
   <g id="line2d_41"/>
   <g id="text_21">
    <!-- $|1 - A_G|^2$ -->
    <g transform="translate(43.4 148.239922)scale(0.14 -0.14)">
     <defs>
      <path d="M 678 2272 
L 4684 2272 
L 4684 1741 
L 678 1741 
L 678 2272 
z
" id="DejaVuSans-2212" transform="scale(0.015625)"/>
     </defs>
     <use transform="translate(0 0.765625)" xlink:href="#DejaVuSans-7c"/>
     <use transform="translate(33.691406 0.765625)" xlink:href="#DejaVuSans-31"/>
     <use transform="translate(116.796875 0.765625)" xlink:href="#DejaVuSans-2212"/>
     <use transform="translate(220.068359 0.765625)" xlink:href="#DejaVuSans-Oblique-41"/>
     <use transform="translate(288.476562 -15.640625)scale(0.7)" xlink:href="#DejaVuSans-Oblique-47"/>
     <use transform="translate(345.454102 0.765625)" xlink:href="#DejaVuSans-7c"/>
     <use transform="translate(380.102539 39.046875)scale(0.7)" xlink:href="#DejaVuSans-32"/>
    </g>
   </g>
   <g id="line2d_42">
    <path d="M 12.6 158.737734 
L 40.6 158.737734 
" style="fill:none;stroke:#17becf;stroke-linecap:square;stroke-width:1.5;"/>
   </g>
   <g id="line2d_43"/>
   <g id="text_22">
    <!-- $I_{dark,2}$ -->
    <g transform="translate(43.4 163.637734)scale(0.14 -0.14)">
     <defs>
      <path d="M 750 794 
L 1409 794 
L 1409 256 
L 897 -744 
L 494 -744 
L 750 256 
L 750 794 
z
" id="DejaVuSans-2c" transform="scale(0.015625)"/>
     </defs>
     <use transform="translate(0 0.09375)" xlink:href="#DejaVuSans-Oblique-49"/>
     <use transform="translate(29.492188 -16.3125)scale(0.7)" xlink:href="#DejaVuSans-Oblique-64"/>
     <use transform="translate(73.925781 -16.3125)scale(0.7)" xlink:href="#DejaVuSans-Oblique-61"/>
     <use transform="translate(116.821289 -16.3125)scale(0.7)" xlink:href="#DejaVuSans-Oblique-72"/>
     <use transform="translate(145.600586 -16.3125)scale(0.7)" xlink:href="#DejaVuSans-Oblique-6b"/>
     <use transform="translate(186.137695 -16.3125)scale(0.7)" xlink:href="#DejaVuSans-2c"/>
     <use transform="translate(222.026367 -16.3125)scale(0.7)" xlink:href="#DejaVuSans-32"/>
    </g>
   </g>
   <g id="line2d_44">
    <path d="M 12.6 174.275547 
L 40.6 174.275547 
" style="fill:none;stroke:#6495ed;stroke-linecap:square;stroke-width:1.5;"/>
   </g>
   <g id="line2d_45"/>
   <g id="text_23">
    <!-- $I_{dark,3}$ -->
    <g transform="translate(43.4 179.175547)scale(0.14 -0.14)">
     <defs>
      <path d="M 2597 2516 
Q 3050 2419 3304 2112 
Q 3559 1806 3559 1356 
Q 3559 666 3084 287 
Q 2609 -91 1734 -91 
Q 1441 -91 1130 -33 
Q 819 25 488 141 
L 488 750 
Q 750 597 1062 519 
Q 1375 441 1716 441 
Q 2309 441 2620 675 
Q 2931 909 2931 1356 
Q 2931 1769 2642 2001 
Q 2353 2234 1838 2234 
L 1294 2234 
L 1294 2753 
L 1863 2753 
Q 2328 2753 2575 2939 
Q 2822 3125 2822 3475 
Q 2822 3834 2567 4026 
Q 2313 4219 1838 4219 
Q 1578 4219 1281 4162 
Q 984 4106 628 3988 
L 628 4550 
Q 988 4650 1302 4700 
Q 1616 4750 1894 4750 
Q 2613 4750 3031 4423 
Q 3450 4097 3450 3541 
Q 3450 3153 3228 2886 
Q 3006 2619 2597 2516 
z
" id="DejaVuSans-33" transform="scale(0.015625)"/>
     </defs>
     <use transform="translate(0 0.09375)" xlink:href="#DejaVuSans-Oblique-49"/>
     <use transform="translate(29.492188 -16.3125)scale(0.7)" xlink:href="#DejaVuSans-Oblique-64"/>
     <use transform="translate(73.925781 -16.3125)scale(0.7)" xlink:href="#DejaVuSans-Oblique-61"/>
     <use transform="translate(116.821289 -16.3125)scale(0.7)" xlink:href="#DejaVuSans-Oblique-72"/>
     <use transform="translate(145.600586 -16.3125)scale(0.7)" xlink:href="#DejaVuSans-Oblique-6b"/>
     <use transform="translate(186.137695 -16.3125)scale(0.7)" xlink:href="#DejaVuSans-2c"/>
     <use transform="translate(222.026367 -16.3125)scale(0.7)" xlink:href="#DejaVuSans-33"/>
    </g>
   </g>
  </g>
 </g>
 <defs>
  <clipPath id="p8ead47a697">
   <rect height="211.5" width="164.75" x="61.45" y="12.518906"/>
  </clipPath>
  <clipPath id="pa5df1d923b">
   <rect height="211.5" width="164.75" x="249.0125" y="12.518906"/>
  </clipPath>
 </defs>
</svg>
