<?xml version="1.0" encoding="utf-8" standalone="no"?>
<!DOCTYPE svg PUBLIC "-//W3C//DTD SVG 1.1//EN"
  "http://www.w3.org/Graphics/SVG/1.1/DTD/svg11.dtd">
<svg height="355.529375pt" version="1.1" viewBox="0 0 369.446875 355.529375" width="369.446875pt" xmlns="http://www.w3.org/2000/svg" xmlns:xlink="http://www.w3.org/1999/xlink">
 <metadata>
  <rdf:RDF xmlns:cc="http://creativecommons.org/ns#" xmlns:dc="http://purl.org/dc/elements/1.1/" xmlns:rdf="http://www.w3.org/1999/02/22-rdf-syntax-ns#">
   <cc:Work>
    <dc:type rdf:resource="http://purl.org/dc/dcmitype/StillImage"/>
    <dc:date>2022-03-31T09:39:00.463571</dc:date>
    <dc:format>image/svg+xml</dc:format>
    <dc:creator>
     <cc:Agent>
      <dc:title>Matplotlib v3.4.3, https://matplotlib.org/</dc:title>
     </cc:Agent>
    </dc:creator>
   </cc:Work>
  </rdf:RDF>
 </metadata>
 <defs>
  <style type="text/css">*{stroke-linecap:butt;stroke-linejoin:round;}</style>
 </defs>
 <g id="figure_1">
  <g id="patch_1">
   <path d="M 0 355.529375 
L 369.446875 355.529375 
L 369.446875 0 
L 0 0 
z
" style="fill:none;"/>
  </g>
  <g id="axes_1">
   <g id="patch_2">
    <path d="M 45.371875 150.95 
L 196.340625 150.95 
L 196.340625 7.2 
L 45.371875 7.2 
z
" style="fill:#ffffff;"/>
   </g>
   <g id="matplotlib.axis_1">
    <g id="xtick_1">
     <g id="line2d_1">
      <defs>
       <path d="M 0 0 
L 0 3.5 
" id="ma235fc01ac" style="stroke:#000000;stroke-width:0.8;"/>
      </defs>
      <g>
       <use style="stroke:#000000;stroke-width:0.8;" x="45.371875" xlink:href="#ma235fc01ac" y="150.95"/>
      </g>
     </g>
    </g>
    <g id="xtick_2">
     <g id="line2d_2">
      <g>
       <use style="stroke:#000000;stroke-width:0.8;" x="120.85625" xlink:href="#ma235fc01ac" y="150.95"/>
      </g>
     </g>
    </g>
    <g id="xtick_3">
     <g id="line2d_3">
      <g>
       <use style="stroke:#000000;stroke-width:0.8;" x="196.340625" xlink:href="#ma235fc01ac" y="150.95"/>
      </g>
     </g>
    </g>
   </g>
   <g id="matplotlib.axis_2">
    <g id="ytick_1">
     <g id="line2d_4">
      <defs>
       <path d="M 0 0 
L -3.5 0 
" id="ma9f0f91b6c" style="stroke:#000000;stroke-width:0.8;"/>
      </defs>
      <g>
       <use style="stroke:#000000;stroke-width:0.8;" x="45.371875" xlink:href="#ma9f0f91b6c" y="150.95"/>
      </g>
     </g>
     <g id="text_1">
      <!-- 0.00 -->
      <g transform="translate(7.2 156.268906)scale(0.14 -0.14)">
       <defs>
        <path d="M 2034 4250 
Q 1547 4250 1301 3770 
Q 1056 3291 1056 2328 
Q 1056 1369 1301 889 
Q 1547 409 2034 409 
Q 2525 409 2770 889 
Q 3016 1369 3016 2328 
Q 3016 3291 2770 3770 
Q 2525 4250 2034 4250 
z
M 2034 4750 
Q 2819 4750 3233 4129 
Q 3647 3509 3647 2328 
Q 3647 1150 3233 529 
Q 2819 -91 2034 -91 
Q 1250 -91 836 529 
Q 422 1150 422 2328 
Q 422 3509 836 4129 
Q 1250 4750 2034 4750 
z
" id="DejaVuSans-30" transform="scale(0.015625)"/>
        <path d="M 684 794 
L 1344 794 
L 1344 0 
L 684 0 
L 684 794 
z
" id="DejaVuSans-2e" transform="scale(0.015625)"/>
       </defs>
       <use xlink:href="#DejaVuSans-30"/>
       <use x="63.623047" xlink:href="#DejaVuSans-2e"/>
       <use x="95.410156" xlink:href="#DejaVuSans-30"/>
       <use x="159.033203" xlink:href="#DejaVuSans-30"/>
      </g>
     </g>
    </g>
    <g id="ytick_2">
     <g id="line2d_5">
      <g>
       <use style="stroke:#000000;stroke-width:0.8;" x="45.371875" xlink:href="#ma9f0f91b6c" y="119.7"/>
      </g>
     </g>
     <g id="text_2">
      <!-- 0.25 -->
      <g transform="translate(7.2 125.018906)scale(0.14 -0.14)">
       <defs>
        <path d="M 1228 531 
L 3431 531 
L 3431 0 
L 469 0 
L 469 531 
Q 828 903 1448 1529 
Q 2069 2156 2228 2338 
Q 2531 2678 2651 2914 
Q 2772 3150 2772 3378 
Q 2772 3750 2511 3984 
Q 2250 4219 1831 4219 
Q 1534 4219 1204 4116 
Q 875 4013 500 3803 
L 500 4441 
Q 881 4594 1212 4672 
Q 1544 4750 1819 4750 
Q 2544 4750 2975 4387 
Q 3406 4025 3406 3419 
Q 3406 3131 3298 2873 
Q 3191 2616 2906 2266 
Q 2828 2175 2409 1742 
Q 1991 1309 1228 531 
z
" id="DejaVuSans-32" transform="scale(0.015625)"/>
        <path d="M 691 4666 
L 3169 4666 
L 3169 4134 
L 1269 4134 
L 1269 2991 
Q 1406 3038 1543 3061 
Q 1681 3084 1819 3084 
Q 2600 3084 3056 2656 
Q 3513 2228 3513 1497 
Q 3513 744 3044 326 
Q 2575 -91 1722 -91 
Q 1428 -91 1123 -41 
Q 819 9 494 109 
L 494 744 
Q 775 591 1075 516 
Q 1375 441 1709 441 
Q 2250 441 2565 725 
Q 2881 1009 2881 1497 
Q 2881 1984 2565 2268 
Q 2250 2553 1709 2553 
Q 1456 2553 1204 2497 
Q 953 2441 691 2322 
L 691 4666 
z
" id="DejaVuSans-35" transform="scale(0.015625)"/>
       </defs>
       <use xlink:href="#DejaVuSans-30"/>
       <use x="63.623047" xlink:href="#DejaVuSans-2e"/>
       <use x="95.410156" xlink:href="#DejaVuSans-32"/>
       <use x="159.033203" xlink:href="#DejaVuSans-35"/>
      </g>
     </g>
    </g>
    <g id="ytick_3">
     <g id="line2d_6">
      <g>
       <use style="stroke:#000000;stroke-width:0.8;" x="45.371875" xlink:href="#ma9f0f91b6c" y="88.45"/>
      </g>
     </g>
     <g id="text_3">
      <!-- 0.50 -->
      <g transform="translate(7.2 93.768906)scale(0.14 -0.14)">
       <use xlink:href="#DejaVuSans-30"/>
       <use x="63.623047" xlink:href="#DejaVuSans-2e"/>
       <use x="95.410156" xlink:href="#DejaVuSans-35"/>
       <use x="159.033203" xlink:href="#DejaVuSans-30"/>
      </g>
     </g>
    </g>
    <g id="ytick_4">
     <g id="line2d_7">
      <g>
       <use style="stroke:#000000;stroke-width:0.8;" x="45.371875" xlink:href="#ma9f0f91b6c" y="57.2"/>
      </g>
     </g>
     <g id="text_4">
      <!-- 0.75 -->
      <g transform="translate(7.2 62.518906)scale(0.14 -0.14)">
       <defs>
        <path d="M 525 4666 
L 3525 4666 
L 3525 4397 
L 1831 0 
L 1172 0 
L 2766 4134 
L 525 4134 
L 525 4666 
z
" id="DejaVuSans-37" transform="scale(0.015625)"/>
       </defs>
       <use xlink:href="#DejaVuSans-30"/>
       <use x="63.623047" xlink:href="#DejaVuSans-2e"/>
       <use x="95.410156" xlink:href="#DejaVuSans-37"/>
       <use x="159.033203" xlink:href="#DejaVuSans-35"/>
      </g>
     </g>
    </g>
    <g id="ytick_5">
     <g id="line2d_8">
      <g>
       <use style="stroke:#000000;stroke-width:0.8;" x="45.371875" xlink:href="#ma9f0f91b6c" y="25.95"/>
      </g>
     </g>
     <g id="text_5">
      <!-- 1.00 -->
      <g transform="translate(7.2 31.268906)scale(0.14 -0.14)">
       <defs>
        <path d="M 794 531 
L 1825 531 
L 1825 4091 
L 703 3866 
L 703 4441 
L 1819 4666 
L 2450 4666 
L 2450 531 
L 3481 531 
L 3481 0 
L 794 0 
L 794 531 
z
" id="DejaVuSans-31" transform="scale(0.015625)"/>
       </defs>
       <use xlink:href="#DejaVuSans-31"/>
       <use x="63.623047" xlink:href="#DejaVuSans-2e"/>
       <use x="95.410156" xlink:href="#DejaVuSans-30"/>
       <use x="159.033203" xlink:href="#DejaVuSans-30"/>
      </g>
     </g>
    </g>
   </g>
   <g id="line2d_9">
    <path clip-path="url(#p0abe6c05da)" d="M 42.857616 26.998315 
L 45.371875 25.95 
L 47.886134 26.998315 
L 50.400392 30.090802 
L 52.914651 35.074446 
L 55.42891 41.708215 
L 57.943169 49.682381 
L 60.457427 58.642443 
L 62.971686 68.215098 
L 65.485945 78.033618 
L 68.000204 87.760298 
L 70.514462 97.104136 
L 73.028721 105.832685 
L 75.54298 113.777739 
L 78.057238 120.835229 
L 80.571497 126.96029 
L 83.085756 132.158767 
L 85.600015 136.476605 
L 88.114273 139.98849 
L 90.628532 142.786899 
L 93.142791 144.972427 
L 95.657049 146.64593 
L 98.171308 147.902675 
L 100.685567 148.8285 
L 103.199826 149.497715 
L 105.714084 149.972434 
L 108.228343 150.30297 
L 110.742602 150.528897 
L 113.256861 150.680514 
L 115.771119 150.780422 
L 118.285378 150.845073 
L 120.799637 150.88616 
L 123.313895 150.911807 
L 125.828154 150.927533 
L 128.342413 150.937004 
L 130.856672 150.942608 
L 133.37093 150.945866 
L 135.885189 150.947727 
L 138.399448 150.948771 
L 140.913707 150.949346 
L 143.427965 150.949658 
L 145.942224 150.949824 
L 148.456483 150.949911 
L 150.970741 150.949956 
L 153.485 150.949978 
L 155.999259 150.94999 
L 158.513518 150.949995 
L 161.027776 150.949998 
L 163.542035 150.949999 
L 166.056294 150.95 
L 168.570552 150.95 
L 171.084811 150.95 
L 173.59907 150.95 
L 176.113329 150.95 
L 178.627587 150.95 
L 181.141846 150.95 
L 183.656105 150.95 
L 186.170364 150.95 
L 188.684622 150.95 
L 191.198881 150.95 
L 193.71314 150.95 
L 196.227398 150.95 
L 198.741657 150.95 
" style="fill:none;stroke:#ff0000;stroke-dasharray:5.55,2.4;stroke-dashoffset:0;stroke-width:1.5;"/>
   </g>
   <g id="line2d_10">
    <path clip-path="url(#p0abe6c05da)" d="M 42.857616 28.464873 
L 45.371875 25.96046 
L 47.886134 25.95 
L 50.400392 28.434525 
L 52.914651 33.28275 
L 55.42891 40.241362 
L 57.943169 48.954719 
L 60.457427 58.992032 
L 62.971686 69.879406 
L 65.485945 81.133705 
L 68.000204 92.295166 
L 70.514462 102.955921 
L 73.028721 112.78217 
L 75.54298 121.528496 
L 78.057238 129.043719 
L 80.571497 135.268561 
L 83.085756 140.226182 
L 85.600015 144.007297 
L 88.114273 146.751894 
L 90.628532 148.629747 
L 93.142791 149.821731 
L 95.657049 150.503615 
L 98.171308 150.833502 
L 100.685567 150.94352 
L 103.199826 150.935816 
L 105.714084 150.882391 
L 108.228343 150.828003 
L 110.742602 150.795118 
L 113.256861 150.789868 
L 115.771119 150.808067 
L 118.285378 150.840525 
L 120.799637 150.877179 
L 123.313895 150.909814 
L 125.828154 150.933417 
L 128.342413 150.946375 
L 130.856672 150.949864 
L 133.37093 150.946801 
L 135.885189 150.940705 
L 138.399448 150.93473 
L 140.913707 150.931035 
L 143.427965 150.930537 
L 145.942224 150.933012 
L 148.456483 150.937429 
L 150.970741 150.942403 
L 153.485 150.946625 
L 155.999259 150.949186 
L 158.513518 150.949738 
L 161.027776 150.948486 
L 163.542035 150.946051 
L 166.056294 150.94325 
L 168.570552 150.940873 
L 171.084811 150.939496 
L 173.59907 150.939377 
L 176.113329 150.940445 
L 178.627587 150.942367 
L 181.141846 150.944663 
L 183.656105 150.946848 
L 186.170364 150.948539 
L 188.684622 150.949534 
L 191.198881 150.94983 
L 193.71314 150.949585 
L 196.227398 150.949056 
L 198.741657 150.948517 
" style="fill:none;stroke:#ff0000;stroke-linecap:square;stroke-width:1.5;"/>
   </g>
   <g id="patch_3">
    <path d="M 45.371875 150.95 
L 45.371875 7.2 
" style="fill:none;stroke:#000000;stroke-linecap:square;stroke-linejoin:miter;stroke-width:0.8;"/>
   </g>
   <g id="patch_4">
    <path d="M 196.340625 150.95 
L 196.340625 7.2 
" style="fill:none;stroke:#000000;stroke-linecap:square;stroke-linejoin:miter;stroke-width:0.8;"/>
   </g>
   <g id="patch_5">
    <path d="M 45.371875 150.95 
L 196.340625 150.95 
" style="fill:none;stroke:#000000;stroke-linecap:square;stroke-linejoin:miter;stroke-width:0.8;"/>
   </g>
   <g id="patch_6">
    <path d="M 45.371875 7.2 
L 196.340625 7.2 
" style="fill:none;stroke:#000000;stroke-linecap:square;stroke-linejoin:miter;stroke-width:0.8;"/>
   </g>
  </g>
  <g id="axes_2">
   <g id="patch_7">
    <path d="M 211.278125 150.95 
L 362.246875 150.95 
L 362.246875 7.2 
L 211.278125 7.2 
z
" style="fill:#ffffff;"/>
   </g>
   <g id="matplotlib.axis_3">
    <g id="xtick_4">
     <g id="line2d_11">
      <g>
       <use style="stroke:#000000;stroke-width:0.8;" x="218.140341" xlink:href="#ma235fc01ac" y="150.95"/>
      </g>
     </g>
    </g>
    <g id="xtick_5">
     <g id="line2d_12">
      <g>
       <use style="stroke:#000000;stroke-width:0.8;" x="273.038068" xlink:href="#ma235fc01ac" y="150.95"/>
      </g>
     </g>
    </g>
    <g id="xtick_6">
     <g id="line2d_13">
      <g>
       <use style="stroke:#000000;stroke-width:0.8;" x="327.935795" xlink:href="#ma235fc01ac" y="150.95"/>
      </g>
     </g>
    </g>
   </g>
   <g id="matplotlib.axis_4">
    <g id="ytick_6">
     <g id="line2d_14">
      <g>
       <use style="stroke:#000000;stroke-width:0.8;" x="211.278125" xlink:href="#ma9f0f91b6c" y="150.95"/>
      </g>
     </g>
    </g>
    <g id="ytick_7">
     <g id="line2d_15">
      <g>
       <use style="stroke:#000000;stroke-width:0.8;" x="211.278125" xlink:href="#ma9f0f91b6c" y="119.7"/>
      </g>
     </g>
    </g>
    <g id="ytick_8">
     <g id="line2d_16">
      <g>
       <use style="stroke:#000000;stroke-width:0.8;" x="211.278125" xlink:href="#ma9f0f91b6c" y="88.45"/>
      </g>
     </g>
    </g>
    <g id="ytick_9">
     <g id="line2d_17">
      <g>
       <use style="stroke:#000000;stroke-width:0.8;" x="211.278125" xlink:href="#ma9f0f91b6c" y="57.2"/>
      </g>
     </g>
    </g>
    <g id="ytick_10">
     <g id="line2d_18">
      <g>
       <use style="stroke:#000000;stroke-width:0.8;" x="211.278125" xlink:href="#ma9f0f91b6c" y="25.95"/>
      </g>
     </g>
    </g>
   </g>
   <g id="line2d_19">
    <path clip-path="url(#p2a822c0aaa)" d="M 218.140341 25.96046 
L 220.466516 30.258635 
L 222.792691 42.327814 
L 225.118866 59.920866 
L 227.44504 79.967813 
L 229.771215 99.359256 
L 232.09739 115.669671 
L 234.423565 127.611483 
L 236.74974 135.114163 
L 239.075915 139.05424 
L 241.40209 140.772837 
L 243.728265 141.568971 
L 246.05444 142.336015 
L 248.380614 143.431038 
L 250.706789 144.767731 
L 253.032964 146.043824 
L 255.359139 146.981486 
L 257.685314 147.480226 
L 260.011489 147.639706 
L 262.337664 147.674773 
L 264.663839 147.788347 
L 266.990013 148.073796 
L 269.316188 148.490542 
L 271.642363 148.912739 
L 273.968538 149.214234 
L 276.294713 149.340141 
L 278.620888 149.329371 
L 280.947063 149.282847 
L 283.273238 149.301408 
L 285.599413 149.430686 
L 287.925587 149.642307 
L 290.251762 149.858036 
L 292.577937 149.999378 
L 294.904112 150.032813 
L 297.230287 149.985767 
L 299.556462 149.926738 
L 301.882637 149.923451 
L 304.208812 150.004261 
L 306.534987 150.144524 
L 308.861161 150.284174 
L 311.187336 150.364693 
L 313.513511 150.363236 
L 315.839686 150.30445 
L 318.165861 150.24418 
L 320.492036 150.235703 
L 322.818211 150.29872 
L 325.144386 150.409019 
L 327.47056 150.514148 
L 329.796735 150.565163 
L 332.12291 150.545484 
L 334.449085 150.48004 
L 336.77526 150.419782 
L 339.101435 150.411132 
L 341.42761 150.468574 
L 343.753785 150.566471 
L 346.07996 150.654705 
L 348.406134 150.688693 
L 350.732309 150.655941 
L 353.058484 150.583461 
L 355.384659 150.521711 
" style="fill:none;stroke:#ff0000;stroke-linecap:square;stroke-width:1.5;"/>
   </g>
   <g id="line2d_20">
    <path clip-path="url(#p2a822c0aaa)" d="M 218.140341 25.95 
L 220.466516 30.478065 
L 222.792691 42.286874 
L 225.118866 57.546145 
L 227.44504 72.892175 
L 229.771215 86.505432 
L 232.09739 97.828543 
L 234.423565 106.962507 
L 236.74974 114.244754 
L 239.075915 120.043607 
L 241.40209 124.681802 
L 243.728265 128.419005 
L 246.05444 131.456495 
L 248.380614 133.947925 
L 250.706789 136.010119 
L 253.032964 137.732086 
L 255.359139 139.182006 
L 257.685314 140.412477 
L 260.011489 141.46441 
L 262.337664 142.369884 
L 264.663839 143.154272 
L 266.990013 143.837807 
L 269.316188 144.436751 
L 271.642363 144.964277 
L 273.968538 145.431131 
L 276.294713 145.846144 
L 278.620888 146.216617 
L 280.947063 146.548628 
L 283.273238 146.847263 
L 285.599413 147.116805 
L 287.925587 147.360877 
L 290.251762 147.582561 
L 292.577937 147.784491 
L 294.904112 147.968927 
L 297.230287 148.137819 
L 299.556462 148.292852 
L 301.882637 148.435493 
L 304.208812 148.567019 
L 306.534987 148.68855 
L 308.861161 148.801067 
L 311.187336 148.905435 
L 313.513511 149.002418 
L 315.839686 149.092695 
L 318.165861 149.176865 
L 320.492036 149.255466 
L 322.818211 149.328976 
L 325.144386 149.397824 
L 327.47056 149.462394 
L 329.796735 149.523031 
L 332.12291 149.580049 
L 334.449085 149.633728 
L 336.77526 149.684323 
L 339.101435 149.732065 
L 341.42761 149.777164 
L 343.753785 149.819811 
L 346.07996 149.86018 
L 348.406134 149.89843 
L 350.732309 149.934706 
L 353.058484 149.969142 
L 355.384659 150.00186 
" style="fill:none;stroke:#ff0000;stroke-dasharray:5.55,2.4;stroke-dashoffset:0;stroke-width:1.5;"/>
   </g>
   <g id="patch_8">
    <path d="M 211.278125 150.95 
L 211.278125 7.2 
" style="fill:none;stroke:#000000;stroke-linecap:square;stroke-linejoin:miter;stroke-width:0.8;"/>
   </g>
   <g id="patch_9">
    <path d="M 362.246875 150.95 
L 362.246875 7.2 
" style="fill:none;stroke:#000000;stroke-linecap:square;stroke-linejoin:miter;stroke-width:0.8;"/>
   </g>
   <g id="patch_10">
    <path d="M 211.278125 150.95 
L 362.246875 150.95 
" style="fill:none;stroke:#000000;stroke-linecap:square;stroke-linejoin:miter;stroke-width:0.8;"/>
   </g>
   <g id="patch_11">
    <path d="M 211.278125 7.2 
L 362.246875 7.2 
" style="fill:none;stroke:#000000;stroke-linecap:square;stroke-linejoin:miter;stroke-width:0.8;"/>
   </g>
  </g>
  <g id="axes_3">
   <g id="patch_12">
    <path d="M 45.371875 310.2 
L 196.340625 310.2 
L 196.340625 166.45 
L 45.371875 166.45 
z
" style="fill:#ffffff;"/>
   </g>
   <g id="matplotlib.axis_5">
    <g id="xtick_7">
     <g id="line2d_21">
      <g>
       <use style="stroke:#000000;stroke-width:0.8;" x="45.371875" xlink:href="#ma235fc01ac" y="310.2"/>
      </g>
     </g>
     <g id="text_6">
      <!-- 0 -->
      <g transform="translate(40.918125 327.837812)scale(0.14 -0.14)">
       <use xlink:href="#DejaVuSans-30"/>
      </g>
     </g>
    </g>
    <g id="xtick_8">
     <g id="line2d_22">
      <g>
       <use style="stroke:#000000;stroke-width:0.8;" x="120.85625" xlink:href="#ma235fc01ac" y="310.2"/>
      </g>
     </g>
     <g id="text_7">
      <!-- 2 -->
      <g transform="translate(116.4025 327.837812)scale(0.14 -0.14)">
       <use xlink:href="#DejaVuSans-32"/>
      </g>
     </g>
    </g>
    <g id="xtick_9">
     <g id="line2d_23">
      <g>
       <use style="stroke:#000000;stroke-width:0.8;" x="196.340625" xlink:href="#ma235fc01ac" y="310.2"/>
      </g>
     </g>
     <g id="text_8">
      <!-- 4 -->
      <g transform="translate(191.886875 327.837812)scale(0.14 -0.14)">
       <defs>
        <path d="M 2419 4116 
L 825 1625 
L 2419 1625 
L 2419 4116 
z
M 2253 4666 
L 3047 4666 
L 3047 1625 
L 3713 1625 
L 3713 1100 
L 3047 1100 
L 3047 0 
L 2419 0 
L 2419 1100 
L 313 1100 
L 313 1709 
L 2253 4666 
z
" id="DejaVuSans-34" transform="scale(0.015625)"/>
       </defs>
       <use xlink:href="#DejaVuSans-34"/>
      </g>
     </g>
    </g>
    <g id="text_9">
     <!-- $\rho_2$ [$\mathrm{\mu m}$] -->
     <g transform="translate(94.11625 345.389375)scale(0.14 -0.14)">
      <defs>
       <path d="M 1203 2875 
Q 1453 3194 1981 3475 
Q 2188 3584 2756 3584 
Q 3394 3584 3694 3078 
Q 3994 2572 3834 1747 
Q 3672 922 3175 415 
Q 2678 -91 2041 -91 
Q 1656 -91 1409 63 
Q 1163 213 1044 525 
L 681 -1331 
L 103 -1331 
L 697 1716 
Q 838 2438 1203 2875 
z
M 3238 1747 
Q 3359 2381 3169 2744 
Q 2978 3103 2522 3103 
Q 2066 3103 1734 2744 
Q 1403 2381 1281 1747 
Q 1156 1113 1347 750 
Q 1538 391 1994 391 
Q 2450 391 2781 750 
Q 3113 1113 3238 1747 
z
" id="DejaVuSans-Oblique-3c1" transform="scale(0.015625)"/>
       <path id="DejaVuSans-20" transform="scale(0.015625)"/>
       <path d="M 550 4863 
L 1875 4863 
L 1875 4416 
L 1125 4416 
L 1125 -397 
L 1875 -397 
L 1875 -844 
L 550 -844 
L 550 4863 
z
" id="DejaVuSans-5b" transform="scale(0.015625)"/>
       <path d="M 544 -1331 
L 544 3500 
L 1119 3500 
L 1119 1325 
Q 1119 872 1334 640 
Q 1550 409 1972 409 
Q 2434 409 2667 671 
Q 2900 934 2900 1459 
L 2900 3500 
L 3475 3500 
L 3475 806 
Q 3475 619 3529 530 
Q 3584 441 3700 441 
Q 3728 441 3778 458 
Q 3828 475 3916 513 
L 3916 50 
Q 3788 -22 3673 -56 
Q 3559 -91 3450 -91 
Q 3234 -91 3106 31 
Q 2978 153 2931 403 
Q 2775 156 2548 32 
Q 2322 -91 2016 -91 
Q 1697 -91 1473 31 
Q 1250 153 1119 397 
L 1119 -1331 
L 544 -1331 
z
" id="DejaVuSans-3bc" transform="scale(0.015625)"/>
       <path d="M 3328 2828 
Q 3544 3216 3844 3400 
Q 4144 3584 4550 3584 
Q 5097 3584 5394 3201 
Q 5691 2819 5691 2113 
L 5691 0 
L 5113 0 
L 5113 2094 
Q 5113 2597 4934 2840 
Q 4756 3084 4391 3084 
Q 3944 3084 3684 2787 
Q 3425 2491 3425 1978 
L 3425 0 
L 2847 0 
L 2847 2094 
Q 2847 2600 2669 2842 
Q 2491 3084 2119 3084 
Q 1678 3084 1418 2786 
Q 1159 2488 1159 1978 
L 1159 0 
L 581 0 
L 581 3500 
L 1159 3500 
L 1159 2956 
Q 1356 3278 1631 3431 
Q 1906 3584 2284 3584 
Q 2666 3584 2933 3390 
Q 3200 3197 3328 2828 
z
" id="DejaVuSans-6d" transform="scale(0.015625)"/>
       <path d="M 1947 4863 
L 1947 -844 
L 622 -844 
L 622 -397 
L 1369 -397 
L 1369 4416 
L 622 4416 
L 622 4863 
L 1947 4863 
z
" id="DejaVuSans-5d" transform="scale(0.015625)"/>
      </defs>
      <use transform="translate(0 0.015625)" xlink:href="#DejaVuSans-Oblique-3c1"/>
      <use transform="translate(63.476562 -16.390625)scale(0.7)" xlink:href="#DejaVuSans-32"/>
      <use transform="translate(110.74707 0.015625)" xlink:href="#DejaVuSans-20"/>
      <use transform="translate(142.53418 0.015625)" xlink:href="#DejaVuSans-5b"/>
      <use transform="translate(181.547852 0.015625)" xlink:href="#DejaVuSans-3bc"/>
      <use transform="translate(245.170898 0.015625)" xlink:href="#DejaVuSans-6d"/>
      <use transform="translate(342.583008 0.015625)" xlink:href="#DejaVuSans-5d"/>
     </g>
    </g>
   </g>
   <g id="matplotlib.axis_6">
    <g id="ytick_11">
     <g id="line2d_24">
      <g>
       <use style="stroke:#000000;stroke-width:0.8;" x="45.371875" xlink:href="#ma9f0f91b6c" y="310.2"/>
      </g>
     </g>
     <g id="text_10">
      <!-- 0.00 -->
      <g transform="translate(7.2 315.518906)scale(0.14 -0.14)">
       <use xlink:href="#DejaVuSans-30"/>
       <use x="63.623047" xlink:href="#DejaVuSans-2e"/>
       <use x="95.410156" xlink:href="#DejaVuSans-30"/>
       <use x="159.033203" xlink:href="#DejaVuSans-30"/>
      </g>
     </g>
    </g>
    <g id="ytick_12">
     <g id="line2d_25">
      <g>
       <use style="stroke:#000000;stroke-width:0.8;" x="45.371875" xlink:href="#ma9f0f91b6c" y="278.95"/>
      </g>
     </g>
     <g id="text_11">
      <!-- 0.25 -->
      <g transform="translate(7.2 284.268906)scale(0.14 -0.14)">
       <use xlink:href="#DejaVuSans-30"/>
       <use x="63.623047" xlink:href="#DejaVuSans-2e"/>
       <use x="95.410156" xlink:href="#DejaVuSans-32"/>
       <use x="159.033203" xlink:href="#DejaVuSans-35"/>
      </g>
     </g>
    </g>
    <g id="ytick_13">
     <g id="line2d_26">
      <g>
       <use style="stroke:#000000;stroke-width:0.8;" x="45.371875" xlink:href="#ma9f0f91b6c" y="247.7"/>
      </g>
     </g>
     <g id="text_12">
      <!-- 0.50 -->
      <g transform="translate(7.2 253.018906)scale(0.14 -0.14)">
       <use xlink:href="#DejaVuSans-30"/>
       <use x="63.623047" xlink:href="#DejaVuSans-2e"/>
       <use x="95.410156" xlink:href="#DejaVuSans-35"/>
       <use x="159.033203" xlink:href="#DejaVuSans-30"/>
      </g>
     </g>
    </g>
    <g id="ytick_14">
     <g id="line2d_27">
      <g>
       <use style="stroke:#000000;stroke-width:0.8;" x="45.371875" xlink:href="#ma9f0f91b6c" y="216.45"/>
      </g>
     </g>
     <g id="text_13">
      <!-- 0.75 -->
      <g transform="translate(7.2 221.768906)scale(0.14 -0.14)">
       <use xlink:href="#DejaVuSans-30"/>
       <use x="63.623047" xlink:href="#DejaVuSans-2e"/>
       <use x="95.410156" xlink:href="#DejaVuSans-37"/>
       <use x="159.033203" xlink:href="#DejaVuSans-35"/>
      </g>
     </g>
    </g>
    <g id="ytick_15">
     <g id="line2d_28">
      <g>
       <use style="stroke:#000000;stroke-width:0.8;" x="45.371875" xlink:href="#ma9f0f91b6c" y="185.2"/>
      </g>
     </g>
     <g id="text_14">
      <!-- 1.00 -->
      <g transform="translate(7.2 190.518906)scale(0.14 -0.14)">
       <use xlink:href="#DejaVuSans-31"/>
       <use x="63.623047" xlink:href="#DejaVuSans-2e"/>
       <use x="95.410156" xlink:href="#DejaVuSans-30"/>
       <use x="159.033203" xlink:href="#DejaVuSans-30"/>
      </g>
     </g>
    </g>
   </g>
   <g id="line2d_29">
    <path clip-path="url(#pf5038912a3)" d="M 42.857616 310.197786 
L 45.371875 310.199993 
L 47.886134 310.197786 
L 50.400392 310.165121 
L 52.914651 310.027113 
L 55.42891 309.66934 
L 57.943169 308.951952 
L 60.457427 307.726743 
L 62.971686 305.854993 
L 65.485945 303.223896 
L 68.000204 299.759701 
L 70.514462 295.436224 
L 73.028721 290.278081 
L 75.54298 284.358698 
L 78.057238 277.793768 
L 80.571497 270.731316 
L 83.085756 263.339757 
L 85.600015 255.795387 
L 88.114273 248.270613 
L 90.628532 240.923916 
L 93.142791 233.892223 
L 95.657049 227.285965 
L 98.171308 221.186795 
L 100.685567 215.647655 
L 103.199826 210.694751 
L 105.714084 206.330868 
L 108.228343 202.539498 
L 110.742602 199.289289 
L 113.256861 196.538406 
L 115.771119 194.238521 
L 118.285378 192.338249 
L 120.799637 190.785927 
L 123.313895 189.531737 
L 125.828154 188.529199 
L 128.342413 187.73612 
L 130.856672 187.115083 
L 133.37093 186.633586 
L 135.885189 186.263906 
L 138.399448 185.982793 
L 140.913707 185.771048 
L 143.427965 185.613041 
L 145.942224 185.496225 
L 148.456483 185.410651 
L 150.970741 185.348535 
L 153.485 185.303853 
L 155.999259 185.272002 
L 158.513518 185.249499 
L 161.027776 185.233744 
L 163.542035 185.22281 
L 166.056294 185.21529 
L 168.570552 185.210163 
L 171.084811 185.206698 
L 173.59907 185.204378 
L 176.113329 185.202837 
L 178.627587 185.201823 
L 181.141846 185.201162 
L 183.656105 185.200734 
L 186.170364 185.20046 
L 188.684622 185.200286 
L 191.198881 185.200176 
L 193.71314 185.200108 
L 196.227398 185.200065 
L 198.741657 185.200039 
" style="fill:none;stroke:#0000ff;stroke-dasharray:5.55,2.4;stroke-dashoffset:0;stroke-width:1.5;"/>
   </g>
   <g id="line2d_30">
    <path clip-path="url(#pf5038912a3)" d="M 42.857616 310.167444 
L 45.371875 310.194815 
L 47.886134 310.194815 
L 50.400392 310.167444 
L 52.914651 310.044204 
L 55.42891 309.69622 
L 57.943169 308.949552 
L 60.457427 307.605946 
L 62.971686 305.466668 
L 65.485945 302.356756 
L 68.000204 298.147017 
L 70.514462 292.771426 
L 73.028721 286.238145 
L 75.54298 278.633151 
L 78.057238 270.116313 
L 80.571497 260.910571 
L 83.085756 251.285581 
L 85.600015 241.537699 
L 88.114273 231.968444 
L 90.628532 222.863561 
L 93.142791 214.474605 
L 95.657049 207.00453 
L 98.171308 200.598197 
L 100.685567 195.338173 
L 103.199826 191.245588 
L 105.714084 188.285375 
L 108.228343 186.374871 
L 110.742602 185.394597 
L 113.256861 185.2 
L 115.771119 185.633061 
L 118.285378 186.532896 
L 120.799637 187.744717 
L 123.313895 189.126823 
L 125.828154 190.555544 
L 128.342413 191.928233 
L 130.856672 193.164582 
L 133.37093 194.206571 
L 135.885189 195.017387 
L 138.399448 195.579616 
L 140.913707 195.89295 
L 143.427965 195.971586 
L 145.942224 195.841457 
L 148.456483 195.537359 
L 150.970741 195.100069 
L 153.485 194.573497 
L 155.999259 194.001965 
L 158.513518 193.427689 
L 161.027776 192.88857 
L 163.542035 192.416383 
L 166.056294 192.035456 
L 168.570552 191.761878 
L 171.084811 191.603278 
L 173.59907 191.559138 
L 176.113329 191.621594 
L 178.627587 191.776628 
L 181.141846 192.005543 
L 183.656105 192.286592 
L 186.170364 192.596643 
L 188.684622 192.91277 
L 191.198881 193.213671 
L 193.71314 193.480852 
L 196.227398 193.699526 
L 198.741657 193.859209 
" style="fill:none;stroke:#0000ff;stroke-linecap:square;stroke-width:1.5;"/>
   </g>
   <g id="line2d_31">
    <path clip-path="url(#pf5038912a3)" d="M 42.857616 309.758716 
L 45.371875 309.82799 
L 47.886134 309.827991 
L 50.400392 309.758718 
L 52.914651 309.603438 
L 55.42891 309.329708 
L 57.943169 308.891374 
L 60.457427 308.231423 
L 62.971686 307.28553 
L 65.485945 305.986107 
L 68.000204 304.266616 
L 70.514462 302.065926 
L 73.028721 299.33245 
L 75.54298 296.027864 
L 78.057238 292.130183 
L 80.571497 287.636046 
L 83.085756 282.562097 
L 85.600015 276.945376 
L 88.114273 270.842736 
L 90.628532 264.329303 
L 93.142791 257.496083 
L 95.657049 250.446845 
L 98.171308 243.29445 
L 100.685567 236.156809 
L 103.199826 229.152693 
L 105.714084 222.397568 
L 108.228343 215.999681 
L 110.742602 210.056546 
L 113.256861 204.651987 
L 115.771119 199.853835 
L 118.285378 195.71236 
L 120.799637 192.259453 
L 123.313895 189.508561 
L 125.828154 187.455309 
L 128.342413 186.078749 
L 130.856672 185.34312 
L 133.37093 185.2 
L 135.885189 185.59073 
L 138.399448 186.448973 
L 140.913707 187.703284 
L 143.427965 189.27959 
L 145.942224 191.103477 
L 148.456483 193.102223 
L 150.970741 195.206516 
L 153.485 197.351847 
L 155.999259 199.479554 
L 158.513518 201.53755 
L 161.027776 203.48075 
L 163.542035 205.271239 
L 166.056294 206.878236 
L 168.570552 208.277889 
L 171.084811 209.452955 
L 173.59907 210.392408 
L 176.113329 211.091004 
L 178.627587 211.548831 
L 181.141846 211.77086 
L 183.656105 211.766512 
L 186.170364 211.549225 
L 188.684622 211.13603 
L 191.198881 210.547125 
L 193.71314 209.805426 
L 196.227398 208.936095 
L 198.741657 207.966034 
" style="fill:none;stroke:#17becf;stroke-linecap:square;stroke-width:1.5;"/>
   </g>
   <g id="patch_13">
    <path d="M 45.371875 310.2 
L 45.371875 166.45 
" style="fill:none;stroke:#000000;stroke-linecap:square;stroke-linejoin:miter;stroke-width:0.8;"/>
   </g>
   <g id="patch_14">
    <path d="M 196.340625 310.2 
L 196.340625 166.45 
" style="fill:none;stroke:#000000;stroke-linecap:square;stroke-linejoin:miter;stroke-width:0.8;"/>
   </g>
   <g id="patch_15">
    <path d="M 45.371875 310.2 
L 196.340625 310.2 
" style="fill:none;stroke:#000000;stroke-linecap:square;stroke-linejoin:miter;stroke-width:0.8;"/>
   </g>
   <g id="patch_16">
    <path d="M 45.371875 166.45 
L 196.340625 166.45 
" style="fill:none;stroke:#000000;stroke-linecap:square;stroke-linejoin:miter;stroke-width:0.8;"/>
   </g>
  </g>
  <g id="axes_4">
   <g id="patch_17">
    <path d="M 211.278125 310.2 
L 362.246875 310.2 
L 362.246875 166.45 
L 211.278125 166.45 
z
" style="fill:#ffffff;"/>
   </g>
   <g id="matplotlib.axis_7">
    <g id="xtick_10">
     <g id="line2d_32">
      <g>
       <use style="stroke:#000000;stroke-width:0.8;" x="218.140341" xlink:href="#ma235fc01ac" y="310.2"/>
      </g>
     </g>
     <g id="text_15">
      <!-- 0 -->
      <g transform="translate(213.686591 327.837812)scale(0.14 -0.14)">
       <use xlink:href="#DejaVuSans-30"/>
      </g>
     </g>
    </g>
    <g id="xtick_11">
     <g id="line2d_33">
      <g>
       <use style="stroke:#000000;stroke-width:0.8;" x="273.038068" xlink:href="#ma235fc01ac" y="310.2"/>
      </g>
     </g>
     <g id="text_16">
      <!-- 20 -->
      <g transform="translate(264.130568 327.837812)scale(0.14 -0.14)">
       <use xlink:href="#DejaVuSans-32"/>
       <use x="63.623047" xlink:href="#DejaVuSans-30"/>
      </g>
     </g>
    </g>
    <g id="xtick_12">
     <g id="line2d_34">
      <g>
       <use style="stroke:#000000;stroke-width:0.8;" x="327.935795" xlink:href="#ma235fc01ac" y="310.2"/>
      </g>
     </g>
     <g id="text_17">
      <!-- 40 -->
      <g transform="translate(319.028295 327.837812)scale(0.14 -0.14)">
       <use xlink:href="#DejaVuSans-34"/>
       <use x="63.623047" xlink:href="#DejaVuSans-30"/>
      </g>
     </g>
    </g>
    <g id="text_18">
     <!-- $z_2$ [$\mathrm{\mu m}$] -->
     <g transform="translate(260.7925 345.389375)scale(0.14 -0.14)">
      <defs>
       <path d="M 744 3500 
L 3475 3500 
L 3372 2975 
L 738 459 
L 2913 459 
L 2822 0 
L -19 0 
L 84 525 
L 2719 3041 
L 653 3041 
L 744 3500 
z
" id="DejaVuSans-Oblique-7a" transform="scale(0.015625)"/>
      </defs>
      <use transform="translate(0 0.015625)" xlink:href="#DejaVuSans-Oblique-7a"/>
      <use transform="translate(52.490234 -16.390625)scale(0.7)" xlink:href="#DejaVuSans-32"/>
      <use transform="translate(99.760742 0.015625)" xlink:href="#DejaVuSans-20"/>
      <use transform="translate(131.547852 0.015625)" xlink:href="#DejaVuSans-5b"/>
      <use transform="translate(170.561523 0.015625)" xlink:href="#DejaVuSans-3bc"/>
      <use transform="translate(234.18457 0.015625)" xlink:href="#DejaVuSans-6d"/>
      <use transform="translate(331.59668 0.015625)" xlink:href="#DejaVuSans-5d"/>
     </g>
    </g>
   </g>
   <g id="matplotlib.axis_8">
    <g id="ytick_16">
     <g id="line2d_35">
      <g>
       <use style="stroke:#000000;stroke-width:0.8;" x="211.278125" xlink:href="#ma9f0f91b6c" y="310.2"/>
      </g>
     </g>
    </g>
    <g id="ytick_17">
     <g id="line2d_36">
      <g>
       <use style="stroke:#000000;stroke-width:0.8;" x="211.278125" xlink:href="#ma9f0f91b6c" y="278.95"/>
      </g>
     </g>
    </g>
    <g id="ytick_18">
     <g id="line2d_37">
      <g>
       <use style="stroke:#000000;stroke-width:0.8;" x="211.278125" xlink:href="#ma9f0f91b6c" y="247.7"/>
      </g>
     </g>
    </g>
    <g id="ytick_19">
     <g id="line2d_38">
      <g>
       <use style="stroke:#000000;stroke-width:0.8;" x="211.278125" xlink:href="#ma9f0f91b6c" y="216.45"/>
      </g>
     </g>
    </g>
    <g id="ytick_20">
     <g id="line2d_39">
      <g>
       <use style="stroke:#000000;stroke-width:0.8;" x="211.278125" xlink:href="#ma9f0f91b6c" y="185.2"/>
      </g>
     </g>
    </g>
   </g>
   <g id="line2d_40">
    <path clip-path="url(#p41d6371a81)" d="M 218.140341 310.194815 
L 220.466516 303.150268 
L 222.792691 284.014746 
L 225.118866 258.0385 
L 227.44504 231.813282 
L 229.771215 210.991833 
L 232.09739 198.559194 
L 234.423565 194.290824 
L 236.74974 195.485289 
L 239.075915 198.51389 
L 241.40209 200.433733 
L 243.728265 199.979563 
L 246.05444 197.618557 
L 248.380614 194.819583 
L 250.706789 193.02425 
L 253.032964 192.866743 
L 255.359139 193.977921 
L 257.685314 195.363947 
L 260.011489 196.059811 
L 262.337664 195.662749 
L 264.663839 194.473818 
L 266.990013 193.225753 
L 269.316188 192.603929 
L 271.642363 192.854949 
L 273.968538 193.692966 
L 276.294713 194.52277 
L 278.620888 194.817886 
L 280.947063 194.420834 
L 283.273238 193.600316 
L 285.599413 192.855046 
L 287.925587 192.600565 
L 290.251762 192.931056 
L 292.577937 193.5887 
L 294.904112 194.142099 
L 297.230287 194.253538 
L 299.556462 193.872018 
L 301.882637 193.244014 
L 304.208812 192.747998 
L 306.534987 192.661656 
L 308.861161 193.003183 
L 311.187336 193.535689 
L 313.513511 193.922417 
L 315.839686 193.932347 
L 318.165861 193.571798 
L 320.492036 193.068172 
L 322.818211 192.723292 
L 325.144386 192.729976 
L 327.47056 193.062444 
L 329.796735 193.501976 
L 332.12291 193.77614 
L 334.449085 193.723605 
L 336.77526 193.385445 
L 339.101435 192.971904 
L 341.42761 192.729805 
L 343.753785 192.793703 
L 346.07996 193.110063 
L 348.406134 193.47665 
L 350.732309 193.669065 
L 353.058484 193.575644 
L 355.384659 193.259974 
" style="fill:none;stroke:#0000ff;stroke-linecap:square;stroke-width:1.5;"/>
   </g>
   <g id="line2d_41">
    <path clip-path="url(#p41d6371a81)" d="M 220.466516 305.671935 
L 222.792691 293.863126 
L 225.118866 278.603855 
L 227.44504 263.257825 
L 229.771215 249.644568 
L 232.09739 238.321457 
L 234.423565 229.187493 
L 236.74974 221.905246 
L 239.075915 216.106393 
L 241.40209 211.468198 
L 243.728265 207.730995 
L 246.05444 204.693505 
L 248.380614 202.202075 
L 250.706789 200.139881 
L 253.032964 198.417914 
L 255.359139 196.967994 
L 257.685314 195.737523 
L 260.011489 194.68559 
L 262.337664 193.780116 
L 264.663839 192.995728 
L 266.990013 192.312193 
L 269.316188 191.713249 
L 271.642363 191.185723 
L 273.968538 190.718869 
L 276.294713 190.303856 
L 278.620888 189.933383 
L 280.947063 189.601372 
L 283.273238 189.302737 
L 285.599413 189.033195 
L 287.925587 188.789123 
L 290.251762 188.567439 
L 292.577937 188.365509 
L 294.904112 188.181073 
L 297.230287 188.012181 
L 299.556462 187.857148 
L 301.882637 187.714507 
L 304.208812 187.582981 
L 306.534987 187.46145 
L 308.861161 187.348933 
L 311.187336 187.244565 
L 313.513511 187.147582 
L 315.839686 187.057305 
L 318.165861 186.973135 
L 320.492036 186.894534 
L 322.818211 186.821024 
L 325.144386 186.752176 
L 327.47056 186.687606 
L 329.796735 186.626969 
L 332.12291 186.569951 
L 334.449085 186.516272 
L 336.77526 186.465677 
L 339.101435 186.417935 
L 341.42761 186.372836 
L 343.753785 186.330189 
L 346.07996 186.28982 
L 348.406134 186.25157 
L 350.732309 186.215294 
L 353.058484 186.180858 
L 355.384659 186.14814 
" style="fill:none;stroke:#0000ff;stroke-dasharray:5.55,2.4;stroke-dashoffset:0;stroke-width:1.5;"/>
   </g>
   <g id="line2d_42">
    <path clip-path="url(#p41d6371a81)" d="M 218.140341 309.82799 
L 220.466516 307.883209 
L 222.792691 302.1731 
L 225.118866 293.045165 
L 227.44504 281.050727 
L 229.771215 266.905826 
L 232.09739 251.440769 
L 234.423565 235.542192 
L 236.74974 220.092044 
L 239.075915 205.908091 
L 241.40209 193.690349 
L 243.728265 183.977364 
L 246.05444 177.115406 
L 248.380614 173.242606 
L 250.706789 172.288836 
L 253.032964 173.990932 
L 255.359139 177.921621 
L 257.685314 183.529517 
L 260.011489 190.186723 
L 262.337664 197.240088 
L 264.663839 204.061995 
L 266.990013 210.096703 
L 269.316188 214.898765 
L 271.642363 218.1608 
L 273.968538 219.728834 
L 276.294713 219.604521 
L 278.620888 217.934626 
L 280.947063 214.989215 
L 283.273238 211.130847 
L 285.599413 206.777739 
L 287.925587 202.364255 
L 290.251762 198.302168 
L 292.577937 194.945938 
L 294.904112 192.564774 
L 297.230287 191.323571 
L 299.556462 191.273949 
L 301.882637 192.355716 
L 304.208812 194.408157 
L 306.534987 197.189711 
L 308.861161 200.403935 
L 311.187336 203.729173 
L 313.513511 206.849137 
L 315.839686 209.481618 
L 318.165861 211.402843 
L 320.492036 212.465449 
L 322.818211 212.608724 
L 325.144386 211.860485 
L 327.47056 210.330766 
L 329.796735 208.19819 
L 332.12291 205.690571 
L 334.449085 203.061727 
L 336.77526 200.566771 
L 339.101435 198.438219 
L 341.42761 196.865085 
L 343.753785 195.976779 
L 346.07996 195.833143 
L 348.406134 196.421329 
L 350.732309 197.659583 
L 353.058484 199.40734 
L 355.384659 201.480499 
" style="fill:none;stroke:#17becf;stroke-linecap:square;stroke-width:1.5;"/>
   </g>
   <g id="patch_18">
    <path d="M 211.278125 310.2 
L 211.278125 166.45 
" style="fill:none;stroke:#000000;stroke-linecap:square;stroke-linejoin:miter;stroke-width:0.8;"/>
   </g>
   <g id="patch_19">
    <path d="M 362.246875 310.2 
L 362.246875 166.45 
" style="fill:none;stroke:#000000;stroke-linecap:square;stroke-linejoin:miter;stroke-width:0.8;"/>
   </g>
   <g id="patch_20">
    <path d="M 211.278125 310.2 
L 362.246875 310.2 
" style="fill:none;stroke:#000000;stroke-linecap:square;stroke-linejoin:miter;stroke-width:0.8;"/>
   </g>
   <g id="patch_21">
    <path d="M 211.278125 166.45 
L 362.246875 166.45 
" style="fill:none;stroke:#000000;stroke-linecap:square;stroke-linejoin:miter;stroke-width:0.8;"/>
   </g>
  </g>
 </g>
 <defs>
  <clipPath id="p0abe6c05da">
   <rect height="143.75" width="150.96875" x="45.371875" y="7.2"/>
  </clipPath>
  <clipPath id="p2a822c0aaa">
   <rect height="143.75" width="150.96875" x="211.278125" y="7.2"/>
  </clipPath>
  <clipPath id="pf5038912a3">
   <rect height="143.75" width="150.96875" x="45.371875" y="166.45"/>
  </clipPath>
  <clipPath id="p41d6371a81">
   <rect height="143.75" width="150.96875" x="211.278125" y="166.45"/>
  </clipPath>
 </defs>
</svg>
