<?xml version="1.0" encoding="utf-8" standalone="no"?>
<!DOCTYPE svg PUBLIC "-//W3C//DTD SVG 1.1//EN"
  "http://www.w3.org/Graphics/SVG/1.1/DTD/svg11.dtd">
<svg height="277.729375pt" version="1.1" viewBox="0 0 408.21 277.729375" width="408.21pt" xmlns="http://www.w3.org/2000/svg" xmlns:xlink="http://www.w3.org/1999/xlink">
 <metadata>
  <rdf:RDF xmlns:cc="http://creativecommons.org/ns#" xmlns:dc="http://purl.org/dc/elements/1.1/" xmlns:rdf="http://www.w3.org/1999/02/22-rdf-syntax-ns#">
   <cc:Work>
    <dc:type rdf:resource="http://purl.org/dc/dcmitype/StillImage"/>
    <dc:date>2021-12-02T22:21:35.616111</dc:date>
    <dc:format>image/svg+xml</dc:format>
    <dc:creator>
     <cc:Agent>
      <dc:title>Matplotlib v3.4.3, https://matplotlib.org/</dc:title>
     </cc:Agent>
    </dc:creator>
   </cc:Work>
  </rdf:RDF>
 </metadata>
 <defs>
  <style type="text/css">*{stroke-linecap:butt;stroke-linejoin:round;}</style>
 </defs>
 <g id="figure_1">
  <g id="patch_1">
   <path d="M 0 277.729375 
L 408.21 277.729375 
L 408.21 0 
L 0 0 
z
" style="fill:none;"/>
  </g>
  <g id="axes_1">
   <g id="patch_2">
    <path d="M 61.75625 224.64 
L 396.55625 224.64 
L 396.55625 7.2 
L 61.75625 7.2 
z
" style="fill:#ffffff;"/>
   </g>
   <g id="matplotlib.axis_1">
    <g id="xtick_1">
     <g id="line2d_1">
      <defs>
       <path d="M 0 0 
L 0 3.5 
" id="mb33fd89e37" style="stroke:#000000;stroke-width:0.8;"/>
      </defs>
      <g>
       <use style="stroke:#000000;stroke-width:0.8;" x="61.75625" xlink:href="#mb33fd89e37" y="224.64"/>
      </g>
     </g>
     <g id="text_1">
      <!-- −2 -->
      <g transform="translate(51.436719 242.277813)scale(0.14 -0.14)">
       <defs>
        <path d="M 678 2272 
L 4684 2272 
L 4684 1741 
L 678 1741 
L 678 2272 
z
" id="DejaVuSans-2212" transform="scale(0.015625)"/>
        <path d="M 1228 531 
L 3431 531 
L 3431 0 
L 469 0 
L 469 531 
Q 828 903 1448 1529 
Q 2069 2156 2228 2338 
Q 2531 2678 2651 2914 
Q 2772 3150 2772 3378 
Q 2772 3750 2511 3984 
Q 2250 4219 1831 4219 
Q 1534 4219 1204 4116 
Q 875 4013 500 3803 
L 500 4441 
Q 881 4594 1212 4672 
Q 1544 4750 1819 4750 
Q 2544 4750 2975 4387 
Q 3406 4025 3406 3419 
Q 3406 3131 3298 2873 
Q 3191 2616 2906 2266 
Q 2828 2175 2409 1742 
Q 1991 1309 1228 531 
z
" id="DejaVuSans-32" transform="scale(0.015625)"/>
       </defs>
       <use xlink:href="#DejaVuSans-2212"/>
       <use x="83.789062" xlink:href="#DejaVuSans-32"/>
      </g>
     </g>
    </g>
    <g id="xtick_2">
     <g id="line2d_2">
      <g>
       <use style="stroke:#000000;stroke-width:0.8;" x="145.45625" xlink:href="#mb33fd89e37" y="224.64"/>
      </g>
     </g>
     <g id="text_2">
      <!-- −1 -->
      <g transform="translate(135.136719 242.277813)scale(0.14 -0.14)">
       <defs>
        <path d="M 794 531 
L 1825 531 
L 1825 4091 
L 703 3866 
L 703 4441 
L 1819 4666 
L 2450 4666 
L 2450 531 
L 3481 531 
L 3481 0 
L 794 0 
L 794 531 
z
" id="DejaVuSans-31" transform="scale(0.015625)"/>
       </defs>
       <use xlink:href="#DejaVuSans-2212"/>
       <use x="83.789062" xlink:href="#DejaVuSans-31"/>
      </g>
     </g>
    </g>
    <g id="xtick_3">
     <g id="line2d_3">
      <g>
       <use style="stroke:#000000;stroke-width:0.8;" x="229.15625" xlink:href="#mb33fd89e37" y="224.64"/>
      </g>
     </g>
     <g id="text_3">
      <!-- 0 -->
      <g transform="translate(224.7025 242.277813)scale(0.14 -0.14)">
       <defs>
        <path d="M 2034 4250 
Q 1547 4250 1301 3770 
Q 1056 3291 1056 2328 
Q 1056 1369 1301 889 
Q 1547 409 2034 409 
Q 2525 409 2770 889 
Q 3016 1369 3016 2328 
Q 3016 3291 2770 3770 
Q 2525 4250 2034 4250 
z
M 2034 4750 
Q 2819 4750 3233 4129 
Q 3647 3509 3647 2328 
Q 3647 1150 3233 529 
Q 2819 -91 2034 -91 
Q 1250 -91 836 529 
Q 422 1150 422 2328 
Q 422 3509 836 4129 
Q 1250 4750 2034 4750 
z
" id="DejaVuSans-30" transform="scale(0.015625)"/>
       </defs>
       <use xlink:href="#DejaVuSans-30"/>
      </g>
     </g>
    </g>
    <g id="xtick_4">
     <g id="line2d_4">
      <g>
       <use style="stroke:#000000;stroke-width:0.8;" x="312.85625" xlink:href="#mb33fd89e37" y="224.64"/>
      </g>
     </g>
     <g id="text_4">
      <!-- 1 -->
      <g transform="translate(308.4025 242.277813)scale(0.14 -0.14)">
       <use xlink:href="#DejaVuSans-31"/>
      </g>
     </g>
    </g>
    <g id="xtick_5">
     <g id="line2d_5">
      <g>
       <use style="stroke:#000000;stroke-width:0.8;" x="396.55625" xlink:href="#mb33fd89e37" y="224.64"/>
      </g>
     </g>
     <g id="text_5">
      <!-- 2 -->
      <g transform="translate(392.1025 242.277813)scale(0.14 -0.14)">
       <use xlink:href="#DejaVuSans-32"/>
      </g>
     </g>
    </g>
    <g id="text_6">
     <!-- $\rho_2$ [$\mathrm{\mu m}$] -->
     <g transform="translate(187.13625 265.909375)scale(0.22 -0.22)">
      <defs>
       <path d="M 1203 2875 
Q 1453 3194 1981 3475 
Q 2188 3584 2756 3584 
Q 3394 3584 3694 3078 
Q 3994 2572 3834 1747 
Q 3672 922 3175 415 
Q 2678 -91 2041 -91 
Q 1656 -91 1409 63 
Q 1163 213 1044 525 
L 681 -1331 
L 103 -1331 
L 697 1716 
Q 838 2438 1203 2875 
z
M 3238 1747 
Q 3359 2381 3169 2744 
Q 2978 3103 2522 3103 
Q 2066 3103 1734 2744 
Q 1403 2381 1281 1747 
Q 1156 1113 1347 750 
Q 1538 391 1994 391 
Q 2450 391 2781 750 
Q 3113 1113 3238 1747 
z
" id="DejaVuSans-Oblique-3c1" transform="scale(0.015625)"/>
       <path id="DejaVuSans-20" transform="scale(0.015625)"/>
       <path d="M 550 4863 
L 1875 4863 
L 1875 4416 
L 1125 4416 
L 1125 -397 
L 1875 -397 
L 1875 -844 
L 550 -844 
L 550 4863 
z
" id="DejaVuSans-5b" transform="scale(0.015625)"/>
       <path d="M 544 -1331 
L 544 3500 
L 1119 3500 
L 1119 1325 
Q 1119 872 1334 640 
Q 1550 409 1972 409 
Q 2434 409 2667 671 
Q 2900 934 2900 1459 
L 2900 3500 
L 3475 3500 
L 3475 806 
Q 3475 619 3529 530 
Q 3584 441 3700 441 
Q 3728 441 3778 458 
Q 3828 475 3916 513 
L 3916 50 
Q 3788 -22 3673 -56 
Q 3559 -91 3450 -91 
Q 3234 -91 3106 31 
Q 2978 153 2931 403 
Q 2775 156 2548 32 
Q 2322 -91 2016 -91 
Q 1697 -91 1473 31 
Q 1250 153 1119 397 
L 1119 -1331 
L 544 -1331 
z
" id="DejaVuSans-3bc" transform="scale(0.015625)"/>
       <path d="M 3328 2828 
Q 3544 3216 3844 3400 
Q 4144 3584 4550 3584 
Q 5097 3584 5394 3201 
Q 5691 2819 5691 2113 
L 5691 0 
L 5113 0 
L 5113 2094 
Q 5113 2597 4934 2840 
Q 4756 3084 4391 3084 
Q 3944 3084 3684 2787 
Q 3425 2491 3425 1978 
L 3425 0 
L 2847 0 
L 2847 2094 
Q 2847 2600 2669 2842 
Q 2491 3084 2119 3084 
Q 1678 3084 1418 2786 
Q 1159 2488 1159 1978 
L 1159 0 
L 581 0 
L 581 3500 
L 1159 3500 
L 1159 2956 
Q 1356 3278 1631 3431 
Q 1906 3584 2284 3584 
Q 2666 3584 2933 3390 
Q 3200 3197 3328 2828 
z
" id="DejaVuSans-6d" transform="scale(0.015625)"/>
       <path d="M 1947 4863 
L 1947 -844 
L 622 -844 
L 622 -397 
L 1369 -397 
L 1369 4416 
L 622 4416 
L 622 4863 
L 1947 4863 
z
" id="DejaVuSans-5d" transform="scale(0.015625)"/>
      </defs>
      <use transform="translate(0 0.015625)" xlink:href="#DejaVuSans-Oblique-3c1"/>
      <use transform="translate(63.476562 -16.390625)scale(0.7)" xlink:href="#DejaVuSans-32"/>
      <use transform="translate(110.74707 0.015625)" xlink:href="#DejaVuSans-20"/>
      <use transform="translate(142.53418 0.015625)" xlink:href="#DejaVuSans-5b"/>
      <use transform="translate(181.547852 0.015625)" xlink:href="#DejaVuSans-3bc"/>
      <use transform="translate(245.170898 0.015625)" xlink:href="#DejaVuSans-6d"/>
      <use transform="translate(342.583008 0.015625)" xlink:href="#DejaVuSans-5d"/>
     </g>
    </g>
   </g>
   <g id="matplotlib.axis_2">
    <g id="ytick_1">
     <g id="line2d_6">
      <defs>
       <path d="M 0 0 
L -3.5 0 
" id="m3bbd1b2648" style="stroke:#000000;stroke-width:0.8;"/>
      </defs>
      <g>
       <use style="stroke:#000000;stroke-width:0.8;" x="61.75625" xlink:href="#m3bbd1b2648" y="224.64"/>
      </g>
     </g>
     <g id="text_7">
      <!-- 0.0 -->
      <g transform="translate(32.491875 229.958906)scale(0.14 -0.14)">
       <defs>
        <path d="M 684 794 
L 1344 794 
L 1344 0 
L 684 0 
L 684 794 
z
" id="DejaVuSans-2e" transform="scale(0.015625)"/>
       </defs>
       <use xlink:href="#DejaVuSans-30"/>
       <use x="63.623047" xlink:href="#DejaVuSans-2e"/>
       <use x="95.410156" xlink:href="#DejaVuSans-30"/>
      </g>
     </g>
    </g>
    <g id="ytick_2">
     <g id="line2d_7">
      <g>
       <use style="stroke:#000000;stroke-width:0.8;" x="61.75625" xlink:href="#m3bbd1b2648" y="183.222857"/>
      </g>
     </g>
     <g id="text_8">
      <!-- 0.2 -->
      <g transform="translate(32.491875 188.541763)scale(0.14 -0.14)">
       <use xlink:href="#DejaVuSans-30"/>
       <use x="63.623047" xlink:href="#DejaVuSans-2e"/>
       <use x="95.410156" xlink:href="#DejaVuSans-32"/>
      </g>
     </g>
    </g>
    <g id="ytick_3">
     <g id="line2d_8">
      <g>
       <use style="stroke:#000000;stroke-width:0.8;" x="61.75625" xlink:href="#m3bbd1b2648" y="141.805714"/>
      </g>
     </g>
     <g id="text_9">
      <!-- 0.4 -->
      <g transform="translate(32.491875 147.124621)scale(0.14 -0.14)">
       <defs>
        <path d="M 2419 4116 
L 825 1625 
L 2419 1625 
L 2419 4116 
z
M 2253 4666 
L 3047 4666 
L 3047 1625 
L 3713 1625 
L 3713 1100 
L 3047 1100 
L 3047 0 
L 2419 0 
L 2419 1100 
L 313 1100 
L 313 1709 
L 2253 4666 
z
" id="DejaVuSans-34" transform="scale(0.015625)"/>
       </defs>
       <use xlink:href="#DejaVuSans-30"/>
       <use x="63.623047" xlink:href="#DejaVuSans-2e"/>
       <use x="95.410156" xlink:href="#DejaVuSans-34"/>
      </g>
     </g>
    </g>
    <g id="ytick_4">
     <g id="line2d_9">
      <g>
       <use style="stroke:#000000;stroke-width:0.8;" x="61.75625" xlink:href="#m3bbd1b2648" y="100.388571"/>
      </g>
     </g>
     <g id="text_10">
      <!-- 0.6 -->
      <g transform="translate(32.491875 105.707478)scale(0.14 -0.14)">
       <defs>
        <path d="M 2113 2584 
Q 1688 2584 1439 2293 
Q 1191 2003 1191 1497 
Q 1191 994 1439 701 
Q 1688 409 2113 409 
Q 2538 409 2786 701 
Q 3034 994 3034 1497 
Q 3034 2003 2786 2293 
Q 2538 2584 2113 2584 
z
M 3366 4563 
L 3366 3988 
Q 3128 4100 2886 4159 
Q 2644 4219 2406 4219 
Q 1781 4219 1451 3797 
Q 1122 3375 1075 2522 
Q 1259 2794 1537 2939 
Q 1816 3084 2150 3084 
Q 2853 3084 3261 2657 
Q 3669 2231 3669 1497 
Q 3669 778 3244 343 
Q 2819 -91 2113 -91 
Q 1303 -91 875 529 
Q 447 1150 447 2328 
Q 447 3434 972 4092 
Q 1497 4750 2381 4750 
Q 2619 4750 2861 4703 
Q 3103 4656 3366 4563 
z
" id="DejaVuSans-36" transform="scale(0.015625)"/>
       </defs>
       <use xlink:href="#DejaVuSans-30"/>
       <use x="63.623047" xlink:href="#DejaVuSans-2e"/>
       <use x="95.410156" xlink:href="#DejaVuSans-36"/>
      </g>
     </g>
    </g>
    <g id="ytick_5">
     <g id="line2d_10">
      <g>
       <use style="stroke:#000000;stroke-width:0.8;" x="61.75625" xlink:href="#m3bbd1b2648" y="58.971429"/>
      </g>
     </g>
     <g id="text_11">
      <!-- 0.8 -->
      <g transform="translate(32.491875 64.290335)scale(0.14 -0.14)">
       <defs>
        <path d="M 2034 2216 
Q 1584 2216 1326 1975 
Q 1069 1734 1069 1313 
Q 1069 891 1326 650 
Q 1584 409 2034 409 
Q 2484 409 2743 651 
Q 3003 894 3003 1313 
Q 3003 1734 2745 1975 
Q 2488 2216 2034 2216 
z
M 1403 2484 
Q 997 2584 770 2862 
Q 544 3141 544 3541 
Q 544 4100 942 4425 
Q 1341 4750 2034 4750 
Q 2731 4750 3128 4425 
Q 3525 4100 3525 3541 
Q 3525 3141 3298 2862 
Q 3072 2584 2669 2484 
Q 3125 2378 3379 2068 
Q 3634 1759 3634 1313 
Q 3634 634 3220 271 
Q 2806 -91 2034 -91 
Q 1263 -91 848 271 
Q 434 634 434 1313 
Q 434 1759 690 2068 
Q 947 2378 1403 2484 
z
M 1172 3481 
Q 1172 3119 1398 2916 
Q 1625 2713 2034 2713 
Q 2441 2713 2670 2916 
Q 2900 3119 2900 3481 
Q 2900 3844 2670 4047 
Q 2441 4250 2034 4250 
Q 1625 4250 1398 4047 
Q 1172 3844 1172 3481 
z
" id="DejaVuSans-38" transform="scale(0.015625)"/>
       </defs>
       <use xlink:href="#DejaVuSans-30"/>
       <use x="63.623047" xlink:href="#DejaVuSans-2e"/>
       <use x="95.410156" xlink:href="#DejaVuSans-38"/>
      </g>
     </g>
    </g>
    <g id="ytick_6">
     <g id="line2d_11">
      <g>
       <use style="stroke:#000000;stroke-width:0.8;" x="61.75625" xlink:href="#m3bbd1b2648" y="17.554286"/>
      </g>
     </g>
     <g id="text_12">
      <!-- 1.0 -->
      <g transform="translate(32.491875 22.873192)scale(0.14 -0.14)">
       <use xlink:href="#DejaVuSans-31"/>
       <use x="63.623047" xlink:href="#DejaVuSans-2e"/>
       <use x="95.410156" xlink:href="#DejaVuSans-30"/>
      </g>
     </g>
    </g>
    <g id="text_13">
     <!-- Field -->
     <g transform="translate(23.916563 141.312813)rotate(-90)scale(0.22 -0.22)">
      <defs>
       <path d="M 628 4666 
L 3309 4666 
L 3309 4134 
L 1259 4134 
L 1259 2759 
L 3109 2759 
L 3109 2228 
L 1259 2228 
L 1259 0 
L 628 0 
L 628 4666 
z
" id="DejaVuSans-46" transform="scale(0.015625)"/>
       <path d="M 603 3500 
L 1178 3500 
L 1178 0 
L 603 0 
L 603 3500 
z
M 603 4863 
L 1178 4863 
L 1178 4134 
L 603 4134 
L 603 4863 
z
" id="DejaVuSans-69" transform="scale(0.015625)"/>
       <path d="M 3597 1894 
L 3597 1613 
L 953 1613 
Q 991 1019 1311 708 
Q 1631 397 2203 397 
Q 2534 397 2845 478 
Q 3156 559 3463 722 
L 3463 178 
Q 3153 47 2828 -22 
Q 2503 -91 2169 -91 
Q 1331 -91 842 396 
Q 353 884 353 1716 
Q 353 2575 817 3079 
Q 1281 3584 2069 3584 
Q 2775 3584 3186 3129 
Q 3597 2675 3597 1894 
z
M 3022 2063 
Q 3016 2534 2758 2815 
Q 2500 3097 2075 3097 
Q 1594 3097 1305 2825 
Q 1016 2553 972 2059 
L 3022 2063 
z
" id="DejaVuSans-65" transform="scale(0.015625)"/>
       <path d="M 603 4863 
L 1178 4863 
L 1178 0 
L 603 0 
L 603 4863 
z
" id="DejaVuSans-6c" transform="scale(0.015625)"/>
       <path d="M 2906 2969 
L 2906 4863 
L 3481 4863 
L 3481 0 
L 2906 0 
L 2906 525 
Q 2725 213 2448 61 
Q 2172 -91 1784 -91 
Q 1150 -91 751 415 
Q 353 922 353 1747 
Q 353 2572 751 3078 
Q 1150 3584 1784 3584 
Q 2172 3584 2448 3432 
Q 2725 3281 2906 2969 
z
M 947 1747 
Q 947 1113 1208 752 
Q 1469 391 1925 391 
Q 2381 391 2643 752 
Q 2906 1113 2906 1747 
Q 2906 2381 2643 2742 
Q 2381 3103 1925 3103 
Q 1469 3103 1208 2742 
Q 947 2381 947 1747 
z
" id="DejaVuSans-64" transform="scale(0.015625)"/>
      </defs>
      <use xlink:href="#DejaVuSans-46"/>
      <use x="50.269531" xlink:href="#DejaVuSans-69"/>
      <use x="78.052734" xlink:href="#DejaVuSans-65"/>
      <use x="139.576172" xlink:href="#DejaVuSans-6c"/>
      <use x="167.359375" xlink:href="#DejaVuSans-64"/>
     </g>
    </g>
   </g>
   <g id="line2d_12">
    <path clip-path="url(#p6b515626f2)" d="M 61.08665 221.65639 
L 63.09545 221.786111 
L 65.10425 221.737266 
L 67.78265 221.423918 
L 71.13065 220.782706 
L 79.83545 218.994386 
L 83.18345 218.532179 
L 86.53145 218.285275 
L 89.87945 218.291606 
L 92.55785 218.495511 
L 95.90585 219.001533 
L 99.25385 219.746232 
L 103.94105 220.819129 
L 105.28025 220.959497 
L 106.61945 220.926358 
L 107.95865 220.67606 
L 109.29785 220.198209 
L 110.63705 219.511703 
L 112.64585 218.156025 
L 114.65465 216.484898 
L 116.66345 214.55383 
L 119.34185 211.628196 
L 122.02025 208.33887 
L 124.69865 204.710239 
L 127.37705 200.759195 
L 130.72505 195.388524 
L 134.07305 189.563062 
L 137.42105 183.311323 
L 141.43865 175.291099 
L 145.45625 166.763462 
L 150.14345 156.264573 
L 155.50025 143.688435 
L 162.86585 125.741231 
L 177.59705 89.667169 
L 182.95385 77.208175 
L 187.64105 66.87491 
L 191.65865 58.552106 
L 195.00665 52.057276 
L 198.35465 46.011805 
L 201.70265 40.458083 
L 204.38105 36.395508 
L 207.05945 32.690996 
L 209.73785 29.361255 
L 212.41625 26.421316 
L 215.09465 23.884465 
L 217.10345 22.253323 
L 219.11225 20.859564 
L 221.12105 19.706739 
L 223.12985 18.79779 
L 225.13865 18.135038 
L 227.14745 17.720181 
L 229.15625 17.554286 
L 231.16505 17.637787 
L 233.17385 17.970484 
L 235.18265 18.551545 
L 237.19145 19.379505 
L 239.20025 20.452271 
L 241.20905 21.767127 
L 243.21785 23.320743 
L 245.22665 25.10918 
L 247.90505 27.851117 
L 250.58345 30.990023 
L 253.26185 34.511748 
L 255.94025 38.400416 
L 258.61865 42.63851 
L 261.96665 48.398297 
L 265.31465 54.633676 
L 268.66265 61.300921 
L 272.68025 69.805819 
L 277.36745 80.315005 
L 282.72425 92.923963 
L 290.08985 110.910221 
L 303.48185 143.762166 
L 308.83865 156.335004 
L 313.52585 166.827919 
L 317.54345 175.348155 
L 321.56105 183.359015 
L 324.90905 189.601654 
L 328.25705 195.417119 
L 331.60505 200.7773 
L 334.95305 205.655967 
L 337.63145 209.194039 
L 340.30985 212.389358 
L 342.98825 215.215972 
L 344.99705 217.066965 
L 347.00585 218.648639 
L 349.01465 219.898452 
L 350.35385 220.501889 
L 351.69305 220.888571 
L 353.03225 221.049043 
L 354.37145 221.007651 
L 356.38025 220.684695 
L 365.08505 218.81541 
L 368.43305 218.479358 
L 371.78105 218.419185 
L 375.12905 218.614281 
L 378.47705 219.028186 
L 382.49465 219.742526 
L 391.86905 221.529475 
L 394.54745 221.725939 
L 396.55625 221.681555 
L 397.22585 221.629476 
L 397.22585 221.629476 
" style="fill:none;stroke:#ff0000;stroke-linecap:square;stroke-width:1.5;"/>
   </g>
   <g id="line2d_13">
    <path clip-path="url(#p6b515626f2)" d="M 61.08665 31.384042 
L 66.44345 30.545182 
L 71.13065 30.018577 
L 75.14825 29.772377 
L 79.16585 29.759513 
L 82.51385 29.957303 
L 85.86185 30.37031 
L 89.20985 31.022032 
L 92.55785 31.935093 
L 95.90585 33.130919 
L 98.58425 34.3046 
L 101.26265 35.681369 
L 103.94105 37.269718 
L 106.61945 39.077175 
L 109.29785 41.110218 
L 111.97625 43.37418 
L 115.32425 46.534992 
L 118.67225 50.068069 
L 122.02025 53.975163 
L 125.36825 58.254466 
L 128.71625 62.900481 
L 132.06425 67.903923 
L 136.08185 74.361103 
L 140.09945 81.283875 
L 144.11705 88.634362 
L 148.80425 97.689369 
L 154.16105 108.565277 
L 160.85705 122.734468 
L 181.61465 167.157507 
L 186.30185 176.495035 
L 190.31945 184.076344 
L 194.33705 191.184003 
L 197.68505 196.690593 
L 201.03305 201.77453 
L 204.38105 206.397419 
L 207.05945 209.739996 
L 209.73785 212.748497 
L 212.41625 215.408098 
L 215.09465 217.70566 
L 217.10345 219.184356 
L 219.11225 220.448913 
L 221.12105 221.495887 
L 223.12985 222.322481 
L 225.13865 222.926467 
L 227.14745 223.305853 
L 229.15625 223.458443 
L 231.16505 223.382609 
L 233.17385 223.079013 
L 235.18265 222.549819 
L 237.19145 221.797185 
L 239.20025 220.823308 
L 241.20905 219.630828 
L 243.21785 218.222991 
L 245.89625 216.017664 
L 248.57465 213.447309 
L 251.25305 210.524622 
L 253.93145 207.264013 
L 256.60985 203.681498 
L 259.95785 198.777476 
L 263.30585 193.435096 
L 266.65385 187.694471 
L 270.67145 180.340232 
L 275.35865 171.216908 
L 280.71545 160.231469 
L 287.41145 145.950352 
L 304.15145 109.957634 
L 309.50825 99.020586 
L 314.19545 89.897913 
L 318.88265 81.283842 
L 322.90025 74.361066 
L 326.91785 67.903883 
L 330.26585 62.90044 
L 333.61385 58.254424 
L 336.96185 53.975122 
L 340.30985 50.06803 
L 343.65785 46.534955 
L 347.00585 43.374145 
L 350.35385 40.580465 
L 353.03225 38.604367 
L 355.71065 36.85234 
L 358.38905 35.317634 
L 361.06745 33.992471 
L 363.74585 32.868136 
L 367.09385 31.730513 
L 370.44185 30.87148 
L 373.78985 30.269348 
L 377.13785 29.90129 
L 380.48585 29.743674 
L 384.50345 29.798344 
L 388.52105 30.079369 
L 393.20825 30.637935 
L 397.22585 31.268327 
L 397.22585 31.268327 
" style="fill:none;stroke:#0000ff;stroke-linecap:square;stroke-width:1.5;"/>
   </g>
   <g id="line2d_14">
    <path clip-path="url(#p6b515626f2)" d="M 61.08665 28.400433 
L 63.76505 28.088104 
L 66.44345 27.516422 
L 70.46105 26.363192 
L 75.14825 25.035599 
L 78.49625 24.332339 
L 81.17465 24.000305 
L 83.85305 23.91953 
L 85.86185 24.045741 
L 87.87065 24.346949 
L 89.87945 24.834638 
L 91.88825 25.518093 
L 93.89705 26.403534 
L 95.90585 27.492451 
L 98.58425 29.247763 
L 101.26265 31.29053 
L 105.94985 34.93239 
L 107.95865 36.101197 
L 109.96745 36.893588 
L 111.97625 37.380796 
L 114.65465 37.718063 
L 117.33305 37.828356 
L 120.68105 37.754687 
L 124.69865 37.439278 
L 129.38585 36.825827 
L 134.07305 35.995314 
L 139.42985 34.827875 
L 145.45625 33.295379 
L 153.49145 31.004999 
L 180.27545 23.132687 
L 187.64105 21.304844 
L 194.33705 19.865708 
L 201.03305 18.662094 
L 207.05945 17.790992 
L 213.08585 17.125738 
L 219.11225 16.668476 
L 225.13865 16.421505 
L 231.83465 16.387645 
L 237.86105 16.567038 
L 243.88745 16.957516 
L 249.91385 17.55797 
L 255.94025 18.366789 
L 261.96665 19.380442 
L 268.66265 20.737507 
L 275.35865 22.318794 
L 282.72425 24.28027 
L 292.09865 27.019591 
L 312.85625 33.179068 
L 319.55225 34.880447 
L 324.90905 36.033867 
L 330.26585 36.95 
L 334.95305 37.514273 
L 338.97065 37.781867 
L 342.31865 37.809253 
L 344.99705 37.653138 
L 347.67545 37.252439 
L 349.68425 36.6959 
L 351.02345 36.148696 
L 352.36265 35.433566 
L 354.37145 34.068392 
L 362.40665 28.045034 
L 364.41545 26.893149 
L 366.42425 25.942567 
L 368.43305 25.194012 
L 370.44185 24.642522 
L 372.45065 24.27957 
L 374.45945 24.094159 
L 377.13785 24.100527 
L 379.81625 24.36388 
L 382.49465 24.842619 
L 385.84265 25.666363 
L 393.87785 27.797314 
L 396.55625 28.196908 
L 397.22585 28.257804 
L 397.22585 28.257804 
" style="fill:none;stroke:#008000;stroke-linecap:square;stroke-width:1.5;"/>
   </g>
   <g id="patch_3">
    <path d="M 61.75625 224.64 
L 61.75625 7.2 
" style="fill:none;stroke:#000000;stroke-linecap:square;stroke-linejoin:miter;stroke-width:0.8;"/>
   </g>
   <g id="patch_4">
    <path d="M 396.55625 224.64 
L 396.55625 7.2 
" style="fill:none;stroke:#000000;stroke-linecap:square;stroke-linejoin:miter;stroke-width:0.8;"/>
   </g>
   <g id="patch_5">
    <path d="M 61.75625 224.64 
L 396.55625 224.64 
" style="fill:none;stroke:#000000;stroke-linecap:square;stroke-linejoin:miter;stroke-width:0.8;"/>
   </g>
   <g id="patch_6">
    <path d="M 61.75625 7.2 
L 396.55625 7.2 
" style="fill:none;stroke:#000000;stroke-linecap:square;stroke-linejoin:miter;stroke-width:0.8;"/>
   </g>
  </g>
 </g>
 <defs>
  <clipPath id="p6b515626f2">
   <rect height="217.44" width="334.8" x="61.75625" y="7.2"/>
  </clipPath>
 </defs>
</svg>
