<?xml version="1.0" encoding="utf-8" standalone="no"?>
<!DOCTYPE svg PUBLIC "-//W3C//DTD SVG 1.1//EN"
  "http://www.w3.org/Graphics/SVG/1.1/DTD/svg11.dtd">
<svg height="355.529375pt" version="1.1" viewBox="0 0 368.513395 355.529375" width="368.513395pt" xmlns="http://www.w3.org/2000/svg" xmlns:xlink="http://www.w3.org/1999/xlink">
 <metadata>
  <rdf:RDF xmlns:cc="http://creativecommons.org/ns#" xmlns:dc="http://purl.org/dc/elements/1.1/" xmlns:rdf="http://www.w3.org/1999/02/22-rdf-syntax-ns#">
   <cc:Work>
    <dc:type rdf:resource="http://purl.org/dc/dcmitype/StillImage"/>
    <dc:date>2022-03-28T20:48:31.701670</dc:date>
    <dc:format>image/svg+xml</dc:format>
    <dc:creator>
     <cc:Agent>
      <dc:title>Matplotlib v3.4.3, https://matplotlib.org/</dc:title>
     </cc:Agent>
    </dc:creator>
   </cc:Work>
  </rdf:RDF>
 </metadata>
 <defs>
  <style type="text/css">*{stroke-linecap:butt;stroke-linejoin:round;}</style>
 </defs>
 <g id="figure_1">
  <g id="patch_1">
   <path d="M 0 355.529375 
L 368.513395 355.529375 
L 368.513395 0 
L 0 0 
z
" style="fill:none;"/>
  </g>
  <g id="axes_1">
   <g id="patch_2">
    <path d="M 45.371875 150.95 
L 194.816606 150.95 
L 194.816606 7.2 
L 45.371875 7.2 
z
" style="fill:#ffffff;"/>
   </g>
   <g id="matplotlib.axis_1">
    <g id="xtick_1">
     <g id="line2d_1">
      <defs>
       <path d="M 0 0 
L 0 3.5 
" id="m2352729d17" style="stroke:#000000;stroke-width:0.8;"/>
      </defs>
      <g>
       <use style="stroke:#000000;stroke-width:0.8;" x="45.371875" xlink:href="#m2352729d17" y="150.95"/>
      </g>
     </g>
    </g>
    <g id="xtick_2">
     <g id="line2d_2">
      <g>
       <use style="stroke:#000000;stroke-width:0.8;" x="120.094241" xlink:href="#m2352729d17" y="150.95"/>
      </g>
     </g>
    </g>
    <g id="xtick_3">
     <g id="line2d_3">
      <g>
       <use style="stroke:#000000;stroke-width:0.8;" x="194.816606" xlink:href="#m2352729d17" y="150.95"/>
      </g>
     </g>
    </g>
   </g>
   <g id="matplotlib.axis_2">
    <g id="ytick_1">
     <g id="line2d_4">
      <defs>
       <path d="M 0 0 
L -3.5 0 
" id="m9a7b2d6aae" style="stroke:#000000;stroke-width:0.8;"/>
      </defs>
      <g>
       <use style="stroke:#000000;stroke-width:0.8;" x="45.371875" xlink:href="#m9a7b2d6aae" y="150.95"/>
      </g>
     </g>
     <g id="text_1">
      <!-- 0.00 -->
      <g transform="translate(7.2 156.268906)scale(0.14 -0.14)">
       <defs>
        <path d="M 2034 4250 
Q 1547 4250 1301 3770 
Q 1056 3291 1056 2328 
Q 1056 1369 1301 889 
Q 1547 409 2034 409 
Q 2525 409 2770 889 
Q 3016 1369 3016 2328 
Q 3016 3291 2770 3770 
Q 2525 4250 2034 4250 
z
M 2034 4750 
Q 2819 4750 3233 4129 
Q 3647 3509 3647 2328 
Q 3647 1150 3233 529 
Q 2819 -91 2034 -91 
Q 1250 -91 836 529 
Q 422 1150 422 2328 
Q 422 3509 836 4129 
Q 1250 4750 2034 4750 
z
" id="DejaVuSans-30" transform="scale(0.015625)"/>
        <path d="M 684 794 
L 1344 794 
L 1344 0 
L 684 0 
L 684 794 
z
" id="DejaVuSans-2e" transform="scale(0.015625)"/>
       </defs>
       <use xlink:href="#DejaVuSans-30"/>
       <use x="63.623047" xlink:href="#DejaVuSans-2e"/>
       <use x="95.410156" xlink:href="#DejaVuSans-30"/>
       <use x="159.033203" xlink:href="#DejaVuSans-30"/>
      </g>
     </g>
    </g>
    <g id="ytick_2">
     <g id="line2d_5">
      <g>
       <use style="stroke:#000000;stroke-width:0.8;" x="45.371875" xlink:href="#m9a7b2d6aae" y="116.72381"/>
      </g>
     </g>
     <g id="text_2">
      <!-- 0.25 -->
      <g transform="translate(7.2 122.042716)scale(0.14 -0.14)">
       <defs>
        <path d="M 1228 531 
L 3431 531 
L 3431 0 
L 469 0 
L 469 531 
Q 828 903 1448 1529 
Q 2069 2156 2228 2338 
Q 2531 2678 2651 2914 
Q 2772 3150 2772 3378 
Q 2772 3750 2511 3984 
Q 2250 4219 1831 4219 
Q 1534 4219 1204 4116 
Q 875 4013 500 3803 
L 500 4441 
Q 881 4594 1212 4672 
Q 1544 4750 1819 4750 
Q 2544 4750 2975 4387 
Q 3406 4025 3406 3419 
Q 3406 3131 3298 2873 
Q 3191 2616 2906 2266 
Q 2828 2175 2409 1742 
Q 1991 1309 1228 531 
z
" id="DejaVuSans-32" transform="scale(0.015625)"/>
        <path d="M 691 4666 
L 3169 4666 
L 3169 4134 
L 1269 4134 
L 1269 2991 
Q 1406 3038 1543 3061 
Q 1681 3084 1819 3084 
Q 2600 3084 3056 2656 
Q 3513 2228 3513 1497 
Q 3513 744 3044 326 
Q 2575 -91 1722 -91 
Q 1428 -91 1123 -41 
Q 819 9 494 109 
L 494 744 
Q 775 591 1075 516 
Q 1375 441 1709 441 
Q 2250 441 2565 725 
Q 2881 1009 2881 1497 
Q 2881 1984 2565 2268 
Q 2250 2553 1709 2553 
Q 1456 2553 1204 2497 
Q 953 2441 691 2322 
L 691 4666 
z
" id="DejaVuSans-35" transform="scale(0.015625)"/>
       </defs>
       <use xlink:href="#DejaVuSans-30"/>
       <use x="63.623047" xlink:href="#DejaVuSans-2e"/>
       <use x="95.410156" xlink:href="#DejaVuSans-32"/>
       <use x="159.033203" xlink:href="#DejaVuSans-35"/>
      </g>
     </g>
    </g>
    <g id="ytick_3">
     <g id="line2d_6">
      <g>
       <use style="stroke:#000000;stroke-width:0.8;" x="45.371875" xlink:href="#m9a7b2d6aae" y="82.497619"/>
      </g>
     </g>
     <g id="text_3">
      <!-- 0.50 -->
      <g transform="translate(7.2 87.816525)scale(0.14 -0.14)">
       <use xlink:href="#DejaVuSans-30"/>
       <use x="63.623047" xlink:href="#DejaVuSans-2e"/>
       <use x="95.410156" xlink:href="#DejaVuSans-35"/>
       <use x="159.033203" xlink:href="#DejaVuSans-30"/>
      </g>
     </g>
    </g>
    <g id="ytick_4">
     <g id="line2d_7">
      <g>
       <use style="stroke:#000000;stroke-width:0.8;" x="45.371875" xlink:href="#m9a7b2d6aae" y="48.271429"/>
      </g>
     </g>
     <g id="text_4">
      <!-- 0.75 -->
      <g transform="translate(7.2 53.590335)scale(0.14 -0.14)">
       <defs>
        <path d="M 525 4666 
L 3525 4666 
L 3525 4397 
L 1831 0 
L 1172 0 
L 2766 4134 
L 525 4134 
L 525 4666 
z
" id="DejaVuSans-37" transform="scale(0.015625)"/>
       </defs>
       <use xlink:href="#DejaVuSans-30"/>
       <use x="63.623047" xlink:href="#DejaVuSans-2e"/>
       <use x="95.410156" xlink:href="#DejaVuSans-37"/>
       <use x="159.033203" xlink:href="#DejaVuSans-35"/>
      </g>
     </g>
    </g>
    <g id="ytick_5">
     <g id="line2d_8">
      <g>
       <use style="stroke:#000000;stroke-width:0.8;" x="45.371875" xlink:href="#m9a7b2d6aae" y="14.045238"/>
      </g>
     </g>
     <g id="text_5">
      <!-- 1.00 -->
      <g transform="translate(7.2 19.364144)scale(0.14 -0.14)">
       <defs>
        <path d="M 794 531 
L 1825 531 
L 1825 4091 
L 703 3866 
L 703 4441 
L 1819 4666 
L 2450 4666 
L 2450 531 
L 3481 531 
L 3481 0 
L 794 0 
L 794 531 
z
" id="DejaVuSans-31" transform="scale(0.015625)"/>
       </defs>
       <use xlink:href="#DejaVuSans-31"/>
       <use x="63.623047" xlink:href="#DejaVuSans-2e"/>
       <use x="95.410156" xlink:href="#DejaVuSans-30"/>
       <use x="159.033203" xlink:href="#DejaVuSans-30"/>
      </g>
     </g>
    </g>
   </g>
   <g id="line2d_9">
    <path clip-path="url(#pb05624d60b)" d="M -1 85.031762 
L 4.009726 74.411994 
L 15.253805 50.368404 
L 19.269548 42.346267 
L 22.482142 36.378158 
L 25.694736 30.927113 
L 28.104182 27.240194 
L 30.513627 23.942238 
L 32.923073 21.069941 
L 35.332518 18.65581 
L 36.938815 17.314823 
L 38.545112 16.196806 
L 40.15141 15.307557 
L 41.757707 14.651714 
L 43.364004 14.232709 
L 44.970301 14.052742 
L 46.576598 14.112757 
L 48.182895 14.41244 
L 49.789192 14.950217 
L 51.395489 15.723268 
L 53.001786 16.727554 
L 54.608083 17.957852 
L 56.21438 19.407797 
L 58.623826 21.977978 
L 61.033271 24.995994 
L 63.442717 28.427869 
L 65.852163 32.235661 
L 69.064757 37.825867 
L 72.277351 43.906481 
L 76.293093 52.030487 
L 81.915133 63.995132 
L 91.552916 84.63608 
L 96.371807 94.394275 
L 100.387549 102.013509 
L 103.600144 107.705589 
L 106.812738 113.002761 
L 110.025332 117.883868 
L 113.237926 122.338564 
L 116.45052 126.366205 
L 119.663114 129.974552 
L 122.875708 133.178398 
L 126.088302 135.998149 
L 129.300897 138.458449 
L 132.513491 140.586874 
L 135.726085 142.412745 
L 138.938679 143.966088 
L 142.151273 145.276745 
L 145.363867 146.373654 
L 149.37961 147.485886 
L 153.395352 148.35639 
L 158.214244 149.143677 
L 163.033135 149.711687 
L 169.458323 150.219625 
L 176.68666 150.560029 
L 187.127591 150.802031 
L 203.99371 150.923556 
L 253.788919 150.949947 
L 366.229713 150.95 
L 366.229713 150.95 
" style="fill:none;stroke:#ff0000;stroke-dasharray:5.55,2.4;stroke-dashoffset:0;stroke-width:1.5;"/>
   </g>
   <g id="line2d_10">
    <path clip-path="url(#pb05624d60b)" d="M -1 89.363187 
L 4.812874 76.001054 
L 12.844359 57.602063 
L 16.860102 48.884087 
L 20.072696 42.328519 
L 23.28529 36.255069 
L 25.694736 32.074002 
L 28.104182 28.255335 
L 30.513627 24.833555 
L 32.923073 21.839802 
L 35.332518 19.301499 
L 36.938815 17.874042 
L 38.545112 16.66535 
L 40.15141 15.680403 
L 41.757707 14.923266 
L 43.364004 14.397068 
L 44.970301 14.103988 
L 46.576598 14.045238 
L 48.182895 14.221063 
L 49.789192 14.630734 
L 51.395489 15.272556 
L 53.001786 16.143873 
L 54.608083 17.241088 
L 56.21438 18.559676 
L 57.820677 20.094211 
L 60.230123 22.786907 
L 62.639568 25.926366 
L 65.049014 29.483888 
L 67.45846 33.427176 
L 70.671054 39.223189 
L 73.883648 45.549893 
L 77.899391 54.054015 
L 82.718282 64.864773 
L 97.174955 97.856811 
L 101.190698 106.33499 
L 104.403292 112.69862 
L 107.615886 118.624491 
L 110.82848 124.0654 
L 114.041074 128.987125 
L 116.45052 132.324545 
L 118.859966 135.353741 
L 121.269411 138.074646 
L 123.678857 140.491012 
L 126.088302 142.610176 
L 128.497748 144.442774 
L 130.907194 146.0024 
L 133.316639 147.305234 
L 135.726085 148.369636 
L 138.13553 149.215709 
L 140.544976 149.864856 
L 143.75757 150.462578 
L 146.970164 150.803454 
L 150.985907 150.94905 
L 155.804798 150.84118 
L 163.836283 150.352301 
L 172.670917 149.869517 
L 179.096105 149.741597 
L 186.324442 149.845278 
L 195.962225 150.242785 
L 209.61575 150.795577 
L 219.253532 150.944012 
L 234.513354 150.892408 
L 251.379473 150.919 
L 265.836147 150.906569 
L 274.670781 150.674818 
L 285.91486 150.119489 
L 297.15894 149.605068 
L 303.584128 149.529003 
L 310.009316 149.693429 
L 317.237653 150.138557 
L 328.481732 150.890784 
L 332.497475 150.943033 
L 335.710069 150.807348 
L 338.922663 150.460922 
L 342.135257 149.855036 
L 344.544703 149.202339 
L 346.954149 148.359603 
L 349.363594 147.310828 
L 351.77304 146.042439 
L 354.182485 144.543717 
L 356.591931 142.807176 
L 359.001377 140.828878 
L 361.410822 138.608671 
L 363.820268 136.150341 
L 366.229713 133.46168 
L 366.229713 133.46168 
" style="fill:none;stroke:#ff0000;stroke-linecap:square;stroke-width:1.5;"/>
   </g>
   <g id="patch_3">
    <path d="M 45.371875 150.95 
L 45.371875 7.2 
" style="fill:none;stroke:#000000;stroke-linecap:square;stroke-linejoin:miter;stroke-width:0.8;"/>
   </g>
   <g id="patch_4">
    <path d="M 194.816606 150.95 
L 194.816606 7.2 
" style="fill:none;stroke:#000000;stroke-linecap:square;stroke-linejoin:miter;stroke-width:0.8;"/>
   </g>
   <g id="patch_5">
    <path d="M 45.371875 150.95 
L 194.816606 150.95 
" style="fill:none;stroke:#000000;stroke-linecap:square;stroke-linejoin:miter;stroke-width:0.8;"/>
   </g>
   <g id="patch_6">
    <path d="M 45.371875 7.2 
L 194.816606 7.2 
" style="fill:none;stroke:#000000;stroke-linecap:square;stroke-linejoin:miter;stroke-width:0.8;"/>
   </g>
   <g id="legend_1">
    <g id="line2d_11">
     <path d="M 57.971875 113.712187 
L 71.971875 113.712187 
" style="fill:none;stroke:#ff0000;stroke-dasharray:5.55,2.4;stroke-dashoffset:0;stroke-width:1.5;"/>
    </g>
    <g id="line2d_12"/>
    <g id="text_6">
     <!-- $|A_G|^2$ -->
     <g transform="translate(74.771875 118.612187)scale(0.14 -0.14)">
      <defs>
       <path d="M 1344 4891 
L 1344 -1509 
L 813 -1509 
L 813 4891 
L 1344 4891 
z
" id="DejaVuSans-7c" transform="scale(0.015625)"/>
       <path d="M 2356 4666 
L 3072 4666 
L 3938 0 
L 3278 0 
L 3084 1197 
L 984 1197 
L 325 0 
L -341 0 
L 2356 4666 
z
M 2584 4044 
L 1275 1722 
L 2988 1722 
L 2584 4044 
z
" id="DejaVuSans-Oblique-41" transform="scale(0.015625)"/>
       <path d="M 3494 697 
L 3738 1919 
L 2700 1919 
L 2797 2438 
L 4453 2438 
L 4050 384 
Q 3634 156 3143 32 
Q 2653 -91 2156 -91 
Q 1278 -91 783 396 
Q 288 884 288 1753 
Q 288 2475 589 3126 
Q 891 3778 1422 4213 
Q 1756 4484 2153 4617 
Q 2550 4750 3034 4750 
Q 3472 4750 3873 4639 
Q 4275 4528 4641 4306 
L 4513 3634 
Q 4231 3928 3853 4083 
Q 3475 4238 3047 4238 
Q 2550 4238 2172 4048 
Q 1794 3859 1497 3463 
Q 1244 3125 1098 2667 
Q 953 2209 953 1734 
Q 953 1081 1287 751 
Q 1622 422 2284 422 
Q 2616 422 2925 492 
Q 3234 563 3494 697 
z
" id="DejaVuSans-Oblique-47" transform="scale(0.015625)"/>
      </defs>
      <use transform="translate(0 0.765625)" xlink:href="#DejaVuSans-7c"/>
      <use transform="translate(33.691406 0.765625)" xlink:href="#DejaVuSans-Oblique-41"/>
      <use transform="translate(102.099609 -15.640625)scale(0.7)" xlink:href="#DejaVuSans-Oblique-47"/>
      <use transform="translate(159.077148 0.765625)" xlink:href="#DejaVuSans-7c"/>
      <use transform="translate(193.725586 39.046875)scale(0.7)" xlink:href="#DejaVuSans-32"/>
     </g>
    </g>
    <g id="line2d_13">
     <path d="M 57.971875 129.11 
L 71.971875 129.11 
" style="fill:none;stroke:#ff0000;stroke-linecap:square;stroke-width:1.5;"/>
    </g>
    <g id="line2d_14"/>
    <g id="text_7">
     <!-- $I_{bright}$ -->
     <g transform="translate(74.771875 134.01)scale(0.14 -0.14)">
      <defs>
       <path d="M 1081 4666 
L 1716 4666 
L 806 0 
L 172 0 
L 1081 4666 
z
" id="DejaVuSans-Oblique-49" transform="scale(0.015625)"/>
       <path d="M 3169 2138 
Q 3169 2591 2961 2847 
Q 2753 3103 2388 3103 
Q 2122 3103 1889 2973 
Q 1656 2844 1484 2597 
Q 1303 2338 1198 1995 
Q 1094 1653 1094 1313 
Q 1094 881 1298 636 
Q 1503 391 1863 391 
Q 2134 391 2365 517 
Q 2597 644 2772 891 
Q 2950 1147 3059 1487 
Q 3169 1828 3169 2138 
z
M 1381 2969 
Q 1594 3256 1914 3420 
Q 2234 3584 2584 3584 
Q 3122 3584 3439 3221 
Q 3756 2859 3756 2241 
Q 3756 1734 3570 1259 
Q 3384 784 3041 416 
Q 2816 172 2522 40 
Q 2228 -91 1906 -91 
Q 1566 -91 1316 65 
Q 1066 222 909 531 
L 806 0 
L 231 0 
L 1178 4863 
L 1753 4863 
L 1381 2969 
z
" id="DejaVuSans-Oblique-62" transform="scale(0.015625)"/>
       <path d="M 2853 2969 
Q 2766 3016 2653 3041 
Q 2541 3066 2413 3066 
Q 1953 3066 1609 2717 
Q 1266 2369 1153 1784 
L 800 0 
L 225 0 
L 909 3500 
L 1484 3500 
L 1375 2956 
Q 1603 3259 1920 3421 
Q 2238 3584 2597 3584 
Q 2691 3584 2781 3573 
Q 2872 3563 2963 3538 
L 2853 2969 
z
" id="DejaVuSans-Oblique-72" transform="scale(0.015625)"/>
       <path d="M 1172 4863 
L 1747 4863 
L 1606 4134 
L 1031 4134 
L 1172 4863 
z
M 909 3500 
L 1484 3500 
L 800 0 
L 225 0 
L 909 3500 
z
" id="DejaVuSans-Oblique-69" transform="scale(0.015625)"/>
       <path d="M 3816 3500 
L 3219 434 
Q 3047 -456 2561 -893 
Q 2075 -1331 1253 -1331 
Q 950 -1331 690 -1286 
Q 431 -1241 206 -1147 
L 313 -588 
Q 525 -725 762 -790 
Q 1000 -856 1269 -856 
Q 1816 -856 2167 -557 
Q 2519 -259 2631 300 
L 2681 563 
Q 2441 288 2122 144 
Q 1803 0 1434 0 
Q 903 0 598 351 
Q 294 703 294 1319 
Q 294 1803 478 2267 
Q 663 2731 997 3091 
Q 1219 3328 1514 3456 
Q 1809 3584 2131 3584 
Q 2484 3584 2746 3420 
Q 3009 3256 3138 2956 
L 3238 3500 
L 3816 3500 
z
M 2950 2216 
Q 2950 2641 2750 2872 
Q 2550 3103 2181 3103 
Q 1953 3103 1747 3012 
Q 1541 2922 1394 2759 
Q 1156 2491 1023 2127 
Q 891 1763 891 1375 
Q 891 944 1092 712 
Q 1294 481 1672 481 
Q 2219 481 2584 976 
Q 2950 1472 2950 2216 
z
" id="DejaVuSans-Oblique-67" transform="scale(0.015625)"/>
       <path d="M 3566 2113 
L 3156 0 
L 2578 0 
L 2988 2091 
Q 3016 2238 3031 2350 
Q 3047 2463 3047 2528 
Q 3047 2791 2881 2937 
Q 2716 3084 2419 3084 
Q 1956 3084 1617 2771 
Q 1278 2459 1178 1941 
L 800 0 
L 225 0 
L 1172 4863 
L 1747 4863 
L 1375 2950 
Q 1594 3244 1934 3414 
Q 2275 3584 2650 3584 
Q 3113 3584 3367 3334 
Q 3622 3084 3622 2631 
Q 3622 2519 3608 2391 
Q 3594 2263 3566 2113 
z
" id="DejaVuSans-Oblique-68" transform="scale(0.015625)"/>
       <path d="M 2706 3500 
L 2619 3053 
L 1472 3053 
L 1100 1153 
Q 1081 1047 1072 975 
Q 1063 903 1063 863 
Q 1063 663 1183 572 
Q 1303 481 1569 481 
L 2150 481 
L 2053 0 
L 1503 0 
Q 991 0 739 200 
Q 488 400 488 806 
Q 488 878 497 964 
Q 506 1050 525 1153 
L 897 3053 
L 409 3053 
L 500 3500 
L 978 3500 
L 1172 4494 
L 1747 4494 
L 1556 3500 
L 2706 3500 
z
" id="DejaVuSans-Oblique-74" transform="scale(0.015625)"/>
      </defs>
      <use transform="translate(0 0.09375)" xlink:href="#DejaVuSans-Oblique-49"/>
      <use transform="translate(29.492188 -16.3125)scale(0.7)" xlink:href="#DejaVuSans-Oblique-62"/>
      <use transform="translate(73.925781 -16.3125)scale(0.7)" xlink:href="#DejaVuSans-Oblique-72"/>
      <use transform="translate(102.705078 -16.3125)scale(0.7)" xlink:href="#DejaVuSans-Oblique-69"/>
      <use transform="translate(122.15332 -16.3125)scale(0.7)" xlink:href="#DejaVuSans-Oblique-67"/>
      <use transform="translate(166.586914 -16.3125)scale(0.7)" xlink:href="#DejaVuSans-Oblique-68"/>
      <use transform="translate(210.952148 -16.3125)scale(0.7)" xlink:href="#DejaVuSans-Oblique-74"/>
     </g>
    </g>
   </g>
  </g>
  <g id="axes_2">
   <g id="patch_7">
    <path d="M 209.754106 150.95 
L 359.198838 150.95 
L 359.198838 7.2 
L 209.754106 7.2 
z
" style="fill:#ffffff;"/>
   </g>
   <g id="matplotlib.axis_3">
    <g id="xtick_4">
     <g id="line2d_15">
      <g>
       <use style="stroke:#000000;stroke-width:0.8;" x="216.547049" xlink:href="#m2352729d17" y="150.95"/>
      </g>
     </g>
    </g>
    <g id="xtick_5">
     <g id="line2d_16">
      <g>
       <use style="stroke:#000000;stroke-width:0.8;" x="284.476472" xlink:href="#m2352729d17" y="150.95"/>
      </g>
     </g>
    </g>
    <g id="xtick_6">
     <g id="line2d_17">
      <g>
       <use style="stroke:#000000;stroke-width:0.8;" x="352.405895" xlink:href="#m2352729d17" y="150.95"/>
      </g>
     </g>
    </g>
   </g>
   <g id="matplotlib.axis_4">
    <g id="ytick_6">
     <g id="line2d_18">
      <g>
       <use style="stroke:#000000;stroke-width:0.8;" x="209.754106" xlink:href="#m9a7b2d6aae" y="150.95"/>
      </g>
     </g>
    </g>
    <g id="ytick_7">
     <g id="line2d_19">
      <g>
       <use style="stroke:#000000;stroke-width:0.8;" x="209.754106" xlink:href="#m9a7b2d6aae" y="116.72381"/>
      </g>
     </g>
    </g>
    <g id="ytick_8">
     <g id="line2d_20">
      <g>
       <use style="stroke:#000000;stroke-width:0.8;" x="209.754106" xlink:href="#m9a7b2d6aae" y="82.497619"/>
      </g>
     </g>
    </g>
    <g id="ytick_9">
     <g id="line2d_21">
      <g>
       <use style="stroke:#000000;stroke-width:0.8;" x="209.754106" xlink:href="#m9a7b2d6aae" y="48.271429"/>
      </g>
     </g>
    </g>
    <g id="ytick_10">
     <g id="line2d_22">
      <g>
       <use style="stroke:#000000;stroke-width:0.8;" x="209.754106" xlink:href="#m9a7b2d6aae" y="14.045238"/>
      </g>
     </g>
    </g>
   </g>
   <g id="line2d_23">
    <path clip-path="url(#p396546740d)" d="M 216.547049 14.045284 
L 224.094762 15.098637 
L 231.642476 18.333753 
L 239.19019 23.654866 
L 246.737904 30.900181 
L 254.285617 39.84292 
L 261.833331 50.194347 
L 269.381045 61.609799 
L 276.928758 73.698569 
L 284.476472 86.038043 
L 292.024186 98.19194 
L 299.5719 109.731803 
L 307.119613 120.260286 
L 314.667327 129.434284 
L 322.215041 136.985694 
L 329.762754 142.737649 
L 337.310468 146.614386 
L 344.858182 148.643525 
L 352.405895 148.950331 
" style="fill:none;stroke:#ff0000;stroke-linecap:square;stroke-width:1.5;"/>
   </g>
   <g id="line2d_24">
    <path clip-path="url(#p396546740d)" d="M 216.547049 14.045238 
L 224.094762 16.221471 
L 231.642476 22.353945 
L 239.19019 31.421619 
L 246.737904 42.161046 
L 254.285617 53.426852 
L 261.833331 64.383495 
L 269.381045 74.530227 
L 276.928758 83.63439 
L 284.476472 91.642037 
L 292.024186 98.601816 
L 299.5719 104.611972 
L 307.119613 109.78792 
L 314.667327 114.244445 
L 322.215041 118.087078 
L 329.762754 121.408775 
L 337.310468 124.289403 
L 344.858182 126.796605 
L 352.405895 128.987196 
" style="fill:none;stroke:#ff0000;stroke-dasharray:5.55,2.4;stroke-dashoffset:0;stroke-width:1.5;"/>
   </g>
   <g id="patch_8">
    <path d="M 209.754106 150.95 
L 209.754106 7.2 
" style="fill:none;stroke:#000000;stroke-linecap:square;stroke-linejoin:miter;stroke-width:0.8;"/>
   </g>
   <g id="patch_9">
    <path d="M 359.198838 150.95 
L 359.198838 7.2 
" style="fill:none;stroke:#000000;stroke-linecap:square;stroke-linejoin:miter;stroke-width:0.8;"/>
   </g>
   <g id="patch_10">
    <path d="M 209.754106 150.95 
L 359.198838 150.95 
" style="fill:none;stroke:#000000;stroke-linecap:square;stroke-linejoin:miter;stroke-width:0.8;"/>
   </g>
   <g id="patch_11">
    <path d="M 209.754106 7.2 
L 359.198838 7.2 
" style="fill:none;stroke:#000000;stroke-linecap:square;stroke-linejoin:miter;stroke-width:0.8;"/>
   </g>
  </g>
  <g id="axes_3">
   <g id="patch_12">
    <path d="M 45.371875 310.2 
L 194.816606 310.2 
L 194.816606 166.45 
L 45.371875 166.45 
z
" style="fill:#ffffff;"/>
   </g>
   <g id="matplotlib.axis_5">
    <g id="xtick_7">
     <g id="line2d_25">
      <g>
       <use style="stroke:#000000;stroke-width:0.8;" x="45.371875" xlink:href="#m2352729d17" y="310.2"/>
      </g>
     </g>
     <g id="text_8">
      <!-- 0 -->
      <g transform="translate(40.918125 327.837812)scale(0.14 -0.14)">
       <use xlink:href="#DejaVuSans-30"/>
      </g>
     </g>
    </g>
    <g id="xtick_8">
     <g id="line2d_26">
      <g>
       <use style="stroke:#000000;stroke-width:0.8;" x="120.094241" xlink:href="#m2352729d17" y="310.2"/>
      </g>
     </g>
     <g id="text_9">
      <!-- 1 -->
      <g transform="translate(115.640491 327.837812)scale(0.14 -0.14)">
       <use xlink:href="#DejaVuSans-31"/>
      </g>
     </g>
    </g>
    <g id="xtick_9">
     <g id="line2d_27">
      <g>
       <use style="stroke:#000000;stroke-width:0.8;" x="194.816606" xlink:href="#m2352729d17" y="310.2"/>
      </g>
     </g>
     <g id="text_10">
      <!-- 2 -->
      <g transform="translate(190.362856 327.837812)scale(0.14 -0.14)">
       <use xlink:href="#DejaVuSans-32"/>
      </g>
     </g>
    </g>
    <g id="text_11">
     <!-- $\rho_2$ [$\mathrm{\mu m}$] -->
     <g transform="translate(93.354241 345.389375)scale(0.14 -0.14)">
      <defs>
       <path d="M 1203 2875 
Q 1453 3194 1981 3475 
Q 2188 3584 2756 3584 
Q 3394 3584 3694 3078 
Q 3994 2572 3834 1747 
Q 3672 922 3175 415 
Q 2678 -91 2041 -91 
Q 1656 -91 1409 63 
Q 1163 213 1044 525 
L 681 -1331 
L 103 -1331 
L 697 1716 
Q 838 2438 1203 2875 
z
M 3238 1747 
Q 3359 2381 3169 2744 
Q 2978 3103 2522 3103 
Q 2066 3103 1734 2744 
Q 1403 2381 1281 1747 
Q 1156 1113 1347 750 
Q 1538 391 1994 391 
Q 2450 391 2781 750 
Q 3113 1113 3238 1747 
z
" id="DejaVuSans-Oblique-3c1" transform="scale(0.015625)"/>
       <path id="DejaVuSans-20" transform="scale(0.015625)"/>
       <path d="M 550 4863 
L 1875 4863 
L 1875 4416 
L 1125 4416 
L 1125 -397 
L 1875 -397 
L 1875 -844 
L 550 -844 
L 550 4863 
z
" id="DejaVuSans-5b" transform="scale(0.015625)"/>
       <path d="M 544 -1331 
L 544 3500 
L 1119 3500 
L 1119 1325 
Q 1119 872 1334 640 
Q 1550 409 1972 409 
Q 2434 409 2667 671 
Q 2900 934 2900 1459 
L 2900 3500 
L 3475 3500 
L 3475 806 
Q 3475 619 3529 530 
Q 3584 441 3700 441 
Q 3728 441 3778 458 
Q 3828 475 3916 513 
L 3916 50 
Q 3788 -22 3673 -56 
Q 3559 -91 3450 -91 
Q 3234 -91 3106 31 
Q 2978 153 2931 403 
Q 2775 156 2548 32 
Q 2322 -91 2016 -91 
Q 1697 -91 1473 31 
Q 1250 153 1119 397 
L 1119 -1331 
L 544 -1331 
z
" id="DejaVuSans-3bc" transform="scale(0.015625)"/>
       <path d="M 3328 2828 
Q 3544 3216 3844 3400 
Q 4144 3584 4550 3584 
Q 5097 3584 5394 3201 
Q 5691 2819 5691 2113 
L 5691 0 
L 5113 0 
L 5113 2094 
Q 5113 2597 4934 2840 
Q 4756 3084 4391 3084 
Q 3944 3084 3684 2787 
Q 3425 2491 3425 1978 
L 3425 0 
L 2847 0 
L 2847 2094 
Q 2847 2600 2669 2842 
Q 2491 3084 2119 3084 
Q 1678 3084 1418 2786 
Q 1159 2488 1159 1978 
L 1159 0 
L 581 0 
L 581 3500 
L 1159 3500 
L 1159 2956 
Q 1356 3278 1631 3431 
Q 1906 3584 2284 3584 
Q 2666 3584 2933 3390 
Q 3200 3197 3328 2828 
z
" id="DejaVuSans-6d" transform="scale(0.015625)"/>
       <path d="M 1947 4863 
L 1947 -844 
L 622 -844 
L 622 -397 
L 1369 -397 
L 1369 4416 
L 622 4416 
L 622 4863 
L 1947 4863 
z
" id="DejaVuSans-5d" transform="scale(0.015625)"/>
      </defs>
      <use transform="translate(0 0.015625)" xlink:href="#DejaVuSans-Oblique-3c1"/>
      <use transform="translate(63.476562 -16.390625)scale(0.7)" xlink:href="#DejaVuSans-32"/>
      <use transform="translate(110.74707 0.015625)" xlink:href="#DejaVuSans-20"/>
      <use transform="translate(142.53418 0.015625)" xlink:href="#DejaVuSans-5b"/>
      <use transform="translate(181.547852 0.015625)" xlink:href="#DejaVuSans-3bc"/>
      <use transform="translate(245.170898 0.015625)" xlink:href="#DejaVuSans-6d"/>
      <use transform="translate(342.583008 0.015625)" xlink:href="#DejaVuSans-5d"/>
     </g>
    </g>
   </g>
   <g id="matplotlib.axis_6">
    <g id="ytick_11">
     <g id="line2d_28">
      <g>
       <use style="stroke:#000000;stroke-width:0.8;" x="45.371875" xlink:href="#m9a7b2d6aae" y="310.2"/>
      </g>
     </g>
     <g id="text_12">
      <!-- 0.00 -->
      <g transform="translate(7.2 315.518906)scale(0.14 -0.14)">
       <use xlink:href="#DejaVuSans-30"/>
       <use x="63.623047" xlink:href="#DejaVuSans-2e"/>
       <use x="95.410156" xlink:href="#DejaVuSans-30"/>
       <use x="159.033203" xlink:href="#DejaVuSans-30"/>
      </g>
     </g>
    </g>
    <g id="ytick_12">
     <g id="line2d_29">
      <g>
       <use style="stroke:#000000;stroke-width:0.8;" x="45.371875" xlink:href="#m9a7b2d6aae" y="275.97381"/>
      </g>
     </g>
     <g id="text_13">
      <!-- 0.25 -->
      <g transform="translate(7.2 281.292716)scale(0.14 -0.14)">
       <use xlink:href="#DejaVuSans-30"/>
       <use x="63.623047" xlink:href="#DejaVuSans-2e"/>
       <use x="95.410156" xlink:href="#DejaVuSans-32"/>
       <use x="159.033203" xlink:href="#DejaVuSans-35"/>
      </g>
     </g>
    </g>
    <g id="ytick_13">
     <g id="line2d_30">
      <g>
       <use style="stroke:#000000;stroke-width:0.8;" x="45.371875" xlink:href="#m9a7b2d6aae" y="241.747619"/>
      </g>
     </g>
     <g id="text_14">
      <!-- 0.50 -->
      <g transform="translate(7.2 247.066525)scale(0.14 -0.14)">
       <use xlink:href="#DejaVuSans-30"/>
       <use x="63.623047" xlink:href="#DejaVuSans-2e"/>
       <use x="95.410156" xlink:href="#DejaVuSans-35"/>
       <use x="159.033203" xlink:href="#DejaVuSans-30"/>
      </g>
     </g>
    </g>
    <g id="ytick_14">
     <g id="line2d_31">
      <g>
       <use style="stroke:#000000;stroke-width:0.8;" x="45.371875" xlink:href="#m9a7b2d6aae" y="207.521429"/>
      </g>
     </g>
     <g id="text_15">
      <!-- 0.75 -->
      <g transform="translate(7.2 212.840335)scale(0.14 -0.14)">
       <use xlink:href="#DejaVuSans-30"/>
       <use x="63.623047" xlink:href="#DejaVuSans-2e"/>
       <use x="95.410156" xlink:href="#DejaVuSans-37"/>
       <use x="159.033203" xlink:href="#DejaVuSans-35"/>
      </g>
     </g>
    </g>
    <g id="ytick_15">
     <g id="line2d_32">
      <g>
       <use style="stroke:#000000;stroke-width:0.8;" x="45.371875" xlink:href="#m9a7b2d6aae" y="173.295238"/>
      </g>
     </g>
     <g id="text_16">
      <!-- 1.00 -->
      <g transform="translate(7.2 178.614144)scale(0.14 -0.14)">
       <use xlink:href="#DejaVuSans-31"/>
       <use x="63.623047" xlink:href="#DejaVuSans-2e"/>
       <use x="95.410156" xlink:href="#DejaVuSans-30"/>
       <use x="159.033203" xlink:href="#DejaVuSans-30"/>
      </g>
     </g>
    </g>
   </g>
   <g id="line2d_33">
    <path clip-path="url(#p69638eda2f)" d="M -1 297.369188 
L 1.60028 299.626088 
L 4.009726 301.485512 
L 6.419171 303.126888 
L 8.828617 304.556181 
L 11.238062 305.782187 
L 13.647508 306.816299 
L 16.860102 307.920539 
L 20.072696 308.745685 
L 23.28529 309.333428 
L 27.301033 309.801 
L 32.119924 310.081626 
L 38.545112 310.191472 
L 55.411232 310.160508 
L 61.033271 309.971789 
L 65.049014 309.644767 
L 68.261608 309.20637 
L 71.474202 308.563336 
L 74.686796 307.672196 
L 77.899391 306.492116 
L 80.308836 305.395453 
L 82.718282 304.102828 
L 85.127727 302.603682 
L 87.537173 300.890141 
L 89.946618 298.957224 
L 92.356064 296.802987 
L 95.568658 293.588825 
L 98.781252 289.994796 
L 101.993846 286.041378 
L 105.206441 281.757562 
L 109.222183 275.994275 
L 114.041074 268.592015 
L 119.663114 259.495138 
L 136.529233 231.872685 
L 141.348125 224.539909 
L 145.363867 218.779799 
L 149.37961 213.385862 
L 153.395352 208.388635 
L 157.411095 203.806084 
L 160.623689 200.443366 
L 163.836283 197.349138 
L 167.048878 194.518563 
L 170.261472 191.943816 
L 173.474066 189.614626 
L 176.68666 187.51881 
L 179.899254 185.642771 
L 183.914997 183.584544 
L 187.930739 181.817377 
L 191.946482 180.311411 
L 195.962225 179.037341 
L 200.781116 177.775124 
L 205.600007 176.761227 
L 211.222047 175.837775 
L 216.844086 175.139648 
L 223.269275 174.556036 
L 231.30076 174.063254 
L 240.938542 173.706656 
L 253.788919 173.465579 
L 274.670781 173.33128 
L 328.481732 173.295571 
L 366.229713 173.295245 
L 366.229713 173.295245 
" style="fill:none;stroke:#0000ff;stroke-dasharray:5.55,2.4;stroke-dashoffset:0;stroke-width:1.5;"/>
   </g>
   <g id="line2d_34">
    <path clip-path="url(#p69638eda2f)" d="M -1 293.512254 
L 0.797132 295.545056 
L 3.206577 298.021023 
L 5.616023 300.218527 
L 8.025468 302.144381 
L 10.434914 303.808999 
L 12.844359 305.226055 
L 15.253805 306.412078 
L 17.663251 307.385975 
L 20.072696 308.168511 
L 23.28529 308.952446 
L 26.497885 309.489388 
L 30.513627 309.894594 
L 35.332518 310.118217 
L 43.364004 310.197201 
L 57.017529 310.118154 
L 61.83642 309.894417 
L 65.852163 309.489054 
L 69.064757 308.951944 
L 72.277351 308.167802 
L 74.686796 307.38509 
L 77.096242 306.410999 
L 79.505688 305.224769 
L 81.915133 303.807495 
L 84.324579 302.142654 
L 86.734024 300.216575 
L 89.14347 298.018851 
L 91.552916 295.542672 
L 93.962361 292.78508 
L 96.371807 289.747144 
L 99.584401 285.270009 
L 102.796995 280.327732 
L 106.009589 274.956368 
L 110.025332 267.712327 
L 114.041074 259.988152 
L 119.663114 248.627373 
L 132.513491 222.356651 
L 136.529233 214.654523 
L 140.544976 207.428223 
L 143.75757 202.062825 
L 146.970164 197.115889 
L 150.182758 192.622009 
L 153.395352 188.605435 
L 155.804798 185.914997 
L 158.214244 183.503252 
L 160.623689 181.369332 
L 163.033135 179.509515 
L 165.44258 177.91743 
L 167.852026 176.584306 
L 170.261472 175.499228 
L 172.670917 174.649419 
L 175.080363 174.020527 
L 177.489808 173.596916 
L 179.899254 173.361957 
L 183.111848 173.312089 
L 186.324442 173.524497 
L 189.537036 173.956608 
L 193.552779 174.741875 
L 198.37167 175.940471 
L 205.600007 178.006663 
L 215.237789 180.730124 
L 220.859829 182.084696 
L 225.67872 183.033923 
L 230.497612 183.759103 
L 235.316503 184.249523 
L 240.135394 184.508187 
L 244.954285 184.549745 
L 250.576325 184.356416 
L 257.001513 183.879179 
L 265.032998 183.028416 
L 285.111712 180.764148 
L 292.340048 180.21871 
L 299.568385 179.911105 
L 306.796722 179.850758 
L 314.025059 180.015063 
L 322.859693 180.449798 
L 341.332109 181.679022 
L 352.576188 182.273433 
L 361.410822 182.525262 
L 366.229713 182.570643 
L 366.229713 182.570643 
" style="fill:none;stroke:#0000ff;stroke-linecap:square;stroke-width:1.5;"/>
   </g>
   <g id="line2d_35">
    <path clip-path="url(#p69638eda2f)" d="M -1 302.206387 
L 1.60028 303.379373 
L 4.812874 304.643852 
L 8.828617 305.961639 
L 12.844359 307.017461 
L 16.860102 307.844939 
L 21.678993 308.584111 
L 26.497885 309.099442 
L 32.119924 309.485453 
L 39.348261 309.741483 
L 48.182895 309.805869 
L 56.21438 309.656811 
L 62.639568 309.347244 
L 68.261608 308.87042 
L 73.080499 308.250648 
L 77.096242 307.544399 
L 81.111985 306.630102 
L 85.127727 305.473831 
L 89.14347 304.042425 
L 92.356064 302.678204 
L 95.568658 301.103486 
L 98.781252 299.305573 
L 101.993846 297.273877 
L 105.206441 295.000233 
L 108.419035 292.47918 
L 111.631629 289.708181 
L 114.844223 286.687798 
L 118.859966 282.567683 
L 122.875708 278.078584 
L 126.891451 273.242964 
L 130.907194 268.090929 
L 135.726085 261.543763 
L 141.348125 253.500566 
L 148.576461 242.737745 
L 163.836283 219.903565 
L 169.458323 211.959457 
L 174.277214 205.538291 
L 178.292957 200.526034 
L 182.3087 195.867672 
L 186.324442 191.59978 
L 189.537036 188.486858 
L 192.749631 185.654998 
L 195.962225 183.113158 
L 199.174819 180.867269 
L 202.387413 178.920264 
L 205.600007 177.272139 
L 208.812601 175.920067 
L 212.025195 174.858536 
L 215.237789 174.079527 
L 218.450384 173.572717 
L 221.662978 173.325704 
L 224.875572 173.324253 
L 228.088166 173.55255 
L 231.30076 173.993464 
L 234.513354 174.628818 
L 238.529097 175.667499 
L 242.544839 176.942199 
L 247.363731 178.72895 
L 252.98577 181.084214 
L 260.214107 184.384631 
L 278.686523 192.961804 
L 285.111712 195.641066 
L 290.733751 197.750632 
L 296.355791 199.602339 
L 301.174682 200.964134 
L 305.993573 202.106188 
L 310.812465 203.022436 
L 315.631356 203.711224 
L 320.450247 204.17492 
L 325.269138 204.419544 
L 330.088029 204.454424 
L 334.906921 204.291872 
L 340.52896 203.872826 
L 346.151 203.233397 
L 352.576188 202.273455 
L 359.804525 200.963845 
L 366.229713 199.65755 
L 366.229713 199.65755 
" style="fill:none;stroke:#17becf;stroke-linecap:square;stroke-width:1.5;"/>
   </g>
   <g id="patch_13">
    <path d="M 45.371875 310.2 
L 45.371875 166.45 
" style="fill:none;stroke:#000000;stroke-linecap:square;stroke-linejoin:miter;stroke-width:0.8;"/>
   </g>
   <g id="patch_14">
    <path d="M 194.816606 310.2 
L 194.816606 166.45 
" style="fill:none;stroke:#000000;stroke-linecap:square;stroke-linejoin:miter;stroke-width:0.8;"/>
   </g>
   <g id="patch_15">
    <path d="M 45.371875 310.2 
L 194.816606 310.2 
" style="fill:none;stroke:#000000;stroke-linecap:square;stroke-linejoin:miter;stroke-width:0.8;"/>
   </g>
   <g id="patch_16">
    <path d="M 45.371875 166.45 
L 194.816606 166.45 
" style="fill:none;stroke:#000000;stroke-linecap:square;stroke-linejoin:miter;stroke-width:0.8;"/>
   </g>
   <g id="legend_2">
    <g id="line2d_36">
     <path d="M 57.971875 258.264375 
L 71.971875 258.264375 
" style="fill:none;stroke:#0000ff;stroke-dasharray:5.55,2.4;stroke-dashoffset:0;stroke-width:1.5;"/>
    </g>
    <g id="line2d_37"/>
    <g id="text_17">
     <!-- $|1 - A_G|^2$ -->
     <g transform="translate(74.771875 263.164375)scale(0.14 -0.14)">
      <defs>
       <path d="M 678 2272 
L 4684 2272 
L 4684 1741 
L 678 1741 
L 678 2272 
z
" id="DejaVuSans-2212" transform="scale(0.015625)"/>
      </defs>
      <use transform="translate(0 0.765625)" xlink:href="#DejaVuSans-7c"/>
      <use transform="translate(33.691406 0.765625)" xlink:href="#DejaVuSans-31"/>
      <use transform="translate(116.796875 0.765625)" xlink:href="#DejaVuSans-2212"/>
      <use transform="translate(220.068359 0.765625)" xlink:href="#DejaVuSans-Oblique-41"/>
      <use transform="translate(288.476562 -15.640625)scale(0.7)" xlink:href="#DejaVuSans-Oblique-47"/>
      <use transform="translate(345.454102 0.765625)" xlink:href="#DejaVuSans-7c"/>
      <use transform="translate(380.102539 39.046875)scale(0.7)" xlink:href="#DejaVuSans-32"/>
     </g>
    </g>
    <g id="line2d_38">
     <path d="M 57.971875 273.662187 
L 71.971875 273.662187 
" style="fill:none;stroke:#0000ff;stroke-linecap:square;stroke-width:1.5;"/>
    </g>
    <g id="line2d_39"/>
    <g id="text_18">
     <!-- $I_{dark,1}$ -->
     <g transform="translate(74.771875 278.562187)scale(0.14 -0.14)">
      <defs>
       <path d="M 2675 525 
Q 2444 222 2128 65 
Q 1813 -91 1428 -91 
Q 903 -91 598 267 
Q 294 625 294 1247 
Q 294 1766 478 2236 
Q 663 2706 1013 3078 
Q 1244 3325 1534 3454 
Q 1825 3584 2144 3584 
Q 2481 3584 2739 3421 
Q 2997 3259 3138 2956 
L 3513 4863 
L 4091 4863 
L 3144 0 
L 2566 0 
L 2675 525 
z
M 891 1350 
Q 891 897 1095 644 
Q 1300 391 1663 391 
Q 1931 391 2161 520 
Q 2391 650 2566 903 
Q 2750 1166 2856 1509 
Q 2963 1853 2963 2188 
Q 2963 2622 2758 2865 
Q 2553 3109 2194 3109 
Q 1922 3109 1687 2981 
Q 1453 2853 1288 2613 
Q 1106 2353 998 2009 
Q 891 1666 891 1350 
z
" id="DejaVuSans-Oblique-64" transform="scale(0.015625)"/>
       <path d="M 3438 1997 
L 3047 0 
L 2472 0 
L 2578 531 
Q 2325 219 2001 64 
Q 1678 -91 1281 -91 
Q 834 -91 548 182 
Q 263 456 263 884 
Q 263 1497 752 1853 
Q 1241 2209 2100 2209 
L 2900 2209 
L 2931 2363 
Q 2938 2388 2941 2417 
Q 2944 2447 2944 2509 
Q 2944 2788 2717 2942 
Q 2491 3097 2081 3097 
Q 1800 3097 1504 3025 
Q 1209 2953 897 2809 
L 997 3341 
Q 1322 3463 1633 3523 
Q 1944 3584 2234 3584 
Q 2853 3584 3176 3315 
Q 3500 3047 3500 2534 
Q 3500 2431 3484 2292 
Q 3469 2153 3438 1997 
z
M 2816 1759 
L 2241 1759 
Q 1534 1759 1195 1570 
Q 856 1381 856 984 
Q 856 709 1029 553 
Q 1203 397 1509 397 
Q 1978 397 2328 733 
Q 2678 1069 2791 1631 
L 2816 1759 
z
" id="DejaVuSans-Oblique-61" transform="scale(0.015625)"/>
       <path d="M 1172 4863 
L 1747 4863 
L 1197 2028 
L 3169 3500 
L 3916 3500 
L 1716 1825 
L 3322 0 
L 2625 0 
L 1131 1709 
L 800 0 
L 225 0 
L 1172 4863 
z
" id="DejaVuSans-Oblique-6b" transform="scale(0.015625)"/>
       <path d="M 750 794 
L 1409 794 
L 1409 256 
L 897 -744 
L 494 -744 
L 750 256 
L 750 794 
z
" id="DejaVuSans-2c" transform="scale(0.015625)"/>
      </defs>
      <use transform="translate(0 0.09375)" xlink:href="#DejaVuSans-Oblique-49"/>
      <use transform="translate(29.492188 -16.3125)scale(0.7)" xlink:href="#DejaVuSans-Oblique-64"/>
      <use transform="translate(73.925781 -16.3125)scale(0.7)" xlink:href="#DejaVuSans-Oblique-61"/>
      <use transform="translate(116.821289 -16.3125)scale(0.7)" xlink:href="#DejaVuSans-Oblique-72"/>
      <use transform="translate(145.600586 -16.3125)scale(0.7)" xlink:href="#DejaVuSans-Oblique-6b"/>
      <use transform="translate(186.137695 -16.3125)scale(0.7)" xlink:href="#DejaVuSans-2c"/>
      <use transform="translate(222.026367 -16.3125)scale(0.7)" xlink:href="#DejaVuSans-31"/>
     </g>
    </g>
    <g id="line2d_40">
     <path d="M 57.971875 289.2 
L 71.971875 289.2 
" style="fill:none;stroke:#17becf;stroke-linecap:square;stroke-width:1.5;"/>
    </g>
    <g id="line2d_41"/>
    <g id="text_19">
     <!-- $I_{dark,2}$ -->
     <g transform="translate(74.771875 294.1)scale(0.14 -0.14)">
      <use transform="translate(0 0.09375)" xlink:href="#DejaVuSans-Oblique-49"/>
      <use transform="translate(29.492188 -16.3125)scale(0.7)" xlink:href="#DejaVuSans-Oblique-64"/>
      <use transform="translate(73.925781 -16.3125)scale(0.7)" xlink:href="#DejaVuSans-Oblique-61"/>
      <use transform="translate(116.821289 -16.3125)scale(0.7)" xlink:href="#DejaVuSans-Oblique-72"/>
      <use transform="translate(145.600586 -16.3125)scale(0.7)" xlink:href="#DejaVuSans-Oblique-6b"/>
      <use transform="translate(186.137695 -16.3125)scale(0.7)" xlink:href="#DejaVuSans-2c"/>
      <use transform="translate(222.026367 -16.3125)scale(0.7)" xlink:href="#DejaVuSans-32"/>
     </g>
    </g>
   </g>
  </g>
  <g id="axes_4">
   <g id="patch_17">
    <path d="M 209.754106 310.2 
L 359.198838 310.2 
L 359.198838 166.45 
L 209.754106 166.45 
z
" style="fill:#ffffff;"/>
   </g>
   <g id="matplotlib.axis_7">
    <g id="xtick_10">
     <g id="line2d_42">
      <g>
       <use style="stroke:#000000;stroke-width:0.8;" x="216.547049" xlink:href="#m2352729d17" y="310.2"/>
      </g>
     </g>
     <g id="text_20">
      <!-- 0 -->
      <g transform="translate(212.093299 327.837812)scale(0.14 -0.14)">
       <use xlink:href="#DejaVuSans-30"/>
      </g>
     </g>
    </g>
    <g id="xtick_11">
     <g id="line2d_43">
      <g>
       <use style="stroke:#000000;stroke-width:0.8;" x="284.476472" xlink:href="#m2352729d17" y="310.2"/>
      </g>
     </g>
     <g id="text_21">
      <!-- 5 -->
      <g transform="translate(280.022722 327.837812)scale(0.14 -0.14)">
       <use xlink:href="#DejaVuSans-35"/>
      </g>
     </g>
    </g>
    <g id="xtick_12">
     <g id="line2d_44">
      <g>
       <use style="stroke:#000000;stroke-width:0.8;" x="352.405895" xlink:href="#m2352729d17" y="310.2"/>
      </g>
     </g>
     <g id="text_22">
      <!-- 10 -->
      <g transform="translate(343.498395 327.837812)scale(0.14 -0.14)">
       <use xlink:href="#DejaVuSans-31"/>
       <use x="63.623047" xlink:href="#DejaVuSans-30"/>
      </g>
     </g>
    </g>
    <g id="text_23">
     <!-- $z_2$ [$\mathrm{\mu m}$] -->
     <g transform="translate(258.506472 345.389375)scale(0.14 -0.14)">
      <defs>
       <path d="M 744 3500 
L 3475 3500 
L 3372 2975 
L 738 459 
L 2913 459 
L 2822 0 
L -19 0 
L 84 525 
L 2719 3041 
L 653 3041 
L 744 3500 
z
" id="DejaVuSans-Oblique-7a" transform="scale(0.015625)"/>
      </defs>
      <use transform="translate(0 0.015625)" xlink:href="#DejaVuSans-Oblique-7a"/>
      <use transform="translate(52.490234 -16.390625)scale(0.7)" xlink:href="#DejaVuSans-32"/>
      <use transform="translate(99.760742 0.015625)" xlink:href="#DejaVuSans-20"/>
      <use transform="translate(131.547852 0.015625)" xlink:href="#DejaVuSans-5b"/>
      <use transform="translate(170.561523 0.015625)" xlink:href="#DejaVuSans-3bc"/>
      <use transform="translate(234.18457 0.015625)" xlink:href="#DejaVuSans-6d"/>
      <use transform="translate(331.59668 0.015625)" xlink:href="#DejaVuSans-5d"/>
     </g>
    </g>
   </g>
   <g id="matplotlib.axis_8">
    <g id="ytick_16">
     <g id="line2d_45">
      <g>
       <use style="stroke:#000000;stroke-width:0.8;" x="209.754106" xlink:href="#m9a7b2d6aae" y="310.2"/>
      </g>
     </g>
    </g>
    <g id="ytick_17">
     <g id="line2d_46">
      <g>
       <use style="stroke:#000000;stroke-width:0.8;" x="209.754106" xlink:href="#m9a7b2d6aae" y="275.97381"/>
      </g>
     </g>
    </g>
    <g id="ytick_18">
     <g id="line2d_47">
      <g>
       <use style="stroke:#000000;stroke-width:0.8;" x="209.754106" xlink:href="#m9a7b2d6aae" y="241.747619"/>
      </g>
     </g>
    </g>
    <g id="ytick_19">
     <g id="line2d_48">
      <g>
       <use style="stroke:#000000;stroke-width:0.8;" x="209.754106" xlink:href="#m9a7b2d6aae" y="207.521429"/>
      </g>
     </g>
    </g>
    <g id="ytick_20">
     <g id="line2d_49">
      <g>
       <use style="stroke:#000000;stroke-width:0.8;" x="209.754106" xlink:href="#m9a7b2d6aae" y="173.295238"/>
      </g>
     </g>
    </g>
   </g>
   <g id="line2d_50">
    <path clip-path="url(#pfa5e9e1cc5)" d="M 216.547049 310.198683 
L 224.094762 307.269095 
L 231.642476 298.805277 
L 239.19019 285.730906 
L 246.737904 269.437885 
L 254.285617 251.586126 
L 261.833331 233.871592 
L 269.381045 217.800676 
L 276.928758 204.506615 
L 284.476472 194.635029 
L 292.024186 188.312525 
L 299.5719 185.197298 
L 307.119613 184.596572 
L 314.667327 185.62527 
L 322.215041 187.375068 
L 329.762754 189.063848 
L 337.310468 190.141852 
L 344.858182 190.34099 
L 352.405895 189.665661 
" style="fill:none;stroke:#0000ff;stroke-linecap:square;stroke-width:1.5;"/>
   </g>
   <g id="line2d_51">
    <path clip-path="url(#pfa5e9e1cc5)" d="M 224.094762 308.023767 
L 231.642476 301.891293 
L 239.19019 292.823619 
L 246.737904 282.084192 
L 254.285617 270.818386 
L 261.833331 259.861743 
L 269.381045 249.715011 
L 276.928758 240.610848 
L 284.476472 232.603201 
L 292.024186 225.643422 
L 299.5719 219.633266 
L 307.119613 214.457318 
L 314.667327 210.000793 
L 322.215041 206.15816 
L 329.762754 202.836463 
L 337.310468 199.955835 
L 344.858182 197.448633 
L 352.405895 195.258043 
" style="fill:none;stroke:#0000ff;stroke-dasharray:5.55,2.4;stroke-dashoffset:0;stroke-width:1.5;"/>
   </g>
   <g id="line2d_52">
    <path clip-path="url(#pfa5e9e1cc5)" d="M 216.547049 309.811221 
L 224.094762 309.038291 
L 231.642476 306.767117 
L 239.19019 303.049387 
L 246.737904 297.969581 
L 254.285617 291.642695 
L 261.833331 284.211163 
L 269.381045 275.841048 
L 276.928758 266.717628 
L 284.476472 257.040496 
L 292.024186 247.018318 
L 299.5719 236.863406 
L 307.119613 226.786255 
L 314.667327 216.990201 
L 322.215041 207.666354 
L 329.762754 198.988939 
L 337.310468 191.111185 
L 344.858182 184.161858 
L 352.405895 178.242536 
" style="fill:none;stroke:#17becf;stroke-linecap:square;stroke-width:1.5;"/>
   </g>
   <g id="patch_18">
    <path d="M 209.754106 310.2 
L 209.754106 166.45 
" style="fill:none;stroke:#000000;stroke-linecap:square;stroke-linejoin:miter;stroke-width:0.8;"/>
   </g>
   <g id="patch_19">
    <path d="M 359.198838 310.2 
L 359.198838 166.45 
" style="fill:none;stroke:#000000;stroke-linecap:square;stroke-linejoin:miter;stroke-width:0.8;"/>
   </g>
   <g id="patch_20">
    <path d="M 209.754106 310.2 
L 359.198838 310.2 
" style="fill:none;stroke:#000000;stroke-linecap:square;stroke-linejoin:miter;stroke-width:0.8;"/>
   </g>
   <g id="patch_21">
    <path d="M 209.754106 166.45 
L 359.198838 166.45 
" style="fill:none;stroke:#000000;stroke-linecap:square;stroke-linejoin:miter;stroke-width:0.8;"/>
   </g>
  </g>
 </g>
 <defs>
  <clipPath id="pb05624d60b">
   <rect height="143.75" width="149.444731" x="45.371875" y="7.2"/>
  </clipPath>
  <clipPath id="p396546740d">
   <rect height="143.75" width="149.444731" x="209.754106" y="7.2"/>
  </clipPath>
  <clipPath id="p69638eda2f">
   <rect height="143.75" width="149.444731" x="45.371875" y="166.45"/>
  </clipPath>
  <clipPath id="pfa5e9e1cc5">
   <rect height="143.75" width="149.444731" x="209.754106" y="166.45"/>
  </clipPath>
 </defs>
</svg>
