<?xml version="1.0" encoding="utf-8" standalone="no"?>
<!DOCTYPE svg PUBLIC "-//W3C//DTD SVG 1.1//EN"
  "http://www.w3.org/Graphics/SVG/1.1/DTD/svg11.dtd">
<svg height="269.529375pt" version="1.1" viewBox="0 0 418.105 269.529375" width="418.105pt" xmlns="http://www.w3.org/2000/svg" xmlns:xlink="http://www.w3.org/1999/xlink">
 <metadata>
  <rdf:RDF xmlns:cc="http://creativecommons.org/ns#" xmlns:dc="http://purl.org/dc/elements/1.1/" xmlns:rdf="http://www.w3.org/1999/02/22-rdf-syntax-ns#">
   <cc:Work>
    <dc:type rdf:resource="http://purl.org/dc/dcmitype/StillImage"/>
    <dc:date>2022-03-02T10:00:18.349500</dc:date>
    <dc:format>image/svg+xml</dc:format>
    <dc:creator>
     <cc:Agent>
      <dc:title>Matplotlib v3.4.3, https://matplotlib.org/</dc:title>
     </cc:Agent>
    </dc:creator>
   </cc:Work>
  </rdf:RDF>
 </metadata>
 <defs>
  <style type="text/css">*{stroke-linecap:butt;stroke-linejoin:round;}</style>
 </defs>
 <g id="figure_1">
  <g id="patch_1">
   <path d="M -0 269.529375 
L 418.105 269.529375 
L 418.105 0 
L -0 0 
z
" style="fill:none;"/>
  </g>
  <g id="axes_1">
   <g id="patch_2">
    <path d="M 54.01375 224.2 
L 218.82625 224.2 
L 218.82625 7.2 
L 54.01375 7.2 
z
" style="fill:#ffffff;"/>
   </g>
   <g id="matplotlib.axis_1">
    <g id="xtick_1">
     <g id="line2d_1">
      <defs>
       <path d="M 0 0 
L 0 3.5 
" id="m557be96b70" style="stroke:#000000;stroke-width:0.8;"/>
      </defs>
      <g>
       <use style="stroke:#000000;stroke-width:0.8;" x="54.01375" xlink:href="#m557be96b70" y="224.2"/>
      </g>
     </g>
     <g id="text_1">
      <!-- 0 -->
      <g transform="translate(49.56 241.837813)scale(0.14 -0.14)">
       <defs>
        <path d="M 2034 4250 
Q 1547 4250 1301 3770 
Q 1056 3291 1056 2328 
Q 1056 1369 1301 889 
Q 1547 409 2034 409 
Q 2525 409 2770 889 
Q 3016 1369 3016 2328 
Q 3016 3291 2770 3770 
Q 2525 4250 2034 4250 
z
M 2034 4750 
Q 2819 4750 3233 4129 
Q 3647 3509 3647 2328 
Q 3647 1150 3233 529 
Q 2819 -91 2034 -91 
Q 1250 -91 836 529 
Q 422 1150 422 2328 
Q 422 3509 836 4129 
Q 1250 4750 2034 4750 
z
" id="DejaVuSans-30" transform="scale(0.015625)"/>
       </defs>
       <use xlink:href="#DejaVuSans-30"/>
      </g>
     </g>
    </g>
    <g id="xtick_2">
     <g id="line2d_2">
      <g>
       <use style="stroke:#000000;stroke-width:0.8;" x="108.95125" xlink:href="#m557be96b70" y="224.2"/>
      </g>
     </g>
     <g id="text_2">
      <!-- 2 -->
      <g transform="translate(104.4975 241.837813)scale(0.14 -0.14)">
       <defs>
        <path d="M 1228 531 
L 3431 531 
L 3431 0 
L 469 0 
L 469 531 
Q 828 903 1448 1529 
Q 2069 2156 2228 2338 
Q 2531 2678 2651 2914 
Q 2772 3150 2772 3378 
Q 2772 3750 2511 3984 
Q 2250 4219 1831 4219 
Q 1534 4219 1204 4116 
Q 875 4013 500 3803 
L 500 4441 
Q 881 4594 1212 4672 
Q 1544 4750 1819 4750 
Q 2544 4750 2975 4387 
Q 3406 4025 3406 3419 
Q 3406 3131 3298 2873 
Q 3191 2616 2906 2266 
Q 2828 2175 2409 1742 
Q 1991 1309 1228 531 
z
" id="DejaVuSans-32" transform="scale(0.015625)"/>
       </defs>
       <use xlink:href="#DejaVuSans-32"/>
      </g>
     </g>
    </g>
    <g id="xtick_3">
     <g id="line2d_3">
      <g>
       <use style="stroke:#000000;stroke-width:0.8;" x="163.88875" xlink:href="#m557be96b70" y="224.2"/>
      </g>
     </g>
     <g id="text_3">
      <!-- 4 -->
      <g transform="translate(159.435 241.837813)scale(0.14 -0.14)">
       <defs>
        <path d="M 2419 4116 
L 825 1625 
L 2419 1625 
L 2419 4116 
z
M 2253 4666 
L 3047 4666 
L 3047 1625 
L 3713 1625 
L 3713 1100 
L 3047 1100 
L 3047 0 
L 2419 0 
L 2419 1100 
L 313 1100 
L 313 1709 
L 2253 4666 
z
" id="DejaVuSans-34" transform="scale(0.015625)"/>
       </defs>
       <use xlink:href="#DejaVuSans-34"/>
      </g>
     </g>
    </g>
    <g id="xtick_4">
     <g id="line2d_4">
      <g>
       <use style="stroke:#000000;stroke-width:0.8;" x="218.82625" xlink:href="#m557be96b70" y="224.2"/>
      </g>
     </g>
     <g id="text_4">
      <!-- 6 -->
      <g transform="translate(214.3725 241.837813)scale(0.14 -0.14)">
       <defs>
        <path d="M 2113 2584 
Q 1688 2584 1439 2293 
Q 1191 2003 1191 1497 
Q 1191 994 1439 701 
Q 1688 409 2113 409 
Q 2538 409 2786 701 
Q 3034 994 3034 1497 
Q 3034 2003 2786 2293 
Q 2538 2584 2113 2584 
z
M 3366 4563 
L 3366 3988 
Q 3128 4100 2886 4159 
Q 2644 4219 2406 4219 
Q 1781 4219 1451 3797 
Q 1122 3375 1075 2522 
Q 1259 2794 1537 2939 
Q 1816 3084 2150 3084 
Q 2853 3084 3261 2657 
Q 3669 2231 3669 1497 
Q 3669 778 3244 343 
Q 2819 -91 2113 -91 
Q 1303 -91 875 529 
Q 447 1150 447 2328 
Q 447 3434 972 4092 
Q 1497 4750 2381 4750 
Q 2619 4750 2861 4703 
Q 3103 4656 3366 4563 
z
" id="DejaVuSans-36" transform="scale(0.015625)"/>
       </defs>
       <use xlink:href="#DejaVuSans-36"/>
      </g>
     </g>
    </g>
    <g id="text_5">
     <!-- z [$\mathrm{\mu m}$] -->
     <g transform="translate(113.74 259.389375)scale(0.14 -0.14)">
      <defs>
       <path d="M 353 3500 
L 3084 3500 
L 3084 2975 
L 922 459 
L 3084 459 
L 3084 0 
L 275 0 
L 275 525 
L 2438 3041 
L 353 3041 
L 353 3500 
z
" id="DejaVuSans-7a" transform="scale(0.015625)"/>
       <path id="DejaVuSans-20" transform="scale(0.015625)"/>
       <path d="M 550 4863 
L 1875 4863 
L 1875 4416 
L 1125 4416 
L 1125 -397 
L 1875 -397 
L 1875 -844 
L 550 -844 
L 550 4863 
z
" id="DejaVuSans-5b" transform="scale(0.015625)"/>
       <path d="M 544 -1331 
L 544 3500 
L 1119 3500 
L 1119 1325 
Q 1119 872 1334 640 
Q 1550 409 1972 409 
Q 2434 409 2667 671 
Q 2900 934 2900 1459 
L 2900 3500 
L 3475 3500 
L 3475 806 
Q 3475 619 3529 530 
Q 3584 441 3700 441 
Q 3728 441 3778 458 
Q 3828 475 3916 513 
L 3916 50 
Q 3788 -22 3673 -56 
Q 3559 -91 3450 -91 
Q 3234 -91 3106 31 
Q 2978 153 2931 403 
Q 2775 156 2548 32 
Q 2322 -91 2016 -91 
Q 1697 -91 1473 31 
Q 1250 153 1119 397 
L 1119 -1331 
L 544 -1331 
z
" id="DejaVuSans-3bc" transform="scale(0.015625)"/>
       <path d="M 3328 2828 
Q 3544 3216 3844 3400 
Q 4144 3584 4550 3584 
Q 5097 3584 5394 3201 
Q 5691 2819 5691 2113 
L 5691 0 
L 5113 0 
L 5113 2094 
Q 5113 2597 4934 2840 
Q 4756 3084 4391 3084 
Q 3944 3084 3684 2787 
Q 3425 2491 3425 1978 
L 3425 0 
L 2847 0 
L 2847 2094 
Q 2847 2600 2669 2842 
Q 2491 3084 2119 3084 
Q 1678 3084 1418 2786 
Q 1159 2488 1159 1978 
L 1159 0 
L 581 0 
L 581 3500 
L 1159 3500 
L 1159 2956 
Q 1356 3278 1631 3431 
Q 1906 3584 2284 3584 
Q 2666 3584 2933 3390 
Q 3200 3197 3328 2828 
z
" id="DejaVuSans-6d" transform="scale(0.015625)"/>
       <path d="M 1947 4863 
L 1947 -844 
L 622 -844 
L 622 -397 
L 1369 -397 
L 1369 4416 
L 622 4416 
L 622 4863 
L 1947 4863 
z
" id="DejaVuSans-5d" transform="scale(0.015625)"/>
      </defs>
      <use transform="translate(0 0.015625)" xlink:href="#DejaVuSans-7a"/>
      <use transform="translate(52.490234 0.015625)" xlink:href="#DejaVuSans-20"/>
      <use transform="translate(84.277344 0.015625)" xlink:href="#DejaVuSans-5b"/>
      <use transform="translate(123.291016 0.015625)" xlink:href="#DejaVuSans-3bc"/>
      <use transform="translate(186.914062 0.015625)" xlink:href="#DejaVuSans-6d"/>
      <use transform="translate(284.326172 0.015625)" xlink:href="#DejaVuSans-5d"/>
     </g>
    </g>
   </g>
   <g id="matplotlib.axis_2">
    <g id="ytick_1">
     <g id="line2d_5">
      <defs>
       <path d="M 0 0 
L -3.5 0 
" id="ma176450408" style="stroke:#000000;stroke-width:0.8;"/>
      </defs>
      <g>
       <use style="stroke:#000000;stroke-width:0.8;" x="54.01375" xlink:href="#ma176450408" y="214.336364"/>
      </g>
     </g>
     <g id="text_6">
      <!-- 0.0 -->
      <g transform="translate(24.749375 219.65527)scale(0.14 -0.14)">
       <defs>
        <path d="M 684 794 
L 1344 794 
L 1344 0 
L 684 0 
L 684 794 
z
" id="DejaVuSans-2e" transform="scale(0.015625)"/>
       </defs>
       <use xlink:href="#DejaVuSans-30"/>
       <use x="63.623047" xlink:href="#DejaVuSans-2e"/>
       <use x="95.410156" xlink:href="#DejaVuSans-30"/>
      </g>
     </g>
    </g>
    <g id="ytick_2">
     <g id="line2d_6">
      <g>
       <use style="stroke:#000000;stroke-width:0.8;" x="54.01375" xlink:href="#ma176450408" y="177.145976"/>
      </g>
     </g>
     <g id="text_7">
      <!-- 0.2 -->
      <g transform="translate(24.749375 182.464882)scale(0.14 -0.14)">
       <use xlink:href="#DejaVuSans-30"/>
       <use x="63.623047" xlink:href="#DejaVuSans-2e"/>
       <use x="95.410156" xlink:href="#DejaVuSans-32"/>
      </g>
     </g>
    </g>
    <g id="ytick_3">
     <g id="line2d_7">
      <g>
       <use style="stroke:#000000;stroke-width:0.8;" x="54.01375" xlink:href="#ma176450408" y="139.955588"/>
      </g>
     </g>
     <g id="text_8">
      <!-- 0.4 -->
      <g transform="translate(24.749375 145.274494)scale(0.14 -0.14)">
       <use xlink:href="#DejaVuSans-30"/>
       <use x="63.623047" xlink:href="#DejaVuSans-2e"/>
       <use x="95.410156" xlink:href="#DejaVuSans-34"/>
      </g>
     </g>
    </g>
    <g id="ytick_4">
     <g id="line2d_8">
      <g>
       <use style="stroke:#000000;stroke-width:0.8;" x="54.01375" xlink:href="#ma176450408" y="102.7652"/>
      </g>
     </g>
     <g id="text_9">
      <!-- 0.6 -->
      <g transform="translate(24.749375 108.084106)scale(0.14 -0.14)">
       <use xlink:href="#DejaVuSans-30"/>
       <use x="63.623047" xlink:href="#DejaVuSans-2e"/>
       <use x="95.410156" xlink:href="#DejaVuSans-36"/>
      </g>
     </g>
    </g>
    <g id="ytick_5">
     <g id="line2d_9">
      <g>
       <use style="stroke:#000000;stroke-width:0.8;" x="54.01375" xlink:href="#ma176450408" y="65.574812"/>
      </g>
     </g>
     <g id="text_10">
      <!-- 0.8 -->
      <g transform="translate(24.749375 70.893718)scale(0.14 -0.14)">
       <defs>
        <path d="M 2034 2216 
Q 1584 2216 1326 1975 
Q 1069 1734 1069 1313 
Q 1069 891 1326 650 
Q 1584 409 2034 409 
Q 2484 409 2743 651 
Q 3003 894 3003 1313 
Q 3003 1734 2745 1975 
Q 2488 2216 2034 2216 
z
M 1403 2484 
Q 997 2584 770 2862 
Q 544 3141 544 3541 
Q 544 4100 942 4425 
Q 1341 4750 2034 4750 
Q 2731 4750 3128 4425 
Q 3525 4100 3525 3541 
Q 3525 3141 3298 2862 
Q 3072 2584 2669 2484 
Q 3125 2378 3379 2068 
Q 3634 1759 3634 1313 
Q 3634 634 3220 271 
Q 2806 -91 2034 -91 
Q 1263 -91 848 271 
Q 434 634 434 1313 
Q 434 1759 690 2068 
Q 947 2378 1403 2484 
z
M 1172 3481 
Q 1172 3119 1398 2916 
Q 1625 2713 2034 2713 
Q 2441 2713 2670 2916 
Q 2900 3119 2900 3481 
Q 2900 3844 2670 4047 
Q 2441 4250 2034 4250 
Q 1625 4250 1398 4047 
Q 1172 3844 1172 3481 
z
" id="DejaVuSans-38" transform="scale(0.015625)"/>
       </defs>
       <use xlink:href="#DejaVuSans-30"/>
       <use x="63.623047" xlink:href="#DejaVuSans-2e"/>
       <use x="95.410156" xlink:href="#DejaVuSans-38"/>
      </g>
     </g>
    </g>
    <g id="ytick_6">
     <g id="line2d_10">
      <g>
       <use style="stroke:#000000;stroke-width:0.8;" x="54.01375" xlink:href="#ma176450408" y="28.384424"/>
      </g>
     </g>
     <g id="text_11">
      <!-- 1.0 -->
      <g transform="translate(24.749375 33.70333)scale(0.14 -0.14)">
       <defs>
        <path d="M 794 531 
L 1825 531 
L 1825 4091 
L 703 3866 
L 703 4441 
L 1819 4666 
L 2450 4666 
L 2450 531 
L 3481 531 
L 3481 0 
L 794 0 
L 794 531 
z
" id="DejaVuSans-31" transform="scale(0.015625)"/>
       </defs>
       <use xlink:href="#DejaVuSans-31"/>
       <use x="63.623047" xlink:href="#DejaVuSans-2e"/>
       <use x="95.410156" xlink:href="#DejaVuSans-30"/>
      </g>
     </g>
    </g>
    <g id="text_12">
     <!-- Intensity -->
     <g transform="translate(17.837812 146.1675)rotate(-90)scale(0.14 -0.14)">
      <defs>
       <path d="M 628 4666 
L 1259 4666 
L 1259 0 
L 628 0 
L 628 4666 
z
" id="DejaVuSans-49" transform="scale(0.015625)"/>
       <path d="M 3513 2113 
L 3513 0 
L 2938 0 
L 2938 2094 
Q 2938 2591 2744 2837 
Q 2550 3084 2163 3084 
Q 1697 3084 1428 2787 
Q 1159 2491 1159 1978 
L 1159 0 
L 581 0 
L 581 3500 
L 1159 3500 
L 1159 2956 
Q 1366 3272 1645 3428 
Q 1925 3584 2291 3584 
Q 2894 3584 3203 3211 
Q 3513 2838 3513 2113 
z
" id="DejaVuSans-6e" transform="scale(0.015625)"/>
       <path d="M 1172 4494 
L 1172 3500 
L 2356 3500 
L 2356 3053 
L 1172 3053 
L 1172 1153 
Q 1172 725 1289 603 
Q 1406 481 1766 481 
L 2356 481 
L 2356 0 
L 1766 0 
Q 1100 0 847 248 
Q 594 497 594 1153 
L 594 3053 
L 172 3053 
L 172 3500 
L 594 3500 
L 594 4494 
L 1172 4494 
z
" id="DejaVuSans-74" transform="scale(0.015625)"/>
       <path d="M 3597 1894 
L 3597 1613 
L 953 1613 
Q 991 1019 1311 708 
Q 1631 397 2203 397 
Q 2534 397 2845 478 
Q 3156 559 3463 722 
L 3463 178 
Q 3153 47 2828 -22 
Q 2503 -91 2169 -91 
Q 1331 -91 842 396 
Q 353 884 353 1716 
Q 353 2575 817 3079 
Q 1281 3584 2069 3584 
Q 2775 3584 3186 3129 
Q 3597 2675 3597 1894 
z
M 3022 2063 
Q 3016 2534 2758 2815 
Q 2500 3097 2075 3097 
Q 1594 3097 1305 2825 
Q 1016 2553 972 2059 
L 3022 2063 
z
" id="DejaVuSans-65" transform="scale(0.015625)"/>
       <path d="M 2834 3397 
L 2834 2853 
Q 2591 2978 2328 3040 
Q 2066 3103 1784 3103 
Q 1356 3103 1142 2972 
Q 928 2841 928 2578 
Q 928 2378 1081 2264 
Q 1234 2150 1697 2047 
L 1894 2003 
Q 2506 1872 2764 1633 
Q 3022 1394 3022 966 
Q 3022 478 2636 193 
Q 2250 -91 1575 -91 
Q 1294 -91 989 -36 
Q 684 19 347 128 
L 347 722 
Q 666 556 975 473 
Q 1284 391 1588 391 
Q 1994 391 2212 530 
Q 2431 669 2431 922 
Q 2431 1156 2273 1281 
Q 2116 1406 1581 1522 
L 1381 1569 
Q 847 1681 609 1914 
Q 372 2147 372 2553 
Q 372 3047 722 3315 
Q 1072 3584 1716 3584 
Q 2034 3584 2315 3537 
Q 2597 3491 2834 3397 
z
" id="DejaVuSans-73" transform="scale(0.015625)"/>
       <path d="M 603 3500 
L 1178 3500 
L 1178 0 
L 603 0 
L 603 3500 
z
M 603 4863 
L 1178 4863 
L 1178 4134 
L 603 4134 
L 603 4863 
z
" id="DejaVuSans-69" transform="scale(0.015625)"/>
       <path d="M 2059 -325 
Q 1816 -950 1584 -1140 
Q 1353 -1331 966 -1331 
L 506 -1331 
L 506 -850 
L 844 -850 
Q 1081 -850 1212 -737 
Q 1344 -625 1503 -206 
L 1606 56 
L 191 3500 
L 800 3500 
L 1894 763 
L 2988 3500 
L 3597 3500 
L 2059 -325 
z
" id="DejaVuSans-79" transform="scale(0.015625)"/>
      </defs>
      <use xlink:href="#DejaVuSans-49"/>
      <use x="29.492188" xlink:href="#DejaVuSans-6e"/>
      <use x="92.871094" xlink:href="#DejaVuSans-74"/>
      <use x="132.080078" xlink:href="#DejaVuSans-65"/>
      <use x="193.603516" xlink:href="#DejaVuSans-6e"/>
      <use x="256.982422" xlink:href="#DejaVuSans-73"/>
      <use x="309.082031" xlink:href="#DejaVuSans-69"/>
      <use x="336.865234" xlink:href="#DejaVuSans-74"/>
      <use x="376.074219" xlink:href="#DejaVuSans-79"/>
     </g>
    </g>
   </g>
   <g id="line2d_11">
    <path clip-path="url(#pae2f2381b5)" d="M 54.01375 28.384424 
L 59.69694 28.931736 
L 65.380129 30.554512 
L 71.063319 33.196918 
L 76.746509 36.771151 
L 82.429698 41.164461 
L 88.112888 46.247495 
L 93.796078 51.882901 
L 99.479267 57.933238 
L 105.162457 64.26754 
L 110.845647 70.766177 
L 116.528836 77.323965 
L 122.212026 83.85168 
L 127.895216 90.276273 
L 133.578405 96.540121 
L 139.261595 102.599656 
L 144.944784 108.423633 
L 150.627974 113.991286 
L 156.311164 119.290498 
L 161.994353 124.316111 
L 167.677543 129.068419 
L 173.360733 133.551862 
L 179.043922 137.773939 
L 184.727112 141.744311 
L 190.410302 145.474083 
L 196.093491 148.975235 
L 201.776681 152.260184 
L 207.459871 155.341451 
L 213.14306 158.231415 
L 218.82625 160.942133 
" style="fill:none;stroke:#ff0000;stroke-dasharray:5.55,2.4;stroke-dashoffset:0;stroke-width:1.5;"/>
   </g>
   <g id="line2d_12">
    <path clip-path="url(#pae2f2381b5)" d="M 59.69694 213.789051 
L 65.380129 212.166276 
L 71.063319 209.52387 
L 76.746509 205.949636 
L 82.429698 201.556327 
L 88.112888 196.473293 
L 93.796078 190.837887 
L 99.479267 184.787549 
L 105.162457 178.453247 
L 110.845647 171.95461 
L 116.528836 165.396822 
L 122.212026 158.869107 
L 127.895216 152.444515 
L 133.578405 146.180666 
L 139.261595 140.121132 
L 144.944784 134.297155 
L 150.627974 128.729502 
L 156.311164 123.43029 
L 161.994353 118.404676 
L 167.677543 113.652368 
L 173.360733 109.168925 
L 179.043922 104.946849 
L 184.727112 100.976477 
L 190.410302 97.246705 
L 196.093491 93.745553 
L 201.776681 90.460604 
L 207.459871 87.379336 
L 213.14306 84.489373 
L 218.82625 81.778655 
" style="fill:none;stroke:#0000ff;stroke-dasharray:5.55,2.4;stroke-dashoffset:0;stroke-width:1.5;"/>
   </g>
   <g id="line2d_13">
    <path clip-path="url(#pae2f2381b5)" d="M 54.01375 28.384424 
L 59.69694 28.705335 
L 65.380129 29.664838 
L 71.063319 31.253301 
L 76.746509 33.45482 
L 82.429698 36.247466 
L 88.112888 39.603595 
L 93.796078 43.49026 
L 99.479267 47.869686 
L 105.162457 52.699811 
L 110.845647 57.934894 
L 116.528836 63.526156 
L 122.212026 69.422463 
L 127.895216 75.571032 
L 133.578405 81.91815 
L 139.261595 88.409892 
L 144.944784 94.992831 
L 150.627974 101.614736 
L 156.311164 108.225244 
L 161.994353 114.776507 
L 167.677543 121.223805 
L 173.360733 127.526136 
L 179.043922 133.646767 
L 184.727112 139.553749 
L 190.410302 145.220375 
L 196.093491 150.625535 
L 201.776681 155.753872 
L 207.459871 160.595548 
L 213.14306 165.145263 
L 218.82625 169.399868 
" style="fill:none;stroke:#ff0000;stroke-linecap:square;stroke-width:1.5;"/>
   </g>
   <g id="line2d_14">
    <path clip-path="url(#pae2f2381b5)" d="M 54.01375 214.336364 
L 59.69694 213.854527 
L 65.380129 212.415114 
L 71.063319 210.036309 
L 76.746509 206.748076 
L 82.429698 202.591656 
L 88.112888 197.618867 
L 93.796078 191.891237 
L 99.479267 185.478975 
L 105.162457 178.459802 
L 110.845647 170.917672 
L 116.528836 162.941389 
L 122.212026 154.623162 
L 127.895216 146.057107 
L 133.578405 137.337728 
L 139.261595 128.558386 
L 144.944784 119.809775 
L 150.627974 111.178414 
L 156.311164 102.745152 
L 161.994353 94.583694 
L 167.677543 86.759114 
L 173.360733 79.326354 
L 179.043922 72.328649 
L 184.727112 65.795857 
L 190.410302 59.742606 
L 196.093491 54.166172 
L 201.776681 49.043976 
L 207.459871 44.330505 
L 213.14306 39.953422 
L 218.82625 35.808466 
" style="fill:none;stroke:#0000ff;stroke-linecap:square;stroke-width:1.5;"/>
   </g>
   <g id="patch_3">
    <path d="M 54.01375 224.2 
L 54.01375 7.2 
" style="fill:none;stroke:#000000;stroke-linecap:square;stroke-linejoin:miter;stroke-width:0.8;"/>
   </g>
   <g id="patch_4">
    <path d="M 218.82625 224.2 
L 218.82625 7.2 
" style="fill:none;stroke:#000000;stroke-linecap:square;stroke-linejoin:miter;stroke-width:0.8;"/>
   </g>
   <g id="patch_5">
    <path d="M 54.01375 224.2 
L 218.82625 224.2 
" style="fill:none;stroke:#000000;stroke-linecap:square;stroke-linejoin:miter;stroke-width:0.8;"/>
   </g>
   <g id="patch_6">
    <path d="M 54.01375 7.2 
L 218.82625 7.2 
" style="fill:none;stroke:#000000;stroke-linecap:square;stroke-linejoin:miter;stroke-width:0.8;"/>
   </g>
  </g>
  <g id="axes_2">
   <g id="patch_7">
    <path d="M 241.63875 224.2 
L 406.45125 224.2 
L 406.45125 7.2 
L 241.63875 7.2 
z
" style="fill:#ffffff;"/>
   </g>
   <g id="matplotlib.axis_3">
    <g id="xtick_5">
     <g id="line2d_15">
      <g>
       <use style="stroke:#000000;stroke-width:0.8;" x="241.63875" xlink:href="#m557be96b70" y="224.2"/>
      </g>
     </g>
     <g id="text_13">
      <!-- 0 -->
      <g transform="translate(237.185 241.837813)scale(0.14 -0.14)">
       <use xlink:href="#DejaVuSans-30"/>
      </g>
     </g>
    </g>
    <g id="xtick_6">
     <g id="line2d_16">
      <g>
       <use style="stroke:#000000;stroke-width:0.8;" x="324.045" xlink:href="#m557be96b70" y="224.2"/>
      </g>
     </g>
     <g id="text_14">
      <!-- 1 -->
      <g transform="translate(319.59125 241.837813)scale(0.14 -0.14)">
       <use xlink:href="#DejaVuSans-31"/>
      </g>
     </g>
    </g>
    <g id="xtick_7">
     <g id="line2d_17">
      <g>
       <use style="stroke:#000000;stroke-width:0.8;" x="406.45125" xlink:href="#m557be96b70" y="224.2"/>
      </g>
     </g>
     <g id="text_15">
      <!-- 2 -->
      <g transform="translate(401.9975 241.837813)scale(0.14 -0.14)">
       <use xlink:href="#DejaVuSans-32"/>
      </g>
     </g>
    </g>
    <g id="text_16">
     <!-- $\rho_2$ [$\mathrm{\mu m}$] -->
     <g transform="translate(297.305 259.389375)scale(0.14 -0.14)">
      <defs>
       <path d="M 1203 2875 
Q 1453 3194 1981 3475 
Q 2188 3584 2756 3584 
Q 3394 3584 3694 3078 
Q 3994 2572 3834 1747 
Q 3672 922 3175 415 
Q 2678 -91 2041 -91 
Q 1656 -91 1409 63 
Q 1163 213 1044 525 
L 681 -1331 
L 103 -1331 
L 697 1716 
Q 838 2438 1203 2875 
z
M 3238 1747 
Q 3359 2381 3169 2744 
Q 2978 3103 2522 3103 
Q 2066 3103 1734 2744 
Q 1403 2381 1281 1747 
Q 1156 1113 1347 750 
Q 1538 391 1994 391 
Q 2450 391 2781 750 
Q 3113 1113 3238 1747 
z
" id="DejaVuSans-Oblique-3c1" transform="scale(0.015625)"/>
      </defs>
      <use transform="translate(0 0.015625)" xlink:href="#DejaVuSans-Oblique-3c1"/>
      <use transform="translate(63.476562 -16.390625)scale(0.7)" xlink:href="#DejaVuSans-32"/>
      <use transform="translate(110.74707 0.015625)" xlink:href="#DejaVuSans-20"/>
      <use transform="translate(142.53418 0.015625)" xlink:href="#DejaVuSans-5b"/>
      <use transform="translate(181.547852 0.015625)" xlink:href="#DejaVuSans-3bc"/>
      <use transform="translate(245.170898 0.015625)" xlink:href="#DejaVuSans-6d"/>
      <use transform="translate(342.583008 0.015625)" xlink:href="#DejaVuSans-5d"/>
     </g>
    </g>
   </g>
   <g id="matplotlib.axis_4">
    <g id="ytick_7">
     <g id="line2d_18">
      <g>
       <use style="stroke:#000000;stroke-width:0.8;" x="241.63875" xlink:href="#ma176450408" y="214.336364"/>
      </g>
     </g>
    </g>
    <g id="ytick_8">
     <g id="line2d_19">
      <g>
       <use style="stroke:#000000;stroke-width:0.8;" x="241.63875" xlink:href="#ma176450408" y="177.145976"/>
      </g>
     </g>
    </g>
    <g id="ytick_9">
     <g id="line2d_20">
      <g>
       <use style="stroke:#000000;stroke-width:0.8;" x="241.63875" xlink:href="#ma176450408" y="139.955588"/>
      </g>
     </g>
    </g>
    <g id="ytick_10">
     <g id="line2d_21">
      <g>
       <use style="stroke:#000000;stroke-width:0.8;" x="241.63875" xlink:href="#ma176450408" y="102.7652"/>
      </g>
     </g>
    </g>
    <g id="ytick_11">
     <g id="line2d_22">
      <g>
       <use style="stroke:#000000;stroke-width:0.8;" x="241.63875" xlink:href="#ma176450408" y="65.574812"/>
      </g>
     </g>
    </g>
    <g id="ytick_12">
     <g id="line2d_23">
      <g>
       <use style="stroke:#000000;stroke-width:0.8;" x="241.63875" xlink:href="#ma176450408" y="28.384424"/>
      </g>
     </g>
    </g>
   </g>
   <g id="line2d_24">
    <path clip-path="url(#p27a295108a)" d="M 241.63875 28.384424 
L 247.32194 30.144903 
L 253.005129 35.326965 
L 258.688319 43.641782 
L 264.371509 54.637732 
L 270.054698 67.741006 
L 275.737888 82.305094 
L 281.421078 97.663209 
L 287.104267 113.177802 
L 292.787457 128.282196 
L 298.470647 142.510851 
L 304.153836 155.516621 
L 309.837026 167.075129 
L 315.520216 177.077932 
L 321.203405 185.517183 
L 326.886595 192.46498 
L 332.569784 198.050588 
L 338.252974 202.438248 
L 343.936164 205.807611 
L 349.619353 208.338034 
L 355.302543 210.197198 
L 360.985733 211.533947 
L 366.668922 212.474747 
L 372.352112 213.123015 
L 378.035302 213.560442 
L 383.718491 213.849521 
L 389.401681 214.036657 
L 395.084871 214.155337 
L 400.76806 214.229082 
L 406.45125 214.273984 
" style="fill:none;stroke:#ff0000;stroke-dasharray:5.55,2.4;stroke-dashoffset:0;stroke-width:1.5;"/>
   </g>
   <g id="line2d_25">
    <path clip-path="url(#p27a295108a)" d="M 241.63875 214.336351 
L 247.32194 214.332164 
L 253.005129 214.270312 
L 258.688319 214.009847 
L 264.371509 213.337898 
L 270.054698 211.999239 
L 275.737888 209.731324 
L 281.421078 206.299785 
L 287.104267 201.529563 
L 292.787457 195.327797 
L 298.470647 187.69604 
L 304.153836 178.731076 
L 309.837026 168.615251 
L 315.520216 157.598546 
L 321.203405 145.97539 
L 326.886595 134.059525 
L 332.569784 122.159936 
L 338.252974 110.560277 
L 343.936164 99.50335 
L 349.619353 89.18134 
L 355.302543 79.731687 
L 360.985733 71.237892 
L 366.668922 63.734167 
L 372.352112 57.212678 
L 378.035302 51.632176 
L 383.718491 46.926957 
L 389.401681 43.015357 
L 395.084871 39.807221 
L 400.76806 37.210044 
L 406.45125 35.133701 
" style="fill:none;stroke:#0000ff;stroke-dasharray:5.55,2.4;stroke-dashoffset:0;stroke-width:1.5;"/>
   </g>
   <g id="line2d_26">
    <path clip-path="url(#p27a295108a)" d="M 241.63875 28.384424 
L 247.32194 30.145769 
L 253.005129 35.34047 
L 258.688319 43.707301 
L 264.371509 54.83285 
L 270.054698 68.182248 
L 275.737888 83.138019 
L 281.421078 99.043465 
L 287.104267 115.246658 
L 292.787457 131.141255 
L 298.470647 146.200849 
L 304.153836 160.004367 
L 309.837026 172.251067 
L 315.520216 182.764808 
L 321.203405 191.488278 
L 326.886595 198.46882 
L 332.569784 203.838112 
L 338.252974 207.788291 
L 343.936164 210.547171 
L 349.619353 212.35493 
L 355.302543 213.444162 
L 360.985733 214.024577 
L 366.668922 214.272936 
L 372.352112 214.328183 
L 378.035302 214.291177 
L 383.718491 214.228058 
L 389.401681 214.176056 
L 395.084871 214.150543 
L 400.76806 214.152232 
L 406.45125 214.173658 
" style="fill:none;stroke:#ff0000;stroke-linecap:square;stroke-width:1.5;"/>
   </g>
   <g id="line2d_27">
    <path clip-path="url(#p27a295108a)" d="M 241.63875 214.336364 
L 247.32194 214.332681 
L 253.005129 214.278056 
L 258.688319 214.046333 
L 264.371509 213.44206 
L 270.054698 212.221091 
L 275.737888 210.116432 
L 281.421078 206.866724 
L 287.104267 202.244514 
L 292.787457 196.081584 
L 298.470647 188.288916 
L 304.153836 178.869525 
L 309.837026 167.923098 
L 315.520216 155.642274 
L 321.203405 142.301154 
L 326.886595 128.237406 
L 332.569784 113.829818 
L 338.252974 99.473475 
L 343.936164 85.554834 
L 349.619353 72.428768 
L 355.302543 60.399333 
L 360.985733 49.705502 
L 366.668922 40.512537 
L 372.352112 32.909091 
L 378.035302 26.909571 
L 383.718491 22.460755 
L 389.401681 19.451082 
L 395.084871 17.720098 
L 400.76806 17.063636 
L 406.45125 17.225804 
" style="fill:none;stroke:#0000ff;stroke-linecap:square;stroke-width:1.5;"/>
   </g>
   <g id="patch_8">
    <path d="M 241.63875 224.2 
L 241.63875 7.2 
" style="fill:none;stroke:#000000;stroke-linecap:square;stroke-linejoin:miter;stroke-width:0.8;"/>
   </g>
   <g id="patch_9">
    <path d="M 406.45125 224.2 
L 406.45125 7.2 
" style="fill:none;stroke:#000000;stroke-linecap:square;stroke-linejoin:miter;stroke-width:0.8;"/>
   </g>
   <g id="patch_10">
    <path d="M 241.63875 224.2 
L 406.45125 224.2 
" style="fill:none;stroke:#000000;stroke-linecap:square;stroke-linejoin:miter;stroke-width:0.8;"/>
   </g>
   <g id="patch_11">
    <path d="M 241.63875 7.2 
L 406.45125 7.2 
" style="fill:none;stroke:#000000;stroke-linecap:square;stroke-linejoin:miter;stroke-width:0.8;"/>
   </g>
  </g>
 </g>
 <defs>
  <clipPath id="pae2f2381b5">
   <rect height="217" width="164.8125" x="54.01375" y="7.2"/>
  </clipPath>
  <clipPath id="p27a295108a">
   <rect height="217" width="164.8125" x="241.63875" y="7.2"/>
  </clipPath>
 </defs>
</svg>
