<?xml version="1.0" encoding="utf-8" standalone="no"?>
<!DOCTYPE svg PUBLIC "-//W3C//DTD SVG 1.1//EN"
  "http://www.w3.org/Graphics/SVG/1.1/DTD/svg11.dtd">
<svg height="356.49875pt" version="1.1" viewBox="0 0 369.416875 356.49875" width="369.416875pt" xmlns="http://www.w3.org/2000/svg" xmlns:xlink="http://www.w3.org/1999/xlink">
 <metadata>
  <rdf:RDF xmlns:cc="http://creativecommons.org/ns#" xmlns:dc="http://purl.org/dc/elements/1.1/" xmlns:rdf="http://www.w3.org/1999/02/22-rdf-syntax-ns#">
   <cc:Work>
    <dc:type rdf:resource="http://purl.org/dc/dcmitype/StillImage"/>
    <dc:date>2022-04-13T08:46:10.170090</dc:date>
    <dc:format>image/svg+xml</dc:format>
    <dc:creator>
     <cc:Agent>
      <dc:title>Matplotlib v3.4.3, https://matplotlib.org/</dc:title>
     </cc:Agent>
    </dc:creator>
   </cc:Work>
  </rdf:RDF>
 </metadata>
 <defs>
  <style type="text/css">*{stroke-linecap:butt;stroke-linejoin:round;}</style>
 </defs>
 <g id="figure_1">
  <g id="patch_1">
   <path d="M 0 356.49875 
L 369.416875 356.49875 
L 369.416875 0 
L 0 0 
z
" style="fill:none;"/>
  </g>
  <g id="axes_1">
   <g id="patch_2">
    <path d="M 45.371875 151.2 
L 178.996875 151.2 
L 178.996875 7.2 
L 45.371875 7.2 
z
" style="fill:#ffffff;"/>
   </g>
   <g id="matplotlib.axis_1">
    <g id="xtick_1">
     <g id="line2d_1">
      <defs>
       <path d="M 0 0 
L 0 3.5 
" id="m136dafc579" style="stroke:#000000;stroke-width:0.8;"/>
      </defs>
      <g>
       <use style="stroke:#000000;stroke-width:0.8;" x="45.371875" xlink:href="#m136dafc579" y="151.2"/>
      </g>
     </g>
    </g>
    <g id="xtick_2">
     <g id="line2d_2">
      <g>
       <use style="stroke:#000000;stroke-width:0.8;" x="112.184375" xlink:href="#m136dafc579" y="151.2"/>
      </g>
     </g>
    </g>
    <g id="xtick_3">
     <g id="line2d_3">
      <g>
       <use style="stroke:#000000;stroke-width:0.8;" x="178.996875" xlink:href="#m136dafc579" y="151.2"/>
      </g>
     </g>
    </g>
   </g>
   <g id="matplotlib.axis_2">
    <g id="ytick_1">
     <g id="line2d_4">
      <defs>
       <path d="M 0 0 
L -3.5 0 
" id="m6accd1a2ef" style="stroke:#000000;stroke-width:0.8;"/>
      </defs>
      <g>
       <use style="stroke:#000000;stroke-width:0.8;" x="45.371875" xlink:href="#m6accd1a2ef" y="144.654545"/>
      </g>
     </g>
     <g id="text_1">
      <!-- 0.00 -->
      <g transform="translate(7.2 149.973452)scale(0.14 -0.14)">
       <defs>
        <path d="M 2034 4250 
Q 1547 4250 1301 3770 
Q 1056 3291 1056 2328 
Q 1056 1369 1301 889 
Q 1547 409 2034 409 
Q 2525 409 2770 889 
Q 3016 1369 3016 2328 
Q 3016 3291 2770 3770 
Q 2525 4250 2034 4250 
z
M 2034 4750 
Q 2819 4750 3233 4129 
Q 3647 3509 3647 2328 
Q 3647 1150 3233 529 
Q 2819 -91 2034 -91 
Q 1250 -91 836 529 
Q 422 1150 422 2328 
Q 422 3509 836 4129 
Q 1250 4750 2034 4750 
z
" id="DejaVuSans-30" transform="scale(0.015625)"/>
        <path d="M 684 794 
L 1344 794 
L 1344 0 
L 684 0 
L 684 794 
z
" id="DejaVuSans-2e" transform="scale(0.015625)"/>
       </defs>
       <use xlink:href="#DejaVuSans-30"/>
       <use x="63.623047" xlink:href="#DejaVuSans-2e"/>
       <use x="95.410156" xlink:href="#DejaVuSans-30"/>
       <use x="159.033203" xlink:href="#DejaVuSans-30"/>
      </g>
     </g>
    </g>
    <g id="ytick_2">
     <g id="line2d_5">
      <g>
       <use style="stroke:#000000;stroke-width:0.8;" x="45.371875" xlink:href="#m6accd1a2ef" y="111.927273"/>
      </g>
     </g>
     <g id="text_2">
      <!-- 0.25 -->
      <g transform="translate(7.2 117.246179)scale(0.14 -0.14)">
       <defs>
        <path d="M 1228 531 
L 3431 531 
L 3431 0 
L 469 0 
L 469 531 
Q 828 903 1448 1529 
Q 2069 2156 2228 2338 
Q 2531 2678 2651 2914 
Q 2772 3150 2772 3378 
Q 2772 3750 2511 3984 
Q 2250 4219 1831 4219 
Q 1534 4219 1204 4116 
Q 875 4013 500 3803 
L 500 4441 
Q 881 4594 1212 4672 
Q 1544 4750 1819 4750 
Q 2544 4750 2975 4387 
Q 3406 4025 3406 3419 
Q 3406 3131 3298 2873 
Q 3191 2616 2906 2266 
Q 2828 2175 2409 1742 
Q 1991 1309 1228 531 
z
" id="DejaVuSans-32" transform="scale(0.015625)"/>
        <path d="M 691 4666 
L 3169 4666 
L 3169 4134 
L 1269 4134 
L 1269 2991 
Q 1406 3038 1543 3061 
Q 1681 3084 1819 3084 
Q 2600 3084 3056 2656 
Q 3513 2228 3513 1497 
Q 3513 744 3044 326 
Q 2575 -91 1722 -91 
Q 1428 -91 1123 -41 
Q 819 9 494 109 
L 494 744 
Q 775 591 1075 516 
Q 1375 441 1709 441 
Q 2250 441 2565 725 
Q 2881 1009 2881 1497 
Q 2881 1984 2565 2268 
Q 2250 2553 1709 2553 
Q 1456 2553 1204 2497 
Q 953 2441 691 2322 
L 691 4666 
z
" id="DejaVuSans-35" transform="scale(0.015625)"/>
       </defs>
       <use xlink:href="#DejaVuSans-30"/>
       <use x="63.623047" xlink:href="#DejaVuSans-2e"/>
       <use x="95.410156" xlink:href="#DejaVuSans-32"/>
       <use x="159.033203" xlink:href="#DejaVuSans-35"/>
      </g>
     </g>
    </g>
    <g id="ytick_3">
     <g id="line2d_6">
      <g>
       <use style="stroke:#000000;stroke-width:0.8;" x="45.371875" xlink:href="#m6accd1a2ef" y="79.2"/>
      </g>
     </g>
     <g id="text_3">
      <!-- 0.50 -->
      <g transform="translate(7.2 84.518906)scale(0.14 -0.14)">
       <use xlink:href="#DejaVuSans-30"/>
       <use x="63.623047" xlink:href="#DejaVuSans-2e"/>
       <use x="95.410156" xlink:href="#DejaVuSans-35"/>
       <use x="159.033203" xlink:href="#DejaVuSans-30"/>
      </g>
     </g>
    </g>
    <g id="ytick_4">
     <g id="line2d_7">
      <g>
       <use style="stroke:#000000;stroke-width:0.8;" x="45.371875" xlink:href="#m6accd1a2ef" y="46.472727"/>
      </g>
     </g>
     <g id="text_4">
      <!-- 0.75 -->
      <g transform="translate(7.2 51.791634)scale(0.14 -0.14)">
       <defs>
        <path d="M 525 4666 
L 3525 4666 
L 3525 4397 
L 1831 0 
L 1172 0 
L 2766 4134 
L 525 4134 
L 525 4666 
z
" id="DejaVuSans-37" transform="scale(0.015625)"/>
       </defs>
       <use xlink:href="#DejaVuSans-30"/>
       <use x="63.623047" xlink:href="#DejaVuSans-2e"/>
       <use x="95.410156" xlink:href="#DejaVuSans-37"/>
       <use x="159.033203" xlink:href="#DejaVuSans-35"/>
      </g>
     </g>
    </g>
    <g id="ytick_5">
     <g id="line2d_8">
      <g>
       <use style="stroke:#000000;stroke-width:0.8;" x="45.371875" xlink:href="#m6accd1a2ef" y="13.745455"/>
      </g>
     </g>
     <g id="text_5">
      <!-- 1.00 -->
      <g transform="translate(7.2 19.064361)scale(0.14 -0.14)">
       <defs>
        <path d="M 794 531 
L 1825 531 
L 1825 4091 
L 703 3866 
L 703 4441 
L 1819 4666 
L 2450 4666 
L 2450 531 
L 3481 531 
L 3481 0 
L 794 0 
L 794 531 
z
" id="DejaVuSans-31" transform="scale(0.015625)"/>
       </defs>
       <use xlink:href="#DejaVuSans-31"/>
       <use x="63.623047" xlink:href="#DejaVuSans-2e"/>
       <use x="95.410156" xlink:href="#DejaVuSans-30"/>
       <use x="159.033203" xlink:href="#DejaVuSans-30"/>
      </g>
     </g>
    </g>
   </g>
   <g id="line2d_9">
    <path clip-path="url(#pf8a78aeb9c)" d="M 43.204085 14.843326 
L 45.371875 13.745455 
L 47.539665 14.843326 
L 49.707456 18.082004 
L 51.875246 23.301238 
L 54.043037 30.248603 
L 56.210827 38.59973 
L 58.378617 47.983359 
L 60.546408 58.008539 
L 62.714198 68.291207 
L 64.881989 78.477694 
L 67.049779 88.26324 
L 69.217569 97.404412 
L 71.38536 105.72505 
L 73.55315 113.116167 
L 75.720941 119.530776 
L 77.888731 124.975 
L 80.056521 129.496954 
L 82.224312 133.174855 
L 84.392102 136.105552 
L 86.559893 138.394397 
L 88.727683 140.14701 
L 90.895473 141.463165 
L 93.063264 142.432757 
L 95.231054 143.133607 
L 97.398845 143.630768 
L 99.566635 143.976928 
L 101.734425 144.213536 
L 103.902216 144.37232 
L 106.070006 144.476951 
L 108.237797 144.544658 
L 110.405587 144.587688 
L 112.573377 144.614547 
L 114.741168 144.631016 
L 116.908958 144.640935 
L 119.076749 144.646804 
L 121.244539 144.650216 
L 123.412329 144.652165 
L 125.58012 144.653258 
L 127.74791 144.653861 
L 129.915701 144.654188 
L 132.083491 144.654361 
L 134.251281 144.654452 
L 136.419072 144.654499 
L 138.586862 144.654523 
L 140.754653 144.654535 
L 142.922443 144.65454 
L 145.090233 144.654543 
L 147.258024 144.654544 
L 149.425814 144.654545 
L 151.593605 144.654545 
L 153.761395 144.654545 
L 155.929185 144.654545 
L 158.096976 144.654545 
L 160.264766 144.654545 
L 162.432557 144.654545 
L 164.600347 144.654545 
L 166.768137 144.654545 
L 168.935928 144.654545 
L 171.103718 144.654545 
L 173.271509 144.654545 
L 175.439299 144.654545 
L 177.607089 144.654545 
L 179.77488 144.654545 
" style="fill:none;stroke:#ff0000;stroke-dasharray:5.55,2.4;stroke-dashoffset:0;stroke-width:1.5;"/>
   </g>
   <g id="line2d_10">
    <path clip-path="url(#pf8a78aeb9c)" d="M 43.204085 16.379212 
L 45.371875 13.756409 
L 47.539665 13.745455 
L 49.707456 16.34743 
L 51.875246 21.424843 
L 54.043037 28.712408 
L 56.210827 37.837669 
L 58.378617 48.349474 
L 60.546408 59.751523 
L 62.714198 71.537844 
L 64.881989 83.226937 
L 67.049779 94.391656 
L 69.217569 104.682418 
L 71.38536 113.842207 
L 73.55315 121.712695 
L 75.720941 128.231802 
L 77.888731 133.423783 
L 80.056521 137.383642 
L 82.224312 140.257983 
L 84.392102 142.224607 
L 86.559893 143.47294 
L 88.727683 144.187059 
L 90.895473 144.53254 
L 93.063264 144.64776 
L 95.231054 144.639691 
L 97.398845 144.58374 
L 99.566635 144.526781 
L 101.734425 144.492341 
L 103.902216 144.486844 
L 106.070006 144.505903 
L 108.237797 144.539896 
L 110.405587 144.578282 
L 112.573377 144.61246 
L 114.741168 144.637179 
L 116.908958 144.650749 
L 119.076749 144.654403 
L 121.244539 144.651196 
L 123.412329 144.644811 
L 125.58012 144.638554 
L 127.74791 144.634684 
L 129.915701 144.634163 
L 132.083491 144.636754 
L 134.251281 144.641381 
L 136.419072 144.646589 
L 138.586862 144.651011 
L 140.754653 144.653693 
L 142.922443 144.654271 
L 145.090233 144.65296 
L 147.258024 144.65041 
L 149.425814 144.647477 
L 151.593605 144.644987 
L 153.761395 144.643545 
L 155.929185 144.64342 
L 158.096976 144.644539 
L 160.264766 144.646551 
L 162.432557 144.648957 
L 164.600347 144.651244 
L 166.768137 144.653015 
L 168.935928 144.654058 
L 171.103718 144.654367 
L 173.271509 144.65411 
L 175.439299 144.653557 
L 177.607089 144.652992 
L 179.77488 144.65264 
" style="fill:none;stroke:#ff0000;stroke-linecap:square;stroke-width:1.5;"/>
   </g>
   <g id="patch_3">
    <path d="M 45.371875 151.2 
L 45.371875 7.2 
" style="fill:none;stroke:#000000;stroke-linecap:square;stroke-linejoin:miter;stroke-width:0.8;"/>
   </g>
   <g id="patch_4">
    <path d="M 178.996875 151.2 
L 178.996875 7.2 
" style="fill:none;stroke:#000000;stroke-linecap:square;stroke-linejoin:miter;stroke-width:0.8;"/>
   </g>
   <g id="patch_5">
    <path d="M 45.371875 151.2 
L 178.996875 151.2 
" style="fill:none;stroke:#000000;stroke-linecap:square;stroke-linejoin:miter;stroke-width:0.8;"/>
   </g>
   <g id="patch_6">
    <path d="M 45.371875 7.2 
L 178.996875 7.2 
" style="fill:none;stroke:#000000;stroke-linecap:square;stroke-linejoin:miter;stroke-width:0.8;"/>
   </g>
  </g>
  <g id="axes_2">
   <g id="patch_7">
    <path d="M 219.684375 151.2 
L 353.309375 151.2 
L 353.309375 7.2 
L 219.684375 7.2 
z
" style="fill:#ffffff;"/>
   </g>
   <g id="matplotlib.axis_3">
    <g id="xtick_4">
     <g id="line2d_11">
      <g>
       <use style="stroke:#000000;stroke-width:0.8;" x="219.684375" xlink:href="#m136dafc579" y="151.2"/>
      </g>
     </g>
    </g>
    <g id="xtick_5">
     <g id="line2d_12">
      <g>
       <use style="stroke:#000000;stroke-width:0.8;" x="286.496875" xlink:href="#m136dafc579" y="151.2"/>
      </g>
     </g>
    </g>
    <g id="xtick_6">
     <g id="line2d_13">
      <g>
       <use style="stroke:#000000;stroke-width:0.8;" x="353.309375" xlink:href="#m136dafc579" y="151.2"/>
      </g>
     </g>
    </g>
   </g>
   <g id="matplotlib.axis_4">
    <g id="ytick_6">
     <g id="line2d_14">
      <g>
       <use style="stroke:#000000;stroke-width:0.8;" x="219.684375" xlink:href="#m6accd1a2ef" y="144.928778"/>
      </g>
     </g>
     <g id="text_6">
      <!-- 0.00 -->
      <g transform="translate(181.5125 150.247684)scale(0.14 -0.14)">
       <use xlink:href="#DejaVuSans-30"/>
       <use x="63.623047" xlink:href="#DejaVuSans-2e"/>
       <use x="95.410156" xlink:href="#DejaVuSans-30"/>
       <use x="159.033203" xlink:href="#DejaVuSans-30"/>
      </g>
     </g>
    </g>
    <g id="ytick_7">
     <g id="line2d_15">
      <g>
       <use style="stroke:#000000;stroke-width:0.8;" x="219.684375" xlink:href="#m6accd1a2ef" y="112.132947"/>
      </g>
     </g>
     <g id="text_7">
      <!-- 0.25 -->
      <g transform="translate(181.5125 117.451853)scale(0.14 -0.14)">
       <use xlink:href="#DejaVuSans-30"/>
       <use x="63.623047" xlink:href="#DejaVuSans-2e"/>
       <use x="95.410156" xlink:href="#DejaVuSans-32"/>
       <use x="159.033203" xlink:href="#DejaVuSans-35"/>
      </g>
     </g>
    </g>
    <g id="ytick_8">
     <g id="line2d_16">
      <g>
       <use style="stroke:#000000;stroke-width:0.8;" x="219.684375" xlink:href="#m6accd1a2ef" y="79.337116"/>
      </g>
     </g>
     <g id="text_8">
      <!-- 0.50 -->
      <g transform="translate(181.5125 84.656022)scale(0.14 -0.14)">
       <use xlink:href="#DejaVuSans-30"/>
       <use x="63.623047" xlink:href="#DejaVuSans-2e"/>
       <use x="95.410156" xlink:href="#DejaVuSans-35"/>
       <use x="159.033203" xlink:href="#DejaVuSans-30"/>
      </g>
     </g>
    </g>
    <g id="ytick_9">
     <g id="line2d_17">
      <g>
       <use style="stroke:#000000;stroke-width:0.8;" x="219.684375" xlink:href="#m6accd1a2ef" y="46.541285"/>
      </g>
     </g>
     <g id="text_9">
      <!-- 0.75 -->
      <g transform="translate(181.5125 51.860192)scale(0.14 -0.14)">
       <use xlink:href="#DejaVuSans-30"/>
       <use x="63.623047" xlink:href="#DejaVuSans-2e"/>
       <use x="95.410156" xlink:href="#DejaVuSans-37"/>
       <use x="159.033203" xlink:href="#DejaVuSans-35"/>
      </g>
     </g>
    </g>
    <g id="ytick_10">
     <g id="line2d_18">
      <g>
       <use style="stroke:#000000;stroke-width:0.8;" x="219.684375" xlink:href="#m6accd1a2ef" y="13.745455"/>
      </g>
     </g>
     <g id="text_10">
      <!-- 1.00 -->
      <g transform="translate(181.5125 19.064361)scale(0.14 -0.14)">
       <use xlink:href="#DejaVuSans-31"/>
       <use x="63.623047" xlink:href="#DejaVuSans-2e"/>
       <use x="95.410156" xlink:href="#DejaVuSans-30"/>
       <use x="159.033203" xlink:href="#DejaVuSans-30"/>
      </g>
     </g>
    </g>
   </g>
   <g id="line2d_19">
    <path clip-path="url(#p602e9222b1)" d="M 219.684375 13.756432 
L 222.448009 18.267223 
L 225.211643 30.933423 
L 227.975277 49.396743 
L 230.738911 70.435344 
L 233.502545 90.786016 
L 236.266179 107.903251 
L 239.029813 120.435784 
L 241.793447 128.309597 
L 244.557081 132.444575 
L 247.320715 134.248185 
L 250.084349 135.083701 
L 252.847983 135.888689 
L 255.611617 137.037879 
L 258.375251 138.440693 
L 261.138885 139.779911 
L 263.902519 140.763955 
L 266.666153 141.287367 
L 269.429787 141.454735 
L 272.193421 141.491537 
L 274.957055 141.610729 
L 277.720689 141.910298 
L 280.484323 142.347659 
L 283.247957 142.79074 
L 286.011591 143.10715 
L 288.775225 143.239285 
L 291.538859 143.227982 
L 294.302493 143.179156 
L 297.066127 143.198636 
L 299.829761 143.334309 
L 302.593395 143.556398 
L 305.357029 143.782798 
L 308.120663 143.931132 
L 310.884297 143.966221 
L 313.647931 143.916847 
L 316.411565 143.854899 
L 319.175199 143.85145 
L 321.938833 143.936257 
L 324.702467 144.083457 
L 327.466101 144.230015 
L 330.229735 144.314517 
L 332.993369 144.312989 
L 335.757003 144.251294 
L 338.520637 144.188043 
L 341.284271 144.179148 
L 344.047905 144.245281 
L 346.811539 144.361037 
L 349.575173 144.471366 
L 352.338807 144.524904 
L 355.102441 144.504252 
L 357.866075 144.43557 
L 360.629709 144.372331 
L 363.393343 144.363254 
L 366.156977 144.423538 
L 368.920611 144.526277 
L 370.416875 144.576411 
" style="fill:none;stroke:#ff0000;stroke-linecap:square;stroke-width:1.5;"/>
   </g>
   <g id="line2d_20">
    <path clip-path="url(#p602e9222b1)" d="M 219.684375 13.745455 
L 222.448009 19.126589 
L 225.211643 32.911429 
L 227.975277 50.2096 
L 230.738911 67.047121 
L 233.502545 81.53572 
L 236.266179 93.27945 
L 239.029813 102.556271 
L 241.793447 109.83024 
L 244.557081 115.546703 
L 247.320715 120.071478 
L 250.084349 123.687001 
L 252.847983 126.605901 
L 255.611617 128.987 
L 258.375251 130.949035 
L 261.138885 132.581273 
L 263.902519 133.95136 
L 266.666153 135.111026 
L 269.429787 136.100211 
L 272.193421 136.950043 
L 274.957055 137.685013 
L 277.720689 138.324566 
L 280.484323 138.884269 
L 283.247957 139.37669 
L 286.011591 139.812055 
L 288.775225 140.198741 
L 291.538859 140.543665 
L 294.302493 140.852566 
L 297.066127 141.130245 
L 299.829761 141.380733 
L 302.593395 141.607438 
L 305.357029 141.813255 
L 308.120663 142.000654 
L 310.884297 142.171754 
L 313.647931 142.32838 
L 316.411565 142.472108 
L 319.175199 142.60431 
L 321.938833 142.726177 
L 324.702467 142.838756 
L 327.466101 142.942961 
L 330.229735 143.039598 
L 332.993369 143.129381 
L 335.757003 143.212939 
L 338.520637 143.290833 
L 341.284271 143.36356 
L 344.047905 143.431568 
L 346.811539 143.495252 
L 349.575173 143.554973 
L 352.338807 143.611049 
L 355.102441 143.663772 
L 357.866075 143.713402 
L 360.629709 143.760176 
L 363.393343 143.804309 
L 366.156977 143.845994 
L 368.920611 143.88541 
L 370.416875 143.905609 
" style="fill:none;stroke:#ff0000;stroke-dasharray:5.55,2.4;stroke-dashoffset:0;stroke-width:1.5;"/>
   </g>
   <g id="patch_8">
    <path d="M 219.684375 151.2 
L 219.684375 7.2 
" style="fill:none;stroke:#000000;stroke-linecap:square;stroke-linejoin:miter;stroke-width:0.8;"/>
   </g>
   <g id="patch_9">
    <path d="M 353.309375 151.2 
L 353.309375 7.2 
" style="fill:none;stroke:#000000;stroke-linecap:square;stroke-linejoin:miter;stroke-width:0.8;"/>
   </g>
   <g id="patch_10">
    <path d="M 219.684375 151.2 
L 353.309375 151.2 
" style="fill:none;stroke:#000000;stroke-linecap:square;stroke-linejoin:miter;stroke-width:0.8;"/>
   </g>
   <g id="patch_11">
    <path d="M 219.684375 7.2 
L 353.309375 7.2 
" style="fill:none;stroke:#000000;stroke-linecap:square;stroke-linejoin:miter;stroke-width:0.8;"/>
   </g>
  </g>
  <g id="axes_3">
   <g id="patch_12">
    <path d="M 45.371875 311.2 
L 178.996875 311.2 
L 178.996875 167.2 
L 45.371875 167.2 
z
" style="fill:#ffffff;"/>
   </g>
   <g id="matplotlib.axis_5">
    <g id="xtick_7">
     <g id="line2d_21">
      <g>
       <use style="stroke:#000000;stroke-width:0.8;" x="45.371875" xlink:href="#m136dafc579" y="311.2"/>
      </g>
     </g>
     <g id="text_11">
      <!-- 0 -->
      <g transform="translate(40.918125 328.837812)scale(0.14 -0.14)">
       <use xlink:href="#DejaVuSans-30"/>
      </g>
     </g>
    </g>
    <g id="xtick_8">
     <g id="line2d_22">
      <g>
       <use style="stroke:#000000;stroke-width:0.8;" x="112.184375" xlink:href="#m136dafc579" y="311.2"/>
      </g>
     </g>
     <g id="text_12">
      <!-- 2 -->
      <g transform="translate(107.730625 328.837812)scale(0.14 -0.14)">
       <use xlink:href="#DejaVuSans-32"/>
      </g>
     </g>
    </g>
    <g id="xtick_9">
     <g id="line2d_23">
      <g>
       <use style="stroke:#000000;stroke-width:0.8;" x="178.996875" xlink:href="#m136dafc579" y="311.2"/>
      </g>
     </g>
     <g id="text_13">
      <!-- 4 -->
      <g transform="translate(174.543125 328.837812)scale(0.14 -0.14)">
       <defs>
        <path d="M 2419 4116 
L 825 1625 
L 2419 1625 
L 2419 4116 
z
M 2253 4666 
L 3047 4666 
L 3047 1625 
L 3713 1625 
L 3713 1100 
L 3047 1100 
L 3047 0 
L 2419 0 
L 2419 1100 
L 313 1100 
L 313 1709 
L 2253 4666 
z
" id="DejaVuSans-34" transform="scale(0.015625)"/>
       </defs>
       <use xlink:href="#DejaVuSans-34"/>
      </g>
     </g>
    </g>
    <g id="text_14">
     <!-- $\rho_2/w_0$ -->
     <g transform="translate(93.004375 346.35875)scale(0.14 -0.14)">
      <defs>
       <path d="M 1203 2875 
Q 1453 3194 1981 3475 
Q 2188 3584 2756 3584 
Q 3394 3584 3694 3078 
Q 3994 2572 3834 1747 
Q 3672 922 3175 415 
Q 2678 -91 2041 -91 
Q 1656 -91 1409 63 
Q 1163 213 1044 525 
L 681 -1331 
L 103 -1331 
L 697 1716 
Q 838 2438 1203 2875 
z
M 3238 1747 
Q 3359 2381 3169 2744 
Q 2978 3103 2522 3103 
Q 2066 3103 1734 2744 
Q 1403 2381 1281 1747 
Q 1156 1113 1347 750 
Q 1538 391 1994 391 
Q 2450 391 2781 750 
Q 3113 1113 3238 1747 
z
" id="DejaVuSans-Oblique-3c1" transform="scale(0.015625)"/>
       <path d="M 1625 4666 
L 2156 4666 
L 531 -594 
L 0 -594 
L 1625 4666 
z
" id="DejaVuSans-2f" transform="scale(0.015625)"/>
       <path d="M 544 3500 
L 1113 3500 
L 1259 684 
L 2566 3500 
L 3231 3500 
L 3425 684 
L 4666 3500 
L 5241 3500 
L 3641 0 
L 2969 0 
L 2797 2900 
L 1459 0 
L 781 0 
L 544 3500 
z
" id="DejaVuSans-Oblique-77" transform="scale(0.015625)"/>
      </defs>
      <use transform="translate(0 0.09375)" xlink:href="#DejaVuSans-Oblique-3c1"/>
      <use transform="translate(63.476562 -16.3125)scale(0.7)" xlink:href="#DejaVuSans-32"/>
      <use transform="translate(110.74707 0.09375)" xlink:href="#DejaVuSans-2f"/>
      <use transform="translate(144.438477 0.09375)" xlink:href="#DejaVuSans-Oblique-77"/>
      <use transform="translate(226.225586 -16.3125)scale(0.7)" xlink:href="#DejaVuSans-30"/>
     </g>
    </g>
   </g>
   <g id="matplotlib.axis_6">
    <g id="ytick_11">
     <g id="line2d_24">
      <g>
       <use style="stroke:#000000;stroke-width:0.8;" x="45.371875" xlink:href="#m6accd1a2ef" y="311.2"/>
      </g>
     </g>
     <g id="text_15">
      <!-- 0.0 -->
      <g transform="translate(16.1075 316.518906)scale(0.14 -0.14)">
       <use xlink:href="#DejaVuSans-30"/>
       <use x="63.623047" xlink:href="#DejaVuSans-2e"/>
       <use x="95.410156" xlink:href="#DejaVuSans-30"/>
      </g>
     </g>
    </g>
    <g id="ytick_12">
     <g id="line2d_25">
      <g>
       <use style="stroke:#000000;stroke-width:0.8;" x="45.371875" xlink:href="#m6accd1a2ef" y="263.2"/>
      </g>
     </g>
     <g id="text_16">
      <!-- 0.5 -->
      <g transform="translate(16.1075 268.518906)scale(0.14 -0.14)">
       <use xlink:href="#DejaVuSans-30"/>
       <use x="63.623047" xlink:href="#DejaVuSans-2e"/>
       <use x="95.410156" xlink:href="#DejaVuSans-35"/>
      </g>
     </g>
    </g>
    <g id="ytick_13">
     <g id="line2d_26">
      <g>
       <use style="stroke:#000000;stroke-width:0.8;" x="45.371875" xlink:href="#m6accd1a2ef" y="215.2"/>
      </g>
     </g>
     <g id="text_17">
      <!-- 1.0 -->
      <g transform="translate(16.1075 220.518906)scale(0.14 -0.14)">
       <use xlink:href="#DejaVuSans-31"/>
       <use x="63.623047" xlink:href="#DejaVuSans-2e"/>
       <use x="95.410156" xlink:href="#DejaVuSans-30"/>
      </g>
     </g>
    </g>
    <g id="ytick_14">
     <g id="line2d_27">
      <g>
       <use style="stroke:#000000;stroke-width:0.8;" x="45.371875" xlink:href="#m6accd1a2ef" y="167.2"/>
      </g>
     </g>
     <g id="text_18">
      <!-- 1.5 -->
      <g transform="translate(16.1075 172.518906)scale(0.14 -0.14)">
       <use xlink:href="#DejaVuSans-31"/>
       <use x="63.623047" xlink:href="#DejaVuSans-2e"/>
       <use x="95.410156" xlink:href="#DejaVuSans-35"/>
      </g>
     </g>
    </g>
   </g>
   <g id="line2d_28">
    <path clip-path="url(#p4f06814b59)" d="M 43.204085 311.198299 
L 45.371875 311.199994 
L 47.539665 311.198299 
L 49.707456 311.173212 
L 51.875246 311.067222 
L 54.043037 310.792452 
L 56.210827 310.241498 
L 58.378617 309.300538 
L 60.546408 307.863034 
L 62.714198 305.842352 
L 64.881989 303.18185 
L 67.049779 299.86142 
L 69.217569 295.899967 
L 71.38536 291.35388 
L 73.55315 286.312014 
L 75.720941 280.888051 
L 77.888731 275.211333 
L 80.056521 269.417257 
L 82.224312 263.638231 
L 84.392102 257.995967 
L 86.559893 252.595627 
L 88.727683 247.522021 
L 90.895473 242.837858 
L 93.063264 238.583799 
L 95.231054 234.779969 
L 97.398845 231.428506 
L 99.566635 228.516734 
L 101.734425 226.020574 
L 103.902216 223.907895 
L 106.070006 222.141584 
L 108.237797 220.682175 
L 110.405587 219.489992 
L 112.573377 218.526774 
L 114.741168 217.756825 
L 116.908958 217.14774 
L 119.076749 216.670784 
L 121.244539 216.300994 
L 123.412329 216.01708 
L 125.58012 215.801185 
L 127.74791 215.638565 
L 129.915701 215.517216 
L 132.083491 215.4275 
L 134.251281 215.36178 
L 136.419072 215.314075 
L 138.586862 215.279759 
L 140.754653 215.255297 
L 142.922443 215.238016 
L 145.090233 215.225915 
L 147.258024 215.217518 
L 149.425814 215.211742 
L 151.593605 215.207805 
L 153.761395 215.205144 
L 155.929185 215.203362 
L 158.096976 215.202179 
L 160.264766 215.2014 
L 162.432557 215.200892 
L 164.600347 215.200564 
L 166.768137 215.200353 
L 168.935928 215.20022 
L 171.103718 215.200135 
L 173.271509 215.200083 
L 175.439299 215.20005 
L 177.607089 215.20003 
L 179.77488 215.200018 
" style="fill:none;stroke:#0000ff;stroke-dasharray:5.55,2.4;stroke-dashoffset:0;stroke-width:1.5;"/>
   </g>
   <g id="line2d_29">
    <path clip-path="url(#p4f06814b59)" d="M 43.204085 311.173313 
L 45.371875 311.19575 
L 47.539665 311.19575 
L 49.707456 311.173313 
L 51.875246 311.07229 
L 54.043037 310.787037 
L 56.210827 310.174972 
L 58.378617 309.07358 
L 60.546408 307.319952 
L 62.714198 304.770668 
L 64.881989 301.319825 
L 67.049779 296.913299 
L 69.217569 291.557782 
L 71.38536 285.323751 
L 73.55315 278.342255 
L 75.720941 270.796045 
L 77.888731 262.906165 
L 80.056521 254.915548 
L 82.224312 247.071356 
L 84.392102 239.607822 
L 86.559893 232.731155 
L 88.727683 226.607721 
L 90.895473 221.356266 
L 93.063264 217.044474 
L 95.231054 213.689665 
L 97.398845 211.263094 
L 99.566635 209.696999 
L 101.734425 208.893441 
L 103.902216 208.733924 
L 106.070006 209.088917 
L 108.237797 209.826537 
L 110.405587 210.819901 
L 112.573377 211.952853 
L 114.741168 213.124017 
L 116.908958 214.249249 
L 119.076749 215.26272 
L 121.244539 216.116868 
L 123.412329 216.781517 
L 125.58012 217.242392 
L 127.74791 217.499241 
L 129.915701 217.563701 
L 132.083491 217.457031 
L 134.251281 217.207753 
L 136.419072 216.849294 
L 138.586862 216.417648 
L 140.754653 215.949146 
L 142.922443 215.478396 
L 145.090233 215.036464 
L 147.258024 214.6494 
L 149.425814 214.337143 
L 151.593605 214.112883 
L 153.761395 213.982874 
L 155.929185 213.946691 
L 158.096976 213.997888 
L 160.264766 214.124974 
L 162.432557 214.312622 
L 164.600347 214.543006 
L 166.768137 214.797164 
L 168.935928 215.056302 
L 171.103718 215.302959 
L 173.271509 215.521975 
L 175.439299 215.701229 
L 177.607089 215.832125 
L 179.77488 215.909832 
" style="fill:none;stroke:#0000ff;stroke-linecap:square;stroke-width:1.5;"/>
   </g>
   <g id="line2d_30">
    <path clip-path="url(#p4f06814b59)" d="M 43.204085 310.80268 
L 45.371875 310.865053 
L 47.539665 310.865054 
L 49.707456 310.802682 
L 51.875246 310.662872 
L 54.043037 310.416413 
L 56.210827 310.02175 
L 58.378617 309.427548 
L 60.546408 308.575893 
L 62.714198 307.405928 
L 64.881989 305.857747 
L 67.049779 303.876307 
L 69.217569 301.415162 
L 71.38536 298.439805 
L 73.55315 294.930441 
L 75.720941 290.884046 
L 77.888731 286.315604 
L 80.056521 281.258465 
L 82.224312 275.763819 
L 84.392102 269.899306 
L 86.559893 263.746865 
L 88.727683 257.399928 
L 90.895473 250.960111 
L 93.063264 244.533579 
L 95.231054 238.227268 
L 97.398845 232.145142 
L 99.566635 226.384663 
L 101.734425 221.033631 
L 103.902216 216.167517 
L 106.070006 211.847395 
L 108.237797 208.118526 
L 110.405587 205.009625 
L 112.573377 202.532799 
L 114.741168 200.684108 
L 116.908958 199.444692 
L 119.076749 198.782352 
L 121.244539 198.653491 
L 123.412329 199.005293 
L 125.58012 199.778031 
L 127.74791 200.907378 
L 129.915701 202.326639 
L 132.083491 203.968816 
L 134.251281 205.768431 
L 136.419072 207.663078 
L 138.586862 209.594674 
L 140.754653 211.510402 
L 142.922443 213.363365 
L 145.090233 215.112967 
L 147.258024 216.725074 
L 149.425814 218.171969 
L 151.593605 219.432177 
L 153.761395 220.490174 
L 155.929185 221.336032 
L 158.096976 221.965028 
L 160.264766 222.377242 
L 162.432557 222.577151 
L 164.600347 222.573237 
L 166.768137 222.377597 
L 168.935928 222.005568 
L 171.103718 221.475335 
L 173.271509 220.807529 
L 175.439299 220.024808 
L 177.607089 219.151392 
L 179.77488 218.212579 
" style="fill:none;stroke:#17becf;stroke-linecap:square;stroke-width:1.5;"/>
   </g>
   <g id="patch_13">
    <path d="M 45.371875 311.2 
L 45.371875 167.2 
" style="fill:none;stroke:#000000;stroke-linecap:square;stroke-linejoin:miter;stroke-width:0.8;"/>
   </g>
   <g id="patch_14">
    <path d="M 178.996875 311.2 
L 178.996875 167.2 
" style="fill:none;stroke:#000000;stroke-linecap:square;stroke-linejoin:miter;stroke-width:0.8;"/>
   </g>
   <g id="patch_15">
    <path d="M 45.371875 311.2 
L 178.996875 311.2 
" style="fill:none;stroke:#000000;stroke-linecap:square;stroke-linejoin:miter;stroke-width:0.8;"/>
   </g>
   <g id="patch_16">
    <path d="M 45.371875 167.2 
L 178.996875 167.2 
" style="fill:none;stroke:#000000;stroke-linecap:square;stroke-linejoin:miter;stroke-width:0.8;"/>
   </g>
  </g>
  <g id="axes_4">
   <g id="patch_17">
    <path d="M 219.684375 311.2 
L 353.309375 311.2 
L 353.309375 167.2 
L 219.684375 167.2 
z
" style="fill:#ffffff;"/>
   </g>
   <g id="matplotlib.axis_7">
    <g id="xtick_10">
     <g id="line2d_31">
      <g>
       <use style="stroke:#000000;stroke-width:0.8;" x="219.684375" xlink:href="#m136dafc579" y="311.2"/>
      </g>
     </g>
     <g id="text_19">
      <!-- 0 -->
      <g transform="translate(215.230625 328.837812)scale(0.14 -0.14)">
       <use xlink:href="#DejaVuSans-30"/>
      </g>
     </g>
    </g>
    <g id="xtick_11">
     <g id="line2d_32">
      <g>
       <use style="stroke:#000000;stroke-width:0.8;" x="286.496875" xlink:href="#m136dafc579" y="311.2"/>
      </g>
     </g>
     <g id="text_20">
      <!-- 5 -->
      <g transform="translate(282.043125 328.837812)scale(0.14 -0.14)">
       <use xlink:href="#DejaVuSans-35"/>
      </g>
     </g>
    </g>
    <g id="xtick_12">
     <g id="line2d_33">
      <g>
       <use style="stroke:#000000;stroke-width:0.8;" x="353.309375" xlink:href="#m136dafc579" y="311.2"/>
      </g>
     </g>
     <g id="text_21">
      <!-- 10 -->
      <g transform="translate(344.401875 328.837812)scale(0.14 -0.14)">
       <use xlink:href="#DejaVuSans-31"/>
       <use x="63.623047" xlink:href="#DejaVuSans-30"/>
      </g>
     </g>
    </g>
    <g id="text_22">
     <!-- $z_2/z_R$ -->
     <g transform="translate(269.836875 346.387187)scale(0.14 -0.14)">
      <defs>
       <path d="M 744 3500 
L 3475 3500 
L 3372 2975 
L 738 459 
L 2913 459 
L 2822 0 
L -19 0 
L 84 525 
L 2719 3041 
L 653 3041 
L 744 3500 
z
" id="DejaVuSans-Oblique-7a" transform="scale(0.015625)"/>
       <path d="M 1613 4147 
L 1294 2491 
L 2106 2491 
Q 2584 2491 2879 2755 
Q 3175 3019 3175 3444 
Q 3175 3784 2976 3965 
Q 2778 4147 2406 4147 
L 1613 4147 
z
M 2772 2241 
Q 2972 2194 3105 2009 
Q 3238 1825 3413 1275 
L 3809 0 
L 3144 0 
L 2778 1197 
Q 2638 1659 2453 1815 
Q 2269 1972 1888 1972 
L 1191 1972 
L 806 0 
L 172 0 
L 1081 4666 
L 2503 4666 
Q 3150 4666 3495 4373 
Q 3841 4081 3841 3531 
Q 3841 3044 3547 2687 
Q 3253 2331 2772 2241 
z
" id="DejaVuSans-Oblique-52" transform="scale(0.015625)"/>
      </defs>
      <use transform="translate(0 0.09375)" xlink:href="#DejaVuSans-Oblique-7a"/>
      <use transform="translate(52.490234 -16.3125)scale(0.7)" xlink:href="#DejaVuSans-32"/>
      <use transform="translate(99.760742 0.09375)" xlink:href="#DejaVuSans-2f"/>
      <use transform="translate(133.452148 0.09375)" xlink:href="#DejaVuSans-Oblique-7a"/>
      <use transform="translate(185.942383 -16.3125)scale(0.7)" xlink:href="#DejaVuSans-Oblique-52"/>
     </g>
    </g>
   </g>
   <g id="matplotlib.axis_8">
    <g id="ytick_15">
     <g id="line2d_34">
      <g>
       <use style="stroke:#000000;stroke-width:0.8;" x="219.684375" xlink:href="#m6accd1a2ef" y="311.2"/>
      </g>
     </g>
     <g id="text_23">
      <!-- 0.0 -->
      <g transform="translate(190.42 316.518906)scale(0.14 -0.14)">
       <use xlink:href="#DejaVuSans-30"/>
       <use x="63.623047" xlink:href="#DejaVuSans-2e"/>
       <use x="95.410156" xlink:href="#DejaVuSans-30"/>
      </g>
     </g>
    </g>
    <g id="ytick_16">
     <g id="line2d_35">
      <g>
       <use style="stroke:#000000;stroke-width:0.8;" x="219.684375" xlink:href="#m6accd1a2ef" y="263.2"/>
      </g>
     </g>
     <g id="text_24">
      <!-- 0.5 -->
      <g transform="translate(190.42 268.518906)scale(0.14 -0.14)">
       <use xlink:href="#DejaVuSans-30"/>
       <use x="63.623047" xlink:href="#DejaVuSans-2e"/>
       <use x="95.410156" xlink:href="#DejaVuSans-35"/>
      </g>
     </g>
    </g>
    <g id="ytick_17">
     <g id="line2d_36">
      <g>
       <use style="stroke:#000000;stroke-width:0.8;" x="219.684375" xlink:href="#m6accd1a2ef" y="215.2"/>
      </g>
     </g>
     <g id="text_25">
      <!-- 1.0 -->
      <g transform="translate(190.42 220.518906)scale(0.14 -0.14)">
       <use xlink:href="#DejaVuSans-31"/>
       <use x="63.623047" xlink:href="#DejaVuSans-2e"/>
       <use x="95.410156" xlink:href="#DejaVuSans-30"/>
      </g>
     </g>
    </g>
    <g id="ytick_18">
     <g id="line2d_37">
      <g>
       <use style="stroke:#000000;stroke-width:0.8;" x="219.684375" xlink:href="#m6accd1a2ef" y="167.2"/>
      </g>
     </g>
     <g id="text_26">
      <!-- 1.5 -->
      <g transform="translate(190.42 172.518906)scale(0.14 -0.14)">
       <use xlink:href="#DejaVuSans-31"/>
       <use x="63.623047" xlink:href="#DejaVuSans-2e"/>
       <use x="95.410156" xlink:href="#DejaVuSans-35"/>
      </g>
     </g>
    </g>
   </g>
   <g id="line2d_38">
    <path clip-path="url(#pf95260e025)" d="M 219.684375 311.19575 
L 222.448009 305.421133 
L 225.211643 289.735199 
L 227.975277 268.441726 
L 230.738911 246.944165 
L 233.502545 229.876227 
L 236.266179 219.684837 
L 239.029813 216.185933 
L 241.793447 217.165069 
L 244.557081 219.6477 
L 247.320715 221.22145 
L 250.084349 220.849155 
L 252.847983 218.91377 
L 255.611617 216.619371 
L 258.375251 215.147685 
L 261.138885 215.018573 
L 263.902519 215.929437 
L 266.666153 217.065602 
L 269.429787 217.636022 
L 272.193421 217.310539 
L 274.957055 216.335937 
L 277.720689 215.312863 
L 280.484323 214.803136 
L 283.247957 215.008905 
L 286.011591 215.695851 
L 288.775225 216.376065 
L 291.538859 216.61798 
L 294.302493 216.292505 
L 297.066127 215.619903 
L 299.829761 215.008984 
L 302.593395 214.800379 
L 305.357029 215.071291 
L 308.120663 215.610381 
L 310.884297 216.064018 
L 313.647931 216.155368 
L 316.411565 215.842625 
L 319.175199 215.327832 
L 321.938833 214.921234 
L 324.702467 214.850457 
L 327.466101 215.130416 
L 330.229735 215.566927 
L 332.993369 215.883939 
L 335.757003 215.892079 
L 338.520637 215.596526 
L 341.284271 215.183689 
L 344.047905 214.900981 
L 346.811539 214.906461 
L 349.575173 215.178994 
L 352.338807 215.539291 
L 355.102441 215.764031 
L 357.866075 215.720966 
L 360.629709 215.443767 
L 363.393343 215.104776 
L 366.156977 214.90632 
L 368.920611 214.958699 
L 370.416875 215.099103 
" style="fill:none;stroke:#0000ff;stroke-linecap:square;stroke-width:1.5;"/>
   </g>
   <g id="line2d_39">
    <path clip-path="url(#pf95260e025)" d="M 222.448009 307.262084 
L 225.211643 297.174334 
L 227.975277 284.515526 
L 230.738911 272.193823 
L 233.502545 261.591061 
L 236.266179 252.996996 
L 239.029813 246.208215 
L 241.793447 240.885122 
L 244.557081 236.701812 
L 247.320715 233.39058 
L 250.084349 230.74474 
L 252.847983 228.608687 
L 255.611617 226.866198 
L 258.375251 225.430381 
L 261.138885 224.235909 
L 263.902519 223.233278 
L 266.666153 222.384634 
L 269.429787 221.660748 
L 272.193421 221.038841 
L 274.957055 220.500989 
L 277.720689 220.032965 
L 280.484323 219.623374 
L 283.247957 219.26302 
L 286.011591 218.94442 
L 288.775225 218.661442 
L 291.538859 218.409027 
L 294.302493 218.182973 
L 297.066127 217.979768 
L 299.829761 217.79646 
L 302.593395 217.630558 
L 305.357029 217.479941 
L 308.120663 217.342802 
L 310.884297 217.217591 
L 313.647931 217.102972 
L 316.411565 216.997792 
L 319.175199 216.901047 
L 321.938833 216.811864 
L 324.702467 216.729479 
L 327.466101 216.653222 
L 330.229735 216.582502 
L 332.993369 216.516799 
L 335.757003 216.455651 
L 338.520637 216.398649 
L 341.284271 216.345427 
L 344.047905 216.295659 
L 346.811539 216.249054 
L 349.575173 216.205351 
L 352.338807 216.164314 
L 355.102441 216.125732 
L 357.866075 216.089413 
L 360.629709 216.055183 
L 363.393343 216.022887 
L 366.156977 215.992382 
L 368.920611 215.963537 
L 370.416875 215.948756 
" style="fill:none;stroke:#0000ff;stroke-dasharray:5.55,2.4;stroke-dashoffset:0;stroke-width:1.5;"/>
   </g>
   <g id="line2d_40">
    <path clip-path="url(#pf95260e025)" d="M 219.684375 310.865053 
L 222.448009 309.114026 
L 225.211643 303.972803 
L 227.975277 295.754265 
L 230.738911 284.954809 
L 233.502545 272.219135 
L 236.266179 258.29483 
L 239.029813 243.980194 
L 241.793447 230.069313 
L 244.557081 217.298478 
L 247.320715 206.297964 
L 250.084349 197.552663 
L 252.847983 191.374349 
L 255.611617 187.887387 
L 258.375251 187.028639 
L 261.138885 188.561159 
L 263.902519 192.100242 
L 266.666153 197.149435 
L 269.429787 203.143397 
L 272.193421 209.494049 
L 274.957055 215.636305 
L 277.720689 221.069787 
L 280.484323 225.39343 
L 283.247957 228.330475 
L 286.011591 229.742289 
L 288.775225 229.630361 
L 291.538859 228.126833 
L 294.302493 225.474868 
L 297.066127 222.000901 
L 299.829761 218.081485 
L 302.593395 214.107707 
L 305.357029 210.450317 
L 308.120663 207.428461 
L 310.884297 205.284528 
L 313.647931 204.166983 
L 316.411565 204.122305 
L 319.175199 205.096297 
L 321.938833 206.944258 
L 324.702467 209.448692 
L 327.466101 212.342689 
L 330.229735 215.336641 
L 332.993369 218.145769 
L 335.757003 220.515982 
L 338.520637 222.245799 
L 341.284271 223.20254 
L 344.047905 223.33154 
L 346.811539 222.657847 
L 349.575173 221.280531 
L 352.338807 219.360419 
L 355.102441 217.102629 
L 357.866075 214.735691 
L 360.629709 212.489302 
L 363.393343 210.572813 
L 366.156977 209.156407 
L 368.920611 208.356601 
L 370.416875 208.286583 
" style="fill:none;stroke:#17becf;stroke-linecap:square;stroke-width:1.5;"/>
   </g>
   <g id="patch_18">
    <path d="M 219.684375 311.2 
L 219.684375 167.2 
" style="fill:none;stroke:#000000;stroke-linecap:square;stroke-linejoin:miter;stroke-width:0.8;"/>
   </g>
   <g id="patch_19">
    <path d="M 353.309375 311.2 
L 353.309375 167.2 
" style="fill:none;stroke:#000000;stroke-linecap:square;stroke-linejoin:miter;stroke-width:0.8;"/>
   </g>
   <g id="patch_20">
    <path d="M 219.684375 311.2 
L 353.309375 311.2 
" style="fill:none;stroke:#000000;stroke-linecap:square;stroke-linejoin:miter;stroke-width:0.8;"/>
   </g>
   <g id="patch_21">
    <path d="M 219.684375 167.2 
L 353.309375 167.2 
" style="fill:none;stroke:#000000;stroke-linecap:square;stroke-linejoin:miter;stroke-width:0.8;"/>
   </g>
  </g>
 </g>
 <defs>
  <clipPath id="pf8a78aeb9c">
   <rect height="144" width="133.625" x="45.371875" y="7.2"/>
  </clipPath>
  <clipPath id="p602e9222b1">
   <rect height="144" width="133.625" x="219.684375" y="7.2"/>
  </clipPath>
  <clipPath id="p4f06814b59">
   <rect height="144" width="133.625" x="45.371875" y="167.2"/>
  </clipPath>
  <clipPath id="pf95260e025">
   <rect height="144" width="133.625" x="219.684375" y="167.2"/>
  </clipPath>
 </defs>
</svg>
