<?xml version="1.0" encoding="utf-8" standalone="no"?>
<!DOCTYPE svg PUBLIC "-//W3C//DTD SVG 1.1//EN"
  "http://www.w3.org/Graphics/SVG/1.1/DTD/svg11.dtd">
<svg height="356.49875pt" version="1.1" viewBox="0 0 360.634375 356.49875" width="360.634375pt" xmlns="http://www.w3.org/2000/svg" xmlns:xlink="http://www.w3.org/1999/xlink">
 <metadata>
  <rdf:RDF xmlns:cc="http://creativecommons.org/ns#" xmlns:dc="http://purl.org/dc/elements/1.1/" xmlns:rdf="http://www.w3.org/1999/02/22-rdf-syntax-ns#">
   <cc:Work>
    <dc:type rdf:resource="http://purl.org/dc/dcmitype/StillImage"/>
    <dc:date>2022-04-13T08:57:28.819051</dc:date>
    <dc:format>image/svg+xml</dc:format>
    <dc:creator>
     <cc:Agent>
      <dc:title>Matplotlib v3.4.3, https://matplotlib.org/</dc:title>
     </cc:Agent>
    </dc:creator>
   </cc:Work>
  </rdf:RDF>
 </metadata>
 <defs>
  <style type="text/css">*{stroke-linecap:butt;stroke-linejoin:round;}</style>
 </defs>
 <g id="figure_1">
  <g id="patch_1">
   <path d="M 0 356.49875 
L 360.634375 356.49875 
L 360.634375 0 
L 0 0 
z
" style="fill:none;"/>
  </g>
  <g id="axes_1">
   <g id="patch_2">
    <path d="M 36.464375 151.45 
L 182.589375 151.45 
L 182.589375 7.2 
L 36.464375 7.2 
z
" style="fill:#ffffff;"/>
   </g>
   <g id="matplotlib.axis_1">
    <g id="xtick_1">
     <g id="line2d_1">
      <defs>
       <path d="M 0 0 
L 0 3.5 
" id="m86ed831450" style="stroke:#000000;stroke-width:0.8;"/>
      </defs>
      <g>
       <use style="stroke:#000000;stroke-width:0.8;" x="36.464375" xlink:href="#m86ed831450" y="151.45"/>
      </g>
     </g>
    </g>
    <g id="xtick_2">
     <g id="line2d_2">
      <g>
       <use style="stroke:#000000;stroke-width:0.8;" x="109.526875" xlink:href="#m86ed831450" y="151.45"/>
      </g>
     </g>
    </g>
    <g id="xtick_3">
     <g id="line2d_3">
      <g>
       <use style="stroke:#000000;stroke-width:0.8;" x="182.589375" xlink:href="#m86ed831450" y="151.45"/>
      </g>
     </g>
    </g>
   </g>
   <g id="matplotlib.axis_2">
    <g id="ytick_1">
     <g id="line2d_4">
      <defs>
       <path d="M 0 0 
L -3.5 0 
" id="m578ec4aa56" style="stroke:#000000;stroke-width:0.8;"/>
      </defs>
      <g>
       <use style="stroke:#000000;stroke-width:0.8;" x="36.464375" xlink:href="#m578ec4aa56" y="151.45"/>
      </g>
     </g>
     <g id="text_1">
      <!-- 0.0 -->
      <g transform="translate(7.2 156.768906)scale(0.14 -0.14)">
       <defs>
        <path d="M 2034 4250 
Q 1547 4250 1301 3770 
Q 1056 3291 1056 2328 
Q 1056 1369 1301 889 
Q 1547 409 2034 409 
Q 2525 409 2770 889 
Q 3016 1369 3016 2328 
Q 3016 3291 2770 3770 
Q 2525 4250 2034 4250 
z
M 2034 4750 
Q 2819 4750 3233 4129 
Q 3647 3509 3647 2328 
Q 3647 1150 3233 529 
Q 2819 -91 2034 -91 
Q 1250 -91 836 529 
Q 422 1150 422 2328 
Q 422 3509 836 4129 
Q 1250 4750 2034 4750 
z
" id="DejaVuSans-30" transform="scale(0.015625)"/>
        <path d="M 684 794 
L 1344 794 
L 1344 0 
L 684 0 
L 684 794 
z
" id="DejaVuSans-2e" transform="scale(0.015625)"/>
       </defs>
       <use xlink:href="#DejaVuSans-30"/>
       <use x="63.623047" xlink:href="#DejaVuSans-2e"/>
       <use x="95.410156" xlink:href="#DejaVuSans-30"/>
      </g>
     </g>
    </g>
    <g id="ytick_2">
     <g id="line2d_5">
      <g>
       <use style="stroke:#000000;stroke-width:0.8;" x="36.464375" xlink:href="#m578ec4aa56" y="99.932143"/>
      </g>
     </g>
     <g id="text_2">
      <!-- 0.5 -->
      <g transform="translate(7.2 105.251049)scale(0.14 -0.14)">
       <defs>
        <path d="M 691 4666 
L 3169 4666 
L 3169 4134 
L 1269 4134 
L 1269 2991 
Q 1406 3038 1543 3061 
Q 1681 3084 1819 3084 
Q 2600 3084 3056 2656 
Q 3513 2228 3513 1497 
Q 3513 744 3044 326 
Q 2575 -91 1722 -91 
Q 1428 -91 1123 -41 
Q 819 9 494 109 
L 494 744 
Q 775 591 1075 516 
Q 1375 441 1709 441 
Q 2250 441 2565 725 
Q 2881 1009 2881 1497 
Q 2881 1984 2565 2268 
Q 2250 2553 1709 2553 
Q 1456 2553 1204 2497 
Q 953 2441 691 2322 
L 691 4666 
z
" id="DejaVuSans-35" transform="scale(0.015625)"/>
       </defs>
       <use xlink:href="#DejaVuSans-30"/>
       <use x="63.623047" xlink:href="#DejaVuSans-2e"/>
       <use x="95.410156" xlink:href="#DejaVuSans-35"/>
      </g>
     </g>
    </g>
    <g id="ytick_3">
     <g id="line2d_6">
      <g>
       <use style="stroke:#000000;stroke-width:0.8;" x="36.464375" xlink:href="#m578ec4aa56" y="48.414286"/>
      </g>
     </g>
     <g id="text_3">
      <!-- 1.0 -->
      <g transform="translate(7.2 53.733192)scale(0.14 -0.14)">
       <defs>
        <path d="M 794 531 
L 1825 531 
L 1825 4091 
L 703 3866 
L 703 4441 
L 1819 4666 
L 2450 4666 
L 2450 531 
L 3481 531 
L 3481 0 
L 794 0 
L 794 531 
z
" id="DejaVuSans-31" transform="scale(0.015625)"/>
       </defs>
       <use xlink:href="#DejaVuSans-31"/>
       <use x="63.623047" xlink:href="#DejaVuSans-2e"/>
       <use x="95.410156" xlink:href="#DejaVuSans-30"/>
      </g>
     </g>
    </g>
   </g>
   <g id="line2d_7">
    <path clip-path="url(#pb992ba1e4d)" d="M 34.093798 49.278396 
L 36.464375 48.414286 
L 38.834952 49.278396 
L 41.205529 51.82749 
L 43.576106 55.935436 
L 45.946684 61.403557 
L 48.317261 67.976549 
L 50.687838 75.3622 
L 53.058415 83.252802 
L 55.428992 91.346068 
L 57.799569 99.363631 
L 60.170147 107.065623 
L 62.540724 114.260442 
L 64.911301 120.809436 
L 67.281878 126.626824 
L 69.652455 131.675625 
L 72.023032 135.960655 
L 74.393609 139.519788 
L 76.764187 142.414584 
L 79.134764 144.721272 
L 81.505341 146.522772 
L 83.875918 147.902216 
L 86.246495 148.938134 
L 88.617072 149.701278 
L 90.98765 150.252902 
L 93.358227 150.644207 
L 95.728804 150.916662 
L 98.099381 151.102891 
L 100.469958 151.227866 
L 102.840535 151.310219 
L 105.211113 151.36351 
L 107.58169 151.397378 
L 109.952267 151.418518 
L 112.322844 151.43148 
L 114.693421 151.439288 
L 117.063998 151.443907 
L 119.434575 151.446592 
L 121.805153 151.448126 
L 124.17573 151.448987 
L 126.546307 151.449461 
L 128.916884 151.449718 
L 131.287461 151.449855 
L 133.658038 151.449927 
L 136.028616 151.449964 
L 138.399193 151.449982 
L 140.76977 151.449991 
L 143.140347 151.449996 
L 145.510924 151.449998 
L 147.881501 151.449999 
L 150.252078 151.45 
L 152.622656 151.45 
L 154.993233 151.45 
L 157.36381 151.45 
L 159.734387 151.45 
L 162.104964 151.45 
L 164.475541 151.45 
L 166.846119 151.45 
L 169.216696 151.45 
L 171.587273 151.45 
L 173.95785 151.45 
L 176.328427 151.45 
L 178.699004 151.45 
L 181.069581 151.45 
L 183.440159 151.45 
" style="fill:none;stroke:#ff0000;stroke-dasharray:5.55,2.4;stroke-dashoffset:0;stroke-width:1.5;"/>
   </g>
   <g id="line2d_8">
    <path clip-path="url(#pb992ba1e4d)" d="M 34.093798 50.487259 
L 36.464375 48.422908 
L 38.834952 48.414286 
L 41.205529 50.462244 
L 43.576106 54.458567 
L 45.946684 60.194451 
L 48.317261 67.376747 
L 50.687838 75.650361 
L 53.058415 84.624668 
L 55.428992 93.901425 
L 57.799569 103.101658 
L 60.170147 111.889167 
L 62.540724 119.988803 
L 64.911301 127.198274 
L 67.281878 133.392966 
L 69.652455 138.524014 
L 72.023032 142.61051 
L 74.393609 145.727229 
L 76.764187 147.989561 
L 79.134764 149.537448 
L 81.505341 150.519984 
L 83.875918 151.082051 
L 86.246495 151.353972 
L 88.617072 151.444659 
L 90.98765 151.438308 
L 93.358227 151.394271 
L 95.728804 151.349439 
L 98.099381 151.322333 
L 100.469958 151.318006 
L 102.840535 151.333007 
L 105.211113 151.359762 
L 107.58169 151.389975 
L 109.952267 151.416875 
L 112.322844 151.436331 
L 114.693421 151.447012 
L 117.063998 151.449888 
L 119.434575 151.447363 
L 121.805153 151.442338 
L 124.17573 151.437413 
L 126.546307 151.434367 
L 128.916884 151.433957 
L 131.287461 151.435997 
L 133.658038 151.439638 
L 136.028616 151.443738 
L 138.399193 151.447218 
L 140.76977 151.449329 
L 143.140347 151.449784 
L 145.510924 151.448752 
L 147.881501 151.446745 
L 150.252078 151.444436 
L 152.622656 151.442477 
L 154.993233 151.441342 
L 157.36381 151.441244 
L 159.734387 151.442124 
L 162.104964 151.443708 
L 164.475541 151.445601 
L 166.846119 151.447402 
L 169.216696 151.448795 
L 171.587273 151.449616 
L 173.95785 151.449859 
L 176.328427 151.449658 
L 178.699004 151.449222 
L 181.069581 151.448778 
L 183.440159 151.4485 
" style="fill:none;stroke:#ff0000;stroke-linecap:square;stroke-width:1.5;"/>
   </g>
   <g id="patch_3">
    <path d="M 36.464375 151.45 
L 36.464375 7.2 
" style="fill:none;stroke:#000000;stroke-linecap:square;stroke-linejoin:miter;stroke-width:0.8;"/>
   </g>
   <g id="patch_4">
    <path d="M 182.589375 151.45 
L 182.589375 7.2 
" style="fill:none;stroke:#000000;stroke-linecap:square;stroke-linejoin:miter;stroke-width:0.8;"/>
   </g>
   <g id="patch_5">
    <path d="M 36.464375 151.45 
L 182.589375 151.45 
" style="fill:none;stroke:#000000;stroke-linecap:square;stroke-linejoin:miter;stroke-width:0.8;"/>
   </g>
   <g id="patch_6">
    <path d="M 36.464375 7.2 
L 182.589375 7.2 
" style="fill:none;stroke:#000000;stroke-linecap:square;stroke-linejoin:miter;stroke-width:0.8;"/>
   </g>
  </g>
  <g id="axes_2">
   <g id="patch_7">
    <path d="M 198.401875 151.45 
L 344.526875 151.45 
L 344.526875 7.2 
L 198.401875 7.2 
z
" style="fill:#ffffff;"/>
   </g>
   <g id="matplotlib.axis_3">
    <g id="xtick_4">
     <g id="line2d_9">
      <g>
       <use style="stroke:#000000;stroke-width:0.8;" x="198.401875" xlink:href="#m86ed831450" y="151.45"/>
      </g>
     </g>
    </g>
    <g id="xtick_5">
     <g id="line2d_10">
      <g>
       <use style="stroke:#000000;stroke-width:0.8;" x="271.464375" xlink:href="#m86ed831450" y="151.45"/>
      </g>
     </g>
    </g>
    <g id="xtick_6">
     <g id="line2d_11">
      <g>
       <use style="stroke:#000000;stroke-width:0.8;" x="344.526875" xlink:href="#m86ed831450" y="151.45"/>
      </g>
     </g>
    </g>
   </g>
   <g id="matplotlib.axis_4">
    <g id="ytick_4">
     <g id="line2d_12">
      <g>
       <use style="stroke:#000000;stroke-width:0.8;" x="198.401875" xlink:href="#m578ec4aa56" y="151.45"/>
      </g>
     </g>
    </g>
    <g id="ytick_5">
     <g id="line2d_13">
      <g>
       <use style="stroke:#000000;stroke-width:0.8;" x="198.401875" xlink:href="#m578ec4aa56" y="99.932143"/>
      </g>
     </g>
    </g>
    <g id="ytick_6">
     <g id="line2d_14">
      <g>
       <use style="stroke:#000000;stroke-width:0.8;" x="198.401875" xlink:href="#m578ec4aa56" y="48.414286"/>
      </g>
     </g>
    </g>
   </g>
   <g id="line2d_15">
    <path clip-path="url(#p6de8120ba5)" d="M 198.401875 48.422908 
L 201.424034 51.965832 
L 204.446193 61.914284 
L 207.468353 76.415985 
L 210.490512 92.940397 
L 213.512671 108.924487 
L 216.53483 122.368929 
L 219.556989 132.212393 
L 222.579148 138.396746 
L 225.601308 141.644495 
L 228.623467 143.06111 
L 231.645626 143.717352 
L 234.667785 144.349615 
L 237.689944 145.252227 
L 240.712103 146.354044 
L 243.734263 147.40591 
L 246.756422 148.17881 
L 249.778581 148.589915 
L 252.80074 148.721372 
L 255.822899 148.750277 
L 258.845058 148.843894 
L 261.867218 149.079186 
L 264.889377 149.422704 
L 267.911536 149.770715 
L 270.933695 150.019233 
L 273.955854 150.123017 
L 276.978013 150.114139 
L 280.000173 150.075789 
L 283.022332 150.091089 
L 286.044491 150.197651 
L 289.06665 150.372088 
L 292.088809 150.549909 
L 295.110968 150.666416 
L 298.133128 150.693976 
L 301.155287 150.655196 
L 304.177446 150.60654 
L 307.199605 150.603831 
L 310.221764 150.670441 
L 313.243923 150.786057 
L 316.266083 150.901169 
L 319.288242 150.967539 
L 322.310401 150.966339 
L 325.33256 150.917882 
L 328.354719 150.868202 
L 331.376878 150.861216 
L 334.399038 150.913159 
L 337.421197 151.004077 
L 340.443356 151.090733 
L 343.465515 151.132784 
L 346.487674 151.116563 
L 349.509833 151.062618 
L 352.531993 151.012948 
L 355.554152 151.005819 
L 358.576311 151.053168 
L 361.59847 151.133862 
L 361.634375 151.134726 
" style="fill:none;stroke:#ff0000;stroke-linecap:square;stroke-width:1.5;"/>
   </g>
   <g id="line2d_16">
    <path clip-path="url(#p6de8120ba5)" d="M 198.401875 48.414286 
L 201.424034 52.640806 
L 204.446193 63.467875 
L 207.468353 77.05443 
L 210.490512 90.279175 
L 213.512671 101.658999 
L 216.53483 110.882912 
L 219.556989 118.169234 
L 222.579148 123.882449 
L 225.601308 128.372348 
L 228.623467 131.926256 
L 231.645626 134.766007 
L 234.667785 137.058608 
L 237.689944 138.928801 
L 240.712103 140.469848 
L 243.734263 141.751862 
L 246.756422 142.827973 
L 249.778581 143.738814 
L 252.80074 144.515752 
L 255.822899 145.183238 
L 258.845058 145.760508 
L 261.867218 146.262834 
L 264.889377 146.702443 
L 267.911536 147.089207 
L 270.933695 147.431156 
L 273.955854 147.734873 
L 276.978013 148.005787 
L 280.000173 148.248409 
L 283.022332 148.466507 
L 286.044491 148.663248 
L 289.06665 148.84131 
L 292.088809 149.002965 
L 295.110968 149.150155 
L 298.133128 149.284543 
L 301.155287 149.407561 
L 304.177446 149.52045 
L 307.199605 149.624286 
L 310.221764 149.720005 
L 313.243923 149.808428 
L 316.266083 149.890273 
L 319.288242 149.966176 
L 322.310401 150.036694 
L 325.33256 150.102323 
L 328.354719 150.163504 
L 331.376878 150.220626 
L 334.399038 150.274042 
L 337.421197 150.324062 
L 340.443356 150.370968 
L 343.465515 150.415012 
L 346.487674 150.456422 
L 349.509833 150.495404 
L 352.531993 150.532142 
L 355.554152 150.566805 
L 358.576311 150.599546 
L 361.59847 150.630504 
L 361.634375 150.630852 
" style="fill:none;stroke:#ff0000;stroke-dasharray:5.55,2.4;stroke-dashoffset:0;stroke-width:1.5;"/>
   </g>
   <g id="patch_8">
    <path d="M 198.401875 151.45 
L 198.401875 7.2 
" style="fill:none;stroke:#000000;stroke-linecap:square;stroke-linejoin:miter;stroke-width:0.8;"/>
   </g>
   <g id="patch_9">
    <path d="M 344.526875 151.45 
L 344.526875 7.2 
" style="fill:none;stroke:#000000;stroke-linecap:square;stroke-linejoin:miter;stroke-width:0.8;"/>
   </g>
   <g id="patch_10">
    <path d="M 198.401875 151.45 
L 344.526875 151.45 
" style="fill:none;stroke:#000000;stroke-linecap:square;stroke-linejoin:miter;stroke-width:0.8;"/>
   </g>
   <g id="patch_11">
    <path d="M 198.401875 7.2 
L 344.526875 7.2 
" style="fill:none;stroke:#000000;stroke-linecap:square;stroke-linejoin:miter;stroke-width:0.8;"/>
   </g>
  </g>
  <g id="axes_3">
   <g id="patch_12">
    <path d="M 36.464375 311.2 
L 182.589375 311.2 
L 182.589375 166.95 
L 36.464375 166.95 
z
" style="fill:#ffffff;"/>
   </g>
   <g id="matplotlib.axis_5">
    <g id="xtick_7">
     <g id="line2d_17">
      <g>
       <use style="stroke:#000000;stroke-width:0.8;" x="36.464375" xlink:href="#m86ed831450" y="311.2"/>
      </g>
     </g>
     <g id="text_4">
      <!-- 0 -->
      <g transform="translate(32.010625 328.837812)scale(0.14 -0.14)">
       <use xlink:href="#DejaVuSans-30"/>
      </g>
     </g>
    </g>
    <g id="xtick_8">
     <g id="line2d_18">
      <g>
       <use style="stroke:#000000;stroke-width:0.8;" x="109.526875" xlink:href="#m86ed831450" y="311.2"/>
      </g>
     </g>
     <g id="text_5">
      <!-- 2 -->
      <g transform="translate(105.073125 328.837812)scale(0.14 -0.14)">
       <defs>
        <path d="M 1228 531 
L 3431 531 
L 3431 0 
L 469 0 
L 469 531 
Q 828 903 1448 1529 
Q 2069 2156 2228 2338 
Q 2531 2678 2651 2914 
Q 2772 3150 2772 3378 
Q 2772 3750 2511 3984 
Q 2250 4219 1831 4219 
Q 1534 4219 1204 4116 
Q 875 4013 500 3803 
L 500 4441 
Q 881 4594 1212 4672 
Q 1544 4750 1819 4750 
Q 2544 4750 2975 4387 
Q 3406 4025 3406 3419 
Q 3406 3131 3298 2873 
Q 3191 2616 2906 2266 
Q 2828 2175 2409 1742 
Q 1991 1309 1228 531 
z
" id="DejaVuSans-32" transform="scale(0.015625)"/>
       </defs>
       <use xlink:href="#DejaVuSans-32"/>
      </g>
     </g>
    </g>
    <g id="xtick_9">
     <g id="line2d_19">
      <g>
       <use style="stroke:#000000;stroke-width:0.8;" x="182.589375" xlink:href="#m86ed831450" y="311.2"/>
      </g>
     </g>
     <g id="text_6">
      <!-- 4 -->
      <g transform="translate(178.135625 328.837812)scale(0.14 -0.14)">
       <defs>
        <path d="M 2419 4116 
L 825 1625 
L 2419 1625 
L 2419 4116 
z
M 2253 4666 
L 3047 4666 
L 3047 1625 
L 3713 1625 
L 3713 1100 
L 3047 1100 
L 3047 0 
L 2419 0 
L 2419 1100 
L 313 1100 
L 313 1709 
L 2253 4666 
z
" id="DejaVuSans-34" transform="scale(0.015625)"/>
       </defs>
       <use xlink:href="#DejaVuSans-34"/>
      </g>
     </g>
    </g>
    <g id="text_7">
     <!-- $\rho_2/w_0$ -->
     <g transform="translate(90.346875 346.35875)scale(0.14 -0.14)">
      <defs>
       <path d="M 1203 2875 
Q 1453 3194 1981 3475 
Q 2188 3584 2756 3584 
Q 3394 3584 3694 3078 
Q 3994 2572 3834 1747 
Q 3672 922 3175 415 
Q 2678 -91 2041 -91 
Q 1656 -91 1409 63 
Q 1163 213 1044 525 
L 681 -1331 
L 103 -1331 
L 697 1716 
Q 838 2438 1203 2875 
z
M 3238 1747 
Q 3359 2381 3169 2744 
Q 2978 3103 2522 3103 
Q 2066 3103 1734 2744 
Q 1403 2381 1281 1747 
Q 1156 1113 1347 750 
Q 1538 391 1994 391 
Q 2450 391 2781 750 
Q 3113 1113 3238 1747 
z
" id="DejaVuSans-Oblique-3c1" transform="scale(0.015625)"/>
       <path d="M 1625 4666 
L 2156 4666 
L 531 -594 
L 0 -594 
L 1625 4666 
z
" id="DejaVuSans-2f" transform="scale(0.015625)"/>
       <path d="M 544 3500 
L 1113 3500 
L 1259 684 
L 2566 3500 
L 3231 3500 
L 3425 684 
L 4666 3500 
L 5241 3500 
L 3641 0 
L 2969 0 
L 2797 2900 
L 1459 0 
L 781 0 
L 544 3500 
z
" id="DejaVuSans-Oblique-77" transform="scale(0.015625)"/>
      </defs>
      <use transform="translate(0 0.09375)" xlink:href="#DejaVuSans-Oblique-3c1"/>
      <use transform="translate(63.476562 -16.3125)scale(0.7)" xlink:href="#DejaVuSans-32"/>
      <use transform="translate(110.74707 0.09375)" xlink:href="#DejaVuSans-2f"/>
      <use transform="translate(144.438477 0.09375)" xlink:href="#DejaVuSans-Oblique-77"/>
      <use transform="translate(226.225586 -16.3125)scale(0.7)" xlink:href="#DejaVuSans-30"/>
     </g>
    </g>
   </g>
   <g id="matplotlib.axis_6">
    <g id="ytick_7">
     <g id="line2d_20">
      <g>
       <use style="stroke:#000000;stroke-width:0.8;" x="36.464375" xlink:href="#m578ec4aa56" y="311.2"/>
      </g>
     </g>
     <g id="text_8">
      <!-- 0.0 -->
      <g transform="translate(7.2 316.518906)scale(0.14 -0.14)">
       <use xlink:href="#DejaVuSans-30"/>
       <use x="63.623047" xlink:href="#DejaVuSans-2e"/>
       <use x="95.410156" xlink:href="#DejaVuSans-30"/>
      </g>
     </g>
    </g>
    <g id="ytick_8">
     <g id="line2d_21">
      <g>
       <use style="stroke:#000000;stroke-width:0.8;" x="36.464375" xlink:href="#m578ec4aa56" y="259.682143"/>
      </g>
     </g>
     <g id="text_9">
      <!-- 0.5 -->
      <g transform="translate(7.2 265.001049)scale(0.14 -0.14)">
       <use xlink:href="#DejaVuSans-30"/>
       <use x="63.623047" xlink:href="#DejaVuSans-2e"/>
       <use x="95.410156" xlink:href="#DejaVuSans-35"/>
      </g>
     </g>
    </g>
    <g id="ytick_9">
     <g id="line2d_22">
      <g>
       <use style="stroke:#000000;stroke-width:0.8;" x="36.464375" xlink:href="#m578ec4aa56" y="208.164286"/>
      </g>
     </g>
     <g id="text_10">
      <!-- 1.0 -->
      <g transform="translate(7.2 213.483192)scale(0.14 -0.14)">
       <use xlink:href="#DejaVuSans-31"/>
       <use x="63.623047" xlink:href="#DejaVuSans-2e"/>
       <use x="95.410156" xlink:href="#DejaVuSans-30"/>
      </g>
     </g>
    </g>
   </g>
   <g id="line2d_23">
    <path clip-path="url(#p334666101e)" d="M 34.093798 311.198175 
L 36.464375 311.199994 
L 38.834952 311.198175 
L 41.205529 311.171249 
L 43.576106 311.057491 
L 45.946684 310.762584 
L 48.317261 310.171251 
L 50.687838 309.161329 
L 53.058415 307.618472 
L 55.428992 305.449697 
L 57.799569 302.59421 
L 60.170147 299.03043 
L 62.540724 294.778647 
L 64.911301 289.899384 
L 67.281878 284.488006 
L 69.652455 278.666528 
L 72.023032 272.573771 
L 74.393609 266.355055 
L 76.764187 260.152491 
L 79.134764 254.096714 
L 81.505341 248.300589 
L 83.875918 242.855146 
L 86.246495 237.827687 
L 88.617072 233.261853 
L 90.98765 229.179245 
L 93.358227 225.582158 
L 95.728804 222.456986 
L 98.099381 219.777885 
L 100.469958 217.510371 
L 102.840535 215.614609 
L 105.211113 214.048242 
L 107.58169 212.768686 
L 109.952267 211.734874 
L 112.322844 210.908497 
L 114.693421 210.254773 
L 117.063998 209.742861 
L 119.434575 209.34597 
L 121.805153 209.041248 
L 124.17573 208.809531 
L 126.546307 208.634992 
L 128.916884 208.50475 
L 131.287461 208.408459 
L 133.658038 208.337922 
L 136.028616 208.286721 
L 138.399193 208.24989 
L 140.76977 208.223636 
L 143.140347 208.205087 
L 145.510924 208.1921 
L 147.881501 208.183088 
L 150.252078 208.176889 
L 152.622656 208.172663 
L 154.993233 208.169807 
L 157.36381 208.167894 
L 159.734387 208.166624 
L 162.104964 208.165789 
L 164.475541 208.165244 
L 166.846119 208.164891 
L 169.216696 208.164665 
L 171.587273 208.164521 
L 173.95785 208.164431 
L 176.328427 208.164374 
L 178.699004 208.164339 
L 181.069581 208.164318 
L 183.440159 208.164305 
" style="fill:none;stroke:#0000ff;stroke-dasharray:5.55,2.4;stroke-dashoffset:0;stroke-width:1.5;"/>
   </g>
   <g id="line2d_24">
    <path clip-path="url(#p334666101e)" d="M 34.093798 311.171357 
L 36.464375 311.195438 
L 38.834952 311.195438 
L 41.205529 311.171357 
L 43.576106 311.06293 
L 45.946684 310.756771 
L 48.317261 310.099849 
L 50.687838 308.917737 
L 53.058415 307.035589 
L 55.428992 304.299471 
L 57.799569 300.59572 
L 60.170147 295.866246 
L 62.540724 290.118229 
L 64.911301 283.427314 
L 67.281878 275.934154 
L 69.652455 267.834892 
L 72.023032 259.366773 
L 74.393609 250.790534 
L 76.764187 242.371451 
L 79.134764 234.360925 
L 81.505341 226.980277 
L 83.875918 220.408064 
L 86.246495 214.771737 
L 88.617072 210.143939 
L 90.98765 206.543261 
L 93.358227 203.938849 
L 95.728804 202.257977 
L 98.099381 201.395527 
L 100.469958 201.224319 
L 102.840535 201.605329 
L 105.211113 202.397009 
L 107.58169 203.463175 
L 109.952267 204.67916 
L 112.322844 205.936156 
L 114.693421 207.143856 
L 117.063998 208.231602 
L 119.434575 209.14835 
L 121.805153 209.86171 
L 124.17573 210.356362 
L 126.546307 210.632035 
L 128.916884 210.70122 
L 131.287461 210.586731 
L 133.658038 210.319184 
L 136.028616 209.934454 
L 138.399193 209.471173 
L 140.76977 208.968336 
L 143.140347 208.463085 
L 145.510924 207.988765 
L 147.881501 207.573333 
L 150.252078 207.238191 
L 152.622656 206.997496 
L 154.993233 206.857958 
L 157.36381 206.819123 
L 159.734387 206.874072 
L 162.104964 207.010472 
L 164.475541 207.211873 
L 166.846119 207.459141 
L 169.216696 207.731926 
L 171.587273 208.010056 
L 173.95785 208.274791 
L 176.328427 208.509858 
L 178.699004 208.702249 
L 181.069581 208.842738 
L 183.440159 208.92614 
" style="fill:none;stroke:#0000ff;stroke-linecap:square;stroke-width:1.5;"/>
   </g>
   <g id="line2d_25">
    <path clip-path="url(#p334666101e)" d="M 34.093798 310.773561 
L 36.464375 310.840505 
L 38.834952 310.840506 
L 41.205529 310.773564 
L 43.576106 310.623507 
L 45.946684 310.358985 
L 48.317261 309.935397 
L 50.687838 309.297647 
L 53.058415 308.383576 
L 55.428992 307.127866 
L 57.799569 305.46622 
L 60.170147 303.339563 
L 62.540724 300.698044 
L 64.911301 297.504627 
L 67.281878 293.738067 
L 69.652455 289.395117 
L 72.023032 284.491859 
L 74.393609 279.064089 
L 76.764187 273.166748 
L 79.134764 266.872432 
L 81.505341 260.269087 
L 83.875918 253.456992 
L 86.246495 246.545208 
L 88.617072 239.647684 
L 90.98765 232.879192 
L 93.358227 226.351315 
L 95.728804 220.168658 
L 98.099381 214.425456 
L 100.469958 209.202711 
L 102.840535 204.565973 
L 105.211113 200.56382 
L 107.58169 197.227072 
L 109.952267 194.568722 
L 112.322844 192.584543 
L 114.693421 191.254292 
L 117.063998 190.54341 
L 119.434575 190.405105 
L 121.805153 190.78269 
L 124.17573 191.612061 
L 126.546307 192.824176 
L 128.916884 194.347453 
L 131.287461 196.109983 
L 133.658038 198.04149 
L 136.028616 200.074993 
L 138.399193 202.148153 
L 140.76977 204.204282 
L 143.140347 206.193046 
L 145.510924 208.070874 
L 147.881501 209.80113 
L 150.252078 211.354066 
L 152.622656 212.706634 
L 154.993233 213.84217 
L 157.36381 214.750019 
L 159.734387 215.425114 
L 162.104964 215.867539 
L 164.475541 216.082099 
L 166.846119 216.077897 
L 169.216696 215.867919 
L 171.587273 215.468625 
L 173.95785 214.899531 
L 176.328427 214.182784 
L 178.699004 213.342697 
L 181.069581 212.40527 
L 183.440159 211.397652 
" style="fill:none;stroke:#17becf;stroke-linecap:square;stroke-width:1.5;"/>
   </g>
   <g id="patch_13">
    <path d="M 36.464375 311.2 
L 36.464375 166.95 
" style="fill:none;stroke:#000000;stroke-linecap:square;stroke-linejoin:miter;stroke-width:0.8;"/>
   </g>
   <g id="patch_14">
    <path d="M 182.589375 311.2 
L 182.589375 166.95 
" style="fill:none;stroke:#000000;stroke-linecap:square;stroke-linejoin:miter;stroke-width:0.8;"/>
   </g>
   <g id="patch_15">
    <path d="M 36.464375 311.2 
L 182.589375 311.2 
" style="fill:none;stroke:#000000;stroke-linecap:square;stroke-linejoin:miter;stroke-width:0.8;"/>
   </g>
   <g id="patch_16">
    <path d="M 36.464375 166.95 
L 182.589375 166.95 
" style="fill:none;stroke:#000000;stroke-linecap:square;stroke-linejoin:miter;stroke-width:0.8;"/>
   </g>
  </g>
  <g id="axes_4">
   <g id="patch_17">
    <path d="M 198.401875 311.2 
L 344.526875 311.2 
L 344.526875 166.95 
L 198.401875 166.95 
z
" style="fill:#ffffff;"/>
   </g>
   <g id="matplotlib.axis_7">
    <g id="xtick_10">
     <g id="line2d_26">
      <g>
       <use style="stroke:#000000;stroke-width:0.8;" x="198.401875" xlink:href="#m86ed831450" y="311.2"/>
      </g>
     </g>
     <g id="text_11">
      <!-- 0 -->
      <g transform="translate(193.948125 328.837812)scale(0.14 -0.14)">
       <use xlink:href="#DejaVuSans-30"/>
      </g>
     </g>
    </g>
    <g id="xtick_11">
     <g id="line2d_27">
      <g>
       <use style="stroke:#000000;stroke-width:0.8;" x="271.464375" xlink:href="#m86ed831450" y="311.2"/>
      </g>
     </g>
     <g id="text_12">
      <!-- 5 -->
      <g transform="translate(267.010625 328.837812)scale(0.14 -0.14)">
       <use xlink:href="#DejaVuSans-35"/>
      </g>
     </g>
    </g>
    <g id="xtick_12">
     <g id="line2d_28">
      <g>
       <use style="stroke:#000000;stroke-width:0.8;" x="344.526875" xlink:href="#m86ed831450" y="311.2"/>
      </g>
     </g>
     <g id="text_13">
      <!-- 10 -->
      <g transform="translate(335.619375 328.837812)scale(0.14 -0.14)">
       <use xlink:href="#DejaVuSans-31"/>
       <use x="63.623047" xlink:href="#DejaVuSans-30"/>
      </g>
     </g>
    </g>
    <g id="text_14">
     <!-- $z_2/z_R$ -->
     <g transform="translate(254.804375 346.387187)scale(0.14 -0.14)">
      <defs>
       <path d="M 744 3500 
L 3475 3500 
L 3372 2975 
L 738 459 
L 2913 459 
L 2822 0 
L -19 0 
L 84 525 
L 2719 3041 
L 653 3041 
L 744 3500 
z
" id="DejaVuSans-Oblique-7a" transform="scale(0.015625)"/>
       <path d="M 1613 4147 
L 1294 2491 
L 2106 2491 
Q 2584 2491 2879 2755 
Q 3175 3019 3175 3444 
Q 3175 3784 2976 3965 
Q 2778 4147 2406 4147 
L 1613 4147 
z
M 2772 2241 
Q 2972 2194 3105 2009 
Q 3238 1825 3413 1275 
L 3809 0 
L 3144 0 
L 2778 1197 
Q 2638 1659 2453 1815 
Q 2269 1972 1888 1972 
L 1191 1972 
L 806 0 
L 172 0 
L 1081 4666 
L 2503 4666 
Q 3150 4666 3495 4373 
Q 3841 4081 3841 3531 
Q 3841 3044 3547 2687 
Q 3253 2331 2772 2241 
z
" id="DejaVuSans-Oblique-52" transform="scale(0.015625)"/>
      </defs>
      <use transform="translate(0 0.09375)" xlink:href="#DejaVuSans-Oblique-7a"/>
      <use transform="translate(52.490234 -16.3125)scale(0.7)" xlink:href="#DejaVuSans-32"/>
      <use transform="translate(99.760742 0.09375)" xlink:href="#DejaVuSans-2f"/>
      <use transform="translate(133.452148 0.09375)" xlink:href="#DejaVuSans-Oblique-7a"/>
      <use transform="translate(185.942383 -16.3125)scale(0.7)" xlink:href="#DejaVuSans-Oblique-52"/>
     </g>
    </g>
   </g>
   <g id="matplotlib.axis_8">
    <g id="ytick_10">
     <g id="line2d_29">
      <g>
       <use style="stroke:#000000;stroke-width:0.8;" x="198.401875" xlink:href="#m578ec4aa56" y="311.2"/>
      </g>
     </g>
    </g>
    <g id="ytick_11">
     <g id="line2d_30">
      <g>
       <use style="stroke:#000000;stroke-width:0.8;" x="198.401875" xlink:href="#m578ec4aa56" y="259.682143"/>
      </g>
     </g>
    </g>
    <g id="ytick_12">
     <g id="line2d_31">
      <g>
       <use style="stroke:#000000;stroke-width:0.8;" x="198.401875" xlink:href="#m578ec4aa56" y="208.164286"/>
      </g>
     </g>
    </g>
   </g>
   <g id="line2d_32">
    <path clip-path="url(#ped53e953ef)" d="M 198.401875 311.195438 
L 201.424034 304.997608 
L 204.446193 288.162071 
L 207.468353 265.308028 
L 210.490512 242.234939 
L 213.512671 223.916114 
L 216.53483 212.977811 
L 219.556989 209.222476 
L 222.579148 210.273372 
L 225.601308 212.937952 
L 228.623467 214.62704 
L 231.645626 214.227459 
L 234.667785 212.150233 
L 237.689944 209.687681 
L 240.712103 208.108137 
L 243.734263 207.969562 
L 246.756422 208.947182 
L 249.778581 210.166615 
L 252.80074 210.77884 
L 255.822899 210.429503 
L 258.845058 209.383475 
L 261.867218 208.28542 
L 264.889377 207.738336 
L 267.911536 207.959186 
L 270.933695 208.696477 
L 273.955854 209.426543 
L 276.978013 209.686188 
L 280.000173 209.336859 
L 283.022332 208.614963 
L 286.044491 207.95927 
L 289.06665 207.735377 
L 292.088809 208.026144 
L 295.110968 208.604743 
L 298.133128 209.091627 
L 301.155287 209.189672 
L 304.177446 208.854008 
L 307.199605 208.301487 
L 310.221764 207.865089 
L 313.243923 207.789125 
L 316.266083 208.089602 
L 319.288242 208.558104 
L 322.310401 208.898349 
L 325.33256 208.907086 
L 328.354719 208.589873 
L 331.376878 208.14678 
L 334.399038 207.843352 
L 337.421197 207.849233 
L 340.443356 208.141741 
L 343.465515 208.528443 
L 346.487674 208.769654 
L 349.509833 208.723433 
L 352.531993 208.425918 
L 355.554152 208.062083 
L 358.576311 207.849083 
L 361.59847 207.9053 
L 361.634375 207.908607 
" style="fill:none;stroke:#0000ff;stroke-linecap:square;stroke-width:1.5;"/>
   </g>
   <g id="line2d_33">
    <path clip-path="url(#ped53e953ef)" d="M 201.424034 306.97348 
L 204.446193 296.146411 
L 207.468353 282.559856 
L 210.490512 269.335111 
L 213.512671 257.955287 
L 216.53483 248.731374 
L 219.556989 241.445052 
L 222.579148 235.731837 
L 225.601308 231.241938 
L 228.623467 227.68803 
L 231.645626 224.848279 
L 234.667785 222.555678 
L 237.689944 220.685484 
L 240.712103 219.144438 
L 243.734263 217.862424 
L 246.756422 216.786313 
L 249.778581 215.875472 
L 252.80074 215.098534 
L 255.822899 214.431048 
L 258.845058 213.853778 
L 261.867218 213.351452 
L 264.889377 212.911843 
L 267.911536 212.525079 
L 270.933695 212.183129 
L 273.955854 211.879413 
L 276.978013 211.608498 
L 280.000173 211.365877 
L 283.022332 211.147779 
L 286.044491 210.951037 
L 289.06665 210.772976 
L 292.088809 210.61132 
L 295.110968 210.464131 
L 298.133128 210.329743 
L 301.155287 210.206724 
L 304.177446 210.093835 
L 307.199605 209.99 
L 310.221764 209.894281 
L 313.243923 209.805858 
L 316.266083 209.724012 
L 319.288242 209.64811 
L 322.310401 209.577592 
L 325.33256 209.511962 
L 328.354719 209.450782 
L 331.376878 209.393659 
L 334.399038 209.340244 
L 337.421197 209.290224 
L 340.443356 209.243318 
L 343.465515 209.199273 
L 346.487674 209.157863 
L 349.509833 209.118882 
L 352.531993 209.082144 
L 355.554152 209.047481 
L 358.576311 209.01474 
L 361.59847 208.983781 
L 361.634375 208.983433 
" style="fill:none;stroke:#0000ff;stroke-dasharray:5.55,2.4;stroke-dashoffset:0;stroke-width:1.5;"/>
   </g>
   <g id="line2d_34">
    <path clip-path="url(#ped53e953ef)" d="M 198.401875 310.840505 
L 201.424034 308.961148 
L 204.446193 303.443132 
L 207.468353 294.622268 
L 210.490512 283.031333 
L 213.512671 269.362279 
L 216.53483 254.417479 
L 219.556989 239.053743 
L 222.579148 224.123351 
L 225.601308 210.416558 
L 228.623467 198.609831 
L 231.645626 189.223599 
L 234.667785 182.592483 
L 237.689944 178.849967 
L 240.712103 177.928283 
L 243.734263 179.573119 
L 246.756422 183.371577 
L 249.778581 188.790818 
L 252.80074 195.22407 
L 255.822899 202.040154 
L 258.845058 208.632566 
L 261.867218 214.464262 
L 264.889377 219.104779 
L 267.911536 222.257076 
L 270.933695 223.77236 
L 273.955854 223.652229 
L 276.978013 222.03851 
L 280.000173 219.192185 
L 283.022332 215.463616 
L 286.044491 211.25695 
L 289.06665 206.99194 
L 292.088809 203.066505 
L 295.110968 199.823181 
L 298.133128 197.522122 
L 301.155287 196.322674 
L 304.177446 196.274721 
L 307.199605 197.320096 
L 310.221764 199.303491 
L 313.243923 201.991472 
L 316.266083 205.097567 
L 319.288242 208.310941 
L 322.310401 211.325946 
L 325.33256 213.869869 
L 328.354719 215.726462 
L 331.376878 216.753321 
L 334.399038 216.891776 
L 337.421197 216.168709 
L 340.443356 214.69045 
L 343.465515 212.629616 
L 346.487674 210.206356 
L 349.509833 207.665948 
L 352.531993 205.254924 
L 355.554152 203.197979 
L 358.576311 201.677766 
L 361.59847 200.819343 
L 361.634375 200.817694 
" style="fill:none;stroke:#17becf;stroke-linecap:square;stroke-width:1.5;"/>
   </g>
   <g id="patch_18">
    <path d="M 198.401875 311.2 
L 198.401875 166.95 
" style="fill:none;stroke:#000000;stroke-linecap:square;stroke-linejoin:miter;stroke-width:0.8;"/>
   </g>
   <g id="patch_19">
    <path d="M 344.526875 311.2 
L 344.526875 166.95 
" style="fill:none;stroke:#000000;stroke-linecap:square;stroke-linejoin:miter;stroke-width:0.8;"/>
   </g>
   <g id="patch_20">
    <path d="M 198.401875 311.2 
L 344.526875 311.2 
" style="fill:none;stroke:#000000;stroke-linecap:square;stroke-linejoin:miter;stroke-width:0.8;"/>
   </g>
   <g id="patch_21">
    <path d="M 198.401875 166.95 
L 344.526875 166.95 
" style="fill:none;stroke:#000000;stroke-linecap:square;stroke-linejoin:miter;stroke-width:0.8;"/>
   </g>
  </g>
 </g>
 <defs>
  <clipPath id="pb992ba1e4d">
   <rect height="144.25" width="146.125" x="36.464375" y="7.2"/>
  </clipPath>
  <clipPath id="p6de8120ba5">
   <rect height="144.25" width="146.125" x="198.401875" y="7.2"/>
  </clipPath>
  <clipPath id="p334666101e">
   <rect height="144.25" width="146.125" x="36.464375" y="166.95"/>
  </clipPath>
  <clipPath id="ped53e953ef">
   <rect height="144.25" width="146.125" x="198.401875" y="166.95"/>
  </clipPath>
 </defs>
</svg>
