<?xml version="1.0" encoding="utf-8" standalone="no"?>
<!DOCTYPE svg PUBLIC "-//W3C//DTD SVG 1.1//EN"
  "http://www.w3.org/Graphics/SVG/1.1/DTD/svg11.dtd">
<svg height="356.49875pt" version="1.1" viewBox="0 0 360.541875 356.49875" width="360.541875pt" xmlns="http://www.w3.org/2000/svg" xmlns:xlink="http://www.w3.org/1999/xlink">
 <metadata>
  <rdf:RDF xmlns:cc="http://creativecommons.org/ns#" xmlns:dc="http://purl.org/dc/elements/1.1/" xmlns:rdf="http://www.w3.org/1999/02/22-rdf-syntax-ns#">
   <cc:Work>
    <dc:type rdf:resource="http://purl.org/dc/dcmitype/StillImage"/>
    <dc:date>2022-04-13T09:00:34.618348</dc:date>
    <dc:format>image/svg+xml</dc:format>
    <dc:creator>
     <cc:Agent>
      <dc:title>Matplotlib v3.4.3, https://matplotlib.org/</dc:title>
     </cc:Agent>
    </dc:creator>
   </cc:Work>
  </rdf:RDF>
 </metadata>
 <defs>
  <style type="text/css">*{stroke-linecap:butt;stroke-linejoin:round;}</style>
 </defs>
 <g id="figure_1">
  <g id="patch_1">
   <path d="M -0 356.49875 
L 360.541875 356.49875 
L 360.541875 0 
L -0 0 
z
" style="fill:none;"/>
  </g>
  <g id="axes_1">
   <g id="patch_2">
    <path d="M 45.371875 151.45 
L 186.996875 151.45 
L 186.996875 7.2 
L 45.371875 7.2 
z
" style="fill:#ffffff;"/>
   </g>
   <g id="matplotlib.axis_1">
    <g id="xtick_1">
     <g id="line2d_1">
      <defs>
       <path d="M 0 0 
L 0 3.5 
" id="m36a39be87f" style="stroke:#000000;stroke-width:0.8;"/>
      </defs>
      <g>
       <use style="stroke:#000000;stroke-width:0.8;" x="45.371875" xlink:href="#m36a39be87f" y="151.45"/>
      </g>
     </g>
    </g>
    <g id="xtick_2">
     <g id="line2d_2">
      <g>
       <use style="stroke:#000000;stroke-width:0.8;" x="116.184375" xlink:href="#m36a39be87f" y="151.45"/>
      </g>
     </g>
    </g>
    <g id="xtick_3">
     <g id="line2d_3">
      <g>
       <use style="stroke:#000000;stroke-width:0.8;" x="186.996875" xlink:href="#m36a39be87f" y="151.45"/>
      </g>
     </g>
    </g>
   </g>
   <g id="matplotlib.axis_2">
    <g id="ytick_1">
     <g id="line2d_4">
      <defs>
       <path d="M 0 0 
L -3.5 0 
" id="m16ae6646d7" style="stroke:#000000;stroke-width:0.8;"/>
      </defs>
      <g>
       <use style="stroke:#000000;stroke-width:0.8;" x="45.371875" xlink:href="#m16ae6646d7" y="151.45"/>
      </g>
     </g>
     <g id="text_1">
      <!-- 0.00 -->
      <g transform="translate(7.2 156.768906)scale(0.14 -0.14)">
       <defs>
        <path d="M 2034 4250 
Q 1547 4250 1301 3770 
Q 1056 3291 1056 2328 
Q 1056 1369 1301 889 
Q 1547 409 2034 409 
Q 2525 409 2770 889 
Q 3016 1369 3016 2328 
Q 3016 3291 2770 3770 
Q 2525 4250 2034 4250 
z
M 2034 4750 
Q 2819 4750 3233 4129 
Q 3647 3509 3647 2328 
Q 3647 1150 3233 529 
Q 2819 -91 2034 -91 
Q 1250 -91 836 529 
Q 422 1150 422 2328 
Q 422 3509 836 4129 
Q 1250 4750 2034 4750 
z
" id="DejaVuSans-30" transform="scale(0.015625)"/>
        <path d="M 684 794 
L 1344 794 
L 1344 0 
L 684 0 
L 684 794 
z
" id="DejaVuSans-2e" transform="scale(0.015625)"/>
       </defs>
       <use xlink:href="#DejaVuSans-30"/>
       <use x="63.623047" xlink:href="#DejaVuSans-2e"/>
       <use x="95.410156" xlink:href="#DejaVuSans-30"/>
       <use x="159.033203" xlink:href="#DejaVuSans-30"/>
      </g>
     </g>
    </g>
    <g id="ytick_2">
     <g id="line2d_5">
      <g>
       <use style="stroke:#000000;stroke-width:0.8;" x="45.371875" xlink:href="#m16ae6646d7" y="117.104762"/>
      </g>
     </g>
     <g id="text_2">
      <!-- 0.25 -->
      <g transform="translate(7.2 122.423668)scale(0.14 -0.14)">
       <defs>
        <path d="M 1228 531 
L 3431 531 
L 3431 0 
L 469 0 
L 469 531 
Q 828 903 1448 1529 
Q 2069 2156 2228 2338 
Q 2531 2678 2651 2914 
Q 2772 3150 2772 3378 
Q 2772 3750 2511 3984 
Q 2250 4219 1831 4219 
Q 1534 4219 1204 4116 
Q 875 4013 500 3803 
L 500 4441 
Q 881 4594 1212 4672 
Q 1544 4750 1819 4750 
Q 2544 4750 2975 4387 
Q 3406 4025 3406 3419 
Q 3406 3131 3298 2873 
Q 3191 2616 2906 2266 
Q 2828 2175 2409 1742 
Q 1991 1309 1228 531 
z
" id="DejaVuSans-32" transform="scale(0.015625)"/>
        <path d="M 691 4666 
L 3169 4666 
L 3169 4134 
L 1269 4134 
L 1269 2991 
Q 1406 3038 1543 3061 
Q 1681 3084 1819 3084 
Q 2600 3084 3056 2656 
Q 3513 2228 3513 1497 
Q 3513 744 3044 326 
Q 2575 -91 1722 -91 
Q 1428 -91 1123 -41 
Q 819 9 494 109 
L 494 744 
Q 775 591 1075 516 
Q 1375 441 1709 441 
Q 2250 441 2565 725 
Q 2881 1009 2881 1497 
Q 2881 1984 2565 2268 
Q 2250 2553 1709 2553 
Q 1456 2553 1204 2497 
Q 953 2441 691 2322 
L 691 4666 
z
" id="DejaVuSans-35" transform="scale(0.015625)"/>
       </defs>
       <use xlink:href="#DejaVuSans-30"/>
       <use x="63.623047" xlink:href="#DejaVuSans-2e"/>
       <use x="95.410156" xlink:href="#DejaVuSans-32"/>
       <use x="159.033203" xlink:href="#DejaVuSans-35"/>
      </g>
     </g>
    </g>
    <g id="ytick_3">
     <g id="line2d_6">
      <g>
       <use style="stroke:#000000;stroke-width:0.8;" x="45.371875" xlink:href="#m16ae6646d7" y="82.759524"/>
      </g>
     </g>
     <g id="text_3">
      <!-- 0.50 -->
      <g transform="translate(7.2 88.07843)scale(0.14 -0.14)">
       <use xlink:href="#DejaVuSans-30"/>
       <use x="63.623047" xlink:href="#DejaVuSans-2e"/>
       <use x="95.410156" xlink:href="#DejaVuSans-35"/>
       <use x="159.033203" xlink:href="#DejaVuSans-30"/>
      </g>
     </g>
    </g>
    <g id="ytick_4">
     <g id="line2d_7">
      <g>
       <use style="stroke:#000000;stroke-width:0.8;" x="45.371875" xlink:href="#m16ae6646d7" y="48.414286"/>
      </g>
     </g>
     <g id="text_4">
      <!-- 0.75 -->
      <g transform="translate(7.2 53.733192)scale(0.14 -0.14)">
       <defs>
        <path d="M 525 4666 
L 3525 4666 
L 3525 4397 
L 1831 0 
L 1172 0 
L 2766 4134 
L 525 4134 
L 525 4666 
z
" id="DejaVuSans-37" transform="scale(0.015625)"/>
       </defs>
       <use xlink:href="#DejaVuSans-30"/>
       <use x="63.623047" xlink:href="#DejaVuSans-2e"/>
       <use x="95.410156" xlink:href="#DejaVuSans-37"/>
       <use x="159.033203" xlink:href="#DejaVuSans-35"/>
      </g>
     </g>
    </g>
    <g id="ytick_5">
     <g id="line2d_8">
      <g>
       <use style="stroke:#000000;stroke-width:0.8;" x="45.371875" xlink:href="#m16ae6646d7" y="14.069048"/>
      </g>
     </g>
     <g id="text_5">
      <!-- 1.00 -->
      <g transform="translate(7.2 19.387954)scale(0.14 -0.14)">
       <defs>
        <path d="M 794 531 
L 1825 531 
L 1825 4091 
L 703 3866 
L 703 4441 
L 1819 4666 
L 2450 4666 
L 2450 531 
L 3481 531 
L 3481 0 
L 794 0 
L 794 531 
z
" id="DejaVuSans-31" transform="scale(0.015625)"/>
       </defs>
       <use xlink:href="#DejaVuSans-31"/>
       <use x="63.623047" xlink:href="#DejaVuSans-2e"/>
       <use x="95.410156" xlink:href="#DejaVuSans-30"/>
       <use x="159.033203" xlink:href="#DejaVuSans-30"/>
      </g>
     </g>
    </g>
   </g>
   <g id="line2d_9">
    <path clip-path="url(#p6357ed849a)" d="M 43.074301 15.221195 
L 45.371875 14.069048 
L 47.669449 15.221195 
L 49.967023 18.619987 
L 52.264597 24.097248 
L 54.562171 31.388076 
L 56.859745 40.152065 
L 59.157319 49.9996 
L 61.454892 60.520402 
L 63.752466 71.311424 
L 66.05004 82.001508 
L 68.347614 92.270831 
L 70.645188 101.863923 
L 72.942762 110.595915 
L 75.240336 118.352433 
L 77.53791 125.084166 
L 79.835484 130.79754 
L 82.133058 135.54305 
L 84.430632 139.402779 
L 86.728206 142.478363 
L 89.02578 144.880363 
L 91.323353 146.719622 
L 93.620927 148.100845 
L 95.918501 149.118371 
L 98.216075 149.853869 
L 100.513649 150.375609 
L 102.811223 150.738883 
L 105.108797 150.987188 
L 107.406371 151.153822 
L 109.703945 151.263626 
L 112.001519 151.33468 
L 114.299093 151.379837 
L 116.596667 151.408025 
L 118.894241 151.425307 
L 121.191814 151.435717 
L 123.489388 151.441876 
L 125.786962 151.445456 
L 128.084536 151.447501 
L 130.38211 151.448649 
L 132.679684 151.449282 
L 134.977258 151.449624 
L 137.274832 151.449807 
L 139.572406 151.449902 
L 141.86998 151.449951 
L 144.167554 151.449976 
L 146.465128 151.449989 
L 148.762702 151.449995 
L 151.060276 151.449997 
L 153.357849 151.449999 
L 155.655423 151.449999 
L 157.952997 151.45 
L 160.250571 151.45 
L 162.548145 151.45 
L 164.845719 151.45 
L 167.143293 151.45 
L 169.440867 151.45 
L 171.738441 151.45 
L 174.036015 151.45 
L 176.333589 151.45 
L 178.631163 151.45 
L 180.928737 151.45 
L 183.22631 151.45 
L 185.523884 151.45 
L 187.821458 151.45 
" style="fill:none;stroke:#ff0000;stroke-dasharray:5.55,2.4;stroke-dashoffset:0;stroke-width:1.5;"/>
   </g>
   <g id="line2d_10">
    <path clip-path="url(#p6357ed849a)" d="M 43.074301 16.833013 
L 45.371875 14.080544 
L 47.669449 14.069048 
L 49.967023 16.799659 
L 52.264597 22.128089 
L 54.562171 29.775935 
L 56.859745 39.352329 
L 59.157319 50.383814 
L 61.454892 62.349557 
L 63.752466 74.718567 
L 66.05004 86.985544 
L 68.347614 98.702222 
L 70.645188 109.501737 
L 72.942762 119.114366 
L 75.240336 127.373955 
L 77.53791 134.215351 
L 79.835484 139.664014 
L 82.133058 143.819639 
L 84.430632 146.836081 
L 86.728206 148.899931 
L 89.02578 150.209978 
L 91.323353 150.959402 
L 93.620927 151.321963 
L 95.918501 151.442879 
L 98.216075 151.434411 
L 100.513649 151.375694 
L 102.811223 151.315919 
L 105.108797 151.279777 
L 107.406371 151.274007 
L 109.703945 151.294009 
L 112.001519 151.329682 
L 114.299093 151.369966 
L 116.596667 151.405834 
L 118.894241 151.431775 
L 121.191814 151.446016 
L 123.489388 151.449851 
L 125.786962 151.446485 
L 128.084536 151.439785 
L 130.38211 151.433218 
L 132.679684 151.429156 
L 134.977258 151.428609 
L 137.274832 151.431329 
L 139.572406 151.436184 
L 141.86998 151.441651 
L 144.167554 151.446291 
L 146.465128 151.449106 
L 148.762702 151.449712 
L 151.060276 151.448337 
L 153.357849 151.44566 
L 155.655423 151.442582 
L 157.952997 151.439969 
L 160.250571 151.438455 
L 162.548145 151.438325 
L 164.845719 151.439499 
L 167.143293 151.441611 
L 169.440867 151.444135 
L 171.738441 151.446535 
L 174.036015 151.448394 
L 176.333589 151.449488 
L 178.631163 151.449813 
L 180.928737 151.449543 
L 183.22631 151.448963 
L 185.523884 151.44837 
L 187.821458 151.448 
" style="fill:none;stroke:#ff0000;stroke-linecap:square;stroke-width:1.5;"/>
   </g>
   <g id="patch_3">
    <path d="M 45.371875 151.45 
L 45.371875 7.2 
" style="fill:none;stroke:#000000;stroke-linecap:square;stroke-linejoin:miter;stroke-width:0.8;"/>
   </g>
   <g id="patch_4">
    <path d="M 186.996875 151.45 
L 186.996875 7.2 
" style="fill:none;stroke:#000000;stroke-linecap:square;stroke-linejoin:miter;stroke-width:0.8;"/>
   </g>
   <g id="patch_5">
    <path d="M 45.371875 151.45 
L 186.996875 151.45 
" style="fill:none;stroke:#000000;stroke-linecap:square;stroke-linejoin:miter;stroke-width:0.8;"/>
   </g>
   <g id="patch_6">
    <path d="M 45.371875 7.2 
L 186.996875 7.2 
" style="fill:none;stroke:#000000;stroke-linecap:square;stroke-linejoin:miter;stroke-width:0.8;"/>
   </g>
  </g>
  <g id="axes_2">
   <g id="patch_7">
    <path d="M 202.809375 151.45 
L 344.434375 151.45 
L 344.434375 7.2 
L 202.809375 7.2 
z
" style="fill:#ffffff;"/>
   </g>
   <g id="matplotlib.axis_3">
    <g id="xtick_4">
     <g id="line2d_11">
      <g>
       <use style="stroke:#000000;stroke-width:0.8;" x="202.809375" xlink:href="#m36a39be87f" y="151.45"/>
      </g>
     </g>
    </g>
    <g id="xtick_5">
     <g id="line2d_12">
      <g>
       <use style="stroke:#000000;stroke-width:0.8;" x="273.621875" xlink:href="#m36a39be87f" y="151.45"/>
      </g>
     </g>
    </g>
    <g id="xtick_6">
     <g id="line2d_13">
      <g>
       <use style="stroke:#000000;stroke-width:0.8;" x="344.434375" xlink:href="#m36a39be87f" y="151.45"/>
      </g>
     </g>
    </g>
   </g>
   <g id="matplotlib.axis_4">
    <g id="ytick_6">
     <g id="line2d_14">
      <g>
       <use style="stroke:#000000;stroke-width:0.8;" x="202.809375" xlink:href="#m16ae6646d7" y="151.45"/>
      </g>
     </g>
    </g>
    <g id="ytick_7">
     <g id="line2d_15">
      <g>
       <use style="stroke:#000000;stroke-width:0.8;" x="202.809375" xlink:href="#m16ae6646d7" y="117.104762"/>
      </g>
     </g>
    </g>
    <g id="ytick_8">
     <g id="line2d_16">
      <g>
       <use style="stroke:#000000;stroke-width:0.8;" x="202.809375" xlink:href="#m16ae6646d7" y="82.759524"/>
      </g>
     </g>
    </g>
    <g id="ytick_9">
     <g id="line2d_17">
      <g>
       <use style="stroke:#000000;stroke-width:0.8;" x="202.809375" xlink:href="#m16ae6646d7" y="48.414286"/>
      </g>
     </g>
    </g>
    <g id="ytick_10">
     <g id="line2d_18">
      <g>
       <use style="stroke:#000000;stroke-width:0.8;" x="202.809375" xlink:href="#m16ae6646d7" y="14.069048"/>
      </g>
     </g>
    </g>
   </g>
   <g id="line2d_19">
    <path clip-path="url(#pe4eb30553f)" d="M 202.809375 14.080544 
L 205.738465 18.804443 
L 208.667555 32.069045 
L 211.596645 51.404647 
L 214.525735 73.437196 
L 217.454826 94.749316 
L 220.383916 112.675238 
L 223.313006 125.799858 
L 226.242096 134.045661 
L 229.171186 138.375993 
L 232.100276 140.264813 
L 235.029366 141.139802 
L 237.958456 141.982821 
L 240.887546 143.186303 
L 243.816637 144.655392 
L 246.745727 146.057879 
L 249.674817 147.088414 
L 252.603907 147.636554 
L 255.532997 147.811829 
L 258.462087 147.85037 
L 261.391177 147.975193 
L 264.320267 148.288915 
L 267.249357 148.746938 
L 270.178447 149.210953 
L 273.107538 149.542311 
L 276.036628 149.680689 
L 278.965718 149.668852 
L 281.894808 149.617719 
L 284.823898 149.638119 
L 287.752988 149.780201 
L 290.682078 150.012784 
L 293.611168 150.249879 
L 296.540258 150.405222 
L 299.469349 150.441968 
L 302.398439 150.390262 
L 305.327529 150.325387 
L 308.256619 150.321774 
L 311.185709 150.410588 
L 314.114799 150.564743 
L 317.043889 150.718225 
L 319.972979 150.806719 
L 322.902069 150.805119 
L 325.83116 150.740509 
L 328.76025 150.67427 
L 331.68934 150.664954 
L 334.61843 150.734212 
L 337.54752 150.855436 
L 340.47661 150.970978 
L 343.4057 151.027046 
L 346.33479 151.005418 
L 349.26388 150.933491 
L 352.19297 150.867265 
L 355.122061 150.857759 
L 358.051151 150.92089 
L 360.980241 151.028483 
L 361.541875 151.047077 
" style="fill:none;stroke:#ff0000;stroke-linecap:square;stroke-width:1.5;"/>
   </g>
   <g id="line2d_20">
    <path clip-path="url(#pe4eb30553f)" d="M 202.809375 14.069048 
L 205.738465 19.704408 
L 208.667555 34.1405 
L 211.596645 52.255907 
L 214.525735 69.888899 
L 217.454826 85.061998 
L 220.383916 97.360549 
L 223.313006 107.075645 
L 226.242096 114.693265 
L 229.171186 120.679797 
L 232.100276 125.418341 
L 235.029366 129.204676 
L 237.958456 132.261477 
L 240.887546 134.755068 
L 243.816637 136.809798 
L 246.745727 138.519149 
L 249.674817 139.953964 
L 252.603907 141.168418 
L 255.532997 142.204336 
L 258.462087 143.094317 
L 261.391177 143.864011 
L 264.320267 144.533778 
L 267.249357 145.119924 
L 270.178447 145.635609 
L 273.107538 146.091542 
L 276.036628 146.496498 
L 278.965718 146.857716 
L 281.894808 147.181212 
L 284.823898 147.472009 
L 287.752988 147.734331 
L 290.682078 147.971747 
L 293.611168 148.187287 
L 296.540258 148.38354 
L 299.469349 148.562724 
L 302.398439 148.726749 
L 305.327529 148.877267 
L 308.256619 149.015714 
L 311.185709 149.14334 
L 314.114799 149.261237 
L 317.043889 149.370365 
L 319.972979 149.471568 
L 322.902069 149.565592 
L 325.83116 149.653098 
L 328.76025 149.734672 
L 331.68934 149.810835 
L 334.61843 149.882055 
L 337.54752 149.948749 
L 340.47661 150.011291 
L 343.4057 150.070016 
L 346.33479 150.12523 
L 349.26388 150.177205 
L 352.19297 150.226189 
L 355.122061 150.272406 
L 358.051151 150.316061 
L 360.980241 150.357339 
L 361.541875 150.36483 
" style="fill:none;stroke:#ff0000;stroke-dasharray:5.55,2.4;stroke-dashoffset:0;stroke-width:1.5;"/>
   </g>
   <g id="patch_8">
    <path d="M 202.809375 151.45 
L 202.809375 7.2 
" style="fill:none;stroke:#000000;stroke-linecap:square;stroke-linejoin:miter;stroke-width:0.8;"/>
   </g>
   <g id="patch_9">
    <path d="M 344.434375 151.45 
L 344.434375 7.2 
" style="fill:none;stroke:#000000;stroke-linecap:square;stroke-linejoin:miter;stroke-width:0.8;"/>
   </g>
   <g id="patch_10">
    <path d="M 202.809375 151.45 
L 344.434375 151.45 
" style="fill:none;stroke:#000000;stroke-linecap:square;stroke-linejoin:miter;stroke-width:0.8;"/>
   </g>
   <g id="patch_11">
    <path d="M 202.809375 7.2 
L 344.434375 7.2 
" style="fill:none;stroke:#000000;stroke-linecap:square;stroke-linejoin:miter;stroke-width:0.8;"/>
   </g>
  </g>
  <g id="axes_3">
   <g id="patch_12">
    <path d="M 45.371875 311.2 
L 186.996875 311.2 
L 186.996875 166.95 
L 45.371875 166.95 
z
" style="fill:#ffffff;"/>
   </g>
   <g id="matplotlib.axis_5">
    <g id="xtick_7">
     <g id="line2d_21">
      <g>
       <use style="stroke:#000000;stroke-width:0.8;" x="45.371875" xlink:href="#m36a39be87f" y="311.2"/>
      </g>
     </g>
     <g id="text_6">
      <!-- 0 -->
      <g transform="translate(40.918125 328.837812)scale(0.14 -0.14)">
       <use xlink:href="#DejaVuSans-30"/>
      </g>
     </g>
    </g>
    <g id="xtick_8">
     <g id="line2d_22">
      <g>
       <use style="stroke:#000000;stroke-width:0.8;" x="116.184375" xlink:href="#m36a39be87f" y="311.2"/>
      </g>
     </g>
     <g id="text_7">
      <!-- 2 -->
      <g transform="translate(111.730625 328.837812)scale(0.14 -0.14)">
       <use xlink:href="#DejaVuSans-32"/>
      </g>
     </g>
    </g>
    <g id="xtick_9">
     <g id="line2d_23">
      <g>
       <use style="stroke:#000000;stroke-width:0.8;" x="186.996875" xlink:href="#m36a39be87f" y="311.2"/>
      </g>
     </g>
     <g id="text_8">
      <!-- 4 -->
      <g transform="translate(182.543125 328.837812)scale(0.14 -0.14)">
       <defs>
        <path d="M 2419 4116 
L 825 1625 
L 2419 1625 
L 2419 4116 
z
M 2253 4666 
L 3047 4666 
L 3047 1625 
L 3713 1625 
L 3713 1100 
L 3047 1100 
L 3047 0 
L 2419 0 
L 2419 1100 
L 313 1100 
L 313 1709 
L 2253 4666 
z
" id="DejaVuSans-34" transform="scale(0.015625)"/>
       </defs>
       <use xlink:href="#DejaVuSans-34"/>
      </g>
     </g>
    </g>
    <g id="text_9">
     <!-- $\rho_2/w_0$ -->
     <g transform="translate(97.004375 346.35875)scale(0.14 -0.14)">
      <defs>
       <path d="M 1203 2875 
Q 1453 3194 1981 3475 
Q 2188 3584 2756 3584 
Q 3394 3584 3694 3078 
Q 3994 2572 3834 1747 
Q 3672 922 3175 415 
Q 2678 -91 2041 -91 
Q 1656 -91 1409 63 
Q 1163 213 1044 525 
L 681 -1331 
L 103 -1331 
L 697 1716 
Q 838 2438 1203 2875 
z
M 3238 1747 
Q 3359 2381 3169 2744 
Q 2978 3103 2522 3103 
Q 2066 3103 1734 2744 
Q 1403 2381 1281 1747 
Q 1156 1113 1347 750 
Q 1538 391 1994 391 
Q 2450 391 2781 750 
Q 3113 1113 3238 1747 
z
" id="DejaVuSans-Oblique-3c1" transform="scale(0.015625)"/>
       <path d="M 1625 4666 
L 2156 4666 
L 531 -594 
L 0 -594 
L 1625 4666 
z
" id="DejaVuSans-2f" transform="scale(0.015625)"/>
       <path d="M 544 3500 
L 1113 3500 
L 1259 684 
L 2566 3500 
L 3231 3500 
L 3425 684 
L 4666 3500 
L 5241 3500 
L 3641 0 
L 2969 0 
L 2797 2900 
L 1459 0 
L 781 0 
L 544 3500 
z
" id="DejaVuSans-Oblique-77" transform="scale(0.015625)"/>
      </defs>
      <use transform="translate(0 0.09375)" xlink:href="#DejaVuSans-Oblique-3c1"/>
      <use transform="translate(63.476562 -16.3125)scale(0.7)" xlink:href="#DejaVuSans-32"/>
      <use transform="translate(110.74707 0.09375)" xlink:href="#DejaVuSans-2f"/>
      <use transform="translate(144.438477 0.09375)" xlink:href="#DejaVuSans-Oblique-77"/>
      <use transform="translate(226.225586 -16.3125)scale(0.7)" xlink:href="#DejaVuSans-30"/>
     </g>
    </g>
   </g>
   <g id="matplotlib.axis_6">
    <g id="ytick_11">
     <g id="line2d_24">
      <g>
       <use style="stroke:#000000;stroke-width:0.8;" x="45.371875" xlink:href="#m16ae6646d7" y="311.2"/>
      </g>
     </g>
     <g id="text_10">
      <!-- 0.00 -->
      <g transform="translate(7.2 316.518906)scale(0.14 -0.14)">
       <use xlink:href="#DejaVuSans-30"/>
       <use x="63.623047" xlink:href="#DejaVuSans-2e"/>
       <use x="95.410156" xlink:href="#DejaVuSans-30"/>
       <use x="159.033203" xlink:href="#DejaVuSans-30"/>
      </g>
     </g>
    </g>
    <g id="ytick_12">
     <g id="line2d_25">
      <g>
       <use style="stroke:#000000;stroke-width:0.8;" x="45.371875" xlink:href="#m16ae6646d7" y="285.441071"/>
      </g>
     </g>
     <g id="text_11">
      <!-- 0.25 -->
      <g transform="translate(7.2 290.759978)scale(0.14 -0.14)">
       <use xlink:href="#DejaVuSans-30"/>
       <use x="63.623047" xlink:href="#DejaVuSans-2e"/>
       <use x="95.410156" xlink:href="#DejaVuSans-32"/>
       <use x="159.033203" xlink:href="#DejaVuSans-35"/>
      </g>
     </g>
    </g>
    <g id="ytick_13">
     <g id="line2d_26">
      <g>
       <use style="stroke:#000000;stroke-width:0.8;" x="45.371875" xlink:href="#m16ae6646d7" y="259.682143"/>
      </g>
     </g>
     <g id="text_12">
      <!-- 0.50 -->
      <g transform="translate(7.2 265.001049)scale(0.14 -0.14)">
       <use xlink:href="#DejaVuSans-30"/>
       <use x="63.623047" xlink:href="#DejaVuSans-2e"/>
       <use x="95.410156" xlink:href="#DejaVuSans-35"/>
       <use x="159.033203" xlink:href="#DejaVuSans-30"/>
      </g>
     </g>
    </g>
    <g id="ytick_14">
     <g id="line2d_27">
      <g>
       <use style="stroke:#000000;stroke-width:0.8;" x="45.371875" xlink:href="#m16ae6646d7" y="233.923214"/>
      </g>
     </g>
     <g id="text_13">
      <!-- 0.75 -->
      <g transform="translate(7.2 239.242121)scale(0.14 -0.14)">
       <use xlink:href="#DejaVuSans-30"/>
       <use x="63.623047" xlink:href="#DejaVuSans-2e"/>
       <use x="95.410156" xlink:href="#DejaVuSans-37"/>
       <use x="159.033203" xlink:href="#DejaVuSans-35"/>
      </g>
     </g>
    </g>
    <g id="ytick_15">
     <g id="line2d_28">
      <g>
       <use style="stroke:#000000;stroke-width:0.8;" x="45.371875" xlink:href="#m16ae6646d7" y="208.164286"/>
      </g>
     </g>
     <g id="text_14">
      <!-- 1.00 -->
      <g transform="translate(7.2 213.483192)scale(0.14 -0.14)">
       <use xlink:href="#DejaVuSans-31"/>
       <use x="63.623047" xlink:href="#DejaVuSans-2e"/>
       <use x="95.410156" xlink:href="#DejaVuSans-30"/>
       <use x="159.033203" xlink:href="#DejaVuSans-30"/>
      </g>
     </g>
    </g>
    <g id="ytick_16">
     <g id="line2d_29">
      <g>
       <use style="stroke:#000000;stroke-width:0.8;" x="45.371875" xlink:href="#m16ae6646d7" y="182.405357"/>
      </g>
     </g>
     <g id="text_15">
      <!-- 1.25 -->
      <g transform="translate(7.2 187.724263)scale(0.14 -0.14)">
       <use xlink:href="#DejaVuSans-31"/>
       <use x="63.623047" xlink:href="#DejaVuSans-2e"/>
       <use x="95.410156" xlink:href="#DejaVuSans-32"/>
       <use x="159.033203" xlink:href="#DejaVuSans-35"/>
      </g>
     </g>
    </g>
   </g>
   <g id="line2d_30">
    <path clip-path="url(#pb18a9d57b2)" d="M 43.074301 311.198175 
L 45.371875 311.199994 
L 47.669449 311.198175 
L 49.967023 311.171249 
L 52.264597 311.057491 
L 54.562171 310.762584 
L 56.859745 310.171251 
L 59.157319 309.161329 
L 61.454892 307.618472 
L 63.752466 305.449697 
L 66.05004 302.59421 
L 68.347614 299.03043 
L 70.645188 294.778647 
L 72.942762 289.899384 
L 75.240336 284.488006 
L 77.53791 278.666528 
L 79.835484 272.573771 
L 82.133058 266.355055 
L 84.430632 260.152491 
L 86.728206 254.096714 
L 89.02578 248.300589 
L 91.323353 242.855146 
L 93.620927 237.827687 
L 95.918501 233.261853 
L 98.216075 229.179245 
L 100.513649 225.582158 
L 102.811223 222.456986 
L 105.108797 219.777885 
L 107.406371 217.510371 
L 109.703945 215.614609 
L 112.001519 214.048242 
L 114.299093 212.768686 
L 116.596667 211.734874 
L 118.894241 210.908497 
L 121.191814 210.254773 
L 123.489388 209.742861 
L 125.786962 209.34597 
L 128.084536 209.041248 
L 130.38211 208.809531 
L 132.679684 208.634992 
L 134.977258 208.50475 
L 137.274832 208.408459 
L 139.572406 208.337922 
L 141.86998 208.286721 
L 144.167554 208.24989 
L 146.465128 208.223636 
L 148.762702 208.205087 
L 151.060276 208.1921 
L 153.357849 208.183088 
L 155.655423 208.176889 
L 157.952997 208.172663 
L 160.250571 208.169807 
L 162.548145 208.167894 
L 164.845719 208.166624 
L 167.143293 208.165789 
L 169.440867 208.165244 
L 171.738441 208.164891 
L 174.036015 208.164665 
L 176.333589 208.164521 
L 178.631163 208.164431 
L 180.928737 208.164374 
L 183.22631 208.164339 
L 185.523884 208.164318 
L 187.821458 208.164305 
" style="fill:none;stroke:#0000ff;stroke-dasharray:5.55,2.4;stroke-dashoffset:0;stroke-width:1.5;"/>
   </g>
   <g id="line2d_31">
    <path clip-path="url(#pb18a9d57b2)" d="M 43.074301 311.171357 
L 45.371875 311.195438 
L 47.669449 311.195438 
L 49.967023 311.171357 
L 52.264597 311.06293 
L 54.562171 310.756771 
L 56.859745 310.099849 
L 59.157319 308.917737 
L 61.454892 307.035589 
L 63.752466 304.299471 
L 66.05004 300.59572 
L 68.347614 295.866246 
L 70.645188 290.118229 
L 72.942762 283.427314 
L 75.240336 275.934154 
L 77.53791 267.834892 
L 79.835484 259.366773 
L 82.133058 250.790534 
L 84.430632 242.371451 
L 86.728206 234.360925 
L 89.02578 226.980277 
L 91.323353 220.408064 
L 93.620927 214.771737 
L 95.918501 210.143939 
L 98.216075 206.543261 
L 100.513649 203.938849 
L 102.811223 202.257977 
L 105.108797 201.395527 
L 107.406371 201.224319 
L 109.703945 201.605329 
L 112.001519 202.397009 
L 114.299093 203.463175 
L 116.596667 204.67916 
L 118.894241 205.936156 
L 121.191814 207.143856 
L 123.489388 208.231602 
L 125.786962 209.14835 
L 128.084536 209.86171 
L 130.38211 210.356362 
L 132.679684 210.632035 
L 134.977258 210.70122 
L 137.274832 210.586731 
L 139.572406 210.319184 
L 141.86998 209.934454 
L 144.167554 209.471173 
L 146.465128 208.968336 
L 148.762702 208.463085 
L 151.060276 207.988765 
L 153.357849 207.573333 
L 155.655423 207.238191 
L 157.952997 206.997496 
L 160.250571 206.857958 
L 162.548145 206.819123 
L 164.845719 206.874072 
L 167.143293 207.010472 
L 169.440867 207.211873 
L 171.738441 207.459141 
L 174.036015 207.731926 
L 176.333589 208.010056 
L 178.631163 208.274791 
L 180.928737 208.509858 
L 183.22631 208.702249 
L 185.523884 208.842738 
L 187.821458 208.92614 
" style="fill:none;stroke:#0000ff;stroke-linecap:square;stroke-width:1.5;"/>
   </g>
   <g id="line2d_32">
    <path clip-path="url(#pb18a9d57b2)" d="M 43.074301 310.773561 
L 45.371875 310.840505 
L 47.669449 310.840506 
L 49.967023 310.773564 
L 52.264597 310.623507 
L 54.562171 310.358985 
L 56.859745 309.935397 
L 59.157319 309.297647 
L 61.454892 308.383576 
L 63.752466 307.127866 
L 66.05004 305.46622 
L 68.347614 303.339563 
L 70.645188 300.698044 
L 72.942762 297.504627 
L 75.240336 293.738067 
L 77.53791 289.395117 
L 79.835484 284.491859 
L 82.133058 279.064089 
L 84.430632 273.166748 
L 86.728206 266.872432 
L 89.02578 260.269087 
L 91.323353 253.456992 
L 93.620927 246.545208 
L 95.918501 239.647684 
L 98.216075 232.879192 
L 100.513649 226.351315 
L 102.811223 220.168658 
L 105.108797 214.425456 
L 107.406371 209.202711 
L 109.703945 204.565973 
L 112.001519 200.56382 
L 114.299093 197.227072 
L 116.596667 194.568722 
L 118.894241 192.584543 
L 121.191814 191.254292 
L 123.489388 190.54341 
L 125.786962 190.405105 
L 128.084536 190.78269 
L 130.38211 191.612061 
L 132.679684 192.824176 
L 134.977258 194.347453 
L 137.274832 196.109983 
L 139.572406 198.04149 
L 141.86998 200.074993 
L 144.167554 202.148153 
L 146.465128 204.204282 
L 148.762702 206.193046 
L 151.060276 208.070874 
L 153.357849 209.80113 
L 155.655423 211.354066 
L 157.952997 212.706634 
L 160.250571 213.84217 
L 162.548145 214.750019 
L 164.845719 215.425114 
L 167.143293 215.867539 
L 169.440867 216.082099 
L 171.738441 216.077897 
L 174.036015 215.867919 
L 176.333589 215.468625 
L 178.631163 214.899531 
L 180.928737 214.182784 
L 183.22631 213.342697 
L 185.523884 212.40527 
L 187.821458 211.397652 
" style="fill:none;stroke:#17becf;stroke-linecap:square;stroke-width:1.5;"/>
   </g>
   <g id="patch_13">
    <path d="M 45.371875 311.2 
L 45.371875 166.95 
" style="fill:none;stroke:#000000;stroke-linecap:square;stroke-linejoin:miter;stroke-width:0.8;"/>
   </g>
   <g id="patch_14">
    <path d="M 186.996875 311.2 
L 186.996875 166.95 
" style="fill:none;stroke:#000000;stroke-linecap:square;stroke-linejoin:miter;stroke-width:0.8;"/>
   </g>
   <g id="patch_15">
    <path d="M 45.371875 311.2 
L 186.996875 311.2 
" style="fill:none;stroke:#000000;stroke-linecap:square;stroke-linejoin:miter;stroke-width:0.8;"/>
   </g>
   <g id="patch_16">
    <path d="M 45.371875 166.95 
L 186.996875 166.95 
" style="fill:none;stroke:#000000;stroke-linecap:square;stroke-linejoin:miter;stroke-width:0.8;"/>
   </g>
  </g>
  <g id="axes_4">
   <g id="patch_17">
    <path d="M 202.809375 311.2 
L 344.434375 311.2 
L 344.434375 166.95 
L 202.809375 166.95 
z
" style="fill:#ffffff;"/>
   </g>
   <g id="matplotlib.axis_7">
    <g id="xtick_10">
     <g id="line2d_33">
      <g>
       <use style="stroke:#000000;stroke-width:0.8;" x="202.809375" xlink:href="#m36a39be87f" y="311.2"/>
      </g>
     </g>
     <g id="text_16">
      <!-- 0 -->
      <g transform="translate(198.355625 328.837812)scale(0.14 -0.14)">
       <use xlink:href="#DejaVuSans-30"/>
      </g>
     </g>
    </g>
    <g id="xtick_11">
     <g id="line2d_34">
      <g>
       <use style="stroke:#000000;stroke-width:0.8;" x="273.621875" xlink:href="#m36a39be87f" y="311.2"/>
      </g>
     </g>
     <g id="text_17">
      <!-- 5 -->
      <g transform="translate(269.168125 328.837812)scale(0.14 -0.14)">
       <use xlink:href="#DejaVuSans-35"/>
      </g>
     </g>
    </g>
    <g id="xtick_12">
     <g id="line2d_35">
      <g>
       <use style="stroke:#000000;stroke-width:0.8;" x="344.434375" xlink:href="#m36a39be87f" y="311.2"/>
      </g>
     </g>
     <g id="text_18">
      <!-- 10 -->
      <g transform="translate(335.526875 328.837812)scale(0.14 -0.14)">
       <use xlink:href="#DejaVuSans-31"/>
       <use x="63.623047" xlink:href="#DejaVuSans-30"/>
      </g>
     </g>
    </g>
    <g id="text_19">
     <!-- $z_2/z_R$ -->
     <g transform="translate(256.961875 346.387187)scale(0.14 -0.14)">
      <defs>
       <path d="M 744 3500 
L 3475 3500 
L 3372 2975 
L 738 459 
L 2913 459 
L 2822 0 
L -19 0 
L 84 525 
L 2719 3041 
L 653 3041 
L 744 3500 
z
" id="DejaVuSans-Oblique-7a" transform="scale(0.015625)"/>
       <path d="M 1613 4147 
L 1294 2491 
L 2106 2491 
Q 2584 2491 2879 2755 
Q 3175 3019 3175 3444 
Q 3175 3784 2976 3965 
Q 2778 4147 2406 4147 
L 1613 4147 
z
M 2772 2241 
Q 2972 2194 3105 2009 
Q 3238 1825 3413 1275 
L 3809 0 
L 3144 0 
L 2778 1197 
Q 2638 1659 2453 1815 
Q 2269 1972 1888 1972 
L 1191 1972 
L 806 0 
L 172 0 
L 1081 4666 
L 2503 4666 
Q 3150 4666 3495 4373 
Q 3841 4081 3841 3531 
Q 3841 3044 3547 2687 
Q 3253 2331 2772 2241 
z
" id="DejaVuSans-Oblique-52" transform="scale(0.015625)"/>
      </defs>
      <use transform="translate(0 0.09375)" xlink:href="#DejaVuSans-Oblique-7a"/>
      <use transform="translate(52.490234 -16.3125)scale(0.7)" xlink:href="#DejaVuSans-32"/>
      <use transform="translate(99.760742 0.09375)" xlink:href="#DejaVuSans-2f"/>
      <use transform="translate(133.452148 0.09375)" xlink:href="#DejaVuSans-Oblique-7a"/>
      <use transform="translate(185.942383 -16.3125)scale(0.7)" xlink:href="#DejaVuSans-Oblique-52"/>
     </g>
    </g>
   </g>
   <g id="matplotlib.axis_8">
    <g id="ytick_17">
     <g id="line2d_36">
      <g>
       <use style="stroke:#000000;stroke-width:0.8;" x="202.809375" xlink:href="#m16ae6646d7" y="311.2"/>
      </g>
     </g>
    </g>
    <g id="ytick_18">
     <g id="line2d_37">
      <g>
       <use style="stroke:#000000;stroke-width:0.8;" x="202.809375" xlink:href="#m16ae6646d7" y="285.441071"/>
      </g>
     </g>
    </g>
    <g id="ytick_19">
     <g id="line2d_38">
      <g>
       <use style="stroke:#000000;stroke-width:0.8;" x="202.809375" xlink:href="#m16ae6646d7" y="259.682143"/>
      </g>
     </g>
    </g>
    <g id="ytick_20">
     <g id="line2d_39">
      <g>
       <use style="stroke:#000000;stroke-width:0.8;" x="202.809375" xlink:href="#m16ae6646d7" y="233.923214"/>
      </g>
     </g>
    </g>
    <g id="ytick_21">
     <g id="line2d_40">
      <g>
       <use style="stroke:#000000;stroke-width:0.8;" x="202.809375" xlink:href="#m16ae6646d7" y="208.164286"/>
      </g>
     </g>
    </g>
    <g id="ytick_22">
     <g id="line2d_41">
      <g>
       <use style="stroke:#000000;stroke-width:0.8;" x="202.809375" xlink:href="#m16ae6646d7" y="182.405357"/>
      </g>
     </g>
    </g>
   </g>
   <g id="line2d_42">
    <path clip-path="url(#pb0f49eeb16)" d="M 202.809375 311.195438 
L 205.738465 304.997608 
L 208.667555 288.162071 
L 211.596645 265.308028 
L 214.525735 242.234939 
L 217.454826 223.916114 
L 220.383916 212.977811 
L 223.313006 209.222476 
L 226.242096 210.273372 
L 229.171186 212.937952 
L 232.100276 214.62704 
L 235.029366 214.227459 
L 237.958456 212.150233 
L 240.887546 209.687681 
L 243.816637 208.108137 
L 246.745727 207.969562 
L 249.674817 208.947182 
L 252.603907 210.166615 
L 255.532997 210.77884 
L 258.462087 210.429503 
L 261.391177 209.383475 
L 264.320267 208.28542 
L 267.249357 207.738336 
L 270.178447 207.959186 
L 273.107538 208.696477 
L 276.036628 209.426543 
L 278.965718 209.686188 
L 281.894808 209.336859 
L 284.823898 208.614963 
L 287.752988 207.95927 
L 290.682078 207.735377 
L 293.611168 208.026144 
L 296.540258 208.604743 
L 299.469349 209.091627 
L 302.398439 209.189672 
L 305.327529 208.854008 
L 308.256619 208.301487 
L 311.185709 207.865089 
L 314.114799 207.789125 
L 317.043889 208.089602 
L 319.972979 208.558104 
L 322.902069 208.898349 
L 325.83116 208.907086 
L 328.76025 208.589873 
L 331.68934 208.14678 
L 334.61843 207.843352 
L 337.54752 207.849233 
L 340.47661 208.141741 
L 343.4057 208.528443 
L 346.33479 208.769654 
L 349.26388 208.723433 
L 352.19297 208.425918 
L 355.122061 208.062083 
L 358.051151 207.849083 
L 360.980241 207.9053 
L 361.541875 207.958669 
" style="fill:none;stroke:#0000ff;stroke-linecap:square;stroke-width:1.5;"/>
   </g>
   <g id="line2d_43">
    <path clip-path="url(#pb0f49eeb16)" d="M 205.738465 306.97348 
L 208.667555 296.146411 
L 211.596645 282.559856 
L 214.525735 269.335111 
L 217.454826 257.955287 
L 220.383916 248.731374 
L 223.313006 241.445052 
L 226.242096 235.731837 
L 229.171186 231.241938 
L 232.100276 227.68803 
L 235.029366 224.848279 
L 237.958456 222.555678 
L 240.887546 220.685484 
L 243.816637 219.144438 
L 246.745727 217.862424 
L 249.674817 216.786313 
L 252.603907 215.875472 
L 255.532997 215.098534 
L 258.462087 214.431048 
L 261.391177 213.853778 
L 264.320267 213.351452 
L 267.249357 212.911843 
L 270.178447 212.525079 
L 273.107538 212.183129 
L 276.036628 211.879413 
L 278.965718 211.608498 
L 281.894808 211.365877 
L 284.823898 211.147779 
L 287.752988 210.951037 
L 290.682078 210.772976 
L 293.611168 210.61132 
L 296.540258 210.464131 
L 299.469349 210.329743 
L 302.398439 210.206724 
L 305.327529 210.093835 
L 308.256619 209.99 
L 311.185709 209.894281 
L 314.114799 209.805858 
L 317.043889 209.724012 
L 319.972979 209.64811 
L 322.902069 209.577592 
L 325.83116 209.511962 
L 328.76025 209.450782 
L 331.68934 209.393659 
L 334.61843 209.340244 
L 337.54752 209.290224 
L 340.47661 209.243318 
L 343.4057 209.199273 
L 346.33479 209.157863 
L 349.26388 209.118882 
L 352.19297 209.082144 
L 355.122061 209.047481 
L 358.051151 209.01474 
L 360.980241 208.983781 
L 361.541875 208.978163 
" style="fill:none;stroke:#0000ff;stroke-dasharray:5.55,2.4;stroke-dashoffset:0;stroke-width:1.5;"/>
   </g>
   <g id="line2d_44">
    <path clip-path="url(#pb0f49eeb16)" d="M 202.809375 310.840505 
L 205.738465 308.961148 
L 208.667555 303.443132 
L 211.596645 294.622268 
L 214.525735 283.031333 
L 217.454826 269.362279 
L 220.383916 254.417479 
L 223.313006 239.053743 
L 226.242096 224.123351 
L 229.171186 210.416558 
L 232.100276 198.609831 
L 235.029366 189.223599 
L 237.958456 182.592483 
L 240.887546 178.849967 
L 243.816637 177.928283 
L 246.745727 179.573119 
L 249.674817 183.371577 
L 252.603907 188.790818 
L 255.532997 195.22407 
L 258.462087 202.040154 
L 261.391177 208.632566 
L 264.320267 214.464262 
L 267.249357 219.104779 
L 270.178447 222.257076 
L 273.107538 223.77236 
L 276.036628 223.652229 
L 278.965718 222.03851 
L 281.894808 219.192185 
L 284.823898 215.463616 
L 287.752988 211.25695 
L 290.682078 206.99194 
L 293.611168 203.066505 
L 296.540258 199.823181 
L 299.469349 197.522122 
L 302.398439 196.322674 
L 305.327529 196.274721 
L 308.256619 197.320096 
L 311.185709 199.303491 
L 314.114799 201.991472 
L 317.043889 205.097567 
L 319.972979 208.310941 
L 322.902069 211.325946 
L 325.83116 213.869869 
L 328.76025 215.726462 
L 331.68934 216.753321 
L 334.61843 216.891776 
L 337.54752 216.168709 
L 340.47661 214.69045 
L 343.4057 212.629616 
L 346.33479 210.206356 
L 349.26388 207.665948 
L 352.19297 205.254924 
L 355.122061 203.197979 
L 358.051151 201.677766 
L 360.980241 200.819343 
L 361.541875 200.792729 
" style="fill:none;stroke:#17becf;stroke-linecap:square;stroke-width:1.5;"/>
   </g>
   <g id="patch_18">
    <path d="M 202.809375 311.2 
L 202.809375 166.95 
" style="fill:none;stroke:#000000;stroke-linecap:square;stroke-linejoin:miter;stroke-width:0.8;"/>
   </g>
   <g id="patch_19">
    <path d="M 344.434375 311.2 
L 344.434375 166.95 
" style="fill:none;stroke:#000000;stroke-linecap:square;stroke-linejoin:miter;stroke-width:0.8;"/>
   </g>
   <g id="patch_20">
    <path d="M 202.809375 311.2 
L 344.434375 311.2 
" style="fill:none;stroke:#000000;stroke-linecap:square;stroke-linejoin:miter;stroke-width:0.8;"/>
   </g>
   <g id="patch_21">
    <path d="M 202.809375 166.95 
L 344.434375 166.95 
" style="fill:none;stroke:#000000;stroke-linecap:square;stroke-linejoin:miter;stroke-width:0.8;"/>
   </g>
  </g>
 </g>
 <defs>
  <clipPath id="p6357ed849a">
   <rect height="144.25" width="141.625" x="45.371875" y="7.2"/>
  </clipPath>
  <clipPath id="pe4eb30553f">
   <rect height="144.25" width="141.625" x="202.809375" y="7.2"/>
  </clipPath>
  <clipPath id="pb18a9d57b2">
   <rect height="144.25" width="141.625" x="45.371875" y="166.95"/>
  </clipPath>
  <clipPath id="pb0f49eeb16">
   <rect height="144.25" width="141.625" x="202.809375" y="166.95"/>
  </clipPath>
 </defs>
</svg>
