<?xml version="1.0" encoding="utf-8" standalone="no"?>
<!DOCTYPE svg PUBLIC "-//W3C//DTD SVG 1.1//EN"
  "http://www.w3.org/Graphics/SVG/1.1/DTD/svg11.dtd">
<svg height="248.518125pt" version="1.1" viewBox="0 0 372.103125 248.518125" width="372.103125pt" xmlns="http://www.w3.org/2000/svg" xmlns:xlink="http://www.w3.org/1999/xlink">
 <metadata>
  <rdf:RDF xmlns:cc="http://creativecommons.org/ns#" xmlns:dc="http://purl.org/dc/elements/1.1/" xmlns:rdf="http://www.w3.org/1999/02/22-rdf-syntax-ns#">
   <cc:Work>
    <dc:type rdf:resource="http://purl.org/dc/dcmitype/StillImage"/>
    <dc:date>2022-03-30T09:43:38.858909</dc:date>
    <dc:format>image/svg+xml</dc:format>
    <dc:creator>
     <cc:Agent>
      <dc:title>Matplotlib v3.4.3, https://matplotlib.org/</dc:title>
     </cc:Agent>
    </dc:creator>
   </cc:Work>
  </rdf:RDF>
 </metadata>
 <defs>
  <style type="text/css">*{stroke-linecap:butt;stroke-linejoin:round;}</style>
 </defs>
 <g id="figure_1">
  <g id="patch_1">
   <path d="M 0 248.518125 
L 372.103125 248.518125 
L 372.103125 0 
L 0 0 
z
" style="fill:none;"/>
  </g>
  <g id="axes_1">
   <g id="patch_2">
    <path d="M 30.103125 224.64 
L 364.903125 224.64 
L 364.903125 7.2 
L 30.103125 7.2 
z
" style="fill:#ffffff;"/>
   </g>
   <g id="matplotlib.axis_1">
    <g id="xtick_1">
     <g id="line2d_1">
      <defs>
       <path d="M 0 0 
L 0 3.5 
" id="m41b60f8b32" style="stroke:#000000;stroke-width:0.8;"/>
      </defs>
      <g>
       <use style="stroke:#000000;stroke-width:0.8;" x="68.679318" xlink:href="#m41b60f8b32" y="224.64"/>
      </g>
     </g>
     <g id="text_1">
      <!-- −20 -->
      <g transform="translate(58.126974 239.238437)scale(0.1 -0.1)">
       <defs>
        <path d="M 678 2272 
L 4684 2272 
L 4684 1741 
L 678 1741 
L 678 2272 
z
" id="DejaVuSans-2212" transform="scale(0.015625)"/>
        <path d="M 1228 531 
L 3431 531 
L 3431 0 
L 469 0 
L 469 531 
Q 828 903 1448 1529 
Q 2069 2156 2228 2338 
Q 2531 2678 2651 2914 
Q 2772 3150 2772 3378 
Q 2772 3750 2511 3984 
Q 2250 4219 1831 4219 
Q 1534 4219 1204 4116 
Q 875 4013 500 3803 
L 500 4441 
Q 881 4594 1212 4672 
Q 1544 4750 1819 4750 
Q 2544 4750 2975 4387 
Q 3406 4025 3406 3419 
Q 3406 3131 3298 2873 
Q 3191 2616 2906 2266 
Q 2828 2175 2409 1742 
Q 1991 1309 1228 531 
z
" id="DejaVuSans-32" transform="scale(0.015625)"/>
        <path d="M 2034 4250 
Q 1547 4250 1301 3770 
Q 1056 3291 1056 2328 
Q 1056 1369 1301 889 
Q 1547 409 2034 409 
Q 2525 409 2770 889 
Q 3016 1369 3016 2328 
Q 3016 3291 2770 3770 
Q 2525 4250 2034 4250 
z
M 2034 4750 
Q 2819 4750 3233 4129 
Q 3647 3509 3647 2328 
Q 3647 1150 3233 529 
Q 2819 -91 2034 -91 
Q 1250 -91 836 529 
Q 422 1150 422 2328 
Q 422 3509 836 4129 
Q 1250 4750 2034 4750 
z
" id="DejaVuSans-30" transform="scale(0.015625)"/>
       </defs>
       <use xlink:href="#DejaVuSans-2212"/>
       <use x="83.789062" xlink:href="#DejaVuSans-32"/>
       <use x="147.412109" xlink:href="#DejaVuSans-30"/>
      </g>
     </g>
    </g>
    <g id="xtick_2">
     <g id="line2d_2">
      <g>
       <use style="stroke:#000000;stroke-width:0.8;" x="133.091221" xlink:href="#m41b60f8b32" y="224.64"/>
      </g>
     </g>
     <g id="text_2">
      <!-- −10 -->
      <g transform="translate(122.538878 239.238437)scale(0.1 -0.1)">
       <defs>
        <path d="M 794 531 
L 1825 531 
L 1825 4091 
L 703 3866 
L 703 4441 
L 1819 4666 
L 2450 4666 
L 2450 531 
L 3481 531 
L 3481 0 
L 794 0 
L 794 531 
z
" id="DejaVuSans-31" transform="scale(0.015625)"/>
       </defs>
       <use xlink:href="#DejaVuSans-2212"/>
       <use x="83.789062" xlink:href="#DejaVuSans-31"/>
       <use x="147.412109" xlink:href="#DejaVuSans-30"/>
      </g>
     </g>
    </g>
    <g id="xtick_3">
     <g id="line2d_3">
      <g>
       <use style="stroke:#000000;stroke-width:0.8;" x="197.503125" xlink:href="#m41b60f8b32" y="224.64"/>
      </g>
     </g>
     <g id="text_3">
      <!-- 0 -->
      <g transform="translate(194.321875 239.238437)scale(0.1 -0.1)">
       <use xlink:href="#DejaVuSans-30"/>
      </g>
     </g>
    </g>
    <g id="xtick_4">
     <g id="line2d_4">
      <g>
       <use style="stroke:#000000;stroke-width:0.8;" x="261.915029" xlink:href="#m41b60f8b32" y="224.64"/>
      </g>
     </g>
     <g id="text_4">
      <!-- 10 -->
      <g transform="translate(255.552529 239.238437)scale(0.1 -0.1)">
       <use xlink:href="#DejaVuSans-31"/>
       <use x="63.623047" xlink:href="#DejaVuSans-30"/>
      </g>
     </g>
    </g>
    <g id="xtick_5">
     <g id="line2d_5">
      <g>
       <use style="stroke:#000000;stroke-width:0.8;" x="326.326932" xlink:href="#m41b60f8b32" y="224.64"/>
      </g>
     </g>
     <g id="text_5">
      <!-- 20 -->
      <g transform="translate(319.964432 239.238437)scale(0.1 -0.1)">
       <use xlink:href="#DejaVuSans-32"/>
       <use x="63.623047" xlink:href="#DejaVuSans-30"/>
      </g>
     </g>
    </g>
   </g>
   <g id="matplotlib.axis_2">
    <g id="ytick_1">
     <g id="line2d_6">
      <defs>
       <path d="M 0 0 
L -3.5 0 
" id="m51ca010302" style="stroke:#000000;stroke-width:0.8;"/>
      </defs>
      <g>
       <use style="stroke:#000000;stroke-width:0.8;" x="30.103125" xlink:href="#m51ca010302" y="224.64"/>
      </g>
     </g>
     <g id="text_6">
      <!-- 0.0 -->
      <g transform="translate(7.2 228.439219)scale(0.1 -0.1)">
       <defs>
        <path d="M 684 794 
L 1344 794 
L 1344 0 
L 684 0 
L 684 794 
z
" id="DejaVuSans-2e" transform="scale(0.015625)"/>
       </defs>
       <use xlink:href="#DejaVuSans-30"/>
       <use x="63.623047" xlink:href="#DejaVuSans-2e"/>
       <use x="95.410156" xlink:href="#DejaVuSans-30"/>
      </g>
     </g>
    </g>
    <g id="ytick_2">
     <g id="line2d_7">
      <g>
       <use style="stroke:#000000;stroke-width:0.8;" x="30.103125" xlink:href="#m51ca010302" y="185.105455"/>
      </g>
     </g>
     <g id="text_7">
      <!-- 0.2 -->
      <g transform="translate(7.2 188.904673)scale(0.1 -0.1)">
       <use xlink:href="#DejaVuSans-30"/>
       <use x="63.623047" xlink:href="#DejaVuSans-2e"/>
       <use x="95.410156" xlink:href="#DejaVuSans-32"/>
      </g>
     </g>
    </g>
    <g id="ytick_3">
     <g id="line2d_8">
      <g>
       <use style="stroke:#000000;stroke-width:0.8;" x="30.103125" xlink:href="#m51ca010302" y="145.570909"/>
      </g>
     </g>
     <g id="text_8">
      <!-- 0.4 -->
      <g transform="translate(7.2 149.370128)scale(0.1 -0.1)">
       <defs>
        <path d="M 2419 4116 
L 825 1625 
L 2419 1625 
L 2419 4116 
z
M 2253 4666 
L 3047 4666 
L 3047 1625 
L 3713 1625 
L 3713 1100 
L 3047 1100 
L 3047 0 
L 2419 0 
L 2419 1100 
L 313 1100 
L 313 1709 
L 2253 4666 
z
" id="DejaVuSans-34" transform="scale(0.015625)"/>
       </defs>
       <use xlink:href="#DejaVuSans-30"/>
       <use x="63.623047" xlink:href="#DejaVuSans-2e"/>
       <use x="95.410156" xlink:href="#DejaVuSans-34"/>
      </g>
     </g>
    </g>
    <g id="ytick_4">
     <g id="line2d_9">
      <g>
       <use style="stroke:#000000;stroke-width:0.8;" x="30.103125" xlink:href="#m51ca010302" y="106.036364"/>
      </g>
     </g>
     <g id="text_9">
      <!-- 0.6 -->
      <g transform="translate(7.2 109.835582)scale(0.1 -0.1)">
       <defs>
        <path d="M 2113 2584 
Q 1688 2584 1439 2293 
Q 1191 2003 1191 1497 
Q 1191 994 1439 701 
Q 1688 409 2113 409 
Q 2538 409 2786 701 
Q 3034 994 3034 1497 
Q 3034 2003 2786 2293 
Q 2538 2584 2113 2584 
z
M 3366 4563 
L 3366 3988 
Q 3128 4100 2886 4159 
Q 2644 4219 2406 4219 
Q 1781 4219 1451 3797 
Q 1122 3375 1075 2522 
Q 1259 2794 1537 2939 
Q 1816 3084 2150 3084 
Q 2853 3084 3261 2657 
Q 3669 2231 3669 1497 
Q 3669 778 3244 343 
Q 2819 -91 2113 -91 
Q 1303 -91 875 529 
Q 447 1150 447 2328 
Q 447 3434 972 4092 
Q 1497 4750 2381 4750 
Q 2619 4750 2861 4703 
Q 3103 4656 3366 4563 
z
" id="DejaVuSans-36" transform="scale(0.015625)"/>
       </defs>
       <use xlink:href="#DejaVuSans-30"/>
       <use x="63.623047" xlink:href="#DejaVuSans-2e"/>
       <use x="95.410156" xlink:href="#DejaVuSans-36"/>
      </g>
     </g>
    </g>
    <g id="ytick_5">
     <g id="line2d_10">
      <g>
       <use style="stroke:#000000;stroke-width:0.8;" x="30.103125" xlink:href="#m51ca010302" y="66.501818"/>
      </g>
     </g>
     <g id="text_10">
      <!-- 0.8 -->
      <g transform="translate(7.2 70.301037)scale(0.1 -0.1)">
       <defs>
        <path d="M 2034 2216 
Q 1584 2216 1326 1975 
Q 1069 1734 1069 1313 
Q 1069 891 1326 650 
Q 1584 409 2034 409 
Q 2484 409 2743 651 
Q 3003 894 3003 1313 
Q 3003 1734 2745 1975 
Q 2488 2216 2034 2216 
z
M 1403 2484 
Q 997 2584 770 2862 
Q 544 3141 544 3541 
Q 544 4100 942 4425 
Q 1341 4750 2034 4750 
Q 2731 4750 3128 4425 
Q 3525 4100 3525 3541 
Q 3525 3141 3298 2862 
Q 3072 2584 2669 2484 
Q 3125 2378 3379 2068 
Q 3634 1759 3634 1313 
Q 3634 634 3220 271 
Q 2806 -91 2034 -91 
Q 1263 -91 848 271 
Q 434 634 434 1313 
Q 434 1759 690 2068 
Q 947 2378 1403 2484 
z
M 1172 3481 
Q 1172 3119 1398 2916 
Q 1625 2713 2034 2713 
Q 2441 2713 2670 2916 
Q 2900 3119 2900 3481 
Q 2900 3844 2670 4047 
Q 2441 4250 2034 4250 
Q 1625 4250 1398 4047 
Q 1172 3844 1172 3481 
z
" id="DejaVuSans-38" transform="scale(0.015625)"/>
       </defs>
       <use xlink:href="#DejaVuSans-30"/>
       <use x="63.623047" xlink:href="#DejaVuSans-2e"/>
       <use x="95.410156" xlink:href="#DejaVuSans-38"/>
      </g>
     </g>
    </g>
    <g id="ytick_6">
     <g id="line2d_11">
      <g>
       <use style="stroke:#000000;stroke-width:0.8;" x="30.103125" xlink:href="#m51ca010302" y="26.967273"/>
      </g>
     </g>
     <g id="text_11">
      <!-- 1.0 -->
      <g transform="translate(7.2 30.766491)scale(0.1 -0.1)">
       <use xlink:href="#DejaVuSans-31"/>
       <use x="63.623047" xlink:href="#DejaVuSans-2e"/>
       <use x="95.410156" xlink:href="#DejaVuSans-30"/>
      </g>
     </g>
    </g>
   </g>
   <g id="line2d_12">
    <path clip-path="url(#pa480fb4e03)" d="M 45.321307 95.506201 
L 46.53998 99.196424 
L 47.453985 101.384129 
L 48.063322 102.412994 
L 48.672658 103.012251 
L 48.977326 103.130591 
L 49.281995 103.118714 
L 49.586663 102.97061 
L 50.196 102.246252 
L 50.805336 100.928828 
L 51.414673 99.007942 
L 52.328678 95.025215 
L 53.242683 89.856338 
L 54.766024 79.45669 
L 56.594034 67.116466 
L 57.508039 62.72949 
L 58.117376 61.037645 
L 58.422044 60.653179 
L 58.726712 60.613756 
L 59.031381 60.944642 
L 59.336049 61.668256 
L 59.945385 64.366158 
L 60.554722 68.81178 
L 61.164059 75.035921 
L 62.078064 87.570335 
L 62.992068 103.434716 
L 64.51541 134.598165 
L 66.648088 178.052355 
L 67.562093 193.205713 
L 68.476098 205.153791 
L 69.390103 213.731012 
L 69.999439 217.705696 
L 70.608776 220.484987 
L 71.218113 222.293488 
L 71.827449 223.372567 
L 72.436786 223.950195 
L 73.046123 224.212128 
L 73.655459 224.277406 
L 74.264796 224.180777 
L 74.874132 223.864067 
L 75.483469 223.177663 
L 76.092806 221.892332 
L 76.702142 219.720568 
L 77.311479 216.345731 
L 77.920815 211.456431 
L 78.530152 204.783047 
L 79.139489 196.133004 
L 80.053494 179.301442 
L 80.967498 158.141798 
L 82.49084 116.304764 
L 84.31885 66.378214 
L 85.232855 46.93801 
L 85.842191 37.46855 
L 86.451528 31.331171 
L 86.756196 29.609457 
L 87.060865 28.816356 
L 87.365533 28.960793 
L 87.670201 30.040276 
L 87.974869 32.04097 
L 88.584206 38.695668 
L 89.193543 48.601763 
L 90.107548 68.497175 
L 91.326221 101.159754 
L 93.458899 160.013033 
L 94.677572 186.898384 
L 95.591577 201.931603 
L 96.505582 212.457513 
L 97.114919 217.216137 
L 97.724255 220.463871 
L 98.333592 222.508861 
L 98.942928 223.67067 
L 99.552265 224.247301 
L 100.161602 224.485564 
L 101.075607 224.5592 
L 101.989611 224.420668 
L 102.598948 224.076404 
L 103.208285 223.305489 
L 103.817621 221.837041 
L 104.426958 219.359309 
L 105.036295 215.550971 
L 105.645631 210.114921 
L 106.254968 202.811839 
L 107.168973 188.056997 
L 108.082978 168.777037 
L 109.301651 137.286801 
L 112.043666 61.829045 
L 112.95767 43.119205 
L 113.567007 34.253275 
L 114.176344 28.781318 
L 114.481012 27.407185 
L 114.78568 26.967273 
L 115.090349 27.467404 
L 115.395017 28.902089 
L 115.699685 31.254606 
L 116.309022 38.591832 
L 116.918358 49.135084 
L 117.832363 69.859961 
L 119.355705 112.128585 
L 121.183715 162.471061 
L 122.09772 183.069509 
L 123.011725 199.205846 
L 123.925729 210.703195 
L 124.535066 215.992878 
L 125.144403 219.664464 
L 125.753739 222.026113 
L 126.363076 223.406325 
L 126.972412 224.118851 
L 127.581749 224.430796 
L 128.495754 224.548228 
L 129.409759 224.443025 
L 130.019096 224.151852 
L 130.628432 223.482082 
L 131.237769 222.180778 
L 131.847105 219.95211 
L 132.456442 216.488302 
L 133.065779 211.502703 
L 133.675115 204.762247 
L 134.58912 191.060977 
L 135.503125 173.055866 
L 136.721798 143.465705 
L 139.768481 64.51376 
L 140.682486 47.679652 
L 141.291823 39.927647 
L 141.901159 35.366476 
L 142.205828 34.350224 
L 142.510496 34.19409 
L 142.815164 34.898797 
L 143.119833 36.455292 
L 143.729169 42.039662 
L 144.338506 50.689011 
L 145.252511 68.527584 
L 146.471184 98.58954 
L 149.213199 169.140945 
L 150.127204 187.541713 
L 151.041209 201.835298 
L 151.955213 211.977768 
L 152.56455 216.647579 
L 153.173887 219.905303 
L 153.783223 222.024727 
L 154.39256 223.291212 
L 155.001896 223.972212 
L 155.611233 224.290455 
L 156.525238 224.406641 
L 157.134575 224.318232 
L 157.743911 224.038883 
L 158.353248 223.421956 
L 158.962584 222.248835 
L 159.571921 220.249612 
L 160.181258 217.129508 
L 160.790594 212.59897 
L 161.399931 206.405087 
L 162.009268 198.361783 
L 162.923272 182.657007 
L 163.837277 162.78988 
L 165.055951 131.345478 
L 167.493297 66.603328 
L 168.407302 48.159049 
L 169.016639 39.23533 
L 169.625975 33.510119 
L 169.930643 31.938125 
L 170.235312 31.25563 
L 170.53998 31.471527 
L 170.844648 32.584146 
L 171.149317 34.58126 
L 171.758653 41.128559 
L 172.36799 50.815571 
L 173.281995 70.242559 
L 174.500668 102.193799 
L 176.938014 167.428811 
L 177.852019 186.78003 
L 178.766024 201.76474 
L 179.680029 212.303792 
L 180.289366 217.08803 
L 180.898702 220.365334 
L 181.508039 222.438368 
L 182.117376 223.623491 
L 182.726712 224.217306 
L 183.336049 224.466364 
L 184.250054 224.544649 
L 185.164059 224.396907 
L 185.773395 224.038076 
L 186.382732 223.245162 
L 186.992068 221.747181 
L 187.601405 219.233373 
L 188.210742 215.38505 
L 188.820078 209.909719 
L 189.429415 202.574679 
L 190.34342 187.803937 
L 191.257425 168.573677 
L 192.476098 137.294689 
L 195.218113 62.879686 
L 196.132118 44.551945 
L 196.741454 35.895221 
L 197.350791 30.573856 
L 197.655459 29.248157 
L 197.960127 28.836807 
L 198.264796 29.344636 
L 198.569464 30.765596 
L 198.874132 33.082856 
L 199.483469 40.286865 
L 200.092806 50.620963 
L 201.006811 70.923862 
L 202.530152 112.383047 
L 204.358162 162.006089 
L 205.272167 182.457128 
L 206.186172 198.589025 
L 207.100177 210.187947 
L 207.709513 215.57804 
L 208.31885 219.356898 
L 208.928186 221.818361 
L 209.537523 223.280561 
L 210.14686 224.051976 
L 210.756196 224.399904 
L 211.670201 224.540891 
L 212.584206 224.452329 
L 213.193543 224.186962 
L 213.802879 223.565497 
L 214.412216 222.339806 
L 215.021553 220.213439 
L 215.630889 216.871961 
L 216.240226 212.016284 
L 216.849562 205.396249 
L 217.458899 196.841679 
L 218.372904 180.275647 
L 219.286909 159.559635 
L 220.81025 118.782472 
L 222.63826 70.046695 
L 223.552265 50.833845 
L 224.161602 41.297879 
L 224.770938 34.899097 
L 225.075607 32.97286 
L 225.380275 31.92764 
L 225.684943 31.77482 
L 225.989611 32.515302 
L 226.29428 34.139517 
L 226.903616 39.949682 
L 227.512953 48.929853 
L 228.426958 67.402945 
L 229.645631 98.393283 
L 232.082978 163.212619 
L 232.996982 182.94785 
L 233.910987 198.538879 
L 234.824992 209.813777 
L 235.434329 215.106477 
L 236.043666 218.868283 
L 236.653002 221.37271 
L 237.262339 222.913525 
L 237.871675 223.773968 
L 238.481012 224.198503 
L 239.090349 224.369296 
L 240.004354 224.350675 
L 240.61369 224.143272 
L 241.223027 223.655837 
L 241.832363 222.696578 
L 242.4417 221.017841 
L 243.051037 218.340676 
L 243.660373 214.383133 
L 244.26971 208.890072 
L 244.879046 201.662134 
L 245.793051 187.337331 
L 246.707056 168.916861 
L 247.925729 139.189752 
L 250.667744 68.401218 
L 251.581749 50.623044 
L 252.191086 42.018343 
L 252.800422 36.480424 
L 253.105091 34.947333 
L 253.409759 34.265871 
L 253.714427 34.444879 
L 254.019096 35.483421 
L 254.323764 37.370777 
L 254.9331 43.601125 
L 255.542437 52.863603 
L 256.456442 71.527068 
L 257.675115 102.427551 
L 260.112462 166.397386 
L 261.026467 185.694475 
L 261.940471 200.808649 
L 262.854476 211.584196 
L 263.463813 216.544606 
L 264.07315 219.987798 
L 264.682486 222.200882 
L 265.291823 223.491545 
L 265.901159 224.154999 
L 266.510496 224.44311 
L 267.424501 224.546667 
L 268.338506 224.426273 
L 268.947842 224.109057 
L 269.557179 223.387209 
L 270.166516 221.992893 
L 270.775852 219.612161 
L 271.385189 215.916887 
L 271.994525 210.599854 
L 272.603862 203.410046 
L 273.517867 188.789847 
L 274.431872 169.577453 
L 275.650545 138.057151 
L 278.39256 62.229495 
L 279.306565 43.393777 
L 279.915901 34.455474 
L 280.525238 28.918841 
L 280.829906 27.514091 
L 281.134575 27.043895 
L 281.439243 27.513407 
L 281.743911 28.916472 
L 282.04858 31.235747 
L 282.657916 38.499595 
L 283.267253 48.958263 
L 284.181258 69.536134 
L 285.704599 111.546471 
L 287.532609 161.716267 
L 288.446614 182.338874 
L 289.360619 198.575323 
L 290.274624 210.225857 
L 290.88396 215.629422 
L 291.493297 219.410616 
L 292.102634 221.867319 
L 292.71197 223.320948 
L 293.321307 224.082661 
L 293.930643 224.422108 
L 294.844648 224.557692 
L 295.758653 224.479719 
L 296.36799 224.234116 
L 296.977326 223.64439 
L 297.586663 222.462458 
L 298.196 220.389795 
L 298.805336 217.107199 
L 299.414673 212.307812 
L 300.02401 205.730828 
L 300.633346 197.193175 
L 301.547351 180.573062 
L 302.461356 159.670171 
L 303.984697 118.233592 
L 305.812707 68.31141 
L 306.726712 48.545432 
L 307.336049 38.736848 
L 307.945385 32.182767 
L 308.250054 30.231845 
L 308.554722 29.200859 
L 308.85939 29.10298 
L 309.164059 29.940063 
L 309.468727 31.702591 
L 310.078064 37.910008 
L 310.6874 47.431275 
L 311.601405 66.910603 
L 312.820078 99.351534 
L 315.257425 165.930153 
L 316.17143 185.627466 
L 317.085435 200.835466 
L 317.999439 211.514597 
L 318.608776 216.373742 
L 319.218113 219.728058 
L 319.827449 221.887609 
L 320.436786 223.16708 
L 321.046123 223.851666 
L 321.655459 224.168221 
L 322.264796 224.26417 
L 322.874132 224.195918 
L 323.483469 223.927526 
L 324.092806 223.339421 
L 324.702142 222.245977 
L 325.311479 220.419956 
L 325.920815 217.621195 
L 326.530152 213.62661 
L 327.139489 208.258526 
L 328.053494 197.417467 
L 328.967498 183.272277 
L 330.186172 160.1882 
L 333.537523 92.499825 
L 334.451528 78.823491 
L 335.365533 68.882276 
L 335.974869 64.468646 
L 336.584206 61.801517 
L 336.888874 61.092709 
L 337.193543 60.776186 
L 337.498211 60.829493 
L 337.802879 61.227332 
L 338.107548 61.94207 
L 338.716884 64.203132 
L 339.630889 69.202678 
L 341.154231 79.750731 
L 342.677572 90.164284 
L 343.591577 95.328769 
L 344.505582 99.296594 
L 345.114919 101.201454 
L 345.724255 102.497906 
L 346.333592 103.19638 
L 346.63826 103.329738 
L 346.942928 103.325703 
L 347.247597 103.19032 
L 347.856933 102.553776 
L 348.46627 101.483755 
L 349.380275 99.228461 
L 349.684943 98.3439 
L 349.684943 98.3439 
" style="fill:none;stroke:#ff4500;stroke-linecap:square;stroke-width:1.5;"/>
   </g>
   <g id="patch_3">
    <path d="M 30.103125 224.64 
L 30.103125 7.2 
" style="fill:none;stroke:#000000;stroke-linecap:square;stroke-linejoin:miter;stroke-width:0.8;"/>
   </g>
   <g id="patch_4">
    <path d="M 364.903125 224.64 
L 364.903125 7.2 
" style="fill:none;stroke:#000000;stroke-linecap:square;stroke-linejoin:miter;stroke-width:0.8;"/>
   </g>
   <g id="patch_5">
    <path d="M 30.103125 224.64 
L 364.903125 224.64 
" style="fill:none;stroke:#000000;stroke-linecap:square;stroke-linejoin:miter;stroke-width:0.8;"/>
   </g>
   <g id="patch_6">
    <path d="M 30.103125 7.2 
L 364.903125 7.2 
" style="fill:none;stroke:#000000;stroke-linecap:square;stroke-linejoin:miter;stroke-width:0.8;"/>
   </g>
  </g>
 </g>
 <defs>
  <clipPath id="pa480fb4e03">
   <rect height="217.44" width="334.8" x="30.103125" y="7.2"/>
  </clipPath>
 </defs>
</svg>
