<?xml version="1.0" encoding="utf-8" standalone="no"?>
<!DOCTYPE svg PUBLIC "-//W3C//DTD SVG 1.1//EN"
  "http://www.w3.org/Graphics/SVG/1.1/DTD/svg11.dtd">
<svg height="219.148963pt" version="1.1" viewBox="0 0 432.21375 219.148963" width="432.21375pt" xmlns="http://www.w3.org/2000/svg" xmlns:xlink="http://www.w3.org/1999/xlink">
 <metadata>
  <rdf:RDF xmlns:cc="http://creativecommons.org/ns#" xmlns:dc="http://purl.org/dc/elements/1.1/" xmlns:rdf="http://www.w3.org/1999/02/22-rdf-syntax-ns#">
   <cc:Work>
    <dc:type rdf:resource="http://purl.org/dc/dcmitype/StillImage"/>
    <dc:date>2022-04-13T09:41:06.854483</dc:date>
    <dc:format>image/svg+xml</dc:format>
    <dc:creator>
     <cc:Agent>
      <dc:title>Matplotlib v3.4.3, https://matplotlib.org/</dc:title>
     </cc:Agent>
    </dc:creator>
   </cc:Work>
  </rdf:RDF>
 </metadata>
 <defs>
  <style type="text/css">*{stroke-linecap:butt;stroke-linejoin:round;}</style>
 </defs>
 <g id="figure_1">
  <g id="patch_1">
   <path d="M -0 219.148963 
L 432.21375 219.148963 
L 432.21375 0 
L -0 0 
z
" style="fill:none;"/>
  </g>
  <g id="axes_1">
   <g id="patch_2">
    <path d="M 54.01375 173.850213 
L 388.81375 173.850213 
L 388.81375 113.109787 
L 54.01375 113.109787 
z
" style="fill:#ffffff;"/>
   </g>
   <g id="matplotlib.axis_1">
    <g id="xtick_1">
     <g id="line2d_1">
      <defs>
       <path d="M 0 0 
L 0 3.5 
" id="ma050e7f89f" style="stroke:#000000;stroke-width:0.8;"/>
      </defs>
      <g>
       <use style="stroke:#000000;stroke-width:0.8;" x="99.9329" xlink:href="#ma050e7f89f" y="173.850213"/>
      </g>
     </g>
     <g id="text_1">
      <!-- −20 -->
      <g transform="translate(85.159618 191.488025)scale(0.14 -0.14)">
       <defs>
        <path d="M 678 2272 
L 4684 2272 
L 4684 1741 
L 678 1741 
L 678 2272 
z
" id="DejaVuSans-2212" transform="scale(0.015625)"/>
        <path d="M 1228 531 
L 3431 531 
L 3431 0 
L 469 0 
L 469 531 
Q 828 903 1448 1529 
Q 2069 2156 2228 2338 
Q 2531 2678 2651 2914 
Q 2772 3150 2772 3378 
Q 2772 3750 2511 3984 
Q 2250 4219 1831 4219 
Q 1534 4219 1204 4116 
Q 875 4013 500 3803 
L 500 4441 
Q 881 4594 1212 4672 
Q 1544 4750 1819 4750 
Q 2544 4750 2975 4387 
Q 3406 4025 3406 3419 
Q 3406 3131 3298 2873 
Q 3191 2616 2906 2266 
Q 2828 2175 2409 1742 
Q 1991 1309 1228 531 
z
" id="DejaVuSans-32" transform="scale(0.015625)"/>
        <path d="M 2034 4250 
Q 1547 4250 1301 3770 
Q 1056 3291 1056 2328 
Q 1056 1369 1301 889 
Q 1547 409 2034 409 
Q 2525 409 2770 889 
Q 3016 1369 3016 2328 
Q 3016 3291 2770 3770 
Q 2525 4250 2034 4250 
z
M 2034 4750 
Q 2819 4750 3233 4129 
Q 3647 3509 3647 2328 
Q 3647 1150 3233 529 
Q 2819 -91 2034 -91 
Q 1250 -91 836 529 
Q 422 1150 422 2328 
Q 422 3509 836 4129 
Q 1250 4750 2034 4750 
z
" id="DejaVuSans-30" transform="scale(0.015625)"/>
       </defs>
       <use xlink:href="#DejaVuSans-2212"/>
       <use x="83.789062" xlink:href="#DejaVuSans-32"/>
       <use x="147.412109" xlink:href="#DejaVuSans-30"/>
      </g>
     </g>
    </g>
    <g id="xtick_2">
     <g id="line2d_2">
      <g>
       <use style="stroke:#000000;stroke-width:0.8;" x="160.673325" xlink:href="#ma050e7f89f" y="173.850213"/>
      </g>
     </g>
     <g id="text_2">
      <!-- −10 -->
      <g transform="translate(145.900044 191.488025)scale(0.14 -0.14)">
       <defs>
        <path d="M 794 531 
L 1825 531 
L 1825 4091 
L 703 3866 
L 703 4441 
L 1819 4666 
L 2450 4666 
L 2450 531 
L 3481 531 
L 3481 0 
L 794 0 
L 794 531 
z
" id="DejaVuSans-31" transform="scale(0.015625)"/>
       </defs>
       <use xlink:href="#DejaVuSans-2212"/>
       <use x="83.789062" xlink:href="#DejaVuSans-31"/>
       <use x="147.412109" xlink:href="#DejaVuSans-30"/>
      </g>
     </g>
    </g>
    <g id="xtick_3">
     <g id="line2d_3">
      <g>
       <use style="stroke:#000000;stroke-width:0.8;" x="221.41375" xlink:href="#ma050e7f89f" y="173.850213"/>
      </g>
     </g>
     <g id="text_3">
      <!-- 0 -->
      <g transform="translate(216.96 191.488025)scale(0.14 -0.14)">
       <use xlink:href="#DejaVuSans-30"/>
      </g>
     </g>
    </g>
    <g id="xtick_4">
     <g id="line2d_4">
      <g>
       <use style="stroke:#000000;stroke-width:0.8;" x="282.154175" xlink:href="#ma050e7f89f" y="173.850213"/>
      </g>
     </g>
     <g id="text_4">
      <!-- 10 -->
      <g transform="translate(273.246675 191.488025)scale(0.14 -0.14)">
       <use xlink:href="#DejaVuSans-31"/>
       <use x="63.623047" xlink:href="#DejaVuSans-30"/>
      </g>
     </g>
    </g>
    <g id="xtick_5">
     <g id="line2d_5">
      <g>
       <use style="stroke:#000000;stroke-width:0.8;" x="342.8946" xlink:href="#ma050e7f89f" y="173.850213"/>
      </g>
     </g>
     <g id="text_5">
      <!-- 20 -->
      <g transform="translate(333.9871 191.488025)scale(0.14 -0.14)">
       <use xlink:href="#DejaVuSans-32"/>
       <use x="63.623047" xlink:href="#DejaVuSans-30"/>
      </g>
     </g>
    </g>
    <g id="text_6">
     <!-- $x/w_0$ -->
     <g transform="translate(205.87375 209.0374)scale(0.14 -0.14)">
      <defs>
       <path d="M 3841 3500 
L 2234 1784 
L 3219 0 
L 2559 0 
L 1819 1388 
L 531 0 
L -166 0 
L 1556 1844 
L 641 3500 
L 1300 3500 
L 1972 2234 
L 3144 3500 
L 3841 3500 
z
" id="DejaVuSans-Oblique-78" transform="scale(0.015625)"/>
       <path d="M 1625 4666 
L 2156 4666 
L 531 -594 
L 0 -594 
L 1625 4666 
z
" id="DejaVuSans-2f" transform="scale(0.015625)"/>
       <path d="M 544 3500 
L 1113 3500 
L 1259 684 
L 2566 3500 
L 3231 3500 
L 3425 684 
L 4666 3500 
L 5241 3500 
L 3641 0 
L 2969 0 
L 2797 2900 
L 1459 0 
L 781 0 
L 544 3500 
z
" id="DejaVuSans-Oblique-77" transform="scale(0.015625)"/>
      </defs>
      <use transform="translate(0 0.09375)" xlink:href="#DejaVuSans-Oblique-78"/>
      <use transform="translate(59.179688 0.09375)" xlink:href="#DejaVuSans-2f"/>
      <use transform="translate(92.871094 0.09375)" xlink:href="#DejaVuSans-Oblique-77"/>
      <use transform="translate(174.658203 -16.3125)scale(0.7)" xlink:href="#DejaVuSans-30"/>
     </g>
    </g>
   </g>
   <g id="matplotlib.axis_2">
    <g id="ytick_1">
     <g id="line2d_6">
      <defs>
       <path d="M 0 0 
L -3.5 0 
" id="m8ef2a00944" style="stroke:#000000;stroke-width:0.8;"/>
      </defs>
      <g>
       <use style="stroke:#000000;stroke-width:0.8;" x="54.01375" xlink:href="#m8ef2a00944" y="173.850213"/>
      </g>
     </g>
     <g id="text_7">
      <!-- 0.0 -->
      <g transform="translate(24.749375 179.169119)scale(0.14 -0.14)">
       <defs>
        <path d="M 684 794 
L 1344 794 
L 1344 0 
L 684 0 
L 684 794 
z
" id="DejaVuSans-2e" transform="scale(0.015625)"/>
       </defs>
       <use xlink:href="#DejaVuSans-30"/>
       <use x="63.623047" xlink:href="#DejaVuSans-2e"/>
       <use x="95.410156" xlink:href="#DejaVuSans-30"/>
      </g>
     </g>
    </g>
    <g id="ytick_2">
     <g id="line2d_7">
      <g>
       <use style="stroke:#000000;stroke-width:0.8;" x="54.01375" xlink:href="#m8ef2a00944" y="143.48"/>
      </g>
     </g>
     <g id="text_8">
      <!-- 0.5 -->
      <g transform="translate(24.749375 148.798906)scale(0.14 -0.14)">
       <defs>
        <path d="M 691 4666 
L 3169 4666 
L 3169 4134 
L 1269 4134 
L 1269 2991 
Q 1406 3038 1543 3061 
Q 1681 3084 1819 3084 
Q 2600 3084 3056 2656 
Q 3513 2228 3513 1497 
Q 3513 744 3044 326 
Q 2575 -91 1722 -91 
Q 1428 -91 1123 -41 
Q 819 9 494 109 
L 494 744 
Q 775 591 1075 516 
Q 1375 441 1709 441 
Q 2250 441 2565 725 
Q 2881 1009 2881 1497 
Q 2881 1984 2565 2268 
Q 2250 2553 1709 2553 
Q 1456 2553 1204 2497 
Q 953 2441 691 2322 
L 691 4666 
z
" id="DejaVuSans-35" transform="scale(0.015625)"/>
       </defs>
       <use xlink:href="#DejaVuSans-30"/>
       <use x="63.623047" xlink:href="#DejaVuSans-2e"/>
       <use x="95.410156" xlink:href="#DejaVuSans-35"/>
      </g>
     </g>
    </g>
    <g id="ytick_3">
     <g id="line2d_8">
      <g>
       <use style="stroke:#000000;stroke-width:0.8;" x="54.01375" xlink:href="#m8ef2a00944" y="113.109787"/>
      </g>
     </g>
     <g id="text_9">
      <!-- 1.0 -->
      <g transform="translate(24.749375 118.428694)scale(0.14 -0.14)">
       <use xlink:href="#DejaVuSans-31"/>
       <use x="63.623047" xlink:href="#DejaVuSans-2e"/>
       <use x="95.410156" xlink:href="#DejaVuSans-30"/>
      </g>
     </g>
    </g>
    <g id="text_10">
     <!-- Int [arb.] -->
     <g transform="translate(17.837812 174.248281)rotate(-90)scale(0.14 -0.14)">
      <defs>
       <path d="M 628 4666 
L 1259 4666 
L 1259 0 
L 628 0 
L 628 4666 
z
" id="DejaVuSans-49" transform="scale(0.015625)"/>
       <path d="M 3513 2113 
L 3513 0 
L 2938 0 
L 2938 2094 
Q 2938 2591 2744 2837 
Q 2550 3084 2163 3084 
Q 1697 3084 1428 2787 
Q 1159 2491 1159 1978 
L 1159 0 
L 581 0 
L 581 3500 
L 1159 3500 
L 1159 2956 
Q 1366 3272 1645 3428 
Q 1925 3584 2291 3584 
Q 2894 3584 3203 3211 
Q 3513 2838 3513 2113 
z
" id="DejaVuSans-6e" transform="scale(0.015625)"/>
       <path d="M 1172 4494 
L 1172 3500 
L 2356 3500 
L 2356 3053 
L 1172 3053 
L 1172 1153 
Q 1172 725 1289 603 
Q 1406 481 1766 481 
L 2356 481 
L 2356 0 
L 1766 0 
Q 1100 0 847 248 
Q 594 497 594 1153 
L 594 3053 
L 172 3053 
L 172 3500 
L 594 3500 
L 594 4494 
L 1172 4494 
z
" id="DejaVuSans-74" transform="scale(0.015625)"/>
       <path id="DejaVuSans-20" transform="scale(0.015625)"/>
       <path d="M 550 4863 
L 1875 4863 
L 1875 4416 
L 1125 4416 
L 1125 -397 
L 1875 -397 
L 1875 -844 
L 550 -844 
L 550 4863 
z
" id="DejaVuSans-5b" transform="scale(0.015625)"/>
       <path d="M 2194 1759 
Q 1497 1759 1228 1600 
Q 959 1441 959 1056 
Q 959 750 1161 570 
Q 1363 391 1709 391 
Q 2188 391 2477 730 
Q 2766 1069 2766 1631 
L 2766 1759 
L 2194 1759 
z
M 3341 1997 
L 3341 0 
L 2766 0 
L 2766 531 
Q 2569 213 2275 61 
Q 1981 -91 1556 -91 
Q 1019 -91 701 211 
Q 384 513 384 1019 
Q 384 1609 779 1909 
Q 1175 2209 1959 2209 
L 2766 2209 
L 2766 2266 
Q 2766 2663 2505 2880 
Q 2244 3097 1772 3097 
Q 1472 3097 1187 3025 
Q 903 2953 641 2809 
L 641 3341 
Q 956 3463 1253 3523 
Q 1550 3584 1831 3584 
Q 2591 3584 2966 3190 
Q 3341 2797 3341 1997 
z
" id="DejaVuSans-61" transform="scale(0.015625)"/>
       <path d="M 2631 2963 
Q 2534 3019 2420 3045 
Q 2306 3072 2169 3072 
Q 1681 3072 1420 2755 
Q 1159 2438 1159 1844 
L 1159 0 
L 581 0 
L 581 3500 
L 1159 3500 
L 1159 2956 
Q 1341 3275 1631 3429 
Q 1922 3584 2338 3584 
Q 2397 3584 2469 3576 
Q 2541 3569 2628 3553 
L 2631 2963 
z
" id="DejaVuSans-72" transform="scale(0.015625)"/>
       <path d="M 3116 1747 
Q 3116 2381 2855 2742 
Q 2594 3103 2138 3103 
Q 1681 3103 1420 2742 
Q 1159 2381 1159 1747 
Q 1159 1113 1420 752 
Q 1681 391 2138 391 
Q 2594 391 2855 752 
Q 3116 1113 3116 1747 
z
M 1159 2969 
Q 1341 3281 1617 3432 
Q 1894 3584 2278 3584 
Q 2916 3584 3314 3078 
Q 3713 2572 3713 1747 
Q 3713 922 3314 415 
Q 2916 -91 2278 -91 
Q 1894 -91 1617 61 
Q 1341 213 1159 525 
L 1159 0 
L 581 0 
L 581 4863 
L 1159 4863 
L 1159 2969 
z
" id="DejaVuSans-62" transform="scale(0.015625)"/>
       <path d="M 1947 4863 
L 1947 -844 
L 622 -844 
L 622 -397 
L 1369 -397 
L 1369 4416 
L 622 4416 
L 622 4863 
L 1947 4863 
z
" id="DejaVuSans-5d" transform="scale(0.015625)"/>
      </defs>
      <use xlink:href="#DejaVuSans-49"/>
      <use x="29.492188" xlink:href="#DejaVuSans-6e"/>
      <use x="92.871094" xlink:href="#DejaVuSans-74"/>
      <use x="132.080078" xlink:href="#DejaVuSans-20"/>
      <use x="163.867188" xlink:href="#DejaVuSans-5b"/>
      <use x="202.880859" xlink:href="#DejaVuSans-61"/>
      <use x="264.160156" xlink:href="#DejaVuSans-72"/>
      <use x="305.273438" xlink:href="#DejaVuSans-62"/>
      <use x="368.75" xlink:href="#DejaVuSans-2e"/>
      <use x="400.537109" xlink:href="#DejaVuSans-5d"/>
     </g>
    </g>
   </g>
   <g id="line2d_9">
    <path clip-path="url(#pfc526979f4)" d="M 69.231932 156.610852 
L 69.841268 155.271885 
L 70.450605 153.178335 
L 71.36461 148.920557 
L 72.887951 140.236813 
L 74.411293 131.887326 
L 75.325298 127.936152 
L 76.239303 125.091938 
L 76.848639 123.836609 
L 77.457976 123.061004 
L 78.067313 122.704642 
L 78.676649 122.686781 
L 79.285986 122.91545 
L 80.504659 123.744948 
L 82.028001 124.746821 
L 83.246674 125.244325 
L 84.465347 125.710773 
L 85.074684 126.102022 
L 85.68402 126.710481 
L 86.293357 127.618517 
L 86.902693 128.896619 
L 87.51203 130.595326 
L 88.426035 133.976227 
L 89.34004 138.298639 
L 90.863381 146.940125 
L 92.691391 157.301094 
L 93.605396 161.340661 
L 94.214733 163.31581 
L 94.824069 164.61187 
L 95.128738 164.987832 
L 95.433406 165.17791 
L 95.738074 165.181846 
L 96.042743 165.001897 
L 96.347411 164.642804 
L 96.956748 163.418028 
L 97.566084 161.59094 
L 98.480089 157.976032 
L 101.83144 143.090545 
L 102.745445 140.443584 
L 103.354782 139.250744 
L 103.964119 138.518596 
L 104.573455 138.218063 
L 105.182792 138.296924 
L 105.792128 138.686042 
L 106.706133 139.677756 
L 110.057485 143.918416 
L 111.276158 144.92519 
L 113.408836 146.59105 
L 114.322841 147.65919 
L 115.236846 149.128038 
L 116.150851 151.060721 
L 117.369524 154.339856 
L 118.892865 159.245425 
L 121.025544 166.100997 
L 121.939549 168.378571 
L 122.548885 169.491779 
L 123.158222 170.201211 
L 123.767558 170.448229 
L 124.072227 170.383372 
L 124.376895 170.186883 
L 124.986232 169.387738 
L 125.595568 168.041443 
L 126.204905 166.16158 
L 127.11891 162.431716 
L 128.337583 156.14917 
L 131.384266 139.32464 
L 132.298271 135.447017 
L 133.212276 132.479733 
L 134.126281 130.40563 
L 134.735617 129.453144 
L 135.649622 128.520442 
L 136.563627 128.001146 
L 137.477632 127.753696 
L 138.391637 127.758713 
L 139.000974 127.957667 
L 139.61031 128.388077 
L 140.219647 129.131355 
L 140.828983 130.271128 
L 141.43832 131.87956 
L 142.047657 134.003959 
L 142.961662 138.170955 
L 144.180335 145.271817 
L 146.92235 162.543052 
L 147.836354 166.885215 
L 148.750359 169.998244 
L 149.359696 171.389562 
L 149.969033 172.290284 
L 150.578369 172.776479 
L 151.187706 172.930558 
L 151.797042 172.824321 
L 152.406379 172.50458 
L 153.015716 171.983841 
L 153.625052 171.237699 
L 154.234389 170.209488 
L 154.843725 168.821517 
L 155.453062 166.991054 
L 156.367067 163.270877 
L 157.281072 158.309501 
L 158.499745 150.029902 
L 161.546428 127.699585 
L 162.460433 122.502866 
L 163.374438 118.44206 
L 164.288443 115.523041 
L 164.897779 114.198765 
L 165.507116 113.382025 
L 165.811784 113.174442 
L 166.116453 113.109787 
L 166.421121 113.196831 
L 166.725789 113.445537 
L 167.335126 114.470835 
L 167.944463 116.26887 
L 168.553799 118.902853 
L 169.163136 122.393419 
L 170.077141 129.126537 
L 171.295814 140.121074 
L 173.123824 156.927572 
L 174.037829 163.59154 
L 174.951834 168.399592 
L 175.56117 170.562603 
L 176.170507 172.001565 
L 176.779843 172.871292 
L 177.38918 173.344745 
L 178.303185 173.641425 
L 179.21719 173.694494 
L 179.826526 173.588105 
L 180.435863 173.26501 
L 181.0452 172.585047 
L 181.654536 171.39473 
L 182.263873 169.560669 
L 182.873209 166.999828 
L 183.787214 161.793741 
L 185.005888 152.868723 
L 187.138566 136.491991 
L 188.052571 131.015664 
L 188.966576 127.005676 
L 189.575912 125.130223 
L 190.185249 123.804429 
L 190.794585 122.916849 
L 191.403922 122.347 
L 192.317927 121.854254 
L 193.5366 121.539888 
L 194.450605 121.570058 
L 195.059942 121.849442 
L 195.669278 122.478278 
L 196.278615 123.599265 
L 196.887951 125.350582 
L 197.497288 127.841009 
L 198.106625 131.124856 
L 199.02063 137.468217 
L 200.543971 150.479538 
L 201.762644 160.646901 
L 202.676649 166.659664 
L 203.285986 169.583623 
L 203.895322 171.617457 
L 204.504659 172.864879 
L 205.113996 173.508901 
L 205.723332 173.765813 
L 206.637337 173.837009 
L 207.85601 173.747649 
L 208.465347 173.470836 
L 209.074684 172.787079 
L 209.68402 171.464405 
L 210.293357 169.304117 
L 210.902693 166.193413 
L 211.816698 159.801099 
L 213.035372 149.096256 
L 214.558713 135.886608 
L 215.472718 129.890336 
L 216.082055 127.032175 
L 216.691391 125.080314 
L 217.300728 123.92403 
L 217.910064 123.390181 
L 218.519401 123.27743 
L 219.433406 123.473789 
L 220.347411 123.660765 
L 221.261416 123.588864 
L 222.784757 123.228035 
L 223.394094 123.380485 
L 224.003431 123.986914 
L 224.612767 125.24706 
L 225.222104 127.32717 
L 225.83144 130.325906 
L 226.745445 136.52054 
L 227.964119 147.078836 
L 229.48746 160.49231 
L 230.401465 166.702969 
L 231.010802 169.67465 
L 231.620138 171.704343 
L 232.229475 172.920552 
L 232.838811 173.530709 
L 233.448148 173.766969 
L 234.666821 173.83654 
L 235.580826 173.744676 
L 236.190163 173.444949 
L 236.799499 172.726957 
L 237.408836 171.376264 
L 238.018173 169.219093 
L 238.627509 166.166306 
L 239.541514 159.986599 
L 240.760187 149.717163 
L 242.283529 136.817125 
L 243.197534 130.628476 
L 244.111539 126.172858 
L 244.720875 124.16683 
L 245.330212 122.834088 
L 245.939549 122.044386 
L 246.548885 121.654278 
L 247.158222 121.530028 
L 248.072227 121.621406 
L 248.986232 121.901634 
L 249.900236 122.424556 
L 250.509573 123.030559 
L 251.11891 123.970081 
L 251.728246 125.363429 
L 252.337583 127.31918 
L 252.94692 129.913709 
L 253.860924 135.042334 
L 255.079598 143.810384 
L 257.516944 162.32987 
L 258.430949 167.394928 
L 259.040286 169.855066 
L 259.649622 171.595429 
L 260.258959 172.7075 
L 260.868295 173.329544 
L 261.477632 173.61547 
L 262.391637 173.699434 
L 263.305642 173.560194 
L 263.914979 173.30206 
L 264.524315 172.783641 
L 265.133652 171.843809 
L 265.742988 170.309518 
L 266.352325 168.031011 
L 266.961662 164.914364 
L 267.875666 158.661794 
L 269.09434 148.008797 
L 271.227018 128.409489 
L 272.141023 121.852121 
L 273.055028 117.140404 
L 273.664364 115.062437 
L 274.273701 113.781086 
L 274.883037 113.216049 
L 275.187706 113.175037 
L 275.492374 113.281697 
L 276.101711 113.905974 
L 276.711047 115.042056 
L 277.320384 116.671043 
L 278.234389 120.048097 
L 279.148394 124.573808 
L 280.062399 130.202578 
L 281.58574 141.35688 
L 283.41375 154.929165 
L 284.327755 160.571428 
L 285.24176 165.014406 
L 286.155765 168.226534 
L 287.06977 170.381397 
L 287.983775 171.749309 
L 288.897779 172.564657 
L 289.507116 172.854679 
L 290.116453 172.926463 
L 290.725789 172.728703 
L 291.335126 172.187001 
L 291.944463 171.218904 
L 292.553799 169.751045 
L 293.163136 167.735512 
L 294.077141 163.677018 
L 294.991146 158.538181 
L 298.647165 136.281196 
L 299.56117 132.609207 
L 300.170507 130.813563 
L 300.779843 129.504747 
L 301.38918 128.619035 
L 301.998517 128.076451 
L 302.607853 127.794413 
L 303.521858 127.70671 
L 304.435863 127.894684 
L 305.349868 128.344125 
L 305.959205 128.841751 
L 306.568541 129.561386 
L 307.177878 130.565647 
L 307.787214 131.912839 
L 308.701219 134.667098 
L 309.615224 138.335566 
L 310.833897 144.460964 
L 314.489917 164.144174 
L 315.403922 167.421387 
L 316.013259 168.962507 
L 316.622595 169.958884 
L 317.231932 170.411902 
L 317.5366 170.440985 
L 317.841268 170.344197 
L 318.450605 169.796216 
L 319.059942 168.822357 
L 319.973947 166.705993 
L 321.19262 163.041372 
L 324.543971 152.365709 
L 325.457976 150.164185 
L 326.371981 148.43658 
L 327.285986 147.157512 
L 328.199991 146.235597 
L 329.723332 145.101853 
L 330.942006 144.141683 
L 332.160679 142.852664 
L 333.68402 140.796549 
L 334.902693 139.19393 
L 335.51203 138.597755 
L 336.121367 138.246887 
L 336.730703 138.219527 
L 337.34004 138.582527 
L 337.949377 139.384453 
L 338.558713 140.649649 
L 339.16805 142.373831 
L 340.082055 145.734673 
L 341.300728 151.235199 
L 343.128738 159.634261 
L 344.042743 162.831441 
L 344.652079 164.282639 
L 345.261416 165.073939 
L 345.566084 165.201425 
L 345.870752 165.143809 
L 346.175421 164.899466 
L 346.784757 163.856799 
L 347.394094 162.110652 
L 348.308099 158.344478 
L 349.526772 151.803452 
L 352.268787 136.325389 
L 353.182792 132.407302 
L 354.096797 129.472902 
L 354.706133 128.058723 
L 355.31547 127.032631 
L 355.924807 126.330036 
L 356.838811 125.707792 
L 360.190163 124.134333 
L 362.018173 122.858953 
L 362.627509 122.65566 
L 363.236846 122.713734 
L 363.846182 123.124087 
L 364.455519 123.964955 
L 365.064856 125.293022 
L 365.674192 127.135893 
L 366.588197 130.839925 
L 367.80687 137.200822 
L 370.244217 150.879571 
L 371.158222 154.604571 
L 371.767558 156.229106 
L 372.376895 157.032358 
L 372.681563 157.101903 
L 372.986232 156.942603 
L 373.2909 156.552429 
L 373.595568 155.932266 
L 373.595568 155.932266 
" style="fill:none;stroke:#d2691e;stroke-linecap:square;stroke-width:1.5;"/>
   </g>
   <g id="line2d_10">
    <path clip-path="url(#pfc526979f4)" d="M 69.231932 145.507051 
L 70.755273 144.068272 
L 72.278615 142.961069 
L 75.934635 140.53752 
L 77.457976 139.126665 
L 82.332669 134.199653 
L 83.551342 133.479513 
L 84.465347 133.176417 
L 85.379352 133.09806 
L 86.293357 133.262081 
L 87.207362 133.682546 
L 88.121367 134.362939 
L 89.34004 135.641009 
L 90.863381 137.650684 
L 93.300728 140.88991 
L 94.824069 142.484139 
L 96.956748 144.274482 
L 102.440777 148.563252 
L 103.354782 148.870782 
L 104.268787 148.901949 
L 105.182792 148.642396 
L 106.096797 148.123253 
L 107.620138 146.893066 
L 109.448148 145.393559 
L 110.666821 144.687355 
L 111.580826 144.374983 
L 112.799499 144.235547 
L 114.018173 144.347237 
L 115.846182 144.801572 
L 118.588197 145.761796 
L 122.244217 147.054842 
L 123.46289 147.222943 
L 124.376895 147.131178 
L 125.2909 146.798695 
L 126.204905 146.207274 
L 127.11891 145.375255 
L 128.337583 143.978713 
L 130.774929 140.735016 
L 133.212276 137.57351 
L 134.735617 135.95726 
L 135.954291 134.994043 
L 137.172964 134.320156 
L 141.742988 132.234937 
L 143.26633 131.388989 
L 144.180335 131.125852 
L 144.789671 131.159625 
L 145.399008 131.421151 
L 146.008345 131.954116 
L 146.617681 132.789499 
L 147.227018 133.941542 
L 148.141023 136.2466 
L 149.359696 140.212829 
L 152.711047 152.012258 
L 153.625052 154.190169 
L 154.234389 155.191057 
L 154.843725 155.803892 
L 155.453062 156.028936 
L 156.062399 155.887017 
L 156.671735 155.417527 
L 157.281072 154.674946 
L 158.195077 153.192171 
L 161.851096 146.667265 
L 163.374438 144.67883 
L 165.507116 142.375402 
L 167.335126 140.663781 
L 168.553799 139.74554 
L 169.467804 139.251439 
L 170.381809 138.994911 
L 170.991146 138.991822 
L 171.600482 139.146064 
L 172.209819 139.470233 
L 173.123824 140.274314 
L 174.037829 141.403496 
L 177.38918 146.0273 
L 178.607853 147.135095 
L 179.826526 147.919563 
L 181.349868 148.59738 
L 182.263873 148.809238 
L 183.177878 148.775761 
L 183.787214 148.570191 
L 184.396551 148.19545 
L 185.310556 147.313005 
L 186.529229 145.66418 
L 188.357239 143.088921 
L 188.966576 142.50333 
L 189.575912 142.175962 
L 190.185249 142.159458 
L 190.794585 142.482947 
L 191.403922 143.147774 
L 192.013259 144.126597 
L 192.927264 146.061869 
L 196.583283 154.578502 
L 197.497288 155.971967 
L 198.411293 156.963299 
L 199.325298 157.583896 
L 200.239303 157.867926 
L 201.153308 157.836827 
L 202.067313 157.492042 
L 202.981318 156.810746 
L 203.895322 155.746047 
L 204.809327 154.23892 
L 205.723332 152.246064 
L 206.942006 148.860386 
L 208.770015 142.805604 
L 210.598025 136.985828 
L 211.816698 133.83765 
L 213.035372 131.307983 
L 214.558713 128.691409 
L 216.386723 125.953704 
L 217.300728 124.85932 
L 217.910064 124.337274 
L 218.519401 124.04832 
L 219.128738 124.041443 
L 219.738074 124.345849 
L 220.347411 124.961341 
L 221.261416 126.379508 
L 223.698762 130.714294 
L 224.308099 131.265866 
L 224.917436 131.419018 
L 225.526772 131.154012 
L 226.136109 130.506918 
L 227.050114 129.028425 
L 228.573455 126.431635 
L 229.182792 125.797073 
L 229.792128 125.564787 
L 230.401465 125.77547 
L 231.010802 126.404017 
L 231.924807 127.923018 
L 233.448148 130.699497 
L 234.057485 131.408659 
L 234.666821 131.69522 
L 234.97149 131.659404 
L 235.580826 131.222344 
L 236.190163 130.33353 
L 237.104168 128.36327 
L 238.932178 123.943717 
L 239.541514 122.881817 
L 240.150851 122.211895 
L 240.760187 121.981477 
L 241.369524 122.188899 
L 241.978861 122.787365 
L 242.892865 124.232744 
L 245.939549 129.883228 
L 247.158222 131.524752 
L 249.2909 134.323429 
L 250.814241 136.867072 
L 252.337583 139.338743 
L 252.94692 139.995626 
L 253.556256 140.302806 
L 253.860924 140.296177 
L 254.165593 140.170914 
L 254.774929 139.544819 
L 255.384266 138.417431 
L 255.993603 136.837279 
L 257.212276 132.77377 
L 258.735617 127.662912 
L 259.649622 125.475008 
L 260.258959 124.551546 
L 260.868295 124.057526 
L 261.477632 123.942724 
L 262.086969 124.128191 
L 263.000974 124.774201 
L 267.26633 128.469078 
L 269.399008 130.079834 
L 270.313013 131.057911 
L 271.227018 132.405085 
L 272.141023 134.209832 
L 273.359696 137.31016 
L 277.320384 148.357123 
L 278.234389 149.907852 
L 278.843725 150.580637 
L 279.453062 150.956418 
L 280.062399 151.045635 
L 280.671735 150.873287 
L 281.281072 150.476728 
L 282.195077 149.56392 
L 283.718418 147.608838 
L 285.851096 144.940767 
L 287.374438 143.421348 
L 288.593111 142.49352 
L 289.811784 141.871902 
L 291.030458 141.545838 
L 292.858467 141.1451 
L 293.772472 140.638847 
L 294.686477 139.753351 
L 295.600482 138.497 
L 297.73316 135.31038 
L 298.342497 134.77569 
L 298.951834 134.580904 
L 299.56117 134.782293 
L 300.170507 135.398966 
L 300.779843 136.410562 
L 301.693848 138.535689 
L 305.0452 147.465966 
L 305.959205 148.912702 
L 306.568541 149.517088 
L 307.177878 149.856534 
L 307.787214 149.970845 
L 308.701219 149.826593 
L 309.615224 149.438418 
L 310.833897 148.683748 
L 311.747902 147.903183 
L 312.661907 146.791622 
L 313.575912 145.167341 
L 314.489917 142.883151 
L 315.403922 139.902417 
L 316.622595 135.077368 
L 318.755273 126.433384 
L 319.669278 123.595475 
L 320.583283 121.609731 
L 321.19262 120.763273 
L 321.801956 120.247683 
L 322.411293 119.986373 
L 323.325298 119.86308 
L 324.543971 119.696945 
L 325.153308 119.441108 
L 325.762644 119.013658 
L 326.676649 118.047839 
L 327.895322 116.340621 
L 329.418664 114.248962 
L 330.332669 113.420906 
L 330.942006 113.150335 
L 331.551342 113.134496 
L 332.160679 113.380239 
L 332.770015 113.880762 
L 333.379352 114.619257 
L 334.293357 116.122041 
L 335.51203 118.727097 
L 337.035372 122.678368 
L 339.16805 128.968923 
L 345.261416 147.374317 
L 347.089426 152.072122 
L 348.308099 154.705983 
L 349.526772 156.80812 
L 350.440777 157.988553 
L 351.354782 158.815239 
L 352.268787 159.296077 
L 353.182792 159.458131 
L 354.096797 159.347009 
L 355.010802 159.02371 
L 356.534143 158.197339 
L 359.580826 156.204311 
L 361.408836 154.782844 
L 362.932178 153.306772 
L 367.197534 148.803794 
L 368.111539 148.328662 
L 368.720875 148.204786 
L 369.330212 148.242334 
L 370.244217 148.584282 
L 371.158222 149.209465 
L 372.681563 150.615733 
L 373.595568 151.513687 
L 373.595568 151.513687 
" style="fill:none;stroke:#663399;stroke-linecap:square;stroke-width:1.5;"/>
   </g>
   <g id="patch_3">
    <path d="M 54.01375 173.850213 
L 54.01375 113.109787 
" style="fill:none;stroke:#000000;stroke-linecap:square;stroke-linejoin:miter;stroke-width:0.8;"/>
   </g>
   <g id="patch_4">
    <path d="M 388.81375 173.850213 
L 388.81375 113.109787 
" style="fill:none;stroke:#000000;stroke-linecap:square;stroke-linejoin:miter;stroke-width:0.8;"/>
   </g>
   <g id="patch_5">
    <path d="M 54.01375 173.850213 
L 388.81375 173.850213 
" style="fill:none;stroke:#000000;stroke-linecap:square;stroke-linejoin:miter;stroke-width:0.8;"/>
   </g>
   <g id="patch_6">
    <path d="M 54.01375 113.109787 
L 388.81375 113.109787 
" style="fill:none;stroke:#000000;stroke-linecap:square;stroke-linejoin:miter;stroke-width:0.8;"/>
   </g>
  </g>
  <g id="legend_1">
   <g id="line2d_11">
    <path d="M 305.244687 18.337813 
L 333.244687 18.337813 
" style="fill:none;stroke:#d2691e;stroke-linecap:square;stroke-width:1.5;"/>
   </g>
   <g id="line2d_12"/>
   <g id="text_11">
    <!-- Coherent -->
    <g transform="translate(344.444687 23.237813)scale(0.14 -0.14)">
     <defs>
      <path d="M 4122 4306 
L 4122 3641 
Q 3803 3938 3442 4084 
Q 3081 4231 2675 4231 
Q 1875 4231 1450 3742 
Q 1025 3253 1025 2328 
Q 1025 1406 1450 917 
Q 1875 428 2675 428 
Q 3081 428 3442 575 
Q 3803 722 4122 1019 
L 4122 359 
Q 3791 134 3420 21 
Q 3050 -91 2638 -91 
Q 1578 -91 968 557 
Q 359 1206 359 2328 
Q 359 3453 968 4101 
Q 1578 4750 2638 4750 
Q 3056 4750 3426 4639 
Q 3797 4528 4122 4306 
z
" id="DejaVuSans-43" transform="scale(0.015625)"/>
      <path d="M 1959 3097 
Q 1497 3097 1228 2736 
Q 959 2375 959 1747 
Q 959 1119 1226 758 
Q 1494 397 1959 397 
Q 2419 397 2687 759 
Q 2956 1122 2956 1747 
Q 2956 2369 2687 2733 
Q 2419 3097 1959 3097 
z
M 1959 3584 
Q 2709 3584 3137 3096 
Q 3566 2609 3566 1747 
Q 3566 888 3137 398 
Q 2709 -91 1959 -91 
Q 1206 -91 779 398 
Q 353 888 353 1747 
Q 353 2609 779 3096 
Q 1206 3584 1959 3584 
z
" id="DejaVuSans-6f" transform="scale(0.015625)"/>
      <path d="M 3513 2113 
L 3513 0 
L 2938 0 
L 2938 2094 
Q 2938 2591 2744 2837 
Q 2550 3084 2163 3084 
Q 1697 3084 1428 2787 
Q 1159 2491 1159 1978 
L 1159 0 
L 581 0 
L 581 4863 
L 1159 4863 
L 1159 2956 
Q 1366 3272 1645 3428 
Q 1925 3584 2291 3584 
Q 2894 3584 3203 3211 
Q 3513 2838 3513 2113 
z
" id="DejaVuSans-68" transform="scale(0.015625)"/>
      <path d="M 3597 1894 
L 3597 1613 
L 953 1613 
Q 991 1019 1311 708 
Q 1631 397 2203 397 
Q 2534 397 2845 478 
Q 3156 559 3463 722 
L 3463 178 
Q 3153 47 2828 -22 
Q 2503 -91 2169 -91 
Q 1331 -91 842 396 
Q 353 884 353 1716 
Q 353 2575 817 3079 
Q 1281 3584 2069 3584 
Q 2775 3584 3186 3129 
Q 3597 2675 3597 1894 
z
M 3022 2063 
Q 3016 2534 2758 2815 
Q 2500 3097 2075 3097 
Q 1594 3097 1305 2825 
Q 1016 2553 972 2059 
L 3022 2063 
z
" id="DejaVuSans-65" transform="scale(0.015625)"/>
     </defs>
     <use xlink:href="#DejaVuSans-43"/>
     <use x="69.824219" xlink:href="#DejaVuSans-6f"/>
     <use x="131.005859" xlink:href="#DejaVuSans-68"/>
     <use x="194.384766" xlink:href="#DejaVuSans-65"/>
     <use x="255.908203" xlink:href="#DejaVuSans-72"/>
     <use x="294.771484" xlink:href="#DejaVuSans-65"/>
     <use x="356.294922" xlink:href="#DejaVuSans-6e"/>
     <use x="419.673828" xlink:href="#DejaVuSans-74"/>
    </g>
   </g>
   <g id="line2d_13">
    <path d="M 305.244687 38.887188 
L 333.244687 38.887188 
" style="fill:none;stroke:#663399;stroke-linecap:square;stroke-width:1.5;"/>
   </g>
   <g id="line2d_14"/>
   <g id="text_12">
    <!-- Incoherent -->
    <g transform="translate(344.444687 43.787188)scale(0.14 -0.14)">
     <defs>
      <path d="M 3122 3366 
L 3122 2828 
Q 2878 2963 2633 3030 
Q 2388 3097 2138 3097 
Q 1578 3097 1268 2742 
Q 959 2388 959 1747 
Q 959 1106 1268 751 
Q 1578 397 2138 397 
Q 2388 397 2633 464 
Q 2878 531 3122 666 
L 3122 134 
Q 2881 22 2623 -34 
Q 2366 -91 2075 -91 
Q 1284 -91 818 406 
Q 353 903 353 1747 
Q 353 2603 823 3093 
Q 1294 3584 2113 3584 
Q 2378 3584 2631 3529 
Q 2884 3475 3122 3366 
z
" id="DejaVuSans-63" transform="scale(0.015625)"/>
     </defs>
     <use xlink:href="#DejaVuSans-49"/>
     <use x="29.492188" xlink:href="#DejaVuSans-6e"/>
     <use x="92.871094" xlink:href="#DejaVuSans-63"/>
     <use x="147.851562" xlink:href="#DejaVuSans-6f"/>
     <use x="209.033203" xlink:href="#DejaVuSans-68"/>
     <use x="272.412109" xlink:href="#DejaVuSans-65"/>
     <use x="333.935547" xlink:href="#DejaVuSans-72"/>
     <use x="372.798828" xlink:href="#DejaVuSans-65"/>
     <use x="434.322266" xlink:href="#DejaVuSans-6e"/>
     <use x="497.701172" xlink:href="#DejaVuSans-74"/>
    </g>
   </g>
  </g>
 </g>
 <defs>
  <clipPath id="pfc526979f4">
   <rect height="60.740425" width="334.8" x="54.01375" y="113.109787"/>
  </clipPath>
 </defs>
</svg>
