<?xml version="1.0" encoding="utf-8" standalone="no"?>
<!DOCTYPE svg PUBLIC "-//W3C//DTD SVG 1.1//EN"
  "http://www.w3.org/Graphics/SVG/1.1/DTD/svg11.dtd">
<svg height="221.015327pt" version="1.1" viewBox="0 0 432.21375 221.015327" width="432.21375pt" xmlns="http://www.w3.org/2000/svg" xmlns:xlink="http://www.w3.org/1999/xlink">
 <metadata>
  <rdf:RDF xmlns:cc="http://creativecommons.org/ns#" xmlns:dc="http://purl.org/dc/elements/1.1/" xmlns:rdf="http://www.w3.org/1999/02/22-rdf-syntax-ns#">
   <cc:Work>
    <dc:type rdf:resource="http://purl.org/dc/dcmitype/StillImage"/>
    <dc:date>2022-03-02T11:29:43.403032</dc:date>
    <dc:format>image/svg+xml</dc:format>
    <dc:creator>
     <cc:Agent>
      <dc:title>Matplotlib v3.4.3, https://matplotlib.org/</dc:title>
     </cc:Agent>
    </dc:creator>
   </cc:Work>
  </rdf:RDF>
 </metadata>
 <defs>
  <style type="text/css">*{stroke-linecap:butt;stroke-linejoin:round;}</style>
 </defs>
 <g id="figure_1">
  <g id="patch_1">
   <path d="M -0 221.015327 
L 432.21375 221.015327 
L 432.21375 0 
L -0 0 
z
" style="fill:none;"/>
  </g>
  <g id="axes_1">
   <g id="patch_2">
    <path d="M 54.01375 175.685952 
L 388.81375 175.685952 
L 388.81375 111.274048 
L 54.01375 111.274048 
z
" style="fill:#ffffff;"/>
   </g>
   <g id="matplotlib.axis_1">
    <g id="xtick_1">
     <g id="line2d_1">
      <defs>
       <path d="M 0 0 
L 0 3.5 
" id="me235944020" style="stroke:#000000;stroke-width:0.8;"/>
      </defs>
      <g>
       <use style="stroke:#000000;stroke-width:0.8;" x="92.589943" xlink:href="#me235944020" y="175.685952"/>
      </g>
     </g>
     <g id="text_1">
      <!-- −20 -->
      <g transform="translate(77.816661 193.323764)scale(0.14 -0.14)">
       <defs>
        <path d="M 678 2272 
L 4684 2272 
L 4684 1741 
L 678 1741 
L 678 2272 
z
" id="DejaVuSans-2212" transform="scale(0.015625)"/>
        <path d="M 1228 531 
L 3431 531 
L 3431 0 
L 469 0 
L 469 531 
Q 828 903 1448 1529 
Q 2069 2156 2228 2338 
Q 2531 2678 2651 2914 
Q 2772 3150 2772 3378 
Q 2772 3750 2511 3984 
Q 2250 4219 1831 4219 
Q 1534 4219 1204 4116 
Q 875 4013 500 3803 
L 500 4441 
Q 881 4594 1212 4672 
Q 1544 4750 1819 4750 
Q 2544 4750 2975 4387 
Q 3406 4025 3406 3419 
Q 3406 3131 3298 2873 
Q 3191 2616 2906 2266 
Q 2828 2175 2409 1742 
Q 1991 1309 1228 531 
z
" id="DejaVuSans-32" transform="scale(0.015625)"/>
        <path d="M 2034 4250 
Q 1547 4250 1301 3770 
Q 1056 3291 1056 2328 
Q 1056 1369 1301 889 
Q 1547 409 2034 409 
Q 2525 409 2770 889 
Q 3016 1369 3016 2328 
Q 3016 3291 2770 3770 
Q 2525 4250 2034 4250 
z
M 2034 4750 
Q 2819 4750 3233 4129 
Q 3647 3509 3647 2328 
Q 3647 1150 3233 529 
Q 2819 -91 2034 -91 
Q 1250 -91 836 529 
Q 422 1150 422 2328 
Q 422 3509 836 4129 
Q 1250 4750 2034 4750 
z
" id="DejaVuSans-30" transform="scale(0.015625)"/>
       </defs>
       <use xlink:href="#DejaVuSans-2212"/>
       <use x="83.789062" xlink:href="#DejaVuSans-32"/>
       <use x="147.412109" xlink:href="#DejaVuSans-30"/>
      </g>
     </g>
    </g>
    <g id="xtick_2">
     <g id="line2d_2">
      <g>
       <use style="stroke:#000000;stroke-width:0.8;" x="157.001846" xlink:href="#me235944020" y="175.685952"/>
      </g>
     </g>
     <g id="text_2">
      <!-- −10 -->
      <g transform="translate(142.228565 193.323764)scale(0.14 -0.14)">
       <defs>
        <path d="M 794 531 
L 1825 531 
L 1825 4091 
L 703 3866 
L 703 4441 
L 1819 4666 
L 2450 4666 
L 2450 531 
L 3481 531 
L 3481 0 
L 794 0 
L 794 531 
z
" id="DejaVuSans-31" transform="scale(0.015625)"/>
       </defs>
       <use xlink:href="#DejaVuSans-2212"/>
       <use x="83.789062" xlink:href="#DejaVuSans-31"/>
       <use x="147.412109" xlink:href="#DejaVuSans-30"/>
      </g>
     </g>
    </g>
    <g id="xtick_3">
     <g id="line2d_3">
      <g>
       <use style="stroke:#000000;stroke-width:0.8;" x="221.41375" xlink:href="#me235944020" y="175.685952"/>
      </g>
     </g>
     <g id="text_3">
      <!-- 0 -->
      <g transform="translate(216.96 193.323764)scale(0.14 -0.14)">
       <use xlink:href="#DejaVuSans-30"/>
      </g>
     </g>
    </g>
    <g id="xtick_4">
     <g id="line2d_4">
      <g>
       <use style="stroke:#000000;stroke-width:0.8;" x="285.825654" xlink:href="#me235944020" y="175.685952"/>
      </g>
     </g>
     <g id="text_4">
      <!-- 10 -->
      <g transform="translate(276.918154 193.323764)scale(0.14 -0.14)">
       <use xlink:href="#DejaVuSans-31"/>
       <use x="63.623047" xlink:href="#DejaVuSans-30"/>
      </g>
     </g>
    </g>
    <g id="xtick_5">
     <g id="line2d_5">
      <g>
       <use style="stroke:#000000;stroke-width:0.8;" x="350.237557" xlink:href="#me235944020" y="175.685952"/>
      </g>
     </g>
     <g id="text_5">
      <!-- 20 -->
      <g transform="translate(341.330057 193.323764)scale(0.14 -0.14)">
       <use xlink:href="#DejaVuSans-32"/>
       <use x="63.623047" xlink:href="#DejaVuSans-30"/>
      </g>
     </g>
    </g>
    <g id="text_6">
     <!-- x [$\mathrm{\mu m}$] -->
     <g transform="translate(198.24375 210.875327)scale(0.14 -0.14)">
      <defs>
       <path d="M 3513 3500 
L 2247 1797 
L 3578 0 
L 2900 0 
L 1881 1375 
L 863 0 
L 184 0 
L 1544 1831 
L 300 3500 
L 978 3500 
L 1906 2253 
L 2834 3500 
L 3513 3500 
z
" id="DejaVuSans-78" transform="scale(0.015625)"/>
       <path id="DejaVuSans-20" transform="scale(0.015625)"/>
       <path d="M 550 4863 
L 1875 4863 
L 1875 4416 
L 1125 4416 
L 1125 -397 
L 1875 -397 
L 1875 -844 
L 550 -844 
L 550 4863 
z
" id="DejaVuSans-5b" transform="scale(0.015625)"/>
       <path d="M 544 -1331 
L 544 3500 
L 1119 3500 
L 1119 1325 
Q 1119 872 1334 640 
Q 1550 409 1972 409 
Q 2434 409 2667 671 
Q 2900 934 2900 1459 
L 2900 3500 
L 3475 3500 
L 3475 806 
Q 3475 619 3529 530 
Q 3584 441 3700 441 
Q 3728 441 3778 458 
Q 3828 475 3916 513 
L 3916 50 
Q 3788 -22 3673 -56 
Q 3559 -91 3450 -91 
Q 3234 -91 3106 31 
Q 2978 153 2931 403 
Q 2775 156 2548 32 
Q 2322 -91 2016 -91 
Q 1697 -91 1473 31 
Q 1250 153 1119 397 
L 1119 -1331 
L 544 -1331 
z
" id="DejaVuSans-3bc" transform="scale(0.015625)"/>
       <path d="M 3328 2828 
Q 3544 3216 3844 3400 
Q 4144 3584 4550 3584 
Q 5097 3584 5394 3201 
Q 5691 2819 5691 2113 
L 5691 0 
L 5113 0 
L 5113 2094 
Q 5113 2597 4934 2840 
Q 4756 3084 4391 3084 
Q 3944 3084 3684 2787 
Q 3425 2491 3425 1978 
L 3425 0 
L 2847 0 
L 2847 2094 
Q 2847 2600 2669 2842 
Q 2491 3084 2119 3084 
Q 1678 3084 1418 2786 
Q 1159 2488 1159 1978 
L 1159 0 
L 581 0 
L 581 3500 
L 1159 3500 
L 1159 2956 
Q 1356 3278 1631 3431 
Q 1906 3584 2284 3584 
Q 2666 3584 2933 3390 
Q 3200 3197 3328 2828 
z
" id="DejaVuSans-6d" transform="scale(0.015625)"/>
       <path d="M 1947 4863 
L 1947 -844 
L 622 -844 
L 622 -397 
L 1369 -397 
L 1369 4416 
L 622 4416 
L 622 4863 
L 1947 4863 
z
" id="DejaVuSans-5d" transform="scale(0.015625)"/>
      </defs>
      <use transform="translate(0 0.015625)" xlink:href="#DejaVuSans-78"/>
      <use transform="translate(59.179688 0.015625)" xlink:href="#DejaVuSans-20"/>
      <use transform="translate(90.966797 0.015625)" xlink:href="#DejaVuSans-5b"/>
      <use transform="translate(129.980469 0.015625)" xlink:href="#DejaVuSans-3bc"/>
      <use transform="translate(193.603516 0.015625)" xlink:href="#DejaVuSans-6d"/>
      <use transform="translate(291.015625 0.015625)" xlink:href="#DejaVuSans-5d"/>
     </g>
    </g>
   </g>
   <g id="matplotlib.axis_2">
    <g id="ytick_1">
     <g id="line2d_6">
      <defs>
       <path d="M 0 0 
L -3.5 0 
" id="mafd37593bc" style="stroke:#000000;stroke-width:0.8;"/>
      </defs>
      <g>
       <use style="stroke:#000000;stroke-width:0.8;" x="54.01375" xlink:href="#mafd37593bc" y="175.685952"/>
      </g>
     </g>
     <g id="text_7">
      <!-- 0.0 -->
      <g transform="translate(24.749375 181.004858)scale(0.14 -0.14)">
       <defs>
        <path d="M 684 794 
L 1344 794 
L 1344 0 
L 684 0 
L 684 794 
z
" id="DejaVuSans-2e" transform="scale(0.015625)"/>
       </defs>
       <use xlink:href="#DejaVuSans-30"/>
       <use x="63.623047" xlink:href="#DejaVuSans-2e"/>
       <use x="95.410156" xlink:href="#DejaVuSans-30"/>
      </g>
     </g>
    </g>
    <g id="ytick_2">
     <g id="line2d_7">
      <g>
       <use style="stroke:#000000;stroke-width:0.8;" x="54.01375" xlink:href="#mafd37593bc" y="143.48"/>
      </g>
     </g>
     <g id="text_8">
      <!-- 0.5 -->
      <g transform="translate(24.749375 148.798906)scale(0.14 -0.14)">
       <defs>
        <path d="M 691 4666 
L 3169 4666 
L 3169 4134 
L 1269 4134 
L 1269 2991 
Q 1406 3038 1543 3061 
Q 1681 3084 1819 3084 
Q 2600 3084 3056 2656 
Q 3513 2228 3513 1497 
Q 3513 744 3044 326 
Q 2575 -91 1722 -91 
Q 1428 -91 1123 -41 
Q 819 9 494 109 
L 494 744 
Q 775 591 1075 516 
Q 1375 441 1709 441 
Q 2250 441 2565 725 
Q 2881 1009 2881 1497 
Q 2881 1984 2565 2268 
Q 2250 2553 1709 2553 
Q 1456 2553 1204 2497 
Q 953 2441 691 2322 
L 691 4666 
z
" id="DejaVuSans-35" transform="scale(0.015625)"/>
       </defs>
       <use xlink:href="#DejaVuSans-30"/>
       <use x="63.623047" xlink:href="#DejaVuSans-2e"/>
       <use x="95.410156" xlink:href="#DejaVuSans-35"/>
      </g>
     </g>
    </g>
    <g id="ytick_3">
     <g id="line2d_8">
      <g>
       <use style="stroke:#000000;stroke-width:0.8;" x="54.01375" xlink:href="#mafd37593bc" y="111.274048"/>
      </g>
     </g>
     <g id="text_9">
      <!-- 1.0 -->
      <g transform="translate(24.749375 116.592954)scale(0.14 -0.14)">
       <use xlink:href="#DejaVuSans-31"/>
       <use x="63.623047" xlink:href="#DejaVuSans-2e"/>
       <use x="95.410156" xlink:href="#DejaVuSans-30"/>
      </g>
     </g>
    </g>
    <g id="text_10">
     <!-- Int [arb.] -->
     <g transform="translate(17.837812 174.248281)rotate(-90)scale(0.14 -0.14)">
      <defs>
       <path d="M 628 4666 
L 1259 4666 
L 1259 0 
L 628 0 
L 628 4666 
z
" id="DejaVuSans-49" transform="scale(0.015625)"/>
       <path d="M 3513 2113 
L 3513 0 
L 2938 0 
L 2938 2094 
Q 2938 2591 2744 2837 
Q 2550 3084 2163 3084 
Q 1697 3084 1428 2787 
Q 1159 2491 1159 1978 
L 1159 0 
L 581 0 
L 581 3500 
L 1159 3500 
L 1159 2956 
Q 1366 3272 1645 3428 
Q 1925 3584 2291 3584 
Q 2894 3584 3203 3211 
Q 3513 2838 3513 2113 
z
" id="DejaVuSans-6e" transform="scale(0.015625)"/>
       <path d="M 1172 4494 
L 1172 3500 
L 2356 3500 
L 2356 3053 
L 1172 3053 
L 1172 1153 
Q 1172 725 1289 603 
Q 1406 481 1766 481 
L 2356 481 
L 2356 0 
L 1766 0 
Q 1100 0 847 248 
Q 594 497 594 1153 
L 594 3053 
L 172 3053 
L 172 3500 
L 594 3500 
L 594 4494 
L 1172 4494 
z
" id="DejaVuSans-74" transform="scale(0.015625)"/>
       <path d="M 2194 1759 
Q 1497 1759 1228 1600 
Q 959 1441 959 1056 
Q 959 750 1161 570 
Q 1363 391 1709 391 
Q 2188 391 2477 730 
Q 2766 1069 2766 1631 
L 2766 1759 
L 2194 1759 
z
M 3341 1997 
L 3341 0 
L 2766 0 
L 2766 531 
Q 2569 213 2275 61 
Q 1981 -91 1556 -91 
Q 1019 -91 701 211 
Q 384 513 384 1019 
Q 384 1609 779 1909 
Q 1175 2209 1959 2209 
L 2766 2209 
L 2766 2266 
Q 2766 2663 2505 2880 
Q 2244 3097 1772 3097 
Q 1472 3097 1187 3025 
Q 903 2953 641 2809 
L 641 3341 
Q 956 3463 1253 3523 
Q 1550 3584 1831 3584 
Q 2591 3584 2966 3190 
Q 3341 2797 3341 1997 
z
" id="DejaVuSans-61" transform="scale(0.015625)"/>
       <path d="M 2631 2963 
Q 2534 3019 2420 3045 
Q 2306 3072 2169 3072 
Q 1681 3072 1420 2755 
Q 1159 2438 1159 1844 
L 1159 0 
L 581 0 
L 581 3500 
L 1159 3500 
L 1159 2956 
Q 1341 3275 1631 3429 
Q 1922 3584 2338 3584 
Q 2397 3584 2469 3576 
Q 2541 3569 2628 3553 
L 2631 2963 
z
" id="DejaVuSans-72" transform="scale(0.015625)"/>
       <path d="M 3116 1747 
Q 3116 2381 2855 2742 
Q 2594 3103 2138 3103 
Q 1681 3103 1420 2742 
Q 1159 2381 1159 1747 
Q 1159 1113 1420 752 
Q 1681 391 2138 391 
Q 2594 391 2855 752 
Q 3116 1113 3116 1747 
z
M 1159 2969 
Q 1341 3281 1617 3432 
Q 1894 3584 2278 3584 
Q 2916 3584 3314 3078 
Q 3713 2572 3713 1747 
Q 3713 922 3314 415 
Q 2916 -91 2278 -91 
Q 1894 -91 1617 61 
Q 1341 213 1159 525 
L 1159 0 
L 581 0 
L 581 4863 
L 1159 4863 
L 1159 2969 
z
" id="DejaVuSans-62" transform="scale(0.015625)"/>
      </defs>
      <use xlink:href="#DejaVuSans-49"/>
      <use x="29.492188" xlink:href="#DejaVuSans-6e"/>
      <use x="92.871094" xlink:href="#DejaVuSans-74"/>
      <use x="132.080078" xlink:href="#DejaVuSans-20"/>
      <use x="163.867188" xlink:href="#DejaVuSans-5b"/>
      <use x="202.880859" xlink:href="#DejaVuSans-61"/>
      <use x="264.160156" xlink:href="#DejaVuSans-72"/>
      <use x="305.273438" xlink:href="#DejaVuSans-62"/>
      <use x="368.75" xlink:href="#DejaVuSans-2e"/>
      <use x="400.537109" xlink:href="#DejaVuSans-5d"/>
     </g>
    </g>
   </g>
   <g id="line2d_9">
    <path clip-path="url(#p5f645084cc)" d="M 69.231932 157.404551 
L 69.841268 155.98465 
L 70.450605 153.764555 
L 71.36461 149.249414 
L 72.887951 140.040777 
L 74.411293 131.186602 
L 75.325298 126.996598 
L 76.239303 123.980465 
L 76.848639 122.649257 
L 77.457976 121.82677 
L 78.067313 121.448868 
L 78.676649 121.429927 
L 79.285986 121.672417 
L 80.504659 122.552056 
L 82.028001 123.614486 
L 83.246674 124.142063 
L 84.465347 124.636705 
L 85.074684 125.051604 
L 85.68402 125.69684 
L 86.293357 126.659764 
L 86.902693 128.015121 
L 87.51203 129.816507 
L 88.426035 133.401767 
L 89.34004 137.985449 
L 90.863381 147.149274 
L 92.691391 158.136515 
L 93.605396 162.420256 
L 94.214733 164.514793 
L 94.824069 165.889194 
L 95.128738 166.287881 
L 95.433406 166.489449 
L 95.738074 166.493622 
L 96.042743 166.302796 
L 96.347411 165.921998 
L 96.956748 164.62319 
L 97.566084 162.685663 
L 98.480089 158.85225 
L 101.83144 143.067004 
L 102.745445 140.260047 
L 103.354782 138.995105 
L 103.964119 138.218702 
L 104.573455 137.900004 
L 105.182792 137.983631 
L 105.792128 138.39627 
L 106.706133 139.447928 
L 110.057485 143.944916 
L 111.276158 145.012545 
L 113.104168 146.475348 
L 114.018173 147.492237 
L 114.932178 148.897457 
L 115.846182 150.779912 
L 116.760187 153.158875 
L 117.978861 156.99694 
L 121.330212 168.346523 
L 122.244217 170.523045 
L 122.853553 171.497904 
L 123.46289 172.012064 
L 123.767558 172.078334 
L 124.072227 172.009557 
L 124.376895 171.801191 
L 124.986232 170.953742 
L 125.595568 169.526069 
L 126.204905 167.532577 
L 127.11891 163.577259 
L 128.337583 156.914963 
L 131.384266 139.073467 
L 132.298271 134.961461 
L 133.212276 131.814817 
L 134.126281 129.615345 
L 134.735617 128.605285 
L 135.344954 127.88708 
L 136.258959 127.211846 
L 137.172964 126.86293 
L 138.086969 126.771868 
L 138.696305 126.888177 
L 139.305642 127.211769 
L 139.914979 127.822817 
L 140.524315 128.810581 
L 141.133652 130.259508 
L 141.742988 132.23462 
L 142.656993 136.243104 
L 143.570998 141.422146 
L 145.09434 151.718739 
L 146.617681 161.903551 
L 147.531686 166.903703 
L 148.445691 170.649393 
L 149.055028 172.408168 
L 149.664364 173.614513 
L 150.273701 174.338951 
L 150.883037 174.667814 
L 151.492374 174.685015 
L 152.101711 174.455065 
L 152.711047 174.010238 
L 153.320384 173.344087 
L 153.929721 172.41254 
L 154.539057 171.142496 
L 155.148394 169.446567 
L 155.75773 167.241503 
L 156.671735 162.858074 
L 157.58574 157.176568 
L 158.804413 148.012343 
L 161.546428 126.745731 
L 162.460433 121.234895 
L 163.374438 116.928632 
L 164.288443 113.833171 
L 164.897779 112.42885 
L 165.507116 111.562741 
L 165.811784 111.342611 
L 166.116453 111.274048 
L 166.421121 111.366353 
L 166.725789 111.630092 
L 167.335126 112.717364 
L 167.944463 114.624082 
L 168.553799 117.417277 
L 169.163136 121.118832 
L 170.077141 128.258936 
L 171.295814 139.918043 
L 173.123824 157.740416 
L 174.037829 164.80719 
L 174.951834 169.905867 
L 175.56117 172.199622 
L 176.170507 173.725562 
L 176.779843 174.64786 
L 177.38918 175.149931 
L 177.998517 175.397436 
L 178.912521 175.525557 
L 179.826526 175.408001 
L 180.435863 175.065376 
L 181.0452 174.344312 
L 181.654536 173.082047 
L 182.263873 171.137125 
L 182.873209 168.421493 
L 183.787214 162.900722 
L 185.005888 153.436228 
L 187.138566 136.069598 
L 188.052571 130.262252 
L 188.966576 126.009879 
L 189.575912 124.021064 
L 190.185249 122.615131 
L 190.794585 121.673902 
L 191.403922 121.069607 
L 192.317927 120.547077 
L 193.231932 120.266678 
L 194.145937 120.193647 
L 194.755273 120.356504 
L 195.36461 120.819796 
L 195.973947 121.728387 
L 196.583283 123.23434 
L 197.19262 125.472003 
L 197.801956 128.531019 
L 198.715961 134.679358 
L 199.934635 145.186147 
L 201.762644 161.684561 
L 202.676649 168.060768 
L 203.285986 171.161467 
L 203.895322 173.318236 
L 204.504659 174.64106 
L 205.113996 175.32401 
L 205.723332 175.596451 
L 206.637337 175.67195 
L 207.85601 175.577189 
L 208.465347 175.283644 
L 209.074684 174.558557 
L 209.68402 173.155933 
L 210.293357 170.865066 
L 210.902693 167.566334 
L 211.816698 160.787634 
L 213.035372 149.435733 
L 214.558713 135.427622 
L 215.472718 129.068903 
L 216.082055 126.03798 
L 216.691391 123.968138 
L 217.300728 122.741962 
L 217.910064 122.175844 
L 218.519401 122.056278 
L 219.433406 122.264505 
L 220.347411 122.462784 
L 221.261416 122.386537 
L 222.784757 122.003897 
L 223.394094 122.165562 
L 223.698762 122.413286 
L 224.308099 123.377868 
L 224.917436 125.13057 
L 225.526772 127.816204 
L 226.136109 131.491437 
L 227.050114 138.703014 
L 230.401465 168.10669 
L 231.010802 171.257995 
L 231.620138 173.410374 
L 232.229475 174.700098 
L 232.838811 175.347136 
L 233.448148 175.597676 
L 234.666821 175.671452 
L 235.580826 175.574037 
L 236.190163 175.256192 
L 236.799499 174.4948 
L 237.408836 173.062464 
L 238.018173 170.774903 
L 238.627509 167.537588 
L 239.541514 160.984347 
L 240.760187 150.094171 
L 242.283529 136.414385 
L 243.197534 129.851661 
L 244.111539 125.126721 
L 244.720875 122.999438 
L 245.330212 121.586138 
L 245.939549 120.748702 
L 246.548885 120.335014 
L 247.158222 120.203253 
L 248.072227 120.300155 
L 248.986232 120.597321 
L 249.900236 121.151851 
L 250.509573 121.794484 
L 251.11891 122.790796 
L 251.728246 124.268366 
L 252.337583 126.342333 
L 252.94692 129.093689 
L 253.860924 134.532316 
L 255.079598 143.830354 
L 257.516944 163.469258 
L 258.430949 168.840475 
L 259.040286 171.449317 
L 259.649622 173.294877 
L 260.258959 174.474168 
L 260.868295 175.133812 
L 261.477632 175.43702 
L 262.391637 175.52606 
L 263.305642 175.378403 
L 263.914979 175.104666 
L 264.524315 174.554911 
L 265.133652 173.558271 
L 265.742988 171.931238 
L 266.352325 169.515007 
L 266.961662 166.209972 
L 267.875666 159.579463 
L 269.09434 148.282542 
L 271.227018 127.498546 
L 272.141023 120.544815 
L 273.055028 115.548297 
L 273.664364 113.344726 
L 274.273701 111.985924 
L 274.883037 111.386733 
L 275.187706 111.343242 
L 275.492374 111.456349 
L 276.101711 112.118361 
L 276.711047 113.323114 
L 277.320384 115.050566 
L 278.234389 118.631746 
L 279.148394 123.431015 
L 280.062399 129.400019 
L 281.58574 141.228547 
L 283.41375 155.621214 
L 284.327755 161.604526 
L 285.24176 166.316061 
L 286.155765 169.722348 
L 287.06977 172.007462 
L 287.679106 173.049658 
L 288.593111 174.0896 
L 289.202448 174.503295 
L 289.811784 174.699901 
L 290.421121 174.641764 
L 291.030458 174.260495 
L 291.639794 173.470724 
L 292.249131 172.18754 
L 292.858467 170.344634 
L 293.467804 167.91017 
L 294.381809 163.192948 
L 295.600482 155.371361 
L 298.037829 139.110801 
L 298.951834 134.40946 
L 299.865838 130.932328 
L 300.475175 129.293092 
L 301.084512 128.139365 
L 301.693848 127.39316 
L 302.303185 126.966494 
L 302.912521 126.775608 
L 303.826526 126.791135 
L 304.740531 127.077128 
L 305.654536 127.667678 
L 306.263873 128.304948 
L 306.873209 129.210721 
L 307.482546 130.4505 
L 308.091883 132.07979 
L 309.005888 135.325145 
L 309.919893 139.523723 
L 311.138566 146.314712 
L 313.88058 162.476523 
L 314.794585 166.68036 
L 315.70859 169.757008 
L 316.317927 171.103791 
L 316.927264 171.870624 
L 317.231932 172.039811 
L 317.5366 172.070652 
L 317.841268 171.968014 
L 318.450605 171.38691 
L 319.059942 170.354185 
L 319.973947 168.109897 
L 321.19262 164.223767 
L 324.543971 152.902809 
L 325.457976 150.568214 
L 326.371981 148.736182 
L 327.285986 147.379801 
L 328.199991 146.40216 
L 329.723332 145.199887 
L 330.942006 144.181679 
L 332.160679 142.814744 
L 333.68402 140.634347 
L 334.902693 138.934857 
L 335.51203 138.302646 
L 336.121367 137.93057 
L 336.730703 137.901556 
L 337.34004 138.286497 
L 337.949377 139.136896 
L 338.558713 140.478567 
L 339.16805 142.306968 
L 340.082055 145.870958 
L 341.300728 151.703965 
L 343.128738 160.610711 
L 344.042743 164.001146 
L 344.652079 165.540062 
L 345.261416 166.379193 
L 345.566084 166.514385 
L 345.870752 166.453286 
L 346.175421 166.194174 
L 346.784757 165.088482 
L 347.394094 163.236789 
L 348.003431 160.718177 
L 348.917436 155.944265 
L 350.745445 144.650624 
L 352.268787 135.892926 
L 353.182792 131.738008 
L 354.096797 128.626237 
L 354.706133 127.126578 
L 355.31547 126.038463 
L 355.924807 125.2934 
L 356.534143 124.8075 
L 357.448148 124.367934 
L 359.276158 123.585052 
L 360.494831 122.727007 
L 362.018173 121.612506 
L 362.627509 121.396924 
L 363.236846 121.458509 
L 363.846182 121.893666 
L 364.455519 122.78536 
L 365.064856 124.193703 
L 365.674192 126.147967 
L 366.588197 130.07589 
L 367.80687 136.821274 
L 370.244217 151.326841 
L 371.158222 155.277 
L 371.767558 156.999731 
L 372.072227 157.540303 
L 372.376895 157.851536 
L 372.681563 157.925284 
L 372.986232 157.756355 
L 373.2909 157.342598 
L 373.595568 156.684948 
L 373.595568 156.684948 
" style="fill:none;stroke:#d2691e;stroke-linecap:square;stroke-width:1.5;"/>
   </g>
   <g id="line2d_10">
    <path clip-path="url(#p5f645084cc)" d="M 69.231932 145.629577 
L 70.755273 144.10383 
L 72.278615 142.929702 
L 75.934635 140.359661 
L 77.457976 138.863526 
L 82.332669 133.638699 
L 83.551342 132.87503 
L 84.465347 132.553613 
L 85.379352 132.47052 
L 86.293357 132.644455 
L 87.207362 133.090335 
L 88.121367 133.811855 
L 89.035372 134.790971 
L 90.254045 136.409145 
L 93.605396 141.104557 
L 95.128738 142.717618 
L 97.870752 145.110128 
L 101.83144 148.515876 
L 102.745445 149.009071 
L 103.65945 149.241899 
L 104.573455 149.171577 
L 105.48746 148.798491 
L 106.401465 148.171641 
L 108.229475 146.535903 
L 109.752816 145.291126 
L 110.97149 144.627547 
L 111.885494 144.362423 
L 113.104168 144.289449 
L 114.322841 144.460008 
L 116.150851 144.982734 
L 119.197534 146.14708 
L 121.939549 147.187176 
L 123.158222 147.432992 
L 124.072227 147.41069 
L 124.986232 147.147156 
L 125.900236 146.611282 
L 126.814241 145.809568 
L 128.032915 144.404309 
L 129.860924 141.887841 
L 133.212276 137.21649 
L 134.735617 135.502545 
L 135.954291 134.481106 
L 137.172964 133.766485 
L 141.742988 131.555225 
L 143.26633 130.658143 
L 144.180335 130.379101 
L 144.789671 130.414916 
L 145.399008 130.692249 
L 146.008345 131.25743 
L 146.617681 132.143308 
L 147.227018 133.364986 
L 148.141023 135.809374 
L 149.359696 140.015344 
L 152.711047 152.527994 
L 153.625052 154.83755 
L 154.234389 155.898936 
L 154.843725 156.548814 
L 155.453062 156.787462 
L 156.062399 156.636964 
L 156.671735 156.139095 
L 157.281072 155.351629 
L 158.195077 153.779227 
L 161.851096 146.85992 
L 163.374438 144.751294 
L 165.202448 142.636913 
L 167.335126 140.493553 
L 168.553799 139.519809 
L 169.467804 138.995842 
L 170.381809 138.723808 
L 170.991146 138.720532 
L 171.600482 138.884097 
L 172.209819 139.227861 
L 173.123824 140.080545 
L 174.037829 141.277981 
L 177.38918 146.181273 
L 178.607853 147.356028 
L 179.826526 148.187914 
L 181.0452 148.791279 
L 181.959205 149.08017 
L 182.873209 149.143148 
L 183.482546 149.008391 
L 184.091883 148.702256 
L 185.005888 147.899804 
L 185.919893 146.72403 
L 188.661907 142.72484 
L 189.271244 142.232488 
L 189.88058 142.044598 
L 190.489917 142.20528 
L 191.099254 142.731055 
L 191.70859 143.608008 
L 192.622595 145.480319 
L 194.145937 149.448899 
L 195.669278 153.344476 
L 196.583283 155.249355 
L 197.497288 156.727048 
L 198.411293 157.778302 
L 199.325298 158.436412 
L 200.239303 158.737609 
L 201.153308 158.704631 
L 202.067313 158.339006 
L 202.981318 157.616528 
L 203.895322 156.487473 
L 204.809327 154.889247 
L 205.723332 152.775932 
L 206.942006 149.185606 
L 208.770015 142.76484 
L 210.598025 136.593285 
L 211.816698 133.254814 
L 213.035372 130.57224 
L 214.558713 127.797507 
L 216.386723 124.89432 
L 217.300728 123.733786 
L 217.910064 123.180184 
L 218.519401 122.873765 
L 219.128738 122.866472 
L 219.738074 123.189278 
L 220.347411 123.841974 
L 221.261416 125.345862 
L 223.698762 129.942666 
L 224.308099 130.527578 
L 224.917436 130.689987 
L 225.526772 130.408963 
L 226.136109 129.722756 
L 227.050114 128.154894 
L 228.573455 125.401141 
L 229.182792 124.728222 
L 229.792128 124.481895 
L 230.096797 124.534894 
L 230.706133 124.987578 
L 231.31547 125.844377 
L 232.534143 128.236074 
L 233.448148 129.926975 
L 234.057485 130.679002 
L 234.666821 130.982885 
L 234.97149 130.944904 
L 235.276158 130.776863 
L 235.885494 130.065285 
L 236.494831 128.91601 
L 237.408836 126.645291 
L 238.932178 122.762838 
L 239.541514 121.636752 
L 240.150851 120.926336 
L 240.760187 120.681991 
L 241.369524 120.90195 
L 241.978861 121.536591 
L 242.892865 123.069336 
L 245.939549 129.061366 
L 247.158222 130.802113 
L 249.2909 133.769957 
L 250.814241 136.467351 
L 252.337583 139.088423 
L 252.94692 139.785012 
L 253.556256 140.110759 
L 253.860924 140.103729 
L 254.165593 139.970895 
L 254.774929 139.306955 
L 255.384266 138.111422 
L 255.993603 136.435757 
L 257.212276 132.126628 
L 258.735617 126.706842 
L 259.649622 124.386689 
L 260.258959 123.407408 
L 260.868295 122.883527 
L 261.477632 122.761786 
L 262.086969 122.958463 
L 263.000974 123.643522 
L 267.26633 127.561737 
L 269.399008 129.269856 
L 270.313013 130.307053 
L 271.227018 131.735658 
L 272.141023 133.649493 
L 273.359696 136.937221 
L 277.320384 148.651923 
L 278.234389 150.296386 
L 278.843725 151.009838 
L 279.453062 151.408333 
L 280.062399 151.502942 
L 280.671735 151.320177 
L 281.281072 150.899648 
L 282.195077 149.931664 
L 283.718418 147.858408 
L 285.851096 145.029063 
L 287.374438 143.417803 
L 288.593111 142.433891 
L 289.811784 141.7747 
L 291.030458 141.428927 
L 292.858467 141.003966 
L 293.772472 140.467112 
L 294.686477 139.528093 
L 295.600482 138.1958 
L 297.73316 134.816565 
L 298.342497 134.249554 
L 298.951834 134.042995 
L 299.56117 134.256557 
L 300.170507 134.910505 
L 300.779843 135.983247 
L 301.693848 138.236828 
L 305.0452 147.706899 
L 305.959205 149.241084 
L 306.568541 149.882002 
L 307.177878 150.241966 
L 307.787214 150.363187 
L 308.396551 150.297171 
L 309.310556 149.956636 
L 310.529229 149.22438 
L 311.443234 148.47654 
L 312.357239 147.435522 
L 313.271244 145.915243 
L 314.185249 143.737803 
L 315.099254 140.817612 
L 316.317927 135.915181 
L 318.755273 125.402994 
L 319.669278 122.393547 
L 320.583283 120.287774 
L 321.19262 119.390152 
L 321.801956 118.843397 
L 322.411293 118.566292 
L 323.325298 118.435547 
L 324.543971 118.259369 
L 325.153308 117.988068 
L 325.762644 117.534781 
L 326.676649 116.510582 
L 327.895322 114.700171 
L 329.418664 112.482081 
L 330.332669 111.603972 
L 330.942006 111.317046 
L 331.551342 111.30025 
L 332.160679 111.560847 
L 332.770015 112.091625 
L 333.379352 112.874758 
L 334.293357 114.468378 
L 335.51203 117.230898 
L 337.035372 121.421005 
L 339.16805 128.091795 
L 345.261416 147.609711 
L 347.089426 152.591476 
L 348.308099 155.384542 
L 349.526772 157.613744 
L 350.440777 158.865528 
L 351.354782 159.742183 
L 352.268787 160.252086 
L 353.182792 160.423935 
L 354.096797 160.306097 
L 355.010802 159.963256 
L 356.534143 159.086934 
L 359.580826 156.973436 
L 361.408836 155.466049 
L 362.932178 153.900755 
L 367.197534 149.125593 
L 368.111539 148.621742 
L 368.720875 148.490377 
L 369.330212 148.530195 
L 369.939549 148.734322 
L 370.853553 149.307253 
L 372.072227 150.417435 
L 373.595568 151.999287 
L 373.595568 151.999287 
" style="fill:none;stroke:#663399;stroke-linecap:square;stroke-width:1.5;"/>
   </g>
   <g id="patch_3">
    <path d="M 54.01375 175.685952 
L 54.01375 111.274048 
" style="fill:none;stroke:#000000;stroke-linecap:square;stroke-linejoin:miter;stroke-width:0.8;"/>
   </g>
   <g id="patch_4">
    <path d="M 388.81375 175.685952 
L 388.81375 111.274048 
" style="fill:none;stroke:#000000;stroke-linecap:square;stroke-linejoin:miter;stroke-width:0.8;"/>
   </g>
   <g id="patch_5">
    <path d="M 54.01375 175.685952 
L 388.81375 175.685952 
" style="fill:none;stroke:#000000;stroke-linecap:square;stroke-linejoin:miter;stroke-width:0.8;"/>
   </g>
   <g id="patch_6">
    <path d="M 54.01375 111.274048 
L 388.81375 111.274048 
" style="fill:none;stroke:#000000;stroke-linecap:square;stroke-linejoin:miter;stroke-width:0.8;"/>
   </g>
  </g>
  <g id="legend_1">
   <g id="line2d_11">
    <path d="M 305.244687 18.337813 
L 333.244687 18.337813 
" style="fill:none;stroke:#d2691e;stroke-linecap:square;stroke-width:1.5;"/>
   </g>
   <g id="line2d_12"/>
   <g id="text_11">
    <!-- Coherent -->
    <g transform="translate(344.444687 23.237813)scale(0.14 -0.14)">
     <defs>
      <path d="M 4122 4306 
L 4122 3641 
Q 3803 3938 3442 4084 
Q 3081 4231 2675 4231 
Q 1875 4231 1450 3742 
Q 1025 3253 1025 2328 
Q 1025 1406 1450 917 
Q 1875 428 2675 428 
Q 3081 428 3442 575 
Q 3803 722 4122 1019 
L 4122 359 
Q 3791 134 3420 21 
Q 3050 -91 2638 -91 
Q 1578 -91 968 557 
Q 359 1206 359 2328 
Q 359 3453 968 4101 
Q 1578 4750 2638 4750 
Q 3056 4750 3426 4639 
Q 3797 4528 4122 4306 
z
" id="DejaVuSans-43" transform="scale(0.015625)"/>
      <path d="M 1959 3097 
Q 1497 3097 1228 2736 
Q 959 2375 959 1747 
Q 959 1119 1226 758 
Q 1494 397 1959 397 
Q 2419 397 2687 759 
Q 2956 1122 2956 1747 
Q 2956 2369 2687 2733 
Q 2419 3097 1959 3097 
z
M 1959 3584 
Q 2709 3584 3137 3096 
Q 3566 2609 3566 1747 
Q 3566 888 3137 398 
Q 2709 -91 1959 -91 
Q 1206 -91 779 398 
Q 353 888 353 1747 
Q 353 2609 779 3096 
Q 1206 3584 1959 3584 
z
" id="DejaVuSans-6f" transform="scale(0.015625)"/>
      <path d="M 3513 2113 
L 3513 0 
L 2938 0 
L 2938 2094 
Q 2938 2591 2744 2837 
Q 2550 3084 2163 3084 
Q 1697 3084 1428 2787 
Q 1159 2491 1159 1978 
L 1159 0 
L 581 0 
L 581 4863 
L 1159 4863 
L 1159 2956 
Q 1366 3272 1645 3428 
Q 1925 3584 2291 3584 
Q 2894 3584 3203 3211 
Q 3513 2838 3513 2113 
z
" id="DejaVuSans-68" transform="scale(0.015625)"/>
      <path d="M 3597 1894 
L 3597 1613 
L 953 1613 
Q 991 1019 1311 708 
Q 1631 397 2203 397 
Q 2534 397 2845 478 
Q 3156 559 3463 722 
L 3463 178 
Q 3153 47 2828 -22 
Q 2503 -91 2169 -91 
Q 1331 -91 842 396 
Q 353 884 353 1716 
Q 353 2575 817 3079 
Q 1281 3584 2069 3584 
Q 2775 3584 3186 3129 
Q 3597 2675 3597 1894 
z
M 3022 2063 
Q 3016 2534 2758 2815 
Q 2500 3097 2075 3097 
Q 1594 3097 1305 2825 
Q 1016 2553 972 2059 
L 3022 2063 
z
" id="DejaVuSans-65" transform="scale(0.015625)"/>
     </defs>
     <use xlink:href="#DejaVuSans-43"/>
     <use x="69.824219" xlink:href="#DejaVuSans-6f"/>
     <use x="131.005859" xlink:href="#DejaVuSans-68"/>
     <use x="194.384766" xlink:href="#DejaVuSans-65"/>
     <use x="255.908203" xlink:href="#DejaVuSans-72"/>
     <use x="294.771484" xlink:href="#DejaVuSans-65"/>
     <use x="356.294922" xlink:href="#DejaVuSans-6e"/>
     <use x="419.673828" xlink:href="#DejaVuSans-74"/>
    </g>
   </g>
   <g id="line2d_13">
    <path d="M 305.244687 38.887188 
L 333.244687 38.887188 
" style="fill:none;stroke:#663399;stroke-linecap:square;stroke-width:1.5;"/>
   </g>
   <g id="line2d_14"/>
   <g id="text_12">
    <!-- Incoherent -->
    <g transform="translate(344.444687 43.787188)scale(0.14 -0.14)">
     <defs>
      <path d="M 3122 3366 
L 3122 2828 
Q 2878 2963 2633 3030 
Q 2388 3097 2138 3097 
Q 1578 3097 1268 2742 
Q 959 2388 959 1747 
Q 959 1106 1268 751 
Q 1578 397 2138 397 
Q 2388 397 2633 464 
Q 2878 531 3122 666 
L 3122 134 
Q 2881 22 2623 -34 
Q 2366 -91 2075 -91 
Q 1284 -91 818 406 
Q 353 903 353 1747 
Q 353 2603 823 3093 
Q 1294 3584 2113 3584 
Q 2378 3584 2631 3529 
Q 2884 3475 3122 3366 
z
" id="DejaVuSans-63" transform="scale(0.015625)"/>
     </defs>
     <use xlink:href="#DejaVuSans-49"/>
     <use x="29.492188" xlink:href="#DejaVuSans-6e"/>
     <use x="92.871094" xlink:href="#DejaVuSans-63"/>
     <use x="147.851562" xlink:href="#DejaVuSans-6f"/>
     <use x="209.033203" xlink:href="#DejaVuSans-68"/>
     <use x="272.412109" xlink:href="#DejaVuSans-65"/>
     <use x="333.935547" xlink:href="#DejaVuSans-72"/>
     <use x="372.798828" xlink:href="#DejaVuSans-65"/>
     <use x="434.322266" xlink:href="#DejaVuSans-6e"/>
     <use x="497.701172" xlink:href="#DejaVuSans-74"/>
    </g>
   </g>
  </g>
 </g>
 <defs>
  <clipPath id="p5f645084cc">
   <rect height="64.411904" width="334.8" x="54.01375" y="111.274048"/>
  </clipPath>
 </defs>
</svg>
