<?xml version="1.0" encoding="utf-8" standalone="no"?>
<!DOCTYPE svg PUBLIC "-//W3C//DTD SVG 1.1//EN"
  "http://www.w3.org/Graphics/SVG/1.1/DTD/svg11.dtd">
<svg height="288pt" version="1.1" viewBox="0 0 432 288" width="432pt" xmlns="http://www.w3.org/2000/svg" xmlns:xlink="http://www.w3.org/1999/xlink">
 <metadata>
  <rdf:RDF xmlns:cc="http://creativecommons.org/ns#" xmlns:dc="http://purl.org/dc/elements/1.1/" xmlns:rdf="http://www.w3.org/1999/02/22-rdf-syntax-ns#">
   <cc:Work>
    <dc:type rdf:resource="http://purl.org/dc/dcmitype/StillImage"/>
    <dc:date>2022-03-04T12:50:59.566772</dc:date>
    <dc:format>image/svg+xml</dc:format>
    <dc:creator>
     <cc:Agent>
      <dc:title>Matplotlib v3.4.3, https://matplotlib.org/</dc:title>
     </cc:Agent>
    </dc:creator>
   </cc:Work>
  </rdf:RDF>
 </metadata>
 <defs>
  <style type="text/css">*{stroke-linecap:butt;stroke-linejoin:round;}</style>
 </defs>
 <g id="figure_1">
  <g id="patch_1">
   <path d="M 0 288 
L 432 288 
L 432 0 
L 0 0 
z
" style="fill:none;"/>
  </g>
  <g id="axes_1">
   <g id="patch_2">
    <path d="M 54 252 
L 388.8 252 
L 388.8 34.56 
L 54 34.56 
z
" style="fill:#ffffff;"/>
   </g>
   <g id="PathCollection_1">
    <defs>
     <path d="M 0 1.5 
C 0.397805 1.5 0.77937 1.341951 1.06066 1.06066 
C 1.341951 0.77937 1.5 0.397805 1.5 0 
C 1.5 -0.397805 1.341951 -0.77937 1.06066 -1.06066 
C 0.77937 -1.341951 0.397805 -1.5 0 -1.5 
C -0.397805 -1.5 -0.77937 -1.341951 -1.06066 -1.06066 
C -1.341951 -0.77937 -1.5 -0.397805 -1.5 0 
C -1.5 0.397805 -1.341951 0.77937 -1.06066 1.06066 
C -0.77937 1.341951 -0.397805 1.5 0 1.5 
z
" id="m05d78c27d0" style="stroke:#8b008b;stroke-width:2;"/>
    </defs>
    <g clip-path="url(#p375483254c)">
     <use style="fill:#8b008b;stroke:#8b008b;stroke-width:2;" x="69.218182" xlink:href="#m05d78c27d0" y="50.433719"/>
     <use style="fill:#8b008b;stroke:#8b008b;stroke-width:2;" x="70.881371" xlink:href="#m05d78c27d0" y="47.438678"/>
     <use style="fill:#8b008b;stroke:#8b008b;stroke-width:2;" x="72.54456" xlink:href="#m05d78c27d0" y="45.941157"/>
     <use style="fill:#8b008b;stroke:#8b008b;stroke-width:2;" x="74.20775" xlink:href="#m05d78c27d0" y="51.93124"/>
     <use style="fill:#8b008b;stroke:#8b008b;stroke-width:2;" x="75.870939" xlink:href="#m05d78c27d0" y="57.921322"/>
     <use style="fill:#8b008b;stroke:#8b008b;stroke-width:2;" x="77.534128" xlink:href="#m05d78c27d0" y="72.896529"/>
     <use style="fill:#8b008b;stroke:#8b008b;stroke-width:2;" x="79.197317" xlink:href="#m05d78c27d0" y="87.871736"/>
     <use style="fill:#8b008b;stroke:#8b008b;stroke-width:2;" x="80.860507" xlink:href="#m05d78c27d0" y="105.841983"/>
     <use style="fill:#8b008b;stroke:#8b008b;stroke-width:2;" x="82.523696" xlink:href="#m05d78c27d0" y="126.807273"/>
     <use style="fill:#8b008b;stroke:#8b008b;stroke-width:2;" x="84.186885" xlink:href="#m05d78c27d0" y="146.275041"/>
     <use style="fill:#8b008b;stroke:#8b008b;stroke-width:2;" x="85.850075" xlink:href="#m05d78c27d0" y="170.235372"/>
     <use style="fill:#8b008b;stroke:#8b008b;stroke-width:2;" x="87.513264" xlink:href="#m05d78c27d0" y="189.70314"/>
     <use style="fill:#8b008b;stroke:#8b008b;stroke-width:2;" x="89.176453" xlink:href="#m05d78c27d0" y="201.683306"/>
     <use style="fill:#8b008b;stroke:#8b008b;stroke-width:2;" x="90.839642" xlink:href="#m05d78c27d0" y="212.16595"/>
     <use style="fill:#8b008b;stroke:#8b008b;stroke-width:2;" x="92.502832" xlink:href="#m05d78c27d0" y="219.653554"/>
     <use style="fill:#8b008b;stroke:#8b008b;stroke-width:2;" x="94.166021" xlink:href="#m05d78c27d0" y="225.643636"/>
     <use style="fill:#8b008b;stroke:#8b008b;stroke-width:2;" x="95.82921" xlink:href="#m05d78c27d0" y="233.13124"/>
     <use style="fill:#8b008b;stroke:#8b008b;stroke-width:2;" x="97.492399" xlink:href="#m05d78c27d0" y="234.62876"/>
     <use style="fill:#8b008b;stroke:#8b008b;stroke-width:2;" x="99.155589" xlink:href="#m05d78c27d0" y="227.141157"/>
     <use style="fill:#8b008b;stroke:#8b008b;stroke-width:2;" x="100.818778" xlink:href="#m05d78c27d0" y="222.648595"/>
     <use style="fill:#8b008b;stroke:#8b008b;stroke-width:2;" x="102.481967" xlink:href="#m05d78c27d0" y="212.16595"/>
     <use style="fill:#8b008b;stroke:#8b008b;stroke-width:2;" x="104.145156" xlink:href="#m05d78c27d0" y="195.693223"/>
     <use style="fill:#8b008b;stroke:#8b008b;stroke-width:2;" x="105.808346" xlink:href="#m05d78c27d0" y="170.235372"/>
     <use style="fill:#8b008b;stroke:#8b008b;stroke-width:2;" x="107.471535" xlink:href="#m05d78c27d0" y="144.777521"/>
     <use style="fill:#8b008b;stroke:#8b008b;stroke-width:2;" x="109.134724" xlink:href="#m05d78c27d0" y="110.334545"/>
     <use style="fill:#8b008b;stroke:#8b008b;stroke-width:2;" x="110.797914" xlink:href="#m05d78c27d0" y="86.374215"/>
     <use style="fill:#8b008b;stroke:#8b008b;stroke-width:2;" x="112.461103" xlink:href="#m05d78c27d0" y="69.901488"/>
     <use style="fill:#8b008b;stroke:#8b008b;stroke-width:2;" x="114.124292" xlink:href="#m05d78c27d0" y="62.413884"/>
     <use style="fill:#8b008b;stroke:#8b008b;stroke-width:2;" x="115.787481" xlink:href="#m05d78c27d0" y="57.921322"/>
     <use style="fill:#8b008b;stroke:#8b008b;stroke-width:2;" x="117.450671" xlink:href="#m05d78c27d0" y="47.438678"/>
     <use style="fill:#8b008b;stroke:#8b008b;stroke-width:2;" x="119.11386" xlink:href="#m05d78c27d0" y="44.443636"/>
     <use style="fill:#8b008b;stroke:#8b008b;stroke-width:2;" x="120.777049" xlink:href="#m05d78c27d0" y="50.433719"/>
     <use style="fill:#8b008b;stroke:#8b008b;stroke-width:2;" x="122.440238" xlink:href="#m05d78c27d0" y="54.926281"/>
     <use style="fill:#8b008b;stroke:#8b008b;stroke-width:2;" x="124.103428" xlink:href="#m05d78c27d0" y="56.423802"/>
     <use style="fill:#8b008b;stroke:#8b008b;stroke-width:2;" x="125.766617" xlink:href="#m05d78c27d0" y="62.413884"/>
     <use style="fill:#8b008b;stroke:#8b008b;stroke-width:2;" x="127.429806" xlink:href="#m05d78c27d0" y="71.399008"/>
     <use style="fill:#8b008b;stroke:#8b008b;stroke-width:2;" x="129.092996" xlink:href="#m05d78c27d0" y="77.389091"/>
     <use style="fill:#8b008b;stroke:#8b008b;stroke-width:2;" x="130.756185" xlink:href="#m05d78c27d0" y="90.866777"/>
     <use style="fill:#8b008b;stroke:#8b008b;stroke-width:2;" x="132.419374" xlink:href="#m05d78c27d0" y="114.827107"/>
     <use style="fill:#8b008b;stroke:#8b008b;stroke-width:2;" x="134.082563" xlink:href="#m05d78c27d0" y="138.787438"/>
     <use style="fill:#8b008b;stroke:#8b008b;stroke-width:2;" x="135.745753" xlink:href="#m05d78c27d0" y="164.245289"/>
     <use style="fill:#8b008b;stroke:#8b008b;stroke-width:2;" x="137.408942" xlink:href="#m05d78c27d0" y="182.215537"/>
     <use style="fill:#8b008b;stroke:#8b008b;stroke-width:2;" x="139.072131" xlink:href="#m05d78c27d0" y="195.693223"/>
     <use style="fill:#8b008b;stroke:#8b008b;stroke-width:2;" x="140.73532" xlink:href="#m05d78c27d0" y="209.170909"/>
     <use style="fill:#8b008b;stroke:#8b008b;stroke-width:2;" x="142.39851" xlink:href="#m05d78c27d0" y="219.653554"/>
     <use style="fill:#8b008b;stroke:#8b008b;stroke-width:2;" x="144.061699" xlink:href="#m05d78c27d0" y="230.136198"/>
     <use style="fill:#8b008b;stroke:#8b008b;stroke-width:2;" x="145.724888" xlink:href="#m05d78c27d0" y="237.623802"/>
     <use style="fill:#8b008b;stroke:#8b008b;stroke-width:2;" x="147.388077" xlink:href="#m05d78c27d0" y="237.623802"/>
     <use style="fill:#8b008b;stroke:#8b008b;stroke-width:2;" x="149.051267" xlink:href="#m05d78c27d0" y="233.13124"/>
     <use style="fill:#8b008b;stroke:#8b008b;stroke-width:2;" x="150.714456" xlink:href="#m05d78c27d0" y="228.638678"/>
     <use style="fill:#8b008b;stroke:#8b008b;stroke-width:2;" x="152.377645" xlink:href="#m05d78c27d0" y="221.151074"/>
     <use style="fill:#8b008b;stroke:#8b008b;stroke-width:2;" x="154.040835" xlink:href="#m05d78c27d0" y="206.175868"/>
     <use style="fill:#8b008b;stroke:#8b008b;stroke-width:2;" x="155.704024" xlink:href="#m05d78c27d0" y="189.70314"/>
     <use style="fill:#8b008b;stroke:#8b008b;stroke-width:2;" x="157.367213" xlink:href="#m05d78c27d0" y="161.250248"/>
     <use style="fill:#8b008b;stroke:#8b008b;stroke-width:2;" x="159.030402" xlink:href="#m05d78c27d0" y="128.304793"/>
     <use style="fill:#8b008b;stroke:#8b008b;stroke-width:2;" x="160.693592" xlink:href="#m05d78c27d0" y="107.339504"/>
     <use style="fill:#8b008b;stroke:#8b008b;stroke-width:2;" x="162.356781" xlink:href="#m05d78c27d0" y="89.369256"/>
     <use style="fill:#8b008b;stroke:#8b008b;stroke-width:2;" x="164.01997" xlink:href="#m05d78c27d0" y="81.881653"/>
     <use style="fill:#8b008b;stroke:#8b008b;stroke-width:2;" x="165.683159" xlink:href="#m05d78c27d0" y="66.906446"/>
     <use style="fill:#8b008b;stroke:#8b008b;stroke-width:2;" x="167.346349" xlink:href="#m05d78c27d0" y="60.916364"/>
     <use style="fill:#8b008b;stroke:#8b008b;stroke-width:2;" x="169.009538" xlink:href="#m05d78c27d0" y="60.916364"/>
     <use style="fill:#8b008b;stroke:#8b008b;stroke-width:2;" x="170.672727" xlink:href="#m05d78c27d0" y="60.916364"/>
     <use style="fill:#8b008b;stroke:#8b008b;stroke-width:2;" x="172.335917" xlink:href="#m05d78c27d0" y="59.418843"/>
     <use style="fill:#8b008b;stroke:#8b008b;stroke-width:2;" x="173.999106" xlink:href="#m05d78c27d0" y="56.423802"/>
     <use style="fill:#8b008b;stroke:#8b008b;stroke-width:2;" x="175.662295" xlink:href="#m05d78c27d0" y="60.916364"/>
     <use style="fill:#8b008b;stroke:#8b008b;stroke-width:2;" x="177.325484" xlink:href="#m05d78c27d0" y="72.896529"/>
     <use style="fill:#8b008b;stroke:#8b008b;stroke-width:2;" x="178.988674" xlink:href="#m05d78c27d0" y="86.374215"/>
     <use style="fill:#8b008b;stroke:#8b008b;stroke-width:2;" x="180.651863" xlink:href="#m05d78c27d0" y="102.846942"/>
     <use style="fill:#8b008b;stroke:#8b008b;stroke-width:2;" x="182.315052" xlink:href="#m05d78c27d0" y="120.81719"/>
     <use style="fill:#8b008b;stroke:#8b008b;stroke-width:2;" x="183.978241" xlink:href="#m05d78c27d0" y="141.782479"/>
     <use style="fill:#8b008b;stroke:#8b008b;stroke-width:2;" x="185.641431" xlink:href="#m05d78c27d0" y="164.245289"/>
     <use style="fill:#8b008b;stroke:#8b008b;stroke-width:2;" x="187.30462" xlink:href="#m05d78c27d0" y="182.215537"/>
     <use style="fill:#8b008b;stroke:#8b008b;stroke-width:2;" x="188.967809" xlink:href="#m05d78c27d0" y="195.693223"/>
     <use style="fill:#8b008b;stroke:#8b008b;stroke-width:2;" x="190.630999" xlink:href="#m05d78c27d0" y="206.175868"/>
     <use style="fill:#8b008b;stroke:#8b008b;stroke-width:2;" x="192.294188" xlink:href="#m05d78c27d0" y="219.653554"/>
     <use style="fill:#8b008b;stroke:#8b008b;stroke-width:2;" x="193.957377" xlink:href="#m05d78c27d0" y="228.638678"/>
     <use style="fill:#8b008b;stroke:#8b008b;stroke-width:2;" x="195.620566" xlink:href="#m05d78c27d0" y="237.623802"/>
     <use style="fill:#8b008b;stroke:#8b008b;stroke-width:2;" x="197.283756" xlink:href="#m05d78c27d0" y="242.116364"/>
     <use style="fill:#8b008b;stroke:#8b008b;stroke-width:2;" x="198.946945" xlink:href="#m05d78c27d0" y="242.116364"/>
     <use style="fill:#8b008b;stroke:#8b008b;stroke-width:2;" x="200.610134" xlink:href="#m05d78c27d0" y="236.126281"/>
     <use style="fill:#8b008b;stroke:#8b008b;stroke-width:2;" x="202.273323" xlink:href="#m05d78c27d0" y="224.146116"/>
     <use style="fill:#8b008b;stroke:#8b008b;stroke-width:2;" x="203.936513" xlink:href="#m05d78c27d0" y="210.66843"/>
     <use style="fill:#8b008b;stroke:#8b008b;stroke-width:2;" x="205.599702" xlink:href="#m05d78c27d0" y="192.698182"/>
     <use style="fill:#8b008b;stroke:#8b008b;stroke-width:2;" x="207.262891" xlink:href="#m05d78c27d0" y="167.240331"/>
     <use style="fill:#8b008b;stroke:#8b008b;stroke-width:2;" x="208.92608" xlink:href="#m05d78c27d0" y="138.787438"/>
     <use style="fill:#8b008b;stroke:#8b008b;stroke-width:2;" x="210.58927" xlink:href="#m05d78c27d0" y="108.837025"/>
     <use style="fill:#8b008b;stroke:#8b008b;stroke-width:2;" x="212.252459" xlink:href="#m05d78c27d0" y="84.876694"/>
     <use style="fill:#8b008b;stroke:#8b008b;stroke-width:2;" x="213.915648" xlink:href="#m05d78c27d0" y="68.403967"/>
     <use style="fill:#8b008b;stroke:#8b008b;stroke-width:2;" x="215.578838" xlink:href="#m05d78c27d0" y="62.413884"/>
     <use style="fill:#8b008b;stroke:#8b008b;stroke-width:2;" x="217.242027" xlink:href="#m05d78c27d0" y="62.413884"/>
     <use style="fill:#8b008b;stroke:#8b008b;stroke-width:2;" x="218.905216" xlink:href="#m05d78c27d0" y="57.921322"/>
     <use style="fill:#8b008b;stroke:#8b008b;stroke-width:2;" x="220.568405" xlink:href="#m05d78c27d0" y="51.93124"/>
     <use style="fill:#8b008b;stroke:#8b008b;stroke-width:2;" x="222.231595" xlink:href="#m05d78c27d0" y="48.936198"/>
     <use style="fill:#8b008b;stroke:#8b008b;stroke-width:2;" x="223.894784" xlink:href="#m05d78c27d0" y="53.42876"/>
     <use style="fill:#8b008b;stroke:#8b008b;stroke-width:2;" x="225.557973" xlink:href="#m05d78c27d0" y="62.413884"/>
     <use style="fill:#8b008b;stroke:#8b008b;stroke-width:2;" x="227.221162" xlink:href="#m05d78c27d0" y="71.399008"/>
     <use style="fill:#8b008b;stroke:#8b008b;stroke-width:2;" x="228.884352" xlink:href="#m05d78c27d0" y="77.389091"/>
     <use style="fill:#8b008b;stroke:#8b008b;stroke-width:2;" x="230.547541" xlink:href="#m05d78c27d0" y="83.379174"/>
     <use style="fill:#8b008b;stroke:#8b008b;stroke-width:2;" x="232.21073" xlink:href="#m05d78c27d0" y="95.359339"/>
     <use style="fill:#8b008b;stroke:#8b008b;stroke-width:2;" x="233.87392" xlink:href="#m05d78c27d0" y="116.324628"/>
     <use style="fill:#8b008b;stroke:#8b008b;stroke-width:2;" x="235.537109" xlink:href="#m05d78c27d0" y="143.28"/>
     <use style="fill:#8b008b;stroke:#8b008b;stroke-width:2;" x="237.200298" xlink:href="#m05d78c27d0" y="168.737851"/>
     <use style="fill:#8b008b;stroke:#8b008b;stroke-width:2;" x="238.863487" xlink:href="#m05d78c27d0" y="186.708099"/>
     <use style="fill:#8b008b;stroke:#8b008b;stroke-width:2;" x="240.526677" xlink:href="#m05d78c27d0" y="201.683306"/>
     <use style="fill:#8b008b;stroke:#8b008b;stroke-width:2;" x="242.189866" xlink:href="#m05d78c27d0" y="215.160992"/>
     <use style="fill:#8b008b;stroke:#8b008b;stroke-width:2;" x="243.853055" xlink:href="#m05d78c27d0" y="225.643636"/>
     <use style="fill:#8b008b;stroke:#8b008b;stroke-width:2;" x="245.516244" xlink:href="#m05d78c27d0" y="236.126281"/>
     <use style="fill:#8b008b;stroke:#8b008b;stroke-width:2;" x="247.179434" xlink:href="#m05d78c27d0" y="239.121322"/>
     <use style="fill:#8b008b;stroke:#8b008b;stroke-width:2;" x="248.842623" xlink:href="#m05d78c27d0" y="240.618843"/>
     <use style="fill:#8b008b;stroke:#8b008b;stroke-width:2;" x="250.505812" xlink:href="#m05d78c27d0" y="239.121322"/>
     <use style="fill:#8b008b;stroke:#8b008b;stroke-width:2;" x="252.169001" xlink:href="#m05d78c27d0" y="233.13124"/>
     <use style="fill:#8b008b;stroke:#8b008b;stroke-width:2;" x="253.832191" xlink:href="#m05d78c27d0" y="222.648595"/>
     <use style="fill:#8b008b;stroke:#8b008b;stroke-width:2;" x="255.49538" xlink:href="#m05d78c27d0" y="204.678347"/>
     <use style="fill:#8b008b;stroke:#8b008b;stroke-width:2;" x="257.158569" xlink:href="#m05d78c27d0" y="186.708099"/>
     <use style="fill:#8b008b;stroke:#8b008b;stroke-width:2;" x="258.821759" xlink:href="#m05d78c27d0" y="158.255207"/>
     <use style="fill:#8b008b;stroke:#8b008b;stroke-width:2;" x="260.484948" xlink:href="#m05d78c27d0" y="126.807273"/>
     <use style="fill:#8b008b;stroke:#8b008b;stroke-width:2;" x="262.148137" xlink:href="#m05d78c27d0" y="101.349421"/>
     <use style="fill:#8b008b;stroke:#8b008b;stroke-width:2;" x="263.811326" xlink:href="#m05d78c27d0" y="80.384132"/>
     <use style="fill:#8b008b;stroke:#8b008b;stroke-width:2;" x="265.474516" xlink:href="#m05d78c27d0" y="66.906446"/>
     <use style="fill:#8b008b;stroke:#8b008b;stroke-width:2;" x="267.137705" xlink:href="#m05d78c27d0" y="60.916364"/>
     <use style="fill:#8b008b;stroke:#8b008b;stroke-width:2;" x="268.800894" xlink:href="#m05d78c27d0" y="54.926281"/>
     <use style="fill:#8b008b;stroke:#8b008b;stroke-width:2;" x="270.464083" xlink:href="#m05d78c27d0" y="50.433719"/>
     <use style="fill:#8b008b;stroke:#8b008b;stroke-width:2;" x="272.127273" xlink:href="#m05d78c27d0" y="47.438678"/>
     <use style="fill:#8b008b;stroke:#8b008b;stroke-width:2;" x="273.790462" xlink:href="#m05d78c27d0" y="50.433719"/>
     <use style="fill:#8b008b;stroke:#8b008b;stroke-width:2;" x="275.453651" xlink:href="#m05d78c27d0" y="56.423802"/>
     <use style="fill:#8b008b;stroke:#8b008b;stroke-width:2;" x="277.116841" xlink:href="#m05d78c27d0" y="68.403967"/>
     <use style="fill:#8b008b;stroke:#8b008b;stroke-width:2;" x="278.78003" xlink:href="#m05d78c27d0" y="75.89157"/>
     <use style="fill:#8b008b;stroke:#8b008b;stroke-width:2;" x="280.443219" xlink:href="#m05d78c27d0" y="81.881653"/>
     <use style="fill:#8b008b;stroke:#8b008b;stroke-width:2;" x="282.106408" xlink:href="#m05d78c27d0" y="101.349421"/>
     <use style="fill:#8b008b;stroke:#8b008b;stroke-width:2;" x="283.769598" xlink:href="#m05d78c27d0" y="116.324628"/>
     <use style="fill:#8b008b;stroke:#8b008b;stroke-width:2;" x="285.432787" xlink:href="#m05d78c27d0" y="137.289917"/>
     <use style="fill:#8b008b;stroke:#8b008b;stroke-width:2;" x="287.095976" xlink:href="#m05d78c27d0" y="158.255207"/>
     <use style="fill:#8b008b;stroke:#8b008b;stroke-width:2;" x="288.759165" xlink:href="#m05d78c27d0" y="171.732893"/>
     <use style="fill:#8b008b;stroke:#8b008b;stroke-width:2;" x="290.422355" xlink:href="#m05d78c27d0" y="186.708099"/>
     <use style="fill:#8b008b;stroke:#8b008b;stroke-width:2;" x="292.085544" xlink:href="#m05d78c27d0" y="201.683306"/>
     <use style="fill:#8b008b;stroke:#8b008b;stroke-width:2;" x="293.748733" xlink:href="#m05d78c27d0" y="216.658512"/>
     <use style="fill:#8b008b;stroke:#8b008b;stroke-width:2;" x="295.411923" xlink:href="#m05d78c27d0" y="230.136198"/>
     <use style="fill:#8b008b;stroke:#8b008b;stroke-width:2;" x="297.075112" xlink:href="#m05d78c27d0" y="239.121322"/>
     <use style="fill:#8b008b;stroke:#8b008b;stroke-width:2;" x="298.738301" xlink:href="#m05d78c27d0" y="242.116364"/>
     <use style="fill:#8b008b;stroke:#8b008b;stroke-width:2;" x="300.40149" xlink:href="#m05d78c27d0" y="237.623802"/>
     <use style="fill:#8b008b;stroke:#8b008b;stroke-width:2;" x="302.06468" xlink:href="#m05d78c27d0" y="230.136198"/>
     <use style="fill:#8b008b;stroke:#8b008b;stroke-width:2;" x="303.727869" xlink:href="#m05d78c27d0" y="225.643636"/>
     <use style="fill:#8b008b;stroke:#8b008b;stroke-width:2;" x="305.391058" xlink:href="#m05d78c27d0" y="215.160992"/>
     <use style="fill:#8b008b;stroke:#8b008b;stroke-width:2;" x="307.054247" xlink:href="#m05d78c27d0" y="200.185785"/>
     <use style="fill:#8b008b;stroke:#8b008b;stroke-width:2;" x="308.717437" xlink:href="#m05d78c27d0" y="168.737851"/>
     <use style="fill:#8b008b;stroke:#8b008b;stroke-width:2;" x="310.380626" xlink:href="#m05d78c27d0" y="138.787438"/>
     <use style="fill:#8b008b;stroke:#8b008b;stroke-width:2;" x="312.043815" xlink:href="#m05d78c27d0" y="108.837025"/>
     <use style="fill:#8b008b;stroke:#8b008b;stroke-width:2;" x="313.707004" xlink:href="#m05d78c27d0" y="87.871736"/>
     <use style="fill:#8b008b;stroke:#8b008b;stroke-width:2;" x="315.370194" xlink:href="#m05d78c27d0" y="77.389091"/>
     <use style="fill:#8b008b;stroke:#8b008b;stroke-width:2;" x="317.033383" xlink:href="#m05d78c27d0" y="68.403967"/>
     <use style="fill:#8b008b;stroke:#8b008b;stroke-width:2;" x="318.696572" xlink:href="#m05d78c27d0" y="57.921322"/>
     <use style="fill:#8b008b;stroke:#8b008b;stroke-width:2;" x="320.359762" xlink:href="#m05d78c27d0" y="50.433719"/>
     <use style="fill:#8b008b;stroke:#8b008b;stroke-width:2;" x="322.022951" xlink:href="#m05d78c27d0" y="48.936198"/>
     <use style="fill:#8b008b;stroke:#8b008b;stroke-width:2;" x="323.68614" xlink:href="#m05d78c27d0" y="50.433719"/>
     <use style="fill:#8b008b;stroke:#8b008b;stroke-width:2;" x="325.349329" xlink:href="#m05d78c27d0" y="54.926281"/>
     <use style="fill:#8b008b;stroke:#8b008b;stroke-width:2;" x="327.012519" xlink:href="#m05d78c27d0" y="62.413884"/>
     <use style="fill:#8b008b;stroke:#8b008b;stroke-width:2;" x="328.675708" xlink:href="#m05d78c27d0" y="71.399008"/>
     <use style="fill:#8b008b;stroke:#8b008b;stroke-width:2;" x="330.338897" xlink:href="#m05d78c27d0" y="83.379174"/>
     <use style="fill:#8b008b;stroke:#8b008b;stroke-width:2;" x="332.002086" xlink:href="#m05d78c27d0" y="90.866777"/>
     <use style="fill:#8b008b;stroke:#8b008b;stroke-width:2;" x="333.665276" xlink:href="#m05d78c27d0" y="96.85686"/>
     <use style="fill:#8b008b;stroke:#8b008b;stroke-width:2;" x="335.328465" xlink:href="#m05d78c27d0" y="111.832066"/>
     <use style="fill:#8b008b;stroke:#8b008b;stroke-width:2;" x="336.991654" xlink:href="#m05d78c27d0" y="137.289917"/>
     <use style="fill:#8b008b;stroke:#8b008b;stroke-width:2;" x="338.654844" xlink:href="#m05d78c27d0" y="162.747769"/>
     <use style="fill:#8b008b;stroke:#8b008b;stroke-width:2;" x="340.318033" xlink:href="#m05d78c27d0" y="182.215537"/>
     <use style="fill:#8b008b;stroke:#8b008b;stroke-width:2;" x="341.981222" xlink:href="#m05d78c27d0" y="195.693223"/>
     <use style="fill:#8b008b;stroke:#8b008b;stroke-width:2;" x="343.644411" xlink:href="#m05d78c27d0" y="207.673388"/>
     <use style="fill:#8b008b;stroke:#8b008b;stroke-width:2;" x="345.307601" xlink:href="#m05d78c27d0" y="219.653554"/>
     <use style="fill:#8b008b;stroke:#8b008b;stroke-width:2;" x="346.97079" xlink:href="#m05d78c27d0" y="230.136198"/>
     <use style="fill:#8b008b;stroke:#8b008b;stroke-width:2;" x="348.633979" xlink:href="#m05d78c27d0" y="237.623802"/>
     <use style="fill:#8b008b;stroke:#8b008b;stroke-width:2;" x="350.297168" xlink:href="#m05d78c27d0" y="242.116364"/>
     <use style="fill:#8b008b;stroke:#8b008b;stroke-width:2;" x="351.960358" xlink:href="#m05d78c27d0" y="236.126281"/>
     <use style="fill:#8b008b;stroke:#8b008b;stroke-width:2;" x="353.623547" xlink:href="#m05d78c27d0" y="227.141157"/>
     <use style="fill:#8b008b;stroke:#8b008b;stroke-width:2;" x="355.286736" xlink:href="#m05d78c27d0" y="215.160992"/>
     <use style="fill:#8b008b;stroke:#8b008b;stroke-width:2;" x="356.949925" xlink:href="#m05d78c27d0" y="198.688264"/>
     <use style="fill:#8b008b;stroke:#8b008b;stroke-width:2;" x="358.613115" xlink:href="#m05d78c27d0" y="177.722975"/>
     <use style="fill:#8b008b;stroke:#8b008b;stroke-width:2;" x="360.276304" xlink:href="#m05d78c27d0" y="155.260165"/>
     <use style="fill:#8b008b;stroke:#8b008b;stroke-width:2;" x="361.939493" xlink:href="#m05d78c27d0" y="120.81719"/>
     <use style="fill:#8b008b;stroke:#8b008b;stroke-width:2;" x="363.602683" xlink:href="#m05d78c27d0" y="93.861818"/>
     <use style="fill:#8b008b;stroke:#8b008b;stroke-width:2;" x="365.265872" xlink:href="#m05d78c27d0" y="78.886612"/>
     <use style="fill:#8b008b;stroke:#8b008b;stroke-width:2;" x="366.929061" xlink:href="#m05d78c27d0" y="71.399008"/>
     <use style="fill:#8b008b;stroke:#8b008b;stroke-width:2;" x="368.59225" xlink:href="#m05d78c27d0" y="68.403967"/>
     <use style="fill:#8b008b;stroke:#8b008b;stroke-width:2;" x="370.25544" xlink:href="#m05d78c27d0" y="56.423802"/>
     <use style="fill:#8b008b;stroke:#8b008b;stroke-width:2;" x="371.918629" xlink:href="#m05d78c27d0" y="44.443636"/>
     <use style="fill:#8b008b;stroke:#8b008b;stroke-width:2;" x="373.581818" xlink:href="#m05d78c27d0" y="44.443636"/>
    </g>
   </g>
   <g id="matplotlib.axis_1">
    <g id="xtick_1">
     <g id="line2d_1">
      <defs>
       <path d="M 0 0 
L 0 3.5 
" id="mdd5c43a08e" style="stroke:#000000;stroke-width:0.8;"/>
      </defs>
      <g>
       <use style="stroke:#000000;stroke-width:0.8;" x="69.218182" xlink:href="#mdd5c43a08e" y="252"/>
      </g>
     </g>
     <g id="text_1">
      <!-- 0 -->
      <g transform="translate(66.036932 266.598437)scale(0.1 -0.1)">
       <defs>
        <path d="M 2034 4250 
Q 1547 4250 1301 3770 
Q 1056 3291 1056 2328 
Q 1056 1369 1301 889 
Q 1547 409 2034 409 
Q 2525 409 2770 889 
Q 3016 1369 3016 2328 
Q 3016 3291 2770 3770 
Q 2525 4250 2034 4250 
z
M 2034 4750 
Q 2819 4750 3233 4129 
Q 3647 3509 3647 2328 
Q 3647 1150 3233 529 
Q 2819 -91 2034 -91 
Q 1250 -91 836 529 
Q 422 1150 422 2328 
Q 422 3509 836 4129 
Q 1250 4750 2034 4750 
z
" id="DejaVuSans-30" transform="scale(0.015625)"/>
       </defs>
       <use xlink:href="#DejaVuSans-30"/>
      </g>
     </g>
    </g>
    <g id="xtick_2">
     <g id="line2d_2">
      <g>
       <use style="stroke:#000000;stroke-width:0.8;" x="110.797914" xlink:href="#mdd5c43a08e" y="252"/>
      </g>
     </g>
     <g id="text_2">
      <!-- 25 -->
      <g transform="translate(104.435414 266.598437)scale(0.1 -0.1)">
       <defs>
        <path d="M 1228 531 
L 3431 531 
L 3431 0 
L 469 0 
L 469 531 
Q 828 903 1448 1529 
Q 2069 2156 2228 2338 
Q 2531 2678 2651 2914 
Q 2772 3150 2772 3378 
Q 2772 3750 2511 3984 
Q 2250 4219 1831 4219 
Q 1534 4219 1204 4116 
Q 875 4013 500 3803 
L 500 4441 
Q 881 4594 1212 4672 
Q 1544 4750 1819 4750 
Q 2544 4750 2975 4387 
Q 3406 4025 3406 3419 
Q 3406 3131 3298 2873 
Q 3191 2616 2906 2266 
Q 2828 2175 2409 1742 
Q 1991 1309 1228 531 
z
" id="DejaVuSans-32" transform="scale(0.015625)"/>
        <path d="M 691 4666 
L 3169 4666 
L 3169 4134 
L 1269 4134 
L 1269 2991 
Q 1406 3038 1543 3061 
Q 1681 3084 1819 3084 
Q 2600 3084 3056 2656 
Q 3513 2228 3513 1497 
Q 3513 744 3044 326 
Q 2575 -91 1722 -91 
Q 1428 -91 1123 -41 
Q 819 9 494 109 
L 494 744 
Q 775 591 1075 516 
Q 1375 441 1709 441 
Q 2250 441 2565 725 
Q 2881 1009 2881 1497 
Q 2881 1984 2565 2268 
Q 2250 2553 1709 2553 
Q 1456 2553 1204 2497 
Q 953 2441 691 2322 
L 691 4666 
z
" id="DejaVuSans-35" transform="scale(0.015625)"/>
       </defs>
       <use xlink:href="#DejaVuSans-32"/>
       <use x="63.623047" xlink:href="#DejaVuSans-35"/>
      </g>
     </g>
    </g>
    <g id="xtick_3">
     <g id="line2d_3">
      <g>
       <use style="stroke:#000000;stroke-width:0.8;" x="152.377645" xlink:href="#mdd5c43a08e" y="252"/>
      </g>
     </g>
     <g id="text_3">
      <!-- 50 -->
      <g transform="translate(146.015145 266.598437)scale(0.1 -0.1)">
       <use xlink:href="#DejaVuSans-35"/>
       <use x="63.623047" xlink:href="#DejaVuSans-30"/>
      </g>
     </g>
    </g>
    <g id="xtick_4">
     <g id="line2d_4">
      <g>
       <use style="stroke:#000000;stroke-width:0.8;" x="193.957377" xlink:href="#mdd5c43a08e" y="252"/>
      </g>
     </g>
     <g id="text_4">
      <!-- 75 -->
      <g transform="translate(187.594877 266.598437)scale(0.1 -0.1)">
       <defs>
        <path d="M 525 4666 
L 3525 4666 
L 3525 4397 
L 1831 0 
L 1172 0 
L 2766 4134 
L 525 4134 
L 525 4666 
z
" id="DejaVuSans-37" transform="scale(0.015625)"/>
       </defs>
       <use xlink:href="#DejaVuSans-37"/>
       <use x="63.623047" xlink:href="#DejaVuSans-35"/>
      </g>
     </g>
    </g>
    <g id="xtick_5">
     <g id="line2d_5">
      <g>
       <use style="stroke:#000000;stroke-width:0.8;" x="235.537109" xlink:href="#mdd5c43a08e" y="252"/>
      </g>
     </g>
     <g id="text_5">
      <!-- 100 -->
      <g transform="translate(225.993359 266.598437)scale(0.1 -0.1)">
       <defs>
        <path d="M 794 531 
L 1825 531 
L 1825 4091 
L 703 3866 
L 703 4441 
L 1819 4666 
L 2450 4666 
L 2450 531 
L 3481 531 
L 3481 0 
L 794 0 
L 794 531 
z
" id="DejaVuSans-31" transform="scale(0.015625)"/>
       </defs>
       <use xlink:href="#DejaVuSans-31"/>
       <use x="63.623047" xlink:href="#DejaVuSans-30"/>
       <use x="127.246094" xlink:href="#DejaVuSans-30"/>
      </g>
     </g>
    </g>
    <g id="xtick_6">
     <g id="line2d_6">
      <g>
       <use style="stroke:#000000;stroke-width:0.8;" x="277.116841" xlink:href="#mdd5c43a08e" y="252"/>
      </g>
     </g>
     <g id="text_6">
      <!-- 125 -->
      <g transform="translate(267.573091 266.598437)scale(0.1 -0.1)">
       <use xlink:href="#DejaVuSans-31"/>
       <use x="63.623047" xlink:href="#DejaVuSans-32"/>
       <use x="127.246094" xlink:href="#DejaVuSans-35"/>
      </g>
     </g>
    </g>
    <g id="xtick_7">
     <g id="line2d_7">
      <g>
       <use style="stroke:#000000;stroke-width:0.8;" x="318.696572" xlink:href="#mdd5c43a08e" y="252"/>
      </g>
     </g>
     <g id="text_7">
      <!-- 150 -->
      <g transform="translate(309.152822 266.598437)scale(0.1 -0.1)">
       <use xlink:href="#DejaVuSans-31"/>
       <use x="63.623047" xlink:href="#DejaVuSans-35"/>
       <use x="127.246094" xlink:href="#DejaVuSans-30"/>
      </g>
     </g>
    </g>
    <g id="xtick_8">
     <g id="line2d_8">
      <g>
       <use style="stroke:#000000;stroke-width:0.8;" x="360.276304" xlink:href="#mdd5c43a08e" y="252"/>
      </g>
     </g>
     <g id="text_8">
      <!-- 175 -->
      <g transform="translate(350.732554 266.598437)scale(0.1 -0.1)">
       <use xlink:href="#DejaVuSans-31"/>
       <use x="63.623047" xlink:href="#DejaVuSans-37"/>
       <use x="127.246094" xlink:href="#DejaVuSans-35"/>
      </g>
     </g>
    </g>
    <g id="text_9">
     <!-- pixels -->
     <g transform="translate(201.188594 283.315938)scale(0.14 -0.14)">
      <defs>
       <path d="M 1159 525 
L 1159 -1331 
L 581 -1331 
L 581 3500 
L 1159 3500 
L 1159 2969 
Q 1341 3281 1617 3432 
Q 1894 3584 2278 3584 
Q 2916 3584 3314 3078 
Q 3713 2572 3713 1747 
Q 3713 922 3314 415 
Q 2916 -91 2278 -91 
Q 1894 -91 1617 61 
Q 1341 213 1159 525 
z
M 3116 1747 
Q 3116 2381 2855 2742 
Q 2594 3103 2138 3103 
Q 1681 3103 1420 2742 
Q 1159 2381 1159 1747 
Q 1159 1113 1420 752 
Q 1681 391 2138 391 
Q 2594 391 2855 752 
Q 3116 1113 3116 1747 
z
" id="DejaVuSans-70" transform="scale(0.015625)"/>
       <path d="M 603 3500 
L 1178 3500 
L 1178 0 
L 603 0 
L 603 3500 
z
M 603 4863 
L 1178 4863 
L 1178 4134 
L 603 4134 
L 603 4863 
z
" id="DejaVuSans-69" transform="scale(0.015625)"/>
       <path d="M 3513 3500 
L 2247 1797 
L 3578 0 
L 2900 0 
L 1881 1375 
L 863 0 
L 184 0 
L 1544 1831 
L 300 3500 
L 978 3500 
L 1906 2253 
L 2834 3500 
L 3513 3500 
z
" id="DejaVuSans-78" transform="scale(0.015625)"/>
       <path d="M 3597 1894 
L 3597 1613 
L 953 1613 
Q 991 1019 1311 708 
Q 1631 397 2203 397 
Q 2534 397 2845 478 
Q 3156 559 3463 722 
L 3463 178 
Q 3153 47 2828 -22 
Q 2503 -91 2169 -91 
Q 1331 -91 842 396 
Q 353 884 353 1716 
Q 353 2575 817 3079 
Q 1281 3584 2069 3584 
Q 2775 3584 3186 3129 
Q 3597 2675 3597 1894 
z
M 3022 2063 
Q 3016 2534 2758 2815 
Q 2500 3097 2075 3097 
Q 1594 3097 1305 2825 
Q 1016 2553 972 2059 
L 3022 2063 
z
" id="DejaVuSans-65" transform="scale(0.015625)"/>
       <path d="M 603 4863 
L 1178 4863 
L 1178 0 
L 603 0 
L 603 4863 
z
" id="DejaVuSans-6c" transform="scale(0.015625)"/>
       <path d="M 2834 3397 
L 2834 2853 
Q 2591 2978 2328 3040 
Q 2066 3103 1784 3103 
Q 1356 3103 1142 2972 
Q 928 2841 928 2578 
Q 928 2378 1081 2264 
Q 1234 2150 1697 2047 
L 1894 2003 
Q 2506 1872 2764 1633 
Q 3022 1394 3022 966 
Q 3022 478 2636 193 
Q 2250 -91 1575 -91 
Q 1294 -91 989 -36 
Q 684 19 347 128 
L 347 722 
Q 666 556 975 473 
Q 1284 391 1588 391 
Q 1994 391 2212 530 
Q 2431 669 2431 922 
Q 2431 1156 2273 1281 
Q 2116 1406 1581 1522 
L 1381 1569 
Q 847 1681 609 1914 
Q 372 2147 372 2553 
Q 372 3047 722 3315 
Q 1072 3584 1716 3584 
Q 2034 3584 2315 3537 
Q 2597 3491 2834 3397 
z
" id="DejaVuSans-73" transform="scale(0.015625)"/>
      </defs>
      <use xlink:href="#DejaVuSans-70"/>
      <use x="63.476562" xlink:href="#DejaVuSans-69"/>
      <use x="91.259766" xlink:href="#DejaVuSans-78"/>
      <use x="147.314453" xlink:href="#DejaVuSans-65"/>
      <use x="208.837891" xlink:href="#DejaVuSans-6c"/>
      <use x="236.621094" xlink:href="#DejaVuSans-73"/>
     </g>
    </g>
   </g>
   <g id="matplotlib.axis_2">
    <g id="ytick_1">
     <g id="line2d_9">
      <defs>
       <path d="M 0 0 
L -3.5 0 
" id="m230950cd96" style="stroke:#000000;stroke-width:0.8;"/>
      </defs>
      <g>
       <use style="stroke:#000000;stroke-width:0.8;" x="54" xlink:href="#m230950cd96" y="248.106446"/>
      </g>
     </g>
     <g id="text_10">
      <!-- 0.0 -->
      <g transform="translate(31.096875 251.905665)scale(0.1 -0.1)">
       <defs>
        <path d="M 684 794 
L 1344 794 
L 1344 0 
L 684 0 
L 684 794 
z
" id="DejaVuSans-2e" transform="scale(0.015625)"/>
       </defs>
       <use xlink:href="#DejaVuSans-30"/>
       <use x="63.623047" xlink:href="#DejaVuSans-2e"/>
       <use x="95.410156" xlink:href="#DejaVuSans-30"/>
      </g>
     </g>
    </g>
    <g id="ytick_2">
     <g id="line2d_10">
      <g>
       <use style="stroke:#000000;stroke-width:0.8;" x="54" xlink:href="#m230950cd96" y="207.373884"/>
      </g>
     </g>
     <g id="text_11">
      <!-- 0.2 -->
      <g transform="translate(31.096875 211.173103)scale(0.1 -0.1)">
       <use xlink:href="#DejaVuSans-30"/>
       <use x="63.623047" xlink:href="#DejaVuSans-2e"/>
       <use x="95.410156" xlink:href="#DejaVuSans-32"/>
      </g>
     </g>
    </g>
    <g id="ytick_3">
     <g id="line2d_11">
      <g>
       <use style="stroke:#000000;stroke-width:0.8;" x="54" xlink:href="#m230950cd96" y="166.641322"/>
      </g>
     </g>
     <g id="text_12">
      <!-- 0.4 -->
      <g transform="translate(31.096875 170.440541)scale(0.1 -0.1)">
       <defs>
        <path d="M 2419 4116 
L 825 1625 
L 2419 1625 
L 2419 4116 
z
M 2253 4666 
L 3047 4666 
L 3047 1625 
L 3713 1625 
L 3713 1100 
L 3047 1100 
L 3047 0 
L 2419 0 
L 2419 1100 
L 313 1100 
L 313 1709 
L 2253 4666 
z
" id="DejaVuSans-34" transform="scale(0.015625)"/>
       </defs>
       <use xlink:href="#DejaVuSans-30"/>
       <use x="63.623047" xlink:href="#DejaVuSans-2e"/>
       <use x="95.410156" xlink:href="#DejaVuSans-34"/>
      </g>
     </g>
    </g>
    <g id="ytick_4">
     <g id="line2d_12">
      <g>
       <use style="stroke:#000000;stroke-width:0.8;" x="54" xlink:href="#m230950cd96" y="125.90876"/>
      </g>
     </g>
     <g id="text_13">
      <!-- 0.6 -->
      <g transform="translate(31.096875 129.707979)scale(0.1 -0.1)">
       <defs>
        <path d="M 2113 2584 
Q 1688 2584 1439 2293 
Q 1191 2003 1191 1497 
Q 1191 994 1439 701 
Q 1688 409 2113 409 
Q 2538 409 2786 701 
Q 3034 994 3034 1497 
Q 3034 2003 2786 2293 
Q 2538 2584 2113 2584 
z
M 3366 4563 
L 3366 3988 
Q 3128 4100 2886 4159 
Q 2644 4219 2406 4219 
Q 1781 4219 1451 3797 
Q 1122 3375 1075 2522 
Q 1259 2794 1537 2939 
Q 1816 3084 2150 3084 
Q 2853 3084 3261 2657 
Q 3669 2231 3669 1497 
Q 3669 778 3244 343 
Q 2819 -91 2113 -91 
Q 1303 -91 875 529 
Q 447 1150 447 2328 
Q 447 3434 972 4092 
Q 1497 4750 2381 4750 
Q 2619 4750 2861 4703 
Q 3103 4656 3366 4563 
z
" id="DejaVuSans-36" transform="scale(0.015625)"/>
       </defs>
       <use xlink:href="#DejaVuSans-30"/>
       <use x="63.623047" xlink:href="#DejaVuSans-2e"/>
       <use x="95.410156" xlink:href="#DejaVuSans-36"/>
      </g>
     </g>
    </g>
    <g id="ytick_5">
     <g id="line2d_13">
      <g>
       <use style="stroke:#000000;stroke-width:0.8;" x="54" xlink:href="#m230950cd96" y="85.176198"/>
      </g>
     </g>
     <g id="text_14">
      <!-- 0.8 -->
      <g transform="translate(31.096875 88.975417)scale(0.1 -0.1)">
       <defs>
        <path d="M 2034 2216 
Q 1584 2216 1326 1975 
Q 1069 1734 1069 1313 
Q 1069 891 1326 650 
Q 1584 409 2034 409 
Q 2484 409 2743 651 
Q 3003 894 3003 1313 
Q 3003 1734 2745 1975 
Q 2488 2216 2034 2216 
z
M 1403 2484 
Q 997 2584 770 2862 
Q 544 3141 544 3541 
Q 544 4100 942 4425 
Q 1341 4750 2034 4750 
Q 2731 4750 3128 4425 
Q 3525 4100 3525 3541 
Q 3525 3141 3298 2862 
Q 3072 2584 2669 2484 
Q 3125 2378 3379 2068 
Q 3634 1759 3634 1313 
Q 3634 634 3220 271 
Q 2806 -91 2034 -91 
Q 1263 -91 848 271 
Q 434 634 434 1313 
Q 434 1759 690 2068 
Q 947 2378 1403 2484 
z
M 1172 3481 
Q 1172 3119 1398 2916 
Q 1625 2713 2034 2713 
Q 2441 2713 2670 2916 
Q 2900 3119 2900 3481 
Q 2900 3844 2670 4047 
Q 2441 4250 2034 4250 
Q 1625 4250 1398 4047 
Q 1172 3844 1172 3481 
z
" id="DejaVuSans-38" transform="scale(0.015625)"/>
       </defs>
       <use xlink:href="#DejaVuSans-30"/>
       <use x="63.623047" xlink:href="#DejaVuSans-2e"/>
       <use x="95.410156" xlink:href="#DejaVuSans-38"/>
      </g>
     </g>
    </g>
    <g id="ytick_6">
     <g id="line2d_14">
      <g>
       <use style="stroke:#000000;stroke-width:0.8;" x="54" xlink:href="#m230950cd96" y="44.443636"/>
      </g>
     </g>
     <g id="text_15">
      <!-- 1.0 -->
      <g transform="translate(31.096875 48.242855)scale(0.1 -0.1)">
       <use xlink:href="#DejaVuSans-31"/>
       <use x="63.623047" xlink:href="#DejaVuSans-2e"/>
       <use x="95.410156" xlink:href="#DejaVuSans-30"/>
      </g>
     </g>
    </g>
    <g id="text_16">
     <!-- Intensity [arb.] -->
     <g transform="translate(24.185312 195.270312)rotate(-90)scale(0.14 -0.14)">
      <defs>
       <path d="M 628 4666 
L 1259 4666 
L 1259 0 
L 628 0 
L 628 4666 
z
" id="DejaVuSans-49" transform="scale(0.015625)"/>
       <path d="M 3513 2113 
L 3513 0 
L 2938 0 
L 2938 2094 
Q 2938 2591 2744 2837 
Q 2550 3084 2163 3084 
Q 1697 3084 1428 2787 
Q 1159 2491 1159 1978 
L 1159 0 
L 581 0 
L 581 3500 
L 1159 3500 
L 1159 2956 
Q 1366 3272 1645 3428 
Q 1925 3584 2291 3584 
Q 2894 3584 3203 3211 
Q 3513 2838 3513 2113 
z
" id="DejaVuSans-6e" transform="scale(0.015625)"/>
       <path d="M 1172 4494 
L 1172 3500 
L 2356 3500 
L 2356 3053 
L 1172 3053 
L 1172 1153 
Q 1172 725 1289 603 
Q 1406 481 1766 481 
L 2356 481 
L 2356 0 
L 1766 0 
Q 1100 0 847 248 
Q 594 497 594 1153 
L 594 3053 
L 172 3053 
L 172 3500 
L 594 3500 
L 594 4494 
L 1172 4494 
z
" id="DejaVuSans-74" transform="scale(0.015625)"/>
       <path d="M 2059 -325 
Q 1816 -950 1584 -1140 
Q 1353 -1331 966 -1331 
L 506 -1331 
L 506 -850 
L 844 -850 
Q 1081 -850 1212 -737 
Q 1344 -625 1503 -206 
L 1606 56 
L 191 3500 
L 800 3500 
L 1894 763 
L 2988 3500 
L 3597 3500 
L 2059 -325 
z
" id="DejaVuSans-79" transform="scale(0.015625)"/>
       <path id="DejaVuSans-20" transform="scale(0.015625)"/>
       <path d="M 550 4863 
L 1875 4863 
L 1875 4416 
L 1125 4416 
L 1125 -397 
L 1875 -397 
L 1875 -844 
L 550 -844 
L 550 4863 
z
" id="DejaVuSans-5b" transform="scale(0.015625)"/>
       <path d="M 2194 1759 
Q 1497 1759 1228 1600 
Q 959 1441 959 1056 
Q 959 750 1161 570 
Q 1363 391 1709 391 
Q 2188 391 2477 730 
Q 2766 1069 2766 1631 
L 2766 1759 
L 2194 1759 
z
M 3341 1997 
L 3341 0 
L 2766 0 
L 2766 531 
Q 2569 213 2275 61 
Q 1981 -91 1556 -91 
Q 1019 -91 701 211 
Q 384 513 384 1019 
Q 384 1609 779 1909 
Q 1175 2209 1959 2209 
L 2766 2209 
L 2766 2266 
Q 2766 2663 2505 2880 
Q 2244 3097 1772 3097 
Q 1472 3097 1187 3025 
Q 903 2953 641 2809 
L 641 3341 
Q 956 3463 1253 3523 
Q 1550 3584 1831 3584 
Q 2591 3584 2966 3190 
Q 3341 2797 3341 1997 
z
" id="DejaVuSans-61" transform="scale(0.015625)"/>
       <path d="M 2631 2963 
Q 2534 3019 2420 3045 
Q 2306 3072 2169 3072 
Q 1681 3072 1420 2755 
Q 1159 2438 1159 1844 
L 1159 0 
L 581 0 
L 581 3500 
L 1159 3500 
L 1159 2956 
Q 1341 3275 1631 3429 
Q 1922 3584 2338 3584 
Q 2397 3584 2469 3576 
Q 2541 3569 2628 3553 
L 2631 2963 
z
" id="DejaVuSans-72" transform="scale(0.015625)"/>
       <path d="M 3116 1747 
Q 3116 2381 2855 2742 
Q 2594 3103 2138 3103 
Q 1681 3103 1420 2742 
Q 1159 2381 1159 1747 
Q 1159 1113 1420 752 
Q 1681 391 2138 391 
Q 2594 391 2855 752 
Q 3116 1113 3116 1747 
z
M 1159 2969 
Q 1341 3281 1617 3432 
Q 1894 3584 2278 3584 
Q 2916 3584 3314 3078 
Q 3713 2572 3713 1747 
Q 3713 922 3314 415 
Q 2916 -91 2278 -91 
Q 1894 -91 1617 61 
Q 1341 213 1159 525 
L 1159 0 
L 581 0 
L 581 4863 
L 1159 4863 
L 1159 2969 
z
" id="DejaVuSans-62" transform="scale(0.015625)"/>
       <path d="M 1947 4863 
L 1947 -844 
L 622 -844 
L 622 -397 
L 1369 -397 
L 1369 4416 
L 622 4416 
L 622 4863 
L 1947 4863 
z
" id="DejaVuSans-5d" transform="scale(0.015625)"/>
      </defs>
      <use xlink:href="#DejaVuSans-49"/>
      <use x="29.492188" xlink:href="#DejaVuSans-6e"/>
      <use x="92.871094" xlink:href="#DejaVuSans-74"/>
      <use x="132.080078" xlink:href="#DejaVuSans-65"/>
      <use x="193.603516" xlink:href="#DejaVuSans-6e"/>
      <use x="256.982422" xlink:href="#DejaVuSans-73"/>
      <use x="309.082031" xlink:href="#DejaVuSans-69"/>
      <use x="336.865234" xlink:href="#DejaVuSans-74"/>
      <use x="376.074219" xlink:href="#DejaVuSans-79"/>
      <use x="435.253906" xlink:href="#DejaVuSans-20"/>
      <use x="467.041016" xlink:href="#DejaVuSans-5b"/>
      <use x="506.054688" xlink:href="#DejaVuSans-61"/>
      <use x="567.333984" xlink:href="#DejaVuSans-72"/>
      <use x="608.447266" xlink:href="#DejaVuSans-62"/>
      <use x="671.923828" xlink:href="#DejaVuSans-2e"/>
      <use x="703.710938" xlink:href="#DejaVuSans-5d"/>
     </g>
    </g>
   </g>
   <g id="line2d_15">
    <path clip-path="url(#p375483254c)" d="M 69.218182 47.1977 
L 70.881371 48.952782 
L 72.54456 51.892479 
L 74.20775 56.58425 
L 75.870939 63.700563 
L 77.534128 73.923725 
L 79.197317 87.775131 
L 80.860507 105.385163 
L 82.523696 126.266324 
L 87.513264 193.563053 
L 89.176453 211.112722 
L 90.839642 223.99797 
L 92.502832 232.223389 
L 94.166021 236.490035 
L 95.82921 237.579149 
L 97.492399 235.762993 
L 99.155589 230.606564 
L 100.818778 221.285706 
L 102.481967 207.220943 
L 104.145156 188.640143 
L 107.471535 143.481827 
L 109.134724 120.910264 
L 110.797914 100.765789 
L 112.461103 84.103936 
L 114.124292 71.2715 
L 115.787481 62.072027 
L 117.450671 56.018281 
L 119.11386 52.574292 
L 120.777049 51.335568 
L 122.440238 52.13531 
L 124.103428 55.0826 
L 125.766617 60.537765 
L 127.429806 69.021358 
L 129.092996 81.049648 
L 130.756185 96.903025 
L 132.419374 116.369016 
L 139.072131 203.614982 
L 140.73532 218.694664 
L 142.39851 228.998161 
L 144.061699 234.970437 
L 145.724888 237.440449 
L 147.388077 236.968467 
L 149.051267 233.434114 
L 150.714456 226.123872 
L 152.377645 214.262607 
L 154.040835 197.65832 
L 155.704024 177.080321 
L 160.693592 109.609657 
L 162.356781 91.268398 
L 164.01997 76.67846 
L 165.683159 65.863491 
L 167.346349 58.43706 
L 169.009538 53.858783 
L 170.672727 51.646323 
L 172.335917 51.515329 
L 173.999106 53.447773 
L 175.662295 57.695975 
L 177.325484 64.722954 
L 178.988674 75.072105 
L 180.651863 89.163778 
L 182.315052 107.041775 
L 183.978241 128.13685 
L 187.30462 174.206465 
L 188.967809 195.192525 
L 190.630999 212.375636 
L 192.294188 224.858068 
L 193.957377 232.719791 
L 195.620566 236.694521 
L 197.283756 237.540126 
L 198.946945 235.470065 
L 200.610134 229.998068 
L 202.273323 220.294412 
L 203.936513 205.829403 
L 205.599702 186.913018 
L 208.92608 141.539492 
L 210.58927 119.112777 
L 212.252459 99.229416 
L 213.915648 82.883596 
L 215.578838 70.368339 
L 217.242027 61.452808 
L 218.905216 55.637061 
L 220.568405 52.390244 
L 222.231595 51.324675 
L 223.894784 52.296051 
L 225.557973 55.436281 
L 227.221162 61.123565 
L 228.884352 69.88544 
L 230.547541 82.228074 
L 232.21073 98.400323 
L 233.87392 118.138002 
L 238.863487 185.959456 
L 240.526677 205.055405 
L 242.189866 219.738326 
L 243.853055 229.652935 
L 245.516244 235.30003 
L 247.179434 237.510372 
L 248.842623 236.797157 
L 250.505812 232.979564 
L 252.169001 225.314287 
L 253.832191 213.051686 
L 255.49538 196.071505 
L 257.158569 175.226323 
L 260.484948 129.15978 
L 262.148137 107.943102 
L 263.811326 89.900239 
L 265.474516 75.632544 
L 267.137705 65.119591 
L 268.800894 57.952516 
L 270.464083 53.588588 
L 272.127273 51.557707 
L 273.790462 51.596111 
L 275.453651 53.709087 
L 277.116841 58.169787 
L 278.78003 65.453982 
L 280.443219 76.103519 
L 282.106408 90.517317 
L 283.769598 108.696025 
L 285.432787 130.011476 
L 288.759165 176.068983 
L 290.422355 196.794505 
L 292.085544 213.604951 
L 293.748733 225.685404 
L 295.411923 233.188981 
L 297.075112 236.877464 
L 298.738301 237.481152 
L 300.40149 235.15356 
L 302.06468 229.359783 
L 303.727869 219.269285 
L 305.391058 204.406119 
L 307.054247 185.16334 
L 312.043815 117.333503 
L 313.707004 97.718214 
L 315.370194 81.690365 
L 317.033383 69.490517 
L 318.696572 60.855289 
L 320.359762 55.273726 
L 322.022951 52.221311 
L 323.68614 51.327869 
L 325.349329 52.471817 
L 327.012519 55.807691 
L 328.675708 61.730882 
L 330.338897 70.77472 
L 332.002086 83.433596 
L 333.665276 99.922983 
L 335.328465 119.925634 
L 340.318033 187.699034 
L 341.981222 206.464355 
L 343.644411 220.748096 
L 345.307601 230.27765 
L 346.97079 235.605786 
L 348.633979 237.560287 
L 350.297168 236.604487 
L 351.960358 232.498098 
L 353.623547 224.47212 
L 355.286736 211.807055 
L 356.949925 194.456774 
L 358.613115 173.35589 
L 361.939493 127.282006 
L 363.602683 106.27493 
L 365.265872 88.499308 
L 366.929061 74.474988 
L 368.59225 64.095272 
L 370.25544 56.851337 
L 371.918629 52.063935 
L 373.581818 49.057517 
L 373.581818 49.057517 
" style="fill:none;stroke:#9400d3;stroke-dasharray:5.55,2.4;stroke-dashoffset:0;stroke-width:1.5;"/>
   </g>
   <g id="patch_3">
    <path d="M 54 252 
L 54 34.56 
" style="fill:none;stroke:#000000;stroke-linecap:square;stroke-linejoin:miter;stroke-width:0.8;"/>
   </g>
   <g id="patch_4">
    <path d="M 388.8 252 
L 388.8 34.56 
" style="fill:none;stroke:#000000;stroke-linecap:square;stroke-linejoin:miter;stroke-width:0.8;"/>
   </g>
   <g id="patch_5">
    <path d="M 54 252 
L 388.8 252 
" style="fill:none;stroke:#000000;stroke-linecap:square;stroke-linejoin:miter;stroke-width:0.8;"/>
   </g>
   <g id="patch_6">
    <path d="M 54 34.56 
L 388.8 34.56 
" style="fill:none;stroke:#000000;stroke-linecap:square;stroke-linejoin:miter;stroke-width:0.8;"/>
   </g>
  </g>
  <g id="legend_1">
   <g id="line2d_16">
    <path d="M 372.475 13.098437 
L 392.475 13.098437 
" style="fill:none;stroke:#9400d3;stroke-dasharray:5.55,2.4;stroke-dashoffset:0;stroke-width:1.5;"/>
   </g>
   <g id="line2d_17"/>
   <g id="text_17">
    <!-- fit -->
    <g transform="translate(400.475 16.598437)scale(0.1 -0.1)">
     <defs>
      <path d="M 2375 4863 
L 2375 4384 
L 1825 4384 
Q 1516 4384 1395 4259 
Q 1275 4134 1275 3809 
L 1275 3500 
L 2222 3500 
L 2222 3053 
L 1275 3053 
L 1275 0 
L 697 0 
L 697 3053 
L 147 3053 
L 147 3500 
L 697 3500 
L 697 3744 
Q 697 4328 969 4595 
Q 1241 4863 1831 4863 
L 2375 4863 
z
" id="DejaVuSans-66" transform="scale(0.015625)"/>
     </defs>
     <use xlink:href="#DejaVuSans-66"/>
     <use x="35.205078" xlink:href="#DejaVuSans-69"/>
     <use x="62.988281" xlink:href="#DejaVuSans-74"/>
    </g>
   </g>
   <g id="PathCollection_2">
    <g>
     <use style="fill:#8b008b;stroke:#8b008b;stroke-width:2;" x="382.475" xlink:href="#m05d78c27d0" y="28.651563"/>
    </g>
   </g>
   <g id="text_18">
    <!-- data -->
    <g transform="translate(400.475 31.276563)scale(0.1 -0.1)">
     <defs>
      <path d="M 2906 2969 
L 2906 4863 
L 3481 4863 
L 3481 0 
L 2906 0 
L 2906 525 
Q 2725 213 2448 61 
Q 2172 -91 1784 -91 
Q 1150 -91 751 415 
Q 353 922 353 1747 
Q 353 2572 751 3078 
Q 1150 3584 1784 3584 
Q 2172 3584 2448 3432 
Q 2725 3281 2906 2969 
z
M 947 1747 
Q 947 1113 1208 752 
Q 1469 391 1925 391 
Q 2381 391 2643 752 
Q 2906 1113 2906 1747 
Q 2906 2381 2643 2742 
Q 2381 3103 1925 3103 
Q 1469 3103 1208 2742 
Q 947 2381 947 1747 
z
" id="DejaVuSans-64" transform="scale(0.015625)"/>
     </defs>
     <use xlink:href="#DejaVuSans-64"/>
     <use x="63.476562" xlink:href="#DejaVuSans-61"/>
     <use x="124.755859" xlink:href="#DejaVuSans-74"/>
     <use x="163.964844" xlink:href="#DejaVuSans-61"/>
    </g>
   </g>
  </g>
 </g>
 <defs>
  <clipPath id="p375483254c">
   <rect height="217.44" width="334.8" x="54" y="34.56"/>
  </clipPath>
 </defs>
</svg>
