<?xml version="1.0" encoding="utf-8" standalone="no"?>
<!DOCTYPE svg PUBLIC "-//W3C//DTD SVG 1.1//EN"
  "http://www.w3.org/Graphics/SVG/1.1/DTD/svg11.dtd">
<svg height="288pt" version="1.1" viewBox="0 0 432 288" width="432pt" xmlns="http://www.w3.org/2000/svg" xmlns:xlink="http://www.w3.org/1999/xlink">
 <metadata>
  <rdf:RDF xmlns:cc="http://creativecommons.org/ns#" xmlns:dc="http://purl.org/dc/elements/1.1/" xmlns:rdf="http://www.w3.org/1999/02/22-rdf-syntax-ns#">
   <cc:Work>
    <dc:type rdf:resource="http://purl.org/dc/dcmitype/StillImage"/>
    <dc:date>2022-06-07T16:09:59.168575</dc:date>
    <dc:format>image/svg+xml</dc:format>
    <dc:creator>
     <cc:Agent>
      <dc:title>Matplotlib v3.4.3, https://matplotlib.org/</dc:title>
     </cc:Agent>
    </dc:creator>
   </cc:Work>
  </rdf:RDF>
 </metadata>
 <defs>
  <style type="text/css">*{stroke-linecap:butt;stroke-linejoin:round;}</style>
 </defs>
 <g id="figure_1">
  <g id="patch_1">
   <path d="M 0 288 
L 432 288 
L 432 0 
L 0 0 
z
" style="fill:none;"/>
  </g>
  <g id="axes_1">
   <g id="patch_2">
    <path d="M 33.675 260.2 
L 96.5525 260.2 
L 96.5525 14.8 
L 33.675 14.8 
z
" style="fill:#ffffff;"/>
   </g>
   <g id="PathCollection_1">
    <defs>
     <path d="M 0 1.5 
C 0.397805 1.5 0.77937 1.341951 1.06066 1.06066 
C 1.341951 0.77937 1.5 0.397805 1.5 0 
C 1.5 -0.397805 1.341951 -0.77937 1.06066 -1.06066 
C 0.77937 -1.341951 0.397805 -1.5 0 -1.5 
C -0.397805 -1.5 -0.77937 -1.341951 -1.06066 -1.06066 
C -1.341951 -0.77937 -1.5 -0.397805 -1.5 0 
C -1.5 0.397805 -1.341951 0.77937 -1.06066 1.06066 
C -0.77937 1.341951 -0.397805 1.5 0 1.5 
z
" id="m6cfb757733" style="stroke:#8b008b;stroke-width:2;"/>
    </defs>
    <g clip-path="url(#p2175f660b7)">
     <use style="fill:#8b008b;stroke:#8b008b;stroke-width:2;" x="36.533068" xlink:href="#m6cfb757733" y="35.538028"/>
     <use style="fill:#8b008b;stroke:#8b008b;stroke-width:2;" x="41.296515" xlink:href="#m6cfb757733" y="91.703521"/>
     <use style="fill:#8b008b;stroke:#8b008b;stroke-width:2;" x="46.059962" xlink:href="#m6cfb757733" y="126.266901"/>
     <use style="fill:#8b008b;stroke:#8b008b;stroke-width:2;" x="50.823409" xlink:href="#m6cfb757733" y="156.509859"/>
     <use style="fill:#8b008b;stroke:#8b008b;stroke-width:2;" x="55.586856" xlink:href="#m6cfb757733" y="178.111972"/>
     <use style="fill:#8b008b;stroke:#8b008b;stroke-width:2;" x="60.350303" xlink:href="#m6cfb757733" y="195.393662"/>
     <use style="fill:#8b008b;stroke:#8b008b;stroke-width:2;" x="65.11375" xlink:href="#m6cfb757733" y="216.995775"/>
     <use style="fill:#8b008b;stroke:#8b008b;stroke-width:2;" x="69.877197" xlink:href="#m6cfb757733" y="221.316197"/>
     <use style="fill:#8b008b;stroke:#8b008b;stroke-width:2;" x="74.640644" xlink:href="#m6cfb757733" y="199.714085"/>
     <use style="fill:#8b008b;stroke:#8b008b;stroke-width:2;" x="79.404091" xlink:href="#m6cfb757733" y="186.752817"/>
     <use style="fill:#8b008b;stroke:#8b008b;stroke-width:2;" x="84.167538" xlink:href="#m6cfb757733" y="156.509859"/>
     <use style="fill:#8b008b;stroke:#8b008b;stroke-width:2;" x="88.930985" xlink:href="#m6cfb757733" y="108.985211"/>
     <use style="fill:#8b008b;stroke:#8b008b;stroke-width:2;" x="93.694432" xlink:href="#m6cfb757733" y="35.538028"/>
    </g>
   </g>
   <g id="matplotlib.axis_1">
    <g id="xtick_1">
     <g id="line2d_1">
      <defs>
       <path d="M 0 0 
L 0 3.5 
" id="m75112d48b7" style="stroke:#000000;stroke-width:0.8;"/>
      </defs>
      <g>
       <use style="stroke:#000000;stroke-width:0.8;" x="36.533068" xlink:href="#m75112d48b7" y="260.2"/>
      </g>
     </g>
     <g id="text_1">
      <!-- 0 -->
      <g transform="translate(33.351818 274.798437)scale(0.1 -0.1)">
       <defs>
        <path d="M 2034 4250 
Q 1547 4250 1301 3770 
Q 1056 3291 1056 2328 
Q 1056 1369 1301 889 
Q 1547 409 2034 409 
Q 2525 409 2770 889 
Q 3016 1369 3016 2328 
Q 3016 3291 2770 3770 
Q 2525 4250 2034 4250 
z
M 2034 4750 
Q 2819 4750 3233 4129 
Q 3647 3509 3647 2328 
Q 3647 1150 3233 529 
Q 2819 -91 2034 -91 
Q 1250 -91 836 529 
Q 422 1150 422 2328 
Q 422 3509 836 4129 
Q 1250 4750 2034 4750 
z
" id="DejaVuSans-30" transform="scale(0.015625)"/>
       </defs>
       <use xlink:href="#DejaVuSans-30"/>
      </g>
     </g>
    </g>
    <g id="xtick_2">
     <g id="line2d_2">
      <g>
       <use style="stroke:#000000;stroke-width:0.8;" x="84.167538" xlink:href="#m75112d48b7" y="260.2"/>
      </g>
     </g>
     <g id="text_2">
      <!-- 10 -->
      <g transform="translate(77.805038 274.798437)scale(0.1 -0.1)">
       <defs>
        <path d="M 794 531 
L 1825 531 
L 1825 4091 
L 703 3866 
L 703 4441 
L 1819 4666 
L 2450 4666 
L 2450 531 
L 3481 531 
L 3481 0 
L 794 0 
L 794 531 
z
" id="DejaVuSans-31" transform="scale(0.015625)"/>
       </defs>
       <use xlink:href="#DejaVuSans-31"/>
       <use x="63.623047" xlink:href="#DejaVuSans-30"/>
      </g>
     </g>
    </g>
   </g>
   <g id="matplotlib.axis_2">
    <g id="ytick_1">
     <g id="line2d_3">
      <defs>
       <path d="M 0 0 
L -3.5 0 
" id="md22c9269b9" style="stroke:#000000;stroke-width:0.8;"/>
      </defs>
      <g>
       <use style="stroke:#000000;stroke-width:0.8;" x="33.675" xlink:href="#md22c9269b9" y="260.2"/>
      </g>
     </g>
     <g id="text_3">
      <!-- 0.00 -->
      <g transform="translate(4.409375 263.999219)scale(0.1 -0.1)">
       <defs>
        <path d="M 684 794 
L 1344 794 
L 1344 0 
L 684 0 
L 684 794 
z
" id="DejaVuSans-2e" transform="scale(0.015625)"/>
       </defs>
       <use xlink:href="#DejaVuSans-30"/>
       <use x="63.623047" xlink:href="#DejaVuSans-2e"/>
       <use x="95.410156" xlink:href="#DejaVuSans-30"/>
       <use x="159.033203" xlink:href="#DejaVuSans-30"/>
      </g>
     </g>
    </g>
    <g id="ytick_2">
     <g id="line2d_4">
      <g>
       <use style="stroke:#000000;stroke-width:0.8;" x="33.675" xlink:href="#md22c9269b9" y="229.525"/>
      </g>
     </g>
     <g id="text_4">
      <!-- 0.05 -->
      <g transform="translate(4.409375 233.324219)scale(0.1 -0.1)">
       <defs>
        <path d="M 691 4666 
L 3169 4666 
L 3169 4134 
L 1269 4134 
L 1269 2991 
Q 1406 3038 1543 3061 
Q 1681 3084 1819 3084 
Q 2600 3084 3056 2656 
Q 3513 2228 3513 1497 
Q 3513 744 3044 326 
Q 2575 -91 1722 -91 
Q 1428 -91 1123 -41 
Q 819 9 494 109 
L 494 744 
Q 775 591 1075 516 
Q 1375 441 1709 441 
Q 2250 441 2565 725 
Q 2881 1009 2881 1497 
Q 2881 1984 2565 2268 
Q 2250 2553 1709 2553 
Q 1456 2553 1204 2497 
Q 953 2441 691 2322 
L 691 4666 
z
" id="DejaVuSans-35" transform="scale(0.015625)"/>
       </defs>
       <use xlink:href="#DejaVuSans-30"/>
       <use x="63.623047" xlink:href="#DejaVuSans-2e"/>
       <use x="95.410156" xlink:href="#DejaVuSans-30"/>
       <use x="159.033203" xlink:href="#DejaVuSans-35"/>
      </g>
     </g>
    </g>
    <g id="ytick_3">
     <g id="line2d_5">
      <g>
       <use style="stroke:#000000;stroke-width:0.8;" x="33.675" xlink:href="#md22c9269b9" y="198.85"/>
      </g>
     </g>
     <g id="text_5">
      <!-- 0.10 -->
      <g transform="translate(4.409375 202.649219)scale(0.1 -0.1)">
       <use xlink:href="#DejaVuSans-30"/>
       <use x="63.623047" xlink:href="#DejaVuSans-2e"/>
       <use x="95.410156" xlink:href="#DejaVuSans-31"/>
       <use x="159.033203" xlink:href="#DejaVuSans-30"/>
      </g>
     </g>
    </g>
    <g id="ytick_4">
     <g id="line2d_6">
      <g>
       <use style="stroke:#000000;stroke-width:0.8;" x="33.675" xlink:href="#md22c9269b9" y="168.175"/>
      </g>
     </g>
     <g id="text_6">
      <!-- 0.15 -->
      <g transform="translate(4.409375 171.974219)scale(0.1 -0.1)">
       <use xlink:href="#DejaVuSans-30"/>
       <use x="63.623047" xlink:href="#DejaVuSans-2e"/>
       <use x="95.410156" xlink:href="#DejaVuSans-31"/>
       <use x="159.033203" xlink:href="#DejaVuSans-35"/>
      </g>
     </g>
    </g>
    <g id="ytick_5">
     <g id="line2d_7">
      <g>
       <use style="stroke:#000000;stroke-width:0.8;" x="33.675" xlink:href="#md22c9269b9" y="137.5"/>
      </g>
     </g>
     <g id="text_7">
      <!-- 0.20 -->
      <g transform="translate(4.409375 141.299219)scale(0.1 -0.1)">
       <defs>
        <path d="M 1228 531 
L 3431 531 
L 3431 0 
L 469 0 
L 469 531 
Q 828 903 1448 1529 
Q 2069 2156 2228 2338 
Q 2531 2678 2651 2914 
Q 2772 3150 2772 3378 
Q 2772 3750 2511 3984 
Q 2250 4219 1831 4219 
Q 1534 4219 1204 4116 
Q 875 4013 500 3803 
L 500 4441 
Q 881 4594 1212 4672 
Q 1544 4750 1819 4750 
Q 2544 4750 2975 4387 
Q 3406 4025 3406 3419 
Q 3406 3131 3298 2873 
Q 3191 2616 2906 2266 
Q 2828 2175 2409 1742 
Q 1991 1309 1228 531 
z
" id="DejaVuSans-32" transform="scale(0.015625)"/>
       </defs>
       <use xlink:href="#DejaVuSans-30"/>
       <use x="63.623047" xlink:href="#DejaVuSans-2e"/>
       <use x="95.410156" xlink:href="#DejaVuSans-32"/>
       <use x="159.033203" xlink:href="#DejaVuSans-30"/>
      </g>
     </g>
    </g>
    <g id="ytick_6">
     <g id="line2d_8">
      <g>
       <use style="stroke:#000000;stroke-width:0.8;" x="33.675" xlink:href="#md22c9269b9" y="106.825"/>
      </g>
     </g>
     <g id="text_8">
      <!-- 0.25 -->
      <g transform="translate(4.409375 110.624219)scale(0.1 -0.1)">
       <use xlink:href="#DejaVuSans-30"/>
       <use x="63.623047" xlink:href="#DejaVuSans-2e"/>
       <use x="95.410156" xlink:href="#DejaVuSans-32"/>
       <use x="159.033203" xlink:href="#DejaVuSans-35"/>
      </g>
     </g>
    </g>
    <g id="ytick_7">
     <g id="line2d_9">
      <g>
       <use style="stroke:#000000;stroke-width:0.8;" x="33.675" xlink:href="#md22c9269b9" y="76.15"/>
      </g>
     </g>
     <g id="text_9">
      <!-- 0.30 -->
      <g transform="translate(4.409375 79.949219)scale(0.1 -0.1)">
       <defs>
        <path d="M 2597 2516 
Q 3050 2419 3304 2112 
Q 3559 1806 3559 1356 
Q 3559 666 3084 287 
Q 2609 -91 1734 -91 
Q 1441 -91 1130 -33 
Q 819 25 488 141 
L 488 750 
Q 750 597 1062 519 
Q 1375 441 1716 441 
Q 2309 441 2620 675 
Q 2931 909 2931 1356 
Q 2931 1769 2642 2001 
Q 2353 2234 1838 2234 
L 1294 2234 
L 1294 2753 
L 1863 2753 
Q 2328 2753 2575 2939 
Q 2822 3125 2822 3475 
Q 2822 3834 2567 4026 
Q 2313 4219 1838 4219 
Q 1578 4219 1281 4162 
Q 984 4106 628 3988 
L 628 4550 
Q 988 4650 1302 4700 
Q 1616 4750 1894 4750 
Q 2613 4750 3031 4423 
Q 3450 4097 3450 3541 
Q 3450 3153 3228 2886 
Q 3006 2619 2597 2516 
z
" id="DejaVuSans-33" transform="scale(0.015625)"/>
       </defs>
       <use xlink:href="#DejaVuSans-30"/>
       <use x="63.623047" xlink:href="#DejaVuSans-2e"/>
       <use x="95.410156" xlink:href="#DejaVuSans-33"/>
       <use x="159.033203" xlink:href="#DejaVuSans-30"/>
      </g>
     </g>
    </g>
    <g id="ytick_8">
     <g id="line2d_10">
      <g>
       <use style="stroke:#000000;stroke-width:0.8;" x="33.675" xlink:href="#md22c9269b9" y="45.475"/>
      </g>
     </g>
     <g id="text_10">
      <!-- 0.35 -->
      <g transform="translate(4.409375 49.274219)scale(0.1 -0.1)">
       <use xlink:href="#DejaVuSans-30"/>
       <use x="63.623047" xlink:href="#DejaVuSans-2e"/>
       <use x="95.410156" xlink:href="#DejaVuSans-33"/>
       <use x="159.033203" xlink:href="#DejaVuSans-35"/>
      </g>
     </g>
    </g>
    <g id="ytick_9">
     <g id="line2d_11">
      <g>
       <use style="stroke:#000000;stroke-width:0.8;" x="33.675" xlink:href="#md22c9269b9" y="14.8"/>
      </g>
     </g>
     <g id="text_11">
      <!-- 0.40 -->
      <g transform="translate(4.409375 18.599219)scale(0.1 -0.1)">
       <defs>
        <path d="M 2419 4116 
L 825 1625 
L 2419 1625 
L 2419 4116 
z
M 2253 4666 
L 3047 4666 
L 3047 1625 
L 3713 1625 
L 3713 1100 
L 3047 1100 
L 3047 0 
L 2419 0 
L 2419 1100 
L 313 1100 
L 313 1709 
L 2253 4666 
z
" id="DejaVuSans-34" transform="scale(0.015625)"/>
       </defs>
       <use xlink:href="#DejaVuSans-30"/>
       <use x="63.623047" xlink:href="#DejaVuSans-2e"/>
       <use x="95.410156" xlink:href="#DejaVuSans-34"/>
       <use x="159.033203" xlink:href="#DejaVuSans-30"/>
      </g>
     </g>
    </g>
   </g>
   <g id="line2d_12">
    <path clip-path="url(#p2175f660b7)" d="M 36.533068 28.644088 
L 41.296515 84.295966 
L 46.059962 129.866155 
L 50.823409 165.435281 
L 55.586856 191.10552 
L 60.350303 207.017549 
L 65.11375 213.406213 
L 69.877197 210.780466 
L 74.640644 198.827196 
L 79.404091 177.194137 
L 84.167538 145.713839 
L 88.930985 104.271284 
L 93.694432 52.778223 
" style="fill:none;stroke:#9400d3;stroke-dasharray:5.55,2.4;stroke-dashoffset:0;stroke-width:1.5;"/>
   </g>
   <g id="patch_3">
    <path d="M 33.675 260.2 
L 33.675 14.8 
" style="fill:none;stroke:#000000;stroke-linecap:square;stroke-linejoin:miter;stroke-width:0.8;"/>
   </g>
   <g id="patch_4">
    <path d="M 96.5525 260.2 
L 96.5525 14.8 
" style="fill:none;stroke:#000000;stroke-linecap:square;stroke-linejoin:miter;stroke-width:0.8;"/>
   </g>
   <g id="patch_5">
    <path d="M 33.675 260.2 
L 96.5525 260.2 
" style="fill:none;stroke:#000000;stroke-linecap:square;stroke-linejoin:miter;stroke-width:0.8;"/>
   </g>
   <g id="patch_6">
    <path d="M 33.675 14.8 
L 96.5525 14.8 
" style="fill:none;stroke:#000000;stroke-linecap:square;stroke-linejoin:miter;stroke-width:0.8;"/>
   </g>
   <g id="text_12">
    <!-- $\alpha$=2.04 -->
    <g transform="translate(42.73375 8.8)scale(0.12 -0.12)">
     <defs>
      <path d="M 2619 1628 
L 2622 2350 
Q 2625 3088 2069 3091 
Q 1653 3094 1394 2747 
Q 1069 2319 959 1747 
Q 825 1059 994 731 
Q 1169 397 1547 397 
Q 1966 397 2319 1063 
L 2619 1628 
z
M 2166 3578 
Q 3141 3594 3128 2584 
Q 3128 2584 3616 3500 
L 4128 3500 
L 3119 1603 
L 3109 919 
Q 3109 766 3194 638 
Q 3291 488 3391 488 
L 3669 488 
L 3575 0 
L 3228 0 
Q 2934 0 2722 263 
Q 2622 394 2619 669 
Q 2416 334 2066 50 
Q 1900 -81 1453 -78 
Q 722 -72 456 397 
Q 184 884 353 1747 
Q 534 2675 1009 3097 
Q 1544 3569 2166 3578 
z
" id="DejaVuSans-Oblique-3b1" transform="scale(0.015625)"/>
      <path d="M 678 2906 
L 4684 2906 
L 4684 2381 
L 678 2381 
L 678 2906 
z
M 678 1631 
L 4684 1631 
L 4684 1100 
L 678 1100 
L 678 1631 
z
" id="DejaVuSans-3d" transform="scale(0.015625)"/>
     </defs>
     <use transform="translate(0 0.78125)" xlink:href="#DejaVuSans-Oblique-3b1"/>
     <use transform="translate(65.917969 0.78125)" xlink:href="#DejaVuSans-3d"/>
     <use transform="translate(149.707031 0.78125)" xlink:href="#DejaVuSans-32"/>
     <use transform="translate(213.330078 0.78125)" xlink:href="#DejaVuSans-2e"/>
     <use transform="translate(245.117188 0.78125)" xlink:href="#DejaVuSans-30"/>
     <use transform="translate(308.740234 0.78125)" xlink:href="#DejaVuSans-34"/>
    </g>
   </g>
  </g>
  <g id="axes_2">
   <g id="patch_7">
    <path d="M 114.04 260.2 
L 176.9175 260.2 
L 176.9175 14.8 
L 114.04 14.8 
z
" style="fill:#ffffff;"/>
   </g>
   <g id="PathCollection_2">
    <g clip-path="url(#p528786f504)">
     <use style="fill:#8b008b;stroke:#8b008b;stroke-width:2;" x="116.898068" xlink:href="#m6cfb757733" y="70.101408"/>
     <use style="fill:#8b008b;stroke:#8b008b;stroke-width:2;" x="122.094556" xlink:href="#m6cfb757733" y="108.985211"/>
     <use style="fill:#8b008b;stroke:#8b008b;stroke-width:2;" x="127.291043" xlink:href="#m6cfb757733" y="147.869014"/>
     <use style="fill:#8b008b;stroke:#8b008b;stroke-width:2;" x="132.487531" xlink:href="#m6cfb757733" y="178.111972"/>
     <use style="fill:#8b008b;stroke:#8b008b;stroke-width:2;" x="137.684019" xlink:href="#m6cfb757733" y="208.35493"/>
     <use style="fill:#8b008b;stroke:#8b008b;stroke-width:2;" x="142.880506" xlink:href="#m6cfb757733" y="229.957042"/>
     <use style="fill:#8b008b;stroke:#8b008b;stroke-width:2;" x="148.076994" xlink:href="#m6cfb757733" y="229.957042"/>
     <use style="fill:#8b008b;stroke:#8b008b;stroke-width:2;" x="153.273481" xlink:href="#m6cfb757733" y="216.995775"/>
     <use style="fill:#8b008b;stroke:#8b008b;stroke-width:2;" x="158.469969" xlink:href="#m6cfb757733" y="204.034507"/>
     <use style="fill:#8b008b;stroke:#8b008b;stroke-width:2;" x="163.666457" xlink:href="#m6cfb757733" y="182.432394"/>
     <use style="fill:#8b008b;stroke:#8b008b;stroke-width:2;" x="168.862944" xlink:href="#m6cfb757733" y="139.228169"/>
     <use style="fill:#8b008b;stroke:#8b008b;stroke-width:2;" x="174.059432" xlink:href="#m6cfb757733" y="91.703521"/>
    </g>
   </g>
   <g id="matplotlib.axis_3">
    <g id="xtick_3">
     <g id="line2d_13">
      <g>
       <use style="stroke:#000000;stroke-width:0.8;" x="116.898068" xlink:href="#m75112d48b7" y="260.2"/>
      </g>
     </g>
     <g id="text_13">
      <!-- 0 -->
      <g transform="translate(113.716818 274.798437)scale(0.1 -0.1)">
       <use xlink:href="#DejaVuSans-30"/>
      </g>
     </g>
    </g>
    <g id="xtick_4">
     <g id="line2d_14">
      <g>
       <use style="stroke:#000000;stroke-width:0.8;" x="168.862944" xlink:href="#m75112d48b7" y="260.2"/>
      </g>
     </g>
     <g id="text_14">
      <!-- 10 -->
      <g transform="translate(162.500444 274.798437)scale(0.1 -0.1)">
       <use xlink:href="#DejaVuSans-31"/>
       <use x="63.623047" xlink:href="#DejaVuSans-30"/>
      </g>
     </g>
    </g>
   </g>
   <g id="matplotlib.axis_4">
    <g id="ytick_10">
     <g id="line2d_15">
      <g>
       <use style="stroke:#000000;stroke-width:0.8;" x="114.04" xlink:href="#md22c9269b9" y="260.2"/>
      </g>
     </g>
    </g>
    <g id="ytick_11">
     <g id="line2d_16">
      <g>
       <use style="stroke:#000000;stroke-width:0.8;" x="114.04" xlink:href="#md22c9269b9" y="229.525"/>
      </g>
     </g>
    </g>
    <g id="ytick_12">
     <g id="line2d_17">
      <g>
       <use style="stroke:#000000;stroke-width:0.8;" x="114.04" xlink:href="#md22c9269b9" y="198.85"/>
      </g>
     </g>
    </g>
    <g id="ytick_13">
     <g id="line2d_18">
      <g>
       <use style="stroke:#000000;stroke-width:0.8;" x="114.04" xlink:href="#md22c9269b9" y="168.175"/>
      </g>
     </g>
    </g>
    <g id="ytick_14">
     <g id="line2d_19">
      <g>
       <use style="stroke:#000000;stroke-width:0.8;" x="114.04" xlink:href="#md22c9269b9" y="137.5"/>
      </g>
     </g>
    </g>
    <g id="ytick_15">
     <g id="line2d_20">
      <g>
       <use style="stroke:#000000;stroke-width:0.8;" x="114.04" xlink:href="#md22c9269b9" y="106.825"/>
      </g>
     </g>
    </g>
    <g id="ytick_16">
     <g id="line2d_21">
      <g>
       <use style="stroke:#000000;stroke-width:0.8;" x="114.04" xlink:href="#md22c9269b9" y="76.15"/>
      </g>
     </g>
    </g>
    <g id="ytick_17">
     <g id="line2d_22">
      <g>
       <use style="stroke:#000000;stroke-width:0.8;" x="114.04" xlink:href="#md22c9269b9" y="45.475"/>
      </g>
     </g>
    </g>
    <g id="ytick_18">
     <g id="line2d_23">
      <g>
       <use style="stroke:#000000;stroke-width:0.8;" x="114.04" xlink:href="#md22c9269b9" y="14.8"/>
      </g>
     </g>
    </g>
   </g>
   <g id="line2d_24">
    <path clip-path="url(#p528786f504)" d="M 116.898068 62.89671 
L 122.094556 111.75537 
L 127.291043 152.574324 
L 132.487531 185.09823 
L 137.684019 208.979272 
L 142.880506 223.678981 
L 148.076994 227.890681 
L 153.273481 219.981925 
L 158.469969 202.236772 
L 163.666457 175.517253 
L 168.862944 140.281199 
L 174.059432 96.840269 
" style="fill:none;stroke:#9400d3;stroke-dasharray:5.55,2.4;stroke-dashoffset:0;stroke-width:1.5;"/>
   </g>
   <g id="patch_8">
    <path d="M 114.04 260.2 
L 114.04 14.8 
" style="fill:none;stroke:#000000;stroke-linecap:square;stroke-linejoin:miter;stroke-width:0.8;"/>
   </g>
   <g id="patch_9">
    <path d="M 176.9175 260.2 
L 176.9175 14.8 
" style="fill:none;stroke:#000000;stroke-linecap:square;stroke-linejoin:miter;stroke-width:0.8;"/>
   </g>
   <g id="patch_10">
    <path d="M 114.04 260.2 
L 176.9175 260.2 
" style="fill:none;stroke:#000000;stroke-linecap:square;stroke-linejoin:miter;stroke-width:0.8;"/>
   </g>
   <g id="patch_11">
    <path d="M 114.04 14.8 
L 176.9175 14.8 
" style="fill:none;stroke:#000000;stroke-linecap:square;stroke-linejoin:miter;stroke-width:0.8;"/>
   </g>
   <g id="text_15">
    <!-- $\alpha$=1.87 -->
    <g transform="translate(123.27875 8.8)scale(0.12 -0.12)">
     <defs>
      <path d="M 2034 2216 
Q 1584 2216 1326 1975 
Q 1069 1734 1069 1313 
Q 1069 891 1326 650 
Q 1584 409 2034 409 
Q 2484 409 2743 651 
Q 3003 894 3003 1313 
Q 3003 1734 2745 1975 
Q 2488 2216 2034 2216 
z
M 1403 2484 
Q 997 2584 770 2862 
Q 544 3141 544 3541 
Q 544 4100 942 4425 
Q 1341 4750 2034 4750 
Q 2731 4750 3128 4425 
Q 3525 4100 3525 3541 
Q 3525 3141 3298 2862 
Q 3072 2584 2669 2484 
Q 3125 2378 3379 2068 
Q 3634 1759 3634 1313 
Q 3634 634 3220 271 
Q 2806 -91 2034 -91 
Q 1263 -91 848 271 
Q 434 634 434 1313 
Q 434 1759 690 2068 
Q 947 2378 1403 2484 
z
M 1172 3481 
Q 1172 3119 1398 2916 
Q 1625 2713 2034 2713 
Q 2441 2713 2670 2916 
Q 2900 3119 2900 3481 
Q 2900 3844 2670 4047 
Q 2441 4250 2034 4250 
Q 1625 4250 1398 4047 
Q 1172 3844 1172 3481 
z
" id="DejaVuSans-38" transform="scale(0.015625)"/>
      <path d="M 525 4666 
L 3525 4666 
L 3525 4397 
L 1831 0 
L 1172 0 
L 2766 4134 
L 525 4134 
L 525 4666 
z
" id="DejaVuSans-37" transform="scale(0.015625)"/>
     </defs>
     <use transform="translate(0 0.78125)" xlink:href="#DejaVuSans-Oblique-3b1"/>
     <use transform="translate(65.917969 0.78125)" xlink:href="#DejaVuSans-3d"/>
     <use transform="translate(149.707031 0.78125)" xlink:href="#DejaVuSans-31"/>
     <use transform="translate(213.330078 0.78125)" xlink:href="#DejaVuSans-2e"/>
     <use transform="translate(242.492188 0.78125)" xlink:href="#DejaVuSans-38"/>
     <use transform="translate(306.115234 0.78125)" xlink:href="#DejaVuSans-37"/>
    </g>
   </g>
  </g>
  <g id="axes_3">
   <g id="patch_12">
    <path d="M 194.405 260.2 
L 257.2825 260.2 
L 257.2825 14.8 
L 194.405 14.8 
z
" style="fill:#ffffff;"/>
   </g>
   <g id="PathCollection_3">
    <g clip-path="url(#p12699e40dc)">
     <use style="fill:#8b008b;stroke:#8b008b;stroke-width:2;" x="197.263068" xlink:href="#m6cfb757733" y="39.858451"/>
     <use style="fill:#8b008b;stroke:#8b008b;stroke-width:2;" x="202.459556" xlink:href="#m6cfb757733" y="83.062676"/>
     <use style="fill:#8b008b;stroke:#8b008b;stroke-width:2;" x="207.656043" xlink:href="#m6cfb757733" y="126.266901"/>
     <use style="fill:#8b008b;stroke:#8b008b;stroke-width:2;" x="212.852531" xlink:href="#m6cfb757733" y="169.471127"/>
     <use style="fill:#8b008b;stroke:#8b008b;stroke-width:2;" x="218.049019" xlink:href="#m6cfb757733" y="208.35493"/>
     <use style="fill:#8b008b;stroke:#8b008b;stroke-width:2;" x="223.245506" xlink:href="#m6cfb757733" y="234.277465"/>
     <use style="fill:#8b008b;stroke:#8b008b;stroke-width:2;" x="228.441994" xlink:href="#m6cfb757733" y="242.91831"/>
     <use style="fill:#8b008b;stroke:#8b008b;stroke-width:2;" x="233.638481" xlink:href="#m6cfb757733" y="229.957042"/>
     <use style="fill:#8b008b;stroke:#8b008b;stroke-width:2;" x="238.834969" xlink:href="#m6cfb757733" y="208.35493"/>
     <use style="fill:#8b008b;stroke:#8b008b;stroke-width:2;" x="244.031457" xlink:href="#m6cfb757733" y="195.393662"/>
     <use style="fill:#8b008b;stroke:#8b008b;stroke-width:2;" x="249.227944" xlink:href="#m6cfb757733" y="165.150704"/>
     <use style="fill:#8b008b;stroke:#8b008b;stroke-width:2;" x="254.424432" xlink:href="#m6cfb757733" y="121.946479"/>
    </g>
   </g>
   <g id="matplotlib.axis_5">
    <g id="xtick_5">
     <g id="line2d_25">
      <g>
       <use style="stroke:#000000;stroke-width:0.8;" x="197.263068" xlink:href="#m75112d48b7" y="260.2"/>
      </g>
     </g>
     <g id="text_16">
      <!-- 0 -->
      <g transform="translate(194.081818 274.798437)scale(0.1 -0.1)">
       <use xlink:href="#DejaVuSans-30"/>
      </g>
     </g>
    </g>
    <g id="xtick_6">
     <g id="line2d_26">
      <g>
       <use style="stroke:#000000;stroke-width:0.8;" x="249.227944" xlink:href="#m75112d48b7" y="260.2"/>
      </g>
     </g>
     <g id="text_17">
      <!-- 10 -->
      <g transform="translate(242.865444 274.798437)scale(0.1 -0.1)">
       <use xlink:href="#DejaVuSans-31"/>
       <use x="63.623047" xlink:href="#DejaVuSans-30"/>
      </g>
     </g>
    </g>
   </g>
   <g id="matplotlib.axis_6">
    <g id="ytick_19">
     <g id="line2d_27">
      <g>
       <use style="stroke:#000000;stroke-width:0.8;" x="194.405" xlink:href="#md22c9269b9" y="260.2"/>
      </g>
     </g>
    </g>
    <g id="ytick_20">
     <g id="line2d_28">
      <g>
       <use style="stroke:#000000;stroke-width:0.8;" x="194.405" xlink:href="#md22c9269b9" y="229.525"/>
      </g>
     </g>
    </g>
    <g id="ytick_21">
     <g id="line2d_29">
      <g>
       <use style="stroke:#000000;stroke-width:0.8;" x="194.405" xlink:href="#md22c9269b9" y="198.85"/>
      </g>
     </g>
    </g>
    <g id="ytick_22">
     <g id="line2d_30">
      <g>
       <use style="stroke:#000000;stroke-width:0.8;" x="194.405" xlink:href="#md22c9269b9" y="168.175"/>
      </g>
     </g>
    </g>
    <g id="ytick_23">
     <g id="line2d_31">
      <g>
       <use style="stroke:#000000;stroke-width:0.8;" x="194.405" xlink:href="#md22c9269b9" y="137.5"/>
      </g>
     </g>
    </g>
    <g id="ytick_24">
     <g id="line2d_32">
      <g>
       <use style="stroke:#000000;stroke-width:0.8;" x="194.405" xlink:href="#md22c9269b9" y="106.825"/>
      </g>
     </g>
    </g>
    <g id="ytick_25">
     <g id="line2d_33">
      <g>
       <use style="stroke:#000000;stroke-width:0.8;" x="194.405" xlink:href="#md22c9269b9" y="76.15"/>
      </g>
     </g>
    </g>
    <g id="ytick_26">
     <g id="line2d_34">
      <g>
       <use style="stroke:#000000;stroke-width:0.8;" x="194.405" xlink:href="#md22c9269b9" y="45.475"/>
      </g>
     </g>
    </g>
    <g id="ytick_27">
     <g id="line2d_35">
      <g>
       <use style="stroke:#000000;stroke-width:0.8;" x="194.405" xlink:href="#md22c9269b9" y="14.8"/>
      </g>
     </g>
    </g>
   </g>
   <g id="line2d_36">
    <path clip-path="url(#p12699e40dc)" d="M 197.263068 32.268429 
L 202.459556 88.492927 
L 207.656043 136.024379 
L 212.852531 174.667417 
L 218.049019 204.167657 
L 223.245506 224.16329 
L 228.441994 234.028654 
L 233.638481 232.01007 
L 238.834969 218.766848 
L 244.031457 195.647863 
L 249.227944 163.158337 
L 254.424432 121.616805 
" style="fill:none;stroke:#9400d3;stroke-dasharray:5.55,2.4;stroke-dashoffset:0;stroke-width:1.5;"/>
   </g>
   <g id="patch_13">
    <path d="M 194.405 260.2 
L 194.405 14.8 
" style="fill:none;stroke:#000000;stroke-linecap:square;stroke-linejoin:miter;stroke-width:0.8;"/>
   </g>
   <g id="patch_14">
    <path d="M 257.2825 260.2 
L 257.2825 14.8 
" style="fill:none;stroke:#000000;stroke-linecap:square;stroke-linejoin:miter;stroke-width:0.8;"/>
   </g>
   <g id="patch_15">
    <path d="M 194.405 260.2 
L 257.2825 260.2 
" style="fill:none;stroke:#000000;stroke-linecap:square;stroke-linejoin:miter;stroke-width:0.8;"/>
   </g>
   <g id="patch_16">
    <path d="M 194.405 14.8 
L 257.2825 14.8 
" style="fill:none;stroke:#000000;stroke-linecap:square;stroke-linejoin:miter;stroke-width:0.8;"/>
   </g>
   <g id="text_18">
    <!-- $\alpha$=1.89 -->
    <g transform="translate(203.64375 8.8)scale(0.12 -0.12)">
     <defs>
      <path d="M 703 97 
L 703 672 
Q 941 559 1184 500 
Q 1428 441 1663 441 
Q 2288 441 2617 861 
Q 2947 1281 2994 2138 
Q 2813 1869 2534 1725 
Q 2256 1581 1919 1581 
Q 1219 1581 811 2004 
Q 403 2428 403 3163 
Q 403 3881 828 4315 
Q 1253 4750 1959 4750 
Q 2769 4750 3195 4129 
Q 3622 3509 3622 2328 
Q 3622 1225 3098 567 
Q 2575 -91 1691 -91 
Q 1453 -91 1209 -44 
Q 966 3 703 97 
z
M 1959 2075 
Q 2384 2075 2632 2365 
Q 2881 2656 2881 3163 
Q 2881 3666 2632 3958 
Q 2384 4250 1959 4250 
Q 1534 4250 1286 3958 
Q 1038 3666 1038 3163 
Q 1038 2656 1286 2365 
Q 1534 2075 1959 2075 
z
" id="DejaVuSans-39" transform="scale(0.015625)"/>
     </defs>
     <use transform="translate(0 0.78125)" xlink:href="#DejaVuSans-Oblique-3b1"/>
     <use transform="translate(65.917969 0.78125)" xlink:href="#DejaVuSans-3d"/>
     <use transform="translate(149.707031 0.78125)" xlink:href="#DejaVuSans-31"/>
     <use transform="translate(213.330078 0.78125)" xlink:href="#DejaVuSans-2e"/>
     <use transform="translate(242.492188 0.78125)" xlink:href="#DejaVuSans-38"/>
     <use transform="translate(306.115234 0.78125)" xlink:href="#DejaVuSans-39"/>
    </g>
   </g>
  </g>
  <g id="axes_4">
   <g id="patch_17">
    <path d="M 274.77 260.2 
L 337.6475 260.2 
L 337.6475 14.8 
L 274.77 14.8 
z
" style="fill:#ffffff;"/>
   </g>
   <g id="PathCollection_4">
    <g clip-path="url(#p082eda72c8)">
     <use style="fill:#8b008b;stroke:#8b008b;stroke-width:2;" x="277.628068" xlink:href="#m6cfb757733" y="35.538028"/>
     <use style="fill:#8b008b;stroke:#8b008b;stroke-width:2;" x="282.025096" xlink:href="#m6cfb757733" y="91.703521"/>
     <use style="fill:#8b008b;stroke:#8b008b;stroke-width:2;" x="286.422124" xlink:href="#m6cfb757733" y="130.587324"/>
     <use style="fill:#8b008b;stroke:#8b008b;stroke-width:2;" x="290.819152" xlink:href="#m6cfb757733" y="160.830282"/>
     <use style="fill:#8b008b;stroke:#8b008b;stroke-width:2;" x="295.21618" xlink:href="#m6cfb757733" y="186.752817"/>
     <use style="fill:#8b008b;stroke:#8b008b;stroke-width:2;" x="299.613208" xlink:href="#m6cfb757733" y="208.35493"/>
     <use style="fill:#8b008b;stroke:#8b008b;stroke-width:2;" x="304.010236" xlink:href="#m6cfb757733" y="229.957042"/>
     <use style="fill:#8b008b;stroke:#8b008b;stroke-width:2;" x="308.407264" xlink:href="#m6cfb757733" y="234.277465"/>
     <use style="fill:#8b008b;stroke:#8b008b;stroke-width:2;" x="312.804292" xlink:href="#m6cfb757733" y="225.63662"/>
     <use style="fill:#8b008b;stroke:#8b008b;stroke-width:2;" x="317.20132" xlink:href="#m6cfb757733" y="212.675352"/>
     <use style="fill:#8b008b;stroke:#8b008b;stroke-width:2;" x="321.598348" xlink:href="#m6cfb757733" y="182.432394"/>
     <use style="fill:#8b008b;stroke:#8b008b;stroke-width:2;" x="325.995376" xlink:href="#m6cfb757733" y="143.548592"/>
     <use style="fill:#8b008b;stroke:#8b008b;stroke-width:2;" x="330.392404" xlink:href="#m6cfb757733" y="104.664789"/>
     <use style="fill:#8b008b;stroke:#8b008b;stroke-width:2;" x="334.789432" xlink:href="#m6cfb757733" y="44.178873"/>
    </g>
   </g>
   <g id="matplotlib.axis_7">
    <g id="xtick_7">
     <g id="line2d_37">
      <g>
       <use style="stroke:#000000;stroke-width:0.8;" x="277.628068" xlink:href="#m75112d48b7" y="260.2"/>
      </g>
     </g>
     <g id="text_19">
      <!-- 0 -->
      <g transform="translate(274.446818 274.798437)scale(0.1 -0.1)">
       <use xlink:href="#DejaVuSans-30"/>
      </g>
     </g>
    </g>
    <g id="xtick_8">
     <g id="line2d_38">
      <g>
       <use style="stroke:#000000;stroke-width:0.8;" x="321.598348" xlink:href="#m75112d48b7" y="260.2"/>
      </g>
     </g>
     <g id="text_20">
      <!-- 10 -->
      <g transform="translate(315.235848 274.798437)scale(0.1 -0.1)">
       <use xlink:href="#DejaVuSans-31"/>
       <use x="63.623047" xlink:href="#DejaVuSans-30"/>
      </g>
     </g>
    </g>
   </g>
   <g id="matplotlib.axis_8">
    <g id="ytick_28">
     <g id="line2d_39">
      <g>
       <use style="stroke:#000000;stroke-width:0.8;" x="274.77" xlink:href="#md22c9269b9" y="260.2"/>
      </g>
     </g>
    </g>
    <g id="ytick_29">
     <g id="line2d_40">
      <g>
       <use style="stroke:#000000;stroke-width:0.8;" x="274.77" xlink:href="#md22c9269b9" y="229.525"/>
      </g>
     </g>
    </g>
    <g id="ytick_30">
     <g id="line2d_41">
      <g>
       <use style="stroke:#000000;stroke-width:0.8;" x="274.77" xlink:href="#md22c9269b9" y="198.85"/>
      </g>
     </g>
    </g>
    <g id="ytick_31">
     <g id="line2d_42">
      <g>
       <use style="stroke:#000000;stroke-width:0.8;" x="274.77" xlink:href="#md22c9269b9" y="168.175"/>
      </g>
     </g>
    </g>
    <g id="ytick_32">
     <g id="line2d_43">
      <g>
       <use style="stroke:#000000;stroke-width:0.8;" x="274.77" xlink:href="#md22c9269b9" y="137.5"/>
      </g>
     </g>
    </g>
    <g id="ytick_33">
     <g id="line2d_44">
      <g>
       <use style="stroke:#000000;stroke-width:0.8;" x="274.77" xlink:href="#md22c9269b9" y="106.825"/>
      </g>
     </g>
    </g>
    <g id="ytick_34">
     <g id="line2d_45">
      <g>
       <use style="stroke:#000000;stroke-width:0.8;" x="274.77" xlink:href="#md22c9269b9" y="76.15"/>
      </g>
     </g>
    </g>
    <g id="ytick_35">
     <g id="line2d_46">
      <g>
       <use style="stroke:#000000;stroke-width:0.8;" x="274.77" xlink:href="#md22c9269b9" y="45.475"/>
      </g>
     </g>
    </g>
    <g id="ytick_36">
     <g id="line2d_47">
      <g>
       <use style="stroke:#000000;stroke-width:0.8;" x="274.77" xlink:href="#md22c9269b9" y="14.8"/>
      </g>
     </g>
    </g>
   </g>
   <g id="line2d_48">
    <path clip-path="url(#p082eda72c8)" d="M 277.628068 33.377506 
L 282.025096 84.65758 
L 286.422124 128.906865 
L 290.819152 165.897632 
L 295.21618 195.335789 
L 299.613208 216.81156 
L 304.010236 229.662441 
L 308.407264 232.013942 
L 312.804292 222.722547 
L 317.20132 204.399386 
L 321.598348 177.907558 
L 325.995376 143.726349 
L 330.392404 102.185308 
L 334.789432 53.533565 
" style="fill:none;stroke:#9400d3;stroke-dasharray:5.55,2.4;stroke-dashoffset:0;stroke-width:1.5;"/>
   </g>
   <g id="patch_18">
    <path d="M 274.77 260.2 
L 274.77 14.8 
" style="fill:none;stroke:#000000;stroke-linecap:square;stroke-linejoin:miter;stroke-width:0.8;"/>
   </g>
   <g id="patch_19">
    <path d="M 337.6475 260.2 
L 337.6475 14.8 
" style="fill:none;stroke:#000000;stroke-linecap:square;stroke-linejoin:miter;stroke-width:0.8;"/>
   </g>
   <g id="patch_20">
    <path d="M 274.77 260.2 
L 337.6475 260.2 
" style="fill:none;stroke:#000000;stroke-linecap:square;stroke-linejoin:miter;stroke-width:0.8;"/>
   </g>
   <g id="patch_21">
    <path d="M 274.77 14.8 
L 337.6475 14.8 
" style="fill:none;stroke:#000000;stroke-linecap:square;stroke-linejoin:miter;stroke-width:0.8;"/>
   </g>
   <g id="text_21">
    <!-- $\alpha$=1.84 -->
    <g transform="translate(284.00875 8.8)scale(0.12 -0.12)">
     <use transform="translate(0 0.78125)" xlink:href="#DejaVuSans-Oblique-3b1"/>
     <use transform="translate(65.917969 0.78125)" xlink:href="#DejaVuSans-3d"/>
     <use transform="translate(149.707031 0.78125)" xlink:href="#DejaVuSans-31"/>
     <use transform="translate(213.330078 0.78125)" xlink:href="#DejaVuSans-2e"/>
     <use transform="translate(242.492188 0.78125)" xlink:href="#DejaVuSans-38"/>
     <use transform="translate(306.115234 0.78125)" xlink:href="#DejaVuSans-34"/>
    </g>
   </g>
  </g>
  <g id="axes_5">
   <g id="patch_22">
    <path d="M 355.135 260.2 
L 418.0125 260.2 
L 418.0125 14.8 
L 355.135 14.8 
z
" style="fill:#ffffff;"/>
   </g>
   <g id="PathCollection_5">
    <g clip-path="url(#p6631b0e954)">
     <use style="fill:#8b008b;stroke:#8b008b;stroke-width:2;" x="357.993068" xlink:href="#m6cfb757733" y="61.460563"/>
     <use style="fill:#8b008b;stroke:#8b008b;stroke-width:2;" x="362.390096" xlink:href="#m6cfb757733" y="113.305634"/>
     <use style="fill:#8b008b;stroke:#8b008b;stroke-width:2;" x="366.787124" xlink:href="#m6cfb757733" y="156.509859"/>
     <use style="fill:#8b008b;stroke:#8b008b;stroke-width:2;" x="371.184152" xlink:href="#m6cfb757733" y="199.714085"/>
     <use style="fill:#8b008b;stroke:#8b008b;stroke-width:2;" x="375.58118" xlink:href="#m6cfb757733" y="234.277465"/>
     <use style="fill:#8b008b;stroke:#8b008b;stroke-width:2;" x="379.978208" xlink:href="#m6cfb757733" y="247.238732"/>
     <use style="fill:#8b008b;stroke:#8b008b;stroke-width:2;" x="384.375236" xlink:href="#m6cfb757733" y="242.91831"/>
     <use style="fill:#8b008b;stroke:#8b008b;stroke-width:2;" x="388.772264" xlink:href="#m6cfb757733" y="247.238732"/>
     <use style="fill:#8b008b;stroke:#8b008b;stroke-width:2;" x="393.169292" xlink:href="#m6cfb757733" y="255.879577"/>
     <use style="fill:#8b008b;stroke:#8b008b;stroke-width:2;" x="397.56632" xlink:href="#m6cfb757733" y="247.238732"/>
     <use style="fill:#8b008b;stroke:#8b008b;stroke-width:2;" x="401.963348" xlink:href="#m6cfb757733" y="221.316197"/>
     <use style="fill:#8b008b;stroke:#8b008b;stroke-width:2;" x="406.360376" xlink:href="#m6cfb757733" y="182.432394"/>
     <use style="fill:#8b008b;stroke:#8b008b;stroke-width:2;" x="410.757404" xlink:href="#m6cfb757733" y="147.869014"/>
     <use style="fill:#8b008b;stroke:#8b008b;stroke-width:2;" x="415.154432" xlink:href="#m6cfb757733" y="91.703521"/>
    </g>
   </g>
   <g id="matplotlib.axis_9">
    <g id="xtick_9">
     <g id="line2d_49">
      <g>
       <use style="stroke:#000000;stroke-width:0.8;" x="357.993068" xlink:href="#m75112d48b7" y="260.2"/>
      </g>
     </g>
     <g id="text_22">
      <!-- 0 -->
      <g transform="translate(354.811818 274.798437)scale(0.1 -0.1)">
       <use xlink:href="#DejaVuSans-30"/>
      </g>
     </g>
    </g>
    <g id="xtick_10">
     <g id="line2d_50">
      <g>
       <use style="stroke:#000000;stroke-width:0.8;" x="401.963348" xlink:href="#m75112d48b7" y="260.2"/>
      </g>
     </g>
     <g id="text_23">
      <!-- 10 -->
      <g transform="translate(395.600848 274.798437)scale(0.1 -0.1)">
       <use xlink:href="#DejaVuSans-31"/>
       <use x="63.623047" xlink:href="#DejaVuSans-30"/>
      </g>
     </g>
    </g>
   </g>
   <g id="matplotlib.axis_10">
    <g id="ytick_37">
     <g id="line2d_51">
      <g>
       <use style="stroke:#000000;stroke-width:0.8;" x="355.135" xlink:href="#md22c9269b9" y="260.2"/>
      </g>
     </g>
    </g>
    <g id="ytick_38">
     <g id="line2d_52">
      <g>
       <use style="stroke:#000000;stroke-width:0.8;" x="355.135" xlink:href="#md22c9269b9" y="229.525"/>
      </g>
     </g>
    </g>
    <g id="ytick_39">
     <g id="line2d_53">
      <g>
       <use style="stroke:#000000;stroke-width:0.8;" x="355.135" xlink:href="#md22c9269b9" y="198.85"/>
      </g>
     </g>
    </g>
    <g id="ytick_40">
     <g id="line2d_54">
      <g>
       <use style="stroke:#000000;stroke-width:0.8;" x="355.135" xlink:href="#md22c9269b9" y="168.175"/>
      </g>
     </g>
    </g>
    <g id="ytick_41">
     <g id="line2d_55">
      <g>
       <use style="stroke:#000000;stroke-width:0.8;" x="355.135" xlink:href="#md22c9269b9" y="137.5"/>
      </g>
     </g>
    </g>
    <g id="ytick_42">
     <g id="line2d_56">
      <g>
       <use style="stroke:#000000;stroke-width:0.8;" x="355.135" xlink:href="#md22c9269b9" y="106.825"/>
      </g>
     </g>
    </g>
    <g id="ytick_43">
     <g id="line2d_57">
      <g>
       <use style="stroke:#000000;stroke-width:0.8;" x="355.135" xlink:href="#md22c9269b9" y="76.15"/>
      </g>
     </g>
    </g>
    <g id="ytick_44">
     <g id="line2d_58">
      <g>
       <use style="stroke:#000000;stroke-width:0.8;" x="355.135" xlink:href="#md22c9269b9" y="45.475"/>
      </g>
     </g>
    </g>
    <g id="ytick_45">
     <g id="line2d_59">
      <g>
       <use style="stroke:#000000;stroke-width:0.8;" x="355.135" xlink:href="#md22c9269b9" y="14.8"/>
      </g>
     </g>
    </g>
   </g>
   <g id="line2d_60">
    <path clip-path="url(#p6631b0e954)" d="M 357.993068 56.194459 
L 362.390096 115.675703 
L 366.787124 163.646245 
L 371.184152 200.631725 
L 375.58118 227.249407 
L 379.978208 244.257764 
L 384.375236 252.670798 
L 388.772264 254.240125 
L 393.169292 250.3221 
L 397.56632 238.694944 
L 401.963348 218.032192 
L 406.360376 187.441834 
L 410.757404 146.229017 
L 415.154432 93.816504 
" style="fill:none;stroke:#9400d3;stroke-dasharray:5.55,2.4;stroke-dashoffset:0;stroke-width:1.5;"/>
   </g>
   <g id="patch_23">
    <path d="M 355.135 260.2 
L 355.135 14.8 
" style="fill:none;stroke:#000000;stroke-linecap:square;stroke-linejoin:miter;stroke-width:0.8;"/>
   </g>
   <g id="patch_24">
    <path d="M 418.0125 260.2 
L 418.0125 14.8 
" style="fill:none;stroke:#000000;stroke-linecap:square;stroke-linejoin:miter;stroke-width:0.8;"/>
   </g>
   <g id="patch_25">
    <path d="M 355.135 260.2 
L 418.0125 260.2 
" style="fill:none;stroke:#000000;stroke-linecap:square;stroke-linejoin:miter;stroke-width:0.8;"/>
   </g>
   <g id="patch_26">
    <path d="M 355.135 14.8 
L 418.0125 14.8 
" style="fill:none;stroke:#000000;stroke-linecap:square;stroke-linejoin:miter;stroke-width:0.8;"/>
   </g>
   <g id="text_24">
    <!-- $\alpha$=2.25 -->
    <g transform="translate(364.55375 8.8)scale(0.12 -0.12)">
     <use transform="translate(0 0.78125)" xlink:href="#DejaVuSans-Oblique-3b1"/>
     <use transform="translate(65.917969 0.78125)" xlink:href="#DejaVuSans-3d"/>
     <use transform="translate(149.707031 0.78125)" xlink:href="#DejaVuSans-32"/>
     <use transform="translate(213.330078 0.78125)" xlink:href="#DejaVuSans-2e"/>
     <use transform="translate(239.617188 0.78125)" xlink:href="#DejaVuSans-32"/>
     <use transform="translate(303.240234 0.78125)" xlink:href="#DejaVuSans-35"/>
    </g>
   </g>
   <g id="legend_1">
    <g id="line2d_61">
     <path d="M 358.4875 27.898437 
L 378.4875 27.898437 
" style="fill:none;stroke:#9400d3;stroke-dasharray:5.55,2.4;stroke-dashoffset:0;stroke-width:1.5;"/>
    </g>
    <g id="line2d_62"/>
    <g id="text_25">
     <!-- fit -->
     <g transform="translate(386.4875 31.398437)scale(0.1 -0.1)">
      <defs>
       <path d="M 2375 4863 
L 2375 4384 
L 1825 4384 
Q 1516 4384 1395 4259 
Q 1275 4134 1275 3809 
L 1275 3500 
L 2222 3500 
L 2222 3053 
L 1275 3053 
L 1275 0 
L 697 0 
L 697 3053 
L 147 3053 
L 147 3500 
L 697 3500 
L 697 3744 
Q 697 4328 969 4595 
Q 1241 4863 1831 4863 
L 2375 4863 
z
" id="DejaVuSans-66" transform="scale(0.015625)"/>
       <path d="M 603 3500 
L 1178 3500 
L 1178 0 
L 603 0 
L 603 3500 
z
M 603 4863 
L 1178 4863 
L 1178 4134 
L 603 4134 
L 603 4863 
z
" id="DejaVuSans-69" transform="scale(0.015625)"/>
       <path d="M 1172 4494 
L 1172 3500 
L 2356 3500 
L 2356 3053 
L 1172 3053 
L 1172 1153 
Q 1172 725 1289 603 
Q 1406 481 1766 481 
L 2356 481 
L 2356 0 
L 1766 0 
Q 1100 0 847 248 
Q 594 497 594 1153 
L 594 3053 
L 172 3053 
L 172 3500 
L 594 3500 
L 594 4494 
L 1172 4494 
z
" id="DejaVuSans-74" transform="scale(0.015625)"/>
      </defs>
      <use xlink:href="#DejaVuSans-66"/>
      <use x="35.205078" xlink:href="#DejaVuSans-69"/>
      <use x="62.988281" xlink:href="#DejaVuSans-74"/>
     </g>
    </g>
    <g id="PathCollection_6">
     <g>
      <use style="fill:#8b008b;stroke:#8b008b;stroke-width:2;" x="368.4875" xlink:href="#m6cfb757733" y="43.451562"/>
     </g>
    </g>
    <g id="text_26">
     <!-- data -->
     <g transform="translate(386.4875 46.076562)scale(0.1 -0.1)">
      <defs>
       <path d="M 2906 2969 
L 2906 4863 
L 3481 4863 
L 3481 0 
L 2906 0 
L 2906 525 
Q 2725 213 2448 61 
Q 2172 -91 1784 -91 
Q 1150 -91 751 415 
Q 353 922 353 1747 
Q 353 2572 751 3078 
Q 1150 3584 1784 3584 
Q 2172 3584 2448 3432 
Q 2725 3281 2906 2969 
z
M 947 1747 
Q 947 1113 1208 752 
Q 1469 391 1925 391 
Q 2381 391 2643 752 
Q 2906 1113 2906 1747 
Q 2906 2381 2643 2742 
Q 2381 3103 1925 3103 
Q 1469 3103 1208 2742 
Q 947 2381 947 1747 
z
" id="DejaVuSans-64" transform="scale(0.015625)"/>
       <path d="M 2194 1759 
Q 1497 1759 1228 1600 
Q 959 1441 959 1056 
Q 959 750 1161 570 
Q 1363 391 1709 391 
Q 2188 391 2477 730 
Q 2766 1069 2766 1631 
L 2766 1759 
L 2194 1759 
z
M 3341 1997 
L 3341 0 
L 2766 0 
L 2766 531 
Q 2569 213 2275 61 
Q 1981 -91 1556 -91 
Q 1019 -91 701 211 
Q 384 513 384 1019 
Q 384 1609 779 1909 
Q 1175 2209 1959 2209 
L 2766 2209 
L 2766 2266 
Q 2766 2663 2505 2880 
Q 2244 3097 1772 3097 
Q 1472 3097 1187 3025 
Q 903 2953 641 2809 
L 641 3341 
Q 956 3463 1253 3523 
Q 1550 3584 1831 3584 
Q 2591 3584 2966 3190 
Q 3341 2797 3341 1997 
z
" id="DejaVuSans-61" transform="scale(0.015625)"/>
      </defs>
      <use xlink:href="#DejaVuSans-64"/>
      <use x="63.476562" xlink:href="#DejaVuSans-61"/>
      <use x="124.755859" xlink:href="#DejaVuSans-74"/>
      <use x="163.964844" xlink:href="#DejaVuSans-61"/>
     </g>
    </g>
   </g>
  </g>
 </g>
 <defs>
  <clipPath id="p2175f660b7">
   <rect height="245.4" width="62.8775" x="33.675" y="14.8"/>
  </clipPath>
  <clipPath id="p528786f504">
   <rect height="245.4" width="62.8775" x="114.04" y="14.8"/>
  </clipPath>
  <clipPath id="p12699e40dc">
   <rect height="245.4" width="62.8775" x="194.405" y="14.8"/>
  </clipPath>
  <clipPath id="p082eda72c8">
   <rect height="245.4" width="62.8775" x="274.77" y="14.8"/>
  </clipPath>
  <clipPath id="p6631b0e954">
   <rect height="245.4" width="62.8775" x="355.135" y="14.8"/>
  </clipPath>
 </defs>
</svg>
