<?xml version="1.0" encoding="utf-8" standalone="no"?>
<!DOCTYPE svg PUBLIC "-//W3C//DTD SVG 1.1//EN"
  "http://www.w3.org/Graphics/SVG/1.1/DTD/svg11.dtd">
<svg height="248.518125pt" version="1.1" viewBox="0 0 372.103125 248.518125" width="372.103125pt" xmlns="http://www.w3.org/2000/svg" xmlns:xlink="http://www.w3.org/1999/xlink">
 <metadata>
  <rdf:RDF xmlns:cc="http://creativecommons.org/ns#" xmlns:dc="http://purl.org/dc/elements/1.1/" xmlns:rdf="http://www.w3.org/1999/02/22-rdf-syntax-ns#">
   <cc:Work>
    <dc:type rdf:resource="http://purl.org/dc/dcmitype/StillImage"/>
    <dc:date>2022-07-27T11:52:21.612705</dc:date>
    <dc:format>image/svg+xml</dc:format>
    <dc:creator>
     <cc:Agent>
      <dc:title>Matplotlib v3.4.3, https://matplotlib.org/</dc:title>
     </cc:Agent>
    </dc:creator>
   </cc:Work>
  </rdf:RDF>
 </metadata>
 <defs>
  <style type="text/css">*{stroke-linecap:butt;stroke-linejoin:round;}</style>
 </defs>
 <g id="figure_1">
  <g id="patch_1">
   <path d="M 0 248.518125 
L 372.103125 248.518125 
L 372.103125 0 
L 0 0 
z
" style="fill:none;"/>
  </g>
  <g id="axes_1">
   <g id="patch_2">
    <path d="M 30.103125 224.64 
L 364.903125 224.64 
L 364.903125 7.2 
L 30.103125 7.2 
z
" style="fill:#ffffff;"/>
   </g>
   <g id="matplotlib.axis_1">
    <g id="xtick_1">
     <g id="line2d_1">
      <defs>
       <path d="M 0 0 
L 0 3.5 
" id="mf356594610" style="stroke:#000000;stroke-width:0.8;"/>
      </defs>
      <g>
       <use style="stroke:#000000;stroke-width:0.8;" x="45.321307" xlink:href="#mf356594610" y="224.64"/>
      </g>
     </g>
     <g id="text_1">
      <!-- 0 -->
      <g transform="translate(42.140057 239.238437)scale(0.1 -0.1)">
       <defs>
        <path d="M 2034 4250 
Q 1547 4250 1301 3770 
Q 1056 3291 1056 2328 
Q 1056 1369 1301 889 
Q 1547 409 2034 409 
Q 2525 409 2770 889 
Q 3016 1369 3016 2328 
Q 3016 3291 2770 3770 
Q 2525 4250 2034 4250 
z
M 2034 4750 
Q 2819 4750 3233 4129 
Q 3647 3509 3647 2328 
Q 3647 1150 3233 529 
Q 2819 -91 2034 -91 
Q 1250 -91 836 529 
Q 422 1150 422 2328 
Q 422 3509 836 4129 
Q 1250 4750 2034 4750 
z
" id="DejaVuSans-30" transform="scale(0.015625)"/>
       </defs>
       <use xlink:href="#DejaVuSans-30"/>
      </g>
     </g>
    </g>
    <g id="xtick_2">
     <g id="line2d_2">
      <g>
       <use style="stroke:#000000;stroke-width:0.8;" x="85.390243" xlink:href="#mf356594610" y="224.64"/>
      </g>
     </g>
     <g id="text_2">
      <!-- 250 -->
      <g transform="translate(75.846493 239.238437)scale(0.1 -0.1)">
       <defs>
        <path d="M 1228 531 
L 3431 531 
L 3431 0 
L 469 0 
L 469 531 
Q 828 903 1448 1529 
Q 2069 2156 2228 2338 
Q 2531 2678 2651 2914 
Q 2772 3150 2772 3378 
Q 2772 3750 2511 3984 
Q 2250 4219 1831 4219 
Q 1534 4219 1204 4116 
Q 875 4013 500 3803 
L 500 4441 
Q 881 4594 1212 4672 
Q 1544 4750 1819 4750 
Q 2544 4750 2975 4387 
Q 3406 4025 3406 3419 
Q 3406 3131 3298 2873 
Q 3191 2616 2906 2266 
Q 2828 2175 2409 1742 
Q 1991 1309 1228 531 
z
" id="DejaVuSans-32" transform="scale(0.015625)"/>
        <path d="M 691 4666 
L 3169 4666 
L 3169 4134 
L 1269 4134 
L 1269 2991 
Q 1406 3038 1543 3061 
Q 1681 3084 1819 3084 
Q 2600 3084 3056 2656 
Q 3513 2228 3513 1497 
Q 3513 744 3044 326 
Q 2575 -91 1722 -91 
Q 1428 -91 1123 -41 
Q 819 9 494 109 
L 494 744 
Q 775 591 1075 516 
Q 1375 441 1709 441 
Q 2250 441 2565 725 
Q 2881 1009 2881 1497 
Q 2881 1984 2565 2268 
Q 2250 2553 1709 2553 
Q 1456 2553 1204 2497 
Q 953 2441 691 2322 
L 691 4666 
z
" id="DejaVuSans-35" transform="scale(0.015625)"/>
       </defs>
       <use xlink:href="#DejaVuSans-32"/>
       <use x="63.623047" xlink:href="#DejaVuSans-35"/>
       <use x="127.246094" xlink:href="#DejaVuSans-30"/>
      </g>
     </g>
    </g>
    <g id="xtick_3">
     <g id="line2d_3">
      <g>
       <use style="stroke:#000000;stroke-width:0.8;" x="125.459178" xlink:href="#mf356594610" y="224.64"/>
      </g>
     </g>
     <g id="text_3">
      <!-- 500 -->
      <g transform="translate(115.915428 239.238437)scale(0.1 -0.1)">
       <use xlink:href="#DejaVuSans-35"/>
       <use x="63.623047" xlink:href="#DejaVuSans-30"/>
       <use x="127.246094" xlink:href="#DejaVuSans-30"/>
      </g>
     </g>
    </g>
    <g id="xtick_4">
     <g id="line2d_4">
      <g>
       <use style="stroke:#000000;stroke-width:0.8;" x="165.528114" xlink:href="#mf356594610" y="224.64"/>
      </g>
     </g>
     <g id="text_4">
      <!-- 750 -->
      <g transform="translate(155.984364 239.238437)scale(0.1 -0.1)">
       <defs>
        <path d="M 525 4666 
L 3525 4666 
L 3525 4397 
L 1831 0 
L 1172 0 
L 2766 4134 
L 525 4134 
L 525 4666 
z
" id="DejaVuSans-37" transform="scale(0.015625)"/>
       </defs>
       <use xlink:href="#DejaVuSans-37"/>
       <use x="63.623047" xlink:href="#DejaVuSans-35"/>
       <use x="127.246094" xlink:href="#DejaVuSans-30"/>
      </g>
     </g>
    </g>
    <g id="xtick_5">
     <g id="line2d_5">
      <g>
       <use style="stroke:#000000;stroke-width:0.8;" x="205.59705" xlink:href="#mf356594610" y="224.64"/>
      </g>
     </g>
     <g id="text_5">
      <!-- 1000 -->
      <g transform="translate(192.87205 239.238437)scale(0.1 -0.1)">
       <defs>
        <path d="M 794 531 
L 1825 531 
L 1825 4091 
L 703 3866 
L 703 4441 
L 1819 4666 
L 2450 4666 
L 2450 531 
L 3481 531 
L 3481 0 
L 794 0 
L 794 531 
z
" id="DejaVuSans-31" transform="scale(0.015625)"/>
       </defs>
       <use xlink:href="#DejaVuSans-31"/>
       <use x="63.623047" xlink:href="#DejaVuSans-30"/>
       <use x="127.246094" xlink:href="#DejaVuSans-30"/>
       <use x="190.869141" xlink:href="#DejaVuSans-30"/>
      </g>
     </g>
    </g>
    <g id="xtick_6">
     <g id="line2d_6">
      <g>
       <use style="stroke:#000000;stroke-width:0.8;" x="245.665986" xlink:href="#mf356594610" y="224.64"/>
      </g>
     </g>
     <g id="text_6">
      <!-- 1250 -->
      <g transform="translate(232.940986 239.238437)scale(0.1 -0.1)">
       <use xlink:href="#DejaVuSans-31"/>
       <use x="63.623047" xlink:href="#DejaVuSans-32"/>
       <use x="127.246094" xlink:href="#DejaVuSans-35"/>
       <use x="190.869141" xlink:href="#DejaVuSans-30"/>
      </g>
     </g>
    </g>
    <g id="xtick_7">
     <g id="line2d_7">
      <g>
       <use style="stroke:#000000;stroke-width:0.8;" x="285.734922" xlink:href="#mf356594610" y="224.64"/>
      </g>
     </g>
     <g id="text_7">
      <!-- 1500 -->
      <g transform="translate(273.009922 239.238437)scale(0.1 -0.1)">
       <use xlink:href="#DejaVuSans-31"/>
       <use x="63.623047" xlink:href="#DejaVuSans-35"/>
       <use x="127.246094" xlink:href="#DejaVuSans-30"/>
       <use x="190.869141" xlink:href="#DejaVuSans-30"/>
      </g>
     </g>
    </g>
    <g id="xtick_8">
     <g id="line2d_8">
      <g>
       <use style="stroke:#000000;stroke-width:0.8;" x="325.803857" xlink:href="#mf356594610" y="224.64"/>
      </g>
     </g>
     <g id="text_8">
      <!-- 1750 -->
      <g transform="translate(313.078857 239.238437)scale(0.1 -0.1)">
       <use xlink:href="#DejaVuSans-31"/>
       <use x="63.623047" xlink:href="#DejaVuSans-37"/>
       <use x="127.246094" xlink:href="#DejaVuSans-35"/>
       <use x="190.869141" xlink:href="#DejaVuSans-30"/>
      </g>
     </g>
    </g>
   </g>
   <g id="matplotlib.axis_2">
    <g id="ytick_1">
     <g id="line2d_9">
      <defs>
       <path d="M 0 0 
L -3.5 0 
" id="ma36ab38600" style="stroke:#000000;stroke-width:0.8;"/>
      </defs>
      <g>
       <use style="stroke:#000000;stroke-width:0.8;" x="30.103125" xlink:href="#ma36ab38600" y="184.625704"/>
      </g>
     </g>
     <g id="text_9">
      <!-- 0.2 -->
      <g transform="translate(7.2 188.424922)scale(0.1 -0.1)">
       <defs>
        <path d="M 684 794 
L 1344 794 
L 1344 0 
L 684 0 
L 684 794 
z
" id="DejaVuSans-2e" transform="scale(0.015625)"/>
       </defs>
       <use xlink:href="#DejaVuSans-30"/>
       <use x="63.623047" xlink:href="#DejaVuSans-2e"/>
       <use x="95.410156" xlink:href="#DejaVuSans-32"/>
      </g>
     </g>
    </g>
    <g id="ytick_2">
     <g id="line2d_10">
      <g>
       <use style="stroke:#000000;stroke-width:0.8;" x="30.103125" xlink:href="#ma36ab38600" y="142.12964"/>
      </g>
     </g>
     <g id="text_10">
      <!-- 0.4 -->
      <g transform="translate(7.2 145.928859)scale(0.1 -0.1)">
       <defs>
        <path d="M 2419 4116 
L 825 1625 
L 2419 1625 
L 2419 4116 
z
M 2253 4666 
L 3047 4666 
L 3047 1625 
L 3713 1625 
L 3713 1100 
L 3047 1100 
L 3047 0 
L 2419 0 
L 2419 1100 
L 313 1100 
L 313 1709 
L 2253 4666 
z
" id="DejaVuSans-34" transform="scale(0.015625)"/>
       </defs>
       <use xlink:href="#DejaVuSans-30"/>
       <use x="63.623047" xlink:href="#DejaVuSans-2e"/>
       <use x="95.410156" xlink:href="#DejaVuSans-34"/>
      </g>
     </g>
    </g>
    <g id="ytick_3">
     <g id="line2d_11">
      <g>
       <use style="stroke:#000000;stroke-width:0.8;" x="30.103125" xlink:href="#ma36ab38600" y="99.633577"/>
      </g>
     </g>
     <g id="text_11">
      <!-- 0.6 -->
      <g transform="translate(7.2 103.432795)scale(0.1 -0.1)">
       <defs>
        <path d="M 2113 2584 
Q 1688 2584 1439 2293 
Q 1191 2003 1191 1497 
Q 1191 994 1439 701 
Q 1688 409 2113 409 
Q 2538 409 2786 701 
Q 3034 994 3034 1497 
Q 3034 2003 2786 2293 
Q 2538 2584 2113 2584 
z
M 3366 4563 
L 3366 3988 
Q 3128 4100 2886 4159 
Q 2644 4219 2406 4219 
Q 1781 4219 1451 3797 
Q 1122 3375 1075 2522 
Q 1259 2794 1537 2939 
Q 1816 3084 2150 3084 
Q 2853 3084 3261 2657 
Q 3669 2231 3669 1497 
Q 3669 778 3244 343 
Q 2819 -91 2113 -91 
Q 1303 -91 875 529 
Q 447 1150 447 2328 
Q 447 3434 972 4092 
Q 1497 4750 2381 4750 
Q 2619 4750 2861 4703 
Q 3103 4656 3366 4563 
z
" id="DejaVuSans-36" transform="scale(0.015625)"/>
       </defs>
       <use xlink:href="#DejaVuSans-30"/>
       <use x="63.623047" xlink:href="#DejaVuSans-2e"/>
       <use x="95.410156" xlink:href="#DejaVuSans-36"/>
      </g>
     </g>
    </g>
    <g id="ytick_4">
     <g id="line2d_12">
      <g>
       <use style="stroke:#000000;stroke-width:0.8;" x="30.103125" xlink:href="#ma36ab38600" y="57.137513"/>
      </g>
     </g>
     <g id="text_12">
      <!-- 0.8 -->
      <g transform="translate(7.2 60.936732)scale(0.1 -0.1)">
       <defs>
        <path d="M 2034 2216 
Q 1584 2216 1326 1975 
Q 1069 1734 1069 1313 
Q 1069 891 1326 650 
Q 1584 409 2034 409 
Q 2484 409 2743 651 
Q 3003 894 3003 1313 
Q 3003 1734 2745 1975 
Q 2488 2216 2034 2216 
z
M 1403 2484 
Q 997 2584 770 2862 
Q 544 3141 544 3541 
Q 544 4100 942 4425 
Q 1341 4750 2034 4750 
Q 2731 4750 3128 4425 
Q 3525 4100 3525 3541 
Q 3525 3141 3298 2862 
Q 3072 2584 2669 2484 
Q 3125 2378 3379 2068 
Q 3634 1759 3634 1313 
Q 3634 634 3220 271 
Q 2806 -91 2034 -91 
Q 1263 -91 848 271 
Q 434 634 434 1313 
Q 434 1759 690 2068 
Q 947 2378 1403 2484 
z
M 1172 3481 
Q 1172 3119 1398 2916 
Q 1625 2713 2034 2713 
Q 2441 2713 2670 2916 
Q 2900 3119 2900 3481 
Q 2900 3844 2670 4047 
Q 2441 4250 2034 4250 
Q 1625 4250 1398 4047 
Q 1172 3844 1172 3481 
z
" id="DejaVuSans-38" transform="scale(0.015625)"/>
       </defs>
       <use xlink:href="#DejaVuSans-30"/>
       <use x="63.623047" xlink:href="#DejaVuSans-2e"/>
       <use x="95.410156" xlink:href="#DejaVuSans-38"/>
      </g>
     </g>
    </g>
    <g id="ytick_5">
     <g id="line2d_13">
      <g>
       <use style="stroke:#000000;stroke-width:0.8;" x="30.103125" xlink:href="#ma36ab38600" y="14.641449"/>
      </g>
     </g>
     <g id="text_13">
      <!-- 1.0 -->
      <g transform="translate(7.2 18.440668)scale(0.1 -0.1)">
       <use xlink:href="#DejaVuSans-31"/>
       <use x="63.623047" xlink:href="#DejaVuSans-2e"/>
       <use x="95.410156" xlink:href="#DejaVuSans-30"/>
      </g>
     </g>
    </g>
   </g>
   <g id="line2d_14">
    <path clip-path="url(#p683f4aafc1)" d="M 45.321307 54.776795 
L 46.603513 72.447737 
L 47.565167 82.830284 
L 48.366546 89.043334 
L 49.007649 92.38111 
L 49.488476 93.998404 
L 49.969303 94.945356 
L 50.289855 95.255897 
L 50.610406 95.351437 
L 50.930958 95.270655 
L 51.411785 94.907131 
L 53.335094 92.979941 
L 53.815921 92.878968 
L 54.296748 93.028206 
L 54.777576 93.412385 
L 55.578954 94.415626 
L 56.540609 95.637024 
L 57.021436 95.949378 
L 57.341988 95.949933 
L 57.662539 95.735568 
L 57.983091 95.266816 
L 58.463918 94.008559 
L 58.944745 91.993711 
L 59.585848 88.004302 
L 60.226951 82.457261 
L 61.02833 73.424442 
L 62.15026 57.750357 
L 64.073569 30.080136 
L 64.874947 21.917376 
L 65.355775 18.795449 
L 65.676326 17.574616 
L 65.996878 17.083636 
L 66.157153 17.117647 
L 66.477705 17.746516 
L 66.798256 19.112499 
L 67.279084 22.477223 
L 67.920187 29.144992 
L 68.721565 40.146826 
L 71.766804 85.12445 
L 72.568183 92.578071 
L 73.209286 96.470927 
L 73.690113 98.180768 
L 74.010665 98.768998 
L 74.331216 98.942084 
L 74.651768 98.729479 
L 74.972319 98.166363 
L 75.453147 96.754214 
L 76.09425 94.059446 
L 78.498386 82.692371 
L 78.979213 81.429642 
L 79.46004 80.787678 
L 79.780592 80.727915 
L 80.101143 80.965486 
L 80.421695 81.492266 
L 80.902522 82.78507 
L 81.543625 85.294783 
L 82.665555 90.928399 
L 83.787485 96.342425 
L 84.428588 98.529234 
L 84.909415 99.475366 
L 85.229967 99.710426 
L 85.550518 99.595752 
L 85.87107 99.108481 
L 86.191621 98.230943 
L 86.672449 96.157615 
L 87.313552 91.961087 
L 87.954655 86.175479 
L 88.756033 76.953303 
L 90.038239 59.040062 
L 91.801272 34.52754 
L 92.602651 26.394807 
L 93.243754 22.255102 
L 93.564306 21.102813 
L 93.884857 20.599793 
L 94.045133 20.59599 
L 94.205408 20.757879 
L 94.52596 21.575225 
L 94.846511 23.036293 
L 95.327339 26.368479 
L 95.968442 32.695278 
L 96.930096 45.179655 
L 99.654784 83.344296 
L 100.456162 91.211712 
L 101.097265 95.665944 
L 101.578093 97.880206 
L 102.05892 99.14075 
L 102.379471 99.472899 
L 102.700023 99.42262 
L 103.020574 99.017198 
L 103.501402 97.816475 
L 104.142505 95.321867 
L 105.264435 89.591029 
L 106.386365 84.106414 
L 107.027468 81.925921 
L 107.508295 80.984138 
L 107.828847 80.730582 
L 108.149398 80.788647 
L 108.46995 81.157398 
L 108.950777 82.266093 
L 109.59188 84.647865 
L 110.553534 89.501551 
L 111.996016 96.820758 
L 112.637119 98.938682 
L 113.117946 99.7222 
L 113.438498 99.787189 
L 113.759049 99.449173 
L 114.079601 98.6832 
L 114.560428 96.693361 
L 115.041255 93.668059 
L 115.682358 88.039136 
L 116.483737 78.647341 
L 117.605667 62.232597 
L 119.528976 33.230625 
L 120.330355 24.519941 
L 120.811182 21.045956 
L 121.292009 19.104606 
L 121.612561 18.710621 
L 121.772836 18.787842 
L 122.093388 19.48718 
L 122.413939 20.896335 
L 122.894767 24.262929 
L 123.53587 30.802971 
L 124.497524 43.802706 
L 127.061936 81.035203 
L 127.863315 89.342993 
L 128.504418 94.119466 
L 129.145521 97.162973 
L 129.626348 98.339239 
L 129.946899 98.628288 
L 130.267451 98.550308 
L 130.588002 98.136196 
L 131.068829 96.964236 
L 131.709932 94.594465 
L 132.992138 88.53786 
L 133.953793 84.434036 
L 134.594896 82.580318 
L 135.075723 81.832712 
L 135.396275 81.673344 
L 135.716826 81.792018 
L 136.037377 82.184617 
L 136.518205 83.256782 
L 137.159308 85.457891 
L 138.120962 89.810639 
L 139.403168 95.594837 
L 140.044271 97.587741 
L 140.525098 98.39473 
L 140.84565 98.535351 
L 141.166201 98.32191 
L 141.486753 97.729125 
L 141.96758 96.086906 
L 142.448407 93.505992 
L 143.08951 88.593131 
L 143.890889 80.216767 
L 144.852543 67.496376 
L 147.577231 29.438362 
L 148.218334 23.748696 
L 148.699161 21.052182 
L 149.019713 20.084689 
L 149.340264 19.810309 
L 149.50054 19.936082 
L 149.821091 20.711145 
L 150.141643 22.169744 
L 150.62247 25.568773 
L 151.263573 32.095558 
L 152.225228 45.020979 
L 154.949915 84.017399 
L 155.751294 91.808279 
L 156.392397 96.106093 
L 156.873224 98.162963 
L 157.354051 99.245095 
L 157.674603 99.453003 
L 157.995154 99.278815 
L 158.315706 98.753724 
L 158.796533 97.38973 
L 159.437636 94.725932 
L 160.880118 87.218968 
L 161.681496 83.578767 
L 162.322599 81.597594 
L 162.803427 80.832401 
L 163.123978 80.701102 
L 163.44453 80.879552 
L 163.765081 81.362219 
L 164.245908 82.620475 
L 164.887011 85.144053 
L 166.008941 90.92387 
L 167.130872 96.491537 
L 167.771975 98.686077 
L 168.252802 99.570208 
L 168.573353 99.724269 
L 168.893905 99.493345 
L 169.214456 98.852464 
L 169.695284 97.082979 
L 170.176111 94.31412 
L 170.817214 89.072283 
L 171.618592 80.202211 
L 172.740523 64.45735 
L 174.984383 31.759783 
L 175.625486 25.199673 
L 176.106313 21.787283 
L 176.587141 19.852852 
L 176.907692 19.43254 
L 177.067968 19.487635 
L 177.388519 20.125973 
L 177.709071 21.45403 
L 178.189898 24.668877 
L 178.831001 30.972522 
L 179.63238 41.320338 
L 182.837894 85.865418 
L 183.639273 92.798531 
L 184.280376 96.436131 
L 184.761203 98.04755 
L 185.081755 98.610965 
L 185.402306 98.788509 
L 185.722858 98.606095 
L 186.043409 98.094904 
L 186.524237 96.791823 
L 187.16534 94.276414 
L 189.729751 82.909801 
L 190.210579 81.833374 
L 190.53113 81.450551 
L 190.851682 81.351506 
L 191.172233 81.539798 
L 191.492785 82.009848 
L 191.973612 83.209091 
L 192.614715 85.589624 
L 193.736645 91.011889 
L 194.858575 96.219488 
L 195.499678 98.260622 
L 195.980505 99.068376 
L 196.301057 99.192354 
L 196.621608 98.948773 
L 196.94216 98.312809 
L 197.422987 96.582953 
L 197.903814 93.889989 
L 198.544917 88.797691 
L 199.346296 80.169005 
L 200.307951 67.151358 
L 202.872362 30.540257 
L 203.513465 24.405277 
L 203.994293 21.338843 
L 204.314844 20.114697 
L 204.635396 19.580493 
L 204.795671 19.576519 
L 204.955947 19.74838 
L 205.276499 20.615014 
L 205.59705 22.161658 
L 206.077877 25.679617 
L 206.71898 32.327911 
L 207.680635 45.334646 
L 210.245047 82.225543 
L 211.046425 90.412443 
L 211.687528 95.087145 
L 212.168356 97.44663 
L 212.649183 98.83718 
L 212.969734 99.248676 
L 213.290286 99.272627 
L 213.610837 98.936825 
L 214.091664 97.832542 
L 214.732767 95.451457 
L 215.694422 90.70864 
L 216.976628 84.419093 
L 217.617731 82.193846 
L 218.098558 81.183462 
L 218.419109 80.868153 
L 218.739661 80.852971 
L 219.060212 81.138785 
L 219.380764 81.716871 
L 219.861591 83.090178 
L 220.502694 85.705392 
L 221.7849 92.304657 
L 222.746555 96.797602 
L 223.387658 98.78836 
L 223.708209 99.344434 
L 224.028761 99.55632 
L 224.349312 99.391888 
L 224.669863 98.824555 
L 224.990415 97.833629 
L 225.471242 95.523219 
L 226.112345 90.882134 
L 226.753448 84.515383 
L 227.554827 74.427995 
L 228.997309 52.615665 
L 230.279514 33.884052 
L 231.080893 25.057544 
L 231.56172 21.448131 
L 232.042548 19.332832 
L 232.363099 18.808289 
L 232.523375 18.817656 
L 232.683651 19.008382 
L 233.004202 19.928565 
L 233.485029 22.609367 
L 233.965857 26.726102 
L 234.60696 34.092852 
L 235.72889 50.355004 
L 237.652199 78.829787 
L 238.453577 87.915902 
L 239.09468 93.338003 
L 239.735783 96.987904 
L 240.216611 98.56594 
L 240.537162 99.088892 
L 240.857714 99.213281 
L 241.178265 98.966995 
L 241.498817 98.383488 
L 241.979644 96.961695 
L 242.620747 94.283694 
L 245.024883 83.098173 
L 245.50571 81.874304 
L 245.986537 81.26915 
L 246.307089 81.232134 
L 246.62764 81.490283 
L 246.948192 82.034541 
L 247.429019 83.344946 
L 248.070122 85.852971 
L 249.352328 92.165792 
L 250.313982 96.406866 
L 250.955085 98.232629 
L 251.275637 98.712301 
L 251.596188 98.854383 
L 251.91674 98.628711 
L 252.237291 98.010692 
L 252.718119 96.308787 
L 253.198946 93.64691 
L 253.840049 88.605489 
L 254.641427 80.064788 
L 255.603082 67.20126 
L 258.167494 31.179508 
L 258.808597 25.158104 
L 259.289424 22.142969 
L 259.609975 20.93271 
L 259.930527 20.394213 
L 260.090803 20.380932 
L 260.251078 20.538604 
L 260.57163 21.362157 
L 260.892181 22.846447 
L 261.373009 26.237136 
L 262.014112 32.66319 
L 262.975766 45.271495 
L 265.700454 83.165923 
L 266.501832 90.836309 
L 267.142935 95.148981 
L 267.623763 97.282616 
L 268.10459 98.494407 
L 268.425141 98.815351 
L 268.745693 98.772784 
L 269.066244 98.395033 
L 269.547072 97.274068 
L 270.188175 94.954398 
L 271.310105 89.673968 
L 272.432035 84.687524 
L 273.073138 82.73477 
L 273.553965 81.908682 
L 273.874517 81.699567 
L 274.195068 81.773348 
L 274.51562 82.128079 
L 274.996447 83.160532 
L 275.63755 85.346772 
L 276.599204 89.76204 
L 278.041686 96.351818 
L 278.682789 98.214988 
L 279.00334 98.726862 
L 279.323892 98.90775 
L 279.644443 98.725317 
L 279.964995 98.15257 
L 280.445822 96.516764 
L 280.926649 93.910829 
L 281.567752 88.912893 
L 282.369131 80.350555 
L 283.330785 67.319392 
L 285.895197 30.328995 
L 286.5363 24.120078 
L 287.017128 21.030938 
L 287.337679 19.810625 
L 287.658231 19.296503 
L 287.818506 19.30872 
L 287.978782 19.500804 
L 288.299334 20.419499 
L 288.780161 23.088646 
L 289.260988 27.184208 
L 289.902091 34.511265 
L 291.024021 50.682779 
L 292.94733 78.965192 
L 293.748709 87.958979 
L 294.389812 93.301188 
L 295.030915 96.865518 
L 295.511742 98.375804 
L 295.832293 98.852117 
L 296.152845 98.928949 
L 296.473396 98.634511 
L 296.793948 98.002684 
L 297.274775 96.509317 
L 297.915878 93.74138 
L 300.320014 82.410995 
L 300.800842 81.223916 
L 301.121393 80.789104 
L 301.441944 80.6588 
L 301.762496 80.838592 
L 302.083047 81.324134 
L 302.563875 82.592275 
L 303.204978 85.145818 
L 304.166632 90.155463 
L 305.448838 96.846529 
L 306.089941 99.222395 
L 306.570768 100.262285 
L 306.89132 100.52767 
L 307.211871 100.412513 
L 307.532423 99.890265 
L 307.852974 98.940253 
L 308.333801 96.683304 
L 308.974904 92.097865 
L 309.616007 85.766206 
L 310.417386 75.685839 
L 311.699592 56.273782 
L 313.302349 32.582678 
L 314.103728 24.032229 
L 314.584555 20.639871 
L 315.065383 18.761184 
L 315.385934 18.396934 
L 315.54621 18.485369 
L 315.866761 19.200187 
L 316.187313 20.616488 
L 316.66814 23.981762 
L 317.309243 30.508816 
L 318.110622 41.148031 
L 321.155861 84.815508 
L 321.95724 92.364992 
L 322.598343 96.496174 
L 323.07917 98.464331 
L 323.559997 99.499388 
L 323.880549 99.7019 
L 324.2011 99.543883 
L 324.521651 99.056147 
L 325.002479 97.784539 
L 325.643582 95.295752 
L 326.925788 88.981612 
L 328.047718 83.945247 
L 328.688821 81.967291 
L 329.169648 81.072576 
L 329.4902 80.779603 
L 329.810751 80.73204 
L 330.131303 80.924027 
L 330.61213 81.63196 
L 331.092957 82.782026 
L 331.894336 85.426949 
L 334.298472 94.182742 
L 334.939575 95.690305 
L 335.580678 96.621975 
L 336.061505 96.941203 
L 336.542332 96.962223 
L 337.023159 96.730017 
L 337.664262 96.131926 
L 339.747847 93.885035 
L 340.228674 93.682177 
L 340.709502 93.677593 
L 341.190329 93.870281 
L 341.831432 94.38682 
L 343.754741 96.22977 
L 344.235568 96.27253 
L 344.556119 96.100731 
L 344.876671 95.734833 
L 345.357498 94.764217 
L 345.838325 93.218802 
L 346.479428 90.161814 
L 347.120531 85.892621 
L 347.92191 78.851714 
L 348.883564 68.176327 
L 349.684943 57.928947 
L 349.684943 57.928947 
" style="fill:none;stroke:#ff0000;stroke-linecap:square;stroke-width:1.5;"/>
   </g>
   <g id="line2d_15">
    <path clip-path="url(#p683f4aafc1)" d="M 45.321307 55.299196 
L 46.763789 74.51461 
L 47.725443 84.673053 
L 48.526822 90.906023 
L 49.167925 94.328611 
L 49.648752 95.999895 
L 50.129579 96.949121 
L 50.450131 97.211616 
L 50.770682 97.204812 
L 51.091234 96.955429 
L 51.572061 96.191591 
L 52.213164 94.616576 
L 53.655645 90.097741 
L 54.6173 87.509033 
L 55.258403 86.390806 
L 55.73923 85.965347 
L 56.059782 85.894237 
L 56.380333 85.995806 
L 56.86116 86.465252 
L 57.341988 87.291445 
L 57.983091 88.872642 
L 58.944745 91.982356 
L 61.348881 100.162358 
L 62.15026 101.944623 
L 62.631087 102.610166 
L 63.111914 102.932171 
L 63.432466 102.944993 
L 63.753017 102.791842 
L 64.233845 102.249053 
L 64.714672 101.337992 
L 65.355775 99.590863 
L 66.157153 96.701698 
L 68.56129 87.4034 
L 69.042117 86.495228 
L 69.362668 86.278903 
L 69.68322 86.436527 
L 70.003771 87.019223 
L 70.324323 88.0739 
L 70.80515 90.628076 
L 71.285977 94.43653 
L 71.92708 101.540625 
L 72.728459 113.54515 
L 73.690113 131.63651 
L 76.575077 188.526733 
L 77.376455 199.450184 
L 78.017558 205.875777 
L 78.658661 210.336363 
L 79.139489 212.508847 
L 79.620316 213.77047 
L 79.940867 214.13606 
L 80.261419 214.130818 
L 80.58197 213.75185 
L 80.902522 212.986058 
L 81.383349 211.060791 
L 81.864176 208.108254 
L 82.505279 202.368862 
L 83.146382 194.364743 
L 83.947761 181.119259 
L 84.909415 161.252997 
L 87.313552 109.608791 
L 88.11493 98.027183 
L 88.756033 92.081599 
L 89.23686 89.551449 
L 89.557412 88.707786 
L 89.877963 88.462299 
L 90.198515 88.73406 
L 90.519066 89.43262 
L 90.999894 91.070111 
L 93.083478 99.275922 
L 93.564306 100.098223 
L 93.884857 100.272318 
L 94.205408 100.13777 
L 94.52596 99.701542 
L 95.006787 98.529281 
L 95.64789 96.206852 
L 97.250648 89.894967 
L 97.571199 89.234832 
L 97.891751 88.994787 
L 98.052026 89.060276 
L 98.372578 89.613526 
L 98.693129 90.789373 
L 99.173957 93.842764 
L 99.654784 98.540277 
L 100.295887 107.356585 
L 101.097265 121.98393 
L 102.539747 153.955047 
L 103.821953 180.985414 
L 104.623332 194.285027 
L 105.424711 204.027523 
L 106.065813 209.318827 
L 106.706916 212.637168 
L 107.187744 213.991709 
L 107.508295 214.403213 
L 107.828847 214.437739 
L 108.149398 214.097289 
L 108.46995 213.373158 
L 108.950777 211.525313 
L 109.431604 208.680452 
L 110.072707 203.15607 
L 110.71381 195.476478 
L 111.515189 182.814961 
L 112.637119 160.427608 
L 114.880979 113.793115 
L 115.682358 101.87779 
L 116.323461 95.288208 
L 116.804288 92.098479 
L 117.285116 90.303421 
L 117.605667 89.794336 
L 117.926218 89.756818 
L 118.24677 90.114227 
L 118.727597 91.212099 
L 119.528976 93.854469 
L 120.49063 96.938817 
L 120.971458 97.987347 
L 121.452285 98.539069 
L 121.772836 98.601052 
L 122.093388 98.41431 
L 122.413939 97.988453 
L 122.894767 96.950776 
L 123.696145 94.485517 
L 124.818075 91.071836 
L 125.298903 90.341589 
L 125.619454 90.308493 
L 125.940006 90.732504 
L 126.260557 91.686549 
L 126.741384 94.244188 
L 127.222212 98.281015 
L 127.863315 106.053151 
L 128.664693 119.345805 
L 129.786623 142.664275 
L 131.709932 183.017213 
L 132.511311 195.766542 
L 133.31269 205.037386 
L 133.953793 210.017085 
L 134.43462 212.475895 
L 134.915447 213.960556 
L 135.235999 214.451479 
L 135.55655 214.560612 
L 135.877102 214.290888 
L 136.197653 213.634165 
L 136.67848 211.880799 
L 137.159308 209.118794 
L 137.800411 203.672932 
L 138.441514 196.012601 
L 139.242892 183.260579 
L 140.204547 164.029837 
L 142.608683 113.255296 
L 143.410062 101.411741 
L 144.051165 95.017444 
L 144.531992 92.031352 
L 145.012819 90.463184 
L 145.333371 90.105306 
L 145.653922 90.20989 
L 145.974474 90.693101 
L 146.455301 91.935632 
L 148.538885 98.201242 
L 149.019713 98.698659 
L 149.340264 98.709433 
L 149.660816 98.460152 
L 150.141643 97.626039 
L 150.782746 95.808037 
L 152.545779 90.123559 
L 152.866331 89.686445 
L 153.186882 89.646627 
L 153.507433 90.085439 
L 153.827985 91.076003 
L 154.308812 93.726944 
L 154.789639 97.896343 
L 155.430742 105.884899 
L 156.232121 119.458862 
L 157.354051 143.063507 
L 159.117085 180.486866 
L 160.078739 196.017918 
L 160.880118 205.150496 
L 161.521221 210.036717 
L 162.002048 212.439293 
L 162.482875 213.878884 
L 162.803427 214.345006 
L 163.123978 214.432845 
L 163.44453 214.14493 
L 163.765081 213.472999 
L 164.245908 211.702971 
L 164.726736 208.933561 
L 165.367838 203.497268 
L 166.008941 195.873995 
L 166.81032 183.206275 
L 167.771975 164.102516 
L 170.336387 110.603261 
L 171.137765 99.401984 
L 171.778868 93.540002 
L 172.259695 90.931163 
L 172.580247 89.971964 
L 172.900798 89.566914 
L 173.22135 89.642662 
L 173.541901 90.117617 
L 174.022729 91.389044 
L 175.144659 95.463459 
L 175.946038 97.924173 
L 176.426865 98.808784 
L 176.747416 99.085645 
L 177.067968 99.095881 
L 177.388519 98.839174 
L 177.869346 97.98284 
L 178.510449 96.117873 
L 180.273483 90.231657 
L 180.594034 89.751233 
L 180.914586 89.667846 
L 181.235137 90.06376 
L 181.555689 91.013106 
L 182.036516 93.60767 
L 182.517343 97.730309 
L 183.158446 105.676598 
L 183.959825 119.235804 
L 185.081755 142.88743 
L 186.844788 180.457785 
L 187.806443 196.050671 
L 188.607821 205.210982 
L 189.248924 210.105517 
L 189.729751 212.50847 
L 190.210579 213.94501 
L 190.53113 214.407694 
L 190.851682 214.491144 
L 191.172233 214.197899 
L 191.492785 213.519607 
L 191.973612 211.737766 
L 192.454439 208.953362 
L 193.095542 203.491919 
L 193.736645 195.83917 
L 194.538024 183.135312 
L 195.499678 164.006379 
L 198.06409 110.633838 
L 198.865469 99.503874 
L 199.506572 93.688394 
L 199.987399 91.102705 
L 200.307951 90.15208 
L 200.628502 89.749756 
L 200.949053 89.82239 
L 201.269605 90.288662 
L 201.750432 91.537775 
L 202.872362 95.530891 
L 203.673741 97.926394 
L 204.154568 98.775972 
L 204.47512 99.032782 
L 204.795671 99.026306 
L 205.116223 98.756674 
L 205.59705 97.888686 
L 206.238153 96.023039 
L 208.001186 90.20345 
L 208.321738 89.739877 
L 208.642289 89.6726 
L 208.962841 90.082968 
L 209.283392 91.044274 
L 209.764219 93.650593 
L 210.245047 97.776203 
L 210.88615 105.712148 
L 211.687528 119.239336 
L 212.809458 142.832579 
L 214.572492 180.359974 
L 215.534146 195.970533 
L 216.335525 205.159088 
L 216.976628 210.078906 
L 217.457455 212.50045 
L 217.938282 213.954792 
L 218.258834 214.428981 
L 218.579385 214.523793 
L 218.899937 214.241901 
L 219.220488 213.575036 
L 219.701315 211.810385 
L 220.182143 209.042559 
L 220.823246 203.599491 
L 221.464349 195.9556 
L 222.265727 183.239608 
L 223.227382 164.050828 
L 225.791794 110.375555 
L 226.593172 99.187302 
L 227.234275 93.360591 
L 227.715103 90.788738 
L 228.035654 89.857388 
L 228.356206 89.481559 
L 228.676757 89.586937 
L 228.997309 90.091064 
L 229.478136 91.403813 
L 231.721996 98.711984 
L 232.202823 99.235671 
L 232.523375 99.251752 
L 232.843926 98.999534 
L 233.324754 98.147815 
L 233.965857 96.285696 
L 235.72889 90.385669 
L 236.049441 89.897694 
L 236.369993 89.804579 
L 236.690544 90.188362 
L 237.011096 91.123005 
L 237.491923 93.690558 
L 237.97275 97.780499 
L 238.613853 105.676081 
L 239.415232 119.166791 
L 240.537162 142.734802 
L 242.300195 180.265384 
L 243.26185 195.888392 
L 244.063228 205.088727 
L 244.704331 210.017544 
L 245.185159 212.445211 
L 245.665986 213.905109 
L 245.986537 214.382799 
L 246.307089 214.48112 
L 246.62764 214.202967 
L 246.948192 213.540367 
L 247.429019 211.783922 
L 247.909846 209.027809 
L 248.550949 203.608731 
L 249.192052 196.001979 
L 249.993431 183.355233 
L 250.955085 164.283454 
L 253.519497 110.946799 
L 254.320876 99.787923 
L 254.961979 93.931591 
L 255.442806 91.30271 
L 255.763358 90.316538 
L 256.083909 89.872904 
L 256.404461 89.898306 
L 256.725012 90.311441 
L 257.205839 91.470329 
L 258.32777 95.215615 
L 259.129148 97.424899 
L 259.609975 98.172523 
L 259.930527 98.370305 
L 260.251078 98.315109 
L 260.57163 98.010018 
L 261.052457 97.12059 
L 261.69356 95.302747 
L 263.136042 90.79659 
L 263.616869 90.079164 
L 263.937421 90.065841 
L 264.257972 90.519519 
L 264.578524 91.513236 
L 265.059351 94.147751 
L 265.540178 98.277873 
L 266.181281 106.186263 
L 266.98266 119.634677 
L 268.10459 143.066073 
L 269.867623 180.333995 
L 270.829278 195.850208 
L 271.630656 204.994242 
L 272.271759 209.896867 
L 272.752586 212.312892 
L 273.233414 213.765655 
L 273.553965 214.240248 
L 273.874517 214.336443 
L 274.195068 214.057061 
L 274.51562 213.39427 
L 274.996447 211.640283 
L 275.477274 208.891567 
L 276.118377 203.493594 
L 276.75948 195.923968 
L 277.560859 183.344958 
L 278.522513 164.365822 
L 281.086925 111.008176 
L 281.888304 99.721922 
L 282.529407 93.749149 
L 283.010234 91.040571 
L 283.330785 90.010892 
L 283.651337 89.534844 
L 283.971888 89.541365 
L 284.29244 89.95104 
L 284.773267 91.136198 
L 285.734922 94.511263 
L 286.5363 97.130797 
L 287.017128 98.206657 
L 287.497955 98.758701 
L 287.818506 98.805529 
L 288.139058 98.591627 
L 288.619885 97.807602 
L 289.260988 96.04466 
L 291.024021 90.354954 
L 291.344573 89.882296 
L 291.665124 89.795865 
L 291.985676 90.178042 
L 292.306227 91.103641 
L 292.787054 93.646714 
L 293.267882 97.704703 
L 293.908985 105.559017 
L 294.710363 119.024822 
L 295.832293 142.645537 
L 297.755602 183.365538 
L 298.556981 196.150979 
L 299.35836 205.400619 
L 299.999463 210.338699 
L 300.48029 212.759754 
L 300.961117 214.204604 
L 301.281669 214.668362 
L 301.60222 214.749538 
L 301.922772 214.45036 
L 302.243323 213.761672 
L 302.72415 211.953009 
L 303.204978 209.123273 
L 303.846081 203.562698 
L 304.487184 195.759133 
L 305.288562 182.8018 
L 306.250217 163.338829 
L 308.654353 112.582096 
L 309.455732 101.00648 
L 310.096835 94.890201 
L 310.577662 92.128823 
L 310.898213 91.086591 
L 311.218765 90.612163 
L 311.539316 90.630268 
L 311.859868 91.056895 
L 312.340695 92.26734 
L 313.462625 96.206323 
L 314.264004 98.536215 
L 314.744831 99.31894 
L 315.065383 99.517082 
L 315.385934 99.439929 
L 315.706486 99.087417 
L 316.187313 98.072625 
L 316.828416 95.972218 
L 318.591449 89.337441 
L 318.912 88.708991 
L 319.232552 88.474089 
L 319.392828 88.530143 
L 319.713379 89.037027 
L 320.033931 90.12632 
L 320.514758 92.969482 
L 320.995585 97.361801 
L 321.636688 105.647861 
L 322.438067 119.509481 
L 323.720273 146.801748 
L 325.32303 180.3035 
L 326.284685 195.630348 
L 327.086063 204.693929 
L 327.727166 209.599561 
L 328.368269 212.661311 
L 328.849097 213.89125 
L 329.169648 214.24496 
L 329.4902 214.238326 
L 329.810751 213.871162 
L 330.131303 213.13337 
L 330.61213 211.287848 
L 331.092957 208.470827 
L 331.73406 203.01443 
L 332.375163 195.408863 
L 333.176542 182.749615 
L 334.138196 163.406114 
L 337.343711 94.040558 
L 337.984814 85.367252 
L 338.625917 79.668003 
L 339.106744 77.352567 
L 339.427296 76.689962 
L 339.587571 76.605153 
L 339.747847 76.674776 
L 340.068399 77.243348 
L 340.549226 79.027362 
L 341.190329 82.706354 
L 343.754741 99.474169 
L 344.235568 101.100321 
L 344.556119 101.709196 
L 344.876671 101.906407 
L 345.197222 101.672535 
L 345.517774 100.994603 
L 345.998601 99.132001 
L 346.479428 96.259385 
L 347.120531 90.920244 
L 347.92191 82.068516 
L 349.04384 66.618384 
L 349.684943 56.905421 
L 349.684943 56.905421 
" style="fill:none;stroke:#0000ff;stroke-linecap:square;stroke-width:1.5;"/>
   </g>
   <g id="patch_3">
    <path d="M 30.103125 224.64 
L 30.103125 7.2 
" style="fill:none;stroke:#000000;stroke-linecap:square;stroke-linejoin:miter;stroke-width:0.8;"/>
   </g>
   <g id="patch_4">
    <path d="M 364.903125 224.64 
L 364.903125 7.2 
" style="fill:none;stroke:#000000;stroke-linecap:square;stroke-linejoin:miter;stroke-width:0.8;"/>
   </g>
   <g id="patch_5">
    <path d="M 30.103125 224.64 
L 364.903125 224.64 
" style="fill:none;stroke:#000000;stroke-linecap:square;stroke-linejoin:miter;stroke-width:0.8;"/>
   </g>
   <g id="patch_6">
    <path d="M 30.103125 7.2 
L 364.903125 7.2 
" style="fill:none;stroke:#000000;stroke-linecap:square;stroke-linejoin:miter;stroke-width:0.8;"/>
   </g>
  </g>
 </g>
 <defs>
  <clipPath id="p683f4aafc1">
   <rect height="217.44" width="334.8" x="30.103125" y="7.2"/>
  </clipPath>
 </defs>
</svg>
